<?xml version="1.0" encoding="UTF-8"?>
<svg version="1.1" xmlns="http://www.w3.org/2000/svg" xmlns:xlink="http://www.w3.org/1999/xlink">
    <path fill-rule="evenodd" clip-rule="evenodd" d="M14.9186 29.8374C23.1581 29.8374 29.8374 23.1581 29.8374 14.9186C29.8374 6.67932 23.1581 0 14.9186 0C6.67932 0 0 6.67932 0 14.9186C0 17.8618 0.852233 20.6059 2.32339 22.9175C4.22104 18.1379 8.02894 14.3784 11.1455 11.9539L9.93053 9.18944C9.78785 8.86473 9.71647 8.70236 9.74665 8.59117C9.77285 8.49451 9.84212 8.41526 9.93432 8.37624C10.0405 8.33134 10.2109 8.38018 10.552 8.47785L20.2706 11.2613C20.6714 11.3761 20.8718 11.4334 20.9896 11.556C21.0928 11.6636 21.1547 11.8042 21.164 11.9531C21.1747 12.1226 21.0814 12.3091 20.895 12.682L16.3737 21.724C16.2151 22.0413 16.1358 22.1999 16.0309 22.2476C15.9398 22.2893 15.8346 22.2866 15.7457 22.2406C15.6433 22.1876 15.572 22.0253 15.4293 21.7006V21.7005L14.2143 18.9362C13.828 19.0853 8.63839 21.1685 4.5456 25.6409C7.23031 28.2387 10.8878 29.8374 14.9186 29.8374Z" fill="#20CFD9" />
</svg>
