<svg width="98" height="20" viewBox="0 0 98 20" fill="none" xmlns="http://www.w3.org/2000/svg">
<path fill-rule="evenodd" clip-rule="evenodd" d="M8.16754 3.66402L7.97222 4.19267C6.69618 7.64157 3.97732 10.3603 0.528646 11.6363L0 11.8324L0.528646 12.0278C3.97755 13.3038 6.69622 16.0227 7.97222 19.4714L8.16754 20L8.36372 19.4714C9.63977 16.0224 12.3586 13.3038 15.8073 12.0278L16.3359 11.8324L15.8073 11.6363C12.3584 10.3602 9.63972 7.64135 8.36372 4.19267L8.16754 3.66402ZM16.336 0L16.2483 0.236979C15.6763 1.78385 14.4567 3.00344 12.9099 3.57633L12.6729 3.664L12.9099 3.75168C14.4567 4.32373 15.6763 5.54335 16.2483 7.09014L16.336 7.32712L16.4237 7.09014C16.9957 5.54327 18.2154 4.32368 19.763 3.75168L20 3.664L19.763 3.57633C18.2162 3.00428 16.9966 1.78465 16.4237 0.236979L16.336 0Z" fill="url(#paint0_linear_12513_24090)"/>
<rect x="28" width="70" height="20" rx="10" fill="url(#paint1_linear_12513_24090)"/>
<rect x="28.5" y="0.5" width="69" height="19" rx="9.5" stroke="black" stroke-opacity="0.06"/>
<path d="M39.7351 14H38.3374L41.478 5.27273H42.9993L46.1399 14H44.7422L42.2749 6.85795H42.2067L39.7351 14ZM39.9695 10.5824H44.5036V11.6903H39.9695V10.5824ZM48.717 5.27273V14H47.4002V5.27273H48.717ZM54.5476 14H53.1499L56.2905 5.27273H57.8118L60.9524 14H59.5547L57.0874 6.85795H57.0192L54.5476 14ZM54.782 10.5824H59.3161V11.6903H54.782V10.5824ZM66.9684 9.05256L65.8136 9.2571C65.7653 9.10937 65.6886 8.96875 65.5835 8.83523C65.4812 8.7017 65.342 8.59233 65.1658 8.5071C64.9897 8.42187 64.7695 8.37926 64.5053 8.37926C64.1445 8.37926 63.8434 8.46023 63.6019 8.62216C63.3604 8.78125 63.2397 8.98722 63.2397 9.24006C63.2397 9.45881 63.3207 9.63494 63.4826 9.76847C63.6445 9.90199 63.9059 10.0114 64.2667 10.0966L65.3065 10.3352C65.9087 10.4744 66.3576 10.6889 66.6531 10.9787C66.9485 11.2685 67.0962 11.6449 67.0962 12.108C67.0962 12.5 66.9826 12.8494 66.7553 13.1562C66.5309 13.4602 66.217 13.6989 65.8136 13.8722C65.413 14.0455 64.9485 14.1321 64.4201 14.1321C63.6871 14.1321 63.0891 13.9759 62.6261 13.6634C62.163 13.348 61.8789 12.9006 61.7738 12.321L63.0053 12.1335C63.082 12.4545 63.2397 12.6974 63.4783 12.8622C63.717 13.0241 64.0281 13.1051 64.4116 13.1051C64.8292 13.1051 65.163 13.0185 65.413 12.8452C65.663 12.669 65.788 12.4545 65.788 12.2017C65.788 11.9972 65.7113 11.8253 65.5579 11.6861C65.4073 11.5469 65.1758 11.4418 64.8633 11.3707L63.7553 11.1278C63.1445 10.9886 62.6928 10.767 62.4002 10.4631C62.1104 10.1591 61.9656 9.77415 61.9656 9.30824C61.9656 8.92187 62.0735 8.58381 62.2894 8.29403C62.5053 8.00426 62.8036 7.77841 63.1843 7.61648C63.565 7.4517 64.0011 7.36932 64.4925 7.36932C65.1999 7.36932 65.7567 7.52273 66.163 7.82955C66.5692 8.13352 66.8377 8.54119 66.9684 9.05256ZM73.402 9.05256L72.2472 9.2571C72.1989 9.10937 72.1222 8.96875 72.017 8.83523C71.9148 8.7017 71.7756 8.59233 71.5994 8.5071C71.4233 8.42187 71.2031 8.37926 70.9389 8.37926C70.5781 8.37926 70.277 8.46023 70.0355 8.62216C69.794 8.78125 69.6733 8.98722 69.6733 9.24006C69.6733 9.45881 69.7543 9.63494 69.9162 9.76847C70.0781 9.90199 70.3395 10.0114 70.7003 10.0966L71.7401 10.3352C72.3423 10.4744 72.7912 10.6889 73.0866 10.9787C73.3821 11.2685 73.5298 11.6449 73.5298 12.108C73.5298 12.5 73.4162 12.8494 73.1889 13.1562C72.9645 13.4602 72.6506 13.6989 72.2472 13.8722C71.8466 14.0455 71.3821 14.1321 70.8537 14.1321C70.1207 14.1321 69.5227 13.9759 69.0597 13.6634C68.5966 13.348 68.3125 12.9006 68.2074 12.321L69.4389 12.1335C69.5156 12.4545 69.6733 12.6974 69.9119 12.8622C70.1506 13.0241 70.4616 13.1051 70.8452 13.1051C71.2628 13.1051 71.5966 13.0185 71.8466 12.8452C72.0966 12.669 72.2216 12.4545 72.2216 12.2017C72.2216 11.9972 72.1449 11.8253 71.9915 11.6861C71.8409 11.5469 71.6094 11.4418 71.2969 11.3707L70.1889 11.1278C69.5781 10.9886 69.1264 10.767 68.8338 10.4631C68.544 10.1591 68.3991 9.77415 68.3991 9.30824C68.3991 8.92187 68.5071 8.58381 68.723 8.29403C68.9389 8.00426 69.2372 7.77841 69.6179 7.61648C69.9986 7.4517 70.4347 7.36932 70.9261 7.36932C71.6335 7.36932 72.1903 7.52273 72.5966 7.82955C73.0028 8.13352 73.2713 8.54119 73.402 9.05256ZM74.9308 14V7.45455H76.2049V14H74.9308ZM75.5742 6.4446C75.3526 6.4446 75.1623 6.37074 75.0032 6.22301C74.8469 6.07244 74.7688 5.89347 74.7688 5.68608C74.7688 5.47585 74.8469 5.29687 75.0032 5.14915C75.1623 4.99858 75.3526 4.9233 75.5742 4.9233C75.7958 4.9233 75.9847 4.99858 76.141 5.14915C76.3001 5.29687 76.3796 5.47585 76.3796 5.68608C76.3796 5.89347 76.3001 6.07244 76.141 6.22301C75.9847 6.37074 75.7958 6.4446 75.5742 6.4446ZM82.8239 9.05256L81.669 9.2571C81.6207 9.10937 81.544 8.96875 81.4389 8.83523C81.3366 8.7017 81.1974 8.59233 81.0213 8.5071C80.8452 8.42187 80.625 8.37926 80.3608 8.37926C80 8.37926 79.6989 8.46023 79.4574 8.62216C79.2159 8.78125 79.0952 8.98722 79.0952 9.24006C79.0952 9.45881 79.1761 9.63494 79.3381 9.76847C79.5 9.90199 79.7614 10.0114 80.1222 10.0966L81.1619 10.3352C81.7642 10.4744 82.2131 10.6889 82.5085 10.9787C82.804 11.2685 82.9517 11.6449 82.9517 12.108C82.9517 12.5 82.8381 12.8494 82.6108 13.1562C82.3864 13.4602 82.0724 13.6989 81.669 13.8722C81.2685 14.0455 80.804 14.1321 80.2756 14.1321C79.5426 14.1321 78.9446 13.9759 78.4815 13.6634C78.0185 13.348 77.7344 12.9006 77.6293 12.321L78.8608 12.1335C78.9375 12.4545 79.0952 12.6974 79.3338 12.8622C79.5724 13.0241 79.8835 13.1051 80.267 13.1051C80.6847 13.1051 81.0185 13.0185 81.2685 12.8452C81.5185 12.669 81.6435 12.4545 81.6435 12.2017C81.6435 11.9972 81.5668 11.8253 81.4134 11.6861C81.2628 11.5469 81.0312 11.4418 80.7188 11.3707L79.6108 11.1278C79 10.9886 78.5483 10.767 78.2557 10.4631C77.9659 10.1591 77.821 9.77415 77.821 9.30824C77.821 8.92187 77.929 8.58381 78.1449 8.29403C78.3608 8.00426 78.6591 7.77841 79.0398 7.61648C79.4205 7.4517 79.8565 7.36932 80.348 7.36932C81.0554 7.36932 81.6122 7.52273 82.0185 7.82955C82.4247 8.13352 82.6932 8.54119 82.8239 9.05256ZM87.408 7.45455V8.47727H83.8327V7.45455H87.408ZM84.7915 5.88636H86.0657V12.0781C86.0657 12.3253 86.1026 12.5114 86.1765 12.6364C86.2504 12.7585 86.3455 12.8423 86.462 12.8878C86.5813 12.9304 86.7106 12.9517 86.8498 12.9517C86.9521 12.9517 87.0415 12.9446 87.1183 12.9304C87.195 12.9162 87.2546 12.9048 87.2972 12.8963L87.5273 13.9489C87.4535 13.9773 87.3484 14.0057 87.212 14.0341C87.0756 14.0653 86.9052 14.0824 86.7006 14.0852C86.3654 14.0909 86.0529 14.0312 85.7631 13.9062C85.4734 13.7812 85.239 13.5881 85.06 13.3267C84.881 13.0653 84.7915 12.7372 84.7915 12.3423V5.88636Z" fill="white"/>
<defs>
<linearGradient id="paint0_linear_12513_24090" x1="4.04576" y1="0.930059" x2="20.9961" y2="26.8322" gradientUnits="userSpaceOnUse">
<stop stop-color="#6B29EF"/>
<stop offset="0.286458" stop-color="#B739E0"/>
<stop offset="0.614583" stop-color="#EC8436"/>
<stop offset="0.953125" stop-color="#F3B040"/>
</linearGradient>
<linearGradient id="paint1_linear_12513_24090" x1="42.1602" y1="0.930059" x2="48.8434" y2="36.6749" gradientUnits="userSpaceOnUse">
<stop stop-color="#6B29EF"/>
<stop offset="0.286458" stop-color="#B739E0"/>
<stop offset="0.614583" stop-color="#EC8436"/>
<stop offset="0.953125" stop-color="#F3B040"/>
</linearGradient>
</defs>
</svg>
