<svg width="16" height="222" viewBox="0 0 16 222" fill="none" xmlns="http://www.w3.org/2000/svg">
<path d="M-7.68718e-08 220.086L0 222L16 222L16 220.086L-7.68718e-08 220.086Z" fill="white"/>
<path d="M-7.68718e-08 217.216L0 219.13L16 219.13L16 217.216L-7.68718e-08 217.216Z" fill="white"/>
<path d="M-3.84359e-08 214.345L0 215.302L16 215.302L16 214.345L-3.84359e-08 214.345Z" fill="white"/>
<path d="M-1.45705e-07 205.734L0 209.562L16 209.562L16 205.734L-1.45705e-07 205.734Z" fill="white"/>
<path d="M-1.15308e-07 200.949L0 203.819L16 203.819L16 200.949L-1.15308e-07 200.949Z" fill="white"/>
<path d="M-3.64262e-08 199.034L0 199.991L16 199.991L16 199.034L-3.64262e-08 199.034Z" fill="white"/>
<path d="M-3.84359e-08 196.163L0 197.12L16 197.12L16 196.163L-3.84359e-08 196.163Z" fill="white"/>
<path d="M-1.92179e-07 189.466L0 194.25L16 194.25L16 189.466L-1.92179e-07 189.466Z" fill="white"/>
<path d="M-3.84359e-08 186.595L0 187.552L16 187.552L16 186.595L-3.84359e-08 186.595Z" fill="white"/>
<path d="M-3.64262e-08 184.682L0 185.639L16 185.639L16 184.682L-3.64262e-08 184.682Z" fill="white"/>
<path d="M-1.45705e-07 177.984L0 181.812L16 181.812L16 177.984L-1.45705e-07 177.984Z" fill="white"/>
<path d="M-3.84359e-08 175.112L0 176.069L16 176.069L16 175.112L-3.84359e-08 175.112Z" fill="white"/>
<path d="M-7.68718e-08 171.285L0 173.199L16 173.199L16 171.285L-7.68718e-08 171.285Z" fill="white"/>
<path d="M-3.84359e-08 167.458L0 168.415L16 168.415L16 167.458L-3.84359e-08 167.458Z" fill="white"/>
<path d="M-3.84359e-08 165.543L0 166.5L16 166.5L16 165.543L-3.84359e-08 165.543Z" fill="white"/>
<path d="M-3.64262e-08 159.802L0 160.759L16 160.759L16 159.802L-3.64262e-08 159.802Z" fill="white"/>
<path d="M-7.68718e-08 153.104L0 155.018L16 155.018L16 153.104L-7.68718e-08 153.104Z" fill="white"/>
<path d="M-3.84359e-08 151.191L0 152.147L16 152.147L16 151.191L-3.84359e-08 151.191Z" fill="white"/>
<path d="M-3.84359e-08 147.362L0 148.319L16 148.319L16 147.362L-3.84359e-08 147.362Z" fill="white"/>
<path d="M-3.64262e-08 145.448L0 146.405L16 146.405L16 145.448L-3.64262e-08 145.448Z" fill="white"/>
<path d="M-1.92179e-07 138.751L0 143.535L16 143.535L16 138.751L-1.92179e-07 138.751Z" fill="white"/>
<path d="M-1.15308e-07 133.965L0 136.836L16 136.836L16 133.965L-1.15308e-07 133.965Z" fill="white"/>
<path d="M-3.84359e-08 131.095L0 132.052L16 132.052L16 131.095L-3.84359e-08 131.095Z" fill="white"/>
<path d="M-3.64262e-08 129.182L0 130.139L16 130.139L16 129.182L-3.64262e-08 129.182Z" fill="white"/>
<path d="M-3.84359e-08 123.441L0 124.397L16 124.397L16 123.441L-3.84359e-08 123.441Z" fill="white"/>
<path d="M-3.84359e-08 119.612L0 120.569L16 120.569L16 119.612L-3.84359e-08 119.612Z" fill="white"/>
<path d="M-7.28523e-08 116.741L0 118.655L16 118.655L16 116.741L-7.28523e-08 116.741Z" fill="white"/>
<path d="M-7.28523e-08 110.043L0 111.957L16 111.957L16 110.043L-7.28523e-08 110.043Z" fill="white"/>
<path d="M-1.15308e-07 106.215L0 109.086L16 109.086L16 106.215L-1.15308e-07 106.215Z" fill="white"/>
<path d="M-1.45705e-07 101.431L0 105.259L16 105.259L16 101.431L-1.45705e-07 101.431Z" fill="white"/>
<path d="M-3.84359e-08 98.5607L0 99.5176L16 99.5176L16 98.5607L-3.84359e-08 98.5607Z" fill="white"/>
<path d="M-7.68718e-08 95.6897L0 97.6035L16 97.6035L16 95.6897L-7.68718e-08 95.6897Z" fill="white"/>
<path d="M-3.84359e-08 91.8624L0 92.8193L16 92.8193L16 91.8624L-3.84359e-08 91.8624Z" fill="white"/>
<path d="M-7.68718e-08 86.1214L0 88.0352L16 88.0352L16 86.1214L-7.68718e-08 86.1214Z" fill="white"/>
<path d="M-3.64262e-08 83.2501L0 84.207L16 84.207L16 83.2501L-3.64262e-08 83.2501Z" fill="white"/>
<path d="M-1.92179e-07 76.5515L0 81.3359L16 81.3359L16 76.5515L-1.92179e-07 76.5515Z" fill="white"/>
<path d="M-3.64262e-08 74.6388L0 75.5957L16 75.5957L16 74.6388L-3.64262e-08 74.6388Z" fill="white"/>
<path d="M-7.68718e-08 69.8538L0 71.7676L16 71.7676L16 69.8538L-7.68718e-08 69.8538Z" fill="white"/>
<path d="M-1.45705e-07 64.1119L0 67.9395L16 67.9395L16 64.1119L-1.45705e-07 64.1119Z" fill="white"/>
<path d="M-3.64262e-08 62.1984L0 63.1553L16 63.1553L16 62.1984L-3.64262e-08 62.1984Z" fill="white"/>
<path d="M-7.68718e-08 58.3714L0 60.2852L16 60.2852L16 58.3714L-7.68718e-08 58.3714Z" fill="white"/>
<path d="M-7.68718e-08 55.5012L0 57.415L16 57.415L16 55.5012L-7.68718e-08 55.5012Z" fill="white"/>
<path d="M-3.84359e-08 49.7589L0 50.7158L16 50.7158L16 49.7589L-3.84359e-08 49.7589Z" fill="white"/>
<path d="M-3.84359e-08 47.8449L0 48.8018L16 48.8018L16 47.8449L-3.84359e-08 47.8449Z" fill="white"/>
<path d="M-1.92179e-07 41.1472L0 45.9316L16 45.9316L16 41.1472L-1.92179e-07 41.1472Z" fill="white"/>
<path d="M-7.68718e-08 37.3196L0 39.2334L16 39.2334L16 37.3196L-7.68718e-08 37.3196Z" fill="white"/>
<path d="M-3.64262e-08 35.4054L0 36.3623L16 36.3623L16 35.4054L-3.64262e-08 35.4054Z" fill="white"/>
<path d="M-1.82131e-07 28.7067L0 33.4912L16 33.4912L16 28.7067L-1.82131e-07 28.7067Z" fill="white"/>
<path d="M-3.64262e-08 25.837L0 26.7939L16 26.7939L16 25.837L-3.64262e-08 25.837Z" fill="white"/>
<path d="M-1.53744e-07 19.1382L0 22.9658L16 22.9658L16 19.1382L-1.53744e-07 19.1382Z" fill="white"/>
<path d="M-7.68718e-08 16.2678L0 18.1816L16 18.1816L16 16.2678L-7.68718e-08 16.2678Z" fill="white"/>
<path d="M-7.68718e-08 12.4397L0 14.3535L16 14.3535L16 12.4397L-7.68718e-08 12.4397Z" fill="white"/>
<path d="M-1.09278e-07 5.74161L0 8.6123L16 8.6123L16 5.74161L-1.09278e-07 5.74161Z" fill="white"/>
<path d="M-7.68718e-08 2.87136L0 4.78516L16 4.78516L16 2.87136L-7.68718e-08 2.87136Z" fill="white"/>
<path d="M-7.68718e-08 0.00124598L0 1.91504L16 1.91504L16 0.00124521L-7.68718e-08 0.00124598Z" fill="white"/>
</svg>
