<svg width="16" height="15" viewBox="0 0 16 15" fill="none" xmlns="http://www.w3.org/2000/svg">
<path d="M14.9082 11.6488L12.8338 12.5031C12.8213 12.5081 12.6594 12.5206 12.6494 12.5181L11.1913 12.1781V12.9675C11.1913 13.0963 11.1138 13.2125 10.9944 13.2619L8.14192 14.4375C8.06442 14.4694 7.97755 14.4694 7.90004 14.4375L1.09252 11.6487C0.973149 11.6 0.89502 11.4837 0.89502 11.3544V3.31691C0.89502 3.18316 0.97877 3.06317 1.10502 3.01754L7.91254 0.557536C7.94754 0.545036 7.98379 0.538786 8.02067 0.538786C8.05754 0.538786 8.09442 0.545035 8.12942 0.55816L10.9819 1.59566C11.1075 1.64129 11.1913 1.76066 11.1913 1.89442V2.55317L12.645 2.25379C12.6669 2.24942 12.79 2.25317 12.8256 2.26629L14.8957 3.01879C15.0213 3.06441 15.1051 3.18378 15.1051 3.31754V11.355C15.1051 11.4837 15.0269 11.5994 14.9082 11.6488ZM12.5576 7.5475L11.1914 7.52875V8.08812L12.1657 8.13875C12.1988 8.14062 12.2238 8.16875 12.222 8.20125C12.2201 8.23375 12.1932 8.25812 12.1595 8.2575L11.1913 8.20687V8.79625L12.1682 8.88125C12.2007 8.88437 12.2251 8.91312 12.2226 8.94562C12.2201 8.97812 12.1914 9.00187 12.1582 8.99999L11.192 8.91624V9.49936L12.5588 9.67186L12.5576 7.5475ZM11.1907 5.75806L12.1582 5.69806H12.162C12.1932 5.69806 12.2195 5.72243 12.2214 5.75368C12.2232 5.78681 12.1982 5.81493 12.1657 5.81681L11.1907 5.87743V6.49868L12.1607 6.47368H12.1626C12.1945 6.47368 12.2214 6.49931 12.222 6.5318C12.2226 6.56493 12.197 6.59243 12.1639 6.59305L11.1914 6.61805V7.20993L12.5576 7.22868V5.07684L11.1914 5.21309L11.1907 5.75806ZM12.5576 11.8437V9.99182L11.1907 9.81932V10.3468L12.172 10.5068C12.2045 10.5118 12.2264 10.5431 12.2214 10.5756C12.2164 10.6081 12.1845 10.6306 12.1526 10.6249L11.1907 10.4681V10.9774L12.1732 11.1681C12.2057 11.1743 12.227 11.2056 12.2207 11.2381C12.2145 11.2706 12.182 11.2918 12.1507 11.2856L11.1907 11.0993V11.5249L12.5576 11.8437ZM7.84129 7.48174L6.10257 7.45736L6.10195 10.353L7.84067 10.743L7.84129 7.48174ZM5.94321 7.45486L4.40947 7.43361V9.97361L5.94321 10.3174V7.45486ZM5.94321 7.13673V4.55481L4.40947 4.82731V7.11547L5.94321 7.13673ZM6.10196 7.13923L7.84068 7.16361V4.21865L6.10196 4.5274V7.13923ZM7.84132 11.0687L6.10196 10.6793V13.0137L7.84068 13.7262L7.84132 11.0687ZM5.94324 10.6437L4.4095 10.2999V12.3199L5.94324 12.9481V10.6437ZM4.25012 10.2643L2.71638 9.92056L2.717 11.6268L4.25075 12.2549L4.25012 10.2643ZM4.25012 9.93805V7.43117L2.71638 7.40992L2.717 9.59488L4.25012 9.93805ZM2.55764 7.40813L1.53139 7.39375V9.32879L2.55764 9.55879V7.40813ZM1.53139 7.07563L2.55764 7.09001V5.15625L1.53139 5.33874V7.07563ZM2.71702 7.09188L4.25076 7.11313V4.85569L2.71702 5.12819V7.09188ZM4.25014 4.53316V2.55748L2.71639 3.11185L2.71702 4.80497L4.25014 4.53316ZM4.40951 4.50441L5.94326 4.23192V1.94567L4.40951 2.50004V4.50441ZM6.10199 4.20441L7.84071 3.89566V1.25998L6.10199 1.88873V4.20441ZM2.55767 11.5619V9.88505L1.53142 9.65505V11.1413L2.55767 11.5619ZM1.53142 5.01561L2.55767 4.83312V3.16944L1.53142 3.54068V5.01561ZM11.1914 3.62624L12.1533 3.46624C12.1564 3.46561 12.1595 3.46561 12.1633 3.46561C12.192 3.46561 12.217 3.48624 12.222 3.51561C12.227 3.54811 12.2058 3.57874 12.1727 3.58436L11.1914 3.74811V4.25499L12.1545 4.12436C12.157 4.12373 12.1602 4.12373 12.1627 4.12373C12.192 4.12373 12.2177 4.14561 12.2214 4.17561C12.2258 4.20811 12.2033 4.23811 12.1702 4.24249L11.1908 4.37561V4.89499L12.557 4.75874V2.9213L11.1908 3.20317L11.1914 3.62624ZM6.31398 12.463L7.52398 12.8755C7.56585 12.8899 7.61085 12.8674 7.62523 12.8262C7.6396 12.7843 7.6171 12.7393 7.57585 12.7249L6.36585 12.3124C6.3571 12.3093 6.34898 12.308 6.34023 12.308C6.3071 12.308 6.27648 12.3287 6.26523 12.3618C6.2496 12.4037 6.2721 12.4487 6.31398 12.463ZM4.61894 11.8849L5.65769 12.2393C5.69956 12.2537 5.74456 12.2312 5.75831 12.1899C5.77269 12.148 5.75019 12.103 5.70894 12.0893L4.67019 11.7349C4.66144 11.7318 4.65331 11.7305 4.64456 11.7305C4.61144 11.7305 4.58081 11.7512 4.56956 11.7843C4.55519 11.8255 4.57706 11.8705 4.61894 11.8849ZM2.85526 11.2837L3.97588 11.6662C4.01713 11.6805 4.06276 11.658 4.07713 11.6168C4.09151 11.5749 4.06901 11.5299 4.02776 11.5155L2.90713 11.133C2.89838 11.1299 2.89026 11.1287 2.88151 11.1287C2.84838 11.1287 2.81776 11.1493 2.80651 11.1824C2.79151 11.2243 2.81401 11.2693 2.85526 11.2837ZM1.67151 10.7955C1.65714 10.8374 1.67964 10.8824 1.72089 10.8962L2.33589 11.1062C2.37714 11.1205 2.42277 11.098 2.43652 11.0568C2.4509 11.0149 2.4284 10.9699 2.38715 10.9562L1.77214 10.7462C1.76339 10.743 1.75526 10.7418 1.74651 10.7418C1.71339 10.7418 1.68276 10.7624 1.67151 10.7955ZM7.62591 11.8324C7.63779 11.7899 7.61341 11.7462 7.57091 11.7343L6.36154 11.393C6.35404 11.3912 6.34716 11.3899 6.33966 11.3899C6.30466 11.3899 6.27341 11.413 6.26341 11.448C6.25154 11.4905 6.27591 11.5343 6.31841 11.5462L7.52779 11.8874C7.57029 11.8987 7.61404 11.8743 7.62591 11.8324ZM5.75967 11.3062C5.77155 11.2637 5.74717 11.2199 5.70467 11.208L4.66592 10.9149C4.65842 10.913 4.65155 10.9118 4.64405 10.9118C4.60905 10.9118 4.5778 10.9349 4.5678 10.9699C4.55592 11.0124 4.5803 11.0562 4.6228 11.068L5.66155 11.3612C5.70467 11.3724 5.7478 11.348 5.75967 11.3062ZM4.06463 10.828C4.07651 10.7855 4.05213 10.7418 4.00963 10.7299L2.91462 10.4212C2.90712 10.4193 2.90025 10.418 2.89275 10.418C2.85775 10.418 2.8265 10.4412 2.8165 10.4762C2.80462 10.5187 2.829 10.5624 2.8715 10.5743L3.96651 10.883C4.00901 10.8949 4.05276 10.8705 4.06463 10.828ZM2.45023 10.373C2.46211 10.3305 2.43773 10.2868 2.39523 10.2749L1.77149 10.0986C1.76399 10.0968 1.75711 10.0955 1.74961 10.0955C1.71461 10.0955 1.68336 10.1186 1.67336 10.1536C1.66149 10.1961 1.68586 10.2399 1.72836 10.2518L2.35211 10.428C2.39523 10.4393 2.43836 10.4149 2.45023 10.373ZM6.26079 9.47052C6.25392 9.51365 6.28392 9.55427 6.32704 9.56115L7.53642 9.74741C7.58017 9.75365 7.62017 9.72428 7.62704 9.68116C7.63392 9.63803 7.60392 9.5974 7.56079 9.59053L6.35142 9.40427C6.34704 9.40365 6.34329 9.40302 6.33954 9.40302C6.30079 9.40302 6.26704 9.43115 6.26079 9.47052ZM4.57887 9.21115C4.572 9.25427 4.602 9.2949 4.64512 9.30177L5.67075 9.4599C5.7145 9.46615 5.7545 9.43677 5.76138 9.39365C5.76825 9.35052 5.73826 9.3099 5.69513 9.30302L4.6695 9.1449C4.66512 9.14427 4.66137 9.14365 4.65762 9.14365C4.61887 9.14365 4.58512 9.17177 4.57887 9.21115ZM2.80255 8.93678C2.79568 8.9799 2.82568 9.02053 2.8688 9.02741L3.97631 9.19803C4.02006 9.2049 4.06006 9.1749 4.06693 9.13178C4.07381 9.08865 4.04381 9.04803 4.00068 9.04115L2.89318 8.87053C2.8888 8.8699 2.88505 8.86928 2.8813 8.86928C2.84255 8.8699 2.80818 8.89803 2.80255 8.93678ZM1.68193 8.76428C1.67505 8.80741 1.70505 8.84803 1.74818 8.85491L2.34943 8.94741C2.39318 8.95428 2.43318 8.92428 2.44005 8.88116C2.44693 8.83803 2.41693 8.79741 2.3738 8.79053L1.77255 8.69803C1.76818 8.69741 1.76443 8.69678 1.76068 8.69678C1.72193 8.69678 1.68818 8.72491 1.68193 8.76428ZM7.64129 8.49491C7.64504 8.45116 7.61254 8.41241 7.56879 8.40928L6.34629 8.30678C6.34379 8.30678 6.34192 8.30616 6.33942 8.30616C6.29817 8.30616 6.26379 8.33741 6.26004 8.37928C6.25629 8.42303 6.28879 8.46178 6.33254 8.46491L7.55504 8.56741C7.60067 8.57241 7.63754 8.53866 7.64129 8.49491ZM5.76257 8.33803C5.76632 8.29428 5.73382 8.25553 5.69007 8.25241L4.65132 8.16553C4.64882 8.16553 4.64694 8.16491 4.64444 8.16491C4.60319 8.16491 4.56882 8.19616 4.56507 8.23803C4.56132 8.28178 4.59382 8.32053 4.63757 8.32366L5.67632 8.41053C5.72132 8.41553 5.75882 8.38178 5.76257 8.33803ZM4.06753 8.19616C4.07128 8.15241 4.03878 8.11366 3.99503 8.11053L2.88753 8.01803C2.88503 8.01803 2.88315 8.01741 2.88065 8.01741C2.8394 8.01741 2.80502 8.04866 2.80128 8.09053C2.79753 8.13428 2.83003 8.17303 2.87378 8.17616L3.98128 8.26866C4.02628 8.27366 4.06378 8.23991 4.06753 8.19616ZM2.44065 8.05991C2.4444 8.01616 2.4119 7.97741 2.36815 7.97428L1.7894 7.92553C1.7869 7.92553 1.78502 7.92491 1.78252 7.92491C1.74127 7.92491 1.7069 7.95616 1.70315 7.99803C1.6994 8.04178 1.7319 8.08053 1.77565 8.08366L2.3544 8.13241C2.39877 8.13616 2.4369 8.10366 2.44065 8.05991ZM6.25937 6.28743C6.26187 6.33118 6.29874 6.36618 6.34312 6.36305L7.55312 6.30055C7.59687 6.29805 7.63062 6.26118 7.62875 6.2168C7.62625 6.1743 7.59124 6.14118 7.54937 6.14118H7.545L6.335 6.20368C6.29124 6.20618 6.25749 6.24368 6.25937 6.28743ZM4.56497 6.37493C4.56747 6.41868 4.60372 6.45305 4.64872 6.45055L5.68747 6.3968C5.73122 6.3943 5.76497 6.35743 5.7631 6.31305C5.7606 6.27055 5.7256 6.23743 5.68372 6.23743H5.67935L4.6406 6.29118C4.59622 6.29368 4.56247 6.33118 4.56497 6.37493ZM2.80177 6.46555C2.80427 6.5093 2.84052 6.54493 2.88552 6.54118L3.9924 6.4843C4.03615 6.4818 4.0699 6.44493 4.06802 6.40055C4.06552 6.35806 4.03052 6.32493 3.98865 6.32493H3.98428L2.8774 6.3818C2.83302 6.3843 2.79927 6.4218 2.80177 6.46555ZM1.6774 6.52368C1.6799 6.56743 1.71677 6.60243 1.76115 6.5993L2.36552 6.56806C2.40927 6.56556 2.44302 6.52868 2.44114 6.4843C2.43864 6.4418 2.40365 6.40868 2.36177 6.40868H2.3574L1.75303 6.43993C1.70865 6.44243 1.6749 6.47993 1.6774 6.52368ZM7.62796 5.12056C7.62296 5.07993 7.58921 5.05056 7.54921 5.05056C7.54609 5.05056 7.54296 5.05056 7.53984 5.05118L6.33046 5.19243C6.28671 5.19743 6.25546 5.23681 6.26046 5.28056C6.26546 5.32431 6.30421 5.35556 6.34858 5.35056L7.55796 5.20931C7.60171 5.20368 7.63296 5.16431 7.62796 5.12056ZM5.76172 5.33806C5.75672 5.29744 5.72297 5.26806 5.68297 5.26806C5.67985 5.26806 5.67672 5.26806 5.6736 5.26869L4.63484 5.38994C4.59109 5.39494 4.55984 5.43431 4.56484 5.47806C4.56984 5.52181 4.60859 5.55306 4.65297 5.54806L5.69172 5.42681C5.73547 5.42181 5.76672 5.38181 5.76172 5.33806ZM4.06668 5.53619C4.06168 5.49557 4.02793 5.46619 3.98793 5.46619C3.98481 5.46619 3.98168 5.46619 3.97856 5.46682L2.87105 5.59619C2.8273 5.60119 2.79605 5.64056 2.80105 5.68432C2.80605 5.72807 2.8448 5.75932 2.88918 5.75432L3.99668 5.62494C4.04105 5.61932 4.07168 5.57932 4.06668 5.53619ZM2.44044 5.72557C2.43544 5.68494 2.40169 5.65557 2.36169 5.65557C2.35857 5.65557 2.35544 5.65557 2.35231 5.65619L1.75294 5.72619C1.70919 5.73119 1.67794 5.77057 1.68294 5.81432C1.68794 5.85807 1.72669 5.88932 1.77106 5.88432L2.37044 5.81432C2.41419 5.80869 2.44544 5.76932 2.44044 5.72557ZM6.26172 3.42925C6.27172 3.47237 6.31485 3.498 6.35735 3.48862L7.56735 3.20299C7.60985 3.19299 7.63672 3.14986 7.62672 3.10736C7.61797 3.07049 7.58547 3.04611 7.54922 3.04611C7.54297 3.04611 7.53735 3.04674 7.5311 3.04799L6.3211 3.33362C6.27797 3.34362 6.25172 3.38675 6.26172 3.42925ZM4.56668 3.82987C4.57668 3.873 4.61981 3.89862 4.66231 3.88925L5.70106 3.64361C5.74356 3.63361 5.77043 3.59049 5.76043 3.54799C5.75168 3.51111 5.71918 3.48674 5.68293 3.48674C5.67668 3.48674 5.67106 3.48736 5.66481 3.48861L4.62606 3.73425C4.58293 3.74425 4.55668 3.78737 4.56668 3.82987ZM2.80348 4.24613C2.81348 4.28925 2.85661 4.31488 2.89911 4.3055L4.00661 4.04363C4.04911 4.03363 4.07598 3.99051 4.06598 3.948C4.05723 3.91113 4.02473 3.88675 3.98849 3.88675C3.98224 3.88675 3.97661 3.88738 3.97036 3.88863L2.86286 4.1505C2.81973 4.1605 2.79348 4.20363 2.80348 4.24613ZM1.67911 4.51176C1.68911 4.55426 1.73224 4.58113 1.77474 4.57113L2.37911 4.42801C2.42161 4.41801 2.44848 4.37488 2.43848 4.33238C2.42973 4.29551 2.39723 4.27113 2.36098 4.27113C2.35473 4.27113 2.3491 4.27176 2.34285 4.27301L1.73849 4.41613C1.69536 4.42613 1.66911 4.46926 1.67911 4.51176ZM7.62471 2.15864C7.61409 2.12426 7.58284 2.10176 7.54846 2.10176C7.54096 2.10176 7.53346 2.10301 7.52534 2.10489L6.31471 2.46801C6.27284 2.48051 6.24909 2.52488 6.26159 2.56676C6.27409 2.60863 6.31846 2.63301 6.36034 2.61988L7.57096 2.25676C7.61347 2.24489 7.63721 2.20114 7.62471 2.15864ZM5.76663 2.71614C5.75601 2.68177 5.72476 2.65927 5.69038 2.65927C5.68288 2.65927 5.67538 2.66052 5.66726 2.66239L4.621 2.97614C4.57913 2.98864 4.55538 3.03301 4.56788 3.07489C4.58038 3.11676 4.62475 3.14051 4.66663 3.12801L5.71288 2.81427C5.75538 2.80239 5.77913 2.75802 5.76663 2.71614ZM4.06407 3.22677C4.05345 3.19239 4.0222 3.16989 3.98782 3.16989C3.98032 3.16989 3.97282 3.17114 3.9647 3.17302L2.85657 3.50489C2.8147 3.51739 2.79094 3.56176 2.80345 3.60364C2.81595 3.64551 2.86032 3.66926 2.9022 3.65676L4.01032 3.32489C4.05282 3.31302 4.07657 3.26864 4.06407 3.22677ZM2.43655 3.7149C2.42593 3.68052 2.39468 3.65802 2.3603 3.65802C2.3528 3.65802 2.3453 3.65927 2.33718 3.66115L1.71406 3.84803C1.67218 3.86053 1.64843 3.9049 1.66093 3.94678C1.67343 3.98865 1.71781 4.0124 1.75968 3.9999L2.3828 3.81302C2.4253 3.80115 2.44905 3.75677 2.43655 3.7149Z" fill="#327CF6"/>
</svg>
