<svg width="16" height="16" viewBox="0 0 16 16" fill="none" xmlns="http://www.w3.org/2000/svg">
<path fill-rule="evenodd" clip-rule="evenodd" d="M7 14.5135V16C4.3 16 3.06591 15.1533 3.06591 12.588V10.7817C3.06591 9.43944 2.54091 8.90004 1 8.90004V7.09369C2.54091 7.09369 3.06591 6.56056 3.06591 5.21207V3.412C3.06591 0.846727 4.3 0 7 0V1.48648C5.41136 1.48648 4.975 2.11995 4.975 3.50608V5.7891C4.975 6.78636 4.59318 7.58291 2.88864 7.89024V8.10976C4.59318 8.41709 4.975 9.21364 4.975 10.2109V12.4939C4.975 13.88 5.41136 14.5135 7 14.5135ZM9 1.48648V0C11.7 0 12.9341 0.846727 12.9341 3.412V5.21835C12.9341 6.56056 13.4591 7.09996 15 7.09996V8.90631C13.4591 8.90631 12.9341 9.43944 12.9341 10.7879V12.588C12.9341 15.1533 11.7 16 9 16V14.5135C10.5886 14.5135 11.025 13.88 11.025 12.4939L11.025 10.2109C11.025 9.21364 11.4068 8.41709 13.1114 8.10976V7.89024C11.4068 7.58291 11.025 6.78636 11.025 5.7891V3.50608C11.025 2.11995 10.5886 1.48648 9 1.48648Z" fill="#718096" />
</svg>
