<svg width="32" height="32" viewBox="0 0 32 32" fill="none" xmlns="http://www.w3.org/2000/svg">
<path d="M5.33322 32H26.6668C28.0809 32 29.4376 31.4375 30.4375 30.4375C31.4373 29.4375 32 28.0807 32 26.6668V5.33322C32 3.91914 31.4375 2.56236 30.4375 1.56252C29.4375 0.562673 28.0807 0 26.6668 0H5.33322C3.91914 0 2.56236 0.562506 1.56252 1.56252C0.562673 2.56253 0 3.91931 0 5.33322V26.6668C0 28.0809 0.562506 29.4376 1.56252 30.4375C2.56253 31.4373 3.91931 32 5.33322 32ZM26.6668 29.3333H5.33322C3.86054 29.3333 2.66653 28.1393 2.66653 26.6666V13.3331H29.3335V26.6666C29.3335 27.3737 29.0522 28.052 28.5522 28.552C28.0522 29.052 27.3738 29.3333 26.6668 29.3333ZM2.66653 5.33306C2.66653 3.86037 3.86054 2.66636 5.33322 2.66636H26.6668C27.3738 2.66636 28.0522 2.94761 28.5522 3.44764C29.0522 3.94766 29.3335 4.62605 29.3335 5.33306V10.6664H2.66653V5.33306Z" fill="#718096"/>
<path fill-rule="evenodd" clip-rule="evenodd" d="M7.99995 6.66639C7.99995 8.44374 5.33325 8.44374 5.33325 6.66639C5.33325 4.88904 7.99995 4.88904 7.99995 6.66639ZM13.3334 6.66639C13.3334 8.44374 10.6667 8.44374 10.6667 6.66639C10.6667 4.88904 13.3334 4.88904 13.3334 6.66639ZM18.6667 6.66639C18.6667 8.44374 16 8.44374 16 6.66639C16 4.88904 18.6667 4.88904 18.6667 6.66639ZM20.9427 16.3905C20.4219 15.8684 19.5781 15.8684 19.0573 16.3905C18.5352 16.9113 18.5352 17.7551 19.0573 18.2759L22.1133 21.3333L19.056 24.3906H19.0573C18.5352 24.9114 18.5352 25.7552 19.0573 26.276C19.5782 26.7981 20.4219 26.7981 20.9427 26.276L24.9428 22.276C25.1941 22.026 25.3347 21.6874 25.3347 21.3333C25.3347 20.9791 25.1941 20.6405 24.9428 20.3905L20.9427 16.3905ZM11.9999 15.9986C12.3541 15.9986 12.6926 16.1392 12.9427 16.3905C13.194 16.6405 13.3346 16.979 13.3346 17.3332C13.3346 17.6874 13.194 18.0259 12.9426 18.2759H12.944L9.88662 21.3333L12.9427 24.3906C13.4648 24.9114 13.4648 25.7552 12.9427 26.276C12.4218 26.7981 11.5781 26.7981 11.0572 26.276L7.05719 22.276C6.80588 22.026 6.66525 21.6874 6.66525 21.3333C6.66525 20.9791 6.80588 20.6405 7.05719 20.3905L11.0572 16.3905C11.3072 16.1392 11.6458 15.9986 11.9999 15.9986Z" fill="#8BB689"/>
</svg>
