<svg width="930" height="175" viewBox="0 0 930 175" fill="none" xmlns="http://www.w3.org/2000/svg">
<rect x="152.754" y="24.824" width="43.3703" height="7.23322" transform="rotate(-166 152.754 24.824)" fill="#48BB78" fill-opacity="0.75"/>
<rect x="699.832" y="34.2178" width="21.4514" height="5.44393" transform="rotate(-180 699.832 34.2178)" fill="#48BB78" fill-opacity="0.6"/>
<rect x="313.344" y="138.892" width="14.2942" height="6.7859" transform="rotate(-150 313.344 138.892)" fill="#BA68C8"/>
<rect x="881.893" y="66.8726" width="26.372" height="8.12787" transform="rotate(-83 881.893 66.8726)" fill="#BA68C8" fill-opacity="0.65"/>
<rect x="484.67" y="56.584" width="16.0835" height="6.7859" transform="rotate(-99 484.67 56.584)" fill="#48BB78" fill-opacity="0.6"/>
<rect x="628.26" y="133.524" width="12.0576" height="4.10196" transform="rotate(22 628.26 133.524)" fill="#BA68C8" fill-opacity="0.75"/>
<circle cx="869.329" cy="93.6728" r="5.77607" fill="#443DF1" fill-opacity="0.75"/>
<circle cx="13.3744" cy="108.211" r="3.76311" fill="#BA68C8" fill-opacity="0.35"/>
<circle cx="266.113" cy="44.2434" r="5.99973" fill="#48BB78" fill-opacity="0.65"/>
<circle cx="580.58" cy="12.0361" r="7.78902" fill="#48BB78"/>
<circle cx="151.373" cy="22.1009" r="3.09212" fill="#48BB78" fill-opacity="0.75"/>
<circle cx="273.046" cy="0.182189" r="6.67071" fill="#443DF1" fill-opacity="0.9"/>
<circle cx="40.8857" cy="139.3" r="8.01269" fill="#BA68C8" fill-opacity="0.75"/>
<circle cx="429.386" cy="4.87902" r="3.31579" fill="#443DF1" fill-opacity="0.9"/>
<circle cx="122.968" cy="7.5629" r="5.55241" fill="#443DF1" fill-opacity="0.75"/>
<circle cx="86.5123" cy="20.7591" r="4.88142" fill="#48BB78" fill-opacity="0.65"/>
<circle cx="183.805" cy="63.4785" r="7.78902" fill="#BA68C8" fill-opacity="0.75"/>
<path d="M26.1505 65.7283L23.1177 74.5363L13.9733 76.3138L7.8618 69.2833L10.8946 60.4753L20.039 58.6978L26.1505 65.7283Z" fill="#443DF1"/>
<path d="M855.904 108.316L846.625 120.193L834.748 110.913L844.027 99.0366L855.904 108.316Z" fill="#BA68C8"/>
<path d="M912.289 2.27649L911.925 12.704L902.712 17.6023L893.864 12.0733L894.228 1.64578L903.441 -3.2526L912.289 2.27649Z" fill="#48BB78" fill-opacity="0.85"/>
<path d="M564.079 151.893L561.802 141.181L571.286 135.706L579.424 143.034L574.97 153.038L564.079 151.893Z" fill="#BA68C8" fill-opacity="0.6"/>
<path d="M353.475 13.1234L362.257 14.2017L363.945 22.8867L356.207 27.1761L349.736 21.1421L353.475 13.1234Z" fill="#BA68C8" fill-opacity="0.65"/>
<path d="M620.17 151.577L627.176 151.699L629.224 158.4L623.485 162.419L617.888 158.202L620.17 151.577Z" fill="#BA68C8" fill-opacity="0.6"/>
<path d="M897.09 69.1843L892.641 76.3899L895.214 84.4579L888.009 80.0087L879.941 82.5825L884.39 75.3769L881.816 67.309L889.022 71.7582L897.09 69.1843Z" fill="#BA68C8" fill-opacity="0.9"/>
<path d="M589.671 106.777L586.83 103.508L582.844 105.2L585.074 101.488L582.233 98.2201L586.453 99.1942L588.683 95.4822L589.061 99.7963L593.28 100.77L589.294 102.463L589.671 106.777Z" fill="#443DF1" fill-opacity="0.85"/>
<path d="M569.786 57.9466L563.83 63.9667L564.523 72.4069L558.503 66.4508L550.063 67.1438L556.019 61.1237L555.326 52.6835L561.346 58.6396L569.786 57.9466Z" fill="#443DF1" fill-opacity="0.6"/>
<path d="M399.582 5.79004L403.362 10.4701L408.162 6.84354L405.999 12.4572L411.54 14.8009L405.597 15.7345L406.338 21.7047L402.558 17.0247L397.758 20.6512L399.921 15.0375L394.38 12.6939L400.323 11.7602L399.582 5.79004Z" fill="#48BB78" fill-opacity="0.75"/>
<path d="M396.563 103.32L388.745 104.741L384.735 111.602L383.313 103.784L376.453 99.7737L384.271 98.3521L388.281 91.4917L389.703 99.3098L396.563 103.32Z" fill="#443DF1" fill-opacity="0.35"/>
<path d="M251.926 -5.80515L255.589 0.822496L262.332 -2.62381L258.424 3.86217L264.78 7.97846L257.209 7.83679L256.822 15.3994L253.159 8.77174L246.416 12.218L250.325 5.73207L243.969 1.61578L251.54 1.75744L251.926 -5.80515Z" fill="#BA68C8" fill-opacity="0.85"/>
<path d="M762.078 11.6569L758.713 15.2556L762.201 18.7347L757.402 17.6205L756.133 22.3806L754.699 17.6677L749.942 18.9487L753.306 15.35L749.818 11.8709L754.617 12.9851L755.886 8.22499L757.321 12.9379L762.078 11.6569Z" fill="#BA68C8" fill-opacity="0.6"/>
<path d="M626.66 161.516L630.286 163.532L632.418 159.973L632.485 164.121L636.632 164.188L633.074 166.32L635.09 169.946L631.464 167.93L629.332 171.488L629.265 167.341L625.117 167.274L628.676 165.142L626.66 161.516Z" fill="#BA68C8" fill-opacity="0.65"/>
<path d="M248.068 145.796L246.446 150.879L249.25 155.419L244.167 153.797L239.627 156.6L241.249 151.517L238.446 146.978L243.528 148.599L248.068 145.796Z" fill="#BA68C8" fill-opacity="0.75"/>
<path d="M127.753 87.1221L127.93 94.8924L133.944 99.8158L126.174 99.993L121.25 106.007L121.073 98.2367L115.059 93.3133L122.83 93.1361L127.753 87.1221Z" fill="#BA68C8" fill-opacity="0.85"/>
</svg>
