<svg width="16" height="14" viewBox="0 0 16 14" fill="none" xmlns="http://www.w3.org/2000/svg">
<path d="M13.76 10.3743H2.23996C1.34557 10.3743 0.619955 11.0999 0.619955 11.9943C0.619955 12.8896 1.34557 13.6143 2.23996 13.6143H13.76C14.6543 13.6143 15.38 12.8896 15.38 11.9943C15.38 11.0999 14.6543 10.3743 13.76 10.3743ZM2.24644 12.748C1.81518 12.748 1.46644 12.3993 1.46644 11.968C1.46644 11.5367 1.81518 11.188 2.24644 11.188C2.67769 11.188 3.02644 11.5367 3.02644 11.968C3.02644 12.3983 2.67676 12.748 2.24644 12.748ZM13.76 5.38025H2.23996C1.34557 5.38025 0.619955 6.10493 0.619955 7.00025C0.619955 7.89556 1.34557 8.62024 2.23996 8.62024H13.76C14.6543 8.62024 15.38 7.89556 15.38 7.00025C15.38 6.10493 14.6543 5.38025 13.76 5.38025ZM2.24644 7.75399C1.81518 7.75399 1.46644 7.40525 1.46644 6.97399C1.46644 6.54273 1.81518 6.19399 2.24644 6.19399C2.67769 6.19399 3.02644 6.54273 3.02644 6.97399C3.02644 7.40431 2.67676 7.75399 2.24644 7.75399ZM2.23987 3.62623H13.7599C14.6543 3.62623 15.3799 2.90061 15.3799 2.00623C15.3799 1.11091 14.6543 0.38623 13.7599 0.38623H2.23987C1.34549 0.38623 0.619873 1.11091 0.619873 2.00623C0.619873 2.90061 1.34549 3.62623 2.23987 3.62623ZM2.24644 1.19911C2.67769 1.19911 3.02644 1.54785 3.02644 1.97911C3.02644 2.41037 2.67769 2.75911 2.24644 2.75911C1.81518 2.75911 1.46644 2.41037 1.46644 1.97911C1.46644 1.54879 1.81518 1.19911 2.24644 1.19911Z" fill="#00C889"/>
</svg>
