<svg width="32" height="32" viewBox="0 0 32 32" fill="none" xmlns="http://www.w3.org/2000/svg">
<path fill-rule="evenodd" clip-rule="evenodd" d="M12.7071 6.29289C12.3166 5.90237 11.6834 5.90237 11.2929 6.29289C10.9024 6.68342 10.9024 7.31658 11.2929 7.70711L15.1166 11.5309C15.0422 11.6708 15 11.8305 15 12V22C15 22.5523 15.4477 23 16 23C16.5523 23 17 22.5523 17 22V13.4142L21.2929 17.7071C21.6834 18.0976 22.3166 18.0976 22.7071 17.7071C23.0976 17.3166 23.0976 16.6834 22.7071 16.2929L12.7071 6.29289Z" fill="#0069FF"/>
<path fill-rule="evenodd" clip-rule="evenodd" d="M31.4142 17.4142L17.4142 31.4142C16.6332 32.1953 15.3668 32.1953 14.5858 31.4142L0.585788 17.4142C-0.195262 16.6332 -0.195262 15.3668 0.585788 14.5858L14.5858 0.585787C15.3668 -0.195262 16.6332 -0.195262 17.4142 0.585787L31.4142 14.5858C32.1953 15.3668 32.1953 16.6332 31.4142 17.4142ZM4.82843 16L16 27.1716L27.1716 16L16 4.82843L4.82843 16Z" fill="#718096"/>
</svg>
