<svg width="109" height="127" viewBox="0 0 109 127" fill="none" xmlns="http://www.w3.org/2000/svg">
<path d="M78.7495 50.8027V32C78.7495 29.1979 77.5531 26.4011 75.5557 24.4011L53.9839 3.06773C51.9864 1.06773 49.3231 0 46.5245 0H14.0344C6.44497 0 0.316895 6.13547 0.316895 13.7347V83.4693C0.316895 91.0683 6.4447 97.204 14.0344 97.204H32.2769C36.4072 114.001 51.5861 126.668 69.6995 126.668C90.8704 126.668 108.182 109.335 108.182 88.1373C108.182 70.1373 95.5312 54.9333 78.7495 50.8027ZM9.90358 83.4693V13.7347C9.90358 11.4691 11.7658 9.5992 14.0339 9.5992H43.4664V27.7352C43.4664 32.0008 46.9309 35.4696 51.1912 35.4696H69.3045V49.7349C48.5238 49.8651 31.6116 66.8029 31.2121 87.5989H13.9004C11.7728 87.5989 9.90544 85.7344 9.90544 83.4687L9.90358 83.4693ZM69.6982 117.199C53.7182 117.199 40.8023 104.131 40.8023 88.2667C40.8023 72.4027 53.8537 59.3347 69.6982 59.3347C85.5424 59.3347 98.5941 72.4024 98.5941 88.2667C98.5941 104.136 85.6779 117.199 69.6982 117.199Z" fill="#E5E7EB"/>
<path d="M84.7421 83.4693H66.0987L69.2926 80.2715C71.1548 78.407 71.1548 75.3392 69.2926 73.6048C67.4304 71.7403 64.3665 71.7403 62.6343 73.6048L51.3151 84.9382C50.3839 85.8704 49.9834 87.0736 49.9834 88.2715C49.9834 89.4694 50.514 90.8027 51.3151 91.6048L62.6343 102.938C63.5654 103.87 64.7671 104.271 65.9634 104.271C67.1598 104.271 68.3615 103.87 69.2926 102.938C71.1548 101.074 71.1548 98.0059 69.2926 96.2715L65.9634 93.0736H84.7426C87.406 93.0736 89.5388 90.9382 89.5388 88.2715C89.5388 85.5996 87.4054 83.4693 84.7421 83.4693Z" fill="#E5E7EB"/>
</svg>
