<svg width="632" height="200" viewBox="0 0 632 200" fill="none" xmlns="http://www.w3.org/2000/svg">
<g clip-path="url(#clip0_0_3)">
<path d="M480.571 132.106H480.853L500.535 77.6309H514.776L486.718 150.544C479.737 168.141 472.897 173.869 461.869 173.869C458.796 173.869 456.703 173.591 453.074 172.891V161.719C455.445 161.997 456.704 162.138 458.937 162.138C464.518 162.138 470.802 159.344 473.731 148.169L444.836 77.6309H459.773L480.571 132.106ZM317.265 75.5312C335.41 75.5312 349.231 89.7754 349.231 113.244C349.231 136.713 335.41 150.818 317.265 150.818C306.096 150.818 299.257 145.794 295.35 140.065H295.068V173.588H281.389V77.6309H295.068V86.0127H295.35C299.257 80.9846 306.096 75.5372 317.265 75.5371V75.5312ZM549.666 75.3936C571.304 75.3936 583.45 89.6441 583.45 111.713C583.45 113.669 583.45 115.762 583.31 116.881H528.588C528.869 128.893 535.846 139.787 549.947 139.787C562.512 139.787 567.256 131.687 568.652 126.938H582.473C578.844 140.628 568.374 150.963 549.666 150.963C527.054 150.963 514.489 135.456 514.489 113.109C514.489 90.7625 527.891 75.3965 549.666 75.3965V75.3936ZM415.665 75.3965C430.322 75.3966 442.05 81.5441 442.05 99.9814V132.666L442.043 132.662C442.043 137.831 442.743 140.484 445.395 140.484C445.813 140.484 446.232 140.484 447.068 140.344V148.725C444.698 149.284 442.325 149.565 440.092 149.565C433.389 149.565 429.622 146.913 428.923 138.81H428.642C423.897 146.213 415.802 150.822 404.215 150.822C389.976 150.822 380.903 142.581 380.903 130.428C380.904 114.503 392.909 109.894 410.64 106.403C421.805 104.31 428.645 102.909 428.645 95.9277C428.644 90.7623 425.574 86.4316 415.105 86.4316C402.685 86.4317 398.915 90.344 398.216 99.8408H384.258C384.954 86.1533 393.89 75.3965 415.665 75.3965ZM125.484 123.166C125.484 132.806 129.673 139.228 139.863 139.229C151.591 139.229 159.128 132.106 159.128 121.354V77.6309H172.808V148.865H159.128V139.925H158.85C155.08 145.372 147.681 150.818 135.397 150.818C122.274 150.818 111.667 143.278 111.667 126.935V77.6309H125.484V123.166ZM231.008 77.6309H244.688V88.9473H231.008V129.172L231.012 129.175C231.012 136.715 233.104 138.394 238.966 138.394C241.199 138.394 242.317 138.253 244.828 137.834V148.869C241.199 149.569 239.103 149.706 236.033 149.706C224.446 149.706 217.328 145.237 217.328 128.756V88.9502H206.997V77.6348H217.328V54.7285H231.008V77.6309ZM48.997 127.497H49.278L78.174 49H98.415V148.869H83.337V71.3467H83.059L55.559 148.869H42.854L15.356 71.3467H15.076V148.869H0V49H20.241L48.997 127.497ZM199.602 148.869H185.922V49H199.602V148.869ZM625.738 75.959C628.249 75.959 630.207 76.0998 632.3 76.3779V89.5059C630.482 89.2246 629.23 89.084 627.693 89.084C615.269 89.084 606.334 98.4473 606.334 111.994V148.869H592.654V77.6348H606.334V91.1816H606.614C610.243 82.2441 616.106 75.959 625.738 75.959ZM268.408 148.865H254.729V77.6309H268.408V148.865ZM371.978 148.659H358.298V49H371.978V148.659ZM428.647 110.878C426.414 112.975 420.271 114.509 413.013 116.047C400.451 118.697 395.286 122.05 395.286 129.453C395.286 136.156 398.774 139.787 407.291 139.787C419.574 139.787 428.647 133.503 428.647 121.072V110.878ZM315.032 86.9902C302.749 86.9902 295.209 97.1875 295.209 113.25C295.209 129.312 302.749 139.51 315.032 139.51C328.434 139.51 334.854 127.215 334.854 113.25C334.854 99.2845 328.434 86.9905 315.032 86.9902ZM549.247 86.5723C537.801 86.5725 529.428 94.3908 528.588 106.125H569.07C569.07 94.9531 561.393 86.5723 549.247 86.5723ZM269.252 64.9219H253.755V50.1191H269.252V64.9219Z" fill="#1A2B58"/>
</g>
<defs>
<clipPath id="clip0_0_3">
<rect width="632" height="200" fill="white"/>
</clipPath>
</defs>
</svg>
