<svg width="88" height="88" viewBox="0 0 88 88" fill="none" xmlns="http://www.w3.org/2000/svg">
  <path
    fill-rule="evenodd"
    clip-rule="evenodd"
    className="logo-circle"
    d="M63.8489 28.7985C67.0798 33.0108 69 38.2812 69 44C69 51.1747 65.9777 57.6435 61.1367 62.2027C61.15 62.3425 61.1569 62.4842 61.1569 62.6275C61.1569 65.064 59.1816 67.0392 56.7451 67.0392C56.0327 67.0392 55.3597 66.8704 54.764 66.5705C51.5041 68.128 47.8539 69 44 69C30.1929 69 19 57.8071 19 44C19 41.8269 19.2773 39.7185 19.7984 37.7083C19.2953 36.9917 19 36.1186 19 35.1765C19 32.9625 20.6309 31.1294 22.7568 30.813C27.1686 23.721 35.033 19 44 19C49.1757 19 53.984 20.5728 57.9732 23.2665C58.4999 23.0444 59.0787 22.9216 59.6863 22.9216C62.1228 22.9216 64.098 24.8968 64.098 27.3333C64.098 27.847 64.0103 28.3401 63.8489 28.7985ZM65.0784 44C65.0784 49.7803 62.7518 55.0171 58.9839 58.8251C58.3276 58.4379 57.5623 58.2157 56.7451 58.2157C54.3085 58.2157 52.3333 60.1909 52.3333 62.6275C52.3333 62.8708 52.353 63.1095 52.3909 63.3421C49.8197 64.4591 46.9822 65.0784 44 65.0784C32.3587 65.0784 22.9216 55.6413 22.9216 44C22.9216 42.4868 23.081 41.0109 23.384 39.5881L23.4118 39.5882C25.8483 39.5882 27.8235 37.613 27.8235 35.1765C27.8235 33.9878 27.3534 32.9089 26.5889 32.1155C30.3853 26.5645 36.7672 22.9216 44 22.9216C48.2017 22.9216 52.1163 24.151 55.4036 26.2696C55.3193 26.6103 55.2745 26.9666 55.2745 27.3333C55.2745 29.7699 57.2497 31.7451 59.6863 31.7451C60.1461 31.7451 60.5895 31.6747 61.0063 31.5442C63.5664 35.0338 65.0784 39.3403 65.0784 44Z"
    fill="#4338CA"
  >
    <animateTransform
      attributeName="transform"
      attributeType="XML"
      type="rotate"
      from="0 44 44"
      to="360 44 44"
      dur="2s"
      repeatCount="indefinite"
    />
  </path>
  <path
    d="M36.3672 56V32H45.3672C47.2109 32 48.7578 32.3438 50.0078 33.0312C51.2656 33.7188 52.2148 34.6641 52.8555 35.8672C53.5039 37.0625 53.8281 38.4219 53.8281 39.9453C53.8281 41.4844 53.5039 42.8516 52.8555 44.0469C52.207 45.2422 51.25 46.1836 49.9844 46.8711C48.7188 47.5508 47.1602 47.8906 45.3086 47.8906H40.7148V44.3164H44.7227C45.8008 44.3164 46.6836 44.1289 47.3711 43.7539C48.0586 43.3789 48.5664 42.8633 48.8945 42.207C49.2305 41.5508 49.3984 40.7969 49.3984 39.9453C49.3984 39.0938 49.2305 38.3438 48.8945 37.6953C48.5664 37.0469 48.0547 36.543 47.3594 36.1836C46.6719 35.8164 45.7852 35.6328 44.6992 35.6328H40.7148V56H36.3672Z"
    fill="#4338CA"
  />
</svg>