<svg width="272" height="349" viewBox="0 0 272 349" fill="none" xmlns="http://www.w3.org/2000/svg">
<path d="M13.8401 14.3225L13.854 14.2829C14.2129 13.2958 14.9817 12.5139 15.9566 12.1447L22.7396 9.57706L23.3696 9.33855L22.7365 9.10831L4.27636 2.39524L3.76437 2.20906L3.95708 2.71862L10.955 21.2225L11.1978 21.8645L11.4248 21.2167L13.8401 14.3225Z" fill="#2329D6" stroke="white" stroke-width="0.5"/>
<g filter="url(#filter0_d_1_28)">
<rect x="20" y="20" width="55" height="24" rx="12" fill="#2329D6"/>
<path d="M26.4375 29.2148V28H32.8203V29.2148H30.3477V36H28.9102V29.2148H26.4375ZM35.4023 32.4844V36H33.9883V28H35.3711V31.0195H35.4414C35.582 30.681 35.7995 30.4141 36.0938 30.2187C36.3906 30.0208 36.7682 29.9219 37.2266 29.9219C37.6432 29.9219 38.0065 30.0091 38.3164 30.1836C38.6263 30.3581 38.8659 30.6133 39.0352 30.9492C39.207 31.2852 39.293 31.6953 39.293 32.1797V36H37.8789V32.3984C37.8789 31.9948 37.7747 31.681 37.5664 31.457C37.3607 31.2305 37.0716 31.1172 36.6992 31.1172C36.4492 31.1172 36.2253 31.1719 36.0273 31.2812C35.832 31.388 35.6784 31.543 35.5664 31.7461C35.457 31.9492 35.4023 32.1953 35.4023 32.4844ZM43.3516 36.1172C42.7656 36.1172 42.2578 35.9883 41.8281 35.7305C41.3984 35.4727 41.0651 35.112 40.8281 34.6484C40.5938 34.1849 40.4766 33.6432 40.4766 33.0234C40.4766 32.4036 40.5938 31.8607 40.8281 31.3945C41.0651 30.9284 41.3984 30.5664 41.8281 30.3086C42.2578 30.0508 42.7656 29.9219 43.3516 29.9219C43.9375 29.9219 44.4453 30.0508 44.875 30.3086C45.3047 30.5664 45.6367 30.9284 45.8711 31.3945C46.1081 31.8607 46.2266 32.4036 46.2266 33.0234C46.2266 33.6432 46.1081 34.1849 45.8711 34.6484C45.6367 35.112 45.3047 35.4727 44.875 35.7305C44.4453 35.9883 43.9375 36.1172 43.3516 36.1172ZM43.3594 34.9844C43.6771 34.9844 43.9427 34.8971 44.1563 34.7227C44.3698 34.5456 44.5286 34.3086 44.6328 34.0117C44.7396 33.7148 44.793 33.3841 44.793 33.0195C44.793 32.6523 44.7396 32.3203 44.6328 32.0234C44.5286 31.724 44.3698 31.4857 44.1563 31.3086C43.9427 31.1315 43.6771 31.043 43.3594 31.043C43.0339 31.043 42.763 31.1315 42.5469 31.3086C42.3333 31.4857 42.1732 31.724 42.0664 32.0234C41.9622 32.3203 41.9102 32.6523 41.9102 33.0195C41.9102 33.3841 41.9622 33.7148 42.0664 34.0117C42.1732 34.3086 42.3333 34.5456 42.5469 34.7227C42.763 34.8971 43.0339 34.9844 43.3594 34.9844ZM47.4268 36V30H48.7783V31.0195H48.8486C48.9736 30.6758 49.1807 30.4076 49.4697 30.2148C49.7588 30.0195 50.1038 29.9219 50.5049 29.9219C50.9111 29.9219 51.2536 30.0208 51.5322 30.2187C51.8135 30.4141 52.0114 30.681 52.126 31.0195H52.1885C52.3213 30.6862 52.5452 30.4206 52.8604 30.2227C53.1781 30.0221 53.5544 29.9219 53.9893 29.9219C54.5413 29.9219 54.9919 30.0964 55.3408 30.4453C55.6898 30.7943 55.8643 31.3034 55.8643 31.9727V36H54.4463V32.1914C54.4463 31.819 54.3473 31.5469 54.1494 31.375C53.9515 31.2005 53.7093 31.1133 53.4229 31.1133C53.0817 31.1133 52.8148 31.2201 52.6221 31.4336C52.432 31.6445 52.3369 31.9193 52.3369 32.2578V36H50.9502V32.1328C50.9502 31.8229 50.8564 31.5755 50.6689 31.3906C50.484 31.2057 50.2419 31.1133 49.9424 31.1133C49.7393 31.1133 49.5544 31.1654 49.3877 31.2695C49.221 31.3711 49.0882 31.5156 48.9893 31.7031C48.8903 31.888 48.8408 32.1042 48.8408 32.3516V36H47.4268ZM59.0254 36.1211C58.6452 36.1211 58.3027 36.0534 57.998 35.918C57.696 35.7799 57.4564 35.5768 57.2793 35.3086C57.1048 35.0404 57.0176 34.7096 57.0176 34.3164C57.0176 33.9779 57.0801 33.6979 57.2051 33.4766C57.3301 33.2552 57.5007 33.0781 57.7168 32.9453C57.9329 32.8125 58.1764 32.7122 58.4473 32.6445C58.7207 32.5742 59.0033 32.5234 59.2949 32.4922C59.6465 32.4557 59.9316 32.4232 60.1504 32.3945C60.3691 32.3633 60.528 32.3164 60.627 32.2539C60.7285 32.1888 60.7793 32.0885 60.7793 31.9531V31.9297C60.7793 31.6354 60.6921 31.4076 60.5176 31.2461C60.3431 31.0846 60.0918 31.0039 59.7637 31.0039C59.4173 31.0039 59.1426 31.0794 58.9395 31.2305C58.7389 31.3815 58.6035 31.5599 58.5332 31.7656L57.2129 31.5781C57.3171 31.2135 57.4889 30.9089 57.7285 30.6641C57.9681 30.4167 58.2611 30.2318 58.6074 30.1094C58.9538 29.9844 59.3366 29.9219 59.7559 29.9219C60.0449 29.9219 60.3327 29.9557 60.6191 30.0234C60.9056 30.0911 61.1673 30.2031 61.4043 30.3594C61.6413 30.513 61.8314 30.7227 61.9746 30.9883C62.1204 31.2539 62.1934 31.5859 62.1934 31.9844V36H60.834V35.1758H60.7871C60.7012 35.3424 60.5801 35.4987 60.4238 35.6445C60.2702 35.7878 60.0762 35.9036 59.8418 35.9922C59.61 36.0781 59.3379 36.1211 59.0254 36.1211ZM59.3926 35.082C59.6764 35.082 59.9225 35.026 60.1309 34.9141C60.3392 34.7995 60.4993 34.6484 60.6113 34.4609C60.7259 34.2734 60.7832 34.069 60.7832 33.8477V33.1406C60.7389 33.1771 60.6634 33.2109 60.5566 33.2422C60.4525 33.2734 60.3353 33.3008 60.2051 33.3242C60.0749 33.3477 59.946 33.3685 59.8184 33.3867C59.6908 33.4049 59.5801 33.4206 59.4863 33.4336C59.2754 33.4622 59.0866 33.5091 58.9199 33.5742C58.7533 33.6393 58.6217 33.7305 58.5254 33.8477C58.429 33.9622 58.3809 34.1107 58.3809 34.293C58.3809 34.5534 58.4759 34.75 58.666 34.8828C58.8561 35.0156 59.0983 35.082 59.3926 35.082ZM68.3574 31.5859L67.0684 31.7266C67.0319 31.5964 66.9681 31.474 66.877 31.3594C66.7884 31.2448 66.6686 31.1523 66.5176 31.082C66.3665 31.0117 66.1816 30.9766 65.9629 30.9766C65.6686 30.9766 65.4212 31.0404 65.2207 31.168C65.0228 31.2956 64.9251 31.4609 64.9277 31.6641C64.9251 31.8385 64.9889 31.9805 65.1191 32.0898C65.252 32.1992 65.4707 32.2891 65.7754 32.3594L66.7988 32.5781C67.3665 32.7005 67.7884 32.8945 68.0645 33.1602C68.3431 33.4258 68.4837 33.7734 68.4863 34.2031C68.4837 34.5807 68.373 34.9141 68.1543 35.2031C67.9382 35.4896 67.6374 35.7135 67.252 35.875C66.8665 36.0365 66.4238 36.1172 65.9238 36.1172C65.1895 36.1172 64.5983 35.9635 64.1504 35.6562C63.7025 35.3464 63.4355 34.9154 63.3496 34.3633L64.7285 34.2305C64.791 34.5013 64.9238 34.7057 65.127 34.8437C65.3301 34.9818 65.5944 35.0508 65.9199 35.0508C66.2559 35.0508 66.5254 34.9818 66.7285 34.8437C66.9342 34.7057 67.0371 34.5352 67.0371 34.332C67.0371 34.1602 66.9707 34.0182 66.8379 33.9062C66.7077 33.7943 66.5046 33.7083 66.2285 33.6484L65.2051 33.4336C64.6296 33.3138 64.2038 33.112 63.9277 32.8281C63.6517 32.5417 63.515 32.1797 63.5176 31.7422C63.515 31.3724 63.6152 31.0521 63.8184 30.7812C64.0241 30.5078 64.3092 30.2969 64.6738 30.1484C65.041 29.9974 65.4642 29.9219 65.9434 29.9219C66.6465 29.9219 67.1999 30.0716 67.6035 30.3711C68.0098 30.6706 68.2611 31.0755 68.3574 31.5859Z" fill="white"/>
</g>
<path d="M217.84 65.3225L217.854 65.2829C218.213 64.2958 218.982 63.5139 219.957 63.1447L226.74 60.5771L227.37 60.3385L226.736 60.1083L208.276 53.3952L207.764 53.2091L207.957 53.7186L214.955 72.2225L215.198 72.8645L215.425 72.2167L217.84 65.3225Z" fill="#4ACDD6" stroke="white" stroke-width="0.5"/>
<g filter="url(#filter1_d_1_28)">
<rect x="224" y="71" width="44" height="24" rx="12" fill="#4ACDD6"/>
<path d="M230.789 87V79H233.789C234.404 79 234.919 79.1146 235.336 79.3437C235.755 79.5729 236.072 79.888 236.285 80.2891C236.501 80.6875 236.609 81.1406 236.609 81.6484C236.609 82.1615 236.501 82.6172 236.285 83.0156C236.069 83.4141 235.75 83.7279 235.328 83.957C234.906 84.1836 234.387 84.2969 233.77 84.2969H231.781V83.1055H233.574C233.934 83.1055 234.228 83.043 234.457 82.918C234.686 82.793 234.855 82.6211 234.965 82.4023C235.077 82.1836 235.133 81.9323 235.133 81.6484C235.133 81.3646 235.077 81.1146 234.965 80.8984C234.855 80.6823 234.685 80.5143 234.453 80.3945C234.224 80.2721 233.928 80.2109 233.566 80.2109H232.238V87H230.789ZM240.376 87.1172C239.774 87.1172 239.255 86.9922 238.817 86.7422C238.382 86.4896 238.048 86.1328 237.813 85.6719C237.579 85.2083 237.462 84.6628 237.462 84.0352C237.462 83.418 237.579 82.8763 237.813 82.4102C238.05 81.9414 238.381 81.5768 238.806 81.3164C239.23 81.0534 239.729 80.9219 240.302 80.9219C240.672 80.9219 241.021 80.9818 241.349 81.1016C241.679 81.2187 241.971 81.401 242.224 81.6484C242.479 81.8958 242.679 82.2109 242.825 82.5937C242.971 82.974 243.044 83.4271 243.044 83.9531V84.3867H238.126V83.4336H241.688C241.686 83.1628 241.627 82.9219 241.513 82.7109C241.398 82.4974 241.238 82.3294 241.032 82.207C240.829 82.0846 240.592 82.0234 240.321 82.0234C240.032 82.0234 239.778 82.0937 239.56 82.2344C239.341 82.3724 239.17 82.5547 239.048 82.7812C238.928 83.0052 238.867 83.2513 238.864 83.5195V84.3516C238.864 84.7005 238.928 85 239.056 85.25C239.183 85.4974 239.362 85.6875 239.591 85.8203C239.82 85.9505 240.088 86.0156 240.396 86.0156C240.601 86.0156 240.787 85.987 240.954 85.9297C241.121 85.8698 241.265 85.7826 241.388 85.668C241.51 85.5534 241.603 85.4115 241.665 85.2422L242.985 85.3906C242.902 85.7396 242.743 86.0443 242.509 86.3047C242.277 86.5625 241.98 86.763 241.618 86.9062C241.256 87.0469 240.842 87.1172 240.376 87.1172ZM246.467 87.1055C245.995 87.1055 245.574 86.9844 245.201 86.7422C244.829 86.5 244.535 86.1484 244.318 85.6875C244.102 85.2266 243.994 84.6667 243.994 84.0078C243.994 83.3411 244.104 82.7786 244.322 82.3203C244.544 81.8594 244.842 81.5117 245.217 81.2773C245.592 81.0404 246.01 80.9219 246.471 80.9219C246.822 80.9219 247.111 80.9818 247.338 81.1016C247.564 81.2187 247.744 81.3607 247.877 81.5273C248.01 81.6914 248.113 81.8464 248.186 81.9922H248.244V79H249.662V87H248.271V86.0547H248.186C248.113 86.2005 248.007 86.3555 247.869 86.5195C247.731 86.681 247.549 86.819 247.322 86.9336C247.096 87.0482 246.811 87.1055 246.467 87.1055ZM246.861 85.9453C247.161 85.9453 247.416 85.8646 247.627 85.7031C247.838 85.5391 247.998 85.3112 248.107 85.0195C248.217 84.7279 248.271 84.388 248.271 84C248.271 83.612 248.217 83.2747 248.107 82.9883C248.001 82.7018 247.842 82.4792 247.631 82.3203C247.423 82.1615 247.166 82.082 246.861 82.082C246.546 82.082 246.283 82.1641 246.072 82.3281C245.861 82.4922 245.702 82.7187 245.596 83.0078C245.489 83.2969 245.436 83.6276 245.436 84C245.436 84.375 245.489 84.7096 245.596 85.0039C245.705 85.2956 245.865 85.526 246.076 85.6953C246.29 85.862 246.551 85.9453 246.861 85.9453ZM251.169 87V81H252.54V82H252.603C252.712 81.6536 252.899 81.3867 253.165 81.1992C253.433 81.0091 253.739 80.9141 254.083 80.9141C254.161 80.9141 254.248 80.918 254.345 80.9258C254.444 80.931 254.526 80.9401 254.591 80.9531V82.2539C254.531 82.2331 254.436 82.2148 254.306 82.1992C254.178 82.181 254.054 82.1719 253.935 82.1719C253.677 82.1719 253.445 82.2279 253.239 82.3398C253.036 82.4492 252.876 82.6016 252.759 82.7969C252.642 82.9922 252.583 83.2174 252.583 83.4727V87H251.169ZM257.9 87.1172C257.314 87.1172 256.807 86.9883 256.377 86.7305C255.947 86.4727 255.614 86.112 255.377 85.6484C255.143 85.1849 255.025 84.6432 255.025 84.0234C255.025 83.4036 255.143 82.8607 255.377 82.3945C255.614 81.9284 255.947 81.5664 256.377 81.3086C256.807 81.0508 257.314 80.9219 257.9 80.9219C258.486 80.9219 258.994 81.0508 259.424 81.3086C259.854 81.5664 260.186 81.9284 260.42 82.3945C260.657 82.8607 260.775 83.4036 260.775 84.0234C260.775 84.6432 260.657 85.1849 260.42 85.6484C260.186 86.112 259.854 86.4727 259.424 86.7305C258.994 86.9883 258.486 87.1172 257.9 87.1172ZM257.908 85.9844C258.226 85.9844 258.492 85.8971 258.705 85.7227C258.919 85.5456 259.077 85.3086 259.182 85.0117C259.288 84.7148 259.342 84.3841 259.342 84.0195C259.342 83.6523 259.288 83.3203 259.182 83.0234C259.077 82.724 258.919 82.4857 258.705 82.3086C258.492 82.1315 258.226 82.043 257.908 82.043C257.583 82.043 257.312 82.1315 257.096 82.3086C256.882 82.4857 256.722 82.724 256.615 83.0234C256.511 83.3203 256.459 83.6523 256.459 84.0195C256.459 84.3841 256.511 84.7148 256.615 85.0117C256.722 85.3086 256.882 85.5456 257.096 85.7227C257.312 85.8971 257.583 85.9844 257.908 85.9844Z" fill="white"/>
</g>
<circle cx="129" cy="208" r="119.5" fill="#F0F2F4" stroke="url(#paint0_linear_1_28)"/>
<path d="M172.84 314.323L172.854 314.283C173.213 313.296 173.982 312.514 174.957 312.145L181.74 309.577L182.37 309.339L181.736 309.108L163.276 302.395L162.764 302.209L162.957 302.719L169.955 321.222L170.198 321.864L170.425 321.217L172.84 314.323Z" fill="#FA6155" stroke="white" stroke-width="0.5"/>
<g filter="url(#filter2_d_1_28)">
<rect x="179" y="320" width="33" height="24" rx="12" fill="#FA6155"/>
<path d="M185.242 328H186.879L188.836 331.539H188.914L190.871 328H192.508L189.598 333.016V336H188.152V333.016L185.242 328ZM194.972 336.117C194.386 336.117 193.878 335.988 193.448 335.73C193.019 335.473 192.685 335.112 192.448 334.648C192.214 334.185 192.097 333.643 192.097 333.023C192.097 332.404 192.214 331.861 192.448 331.395C192.685 330.928 193.019 330.566 193.448 330.309C193.878 330.051 194.386 329.922 194.972 329.922C195.558 329.922 196.065 330.051 196.495 330.309C196.925 330.566 197.257 330.928 197.491 331.395C197.728 331.861 197.847 332.404 197.847 333.023C197.847 333.643 197.728 334.185 197.491 334.648C197.257 335.112 196.925 335.473 196.495 335.73C196.065 335.988 195.558 336.117 194.972 336.117ZM194.979 334.984C195.297 334.984 195.563 334.897 195.776 334.723C195.99 334.546 196.149 334.309 196.253 334.012C196.36 333.715 196.413 333.384 196.413 333.02C196.413 332.652 196.36 332.32 196.253 332.023C196.149 331.724 195.99 331.486 195.776 331.309C195.563 331.132 195.297 331.043 194.979 331.043C194.654 331.043 194.383 331.132 194.167 331.309C193.953 331.486 193.793 331.724 193.687 332.023C193.582 332.32 193.53 332.652 193.53 333.02C193.53 333.384 193.582 333.715 193.687 334.012C193.793 334.309 193.953 334.546 194.167 334.723C194.383 334.897 194.654 334.984 194.979 334.984ZM202.871 333.477V330H204.285V336H202.914V334.934H202.852C202.716 335.27 202.493 335.544 202.184 335.758C201.876 335.971 201.497 336.078 201.047 336.078C200.654 336.078 200.306 335.991 200.004 335.816C199.704 335.639 199.47 335.383 199.301 335.047C199.132 334.708 199.047 334.299 199.047 333.82V330H200.461V333.602C200.461 333.982 200.565 334.284 200.773 334.508C200.982 334.732 201.255 334.844 201.594 334.844C201.802 334.844 202.004 334.793 202.199 334.691C202.395 334.59 202.555 334.439 202.68 334.238C202.807 334.035 202.871 333.781 202.871 333.477Z" fill="white"/>
</g>
<defs>
<filter id="filter0_d_1_28" x="16" y="17" width="63" height="32" filterUnits="userSpaceOnUse" color-interpolation-filters="sRGB">
<feFlood flood-opacity="0" result="BackgroundImageFix"/>
<feColorMatrix in="SourceAlpha" type="matrix" values="0 0 0 0 0 0 0 0 0 0 0 0 0 0 0 0 0 0 127 0" result="hardAlpha"/>
<feOffset dy="1"/>
<feGaussianBlur stdDeviation="2"/>
<feColorMatrix type="matrix" values="0 0 0 0 0 0 0 0 0 0 0 0 0 0 0 0 0 0 0.15 0"/>
<feBlend mode="normal" in2="BackgroundImageFix" result="effect1_dropShadow_1_28"/>
<feBlend mode="normal" in="SourceGraphic" in2="effect1_dropShadow_1_28" result="shape"/>
</filter>
<filter id="filter1_d_1_28" x="220" y="68" width="52" height="32" filterUnits="userSpaceOnUse" color-interpolation-filters="sRGB">
<feFlood flood-opacity="0" result="BackgroundImageFix"/>
<feColorMatrix in="SourceAlpha" type="matrix" values="0 0 0 0 0 0 0 0 0 0 0 0 0 0 0 0 0 0 127 0" result="hardAlpha"/>
<feOffset dy="1"/>
<feGaussianBlur stdDeviation="2"/>
<feColorMatrix type="matrix" values="0 0 0 0 0 0 0 0 0 0 0 0 0 0 0 0 0 0 0.15 0"/>
<feBlend mode="normal" in2="BackgroundImageFix" result="effect1_dropShadow_1_28"/>
<feBlend mode="normal" in="SourceGraphic" in2="effect1_dropShadow_1_28" result="shape"/>
</filter>
<filter id="filter2_d_1_28" x="175" y="317" width="41" height="32" filterUnits="userSpaceOnUse" color-interpolation-filters="sRGB">
<feFlood flood-opacity="0" result="BackgroundImageFix"/>
<feColorMatrix in="SourceAlpha" type="matrix" values="0 0 0 0 0 0 0 0 0 0 0 0 0 0 0 0 0 0 127 0" result="hardAlpha"/>
<feOffset dy="1"/>
<feGaussianBlur stdDeviation="2"/>
<feColorMatrix type="matrix" values="0 0 0 0 0 0 0 0 0 0 0 0 0 0 0 0 0 0 0.15 0"/>
<feBlend mode="normal" in2="BackgroundImageFix" result="effect1_dropShadow_1_28"/>
<feBlend mode="normal" in="SourceGraphic" in2="effect1_dropShadow_1_28" result="shape"/>
</filter>
<linearGradient id="paint0_linear_1_28" x1="57.5491" y1="99.1607" x2="260.953" y2="409.987" gradientUnits="userSpaceOnUse">
<stop stop-color="#6B29EF"/>
<stop offset="0.286458" stop-color="#B739E0"/>
<stop offset="0.614583" stop-color="#EC8436"/>
<stop offset="0.953125" stop-color="#F3B040"/>
</linearGradient>
</defs>
</svg>
