<svg width="16" height="16" viewBox="0 0 16 16" fill="none" xmlns="http://www.w3.org/2000/svg">
<path fill-rule="evenodd" clip-rule="evenodd" d="M7 1.57735C7.6188 1.22008 8.3812 1.22008 9 1.57735L13.0622 3.92265C13.681 4.27992 14.0622 4.94017 14.0622 5.6547V10.3453C14.0622 11.0598 13.681 11.7201 13.0622 12.0774L9 14.4226C8.3812 14.7799 7.6188 14.7799 7 14.4226L2.93782 12.0774C2.31902 11.7201 1.93782 11.0598 1.93782 10.3453V5.6547C1.93782 4.94017 2.31902 4.27992 2.93782 3.92265L7 1.57735Z" stroke="#718096" stroke-width="2"/>
<path opacity="0.5" d="M7.75001 7.66098L8.75001 7.66098L8.75002 7.01707L8.16382 6.75062L7.75001 7.66098ZM2.39655 5.22759L1.48619 4.81379L1.07238 5.72416L1.98275 6.13796L2.39655 5.22759ZM2.60345 4.77241L3.01726 3.86204L2.10689 3.44824L1.69309 4.35861L2.60345 4.77241ZM8.00001 7.22539L7.58621 8.13576L8.00002 8.32385L8.41382 8.13576L8.00001 7.22539ZM13.3966 4.77241L14.3069 4.35861L13.8931 3.44824L12.9827 3.86204L13.3966 4.77241ZM13.6035 5.22759L14.0173 6.13796L14.9276 5.72415L14.5138 4.81379L13.6035 5.22759ZM8.25001 7.66098L7.83621 6.75062L7.25002 7.01707L7.25001 7.66098L8.25001 7.66098ZM8.25 14L8.25 15L9.25 15L9.25 14L8.25 14ZM7.75 14L6.75 14L6.75 15L7.75 15L7.75 14ZM8.16382 6.75062L2.81036 4.31723L1.98275 6.13796L7.33621 8.57135L8.16382 6.75062ZM3.30692 5.64139L3.51382 5.18621L1.69309 4.35861L1.48619 4.81379L3.30692 5.64139ZM2.18965 5.68278L7.58621 8.13576L8.41382 6.31502L3.01726 3.86204L2.18965 5.68278ZM8.41382 8.13576L13.8104 5.68277L12.9827 3.86204L7.58621 6.31502L8.41382 8.13576ZM12.4862 5.18621L12.6931 5.64139L14.5138 4.81379L14.3069 4.35861L12.4862 5.18621ZM13.1897 4.31723L7.83621 6.75062L8.66382 8.57135L14.0173 6.13796L13.1897 4.31723ZM7.25001 7.66098L7.25 14L9.25 14L9.25001 7.66098L7.25001 7.66098ZM8.25 13L7.75 13L7.75 15L8.25 15L8.25 13ZM8.75 14L8.75001 7.66098L6.75001 7.66098L6.75 14L8.75 14Z" fill="#718096"/>
</svg>
