<svg width="65" height="64" viewBox="0 0 65 64" fill="none" xmlns="http://www.w3.org/2000/svg">
<rect x="0.5" width="64" height="64" rx="16" fill="#473CFB"/>
<path fill-rule="evenodd" clip-rule="evenodd" d="M32.5008 51.2001C43.1046 51.2001 51.7008 42.6039 51.7008 32C51.7008 21.3962 43.1046 12.8 32.5008 12.8C21.8969 12.8 13.3008 21.3962 13.3008 32C13.3008 42.6039 21.8969 51.2001 32.5008 51.2001ZM41.3978 28.8971C42.3351 27.9598 42.3351 26.4403 41.3978 25.503C40.4606 24.5657 38.941 24.5657 38.0037 25.503L30.1008 33.4059L26.9978 30.303C26.0606 29.3657 24.541 29.3657 23.6037 30.303C22.6665 31.2403 22.6665 32.7598 23.6037 33.6971L28.4037 38.4971C29.341 39.4344 30.8606 39.4344 31.7978 38.4971L41.3978 28.8971Z" fill="white"/>
</svg>
