<svg width="24" height="24" viewBox="0 0 24 24" fill="none" xmlns="http://www.w3.org/2000/svg">
<path fill-rule="evenodd" clip-rule="evenodd" d="M11.3257 2.0989C11.9461 1.96703 12.5872 1.96703 13.2076 2.0989C13.9111 2.24843 14.5567 2.62151 15.4908 3.16128C15.5319 3.18502 15.5735 3.20907 15.6157 3.23344L18.1842 4.71635C18.2264 4.74072 18.2681 4.76474 18.3091 4.78844C19.2436 5.32749 19.8895 5.70007 20.3708 6.23456C20.7952 6.70588 21.1158 7.26115 21.3118 7.86434C21.534 8.54836 21.5337 9.29402 21.5333 10.3728C21.5333 10.4203 21.5333 10.4683 21.5333 10.5171V13.4829C21.5333 13.5316 21.5333 13.5797 21.5333 13.6272C21.5337 14.706 21.534 15.4516 21.3118 16.1357C21.1158 16.7388 20.7952 17.2941 20.3708 17.7654C19.8895 18.2999 19.2436 18.6725 18.3091 19.2116C18.2681 19.2353 18.2264 19.2593 18.1842 19.2837L15.6157 20.7666C15.5735 20.7909 15.5319 20.815 15.4908 20.8387C14.5567 21.3785 13.9111 21.7516 13.2076 21.9011C12.5872 22.033 11.9461 22.033 11.3257 21.9011C10.6222 21.7516 9.9766 21.3785 9.04253 20.8387C9.00146 20.815 8.95982 20.7909 8.9176 20.7666L6.34914 19.2837C6.30692 19.2593 6.26528 19.2353 6.22419 19.2116C5.28969 18.6725 4.64379 18.2999 4.16254 17.7654C3.73815 17.2941 3.41757 16.7388 3.22158 16.1357C2.99933 15.4516 2.99962 14.706 3.00004 13.6272C3.00005 13.5797 3.00007 13.5316 3.00007 13.4829V10.5171C3.00007 10.4684 3.00005 10.4203 3.00004 10.3728C2.99962 9.29402 2.99933 8.54836 3.22158 7.86434C3.41757 7.26115 3.73815 6.70588 4.16254 6.23456C4.64379 5.70007 5.28969 5.32749 6.22419 4.78845C6.26528 4.76474 6.30692 4.74072 6.34914 4.71635L8.9176 3.23344C8.95982 3.20907 9.00144 3.18502 9.04251 3.16128C9.97659 2.62151 10.6222 2.24843 11.3257 2.0989ZM12.8312 3.86964C12.459 3.79052 12.0743 3.79052 11.7021 3.86964C11.3147 3.95199 10.9308 4.16146 9.82275 4.80121L7.25429 6.28412C6.14621 6.92387 5.77287 7.15156 5.50786 7.44589C5.25322 7.72868 5.06088 8.06184 4.94328 8.42376C4.82089 8.80043 4.81038 9.2376 4.81038 10.5171V13.4829C4.81038 14.7624 4.82089 15.1996 4.94328 15.5762C5.06088 15.9382 5.25322 16.2713 5.50786 16.5541C5.77287 16.8484 6.14621 17.0761 7.25429 17.7159L9.82275 19.1988C10.9308 19.8385 11.3147 20.048 11.7021 20.1304C12.0743 20.2095 12.459 20.2095 12.8312 20.1304C13.2186 20.048 13.6025 19.8385 14.7106 19.1988L17.279 17.7159C18.3871 17.0761 18.7605 16.8484 19.0255 16.5541C19.2801 16.2713 19.4725 15.9382 19.59 15.5762C19.7124 15.1996 19.723 14.7624 19.723 13.4829V10.5171C19.723 9.2376 19.7124 8.80043 19.59 8.42376C19.4725 8.06184 19.2801 7.72868 19.0255 7.44589C18.7605 7.15156 18.3871 6.92387 17.279 6.28412L14.7106 4.80121C13.6025 4.16146 13.2186 3.95199 12.8312 3.86964Z" fill="#718096"/>
<path fill-rule="evenodd" clip-rule="evenodd" d="M12.375 8C12.7202 8 13 8.27982 13 8.625V11.75H16.125C16.4702 11.75 16.75 12.0298 16.75 12.375C16.75 12.7202 16.4702 13 16.125 13H13V16.125C13 16.4702 12.7202 16.75 12.375 16.75C12.0298 16.75 11.75 16.4702 11.75 16.125V13H8.625C8.27982 13 8 12.7202 8 12.375C8 12.0298 8.27982 11.75 8.625 11.75L11.75 11.75V8.625C11.75 8.27982 12.0298 8 12.375 8Z" fill="#718096"/>
</svg>
