<svg width="16" height="16" viewBox="0 0 16 16" fill="none" xmlns="http://www.w3.org/2000/svg">
<path d="M12 7.90476L9.94872 6M12 7.90476L9.94872 9.80952M12 7.90476C12 7.90476 4.11538 7.90475 3.5 7.90475" stroke="currentColor" stroke-linecap="round" stroke-linejoin="round"/>
<path fill-rule="evenodd" clip-rule="evenodd" d="M12.1542 1L3.60487 1.00163C2.60218 1.01571 2.12684 1.12102 1.71955 1.30841L1.53473 1.4007C1.04584 1.66216 0.66216 2.04584 0.400699 2.53473C0.139238 3.02362 0 3.50855 0 4.84583L0.00162755 11.3951C0.0157149 12.3978 0.121019 12.8732 0.308414 13.2804L0.400699 13.4653C0.66216 13.9542 1.04584 14.3378 1.53473 14.5993C2.02362 14.8608 2.50855 15 3.84583 15H12.1542C13.3243 15 13.8418 14.8934 14.2804 14.6916L14.4653 14.5993C14.9542 14.3378 15.3378 13.9542 15.5993 13.4653C15.8608 12.9764 16 12.4915 16 11.1542V4.84583C16 3.67571 15.8934 3.15817 15.6916 2.71955L15.5993 2.53473C15.3378 2.04584 14.9542 1.66216 14.4653 1.4007C13.9764 1.13924 13.4915 1 12.1542 1ZM3.84583 3H12.1542L12.5069 3.00275C13.1356 3.01396 13.3281 3.06061 13.5221 3.16433C13.6624 3.23939 13.7606 3.33758 13.8357 3.47793C13.9567 3.70418 14 3.92853 14 4.84583V11.1542L13.9972 11.5069C13.986 12.1356 13.9394 12.3281 13.8357 12.5221C13.7606 12.6624 13.6624 12.7606 13.5221 12.8357C13.2958 12.9567 13.0715 13 12.1542 13H3.84583L3.4931 12.9972C2.86439 12.986 2.67186 12.9394 2.47793 12.8357C2.33758 12.7606 2.23939 12.6624 2.16433 12.5221C2.06925 12.3443 2.02213 12.1677 2.00631 11.6552L2.00068 11.3404L2 4.84583C2 3.92853 2.04332 3.70418 2.16433 3.47793C2.23939 3.33758 2.33758 3.23939 2.47793 3.16433C2.67186 3.06061 2.86439 3.01396 3.4931 3.00275L3.84583 3Z" fill="currentColor"/>
<circle cx="5" cy="8" r="2" fill="currentColor"/>
</svg>
