<svg width="24" height="24" viewBox="0 0 24 24" fill="none" xmlns="http://www.w3.org/2000/svg">
<path fill-rule="evenodd" clip-rule="evenodd" d="M10.0714 20.1052V21.8571C6.88929 21.8571 5.43482 20.8592 5.43482 17.8359V15.707C5.43482 14.125 4.81607 13.4893 3 13.4893V11.3604C4.81607 11.3604 5.43482 10.7321 5.43482 9.1428V7.02128C5.43482 3.99793 6.88929 3 10.0714 3V4.75192C8.19911 4.75192 7.68482 5.49852 7.68482 7.13216V9.82287C7.68482 10.9982 7.23482 11.937 5.22589 12.2992V12.5579C7.23482 12.9201 7.68482 13.8589 7.68482 15.0343V17.725C7.68482 19.3586 8.19911 20.1052 10.0714 20.1052ZM12.4286 4.75192V3C15.6107 3 17.0652 3.99793 17.0652 7.02128V9.15019C17.0652 10.7321 17.6839 11.3678 19.5 11.3678V13.4967C17.6839 13.4967 17.0652 14.1251 17.0652 15.7143L17.0652 17.8359C17.0652 20.8592 15.6107 21.8571 12.4286 21.8571L12.4286 20.1052C14.3009 20.1052 14.8152 19.3586 14.8152 17.725L14.8152 15.0343C14.8152 13.8589 15.2652 12.9201 17.2741 12.5579V12.2992C15.2652 11.937 14.8152 10.9982 14.8152 9.82287V7.13216C14.8152 5.49852 14.3009 4.75192 12.4286 4.75192Z" fill="#718096"/>
</svg>
