<svg width="16" height="16" viewBox="0 0 16 16" fill="none" xmlns="http://www.w3.org/2000/svg">
<path d="M13.0001 8C13.0004 6.84735 12.6023 5.73001 11.8734 4.8371C11.1445 3.94418 10.1295 3.33053 9.00013 3.1V0H7.00013V3.1C5.86984 3.32951 4.85366 3.94273 4.12375 4.83574C3.39385 5.72875 2.99512 6.84664 2.99512 8C2.99512 9.15336 3.39385 10.2712 4.12375 11.1643C4.85366 12.0573 5.86984 12.6705 7.00013 12.9V16H9.00013V12.9C10.1295 12.6695 11.1445 12.0558 11.8734 11.1629C12.6023 10.27 13.0004 9.15265 13.0001 8ZM8.00013 11C7.40679 11 6.82677 10.8241 6.33342 10.4944C5.84007 10.1648 5.45555 9.69623 5.22849 9.14805C5.00143 8.59987 4.94202 7.99667 5.05777 7.41473C5.17353 6.83279 5.45925 6.29824 5.87881 5.87868C6.29837 5.45912 6.83292 5.1734 7.41486 5.05764C7.9968 4.94189 8.6 5.0013 9.14818 5.22836C9.69636 5.45542 10.1649 5.83994 10.4945 6.33329C10.8242 6.82664 11.0001 7.40666 11.0001 8C11.0001 8.79565 10.6841 9.55871 10.1215 10.1213C9.55884 10.6839 8.79578 11 8.00013 11Z" fill="currentColor"/>
</svg>
