<svg width="20" height="20" viewBox="0 0 20 20" fill="none" xmlns="http://www.w3.org/2000/svg">
<path d="M1.00003 12.4999C1.00003 11.1192 2.11931 9.99991 3.50003 9.99991H7.50003C8.88074 9.99991 9.99999 11.1192 9.99999 12.4999V16.4999C9.99999 17.8807 8.88074 18.9999 7.50003 18.9999H3.50003C2.11931 18.9999 1.00003 17.8807 1.00003 16.4999V12.4999ZM5.02011 12.5339C4.94212 12.481 4.85566 12.4545 4.76073 12.4545C4.69461 12.4545 4.63189 12.4686 4.57256 12.4968C4.51322 12.5233 4.46151 12.5595 4.41744 12.6053C4.37336 12.6512 4.33776 12.705 4.31063 12.7667C4.28521 12.8285 4.27249 12.8937 4.27249 12.9626V16.0373C4.27249 16.1044 4.28521 16.1687 4.31063 16.2305C4.33776 16.2922 4.37336 16.3469 4.41744 16.3946C4.46321 16.4404 4.51576 16.4775 4.5751 16.5057C4.63443 16.5322 4.69631 16.5454 4.76073 16.5454C4.80989 16.5454 4.85566 16.5383 4.89805 16.5242C4.94212 16.5102 4.98536 16.489 5.02774 16.4607L7.32398 14.8942C7.39349 14.8483 7.44774 14.7867 7.48673 14.709C7.52572 14.6314 7.54521 14.5502 7.54521 14.4656C7.54521 14.3773 7.52487 14.2962 7.48419 14.2221C7.4435 14.1462 7.38756 14.0854 7.31636 14.0395L5.02011 12.5339Z" fill="#473CFB"/>
<path fill-rule="evenodd" clip-rule="evenodd" d="M3.50003 10.1249C2.18836 10.1249 1.12503 11.1882 1.12503 12.4999V16.4999C1.12503 17.8116 2.18836 18.8749 3.50003 18.8749H7.50003C8.81174 18.8749 9.87499 17.8116 9.87499 16.4999V12.4999C9.87499 11.1882 8.81174 10.1249 7.50003 10.1249H3.50003ZM0.875031 12.4999C0.875031 11.0502 2.05028 9.87491 3.50003 9.87491H7.50003C8.94974 9.87491 10.125 11.0502 10.125 12.4999V16.4999C10.125 17.9497 8.94974 19.1249 7.50003 19.1249H3.50003C2.05028 19.1249 0.875031 17.9497 0.875031 16.4999V12.4999ZM4.52026 12.3833C4.59607 12.3475 4.67668 12.3295 4.76073 12.3295C4.88015 12.3295 4.9908 12.3632 5.08943 12.4298L7.38405 13.9344C7.47301 13.9918 7.5436 14.0687 7.59404 14.1625C7.64511 14.2557 7.67021 14.3575 7.67021 14.4656C7.67021 14.5702 7.64593 14.6706 7.59843 14.7651C7.55021 14.8611 7.48183 14.9397 7.39366 14.998L5.09703 16.5647C5.04616 16.5987 4.99276 16.6251 4.93685 16.6431C4.88072 16.6617 4.82172 16.6704 4.76073 16.6704C4.67861 16.6704 4.59941 16.6534 4.52418 16.6199L4.52139 16.6187C4.44932 16.5843 4.38497 16.539 4.32896 16.4829L4.32563 16.4796C4.27175 16.4213 4.22868 16.3547 4.19619 16.2808L4.19502 16.2782C4.16335 16.2012 4.14749 16.1207 4.14749 16.0373V12.9626C4.14749 12.8779 4.16321 12.7964 4.19506 12.7192L4.19616 12.7165C4.22883 12.6421 4.27246 12.5758 4.32731 12.5187C4.38246 12.4613 4.44709 12.4162 4.52026 12.3833ZM4.76073 12.5795C4.71307 12.5795 4.6687 12.5895 4.62625 12.6097L4.62348 12.6111C4.57856 12.6311 4.54023 12.658 4.50756 12.6919C4.47457 12.7262 4.44716 12.7672 4.42567 12.8157C4.40701 12.8615 4.39749 12.9101 4.39749 12.9626V16.0373C4.39749 16.0877 4.40685 16.1354 4.42567 16.1816C4.44701 16.2297 4.47435 16.2717 4.50759 16.308C4.54236 16.3424 4.58209 16.3704 4.62738 16.3922C4.6704 16.4112 4.71449 16.4204 4.76073 16.4204C4.79781 16.4204 4.83012 16.4151 4.85856 16.4057L4.85993 16.4052C4.89176 16.395 4.92441 16.3793 4.95791 16.3571L7.25513 14.7899C7.30557 14.7566 7.34542 14.7118 7.37503 14.6529C7.40551 14.5922 7.42021 14.5302 7.42021 14.4656C7.42021 14.3974 7.40474 14.3372 7.37462 14.2822L7.37403 14.2812C7.34319 14.2237 7.30174 14.1788 7.24866 14.1446L7.24781 14.1441L4.9499 12.6373C4.8928 12.5986 4.83083 12.5795 4.76073 12.5795Z" fill="#473CFB"/>
<path fill-rule="evenodd" clip-rule="evenodd" d="M8.125 1.66666C8.47017 1.66666 8.75 1.94648 8.75 2.29166V2.91841C8.75 3.60877 9.30967 4.16841 10 4.16841C10.6903 4.16841 11.25 3.60877 11.25 2.91841V2.29166C11.25 1.94648 11.5298 1.66666 11.875 1.66666C12.2202 1.66666 12.5 1.94648 12.5 2.29166V2.91841C12.5 3.44547 12.3369 3.93443 12.0584 4.33757C13.2192 4.73676 14.0708 5.80036 14.1591 7.07413H14.3646L14.3723 7.07411C15.4079 7.06983 16.2439 6.22691 16.2396 5.19138L16.2345 3.95338C16.2331 3.60821 16.5118 3.32723 16.8569 3.32581C17.2021 3.32437 17.4831 3.60304 17.4845 3.94822L17.4896 5.18621C17.4968 6.91209 16.1034 8.31696 14.3775 8.3241L14.3646 8.32413H14.1667V9.58221H17.7095C18.0547 9.58221 18.3345 9.86204 18.3345 10.2072C18.3345 10.5524 18.0547 10.8322 17.7095 10.8322H14.1667V12.4925H14.3646H14.3775C16.1034 12.4996 17.4968 13.9045 17.4896 15.6304L17.4845 16.8684C17.4831 17.2135 17.2021 17.4922 16.8569 17.4908C16.5118 17.4894 16.2331 17.2084 16.2345 16.8632L16.2396 15.6252C16.2439 14.5897 15.4079 13.7468 14.3723 13.7425H14.3646H13.9781C13.617 14.8991 12.7653 15.8392 11.6667 16.3193V14.8932C12.4223 14.3661 12.9167 13.4904 12.9167 12.4993V7.29344C12.9167 6.25791 12.0772 5.41844 11.0417 5.41844H8.95834C7.9228 5.41844 7.08334 6.25791 7.08334 7.29344V8.33332H5.83334V8.32413H5.63538L5.62246 8.3241C3.89659 8.31696 2.50327 6.91209 2.5104 5.18621L2.51553 3.94822C2.51695 3.60304 2.79793 3.32437 3.1431 3.32581C3.48828 3.32723 3.76694 3.60821 3.76551 3.95338L3.76039 5.19138C3.75611 6.22691 4.5921 7.06983 5.62763 7.07411L5.63538 7.07413H5.84091C5.92922 5.80036 6.78086 4.73676 7.94157 4.33757C7.66309 3.93442 7.5 3.44546 7.5 2.91841V2.29166C7.5 1.94648 7.77983 1.66666 8.125 1.66666Z" fill="#473CFB" fill-opacity="0.54"/>
</svg>
