<svg width="24" height="24" viewBox="0 0 24 24" fill="none" xmlns="http://www.w3.org/2000/svg">
<rect x="1.5" y="1.5" width="21" height="21" rx="5.25" stroke="#718096" stroke-width="2"/>
<path d="M14.4028 13.2365C15.0713 12.9795 15.9373 12.9056 16.7242 12.8877H16.7633C16.98 12.8877 17.1768 12.7226 17.1959 12.5015C17.2159 12.2811 17.0384 12.0787 16.8025 12.0421C15.8781 11.9689 15.0121 11.9689 14.0285 12.2258C13.7926 12.2991 13.5367 12.3909 13.3008 12.5567C13.0649 12.7218 12.8291 12.9429 12.6907 13.2552C12.6316 13.4023 12.5924 13.5674 12.5724 13.7332C12.5724 13.917 12.5924 14.1194 12.6707 14.2845C12.8475 14.652 13.1425 14.8544 13.3792 14.9829C13.871 15.2585 14.3236 15.3504 14.7562 15.4789C15.1888 15.5894 15.6022 15.6813 15.9756 15.7732C16.1524 15.8284 16.3299 15.8837 16.4474 15.9383C16.4082 15.9569 16.3691 15.9749 16.3099 15.9935C15.6606 16.2326 14.7954 16.361 13.9885 16.4716C13.1625 16.5821 12.3165 16.674 11.4704 16.7472C10.6244 16.8204 9.77839 16.8944 8.91318 16.9496L6.35594 17.1521C6.15923 17.1707 6.00171 17.2992 6.00171 17.483C5.98173 17.6854 6.13925 17.8691 6.35594 17.8871C8.08715 18.0156 9.81844 18.0156 11.5487 17.979C12.4139 17.9423 13.2799 17.8871 14.1652 17.7952C15.0504 17.6847 15.9156 17.5928 16.8599 17.2439C17.0958 17.1521 17.3517 17.0415 17.6467 16.7659C17.7251 16.6927 17.8043 16.6008 17.8634 16.4903C17.9026 16.435 17.9226 16.3618 17.9418 16.2878L17.981 16.1407C18.0202 15.9569 18.001 15.7 17.9026 15.4789C17.6859 15.0382 17.3517 14.8544 17.0958 14.7439C16.8399 14.6333 16.604 14.5601 16.3681 14.4869C15.9155 14.3764 15.4829 14.2845 15.0895 14.2113C14.6961 14.1381 14.3027 14.0462 14.0276 13.917C13.89 13.8617 13.8309 13.7885 13.8309 13.7885C13.8109 13.7885 13.8309 13.7885 13.8109 13.7519C13.8109 13.7153 13.8109 13.6787 13.8309 13.6413C13.8324 13.5487 14.0685 13.365 14.4028 13.2365Z" fill="#718096"/>
<path d="M6.04857 16.7404C6.08485 16.7781 6.13416 16.7995 6.18625 16.8C6.20672 16.8 6.22672 16.7963 6.2458 16.7888L6.5398 16.6771L9.1597 15.6266C9.18295 15.6187 9.20342 15.6047 9.21924 15.5856L16.383 8.41109C16.6509 8.14801 16.8012 7.78806 16.7998 7.41277C16.7984 6.89079 16.5114 6.41166 16.0518 6.16484C15.635 5.94505 15.1363 5.94505 14.7195 6.16484C14.6929 6.17694 14.6683 6.19185 14.645 6.20954C14.6264 6.22071 14.5818 6.24679 14.5408 6.27659C14.4864 6.31803 14.4352 6.36413 14.3883 6.41441L7.22069 13.5851C7.20161 13.601 7.18766 13.6215 7.17975 13.6447L6.01494 16.5428C5.9861 16.6094 5.99926 16.6873 6.04857 16.7404Z" fill="#718096"/>
</svg>
