<svg width="24" height="24" viewBox="0 0 24 24" fill="none" xmlns="http://www.w3.org/2000/svg">
<path d="M15.5356 9.21411C18.2472 11.9258 20.2047 14.8115 21.199 17.2519C21.6969 18.4742 21.934 19.5376 21.9359 20.3849C21.9378 21.2268 21.7114 21.7766 21.3692 22.1188C21.0271 22.461 20.4772 22.6874 19.6353 22.6855C18.788 22.6836 17.7246 22.4465 16.5024 21.9486C14.0619 20.9543 11.1762 18.9968 8.46453 16.2852C5.75289 13.5735 3.79541 10.6878 2.80116 8.24735C2.3032 7.02509 2.06613 5.96167 2.06421 5.11438C2.0623 4.27247 2.28874 3.72264 2.6309 3.38048C2.97306 3.03832 3.52289 2.81188 4.3648 2.81379C5.21209 2.81571 6.2755 3.05278 7.49777 3.55074C9.93821 4.54499 12.824 6.50247 15.5356 9.21411Z" stroke="#718096" stroke-width="2"/>
<path d="M8.4646 9.21489C11.1762 6.50325 14.062 4.54577 16.5024 3.55152C17.7247 3.05356 18.7881 2.81649 19.6354 2.81457C20.4773 2.81266 21.0271 3.0391 21.3693 3.38126C21.7115 3.72342 21.9379 4.27325 21.936 5.11516C21.9341 5.96245 21.697 7.02586 21.199 8.24813C20.2048 10.6886 18.2473 13.5743 15.5357 16.286C12.824 18.9976 9.93828 20.9551 7.49784 21.9493C6.27557 22.4473 5.21216 22.6844 4.36487 22.6863C3.52296 22.6882 2.97313 22.4618 2.63097 22.1196C2.28881 21.7774 2.06237 21.2276 2.06428 20.3857C2.0662 19.5384 2.30327 18.475 2.80123 17.2527C3.79548 14.8123 5.75296 11.9265 8.4646 9.21489Z" stroke="#0069FF" stroke-width="2"/>
<path fill-rule="evenodd" clip-rule="evenodd" d="M16.041 12.7497L17.8911 15.2456L19.8864 12.8525L17.8431 10.2393L16.041 12.7497Z" fill="#718096"/>
</svg>
