<svg width="25" height="24" viewBox="0 0 25 24" fill="none" xmlns="http://www.w3.org/2000/svg">
<g clip-path="url(#clip0_23_179)">
<path d="M12.5 2C6.98 2 2.5 6.48 2.5 12C2.5 17.52 6.98 22 12.5 22C18.02 22 22.5 17.52 22.5 12C22.5 6.48 18.02 2 12.5 2ZM12.5 20C8.09 20 4.5 16.41 4.5 12C4.5 7.59 8.09 4 12.5 4C16.91 4 20.5 7.59 20.5 12C20.5 16.41 16.91 20 12.5 20Z" fill="#718096"/>
<path d="M8.5 16C9.60457 16 10.5 15.1046 10.5 14C10.5 12.8954 9.60457 12 8.5 12C7.39543 12 6.5 12.8954 6.5 14C6.5 15.1046 7.39543 16 8.5 16Z" fill="#718096"/>
<path d="M12.5 10C13.6046 10 14.5 9.10457 14.5 8C14.5 6.89543 13.6046 6 12.5 6C11.3954 6 10.5 6.89543 10.5 8C10.5 9.10457 11.3954 10 12.5 10Z" fill="#718096"/>
<path d="M16.5 16C17.6046 16 18.5 15.1046 18.5 14C18.5 12.8954 17.6046 12 16.5 12C15.3954 12 14.5 12.8954 14.5 14C14.5 15.1046 15.3954 16 16.5 16Z" fill="#718096"/>
</g>
<defs>
<clipPath id="clip0_23_179">
<rect width="24" height="24" fill="white" transform="translate(0.5)"/>
</clipPath>
</defs>
</svg>
