<svg width="16" height="16" viewBox="0 0 16 16" fill="none" xmlns="http://www.w3.org/2000/svg">
<path d="M7.99999 1.59998C5.79085 1.59998 3.99999 3.39084 3.99999 5.59997V7.19997C3.11634 7.19997 2.39999 7.91632 2.39999 8.79997V12.8C2.39999 13.6836 3.11634 14.4 3.99999 14.4H12C12.8836 14.4 13.6 13.6836 13.6 12.8V8.79997C13.6 7.91632 12.8836 7.19997 12 7.19997H5.59999V5.59997C5.59999 4.27449 6.67451 3.19997 7.99999 3.19997C9.1172 3.19997 10.058 3.96407 10.3244 4.99938C10.4346 5.42726 10.8707 5.68485 11.2986 5.57472C11.7265 5.46459 11.9841 5.02845 11.8739 4.60057C11.4299 2.87551 9.86492 1.59998 7.99999 1.59998Z" fill="white" fill-opacity="0.24"/>
</svg>
