<svg width="16" height="17" viewBox="0 0 16 17" fill="none" xmlns="http://www.w3.org/2000/svg">
<path opacity="0.4" d="M11.3334 7.83333V5.83333C11.3334 3.99239 9.84095 2.5 8.00002 2.5C6.15907 2.5 4.66669 3.99239 4.66669 5.83333V7.83333" stroke="black" stroke-width="1.33333" stroke-linecap="round" stroke-linejoin="round"/>
<path d="M2.66669 11.0333C2.66669 9.91321 2.66669 9.35321 2.88467 8.92534C3.07642 8.54901 3.38238 8.24308 3.75871 8.05134C4.18653 7.83334 4.74658 7.83334 5.86669 7.83334H10.1334C11.2535 7.83334 11.8135 7.83334 12.2414 8.05134C12.6177 8.24308 12.9236 8.54901 13.1154 8.92534C13.3334 9.35321 13.3334 9.91321 13.3334 11.0333V11.3C13.3334 12.4201 13.3334 12.9801 13.1154 13.408C12.9236 13.7843 12.6177 14.0903 12.2414 14.282C11.8135 14.5 11.2535 14.5 10.1334 14.5H5.86669C4.74658 14.5 4.18653 14.5 3.75871 14.282C3.38238 14.0903 3.07642 13.7843 2.88467 13.408C2.66669 12.9801 2.66669 12.4201 2.66669 11.3V11.0333Z" stroke="black" stroke-width="1.33333" stroke-linecap="round" stroke-linejoin="round"/>
</svg>
