<svg width="34" height="34" viewBox="0 0 34 34" fill="none" xmlns="http://www.w3.org/2000/svg">
<path d="M31.697 15.7637L26.0839 13.6622L23.8909 12.8409L26.1376 6.83984L17 10.2613L7.86211 6.83984L10.1091 12.8412L7.91611 13.6625L2.30304 15.764L1.72656 15.9797L10.7323 19.2292C11.7822 19.6082 12.6651 20.3219 13.2555 21.2449C13.4546 21.5563 13.6206 21.8913 13.7485 22.2455L17 31.2455L20.2515 22.2455C20.3794 21.8913 20.5454 21.556 20.7445 21.2449C21.3352 20.3219 22.2181 19.6079 23.2677 19.2292L32.2734 15.9797L31.697 15.764V15.7637ZM22.0777 17.6837C20.4927 18.2555 19.2446 19.5035 18.6728 21.0885L17.0149 25.6838L13.3006 15.7637L12.5137 13.6622L11.9485 12.1524L11.2345 10.2454L14.1385 11.3328L20.3608 13.6625L23.1872 14.7207L25.9736 15.764L26.673 16.0258L22.0777 17.684V17.6837Z" fill="currentColor"/>
</svg>
