<svg width="24" height="24" viewBox="0 0 24 24" fill="none" xmlns="http://www.w3.org/2000/svg">
<path opacity="0.5" d="M11.7499 11.411L12.7499 11.411L12.7499 10.7671L12.1637 10.5007L11.7499 11.411ZM3.64648 7.72764L2.73612 7.31384L2.32231 8.22421L3.23268 8.63801L3.64648 7.72764ZM3.85339 7.27246L4.26719 6.36209L3.35682 5.94829L2.94302 6.85866L3.85339 7.27246ZM12 10.9754L11.5861 11.8858L12 12.0739L12.4138 11.8858L12 10.9754ZM20.1465 7.27246L21.0569 6.85866L20.643 5.94829L19.7327 6.3621L20.1465 7.27246ZM20.3534 7.72764L20.7672 8.63801L21.6776 8.22421L21.2638 7.31384L20.3534 7.72764ZM12.2499 11.411L11.8361 10.5007L11.2499 10.7671L11.2499 11.411L12.2499 11.411ZM12.2499 21.0001V22.0001H13.2499L13.2499 21.0001L12.2499 21.0001ZM11.7499 21.0001L10.7499 21.0001L10.7499 22.0001H11.7499V21.0001ZM12.1637 10.5007L4.06029 6.81728L3.23268 8.63801L11.3361 12.3214L12.1637 10.5007ZM4.55685 8.14145L4.76375 7.68626L2.94302 6.85866L2.73612 7.31384L4.55685 8.14145ZM3.43958 8.18283L11.5861 11.8858L12.4138 10.0651L4.26719 6.36209L3.43958 8.18283ZM12.4138 11.8858L20.5603 8.18283L19.7327 6.3621L11.5861 10.0651L12.4138 11.8858ZM19.2361 7.68626L19.443 8.14145L21.2638 7.31384L21.0569 6.85866L19.2361 7.68626ZM19.9396 6.81728L11.8361 10.5007L12.6637 12.3214L20.7672 8.63801L19.9396 6.81728ZM11.2499 11.411L11.2499 21.0001L13.2499 21.0001L13.2499 11.411L11.2499 11.411ZM12.2499 20.0001H11.7499V22.0001H12.2499V20.0001ZM12.7499 21.0001L12.7499 11.411L10.7499 11.411L10.7499 21.0001L12.7499 21.0001Z" fill="#718096"/>
<path fill-rule="evenodd" clip-rule="evenodd" d="M11 2.07735C11.6188 1.72008 12.3812 1.72008 13 2.07735L20.0933 6.17265C20.7121 6.52992 21.0933 7.19017 21.0933 7.9047V16.0953C21.0933 16.8098 20.7121 17.4701 20.0933 17.8274L13 21.9226C12.3812 22.2799 11.6188 22.2799 11 21.9226L3.90673 17.8274C3.28793 17.4701 2.90673 16.8098 2.90673 16.0953V7.9047C2.90673 7.19017 3.28793 6.52992 3.90673 6.17265L11 2.07735Z" stroke="#718096" stroke-width="2"/>
</svg>
