<svg width="24" height="24" viewBox="0 0 24 24" fill="none" xmlns="http://www.w3.org/2000/svg">
<path d="M17.2442 8.30613H9.84317C6.61584 8.30613 4 10.9234 4 14.1526C4 17.3817 6.61584 20 9.84317 20H13.5657C14.1524 20 14.6276 19.5236 14.6276 18.9365C14.6276 18.3495 14.1524 17.8741 13.5657 17.8741H9.84317C7.78919 17.8741 6.1247 16.2077 6.1247 14.1525C6.1247 12.0974 7.78919 10.432 9.84317 10.432H17.2442L14.8455 12.8319C14.4093 13.2675 14.4093 13.9751 14.8455 14.4107C15.2808 14.8462 15.9871 14.8462 16.4234 14.4107L20.6728 10.1579C21.1091 9.72234 21.1091 9.01569 20.6728 8.57916L16.4234 4.3274C15.9871 3.89087 15.2808 3.89087 14.8455 4.3274C14.4093 4.76293 14.4093 5.46959 14.8455 5.90612L17.2442 8.30613Z" fill="currentColor"/>
</svg>
