<svg width="24" height="24" viewBox="0 0 24 24" fill="none" xmlns="http://www.w3.org/2000/svg">
<path fill-rule="evenodd" clip-rule="evenodd" d="M11.8613 14.089C14.6719 14.089 17.086 13.6137 18.3413 12.9228V12.9226C19.9397 12.2749 21.1322 11.4011 21.7426 10.3877C22.0341 10.8293 22.2001 11.3411 22.2226 11.869C22.2226 14.7302 17.5829 17.0477 11.8613 17.0477C6.13968 17.0477 1.5 14.7302 1.5 11.869C1.52251 11.3411 1.68845 10.8292 1.98 10.3877V10.3886C2.58744 11.4012 3.78002 12.275 5.38128 12.9228C6.6384 13.609 9.05064 14.089 11.8613 14.089ZM11.8613 18.529C14.6719 18.529 17.086 18.0537 18.3413 17.3628V17.3626C19.9397 16.7149 21.1322 15.8411 21.7426 14.8277C22.0341 15.2693 22.2001 15.7811 22.2226 16.309C22.2226 19.1702 17.5829 21.4877 11.8613 21.4877C6.13968 21.4877 1.5 19.1702 1.5 16.309C1.52251 15.7811 1.68845 15.2692 1.98 14.8277V14.8286C2.58744 15.8412 3.78002 16.715 5.38128 17.3628C6.6384 18.0491 9.05064 18.529 11.8613 18.529Z" fill="#718096"/>
<path d="M4.53612 11.0915C6.41019 12.0299 9.0006 12.6083 11.8609 12.6083C14.7222 12.6083 17.3116 12.0299 19.1857 11.0915C20.0285 10.6968 20.7832 10.1371 21.4057 9.44426C21.911 8.89207 22.2007 8.17678 22.2223 7.42865C22.2157 7.14646 22.1595 6.86803 22.0563 6.60552C21.2623 4.13808 17.0183 2.25 11.8611 2.25C6.70402 2.25 2.45986 4.13813 1.66594 6.60552C1.56281 6.86803 1.50656 7.14646 1.5 7.42865C1.52156 8.17678 1.81126 8.8921 2.31655 9.44426C2.93906 10.1371 3.69374 10.6968 4.53655 11.0915H4.53612ZM11.8609 5.20858C15.9409 5.20858 19.2596 6.20232 19.2596 7.42858C19.2596 8.65483 15.9409 9.64858 11.8609 9.64858C7.78092 9.64858 4.4622 8.65483 4.4622 7.42858C4.4622 6.20232 7.78092 5.20858 11.8609 5.20858Z" fill="#0069FF"/>
</svg>
