<svg width="25" height="24" viewBox="0 0 25 24" fill="none" xmlns="http://www.w3.org/2000/svg">
<path fill-rule="evenodd" clip-rule="evenodd" d="M22.1004 11.9999C22.1004 17.3018 17.8023 21.5999 12.5004 21.5999C7.19846 21.5999 2.90039 17.3018 2.90039 11.9999C2.90039 6.69797 7.19846 2.3999 12.5004 2.3999C17.8023 2.3999 22.1004 6.69797 22.1004 11.9999ZM19.7004 11.9999C19.7004 13.191 19.4111 14.3146 18.8991 15.3042L17.0696 13.4747C17.2194 13.0101 17.3004 12.5144 17.3004 11.9999C17.3004 11.6055 17.2528 11.2223 17.1631 10.8556L19.0385 8.98022C19.4633 9.89856 19.7004 10.9215 19.7004 11.9999ZM13.5019 16.6953L15.3992 18.5926C14.5123 18.9831 13.5317 19.1999 12.5004 19.1999C11.422 19.1999 10.3991 18.9628 9.48071 18.538L11.356 16.6626C11.7228 16.7523 12.106 16.7999 12.5004 16.7999C12.8438 16.7999 13.1789 16.7638 13.5019 16.6953ZM7.89007 13.3404C7.76659 12.915 7.70039 12.4652 7.70039 11.9999C7.70039 11.6016 7.74891 11.2146 7.84035 10.8446L7.74576 10.9392L5.90773 9.10113C5.5172 9.98802 5.30039 10.9686 5.30039 11.9999C5.30039 13.1445 5.56749 14.2268 6.04276 15.1877L7.89007 13.3404ZM9.19606 5.60123C10.1857 5.08915 11.3093 4.7999 12.5004 4.7999C13.645 4.7999 14.7273 5.067 15.6882 5.54227L13.8409 7.38958C13.4155 7.2661 12.9657 7.1999 12.5004 7.1999C11.9859 7.1999 11.4902 7.28086 11.0256 7.43074L9.19606 5.60123ZM14.9004 11.9999C14.9004 13.3254 13.8259 14.3999 12.5004 14.3999C11.1749 14.3999 10.1004 13.3254 10.1004 11.9999C10.1004 10.6744 11.1749 9.5999 12.5004 9.5999C13.8259 9.5999 14.9004 10.6744 14.9004 11.9999Z" fill="currentColor"/>
</svg>
