<svg width="16" height="16" viewBox="0 0 16 16" fill="none" xmlns="http://www.w3.org/2000/svg">
<path fill-rule="evenodd" clip-rule="evenodd" d="M1.59998 4.00002C1.59998 3.11637 2.31632 2.40002 3.19998 2.40002H12.8C13.6836 2.40002 14.4 3.11637 14.4 4.00002V12C14.4 12.8837 13.6836 13.6 12.8 13.6H3.19998C2.31632 13.6 1.59998 12.8837 1.59998 12V4.00002ZM4.23429 5.03434C4.54671 4.72192 5.05324 4.72192 5.36566 5.03434L7.76566 7.43434C8.07808 7.74676 8.07808 8.25329 7.76566 8.56571L5.36566 10.9657C5.05324 11.2781 4.54671 11.2781 4.23429 10.9657C3.92187 10.6533 3.92187 10.1468 4.23429 9.83434L6.0686 8.00002L4.23429 6.16571C3.92187 5.85329 3.92187 5.34676 4.23429 5.03434ZM8.79998 9.60003C8.35815 9.60003 7.99998 9.9582 7.99998 10.4C7.99998 10.8419 8.35815 11.2 8.79998 11.2H11.2C11.6418 11.2 12 10.8419 12 10.4C12 9.9582 11.6418 9.60003 11.2 9.60003H8.79998Z" fill="white" style="fill:white;fill-opacity:1;"/>
</svg>
