<svg width="24" height="24" viewBox="0 0 24 24" fill="none" xmlns="http://www.w3.org/2000/svg">
<path d="M6.75583 8.30613H14.1568C17.3842 8.30613 20 10.9234 20 14.1526C20 17.3817 17.3842 20 14.1568 20H10.4343C9.84755 20 9.3724 19.5236 9.3724 18.9365C9.3724 18.3495 9.84755 17.8741 10.4343 17.8741H14.1568C16.2108 17.8741 17.8753 16.2077 17.8753 14.1525C17.8753 12.0974 16.2108 10.432 14.1568 10.432H6.75583L9.15445 12.8319C9.59074 13.2675 9.59074 13.9751 9.15445 14.4107C8.71916 14.8462 8.0129 14.8462 7.57661 14.4107L3.32722 10.1579C2.89093 9.72234 2.89093 9.01569 3.32722 8.57916L7.57661 4.3274C8.0129 3.89087 8.71916 3.89087 9.15445 4.3274C9.59074 4.76293 9.59074 5.46959 9.15445 5.90612L6.75583 8.30613Z" fill="currentColor"/>
</svg>
