<svg width="24" height="24" viewBox="0 0 24 24" fill="none" xmlns="http://www.w3.org/2000/svg">
<path fill-rule="evenodd" clip-rule="evenodd" d="M2 12C2 6.48 6.48 2 12 2C17.52 2 22 6.48 22 12C22 17.52 17.52 22 12 22C6.48 22 2 17.52 2 12ZM4 12C4 16.41 7.59 20 12 20C16.41 20 20 16.41 20 12C20 7.59 16.41 4 12 4C7.59 4 4 7.59 4 12ZM10 14C10 15.1046 9.10457 16 8 16C6.89543 16 6 15.1046 6 14C6 12.8954 6.89543 12 8 12C9.10457 12 10 12.8954 10 14ZM12 10C13.1046 10 14 9.10457 14 8C14 6.89543 13.1046 6 12 6C10.8954 6 10 6.89543 10 8C10 9.10457 10.8954 10 12 10ZM18 14C18 15.1046 17.1046 16 16 16C14.8954 16 14 15.1046 14 14C14 12.8954 14.8954 12 16 12C17.1046 12 18 12.8954 18 14Z" fill="currentColor"/>
<path d="M26 5.5C26 9.08985 23.0899 12 19.5 12C15.9101 12 13 9.08985 13 5.5C13 1.91015 15.9101 -1 19.5 -1C23.0899 -1 26 1.91015 26 5.5Z" fill="white"/>
<path d="M19.5 1C17.016 1 15 3.016 15 5.5C15 7.984 17.016 10 19.5 10C21.984 10 24 7.984 24 5.5C24 3.016 21.984 1 19.5 1ZM21.75 5.95H17.25V5.05H21.75V5.95Z" fill="currentColor"/>
</svg>
