<svg width="17" height="16" viewBox="0 0 17 16" fill="none" xmlns="http://www.w3.org/2000/svg">
<path d="M13.2442 4.30613H5.84317C2.61584 4.30613 0 6.92342 0 10.1526C0 13.3817 2.61584 16 5.84317 16H9.56573C10.1524 16 10.6276 15.5236 10.6276 14.9365C10.6276 14.3495 10.1524 13.8741 9.56573 13.8741H5.84317C3.78919 13.8741 2.1247 12.2077 2.1247 10.1525C2.1247 8.0974 3.78919 6.43198 5.84317 6.43198H13.2442L10.8455 8.83194C10.4093 9.26748 10.4093 9.97512 10.8455 10.4107C11.2808 10.8462 11.9871 10.8462 12.4234 10.4107L16.6728 6.15788C17.1091 5.72234 17.1091 5.01569 16.6728 4.57916L12.4234 0.327398C11.9871 -0.109133 11.2808 -0.109133 10.8455 0.327398C10.4093 0.762933 10.4093 1.46959 10.8455 1.90612L13.2442 4.30613Z" fill="currentColor" />
</svg>
