<svg width="24" height="24" viewBox="0 0 24 24" fill="none" xmlns="http://www.w3.org/2000/svg">
    <path d="M14.88 6.24001C13.7663 5.12908 12.2652 4.49157 10.6923 4.46157C9.12007 4.43063 7.59579 5.01001 6.43971 6.07689C5.28377 7.14469 4.58532 8.61753 4.49064 10.1878C4.39502 11.7582 4.91064 13.305 5.92971 14.503C6.94877 15.7021 8.39163 16.4605 9.95619 16.6209C11.5218 16.7802 13.0884 16.3283 14.3278 15.3599L18.3355 19.3444C18.6224 19.5591 19.0237 19.531 19.2768 19.2769C19.5309 19.0238 19.559 18.6225 19.3443 18.3356L15.3598 14.3279C16.2898 13.1569 16.7548 11.685 16.6658 10.1927C16.5776 8.70017 15.9411 7.293 14.8798 6.24012L14.88 6.24001ZM13.8478 13.8478C12.9741 14.7262 11.7863 15.2193 10.5478 15.2193C9.30939 15.2193 8.12167 14.7262 7.24783 13.8478C6.36564 12.9825 5.87158 11.7965 5.88003 10.56C5.88003 8.88846 6.77158 7.34353 8.22003 6.50713C9.66847 5.67073 11.4516 5.67088 12.9 6.50713C14.3484 7.34339 15.24 8.88839 15.24 10.56C15.2391 11.7994 14.7375 12.9852 13.8478 13.8478Z" fill="currentColor" />
</svg>
