<svg width="17" height="16" viewBox="0 0 17 16" fill="none" xmlns="http://www.w3.org/2000/svg">
<path d="M3.75583 4.30613H11.1568C14.3842 4.30613 17 6.92342 17 10.1526C17 13.3817 14.3842 16 11.1568 16H7.43427C6.84755 16 6.3724 15.5236 6.3724 14.9365C6.3724 14.3495 6.84755 13.8741 7.43427 13.8741H11.1568C13.2108 13.8741 14.8753 12.2077 14.8753 10.1525C14.8753 8.0974 13.2108 6.43198 11.1568 6.43198H3.75583L6.15445 8.83194C6.59074 9.26748 6.59074 9.97512 6.15445 10.4107C5.71916 10.8462 5.0129 10.8462 4.57661 10.4107L0.327215 6.15788C-0.109072 5.72234 -0.109072 5.01569 0.327215 4.57916L4.57661 0.327398C5.0129 -0.109133 5.71916 -0.109133 6.15445 0.327398C6.59074 0.762933 6.59074 1.46959 6.15445 1.90612L3.75583 4.30613Z" fill="currentColor" />
</svg>
