<svg width="13" height="15" viewBox="0 0 13 15" fill="none" xmlns="http://www.w3.org/2000/svg">
<path fill-rule="evenodd" clip-rule="evenodd" d="M0.532701 13.132C0.34707 12.053 0.967216 10.9971 2.0001 10.6325L2.00019 4.36749C0.967324 4.00295 0.347178 2.94709 0.532791 1.86803C0.717649 0.788918 1.65421 0 2.75037 0C3.84576 0 4.78233 0.788972 4.96794 1.86803C5.15287 2.94702 4.53342 4.0029 3.49984 4.36749V6.75041H9.50025V4.36749C8.46668 4.00295 7.84724 2.94709 8.03215 1.86803C8.21773 0.788918 9.15427 0 10.2497 0C11.3458 0 12.2824 0.788972 12.4673 1.86803C12.6529 2.94702 12.0328 4.0029 10.9999 4.36749V7.5C10.9999 7.69882 10.9211 7.88918 10.7805 8.02969C10.6399 8.1702 10.4487 8.24959 10.2497 8.24959H3.49975V10.6325C4.53332 10.9971 5.15276 12.0529 4.96785 13.132C4.78227 14.2111 3.84572 15 2.75028 15C1.65418 15 0.717613 14.211 0.532701 13.132ZM10.943 1.96772C10.827 1.68812 10.5535 1.50547 10.2498 1.50547L10.2498 1.50546C9.83563 1.50546 9.50024 1.84056 9.50024 2.25434C9.50024 2.55783 9.68305 2.83111 9.96289 2.94703C10.2434 3.06295 10.5662 2.99901 10.7806 2.78475C10.9951 2.57048 11.0591 2.24802 10.943 1.96772ZM2.75033 13.4945C2.44658 13.4945 2.17308 13.3119 2.05705 13.0323C1.94104 12.752 2.00502 12.4295 2.21947 12.2153C2.43392 12.001 2.75665 11.9371 3.0372 12.053C3.31704 12.1689 3.49985 12.4422 3.49985 12.7457C3.49985 12.9445 3.4211 13.1349 3.28047 13.2754C3.13983 13.4158 2.94931 13.4945 2.75032 13.4945L2.75033 13.4945ZM3.44291 1.96772C3.32688 1.68812 3.05337 1.50547 2.75033 1.50547L2.75034 1.50546C2.3362 1.50546 2.00011 1.84056 2.00011 2.25434C2.00011 2.55783 2.18291 2.83111 2.46276 2.94703C2.7433 3.06295 3.06604 2.99901 3.28049 2.78475C3.49494 2.57048 3.55892 2.24802 3.44291 1.96772Z" fill="currentColor"/>
</svg>
