<svg width="243" height="289" viewBox="0 0 243 289" fill="none" xmlns="http://www.w3.org/2000/svg">
<path d="M140.84 14.3225L140.854 14.2829C141.213 13.2958 141.982 12.5139 142.957 12.1447L149.74 9.57706L150.37 9.33855L149.736 9.10831L131.276 2.39524L130.764 2.20906L130.957 2.71862L137.955 21.2225L138.198 21.8645L138.425 21.2167L140.84 14.3225Z" fill="#4ACDD6" stroke="white" stroke-width="0.5"/>
<g filter="url(#filter0_d_1_15)">
<rect x="147" y="20" width="44" height="24" rx="12" fill="#4ACDD6"/>
<path d="M153.789 36V28H156.789C157.404 28 157.919 28.1146 158.336 28.3437C158.755 28.5729 159.072 28.888 159.285 29.2891C159.501 29.6875 159.609 30.1406 159.609 30.6484C159.609 31.1615 159.501 31.6172 159.285 32.0156C159.069 32.4141 158.75 32.7279 158.328 32.957C157.906 33.1836 157.387 33.2969 156.77 33.2969H154.781V32.1055H156.574C156.934 32.1055 157.228 32.043 157.457 31.918C157.686 31.793 157.855 31.6211 157.965 31.4023C158.077 31.1836 158.133 30.9323 158.133 30.6484C158.133 30.3646 158.077 30.1146 157.965 29.8984C157.855 29.6823 157.685 29.5143 157.453 29.3945C157.224 29.2721 156.928 29.2109 156.566 29.2109H155.238V36H153.789ZM163.376 36.1172C162.774 36.1172 162.255 35.9922 161.817 35.7422C161.382 35.4896 161.048 35.1328 160.813 34.6719C160.579 34.2083 160.462 33.6628 160.462 33.0352C160.462 32.418 160.579 31.8763 160.813 31.4102C161.05 30.9414 161.381 30.5768 161.806 30.3164C162.23 30.0534 162.729 29.9219 163.302 29.9219C163.672 29.9219 164.021 29.9818 164.349 30.1016C164.679 30.2187 164.971 30.401 165.224 30.6484C165.479 30.8958 165.679 31.2109 165.825 31.5937C165.971 31.974 166.044 32.4271 166.044 32.9531V33.3867H161.126V32.4336H164.688C164.686 32.1628 164.627 31.9219 164.513 31.7109C164.398 31.4974 164.238 31.3294 164.032 31.207C163.829 31.0846 163.592 31.0234 163.321 31.0234C163.032 31.0234 162.778 31.0937 162.56 31.2344C162.341 31.3724 162.17 31.5547 162.048 31.7812C161.928 32.0052 161.867 32.2513 161.864 32.5195V33.3516C161.864 33.7005 161.928 34 162.056 34.25C162.183 34.4974 162.362 34.6875 162.591 34.8203C162.82 34.9505 163.088 35.0156 163.396 35.0156C163.601 35.0156 163.787 34.987 163.954 34.9297C164.121 34.8698 164.265 34.7826 164.388 34.668C164.51 34.5534 164.603 34.4115 164.665 34.2422L165.985 34.3906C165.902 34.7396 165.743 35.0443 165.509 35.3047C165.277 35.5625 164.98 35.763 164.618 35.9062C164.256 36.0469 163.842 36.1172 163.376 36.1172ZM169.467 36.1055C168.995 36.1055 168.574 35.9844 168.201 35.7422C167.829 35.5 167.535 35.1484 167.318 34.6875C167.102 34.2266 166.994 33.6667 166.994 33.0078C166.994 32.3411 167.104 31.7786 167.322 31.3203C167.544 30.8594 167.842 30.5117 168.217 30.2773C168.592 30.0404 169.01 29.9219 169.471 29.9219C169.822 29.9219 170.111 29.9818 170.338 30.1016C170.564 30.2187 170.744 30.3607 170.877 30.5273C171.01 30.6914 171.113 30.8464 171.186 30.9922H171.244V28H172.662V36H171.271V35.0547H171.186C171.113 35.2005 171.007 35.3555 170.869 35.5195C170.731 35.681 170.549 35.819 170.322 35.9336C170.096 36.0482 169.811 36.1055 169.467 36.1055ZM169.861 34.9453C170.161 34.9453 170.416 34.8646 170.627 34.7031C170.838 34.5391 170.998 34.3112 171.107 34.0195C171.217 33.7279 171.271 33.388 171.271 33C171.271 32.612 171.217 32.2747 171.107 31.9883C171.001 31.7018 170.842 31.4792 170.631 31.3203C170.423 31.1615 170.166 31.082 169.861 31.082C169.546 31.082 169.283 31.1641 169.072 31.3281C168.861 31.4922 168.702 31.7187 168.596 32.0078C168.489 32.2969 168.436 32.6276 168.436 33C168.436 33.375 168.489 33.7096 168.596 34.0039C168.705 34.2956 168.865 34.526 169.076 34.6953C169.29 34.862 169.551 34.9453 169.861 34.9453ZM174.169 36V30H175.54V31H175.603C175.712 30.6536 175.899 30.3867 176.165 30.1992C176.433 30.0091 176.739 29.9141 177.083 29.9141C177.161 29.9141 177.248 29.918 177.345 29.9258C177.444 29.931 177.526 29.9401 177.591 29.9531V31.2539C177.531 31.2331 177.436 31.2148 177.306 31.1992C177.178 31.181 177.054 31.1719 176.935 31.1719C176.677 31.1719 176.445 31.2279 176.239 31.3398C176.036 31.4492 175.876 31.6016 175.759 31.7969C175.642 31.9922 175.583 32.2174 175.583 32.4727V36H174.169ZM180.9 36.1172C180.314 36.1172 179.807 35.9883 179.377 35.7305C178.947 35.4727 178.614 35.112 178.377 34.6484C178.143 34.1849 178.025 33.6432 178.025 33.0234C178.025 32.4036 178.143 31.8607 178.377 31.3945C178.614 30.9284 178.947 30.5664 179.377 30.3086C179.807 30.0508 180.314 29.9219 180.9 29.9219C181.486 29.9219 181.994 30.0508 182.424 30.3086C182.854 30.5664 183.186 30.9284 183.42 31.3945C183.657 31.8607 183.775 32.4036 183.775 33.0234C183.775 33.6432 183.657 34.1849 183.42 34.6484C183.186 35.112 182.854 35.4727 182.424 35.7305C181.994 35.9883 181.486 36.1172 180.9 36.1172ZM180.908 34.9844C181.226 34.9844 181.492 34.8971 181.705 34.7227C181.919 34.5456 182.077 34.3086 182.182 34.0117C182.288 33.7148 182.342 33.3841 182.342 33.0195C182.342 32.6523 182.288 32.3203 182.182 32.0234C182.077 31.724 181.919 31.4857 181.705 31.3086C181.492 31.1315 181.226 31.043 180.908 31.043C180.583 31.043 180.312 31.1315 180.096 31.3086C179.882 31.4857 179.722 31.724 179.615 32.0234C179.511 32.3203 179.459 32.6523 179.459 33.0195C179.459 33.3841 179.511 33.7148 179.615 34.0117C179.722 34.3086 179.882 34.5456 180.096 34.7227C180.312 34.8971 180.583 34.9844 180.908 34.9844Z" fill="white"/>
</g>
<path d="M13.8401 180.323L13.854 180.283C14.2128 179.296 14.9817 178.514 15.9566 178.145L22.7396 175.577L23.3696 175.339L22.7365 175.108L4.27635 168.395L3.76437 168.209L3.95708 168.719L10.955 187.222L11.1978 187.864L11.4248 187.217L13.8401 180.323Z" fill="#FA6155" stroke="white" stroke-width="0.5"/>
<g filter="url(#filter1_d_1_15)">
<rect x="20" y="186" width="33" height="24" rx="12" fill="#FA6155"/>
<path d="M26.2422 194H27.8789L29.8359 197.539H29.9141L31.8711 194H33.5078L30.5977 199.016V202H29.1523V199.016L26.2422 194ZM35.9717 202.117C35.3857 202.117 34.8779 201.988 34.4482 201.73C34.0186 201.473 33.6852 201.112 33.4482 200.648C33.2139 200.185 33.0967 199.643 33.0967 199.023C33.0967 198.404 33.2139 197.861 33.4482 197.395C33.6852 196.928 34.0186 196.566 34.4482 196.309C34.8779 196.051 35.3857 195.922 35.9717 195.922C36.5576 195.922 37.0654 196.051 37.4951 196.309C37.9248 196.566 38.2568 196.928 38.4912 197.395C38.7282 197.861 38.8467 198.404 38.8467 199.023C38.8467 199.643 38.7282 200.185 38.4912 200.648C38.2568 201.112 37.9248 201.473 37.4951 201.73C37.0654 201.988 36.5576 202.117 35.9717 202.117ZM35.9795 200.984C36.2972 200.984 36.5628 200.897 36.7764 200.723C36.9899 200.546 37.1488 200.309 37.2529 200.012C37.3597 199.715 37.4131 199.384 37.4131 199.02C37.4131 198.652 37.3597 198.32 37.2529 198.023C37.1488 197.724 36.9899 197.486 36.7764 197.309C36.5628 197.132 36.2972 197.043 35.9795 197.043C35.654 197.043 35.3831 197.132 35.167 197.309C34.9535 197.486 34.7933 197.724 34.6865 198.023C34.5824 198.32 34.5303 198.652 34.5303 199.02C34.5303 199.384 34.5824 199.715 34.6865 200.012C34.7933 200.309 34.9535 200.546 35.167 200.723C35.3831 200.897 35.654 200.984 35.9795 200.984ZM43.8711 199.477V196H45.2852V202H43.9141V200.934H43.8516C43.7161 201.27 43.4935 201.544 43.1836 201.758C42.8763 201.971 42.4974 202.078 42.0469 202.078C41.6536 202.078 41.306 201.991 41.0039 201.816C40.7044 201.639 40.4701 201.383 40.3008 201.047C40.1315 200.708 40.0469 200.299 40.0469 199.82V196H41.4609V199.602C41.4609 199.982 41.5651 200.284 41.7734 200.508C41.9818 200.732 42.2552 200.844 42.5938 200.844C42.8021 200.844 43.0039 200.793 43.1992 200.691C43.3945 200.59 43.5547 200.439 43.6797 200.238C43.8073 200.035 43.8711 199.781 43.8711 199.477Z" fill="white"/>
</g>
<g opacity="0.2">
<rect x="80" y="87.7959" width="71" height="47" rx="23.5" transform="rotate(-7.11653 80 87.7959)" fill="#9DA3AE"/>
<path d="M98.8657 116.681L93.5745 117.342L91.5339 100.997L96.9927 100.316C98.5941 100.116 100.01 100.272 101.241 100.782C102.471 101.288 103.469 102.112 104.233 103.254C105.001 104.39 105.491 105.806 105.703 107.504C105.916 109.206 105.787 110.708 105.318 112.01C104.853 113.31 104.077 114.364 102.989 115.17C101.9 115.97 100.526 116.474 98.8657 116.681ZM95.7715 114.879L98.461 114.543C99.706 114.388 100.712 114.025 101.478 113.453C102.243 112.877 102.775 112.116 103.073 111.171C103.371 110.221 103.439 109.099 103.277 107.807C103.117 106.524 102.776 105.462 102.255 104.619C101.739 103.776 101.051 103.173 100.189 102.81C99.3283 102.448 98.3019 102.341 97.1101 102.49L94.269 102.844L95.7715 114.879ZM109.602 115.341L108.071 103.083L110.378 102.795L110.621 104.742L110.748 104.726C110.889 104.038 111.218 103.47 111.735 103.022C112.257 102.568 112.877 102.296 113.595 102.207C113.744 102.188 113.92 102.171 114.123 102.157C114.332 102.141 114.496 102.135 114.615 102.136L114.9 104.418C114.801 104.404 114.627 104.396 114.379 104.394C114.129 104.388 113.882 104.4 113.637 104.43C113.073 104.501 112.586 104.683 112.174 104.978C111.767 105.266 111.462 105.637 111.259 106.089C111.055 106.536 110.987 107.025 111.053 107.557L111.988 115.043L109.602 115.341ZM121.718 114.104C120.941 114.201 120.221 114.145 119.557 113.936C118.893 113.722 118.343 113.361 117.907 112.853C117.476 112.345 117.21 111.689 117.11 110.886C117.024 110.194 117.085 109.608 117.296 109.128C117.506 108.648 117.821 108.249 118.241 107.932C118.66 107.615 119.141 107.355 119.683 107.152C120.225 106.95 120.782 106.777 121.353 106.636C122.077 106.459 122.664 106.316 123.115 106.205C123.565 106.09 123.886 105.955 124.078 105.801C124.269 105.648 124.347 105.427 124.311 105.14L124.304 105.084C124.217 104.387 123.953 103.872 123.511 103.538C123.075 103.203 122.471 103.084 121.7 103.18C120.896 103.281 120.286 103.538 119.867 103.952C119.453 104.36 119.186 104.791 119.064 105.244L116.758 105.013C116.931 104.235 117.244 103.585 117.698 103.064C118.156 102.537 118.707 102.128 119.352 101.836C119.996 101.54 120.687 101.345 121.427 101.253C121.916 101.192 122.442 101.186 123.005 101.234C123.572 101.277 124.114 101.42 124.631 101.664C125.153 101.906 125.603 102.29 125.982 102.816C126.361 103.336 126.606 104.043 126.717 104.937L127.734 113.077L125.403 113.368L125.194 111.692L125.098 111.704C124.982 112.032 124.789 112.364 124.517 112.701C124.246 113.037 123.881 113.334 123.421 113.591C122.961 113.848 122.394 114.019 121.718 114.104ZM121.998 112.124C122.657 112.041 123.205 111.84 123.641 111.521C124.082 111.201 124.398 110.816 124.591 110.365C124.788 109.908 124.856 109.438 124.795 108.954L124.598 107.374C124.524 107.469 124.369 107.57 124.133 107.675C123.902 107.774 123.636 107.869 123.334 107.961C123.031 108.047 122.737 108.13 122.449 108.209C122.161 108.283 121.92 108.345 121.727 108.397C121.271 108.513 120.861 108.664 120.495 108.85C120.134 109.036 119.856 109.273 119.66 109.562C119.468 109.846 119.399 110.2 119.452 110.626C119.526 111.216 119.8 111.636 120.274 111.885C120.747 112.128 121.322 112.208 121.998 112.124ZM135.215 99.6937L135.454 101.609L128.527 102.474L128.288 100.559L135.215 99.6937ZM131.718 112.58L130.01 98.9008C129.914 98.1347 130.003 97.478 130.275 96.9307C130.546 96.3781 130.943 95.9422 131.465 95.6231C131.986 95.2986 132.572 95.0959 133.221 95.0148C133.7 94.955 134.114 94.9438 134.465 94.9811C134.815 95.0131 135.076 95.0507 135.249 95.0939L134.931 97.095C134.816 97.077 134.667 97.0577 134.486 97.0371C134.305 97.0111 134.089 97.0137 133.839 97.045C133.259 97.1174 132.862 97.3128 132.648 97.6313C132.439 97.9492 132.368 98.3795 132.436 98.9221L134.104 112.282L131.718 112.58ZM143.399 98.6719L143.638 100.587L136.943 101.423L136.704 99.5078L143.399 98.6719ZM138.133 96.3468L140.519 96.0489L141.967 107.645C142.024 108.108 142.137 108.447 142.305 108.664C142.471 108.876 142.669 109.01 142.898 109.068C143.131 109.12 143.379 109.13 143.639 109.097C143.831 109.073 143.997 109.039 144.137 108.995C144.277 108.95 144.386 108.915 144.464 108.889L145.141 110.806C145.01 110.877 144.819 110.955 144.571 111.04C144.323 111.13 144.007 111.202 143.625 111.255C142.998 111.344 142.399 111.305 141.827 111.139C141.255 110.973 140.771 110.666 140.375 110.218C139.979 109.771 139.734 109.177 139.642 108.437L138.133 96.3468Z" fill="#323232"/>
</g>
<g opacity="0.2">
<rect x="81.0681" y="125" width="122" height="47" rx="23.5" transform="rotate(6.19051 81.0681 125)" fill="#51BF69"/>
<path d="M88.8609 157.027L86.2383 156.743L93.9073 141.007L96.7617 141.316L100.878 158.331L98.2558 158.046L95.0798 144.143L94.9519 144.129L88.8609 157.027ZM89.9962 150.662L98.5036 151.585L98.2781 153.664L89.7707 152.741L89.9962 150.662ZM102.552 163.172L104.383 146.285L106.718 146.538L106.502 148.529L106.702 148.551C106.868 148.31 107.1 148.036 107.398 147.728C107.696 147.421 108.09 147.167 108.581 146.967C109.072 146.761 109.699 146.7 110.461 146.782C111.453 146.89 112.311 147.236 113.034 147.822C113.758 148.407 114.29 149.196 114.63 150.187C114.976 151.179 115.077 152.339 114.933 153.666C114.789 154.994 114.444 156.108 113.899 157.009C113.354 157.904 112.667 158.566 111.839 158.994C111.011 159.416 110.101 159.574 109.11 159.466C108.364 159.385 107.767 159.194 107.32 158.892C106.878 158.59 106.542 158.257 106.312 157.893C106.082 157.528 105.909 157.207 105.793 156.93L105.649 156.915L104.942 163.431L102.552 163.172ZM106.06 152.68C105.966 153.543 106.009 154.314 106.189 154.991C106.369 155.669 106.677 156.217 107.111 156.636C107.546 157.05 108.108 157.295 108.795 157.369C109.51 157.447 110.127 157.322 110.648 156.996C111.169 156.664 111.588 156.184 111.904 155.554C112.226 154.926 112.431 154.201 112.52 153.38C112.608 152.57 112.565 151.829 112.389 151.158C112.22 150.487 111.912 149.938 111.468 149.513C111.028 149.087 110.449 148.836 109.729 148.758C109.036 148.683 108.431 148.798 107.912 149.103C107.399 149.408 106.985 149.868 106.671 150.481C106.356 151.094 106.152 151.827 106.06 152.68ZM116.448 164.679L118.28 147.792L120.615 148.045L120.399 150.036L120.598 150.058C120.765 149.817 120.997 149.543 121.294 149.236C121.592 148.928 121.986 148.674 122.477 148.474C122.969 148.268 123.596 148.207 124.358 148.29C125.349 148.397 126.207 148.744 126.931 149.329C127.655 149.915 128.187 150.703 128.527 151.695C128.872 152.687 128.973 153.846 128.829 155.174C128.685 156.501 128.34 157.615 127.795 158.516C127.25 159.411 126.564 160.073 125.735 160.501C124.907 160.923 123.998 161.081 123.006 160.973C122.26 160.892 121.663 160.701 121.216 160.399C120.774 160.098 120.438 159.765 120.208 159.4C119.978 159.035 119.805 158.714 119.69 158.438L119.546 158.422L118.839 164.938L116.448 164.679ZM119.956 154.187C119.863 155.051 119.906 155.821 120.086 156.499C120.266 157.176 120.573 157.724 121.008 158.144C121.443 158.558 122.004 158.802 122.692 158.876C123.406 158.954 124.024 158.829 124.544 158.503C125.066 158.171 125.485 157.691 125.801 157.062C126.123 156.433 126.328 155.709 126.417 154.888C126.505 154.078 126.461 153.337 126.286 152.665C126.116 151.994 125.809 151.446 125.364 151.02C124.925 150.595 124.345 150.343 123.626 150.265C122.933 150.19 122.327 150.305 121.809 150.61C121.296 150.916 120.882 151.375 120.567 151.988C120.253 152.601 120.049 153.334 119.956 154.187ZM130.844 161.581L132.176 149.3L134.487 149.55L134.275 151.501L134.403 151.515C134.699 150.878 135.15 150.401 135.756 150.084C136.368 149.762 137.034 149.64 137.753 149.718C137.902 149.735 138.078 149.759 138.279 149.792C138.486 149.825 138.647 149.856 138.763 149.885L138.515 152.171C138.422 152.134 138.254 152.086 138.012 152.028C137.771 151.964 137.528 151.919 137.283 151.892C136.718 151.831 136.201 151.896 135.733 152.088C135.27 152.275 134.888 152.565 134.587 152.959C134.286 153.347 134.106 153.807 134.048 154.34L133.235 161.84L130.844 161.581ZM144.192 163.279C143.041 163.155 142.064 162.782 141.264 162.161C140.463 161.54 139.876 160.73 139.505 159.729C139.133 158.729 139.016 157.595 139.154 156.326C139.292 155.052 139.65 153.964 140.228 153.061C140.806 152.158 141.553 151.49 142.468 151.055C143.384 150.62 144.417 150.465 145.568 150.59C146.72 150.715 147.696 151.088 148.497 151.709C149.298 152.33 149.884 153.143 150.255 154.148C150.626 155.154 150.742 156.294 150.604 157.568C150.466 158.837 150.109 159.92 149.531 160.817C148.954 161.714 148.208 162.38 147.292 162.815C146.377 163.25 145.343 163.404 144.192 163.279ZM144.418 161.273C145.164 161.354 145.804 161.224 146.337 160.883C146.87 160.542 147.29 160.056 147.595 159.426C147.906 158.796 148.104 158.087 148.19 157.298C148.275 156.514 148.233 155.782 148.064 155.1C147.902 154.414 147.597 153.844 147.15 153.391C146.702 152.938 146.106 152.671 145.36 152.59C144.608 152.509 143.963 152.641 143.424 152.987C142.89 153.333 142.467 153.824 142.156 154.459C141.85 155.089 141.655 155.796 141.57 156.58C141.484 157.369 141.523 158.104 141.686 158.785C141.855 159.467 142.163 160.031 142.611 160.479C143.064 160.927 143.666 161.192 144.418 161.273ZM164.033 152.755L158.247 164.553L155.689 164.276L152.559 151.51L155.126 151.789L157.211 161.577L157.339 161.591L161.466 152.477L164.033 152.755ZM169.796 166.057C168.586 165.925 167.572 165.554 166.754 164.942C165.942 164.325 165.35 163.52 164.978 162.525C164.611 161.525 164.497 160.388 164.636 159.114C164.772 157.856 165.127 156.773 165.7 155.864C166.279 154.956 167.021 154.279 167.927 153.833C168.838 153.387 169.864 153.226 171.005 153.349C171.698 153.425 172.357 153.612 172.982 153.912C173.608 154.211 174.152 154.635 174.616 155.181C175.08 155.728 175.419 156.409 175.632 157.225C175.846 158.035 175.893 158.998 175.772 160.112L175.68 160.959L165.918 159.9L166.112 158.109L173.532 158.914C173.6 158.285 173.532 157.714 173.329 157.201C173.127 156.683 172.809 156.258 172.376 155.925C171.948 155.593 171.425 155.393 170.806 155.326C170.135 155.253 169.531 155.355 168.994 155.631C168.463 155.902 168.033 156.287 167.703 156.785C167.38 157.279 167.185 157.832 167.119 158.445L166.967 159.844C166.878 160.665 166.946 161.379 167.172 161.986C167.402 162.594 167.763 163.078 168.252 163.438C168.742 163.793 169.336 164.009 170.034 164.084C170.487 164.134 170.908 164.114 171.295 164.027C171.682 163.934 172.026 163.772 172.326 163.54C172.626 163.308 172.869 163.009 173.055 162.64L175.273 163.294C175.02 163.94 174.631 164.489 174.108 164.939C173.59 165.384 172.965 165.707 172.231 165.908C171.503 166.104 170.692 166.154 169.796 166.057ZM182.316 167.407C181.325 167.299 180.467 166.95 179.744 166.359C179.027 165.764 178.498 164.97 178.158 163.979C177.824 162.982 177.729 161.821 177.873 160.493C178.017 159.166 178.361 158.055 178.906 157.159C179.456 156.264 180.147 155.608 180.98 155.192C181.812 154.775 182.722 154.62 183.708 154.727C184.47 154.81 185.069 155.004 185.505 155.31C185.947 155.612 186.278 155.944 186.497 156.308C186.722 156.672 186.892 156.99 187.009 157.261L187.152 157.277L187.812 151.192L190.203 151.452L188.427 167.827L186.092 167.574L186.3 165.663L186.1 165.641C185.927 165.886 185.687 166.162 185.379 166.469C185.076 166.776 184.676 167.029 184.18 167.229C183.684 167.428 183.063 167.488 182.316 167.407ZM183.065 165.425C183.753 165.5 184.353 165.381 184.867 165.07C185.387 164.755 185.805 164.285 186.12 163.661C186.441 163.038 186.649 162.295 186.742 161.431C186.835 160.578 186.793 159.819 186.617 159.152C186.442 158.486 186.136 157.949 185.7 157.54C185.264 157.132 184.698 156.889 183.999 156.814C183.28 156.736 182.66 156.857 182.139 157.178C181.619 157.499 181.202 157.969 180.886 158.587C180.577 159.206 180.378 159.921 180.29 160.731C180.201 161.552 180.243 162.304 180.417 162.986C180.592 163.668 180.898 164.227 181.336 164.663C181.78 165.094 182.356 165.348 183.065 165.425Z" fill="#25855A"/>
</g>
<rect x="68" y="108" width="134.197" height="46.0986" rx="23.0493" fill="#FFB62A"/>
<path d="M87.3933 122.078V138.549H84.9082V122.078H87.3933ZM93.2242 131.215V138.549H90.8195V126.196H93.1277V128.207H93.2805C93.5647 127.553 94.0097 127.027 94.6156 126.63C95.2268 126.234 95.9962 126.035 96.9238 126.035C97.7656 126.035 98.5028 126.212 99.1355 126.566C99.7682 126.914 100.259 127.435 100.607 128.126C100.956 128.818 101.13 129.673 101.13 130.692V138.549H98.7253V130.981C98.7253 130.086 98.4921 129.386 98.0256 128.882C97.5591 128.373 96.9184 128.118 96.1034 128.118C95.5458 128.118 95.0499 128.239 94.6156 128.48C94.1866 128.721 93.8462 129.075 93.5942 129.542C93.3475 130.003 93.2242 130.56 93.2242 131.215ZM110.542 138.549V122.078H116.413C117.689 122.078 118.748 122.298 119.59 122.738C120.437 123.177 121.07 123.786 121.488 124.563C121.906 125.335 122.115 126.228 122.115 127.242C122.115 128.25 121.903 129.137 121.48 129.904C121.062 130.665 120.429 131.257 119.582 131.681C118.74 132.105 117.681 132.316 116.405 132.316H111.957V130.177H116.18C116.984 130.177 117.638 130.062 118.142 129.831C118.651 129.601 119.024 129.266 119.26 128.826C119.496 128.386 119.614 127.858 119.614 127.242C119.614 126.62 119.493 126.081 119.252 125.625C119.016 125.169 118.643 124.821 118.134 124.579C117.63 124.333 116.968 124.21 116.148 124.21H113.027V138.549H110.542ZM118.673 131.118L122.742 138.549H119.911L115.922 131.118H118.673ZM130.115 138.799C128.898 138.799 127.85 138.539 126.971 138.019C126.097 137.493 125.421 136.756 124.944 135.807C124.472 134.853 124.236 133.735 124.236 132.453C124.236 131.188 124.472 130.073 124.944 129.107C125.421 128.142 126.086 127.389 126.939 126.847C127.797 126.306 128.799 126.035 129.947 126.035C130.644 126.035 131.319 126.15 131.973 126.381C132.627 126.612 133.215 126.973 133.735 127.467C134.255 127.96 134.665 128.601 134.965 129.389C135.265 130.172 135.416 131.123 135.416 132.244V133.097H125.596V131.295H133.059C133.059 130.662 132.93 130.102 132.673 129.614C132.416 129.121 132.054 128.732 131.587 128.448C131.126 128.164 130.585 128.022 129.963 128.022C129.287 128.022 128.697 128.188 128.193 128.52C127.695 128.847 127.309 129.276 127.035 129.807C126.767 130.333 126.633 130.904 126.633 131.52V132.928C126.633 133.753 126.778 134.456 127.067 135.035C127.362 135.614 127.772 136.056 128.298 136.362C128.823 136.662 129.437 136.812 130.14 136.812C130.595 136.812 131.011 136.748 131.386 136.619C131.762 136.485 132.086 136.287 132.359 136.024C132.633 135.761 132.842 135.437 132.987 135.051L135.263 135.461C135.08 136.131 134.753 136.718 134.282 137.222C133.815 137.721 133.228 138.11 132.52 138.389C131.818 138.662 131.016 138.799 130.115 138.799ZM148.298 126.196L143.818 138.549H141.244L136.757 126.196H139.338L142.467 135.702H142.596L145.716 126.196H148.298ZM150.558 138.549V126.196H152.962V138.549H150.558ZM151.772 124.29C151.354 124.29 150.995 124.151 150.694 123.872C150.4 123.588 150.252 123.25 150.252 122.858C150.252 122.462 150.4 122.124 150.694 121.845C150.995 121.561 151.354 121.419 151.772 121.419C152.19 121.419 152.547 121.561 152.842 121.845C153.142 122.124 153.292 122.462 153.292 122.858C153.292 123.25 153.142 123.588 152.842 123.872C152.547 124.151 152.19 124.29 151.772 124.29ZM161.522 138.799C160.305 138.799 159.256 138.539 158.377 138.019C157.503 137.493 156.828 136.756 156.35 135.807C155.879 134.853 155.643 133.735 155.643 132.453C155.643 131.188 155.879 130.073 156.35 129.107C156.828 128.142 157.492 127.389 158.345 126.847C159.203 126.306 160.205 126.035 161.353 126.035C162.05 126.035 162.725 126.15 163.38 126.381C164.034 126.612 164.621 126.973 165.141 127.467C165.661 127.96 166.071 128.601 166.371 129.389C166.672 130.172 166.822 131.123 166.822 132.244V133.097H157.002V131.295H164.465C164.465 130.662 164.337 130.102 164.079 129.614C163.822 129.121 163.46 128.732 162.994 128.448C162.532 128.164 161.991 128.022 161.369 128.022C160.693 128.022 160.104 128.188 159.6 128.52C159.101 128.847 158.715 129.276 158.441 129.807C158.173 130.333 158.039 130.904 158.039 131.52V132.928C158.039 133.753 158.184 134.456 158.474 135.035C158.768 135.614 159.179 136.056 159.704 136.362C160.23 136.662 160.843 136.812 161.546 136.812C162.002 136.812 162.417 136.748 162.792 136.619C163.168 136.485 163.492 136.287 163.766 136.024C164.039 135.761 164.248 135.437 164.393 135.051L166.669 135.461C166.487 136.131 166.16 136.718 165.688 137.222C165.221 137.721 164.634 138.11 163.926 138.389C163.224 138.662 162.422 138.799 161.522 138.799ZM172.146 138.549L168.511 126.196H170.996L173.417 135.268H173.537L175.966 126.196H178.451L180.864 135.228H180.985L183.389 126.196H185.875L182.247 138.549H179.794L177.285 129.63H177.1L174.591 138.549H172.146Z" fill="#323232"/>
<path d="M166.84 254.323L166.854 254.283C167.213 253.296 167.982 252.514 168.957 252.145L175.74 249.577L176.37 249.339L175.736 249.108L157.276 242.395L156.764 242.209L156.957 242.719L163.955 261.222L164.198 261.864L164.425 261.217L166.84 254.323Z" fill="#2329D6" stroke="white" stroke-width="0.5"/>
<g filter="url(#filter2_d_1_15)">
<rect x="173" y="260" width="55" height="24" rx="12" fill="#2329D6"/>
<path d="M179.437 269.215V268H185.82V269.215H183.348V276H181.91V269.215H179.437ZM188.402 272.484V276H186.988V268H188.371V271.02H188.441C188.582 270.681 188.799 270.414 189.094 270.219C189.391 270.021 189.768 269.922 190.227 269.922C190.643 269.922 191.007 270.009 191.316 270.184C191.626 270.358 191.866 270.613 192.035 270.949C192.207 271.285 192.293 271.695 192.293 272.18V276H190.879V272.398C190.879 271.995 190.775 271.681 190.566 271.457C190.361 271.23 190.072 271.117 189.699 271.117C189.449 271.117 189.225 271.172 189.027 271.281C188.832 271.388 188.678 271.543 188.566 271.746C188.457 271.949 188.402 272.195 188.402 272.484ZM196.352 276.117C195.766 276.117 195.258 275.988 194.828 275.73C194.398 275.473 194.065 275.112 193.828 274.648C193.594 274.185 193.477 273.643 193.477 273.023C193.477 272.404 193.594 271.861 193.828 271.395C194.065 270.928 194.398 270.566 194.828 270.309C195.258 270.051 195.766 269.922 196.352 269.922C196.938 269.922 197.445 270.051 197.875 270.309C198.305 270.566 198.637 270.928 198.871 271.395C199.108 271.861 199.227 272.404 199.227 273.023C199.227 273.643 199.108 274.185 198.871 274.648C198.637 275.112 198.305 275.473 197.875 275.73C197.445 275.988 196.938 276.117 196.352 276.117ZM196.359 274.984C196.677 274.984 196.943 274.897 197.156 274.723C197.37 274.546 197.529 274.309 197.633 274.012C197.74 273.715 197.793 273.384 197.793 273.02C197.793 272.652 197.74 272.32 197.633 272.023C197.529 271.724 197.37 271.486 197.156 271.309C196.943 271.132 196.677 271.043 196.359 271.043C196.034 271.043 195.763 271.132 195.547 271.309C195.333 271.486 195.173 271.724 195.066 272.023C194.962 272.32 194.91 272.652 194.91 273.02C194.91 273.384 194.962 273.715 195.066 274.012C195.173 274.309 195.333 274.546 195.547 274.723C195.763 274.897 196.034 274.984 196.359 274.984ZM200.427 276V270H201.778V271.02H201.849C201.974 270.676 202.181 270.408 202.47 270.215C202.759 270.02 203.104 269.922 203.505 269.922C203.911 269.922 204.254 270.021 204.532 270.219C204.813 270.414 205.011 270.681 205.126 271.02H205.188C205.321 270.686 205.545 270.421 205.86 270.223C206.178 270.022 206.554 269.922 206.989 269.922C207.541 269.922 207.992 270.096 208.341 270.445C208.69 270.794 208.864 271.303 208.864 271.973V276H207.446V272.191C207.446 271.819 207.347 271.547 207.149 271.375C206.951 271.201 206.709 271.113 206.423 271.113C206.082 271.113 205.815 271.22 205.622 271.434C205.432 271.645 205.337 271.919 205.337 272.258V276H203.95V272.133C203.95 271.823 203.856 271.576 203.669 271.391C203.484 271.206 203.242 271.113 202.942 271.113C202.739 271.113 202.554 271.165 202.388 271.27C202.221 271.371 202.088 271.516 201.989 271.703C201.89 271.888 201.841 272.104 201.841 272.352V276H200.427ZM212.025 276.121C211.645 276.121 211.303 276.053 210.998 275.918C210.696 275.78 210.456 275.577 210.279 275.309C210.105 275.04 210.018 274.71 210.018 274.316C210.018 273.978 210.08 273.698 210.205 273.477C210.33 273.255 210.501 273.078 210.717 272.945C210.933 272.812 211.176 272.712 211.447 272.645C211.721 272.574 212.003 272.523 212.295 272.492C212.646 272.456 212.932 272.423 213.15 272.395C213.369 272.363 213.528 272.316 213.627 272.254C213.729 272.189 213.779 272.089 213.779 271.953V271.93C213.779 271.635 213.692 271.408 213.518 271.246C213.343 271.085 213.092 271.004 212.764 271.004C212.417 271.004 212.143 271.079 211.939 271.23C211.739 271.382 211.604 271.56 211.533 271.766L210.213 271.578C210.317 271.214 210.489 270.909 210.729 270.664C210.968 270.417 211.261 270.232 211.607 270.109C211.954 269.984 212.337 269.922 212.756 269.922C213.045 269.922 213.333 269.956 213.619 270.023C213.906 270.091 214.167 270.203 214.404 270.359C214.641 270.513 214.831 270.723 214.975 270.988C215.12 271.254 215.193 271.586 215.193 271.984V276H213.834V275.176H213.787C213.701 275.342 213.58 275.499 213.424 275.645C213.27 275.788 213.076 275.904 212.842 275.992C212.61 276.078 212.338 276.121 212.025 276.121ZM212.393 275.082C212.676 275.082 212.923 275.026 213.131 274.914C213.339 274.799 213.499 274.648 213.611 274.461C213.726 274.273 213.783 274.069 213.783 273.848V273.141C213.739 273.177 213.663 273.211 213.557 273.242C213.452 273.273 213.335 273.301 213.205 273.324C213.075 273.348 212.946 273.368 212.818 273.387C212.691 273.405 212.58 273.421 212.486 273.434C212.275 273.462 212.087 273.509 211.92 273.574C211.753 273.639 211.622 273.73 211.525 273.848C211.429 273.962 211.381 274.111 211.381 274.293C211.381 274.553 211.476 274.75 211.666 274.883C211.856 275.016 212.098 275.082 212.393 275.082ZM221.357 271.586L220.068 271.727C220.032 271.596 219.968 271.474 219.877 271.359C219.788 271.245 219.669 271.152 219.518 271.082C219.367 271.012 219.182 270.977 218.963 270.977C218.669 270.977 218.421 271.04 218.221 271.168C218.023 271.296 217.925 271.461 217.928 271.664C217.925 271.839 217.989 271.98 218.119 272.09C218.252 272.199 218.471 272.289 218.775 272.359L219.799 272.578C220.367 272.701 220.788 272.895 221.064 273.16C221.343 273.426 221.484 273.773 221.486 274.203C221.484 274.581 221.373 274.914 221.154 275.203C220.938 275.49 220.637 275.714 220.252 275.875C219.867 276.036 219.424 276.117 218.924 276.117C218.189 276.117 217.598 275.964 217.15 275.656C216.702 275.346 216.436 274.915 216.35 274.363L217.729 274.23C217.791 274.501 217.924 274.706 218.127 274.844C218.33 274.982 218.594 275.051 218.92 275.051C219.256 275.051 219.525 274.982 219.729 274.844C219.934 274.706 220.037 274.535 220.037 274.332C220.037 274.16 219.971 274.018 219.838 273.906C219.708 273.794 219.505 273.708 219.229 273.648L218.205 273.434C217.63 273.314 217.204 273.112 216.928 272.828C216.652 272.542 216.515 272.18 216.518 271.742C216.515 271.372 216.615 271.052 216.818 270.781C217.024 270.508 217.309 270.297 217.674 270.148C218.041 269.997 218.464 269.922 218.943 269.922C219.646 269.922 220.2 270.072 220.604 270.371C221.01 270.671 221.261 271.076 221.357 271.586Z" fill="white"/>
</g>
<defs>
<filter id="filter0_d_1_15" x="143" y="17" width="52" height="32" filterUnits="userSpaceOnUse" color-interpolation-filters="sRGB">
<feFlood flood-opacity="0" result="BackgroundImageFix"/>
<feColorMatrix in="SourceAlpha" type="matrix" values="0 0 0 0 0 0 0 0 0 0 0 0 0 0 0 0 0 0 127 0" result="hardAlpha"/>
<feOffset dy="1"/>
<feGaussianBlur stdDeviation="2"/>
<feColorMatrix type="matrix" values="0 0 0 0 0 0 0 0 0 0 0 0 0 0 0 0 0 0 0.15 0"/>
<feBlend mode="normal" in2="BackgroundImageFix" result="effect1_dropShadow_1_15"/>
<feBlend mode="normal" in="SourceGraphic" in2="effect1_dropShadow_1_15" result="shape"/>
</filter>
<filter id="filter1_d_1_15" x="16" y="183" width="41" height="32" filterUnits="userSpaceOnUse" color-interpolation-filters="sRGB">
<feFlood flood-opacity="0" result="BackgroundImageFix"/>
<feColorMatrix in="SourceAlpha" type="matrix" values="0 0 0 0 0 0 0 0 0 0 0 0 0 0 0 0 0 0 127 0" result="hardAlpha"/>
<feOffset dy="1"/>
<feGaussianBlur stdDeviation="2"/>
<feColorMatrix type="matrix" values="0 0 0 0 0 0 0 0 0 0 0 0 0 0 0 0 0 0 0.15 0"/>
<feBlend mode="normal" in2="BackgroundImageFix" result="effect1_dropShadow_1_15"/>
<feBlend mode="normal" in="SourceGraphic" in2="effect1_dropShadow_1_15" result="shape"/>
</filter>
<filter id="filter2_d_1_15" x="169" y="257" width="63" height="32" filterUnits="userSpaceOnUse" color-interpolation-filters="sRGB">
<feFlood flood-opacity="0" result="BackgroundImageFix"/>
<feColorMatrix in="SourceAlpha" type="matrix" values="0 0 0 0 0 0 0 0 0 0 0 0 0 0 0 0 0 0 127 0" result="hardAlpha"/>
<feOffset dy="1"/>
<feGaussianBlur stdDeviation="2"/>
<feColorMatrix type="matrix" values="0 0 0 0 0 0 0 0 0 0 0 0 0 0 0 0 0 0 0.15 0"/>
<feBlend mode="normal" in2="BackgroundImageFix" result="effect1_dropShadow_1_15"/>
<feBlend mode="normal" in="SourceGraphic" in2="effect1_dropShadow_1_15" result="shape"/>
</filter>
</defs>
</svg>
