<svg width="96" height="96" viewBox="0 0 96 96" fill="none" xmlns="http://www.w3.org/2000/svg">
<path fill-rule="evenodd" clip-rule="evenodd" d="M74.1213 21.8787C75.2929 23.0503 75.2929 24.9497 74.1213 26.1213L60.5758 39.6668H69.3332C70.9901 39.6668 72.3332 41.0099 72.3332 42.6668C72.3332 44.3237 70.9901 45.6668 69.3332 45.6668H53.3332C51.6763 45.6668 50.3332 44.3237 50.3332 42.6668V26.6667C50.3332 25.0098 51.6763 23.6667 53.3332 23.6667C54.9901 23.6667 56.3332 25.0098 56.3332 26.6667V35.4242L69.8787 21.8787C71.0503 20.7071 72.9497 20.7071 74.1213 21.8787ZM23.6667 53.3332C23.6667 51.6763 25.0098 50.3332 26.6667 50.3332H42.6668C44.3237 50.3332 45.6668 51.6763 45.6668 53.3332V69.3332C45.6668 70.9901 44.3237 72.3332 42.6668 72.3332C41.0099 72.3332 39.6668 70.9901 39.6668 69.3332V60.5758L26.1213 74.1213C24.9497 75.2929 23.0503 75.2929 21.8787 74.1213C20.7071 72.9497 20.7071 71.0503 21.8787 69.8787L35.4242 56.3332H26.6667C25.0098 56.3332 23.6667 54.9901 23.6667 53.3332Z" fill="white"/>
</svg>
