<svg width="96" height="96" viewBox="0 0 96 96" fill="none" xmlns="http://www.w3.org/2000/svg">
<path fill-rule="evenodd" clip-rule="evenodd" d="M74.1214 21.8787C74.7891 22.5464 75.1034 23.4895 74.9699 24.4243L72.3031 43.0911C72.0688 44.7313 70.5491 45.871 68.9089 45.6366C67.2687 45.4023 66.1291 43.8827 66.3634 42.2425L67.7573 32.4853L55.4413 44.8013C54.2698 45.9729 52.3703 45.9729 51.1987 44.8013C50.0271 43.6297 50.0271 41.7303 51.1987 40.5587L63.5148 28.2426L53.7575 29.6365C52.1173 29.8708 50.5977 28.7311 50.3634 27.0909C50.1291 25.4507 51.2688 23.9311 52.909 23.6968L71.5758 21.0301C72.5106 20.8966 73.4537 21.211 74.1214 21.8787ZM44.8014 51.1987C45.9729 52.3703 45.9729 54.2697 44.8014 55.4413L32.4854 67.7573L42.2425 66.3634C43.8827 66.129 45.4024 67.2687 45.6367 68.9089C45.871 70.5491 44.7313 72.0687 43.0911 72.303L24.4243 74.9698C23.4895 75.1034 22.5464 74.789 21.8787 74.1213C21.211 73.4536 20.8966 72.5105 21.0302 71.5757L23.6968 52.9089C23.9311 51.2687 25.4507 50.129 27.0909 50.3633C28.7311 50.5977 29.8708 52.1173 29.6365 53.7575L28.2426 63.5147L40.5587 51.1987C41.7303 50.0271 43.6298 50.0271 44.8014 51.1987Z" fill="white"/>
</svg>
