<svg width="16" height="17" viewBox="0 0 16 17" fill="none" xmlns="http://www.w3.org/2000/svg">
<path d="M8 0.5C3.58267 0.5 0 4.17255 0 8.70224C0 12.3263 2.292 15.4007 5.47133 16.4855C5.87067 16.5614 6 16.3071 6 16.0911V14.5641C3.77467 15.0603 3.31133 13.5962 3.31133 13.5962C2.94733 12.6482 2.42267 12.396 2.42267 12.396C1.69667 11.8868 2.478 11.8977 2.478 11.8977C3.28133 11.9551 3.704 12.7432 3.704 12.7432C4.41733 13.9968 5.57533 13.6345 6.032 13.4247C6.10333 12.895 6.31067 12.5327 6.54 12.3283C4.76333 12.1198 2.89533 11.4165 2.89533 8.27436C2.89533 7.37826 3.208 6.6469 3.71933 6.07274C3.63667 5.86563 3.36267 5.03106 3.79733 3.90188C3.79733 3.90188 4.46933 3.68179 5.998 4.74261C6.636 4.56079 7.32 4.46989 8 4.46647C8.68 4.46989 9.36467 4.56079 10.004 4.74261C11.5313 3.68179 12.202 3.90188 12.202 3.90188C12.6373 5.03174 12.3633 5.86632 12.2807 6.07274C12.794 6.6469 13.104 7.37895 13.104 8.27436C13.104 11.4247 11.2327 12.1185 9.45133 12.3215C9.738 12.5758 10 13.0747 10 13.8403V16.0911C10 16.3091 10.128 16.5655 10.534 16.4848C13.7107 15.3987 16 12.3249 16 8.70224C16 4.17255 12.418 0.5 8 0.5Z" fill="#718096"/>
</svg>
