<svg width="96" height="96" viewBox="0 0 96 96" fill="none" xmlns="http://www.w3.org/2000/svg">
<path d="M48 0C21.504 0 0 21.504 0 48C0 74.496 21.504 96 48 96C74.496 96 96 74.496 96 48C96 21.504 74.496 0 48 0ZM28.8 74.4C22.176 74.4 16.8 69.024 16.8 62.4C16.8 55.776 22.176 50.4 28.8 50.4C35.424 50.4 40.8 55.776 40.8 62.4C40.8 69.024 35.424 74.4 28.8 74.4ZM36 28.8C36 22.176 41.376 16.8 48 16.8C54.624 16.8 60 22.176 60 28.8C60 35.424 54.624 40.8 48 40.8C41.376 40.8 36 35.424 36 28.8ZM67.2 74.4C60.576 74.4 55.2 69.024 55.2 62.4C55.2 55.776 60.576 50.4 67.2 50.4C73.824 50.4 79.2 55.776 79.2 62.4C79.2 69.024 73.824 74.4 67.2 74.4Z" fill="#59645F" fill-opacity="0.9"/>
</svg>
