<svg width="16" height="16" viewBox="0 0 16 16" fill="none" xmlns="http://www.w3.org/2000/svg">
<path fill-rule="evenodd" clip-rule="evenodd" d="M6.52118 1.52079e-07H9.47882C10.462 -6.5544e-06 11.2471 -1.19055e-05 11.8812 0.0517943C12.5315 0.104929 13.0909 0.216396 13.6046 0.478165C14.4301 0.898771 15.1012 1.56991 15.5218 2.3954C15.7836 2.90915 15.8951 3.46851 15.9482 4.11885C16 4.75292 16 5.538 16 6.52116V9.47884C16 10.462 16 11.2471 15.9482 11.8812C15.8951 12.5315 15.7836 13.0909 15.5218 13.6046C15.1012 14.4301 14.4301 15.1012 13.6046 15.5218C13.0909 15.7836 12.5315 15.8951 11.8812 15.9482C11.2471 16 10.462 16 9.47884 16H6.52116C5.538 16 4.75292 16 4.11885 15.9482C3.46851 15.8951 2.90915 15.7836 2.3954 15.5218C1.56991 15.1012 0.898771 14.4301 0.478165 13.6046C0.216396 13.0909 0.104929 12.5315 0.0517943 11.8812C-1.19055e-05 11.2471 -6.5544e-06 10.462 1.52079e-07 9.47882V6.52118C-6.5544e-06 5.53801 -1.19055e-05 4.75292 0.0517943 4.11885C0.104929 3.46851 0.216396 2.90915 0.478165 2.3954C0.898771 1.56991 1.56991 0.898771 2.3954 0.478165C2.90915 0.216396 3.46851 0.104929 4.11885 0.0517943C4.75292 -1.19055e-05 5.53801 -6.5544e-06 6.52118 1.52079e-07ZM4.24494 1.59504C3.69035 1.64035 3.35744 1.72577 3.09835 1.85779C2.56421 2.12994 2.12994 2.56421 1.85779 3.09835C1.72577 3.35744 1.64035 3.69035 1.59504 4.24494C1.54899 4.80856 1.54839 5.53036 1.54839 6.55484V9.44516C1.54839 10.4696 1.54899 11.1914 1.59504 11.7551C1.64035 12.3096 1.72577 12.6426 1.85779 12.9017C2.12994 13.4358 2.56421 13.8701 3.09835 14.1422C3.35744 14.2742 3.69035 14.3596 4.24494 14.405C4.80856 14.451 5.53036 14.4516 6.55484 14.4516H9.44516C10.4696 14.4516 11.1914 14.451 11.7551 14.405C12.3096 14.3596 12.6426 14.2742 12.9017 14.1422C13.4358 13.8701 13.8701 13.4358 14.1422 12.9017C14.2742 12.6426 14.3596 12.3096 14.405 11.7551C14.451 11.1914 14.4516 10.4696 14.4516 9.44516V6.55484C14.4516 5.53036 14.451 4.80856 14.405 4.24494C14.3596 3.69035 14.2742 3.35744 14.1422 3.09835C13.8701 2.56421 13.4358 2.12994 12.9017 1.85779C12.6426 1.72577 12.3096 1.64035 11.7551 1.59504C11.1914 1.54899 10.4696 1.54839 9.44516 1.54839H6.55484C5.53036 1.54839 4.80856 1.54899 4.24494 1.59504Z" fill="#718096"/>
<path fill-rule="evenodd" clip-rule="evenodd" d="M3 8.00001C3 5.23853 5.23853 3 8.00001 3C10.7614 3 13 5.23853 13 8.00001C13 10.7615 10.7617 13 8.00015 13C5.23873 13 3 10.7615 3 8.00001ZM8.00001 4.0741C5.83174 4.0741 4.0741 5.83174 4.0741 8.00001C4.0741 10.1683 5.83188 11.9259 8.00015 11.9259C10.1684 11.9259 11.9259 10.1683 11.9259 8.00001C11.9259 5.83174 10.1682 4.0741 8.00001 4.0741Z" fill="#A0AEC0"/>
<path fill-rule="evenodd" clip-rule="evenodd" d="M7.04474 3.53295C7.27827 3.24125 7.59973 3 7.99971 3C8.39966 3 8.72113 3.24123 8.9547 3.5329C9.18898 3.82545 9.37771 4.21796 9.52637 4.65676C9.82507 5.53844 10 6.72055 10 8.00001C10 9.27946 9.82513 10.4616 9.52647 11.3432C9.37783 11.782 9.18912 12.1745 8.95484 12.4671C8.72127 12.7588 8.3998 13 7.99984 13C7.59988 13 7.27842 12.7588 7.04489 12.4671C6.81065 12.1745 6.62198 11.782 6.47338 11.3432C6.1748 10.4615 6 9.27944 6 8.00001C6 6.72061 6.17475 5.53852 6.47328 4.65685C6.62186 4.21806 6.81051 3.82553 7.04474 3.53295ZM7.38896 5.03155C7.14056 5.76514 6.97705 6.81453 6.97705 8.00001C6.97705 9.18548 7.14061 10.2349 7.38904 10.9684C7.51394 11.3373 7.65094 11.5983 7.77832 11.7574C7.9064 11.9174 7.9825 11.9259 7.99984 11.9259C8.01722 11.9259 8.09336 11.9174 8.22147 11.7574C8.34888 11.5983 8.48591 11.3372 8.61084 10.9684C8.85933 10.2348 9.02295 9.18546 9.02295 8.00001C9.02295 6.81459 8.85929 5.76523 8.61076 5.03164C8.48581 4.66281 8.34876 4.40175 8.22134 4.24263C8.0932 4.08263 8.01706 4.0741 7.99971 4.0741C7.98236 4.0741 7.90625 4.08261 7.77819 4.24258C7.65082 4.40167 7.51384 4.66272 7.38896 5.03155Z" fill="#A0AEC0"/>
<path fill-rule="evenodd" clip-rule="evenodd" d="M3 8C3 7.72386 3.24044 7.5 3.53705 7.5H12.463C12.7596 7.5 13 7.72386 13 8C13 8.27614 12.7596 8.5 12.463 8.5H3.53705C3.24044 8.5 3 8.27614 3 8Z" fill="#A0AEC0"/>
</svg>
