<svg width="1026" height="400" viewBox="0 0 1026 400" fill="none" xmlns="http://www.w3.org/2000/svg">
<g clip-path="url(#clip0_24059_57493)">
<rect width="1026" height="400" rx="24" fill="white" style="fill:white;fill-opacity:1;"/>
<rect width="1440" height="1024" transform="translate(-27)" fill="white" style="fill:white;fill-opacity:1;"/>
<circle cx="4.5" cy="27.5" r="1.5" fill="#EBEBF1" style="fill:#EBEBF1;fill:color(display-p3 0.9222 0.9222 0.9458);fill-opacity:1;"/>
<circle cx="55.5" cy="27.5" r="1.5" fill="#EBEBF1" style="fill:#EBEBF1;fill:color(display-p3 0.9222 0.9222 0.9458);fill-opacity:1;"/>
<circle cx="106.5" cy="27.5" r="1.5" fill="#EBEBF1" style="fill:#EBEBF1;fill:color(display-p3 0.9222 0.9222 0.9458);fill-opacity:1;"/>
<circle cx="157.5" cy="27.5" r="1.5" fill="#EBEBF1" style="fill:#EBEBF1;fill:color(display-p3 0.9222 0.9222 0.9458);fill-opacity:1;"/>
<circle cx="208.5" cy="27.5" r="1.5" fill="#EBEBF1" style="fill:#EBEBF1;fill:color(display-p3 0.9222 0.9222 0.9458);fill-opacity:1;"/>
<circle cx="259.5" cy="27.5" r="1.5" fill="#EBEBF1" style="fill:#EBEBF1;fill:color(display-p3 0.9222 0.9222 0.9458);fill-opacity:1;"/>
<circle cx="310.5" cy="27.5" r="1.5" fill="#EBEBF1" style="fill:#EBEBF1;fill:color(display-p3 0.9222 0.9222 0.9458);fill-opacity:1;"/>
<circle cx="361.5" cy="27.5" r="1.5" fill="#EBEBF1" style="fill:#EBEBF1;fill:color(display-p3 0.9222 0.9222 0.9458);fill-opacity:1;"/>
<circle cx="412.5" cy="27.5" r="1.5" fill="#EBEBF1" style="fill:#EBEBF1;fill:color(display-p3 0.9222 0.9222 0.9458);fill-opacity:1;"/>
<circle cx="463.5" cy="27.5" r="1.5" fill="#EBEBF1" style="fill:#EBEBF1;fill:color(display-p3 0.9222 0.9222 0.9458);fill-opacity:1;"/>
<circle cx="514.5" cy="27.5" r="1.5" fill="#EBEBF1" style="fill:#EBEBF1;fill:color(display-p3 0.9222 0.9222 0.9458);fill-opacity:1;"/>
<circle cx="565.5" cy="27.5" r="1.5" fill="#EBEBF1" style="fill:#EBEBF1;fill:color(display-p3 0.9222 0.9222 0.9458);fill-opacity:1;"/>
<circle cx="616.5" cy="27.5" r="1.5" fill="#EBEBF1" style="fill:#EBEBF1;fill:color(display-p3 0.9222 0.9222 0.9458);fill-opacity:1;"/>
<circle cx="667.5" cy="27.5" r="1.5" fill="#EBEBF1" style="fill:#EBEBF1;fill:color(display-p3 0.9222 0.9222 0.9458);fill-opacity:1;"/>
<circle cx="718.5" cy="27.5" r="1.5" fill="#EBEBF1" style="fill:#EBEBF1;fill:color(display-p3 0.9222 0.9222 0.9458);fill-opacity:1;"/>
<circle cx="769.5" cy="27.5" r="1.5" fill="#EBEBF1" style="fill:#EBEBF1;fill:color(display-p3 0.9222 0.9222 0.9458);fill-opacity:1;"/>
<circle cx="820.5" cy="27.5" r="1.5" fill="#EBEBF1" style="fill:#EBEBF1;fill:color(display-p3 0.9222 0.9222 0.9458);fill-opacity:1;"/>
<circle cx="871.5" cy="27.5" r="1.5" fill="#EBEBF1" style="fill:#EBEBF1;fill:color(display-p3 0.9222 0.9222 0.9458);fill-opacity:1;"/>
<circle cx="922.5" cy="27.5" r="1.5" fill="#EBEBF1" style="fill:#EBEBF1;fill:color(display-p3 0.9222 0.9222 0.9458);fill-opacity:1;"/>
<circle cx="973.5" cy="27.5" r="1.5" fill="#EBEBF1" style="fill:#EBEBF1;fill:color(display-p3 0.9222 0.9222 0.9458);fill-opacity:1;"/>
<circle cx="1024.5" cy="27.5" r="1.5" fill="#EBEBF1" style="fill:#EBEBF1;fill:color(display-p3 0.9222 0.9222 0.9458);fill-opacity:1;"/>
<circle cx="4.5" cy="78.5" r="1.5" fill="#EBEBF1" style="fill:#EBEBF1;fill:color(display-p3 0.9222 0.9222 0.9458);fill-opacity:1;"/>
<circle cx="55.5" cy="78.5" r="1.5" fill="#EBEBF1" style="fill:#EBEBF1;fill:color(display-p3 0.9222 0.9222 0.9458);fill-opacity:1;"/>
<circle cx="106.5" cy="78.5" r="1.5" fill="#EBEBF1" style="fill:#EBEBF1;fill:color(display-p3 0.9222 0.9222 0.9458);fill-opacity:1;"/>
<circle cx="157.5" cy="78.5" r="1.5" fill="#EBEBF1" style="fill:#EBEBF1;fill:color(display-p3 0.9222 0.9222 0.9458);fill-opacity:1;"/>
<circle cx="208.5" cy="78.5" r="1.5" fill="#EBEBF1" style="fill:#EBEBF1;fill:color(display-p3 0.9222 0.9222 0.9458);fill-opacity:1;"/>
<circle cx="259.5" cy="78.5" r="1.5" fill="#EBEBF1" style="fill:#EBEBF1;fill:color(display-p3 0.9222 0.9222 0.9458);fill-opacity:1;"/>
<circle cx="310.5" cy="78.5" r="1.5" fill="#EBEBF1" style="fill:#EBEBF1;fill:color(display-p3 0.9222 0.9222 0.9458);fill-opacity:1;"/>
<circle cx="361.5" cy="78.5" r="1.5" fill="#EBEBF1" style="fill:#EBEBF1;fill:color(display-p3 0.9222 0.9222 0.9458);fill-opacity:1;"/>
<circle cx="412.5" cy="78.5" r="1.5" fill="#EBEBF1" style="fill:#EBEBF1;fill:color(display-p3 0.9222 0.9222 0.9458);fill-opacity:1;"/>
<circle cx="463.5" cy="78.5" r="1.5" fill="#EBEBF1" style="fill:#EBEBF1;fill:color(display-p3 0.9222 0.9222 0.9458);fill-opacity:1;"/>
<circle cx="514.5" cy="78.5" r="1.5" fill="#EBEBF1" style="fill:#EBEBF1;fill:color(display-p3 0.9222 0.9222 0.9458);fill-opacity:1;"/>
<circle cx="565.5" cy="78.5" r="1.5" fill="#EBEBF1" style="fill:#EBEBF1;fill:color(display-p3 0.9222 0.9222 0.9458);fill-opacity:1;"/>
<circle cx="616.5" cy="78.5" r="1.5" fill="#EBEBF1" style="fill:#EBEBF1;fill:color(display-p3 0.9222 0.9222 0.9458);fill-opacity:1;"/>
<circle cx="667.5" cy="78.5" r="1.5" fill="#EBEBF1" style="fill:#EBEBF1;fill:color(display-p3 0.9222 0.9222 0.9458);fill-opacity:1;"/>
<circle cx="718.5" cy="78.5" r="1.5" fill="#EBEBF1" style="fill:#EBEBF1;fill:color(display-p3 0.9222 0.9222 0.9458);fill-opacity:1;"/>
<circle cx="769.5" cy="78.5" r="1.5" fill="#EBEBF1" style="fill:#EBEBF1;fill:color(display-p3 0.9222 0.9222 0.9458);fill-opacity:1;"/>
<circle cx="820.5" cy="78.5" r="1.5" fill="#EBEBF1" style="fill:#EBEBF1;fill:color(display-p3 0.9222 0.9222 0.9458);fill-opacity:1;"/>
<circle cx="871.5" cy="78.5" r="1.5" fill="#EBEBF1" style="fill:#EBEBF1;fill:color(display-p3 0.9222 0.9222 0.9458);fill-opacity:1;"/>
<circle cx="922.5" cy="78.5" r="1.5" fill="#EBEBF1" style="fill:#EBEBF1;fill:color(display-p3 0.9222 0.9222 0.9458);fill-opacity:1;"/>
<circle cx="973.5" cy="78.5" r="1.5" fill="#EBEBF1" style="fill:#EBEBF1;fill:color(display-p3 0.9222 0.9222 0.9458);fill-opacity:1;"/>
<circle cx="1024.5" cy="78.5" r="1.5" fill="#EBEBF1" style="fill:#EBEBF1;fill:color(display-p3 0.9222 0.9222 0.9458);fill-opacity:1;"/>
<circle cx="4.5" cy="129.5" r="1.5" fill="#EBEBF1" style="fill:#EBEBF1;fill:color(display-p3 0.9222 0.9222 0.9458);fill-opacity:1;"/>
<circle cx="55.5" cy="129.5" r="1.5" fill="#EBEBF1" style="fill:#EBEBF1;fill:color(display-p3 0.9222 0.9222 0.9458);fill-opacity:1;"/>
<circle cx="106.5" cy="129.5" r="1.5" fill="#EBEBF1" style="fill:#EBEBF1;fill:color(display-p3 0.9222 0.9222 0.9458);fill-opacity:1;"/>
<circle cx="157.5" cy="129.5" r="1.5" fill="#EBEBF1" style="fill:#EBEBF1;fill:color(display-p3 0.9222 0.9222 0.9458);fill-opacity:1;"/>
<circle cx="208.5" cy="129.5" r="1.5" fill="#EBEBF1" style="fill:#EBEBF1;fill:color(display-p3 0.9222 0.9222 0.9458);fill-opacity:1;"/>
<circle cx="259.5" cy="129.5" r="1.5" fill="#EBEBF1" style="fill:#EBEBF1;fill:color(display-p3 0.9222 0.9222 0.9458);fill-opacity:1;"/>
<circle cx="310.5" cy="129.5" r="1.5" fill="#EBEBF1" style="fill:#EBEBF1;fill:color(display-p3 0.9222 0.9222 0.9458);fill-opacity:1;"/>
<circle cx="361.5" cy="129.5" r="1.5" fill="#EBEBF1" style="fill:#EBEBF1;fill:color(display-p3 0.9222 0.9222 0.9458);fill-opacity:1;"/>
<circle cx="412.5" cy="129.5" r="1.5" fill="#EBEBF1" style="fill:#EBEBF1;fill:color(display-p3 0.9222 0.9222 0.9458);fill-opacity:1;"/>
<circle cx="463.5" cy="129.5" r="1.5" fill="#EBEBF1" style="fill:#EBEBF1;fill:color(display-p3 0.9222 0.9222 0.9458);fill-opacity:1;"/>
<circle cx="514.5" cy="129.5" r="1.5" fill="#EBEBF1" style="fill:#EBEBF1;fill:color(display-p3 0.9222 0.9222 0.9458);fill-opacity:1;"/>
<circle cx="565.5" cy="129.5" r="1.5" fill="#EBEBF1" style="fill:#EBEBF1;fill:color(display-p3 0.9222 0.9222 0.9458);fill-opacity:1;"/>
<circle cx="616.5" cy="129.5" r="1.5" fill="#EBEBF1" style="fill:#EBEBF1;fill:color(display-p3 0.9222 0.9222 0.9458);fill-opacity:1;"/>
<circle cx="667.5" cy="129.5" r="1.5" fill="#EBEBF1" style="fill:#EBEBF1;fill:color(display-p3 0.9222 0.9222 0.9458);fill-opacity:1;"/>
<circle cx="718.5" cy="129.5" r="1.5" fill="#EBEBF1" style="fill:#EBEBF1;fill:color(display-p3 0.9222 0.9222 0.9458);fill-opacity:1;"/>
<circle cx="769.5" cy="129.5" r="1.5" fill="#EBEBF1" style="fill:#EBEBF1;fill:color(display-p3 0.9222 0.9222 0.9458);fill-opacity:1;"/>
<circle cx="820.5" cy="129.5" r="1.5" fill="#EBEBF1" style="fill:#EBEBF1;fill:color(display-p3 0.9222 0.9222 0.9458);fill-opacity:1;"/>
<circle cx="871.5" cy="129.5" r="1.5" fill="#EBEBF1" style="fill:#EBEBF1;fill:color(display-p3 0.9222 0.9222 0.9458);fill-opacity:1;"/>
<circle cx="922.5" cy="129.5" r="1.5" fill="#EBEBF1" style="fill:#EBEBF1;fill:color(display-p3 0.9222 0.9222 0.9458);fill-opacity:1;"/>
<circle cx="973.5" cy="129.5" r="1.5" fill="#EBEBF1" style="fill:#EBEBF1;fill:color(display-p3 0.9222 0.9222 0.9458);fill-opacity:1;"/>
<circle cx="1024.5" cy="129.5" r="1.5" fill="#EBEBF1" style="fill:#EBEBF1;fill:color(display-p3 0.9222 0.9222 0.9458);fill-opacity:1;"/>
<circle cx="4.5" cy="180.5" r="1.5" fill="#EBEBF1" style="fill:#EBEBF1;fill:color(display-p3 0.9222 0.9222 0.9458);fill-opacity:1;"/>
<circle cx="55.5" cy="180.5" r="1.5" fill="#EBEBF1" style="fill:#EBEBF1;fill:color(display-p3 0.9222 0.9222 0.9458);fill-opacity:1;"/>
<circle cx="106.5" cy="180.5" r="1.5" fill="#EBEBF1" style="fill:#EBEBF1;fill:color(display-p3 0.9222 0.9222 0.9458);fill-opacity:1;"/>
<circle cx="157.5" cy="180.5" r="1.5" fill="#EBEBF1" style="fill:#EBEBF1;fill:color(display-p3 0.9222 0.9222 0.9458);fill-opacity:1;"/>
<circle cx="208.5" cy="180.5" r="1.5" fill="#EBEBF1" style="fill:#EBEBF1;fill:color(display-p3 0.9222 0.9222 0.9458);fill-opacity:1;"/>
<circle cx="259.5" cy="180.5" r="1.5" fill="#EBEBF1" style="fill:#EBEBF1;fill:color(display-p3 0.9222 0.9222 0.9458);fill-opacity:1;"/>
<circle cx="310.5" cy="180.5" r="1.5" fill="#EBEBF1" style="fill:#EBEBF1;fill:color(display-p3 0.9222 0.9222 0.9458);fill-opacity:1;"/>
<circle cx="361.5" cy="180.5" r="1.5" fill="#EBEBF1" style="fill:#EBEBF1;fill:color(display-p3 0.9222 0.9222 0.9458);fill-opacity:1;"/>
<circle cx="412.5" cy="180.5" r="1.5" fill="#EBEBF1" style="fill:#EBEBF1;fill:color(display-p3 0.9222 0.9222 0.9458);fill-opacity:1;"/>
<circle cx="463.5" cy="180.5" r="1.5" fill="#EBEBF1" style="fill:#EBEBF1;fill:color(display-p3 0.9222 0.9222 0.9458);fill-opacity:1;"/>
<circle cx="514.5" cy="180.5" r="1.5" fill="#EBEBF1" style="fill:#EBEBF1;fill:color(display-p3 0.9222 0.9222 0.9458);fill-opacity:1;"/>
<circle cx="565.5" cy="180.5" r="1.5" fill="#EBEBF1" style="fill:#EBEBF1;fill:color(display-p3 0.9222 0.9222 0.9458);fill-opacity:1;"/>
<circle cx="616.5" cy="180.5" r="1.5" fill="#EBEBF1" style="fill:#EBEBF1;fill:color(display-p3 0.9222 0.9222 0.9458);fill-opacity:1;"/>
<circle cx="667.5" cy="180.5" r="1.5" fill="#EBEBF1" style="fill:#EBEBF1;fill:color(display-p3 0.9222 0.9222 0.9458);fill-opacity:1;"/>
<circle cx="718.5" cy="180.5" r="1.5" fill="#EBEBF1" style="fill:#EBEBF1;fill:color(display-p3 0.9222 0.9222 0.9458);fill-opacity:1;"/>
<circle cx="769.5" cy="180.5" r="1.5" fill="#EBEBF1" style="fill:#EBEBF1;fill:color(display-p3 0.9222 0.9222 0.9458);fill-opacity:1;"/>
<circle cx="820.5" cy="180.5" r="1.5" fill="#EBEBF1" style="fill:#EBEBF1;fill:color(display-p3 0.9222 0.9222 0.9458);fill-opacity:1;"/>
<circle cx="871.5" cy="180.5" r="1.5" fill="#EBEBF1" style="fill:#EBEBF1;fill:color(display-p3 0.9222 0.9222 0.9458);fill-opacity:1;"/>
<circle cx="922.5" cy="180.5" r="1.5" fill="#EBEBF1" style="fill:#EBEBF1;fill:color(display-p3 0.9222 0.9222 0.9458);fill-opacity:1;"/>
<circle cx="973.5" cy="180.5" r="1.5" fill="#EBEBF1" style="fill:#EBEBF1;fill:color(display-p3 0.9222 0.9222 0.9458);fill-opacity:1;"/>
<circle cx="1024.5" cy="180.5" r="1.5" fill="#EBEBF1" style="fill:#EBEBF1;fill:color(display-p3 0.9222 0.9222 0.9458);fill-opacity:1;"/>
<circle cx="4.5" cy="231.5" r="1.5" fill="#EBEBF1" style="fill:#EBEBF1;fill:color(display-p3 0.9222 0.9222 0.9458);fill-opacity:1;"/>
<circle cx="55.5" cy="231.5" r="1.5" fill="#EBEBF1" style="fill:#EBEBF1;fill:color(display-p3 0.9222 0.9222 0.9458);fill-opacity:1;"/>
<circle cx="106.5" cy="231.5" r="1.5" fill="#EBEBF1" style="fill:#EBEBF1;fill:color(display-p3 0.9222 0.9222 0.9458);fill-opacity:1;"/>
<circle cx="157.5" cy="231.5" r="1.5" fill="#EBEBF1" style="fill:#EBEBF1;fill:color(display-p3 0.9222 0.9222 0.9458);fill-opacity:1;"/>
<circle cx="208.5" cy="231.5" r="1.5" fill="#EBEBF1" style="fill:#EBEBF1;fill:color(display-p3 0.9222 0.9222 0.9458);fill-opacity:1;"/>
<circle cx="259.5" cy="231.5" r="1.5" fill="#EBEBF1" style="fill:#EBEBF1;fill:color(display-p3 0.9222 0.9222 0.9458);fill-opacity:1;"/>
<circle cx="310.5" cy="231.5" r="1.5" fill="#EBEBF1" style="fill:#EBEBF1;fill:color(display-p3 0.9222 0.9222 0.9458);fill-opacity:1;"/>
<circle cx="361.5" cy="231.5" r="1.5" fill="#EBEBF1" style="fill:#EBEBF1;fill:color(display-p3 0.9222 0.9222 0.9458);fill-opacity:1;"/>
<circle cx="412.5" cy="231.5" r="1.5" fill="#EBEBF1" style="fill:#EBEBF1;fill:color(display-p3 0.9222 0.9222 0.9458);fill-opacity:1;"/>
<circle cx="463.5" cy="231.5" r="1.5" fill="#EBEBF1" style="fill:#EBEBF1;fill:color(display-p3 0.9222 0.9222 0.9458);fill-opacity:1;"/>
<circle cx="514.5" cy="231.5" r="1.5" fill="#EBEBF1" style="fill:#EBEBF1;fill:color(display-p3 0.9222 0.9222 0.9458);fill-opacity:1;"/>
<circle cx="565.5" cy="231.5" r="1.5" fill="#EBEBF1" style="fill:#EBEBF1;fill:color(display-p3 0.9222 0.9222 0.9458);fill-opacity:1;"/>
<circle cx="616.5" cy="231.5" r="1.5" fill="#EBEBF1" style="fill:#EBEBF1;fill:color(display-p3 0.9222 0.9222 0.9458);fill-opacity:1;"/>
<circle cx="667.5" cy="231.5" r="1.5" fill="#EBEBF1" style="fill:#EBEBF1;fill:color(display-p3 0.9222 0.9222 0.9458);fill-opacity:1;"/>
<circle cx="718.5" cy="231.5" r="1.5" fill="#EBEBF1" style="fill:#EBEBF1;fill:color(display-p3 0.9222 0.9222 0.9458);fill-opacity:1;"/>
<circle cx="769.5" cy="231.5" r="1.5" fill="#EBEBF1" style="fill:#EBEBF1;fill:color(display-p3 0.9222 0.9222 0.9458);fill-opacity:1;"/>
<circle cx="820.5" cy="231.5" r="1.5" fill="#EBEBF1" style="fill:#EBEBF1;fill:color(display-p3 0.9222 0.9222 0.9458);fill-opacity:1;"/>
<circle cx="871.5" cy="231.5" r="1.5" fill="#EBEBF1" style="fill:#EBEBF1;fill:color(display-p3 0.9222 0.9222 0.9458);fill-opacity:1;"/>
<circle cx="922.5" cy="231.5" r="1.5" fill="#EBEBF1" style="fill:#EBEBF1;fill:color(display-p3 0.9222 0.9222 0.9458);fill-opacity:1;"/>
<circle cx="973.5" cy="231.5" r="1.5" fill="#EBEBF1" style="fill:#EBEBF1;fill:color(display-p3 0.9222 0.9222 0.9458);fill-opacity:1;"/>
<circle cx="1024.5" cy="231.5" r="1.5" fill="#EBEBF1" style="fill:#EBEBF1;fill:color(display-p3 0.9222 0.9222 0.9458);fill-opacity:1;"/>
<circle cx="4.5" cy="282.5" r="1.5" fill="#EBEBF1" style="fill:#EBEBF1;fill:color(display-p3 0.9222 0.9222 0.9458);fill-opacity:1;"/>
<circle cx="55.5" cy="282.5" r="1.5" fill="#EBEBF1" style="fill:#EBEBF1;fill:color(display-p3 0.9222 0.9222 0.9458);fill-opacity:1;"/>
<circle cx="106.5" cy="282.5" r="1.5" fill="#EBEBF1" style="fill:#EBEBF1;fill:color(display-p3 0.9222 0.9222 0.9458);fill-opacity:1;"/>
<circle cx="157.5" cy="282.5" r="1.5" fill="#EBEBF1" style="fill:#EBEBF1;fill:color(display-p3 0.9222 0.9222 0.9458);fill-opacity:1;"/>
<circle cx="208.5" cy="282.5" r="1.5" fill="#EBEBF1" style="fill:#EBEBF1;fill:color(display-p3 0.9222 0.9222 0.9458);fill-opacity:1;"/>
<circle cx="259.5" cy="282.5" r="1.5" fill="#EBEBF1" style="fill:#EBEBF1;fill:color(display-p3 0.9222 0.9222 0.9458);fill-opacity:1;"/>
<circle cx="310.5" cy="282.5" r="1.5" fill="#EBEBF1" style="fill:#EBEBF1;fill:color(display-p3 0.9222 0.9222 0.9458);fill-opacity:1;"/>
<circle cx="361.5" cy="282.5" r="1.5" fill="#EBEBF1" style="fill:#EBEBF1;fill:color(display-p3 0.9222 0.9222 0.9458);fill-opacity:1;"/>
<circle cx="412.5" cy="282.5" r="1.5" fill="#EBEBF1" style="fill:#EBEBF1;fill:color(display-p3 0.9222 0.9222 0.9458);fill-opacity:1;"/>
<circle cx="463.5" cy="282.5" r="1.5" fill="#EBEBF1" style="fill:#EBEBF1;fill:color(display-p3 0.9222 0.9222 0.9458);fill-opacity:1;"/>
<circle cx="514.5" cy="282.5" r="1.5" fill="#EBEBF1" style="fill:#EBEBF1;fill:color(display-p3 0.9222 0.9222 0.9458);fill-opacity:1;"/>
<circle cx="565.5" cy="282.5" r="1.5" fill="#EBEBF1" style="fill:#EBEBF1;fill:color(display-p3 0.9222 0.9222 0.9458);fill-opacity:1;"/>
<circle cx="616.5" cy="282.5" r="1.5" fill="#EBEBF1" style="fill:#EBEBF1;fill:color(display-p3 0.9222 0.9222 0.9458);fill-opacity:1;"/>
<circle cx="667.5" cy="282.5" r="1.5" fill="#EBEBF1" style="fill:#EBEBF1;fill:color(display-p3 0.9222 0.9222 0.9458);fill-opacity:1;"/>
<circle cx="718.5" cy="282.5" r="1.5" fill="#EBEBF1" style="fill:#EBEBF1;fill:color(display-p3 0.9222 0.9222 0.9458);fill-opacity:1;"/>
<circle cx="769.5" cy="282.5" r="1.5" fill="#EBEBF1" style="fill:#EBEBF1;fill:color(display-p3 0.9222 0.9222 0.9458);fill-opacity:1;"/>
<circle cx="820.5" cy="282.5" r="1.5" fill="#EBEBF1" style="fill:#EBEBF1;fill:color(display-p3 0.9222 0.9222 0.9458);fill-opacity:1;"/>
<circle cx="871.5" cy="282.5" r="1.5" fill="#EBEBF1" style="fill:#EBEBF1;fill:color(display-p3 0.9222 0.9222 0.9458);fill-opacity:1;"/>
<circle cx="922.5" cy="282.5" r="1.5" fill="#EBEBF1" style="fill:#EBEBF1;fill:color(display-p3 0.9222 0.9222 0.9458);fill-opacity:1;"/>
<circle cx="973.5" cy="282.5" r="1.5" fill="#EBEBF1" style="fill:#EBEBF1;fill:color(display-p3 0.9222 0.9222 0.9458);fill-opacity:1;"/>
<circle cx="1024.5" cy="282.5" r="1.5" fill="#EBEBF1" style="fill:#EBEBF1;fill:color(display-p3 0.9222 0.9222 0.9458);fill-opacity:1;"/>
<circle cx="4.5" cy="333.5" r="1.5" fill="#EBEBF1" style="fill:#EBEBF1;fill:color(display-p3 0.9222 0.9222 0.9458);fill-opacity:1;"/>
<circle cx="55.5" cy="333.5" r="1.5" fill="#EBEBF1" style="fill:#EBEBF1;fill:color(display-p3 0.9222 0.9222 0.9458);fill-opacity:1;"/>
<circle cx="106.5" cy="333.5" r="1.5" fill="#EBEBF1" style="fill:#EBEBF1;fill:color(display-p3 0.9222 0.9222 0.9458);fill-opacity:1;"/>
<circle cx="157.5" cy="333.5" r="1.5" fill="#EBEBF1" style="fill:#EBEBF1;fill:color(display-p3 0.9222 0.9222 0.9458);fill-opacity:1;"/>
<circle cx="208.5" cy="333.5" r="1.5" fill="#EBEBF1" style="fill:#EBEBF1;fill:color(display-p3 0.9222 0.9222 0.9458);fill-opacity:1;"/>
<circle cx="259.5" cy="333.5" r="1.5" fill="#EBEBF1" style="fill:#EBEBF1;fill:color(display-p3 0.9222 0.9222 0.9458);fill-opacity:1;"/>
<circle cx="310.5" cy="333.5" r="1.5" fill="#EBEBF1" style="fill:#EBEBF1;fill:color(display-p3 0.9222 0.9222 0.9458);fill-opacity:1;"/>
<circle cx="361.5" cy="333.5" r="1.5" fill="#EBEBF1" style="fill:#EBEBF1;fill:color(display-p3 0.9222 0.9222 0.9458);fill-opacity:1;"/>
<circle cx="412.5" cy="333.5" r="1.5" fill="#EBEBF1" style="fill:#EBEBF1;fill:color(display-p3 0.9222 0.9222 0.9458);fill-opacity:1;"/>
<circle cx="463.5" cy="333.5" r="1.5" fill="#EBEBF1" style="fill:#EBEBF1;fill:color(display-p3 0.9222 0.9222 0.9458);fill-opacity:1;"/>
<circle cx="514.5" cy="333.5" r="1.5" fill="#EBEBF1" style="fill:#EBEBF1;fill:color(display-p3 0.9222 0.9222 0.9458);fill-opacity:1;"/>
<circle cx="565.5" cy="333.5" r="1.5" fill="#EBEBF1" style="fill:#EBEBF1;fill:color(display-p3 0.9222 0.9222 0.9458);fill-opacity:1;"/>
<circle cx="616.5" cy="333.5" r="1.5" fill="#EBEBF1" style="fill:#EBEBF1;fill:color(display-p3 0.9222 0.9222 0.9458);fill-opacity:1;"/>
<circle cx="667.5" cy="333.5" r="1.5" fill="#EBEBF1" style="fill:#EBEBF1;fill:color(display-p3 0.9222 0.9222 0.9458);fill-opacity:1;"/>
<circle cx="718.5" cy="333.5" r="1.5" fill="#EBEBF1" style="fill:#EBEBF1;fill:color(display-p3 0.9222 0.9222 0.9458);fill-opacity:1;"/>
<circle cx="769.5" cy="333.5" r="1.5" fill="#EBEBF1" style="fill:#EBEBF1;fill:color(display-p3 0.9222 0.9222 0.9458);fill-opacity:1;"/>
<circle cx="820.5" cy="333.5" r="1.5" fill="#EBEBF1" style="fill:#EBEBF1;fill:color(display-p3 0.9222 0.9222 0.9458);fill-opacity:1;"/>
<circle cx="871.5" cy="333.5" r="1.5" fill="#EBEBF1" style="fill:#EBEBF1;fill:color(display-p3 0.9222 0.9222 0.9458);fill-opacity:1;"/>
<circle cx="922.5" cy="333.5" r="1.5" fill="#EBEBF1" style="fill:#EBEBF1;fill:color(display-p3 0.9222 0.9222 0.9458);fill-opacity:1;"/>
<circle cx="973.5" cy="333.5" r="1.5" fill="#EBEBF1" style="fill:#EBEBF1;fill:color(display-p3 0.9222 0.9222 0.9458);fill-opacity:1;"/>
<circle cx="1024.5" cy="333.5" r="1.5" fill="#EBEBF1" style="fill:#EBEBF1;fill:color(display-p3 0.9222 0.9222 0.9458);fill-opacity:1;"/>
<circle cx="4.5" cy="384.5" r="1.5" fill="#EBEBF1" style="fill:#EBEBF1;fill:color(display-p3 0.9222 0.9222 0.9458);fill-opacity:1;"/>
<circle cx="55.5" cy="384.5" r="1.5" fill="#EBEBF1" style="fill:#EBEBF1;fill:color(display-p3 0.9222 0.9222 0.9458);fill-opacity:1;"/>
<circle cx="106.5" cy="384.5" r="1.5" fill="#EBEBF1" style="fill:#EBEBF1;fill:color(display-p3 0.9222 0.9222 0.9458);fill-opacity:1;"/>
<circle cx="157.5" cy="384.5" r="1.5" fill="#EBEBF1" style="fill:#EBEBF1;fill:color(display-p3 0.9222 0.9222 0.9458);fill-opacity:1;"/>
<circle cx="208.5" cy="384.5" r="1.5" fill="#EBEBF1" style="fill:#EBEBF1;fill:color(display-p3 0.9222 0.9222 0.9458);fill-opacity:1;"/>
<circle cx="259.5" cy="384.5" r="1.5" fill="#EBEBF1" style="fill:#EBEBF1;fill:color(display-p3 0.9222 0.9222 0.9458);fill-opacity:1;"/>
<circle cx="310.5" cy="384.5" r="1.5" fill="#EBEBF1" style="fill:#EBEBF1;fill:color(display-p3 0.9222 0.9222 0.9458);fill-opacity:1;"/>
<circle cx="361.5" cy="384.5" r="1.5" fill="#EBEBF1" style="fill:#EBEBF1;fill:color(display-p3 0.9222 0.9222 0.9458);fill-opacity:1;"/>
<circle cx="412.5" cy="384.5" r="1.5" fill="#EBEBF1" style="fill:#EBEBF1;fill:color(display-p3 0.9222 0.9222 0.9458);fill-opacity:1;"/>
<circle cx="463.5" cy="384.5" r="1.5" fill="#EBEBF1" style="fill:#EBEBF1;fill:color(display-p3 0.9222 0.9222 0.9458);fill-opacity:1;"/>
<circle cx="514.5" cy="384.5" r="1.5" fill="#EBEBF1" style="fill:#EBEBF1;fill:color(display-p3 0.9222 0.9222 0.9458);fill-opacity:1;"/>
<circle cx="565.5" cy="384.5" r="1.5" fill="#EBEBF1" style="fill:#EBEBF1;fill:color(display-p3 0.9222 0.9222 0.9458);fill-opacity:1;"/>
<circle cx="616.5" cy="384.5" r="1.5" fill="#EBEBF1" style="fill:#EBEBF1;fill:color(display-p3 0.9222 0.9222 0.9458);fill-opacity:1;"/>
<circle cx="667.5" cy="384.5" r="1.5" fill="#EBEBF1" style="fill:#EBEBF1;fill:color(display-p3 0.9222 0.9222 0.9458);fill-opacity:1;"/>
<circle cx="718.5" cy="384.5" r="1.5" fill="#EBEBF1" style="fill:#EBEBF1;fill:color(display-p3 0.9222 0.9222 0.9458);fill-opacity:1;"/>
<circle cx="769.5" cy="384.5" r="1.5" fill="#EBEBF1" style="fill:#EBEBF1;fill:color(display-p3 0.9222 0.9222 0.9458);fill-opacity:1;"/>
<circle cx="820.5" cy="384.5" r="1.5" fill="#EBEBF1" style="fill:#EBEBF1;fill:color(display-p3 0.9222 0.9222 0.9458);fill-opacity:1;"/>
<circle cx="871.5" cy="384.5" r="1.5" fill="#EBEBF1" style="fill:#EBEBF1;fill:color(display-p3 0.9222 0.9222 0.9458);fill-opacity:1;"/>
<circle cx="922.5" cy="384.5" r="1.5" fill="#EBEBF1" style="fill:#EBEBF1;fill:color(display-p3 0.9222 0.9222 0.9458);fill-opacity:1;"/>
<circle cx="973.5" cy="384.5" r="1.5" fill="#EBEBF1" style="fill:#EBEBF1;fill:color(display-p3 0.9222 0.9222 0.9458);fill-opacity:1;"/>
<circle cx="1024.5" cy="384.5" r="1.5" fill="#EBEBF1" style="fill:#EBEBF1;fill:color(display-p3 0.9222 0.9222 0.9458);fill-opacity:1;"/>
<g opacity="0.2">
<rect x="257" y="24" width="557" height="352" rx="24" fill="#F9FAFB" style="fill:#F9FAFB;fill:color(display-p3 0.9765 0.9804 0.9843);fill-opacity:1;"/>
<rect x="257.5" y="24.5" width="556" height="351" rx="23.5" stroke="black" stroke-opacity="0.48" style="stroke:black;stroke-opacity:0.48;"/>
</g>
<path d="M487 237H608C616.284 237 623 243.716 623 252V276C623 284.284 616.284 291 608 291H487C478.716 291 472 284.284 472 276V252C472 243.716 478.716 237 487 237Z" fill="#F1F0FF" style="fill:#F1F0FF;fill:color(display-p3 0.9457 0.9424 1.0000);fill-opacity:1;"/>
<path d="M487 237H608C616.284 237 623 243.716 623 252V276C623 284.284 616.284 291 608 291H487C478.716 291 472 284.284 472 276V252C472 243.716 478.716 237 487 237Z" stroke="#473CFB" style="stroke:#473CFB;stroke:color(display-p3 0.2784 0.2353 0.9843);stroke-opacity:1;" stroke-width="2"/>
<path fill-rule="evenodd" clip-rule="evenodd" d="M497.876 252.119C498.62 251.96 499.389 251.96 500.134 252.119C500.978 252.298 501.753 252.746 502.874 253.394C502.923 253.422 502.973 253.451 503.024 253.48L506.106 255.26C506.156 255.289 506.206 255.318 506.256 255.346C507.377 255.993 508.152 256.44 508.73 257.081C509.239 257.647 509.624 258.313 509.859 259.037C510.126 259.858 510.125 260.753 510.125 262.047C510.125 262.104 510.125 262.162 510.125 262.221V265.779C510.125 265.838 510.125 265.896 510.125 265.953C510.125 267.247 510.126 268.142 509.859 268.963C509.624 269.687 509.239 270.353 508.73 270.919C508.152 271.56 507.377 272.007 506.256 272.654C506.206 272.682 506.156 272.711 506.106 272.74L503.024 274.52C502.973 274.549 502.923 274.578 502.874 274.606C501.753 275.254 500.978 275.702 500.134 275.881C499.389 276.04 498.62 276.04 497.876 275.881C497.031 275.702 496.257 275.254 495.136 274.606C495.087 274.578 495.037 274.549 494.986 274.52L491.904 272.74C491.853 272.711 491.803 272.682 491.754 272.654C490.632 272.007 489.857 271.56 489.28 270.919C488.771 270.353 488.386 269.687 488.151 268.963C487.884 268.142 487.884 267.247 487.885 265.953C487.885 265.896 487.885 265.838 487.885 265.779V262.221C487.885 262.162 487.885 262.104 487.885 262.047C487.884 260.753 487.884 259.858 488.151 259.037C488.386 258.313 488.771 257.647 489.28 257.081C489.857 256.44 490.632 255.993 491.754 255.346C491.803 255.318 491.853 255.289 491.904 255.26L494.986 253.48C495.037 253.451 495.086 253.422 495.136 253.394C496.257 252.746 497.031 252.298 497.876 252.119ZM499.682 254.244C499.236 254.149 498.774 254.149 498.327 254.244C497.862 254.342 497.402 254.594 496.072 255.361L492.99 257.141C491.66 257.909 491.212 258.182 490.894 258.535C490.589 258.874 490.358 259.274 490.217 259.709C490.07 260.161 490.057 260.685 490.057 262.221V265.779C490.057 267.315 490.07 267.839 490.217 268.291C490.358 268.726 490.589 269.126 490.894 269.465C491.212 269.818 491.66 270.091 492.99 270.859L496.072 272.639C497.402 273.406 497.862 273.658 498.327 273.756C498.774 273.851 499.236 273.851 499.682 273.756C500.147 273.658 500.608 273.406 501.937 272.639L505.02 270.859C506.349 270.091 506.797 269.818 507.115 269.465C507.421 269.126 507.652 268.726 507.793 268.291C507.94 267.839 507.952 267.315 507.952 265.779V262.221C507.952 260.685 507.94 260.161 507.793 259.709C507.652 259.274 507.421 258.874 507.115 258.535C506.797 258.182 506.349 257.909 505.02 257.141L501.937 255.361C500.608 254.594 500.147 254.342 499.682 254.244Z" fill="#718096" style="fill:#718096;fill:color(display-p3 0.4431 0.5020 0.5882);fill-opacity:1;"/>
<circle cx="499" cy="264" r="4.5" fill="#A0AEC0" style="fill:#A0AEC0;fill:color(display-p3 0.6275 0.6824 0.7529);fill-opacity:1;"/>
<path d="M524.878 269.14C524.001 269.14 523.291 268.939 522.75 268.538C522.218 268.127 521.938 267.581 521.91 266.9H523.66C523.679 267.143 523.795 267.339 524.01 267.488C524.234 267.637 524.523 267.712 524.878 267.712H525.494C525.914 267.712 526.231 267.628 526.446 267.46C526.67 267.292 526.782 267.063 526.782 266.774C526.782 266.513 526.684 266.307 526.488 266.158C526.292 265.999 525.998 265.892 525.606 265.836L524.654 265.696C523.767 265.575 523.119 265.341 522.708 264.996C522.307 264.641 522.106 264.123 522.106 263.442C522.106 262.714 522.349 262.154 522.834 261.762C523.329 261.361 524.043 261.16 524.976 261.16H525.508C526.357 261.16 527.039 261.356 527.552 261.748C528.065 262.131 528.345 262.644 528.392 263.288H526.642C526.614 263.073 526.497 262.905 526.292 262.784C526.096 262.653 525.835 262.588 525.508 262.588H524.976C524.575 262.588 524.281 262.658 524.094 262.798C523.907 262.938 523.814 263.153 523.814 263.442C523.814 263.694 523.893 263.89 524.052 264.03C524.211 264.161 524.472 264.249 524.836 264.296L525.83 264.436C526.754 264.567 527.426 264.814 527.846 265.178C528.275 265.542 528.49 266.069 528.49 266.76C528.49 267.525 528.233 268.113 527.72 268.524C527.216 268.935 526.474 269.14 525.494 269.14H524.878ZM536.787 265.57H532.083V266.116C532.083 267.208 532.596 267.754 533.623 267.754C534.015 267.754 534.327 267.689 534.561 267.558C534.794 267.418 534.943 267.217 535.009 266.956H536.745C536.614 267.619 536.264 268.151 535.695 268.552C535.125 268.944 534.43 269.14 533.609 269.14C532.955 269.14 532.386 269.014 531.901 268.762C531.425 268.51 531.056 268.16 530.795 267.712C530.533 267.255 530.403 266.723 530.403 266.116V264.184C530.403 263.577 530.533 263.05 530.795 262.602C531.056 262.145 531.429 261.79 531.915 261.538C532.4 261.286 532.965 261.16 533.609 261.16C534.253 261.16 534.813 261.286 535.289 261.538C535.765 261.79 536.133 262.145 536.395 262.602C536.656 263.05 536.787 263.577 536.787 264.184V265.57ZM532.083 264.478L535.107 264.45V264.17C535.107 263.629 534.981 263.218 534.729 262.938C534.477 262.658 534.103 262.518 533.609 262.518C533.105 262.518 532.722 262.663 532.461 262.952C532.209 263.232 532.083 263.643 532.083 264.184V264.478ZM542.885 261.16C543.716 261.16 544.369 261.417 544.845 261.93C545.321 262.443 545.559 263.153 545.559 264.058V264.618H543.725V264.184C543.725 263.689 543.594 263.307 543.333 263.036C543.081 262.765 542.731 262.63 542.283 262.63C541.835 262.63 541.485 262.77 541.233 263.05C540.981 263.321 540.855 263.699 540.855 264.184V269H539.105V261.3H540.757V262.77H540.771C540.892 262.238 541.13 261.837 541.485 261.566C541.84 261.295 542.306 261.16 542.885 261.16ZM549.264 269L546.758 261.3H548.564L549.992 265.976C550.141 266.461 550.281 266.989 550.412 267.558C550.552 266.989 550.692 266.466 550.832 265.99L552.232 261.3H554.01L551.518 269H549.264ZM558.904 260.138C558.605 260.138 558.363 260.054 558.176 259.886C557.999 259.718 557.91 259.494 557.91 259.214C557.91 258.943 557.999 258.724 558.176 258.556C558.363 258.379 558.605 258.29 558.904 258.29H559.184C559.473 258.29 559.711 258.379 559.898 258.556C560.085 258.724 560.178 258.943 560.178 259.214C560.178 259.494 560.085 259.718 559.898 259.886C559.711 260.054 559.469 260.138 559.17 260.138H558.904ZM562.362 269H555.614V267.404H558.302V262.882H555.964V261.3H559.968V267.404H562.362V269ZM567.215 269.14C566.225 269.14 565.437 268.869 564.849 268.328C564.27 267.777 563.981 267.04 563.981 266.116V264.184C563.981 263.26 564.27 262.527 564.849 261.986C565.437 261.435 566.225 261.16 567.215 261.16C568.185 261.16 568.96 261.412 569.539 261.916C570.117 262.411 570.421 263.087 570.449 263.946H568.699C568.671 263.545 568.526 263.237 568.265 263.022C568.003 262.798 567.653 262.686 567.215 262.686C566.748 262.686 566.384 262.817 566.123 263.078C565.861 263.33 565.731 263.694 565.731 264.17V266.116C565.731 266.592 565.861 266.961 566.123 267.222C566.384 267.483 566.748 267.614 567.215 267.614C567.653 267.614 568.003 267.507 568.265 267.292C568.526 267.068 568.671 266.755 568.699 266.354H570.449C570.421 267.213 570.117 267.894 569.539 268.398C568.96 268.893 568.185 269.14 567.215 269.14ZM578.759 265.57H574.055V266.116C574.055 267.208 574.569 267.754 575.595 267.754C575.987 267.754 576.3 267.689 576.533 267.558C576.767 267.418 576.916 267.217 576.981 266.956H578.717C578.587 267.619 578.237 268.151 577.667 268.552C577.098 268.944 576.403 269.14 575.581 269.14C574.928 269.14 574.359 269.014 573.873 268.762C573.397 268.51 573.029 268.16 572.767 267.712C572.506 267.255 572.375 266.723 572.375 266.116V264.184C572.375 263.577 572.506 263.05 572.767 262.602C573.029 262.145 573.402 261.79 573.887 261.538C574.373 261.286 574.937 261.16 575.581 261.16C576.225 261.16 576.785 261.286 577.261 261.538C577.737 261.79 578.106 262.145 578.367 262.602C578.629 263.05 578.759 263.577 578.759 264.184V265.57ZM574.055 264.478L577.079 264.45V264.17C577.079 263.629 576.953 263.218 576.701 262.938C576.449 262.658 576.076 262.518 575.581 262.518C575.077 262.518 574.695 262.663 574.433 262.952C574.181 263.232 574.055 263.643 574.055 264.184V264.478ZM587.014 265.192H580.91V263.568H587.014V265.192ZM592.398 269.14C591.409 269.14 590.62 268.869 590.032 268.328C589.454 267.777 589.164 267.04 589.164 266.116V264.184C589.164 263.26 589.454 262.527 590.032 261.986C590.62 261.435 591.409 261.16 592.398 261.16C593.369 261.16 594.144 261.412 594.722 261.916C595.301 262.411 595.604 263.087 595.632 263.946H593.882C593.854 263.545 593.71 263.237 593.448 263.022C593.187 262.798 592.837 262.686 592.398 262.686C591.932 262.686 591.568 262.817 591.306 263.078C591.045 263.33 590.914 263.694 590.914 264.17V266.116C590.914 266.592 591.045 266.961 591.306 267.222C591.568 267.483 591.932 267.614 592.398 267.614C592.837 267.614 593.187 267.507 593.448 267.292C593.71 267.068 593.854 266.755 593.882 266.354H595.632C595.604 267.213 595.301 267.894 594.722 268.398C594.144 268.893 593.369 269.14 592.398 269.14Z" fill="#1A2B58" style="fill:#1A2B58;fill:color(display-p3 0.1020 0.1686 0.3451);fill-opacity:1;"/>
<path d="M281 173H386C394.284 173 401 179.716 401 188V212C401 220.284 394.284 227 386 227H281C272.716 227 266 220.284 266 212V188C266 179.716 272.716 173 281 173Z" fill="#F1F0FF" style="fill:#F1F0FF;fill:color(display-p3 0.9457 0.9424 1.0000);fill-opacity:1;"/>
<path d="M281 173H386C394.284 173 401 179.716 401 188V212C401 220.284 394.284 227 386 227H281C272.716 227 266 220.284 266 212V188C266 179.716 272.716 173 281 173Z" stroke="#473CFB" style="stroke:#473CFB;stroke:color(display-p3 0.2784 0.2353 0.9843);stroke-opacity:1;" stroke-width="2"/>
<path fill-rule="evenodd" clip-rule="evenodd" d="M291.876 188.119C292.62 187.96 293.389 187.96 294.134 188.119C294.978 188.298 295.753 188.746 296.874 189.394C296.923 189.422 296.973 189.451 297.024 189.48L300.106 191.26C300.156 191.289 300.206 191.318 300.256 191.346C301.377 191.993 302.152 192.44 302.73 193.081C303.239 193.647 303.624 194.313 303.859 195.037C304.126 195.858 304.125 196.753 304.125 198.047C304.125 198.104 304.125 198.162 304.125 198.221V201.779C304.125 201.838 304.125 201.896 304.125 201.953C304.125 203.247 304.126 204.142 303.859 204.963C303.624 205.687 303.239 206.353 302.73 206.919C302.152 207.56 301.377 208.007 300.256 208.654C300.206 208.682 300.156 208.711 300.106 208.74L297.024 210.52C296.973 210.549 296.923 210.578 296.874 210.606C295.753 211.254 294.978 211.702 294.134 211.881C293.389 212.04 292.62 212.04 291.876 211.881C291.031 211.702 290.257 211.254 289.136 210.606C289.087 210.578 289.037 210.549 288.986 210.52L285.904 208.74C285.853 208.711 285.803 208.682 285.754 208.654C284.632 208.007 283.857 207.56 283.28 206.919C282.771 206.353 282.386 205.687 282.151 204.963C281.884 204.142 281.884 203.247 281.885 201.953C281.885 201.896 281.885 201.838 281.885 201.779V198.221C281.885 198.162 281.885 198.104 281.885 198.047C281.884 196.753 281.884 195.858 282.151 195.037C282.386 194.313 282.771 193.647 283.28 193.081C283.857 192.44 284.632 191.993 285.754 191.346C285.803 191.318 285.853 191.289 285.904 191.26L288.986 189.48C289.037 189.451 289.086 189.422 289.136 189.394C290.257 188.746 291.031 188.298 291.876 188.119ZM293.682 190.244C293.236 190.149 292.774 190.149 292.327 190.244C291.862 190.342 291.402 190.594 290.072 191.361L286.99 193.141C285.66 193.909 285.212 194.182 284.894 194.535C284.589 194.874 284.358 195.274 284.217 195.709C284.07 196.161 284.057 196.685 284.057 198.221V201.779C284.057 203.315 284.07 203.839 284.217 204.291C284.358 204.726 284.589 205.126 284.894 205.465C285.212 205.818 285.66 206.091 286.99 206.859L290.072 208.639C291.402 209.406 291.862 209.658 292.327 209.756C292.774 209.851 293.236 209.851 293.682 209.756C294.147 209.658 294.608 209.406 295.937 208.639L299.02 206.859C300.349 206.091 300.797 205.818 301.115 205.465C301.421 205.126 301.652 204.726 301.793 204.291C301.94 203.839 301.952 203.315 301.952 201.779V198.221C301.952 196.685 301.94 196.161 301.793 195.709C301.652 195.274 301.421 194.874 301.115 194.535C300.797 194.182 300.349 193.909 299.02 193.141L295.937 191.361C294.608 190.594 294.147 190.342 293.682 190.244Z" fill="#718096" style="fill:#718096;fill:color(display-p3 0.4431 0.5020 0.5882);fill-opacity:1;"/>
<circle cx="293" cy="200" r="4.5" fill="#A0AEC0" style="fill:#A0AEC0;fill:color(display-p3 0.6275 0.6824 0.7529);fill-opacity:1;"/>
<path d="M318.878 205.14C318.001 205.14 317.291 204.939 316.75 204.538C316.218 204.127 315.938 203.581 315.91 202.9H317.66C317.679 203.143 317.795 203.339 318.01 203.488C318.234 203.637 318.523 203.712 318.878 203.712H319.494C319.914 203.712 320.231 203.628 320.446 203.46C320.67 203.292 320.782 203.063 320.782 202.774C320.782 202.513 320.684 202.307 320.488 202.158C320.292 201.999 319.998 201.892 319.606 201.836L318.654 201.696C317.767 201.575 317.119 201.341 316.708 200.996C316.307 200.641 316.106 200.123 316.106 199.442C316.106 198.714 316.349 198.154 316.834 197.762C317.329 197.361 318.043 197.16 318.976 197.16H319.508C320.357 197.16 321.039 197.356 321.552 197.748C322.065 198.131 322.345 198.644 322.392 199.288H320.642C320.614 199.073 320.497 198.905 320.292 198.784C320.096 198.653 319.835 198.588 319.508 198.588H318.976C318.575 198.588 318.281 198.658 318.094 198.798C317.907 198.938 317.814 199.153 317.814 199.442C317.814 199.694 317.893 199.89 318.052 200.03C318.211 200.161 318.472 200.249 318.836 200.296L319.83 200.436C320.754 200.567 321.426 200.814 321.846 201.178C322.275 201.542 322.49 202.069 322.49 202.76C322.49 203.525 322.233 204.113 321.72 204.524C321.216 204.935 320.474 205.14 319.494 205.14H318.878ZM330.787 201.57H326.083V202.116C326.083 203.208 326.596 203.754 327.623 203.754C328.015 203.754 328.327 203.689 328.561 203.558C328.794 203.418 328.943 203.217 329.009 202.956H330.745C330.614 203.619 330.264 204.151 329.695 204.552C329.125 204.944 328.43 205.14 327.609 205.14C326.955 205.14 326.386 205.014 325.901 204.762C325.425 204.51 325.056 204.16 324.795 203.712C324.533 203.255 324.403 202.723 324.403 202.116V200.184C324.403 199.577 324.533 199.05 324.795 198.602C325.056 198.145 325.429 197.79 325.915 197.538C326.4 197.286 326.965 197.16 327.609 197.16C328.253 197.16 328.813 197.286 329.289 197.538C329.765 197.79 330.133 198.145 330.395 198.602C330.656 199.05 330.787 199.577 330.787 200.184V201.57ZM326.083 200.478L329.107 200.45V200.17C329.107 199.629 328.981 199.218 328.729 198.938C328.477 198.658 328.103 198.518 327.609 198.518C327.105 198.518 326.722 198.663 326.461 198.952C326.209 199.232 326.083 199.643 326.083 200.184V200.478ZM336.885 197.16C337.716 197.16 338.369 197.417 338.845 197.93C339.321 198.443 339.559 199.153 339.559 200.058V200.618H337.725V200.184C337.725 199.689 337.594 199.307 337.333 199.036C337.081 198.765 336.731 198.63 336.283 198.63C335.835 198.63 335.485 198.77 335.233 199.05C334.981 199.321 334.855 199.699 334.855 200.184V205H333.105V197.3H334.757V198.77H334.771C334.892 198.238 335.13 197.837 335.485 197.566C335.84 197.295 336.306 197.16 336.885 197.16ZM343.264 205L340.758 197.3H342.564L343.992 201.976C344.141 202.461 344.281 202.989 344.412 203.558C344.552 202.989 344.692 202.466 344.832 201.99L346.232 197.3H348.01L345.518 205H343.264ZM352.904 196.138C352.605 196.138 352.363 196.054 352.176 195.886C351.999 195.718 351.91 195.494 351.91 195.214C351.91 194.943 351.999 194.724 352.176 194.556C352.363 194.379 352.605 194.29 352.904 194.29H353.184C353.473 194.29 353.711 194.379 353.898 194.556C354.085 194.724 354.178 194.943 354.178 195.214C354.178 195.494 354.085 195.718 353.898 195.886C353.711 196.054 353.469 196.138 353.17 196.138H352.904ZM356.362 205H349.614V203.404H352.302V198.882H349.964V197.3H353.968V203.404H356.362V205ZM361.215 205.14C360.225 205.14 359.437 204.869 358.849 204.328C358.27 203.777 357.981 203.04 357.981 202.116V200.184C357.981 199.26 358.27 198.527 358.849 197.986C359.437 197.435 360.225 197.16 361.215 197.16C362.185 197.16 362.96 197.412 363.539 197.916C364.117 198.411 364.421 199.087 364.449 199.946H362.699C362.671 199.545 362.526 199.237 362.265 199.022C362.003 198.798 361.653 198.686 361.215 198.686C360.748 198.686 360.384 198.817 360.123 199.078C359.861 199.33 359.731 199.694 359.731 200.17V202.116C359.731 202.592 359.861 202.961 360.123 203.222C360.384 203.483 360.748 203.614 361.215 203.614C361.653 203.614 362.003 203.507 362.265 203.292C362.526 203.068 362.671 202.755 362.699 202.354H364.449C364.421 203.213 364.117 203.894 363.539 204.398C362.96 204.893 362.185 205.14 361.215 205.14ZM372.759 201.57H368.055V202.116C368.055 203.208 368.569 203.754 369.595 203.754C369.987 203.754 370.3 203.689 370.533 203.558C370.767 203.418 370.916 203.217 370.981 202.956H372.717C372.587 203.619 372.237 204.151 371.667 204.552C371.098 204.944 370.403 205.14 369.581 205.14C368.928 205.14 368.359 205.014 367.873 204.762C367.397 204.51 367.029 204.16 366.767 203.712C366.506 203.255 366.375 202.723 366.375 202.116V200.184C366.375 199.577 366.506 199.05 366.767 198.602C367.029 198.145 367.402 197.79 367.887 197.538C368.373 197.286 368.937 197.16 369.581 197.16C370.225 197.16 370.785 197.286 371.261 197.538C371.737 197.79 372.106 198.145 372.367 198.602C372.629 199.05 372.759 199.577 372.759 200.184V201.57ZM368.055 200.478L371.079 200.45V200.17C371.079 199.629 370.953 199.218 370.701 198.938C370.449 198.658 370.076 198.518 369.581 198.518C369.077 198.518 368.695 198.663 368.433 198.952C368.181 199.232 368.055 199.643 368.055 200.184V200.478ZM381.014 201.192H374.91V199.568H381.014V201.192ZM386.426 197.16C387.397 197.16 388.153 197.389 388.694 197.846C389.236 198.303 389.506 198.947 389.506 199.778V205H387.812V203.656H387.784C387.691 204.113 387.434 204.477 387.014 204.748C386.604 205.009 386.09 205.14 385.474 205.14C384.7 205.14 384.084 204.935 383.626 204.524C383.169 204.104 382.94 203.539 382.94 202.83C382.94 202.065 383.192 201.477 383.696 201.066C384.2 200.646 384.914 200.436 385.838 200.436H387.756V199.792C387.756 199.409 387.64 199.115 387.406 198.91C387.173 198.705 386.837 198.602 386.398 198.602C386.006 198.602 385.684 198.686 385.432 198.854C385.19 199.013 385.045 199.241 384.998 199.54H383.29C383.374 198.812 383.696 198.233 384.256 197.804C384.826 197.375 385.549 197.16 386.426 197.16ZM386.062 203.824C386.576 203.824 386.986 203.703 387.294 203.46C387.602 203.217 387.756 202.886 387.756 202.466V201.528H385.866C385.512 201.528 385.227 201.631 385.012 201.836C384.798 202.041 384.69 202.317 384.69 202.662C384.69 203.017 384.812 203.301 385.054 203.516C385.297 203.721 385.633 203.824 386.062 203.824Z" fill="#1A2B58" style="fill:#1A2B58;fill:color(display-p3 0.1020 0.1686 0.3451);fill-opacity:1;"/>
<path d="M487 109H608C616.284 109 623 115.716 623 124V148C623 156.284 616.284 163 608 163H487C478.716 163 472 156.284 472 148V124C472 115.716 478.716 109 487 109Z" fill="#F1F0FF" style="fill:#F1F0FF;fill:color(display-p3 0.9457 0.9424 1.0000);fill-opacity:1;"/>
<path d="M487 109H608C616.284 109 623 115.716 623 124V148C623 156.284 616.284 163 608 163H487C478.716 163 472 156.284 472 148V124C472 115.716 478.716 109 487 109Z" stroke="#473CFB" style="stroke:#473CFB;stroke:color(display-p3 0.2784 0.2353 0.9843);stroke-opacity:1;" stroke-width="2"/>
<path fill-rule="evenodd" clip-rule="evenodd" d="M497.876 124.119C498.62 123.96 499.389 123.96 500.134 124.119C500.978 124.298 501.753 124.746 502.874 125.394C502.923 125.422 502.973 125.451 503.024 125.48L506.106 127.26C506.156 127.289 506.206 127.318 506.256 127.346C507.377 127.993 508.152 128.44 508.73 129.081C509.239 129.647 509.624 130.313 509.859 131.037C510.126 131.858 510.125 132.753 510.125 134.047C510.125 134.104 510.125 134.162 510.125 134.221V137.779C510.125 137.838 510.125 137.896 510.125 137.953C510.125 139.247 510.126 140.142 509.859 140.963C509.624 141.687 509.239 142.353 508.73 142.919C508.152 143.56 507.377 144.007 506.256 144.654C506.206 144.682 506.156 144.711 506.106 144.74L503.024 146.52C502.973 146.549 502.923 146.578 502.874 146.606C501.753 147.254 500.978 147.702 500.134 147.881C499.389 148.04 498.62 148.04 497.876 147.881C497.031 147.702 496.257 147.254 495.136 146.606C495.087 146.578 495.037 146.549 494.986 146.52L491.904 144.74C491.853 144.711 491.803 144.682 491.754 144.654C490.632 144.007 489.857 143.56 489.28 142.919C488.771 142.353 488.386 141.687 488.151 140.963C487.884 140.142 487.884 139.247 487.885 137.953C487.885 137.896 487.885 137.838 487.885 137.779V134.221C487.885 134.162 487.885 134.104 487.885 134.047C487.884 132.753 487.884 131.858 488.151 131.037C488.386 130.313 488.771 129.647 489.28 129.081C489.857 128.44 490.632 127.993 491.754 127.346C491.803 127.318 491.853 127.289 491.904 127.26L494.986 125.48C495.037 125.451 495.086 125.422 495.136 125.394C496.257 124.746 497.031 124.298 497.876 124.119ZM499.682 126.244C499.236 126.149 498.774 126.149 498.327 126.244C497.862 126.342 497.402 126.594 496.072 127.361L492.99 129.141C491.66 129.909 491.212 130.182 490.894 130.535C490.589 130.874 490.358 131.274 490.217 131.709C490.07 132.161 490.057 132.685 490.057 134.221V137.779C490.057 139.315 490.07 139.839 490.217 140.291C490.358 140.726 490.589 141.126 490.894 141.465C491.212 141.818 491.66 142.091 492.99 142.859L496.072 144.639C497.402 145.406 497.862 145.658 498.327 145.756C498.774 145.851 499.236 145.851 499.682 145.756C500.147 145.658 500.608 145.406 501.937 144.639L505.02 142.859C506.349 142.091 506.797 141.818 507.115 141.465C507.421 141.126 507.652 140.726 507.793 140.291C507.94 139.839 507.952 139.315 507.952 137.779V134.221C507.952 132.685 507.94 132.161 507.793 131.709C507.652 131.274 507.421 130.874 507.115 130.535C506.797 130.182 506.349 129.909 505.02 129.141L501.937 127.361C500.608 126.594 500.147 126.342 499.682 126.244Z" fill="#718096" style="fill:#718096;fill:color(display-p3 0.4431 0.5020 0.5882);fill-opacity:1;"/>
<circle cx="499" cy="136" r="4.5" fill="#A0AEC0" style="fill:#A0AEC0;fill:color(display-p3 0.6275 0.6824 0.7529);fill-opacity:1;"/>
<path d="M524.878 141.14C524.001 141.14 523.291 140.939 522.75 140.538C522.218 140.127 521.938 139.581 521.91 138.9H523.66C523.679 139.143 523.795 139.339 524.01 139.488C524.234 139.637 524.523 139.712 524.878 139.712H525.494C525.914 139.712 526.231 139.628 526.446 139.46C526.67 139.292 526.782 139.063 526.782 138.774C526.782 138.513 526.684 138.307 526.488 138.158C526.292 137.999 525.998 137.892 525.606 137.836L524.654 137.696C523.767 137.575 523.119 137.341 522.708 136.996C522.307 136.641 522.106 136.123 522.106 135.442C522.106 134.714 522.349 134.154 522.834 133.762C523.329 133.361 524.043 133.16 524.976 133.16H525.508C526.357 133.16 527.039 133.356 527.552 133.748C528.065 134.131 528.345 134.644 528.392 135.288H526.642C526.614 135.073 526.497 134.905 526.292 134.784C526.096 134.653 525.835 134.588 525.508 134.588H524.976C524.575 134.588 524.281 134.658 524.094 134.798C523.907 134.938 523.814 135.153 523.814 135.442C523.814 135.694 523.893 135.89 524.052 136.03C524.211 136.161 524.472 136.249 524.836 136.296L525.83 136.436C526.754 136.567 527.426 136.814 527.846 137.178C528.275 137.542 528.49 138.069 528.49 138.76C528.49 139.525 528.233 140.113 527.72 140.524C527.216 140.935 526.474 141.14 525.494 141.14H524.878ZM536.787 137.57H532.083V138.116C532.083 139.208 532.596 139.754 533.623 139.754C534.015 139.754 534.327 139.689 534.561 139.558C534.794 139.418 534.943 139.217 535.009 138.956H536.745C536.614 139.619 536.264 140.151 535.695 140.552C535.125 140.944 534.43 141.14 533.609 141.14C532.955 141.14 532.386 141.014 531.901 140.762C531.425 140.51 531.056 140.16 530.795 139.712C530.533 139.255 530.403 138.723 530.403 138.116V136.184C530.403 135.577 530.533 135.05 530.795 134.602C531.056 134.145 531.429 133.79 531.915 133.538C532.4 133.286 532.965 133.16 533.609 133.16C534.253 133.16 534.813 133.286 535.289 133.538C535.765 133.79 536.133 134.145 536.395 134.602C536.656 135.05 536.787 135.577 536.787 136.184V137.57ZM532.083 136.478L535.107 136.45V136.17C535.107 135.629 534.981 135.218 534.729 134.938C534.477 134.658 534.103 134.518 533.609 134.518C533.105 134.518 532.722 134.663 532.461 134.952C532.209 135.232 532.083 135.643 532.083 136.184V136.478ZM542.885 133.16C543.716 133.16 544.369 133.417 544.845 133.93C545.321 134.443 545.559 135.153 545.559 136.058V136.618H543.725V136.184C543.725 135.689 543.594 135.307 543.333 135.036C543.081 134.765 542.731 134.63 542.283 134.63C541.835 134.63 541.485 134.77 541.233 135.05C540.981 135.321 540.855 135.699 540.855 136.184V141H539.105V133.3H540.757V134.77H540.771C540.892 134.238 541.13 133.837 541.485 133.566C541.84 133.295 542.306 133.16 542.885 133.16ZM549.264 141L546.758 133.3H548.564L549.992 137.976C550.141 138.461 550.281 138.989 550.412 139.558C550.552 138.989 550.692 138.466 550.832 137.99L552.232 133.3H554.01L551.518 141H549.264ZM558.904 132.138C558.605 132.138 558.363 132.054 558.176 131.886C557.999 131.718 557.91 131.494 557.91 131.214C557.91 130.943 557.999 130.724 558.176 130.556C558.363 130.379 558.605 130.29 558.904 130.29H559.184C559.473 130.29 559.711 130.379 559.898 130.556C560.085 130.724 560.178 130.943 560.178 131.214C560.178 131.494 560.085 131.718 559.898 131.886C559.711 132.054 559.469 132.138 559.17 132.138H558.904ZM562.362 141H555.614V139.404H558.302V134.882H555.964V133.3H559.968V139.404H562.362V141ZM567.215 141.14C566.225 141.14 565.437 140.869 564.849 140.328C564.27 139.777 563.981 139.04 563.981 138.116V136.184C563.981 135.26 564.27 134.527 564.849 133.986C565.437 133.435 566.225 133.16 567.215 133.16C568.185 133.16 568.96 133.412 569.539 133.916C570.117 134.411 570.421 135.087 570.449 135.946H568.699C568.671 135.545 568.526 135.237 568.265 135.022C568.003 134.798 567.653 134.686 567.215 134.686C566.748 134.686 566.384 134.817 566.123 135.078C565.861 135.33 565.731 135.694 565.731 136.17V138.116C565.731 138.592 565.861 138.961 566.123 139.222C566.384 139.483 566.748 139.614 567.215 139.614C567.653 139.614 568.003 139.507 568.265 139.292C568.526 139.068 568.671 138.755 568.699 138.354H570.449C570.421 139.213 570.117 139.894 569.539 140.398C568.96 140.893 568.185 141.14 567.215 141.14ZM578.759 137.57H574.055V138.116C574.055 139.208 574.569 139.754 575.595 139.754C575.987 139.754 576.3 139.689 576.533 139.558C576.767 139.418 576.916 139.217 576.981 138.956H578.717C578.587 139.619 578.237 140.151 577.667 140.552C577.098 140.944 576.403 141.14 575.581 141.14C574.928 141.14 574.359 141.014 573.873 140.762C573.397 140.51 573.029 140.16 572.767 139.712C572.506 139.255 572.375 138.723 572.375 138.116V136.184C572.375 135.577 572.506 135.05 572.767 134.602C573.029 134.145 573.402 133.79 573.887 133.538C574.373 133.286 574.937 133.16 575.581 133.16C576.225 133.16 576.785 133.286 577.261 133.538C577.737 133.79 578.106 134.145 578.367 134.602C578.629 135.05 578.759 135.577 578.759 136.184V137.57ZM574.055 136.478L577.079 136.45V136.17C577.079 135.629 576.953 135.218 576.701 134.938C576.449 134.658 576.076 134.518 575.581 134.518C575.077 134.518 574.695 134.663 574.433 134.952C574.181 135.232 574.055 135.643 574.055 136.184V136.478ZM587.014 137.192H580.91V135.568H587.014V137.192ZM593.014 133.16C593.789 133.16 594.405 133.426 594.862 133.958C595.32 134.49 595.548 135.209 595.548 136.114V138.2C595.548 139.105 595.32 139.824 594.862 140.356C594.405 140.879 593.789 141.14 593.014 141.14C592.445 141.14 591.978 141 591.614 140.72C591.26 140.431 591.045 140.034 590.97 139.53H590.942V141H589.234V130.78H590.984V132.936L590.928 134.77H590.97C591.045 134.266 591.26 133.874 591.614 133.594C591.978 133.305 592.445 133.16 593.014 133.16ZM593.798 136.184C593.798 135.699 593.677 135.33 593.434 135.078C593.192 134.817 592.846 134.686 592.398 134.686C591.95 134.686 591.6 134.817 591.348 135.078C591.106 135.339 590.984 135.708 590.984 136.184V138.116C590.984 138.592 591.106 138.965 591.348 139.236C591.6 139.497 591.95 139.628 592.398 139.628C592.846 139.628 593.192 139.497 593.434 139.236C593.677 138.975 593.798 138.601 593.798 138.116V136.184Z" fill="#1A2B58" style="fill:#1A2B58;fill:color(display-p3 0.1020 0.1686 0.3451);fill-opacity:1;"/>
<path d="M406 198.5C405.172 198.5 404.5 199.172 404.5 200C404.5 200.828 405.172 201.5 406 201.5V200V198.5ZM468.061 137.061C468.646 136.475 468.646 135.525 468.061 134.939L458.515 125.393C457.929 124.808 456.979 124.808 456.393 125.393C455.808 125.979 455.808 126.929 456.393 127.515L464.879 136L456.393 144.485C455.808 145.071 455.808 146.021 456.393 146.607C456.979 147.192 457.929 147.192 458.515 146.607L468.061 137.061ZM406 200V201.5H412.5V200V198.5H406V200ZM436.5 176H438V160H436.5H435V176H436.5ZM460.5 136V137.5H467V136V134.5H460.5V136ZM436.5 160H438C438 147.574 448.074 137.5 460.5 137.5V136V134.5C446.417 134.5 435 145.917 435 160H436.5ZM412.5 200V201.5C426.583 201.5 438 190.083 438 176H436.5H435C435 188.426 424.926 198.5 412.5 198.5V200Z" fill="#473CFB" style="fill:#473CFB;fill:color(display-p3 0.2784 0.2353 0.9843);fill-opacity:1;"/>
<path d="M406 198.5C405.172 198.5 404.5 199.172 404.5 200C404.5 200.828 405.172 201.5 406 201.5V200V198.5ZM468.061 265.061C468.646 264.475 468.646 263.525 468.061 262.939L458.515 253.393C457.929 252.808 456.979 252.808 456.393 253.393C455.808 253.979 455.808 254.929 456.393 255.515L464.879 264L456.393 272.485C455.808 273.071 455.808 274.021 456.393 274.607C456.979 275.192 457.929 275.192 458.515 274.607L468.061 265.061ZM406 200V201.5H412.5V200V198.5H406V200ZM436.5 224H435V240H436.5H438V224H436.5ZM460.5 264V265.5H467V264V262.5H460.5V264ZM436.5 240H435C435 254.083 446.417 265.5 460.5 265.5V264V262.5C448.074 262.5 438 252.426 438 240H436.5ZM412.5 200V201.5C424.926 201.5 435 211.574 435 224H436.5H438C438 209.917 426.583 198.5 412.5 198.5V200Z" fill="#473CFB" style="fill:#473CFB;fill:color(display-p3 0.2784 0.2353 0.9843);fill-opacity:1;"/>
<path d="M691 109H789C797.284 109 804 115.716 804 124V148C804 156.284 797.284 163 789 163H691C682.716 163 676 156.284 676 148V124C676 115.716 682.716 109 691 109Z" fill="#F1F0FF" style="fill:#F1F0FF;fill:color(display-p3 0.9457 0.9424 1.0000);fill-opacity:1;"/>
<path d="M691 109H789C797.284 109 804 115.716 804 124V148C804 156.284 797.284 163 789 163H691C682.716 163 676 156.284 676 148V124C676 115.716 682.716 109 691 109Z" stroke="#473CFB" style="stroke:#473CFB;stroke:color(display-p3 0.2784 0.2353 0.9843);stroke-opacity:1;" stroke-width="2"/>
<path fill-rule="evenodd" clip-rule="evenodd" d="M701.876 124.119C702.62 123.96 703.389 123.96 704.134 124.119C704.978 124.298 705.753 124.746 706.874 125.394C706.923 125.422 706.973 125.451 707.024 125.48L710.106 127.26C710.156 127.289 710.206 127.318 710.256 127.346C711.377 127.993 712.152 128.44 712.73 129.081C713.239 129.647 713.624 130.313 713.859 131.037C714.126 131.858 714.125 132.753 714.125 134.047C714.125 134.104 714.125 134.162 714.125 134.221V137.779C714.125 137.838 714.125 137.896 714.125 137.953C714.125 139.247 714.126 140.142 713.859 140.963C713.624 141.687 713.239 142.353 712.73 142.919C712.152 143.56 711.377 144.007 710.256 144.654C710.206 144.682 710.156 144.711 710.106 144.74L707.024 146.52C706.973 146.549 706.923 146.578 706.874 146.606C705.753 147.254 704.978 147.702 704.134 147.881C703.389 148.04 702.62 148.04 701.876 147.881C701.031 147.702 700.257 147.254 699.136 146.606C699.087 146.578 699.037 146.549 698.986 146.52L695.904 144.74C695.853 144.711 695.803 144.682 695.754 144.654C694.632 144.007 693.857 143.56 693.28 142.919C692.771 142.353 692.386 141.687 692.151 140.963C691.884 140.142 691.884 139.247 691.885 137.953C691.885 137.896 691.885 137.838 691.885 137.779V134.221C691.885 134.162 691.885 134.104 691.885 134.047C691.884 132.753 691.884 131.858 692.151 131.037C692.386 130.313 692.771 129.647 693.28 129.081C693.857 128.44 694.632 127.993 695.754 127.346C695.803 127.318 695.853 127.289 695.904 127.26L698.986 125.48C699.037 125.451 699.086 125.422 699.136 125.394C700.257 124.746 701.031 124.298 701.876 124.119ZM703.682 126.244C703.236 126.149 702.774 126.149 702.327 126.244C701.862 126.342 701.402 126.594 700.072 127.361L696.99 129.141C695.66 129.909 695.212 130.182 694.894 130.535C694.589 130.874 694.358 131.274 694.217 131.709C694.07 132.161 694.057 132.685 694.057 134.221V137.779C694.057 139.315 694.07 139.839 694.217 140.291C694.358 140.726 694.589 141.126 694.894 141.465C695.212 141.818 695.66 142.091 696.99 142.859L700.072 144.639C701.402 145.406 701.862 145.658 702.327 145.756C702.774 145.851 703.236 145.851 703.682 145.756C704.147 145.658 704.608 145.406 705.937 144.639L709.02 142.859C710.349 142.091 710.797 141.818 711.115 141.465C711.421 141.126 711.652 140.726 711.793 140.291C711.94 139.839 711.952 139.315 711.952 137.779V134.221C711.952 132.685 711.94 132.161 711.793 131.709C711.652 131.274 711.421 130.874 711.115 130.535C710.797 130.182 710.349 129.909 709.02 129.141L705.937 127.361C704.608 126.594 704.147 126.342 703.682 126.244Z" fill="#718096" style="fill:#718096;fill:color(display-p3 0.4431 0.5020 0.5882);fill-opacity:1;"/>
<circle cx="703" cy="136" r="4.5" fill="#A0AEC0" style="fill:#A0AEC0;fill:color(display-p3 0.6275 0.6824 0.7529);fill-opacity:1;"/>
<path d="M730.572 130.78H732.322V141H730.614V139.53H730.586C730.511 140.034 730.292 140.431 729.928 140.72C729.573 141 729.111 141.14 728.542 141.14C727.767 141.14 727.151 140.879 726.694 140.356C726.237 139.824 726.008 139.105 726.008 138.2V136.114C726.008 135.209 726.237 134.49 726.694 133.958C727.151 133.426 727.767 133.16 728.542 133.16C729.111 133.16 729.573 133.305 729.928 133.594C730.292 133.874 730.511 134.266 730.586 134.77H730.628L730.572 132.936V130.78ZM729.158 139.628C729.606 139.628 729.951 139.497 730.194 139.236C730.446 138.965 730.572 138.592 730.572 138.116V136.184C730.572 135.708 730.446 135.339 730.194 135.078C729.951 134.817 729.606 134.686 729.158 134.686C728.71 134.686 728.365 134.817 728.122 135.078C727.879 135.33 727.758 135.699 727.758 136.184V138.116C727.758 138.601 727.879 138.975 728.122 139.236C728.365 139.497 728.71 139.628 729.158 139.628ZM738.253 133.16C739.027 133.16 739.643 133.426 740.101 133.958C740.558 134.49 740.787 135.209 740.787 136.114V138.2C740.787 139.105 740.558 139.824 740.101 140.356C739.643 140.879 739.027 141.14 738.253 141.14C737.683 141.14 737.217 141 736.853 140.72C736.498 140.431 736.283 140.034 736.209 139.53H736.181V141H734.473V130.78H736.223V132.936L736.167 134.77H736.209C736.283 134.266 736.498 133.874 736.853 133.594C737.217 133.305 737.683 133.16 738.253 133.16ZM739.037 136.184C739.037 135.699 738.915 135.33 738.673 135.078C738.43 134.817 738.085 134.686 737.637 134.686C737.189 134.686 736.839 134.817 736.587 135.078C736.344 135.339 736.223 135.708 736.223 136.184V138.116C736.223 138.592 736.344 138.965 736.587 139.236C736.839 139.497 737.189 139.628 737.637 139.628C738.085 139.628 738.43 139.497 738.673 139.236C738.915 138.975 739.037 138.601 739.037 138.116V136.184Z" fill="#1A2B58" style="fill:#1A2B58;fill:color(display-p3 0.1020 0.1686 0.3451);fill-opacity:1;"/>
<path d="M628 134.5C627.172 134.5 626.5 135.172 626.5 136C626.5 136.828 627.172 137.5 628 137.5V136V134.5ZM672.061 137.061C672.646 136.475 672.646 135.525 672.061 134.939L662.515 125.393C661.929 124.808 660.979 124.808 660.393 125.393C659.808 125.979 659.808 126.929 660.393 127.515L668.879 136L660.393 144.485C659.808 145.071 659.808 146.021 660.393 146.607C660.979 147.192 661.929 147.192 662.515 146.607L672.061 137.061ZM628 136V137.5H671V136V134.5H628V136Z" fill="#473CFB" style="fill:#473CFB;fill:color(display-p3 0.2784 0.2353 0.9843);fill-opacity:1;"/>
<path d="M859 173H986C994.284 173 1001 179.716 1001 188V212C1001 220.284 994.284 227 986 227H859C850.716 227 844 220.284 844 212V188C844 179.716 850.716 173 859 173Z" fill="#F1F0FF" style="fill:#F1F0FF;fill:color(display-p3 0.9457 0.9424 1.0000);fill-opacity:1;"/>
<path d="M859 173H986C994.284 173 1001 179.716 1001 188V212C1001 220.284 994.284 227 986 227H859C850.716 227 844 220.284 844 212V188C844 179.716 850.716 173 859 173Z" stroke="#473CFB" style="stroke:#473CFB;stroke:color(display-p3 0.2784 0.2353 0.9843);stroke-opacity:1;" stroke-width="2"/>
<path fill-rule="evenodd" clip-rule="evenodd" d="M869.876 188.119C870.62 187.96 871.389 187.96 872.134 188.119C872.978 188.298 873.753 188.746 874.874 189.394C874.923 189.422 874.973 189.451 875.024 189.48L878.106 191.26C878.156 191.289 878.206 191.318 878.256 191.346C879.377 191.993 880.152 192.44 880.73 193.081C881.239 193.647 881.624 194.313 881.859 195.037C882.126 195.858 882.125 196.753 882.125 198.047C882.125 198.104 882.125 198.162 882.125 198.221V201.779C882.125 201.838 882.125 201.896 882.125 201.953C882.125 203.247 882.126 204.142 881.859 204.963C881.624 205.687 881.239 206.353 880.73 206.919C880.152 207.56 879.377 208.007 878.256 208.654C878.206 208.682 878.156 208.711 878.106 208.74L875.024 210.52C874.973 210.549 874.923 210.578 874.874 210.606C873.753 211.254 872.978 211.702 872.134 211.881C871.389 212.04 870.62 212.04 869.876 211.881C869.031 211.702 868.257 211.254 867.136 210.606C867.087 210.578 867.037 210.549 866.986 210.52L863.904 208.74C863.853 208.711 863.803 208.682 863.754 208.654C862.632 208.007 861.857 207.56 861.28 206.919C860.771 206.353 860.386 205.687 860.151 204.963C859.884 204.142 859.884 203.247 859.885 201.953C859.885 201.896 859.885 201.838 859.885 201.779V198.221C859.885 198.162 859.885 198.104 859.885 198.047C859.884 196.753 859.884 195.858 860.151 195.037C860.386 194.313 860.771 193.647 861.28 193.081C861.857 192.44 862.632 191.993 863.754 191.346C863.803 191.318 863.853 191.289 863.904 191.26L866.986 189.48C867.037 189.451 867.086 189.422 867.136 189.394C868.257 188.746 869.031 188.298 869.876 188.119ZM871.682 190.244C871.236 190.149 870.774 190.149 870.327 190.244C869.862 190.342 869.402 190.594 868.072 191.361L864.99 193.141C863.66 193.909 863.212 194.182 862.894 194.535C862.589 194.874 862.358 195.274 862.217 195.709C862.07 196.161 862.057 196.685 862.057 198.221V201.779C862.057 203.315 862.07 203.839 862.217 204.291C862.358 204.726 862.589 205.126 862.894 205.465C863.212 205.818 863.66 206.091 864.99 206.859L868.072 208.639C869.402 209.406 869.862 209.658 870.327 209.756C870.774 209.851 871.236 209.851 871.682 209.756C872.147 209.658 872.608 209.406 873.937 208.639L877.02 206.859C878.349 206.091 878.797 205.818 879.115 205.465C879.421 205.126 879.652 204.726 879.793 204.291C879.94 203.839 879.952 203.315 879.952 201.779V198.221C879.952 196.685 879.94 196.161 879.793 195.709C879.652 195.274 879.421 194.874 879.115 194.535C878.797 194.182 878.349 193.909 877.02 193.141L873.937 191.361C872.608 190.594 872.147 190.342 871.682 190.244Z" fill="#718096" style="fill:#718096;fill:color(display-p3 0.4431 0.5020 0.5882);fill-opacity:1;"/>
<circle cx="871" cy="200" r="4.5" fill="#A0AEC0" style="fill:#A0AEC0;fill:color(display-p3 0.6275 0.6824 0.7529);fill-opacity:1;"/>
<path d="M893.784 205V194.78H895.856L896.85 198.042C897.018 198.602 897.144 199.092 897.228 199.512C897.303 199.092 897.424 198.597 897.592 198.028L898.544 194.78H900.616V205H898.978V201.822C898.978 200.963 899.015 199.988 899.09 198.896C899.174 197.804 899.272 196.763 899.384 195.774L898.012 200.604H896.416L895.002 195.774C895.123 196.726 895.221 197.748 895.296 198.84C895.38 199.923 895.422 200.917 895.422 201.822V205H893.784ZM905.595 205.14C904.615 205.14 903.845 204.869 903.285 204.328C902.725 203.777 902.445 203.031 902.445 202.088V197.3H904.195V202.074C904.195 202.569 904.316 202.951 904.559 203.222C904.801 203.483 905.147 203.614 905.595 203.614C906.043 203.614 906.388 203.483 906.631 203.222C906.873 202.951 906.995 202.569 906.995 202.074V197.3H908.745V202.088C908.745 203.031 908.46 203.777 907.891 204.328C907.331 204.869 906.565 205.14 905.595 205.14ZM915.109 205C914.344 205 913.728 204.771 913.261 204.314C912.804 203.857 912.575 203.255 912.575 202.508V196.362H910.223V194.78H914.325V202.508C914.325 202.779 914.404 202.998 914.563 203.166C914.731 203.334 914.95 203.418 915.221 203.418H917.615V205H915.109ZM923.224 205C922.486 205 921.908 204.799 921.488 204.398C921.077 203.987 920.872 203.418 920.872 202.69V198.882H918.786V197.3H920.872V195.2H922.636V197.3H925.59V198.882H922.636V202.69C922.636 203.175 922.874 203.418 923.35 203.418H925.45V205H923.224ZM930.904 196.138C930.605 196.138 930.363 196.054 930.176 195.886C929.999 195.718 929.91 195.494 929.91 195.214C929.91 194.943 929.999 194.724 930.176 194.556C930.363 194.379 930.605 194.29 930.904 194.29H931.184C931.473 194.29 931.711 194.379 931.898 194.556C932.085 194.724 932.178 194.943 932.178 195.214C932.178 195.494 932.085 195.718 931.898 195.886C931.711 196.054 931.469 196.138 931.17 196.138H930.904ZM934.362 205H927.614V203.404H930.302V198.882H927.964V197.3H931.968V203.404H934.362V205ZM939.831 197.16C940.605 197.16 941.221 197.426 941.679 197.958C942.136 198.481 942.365 199.195 942.365 200.1V202.186C942.365 203.091 942.136 203.81 941.679 204.342C941.221 204.874 940.605 205.14 939.831 205.14C939.261 205.14 938.795 205 938.431 204.72C938.076 204.431 937.861 204.034 937.787 203.53H937.745L937.801 205.364V207.52H936.051V197.3H937.759V198.77H937.787C937.861 198.266 938.076 197.874 938.431 197.594C938.795 197.305 939.261 197.16 939.831 197.16ZM940.615 200.184C940.615 199.699 940.493 199.325 940.251 199.064C940.008 198.803 939.663 198.672 939.215 198.672C938.776 198.672 938.431 198.807 938.179 199.078C937.927 199.339 937.801 199.708 937.801 200.184V202.116C937.801 202.592 937.927 202.965 938.179 203.236C938.431 203.497 938.776 203.628 939.215 203.628C939.663 203.628 940.008 203.497 940.251 203.236C940.493 202.975 940.615 202.601 940.615 202.116V200.184ZM948.687 205C947.922 205 947.306 204.771 946.839 204.314C946.382 203.857 946.153 203.255 946.153 202.508V196.362H943.801V194.78H947.903V202.508C947.903 202.779 947.983 202.998 948.141 203.166C948.309 203.334 948.529 203.418 948.799 203.418H951.193V205H948.687ZM956.032 197.16C957.002 197.16 957.758 197.389 958.3 197.846C958.841 198.303 959.112 198.947 959.112 199.778V205H957.418V203.656H957.39C957.296 204.113 957.04 204.477 956.62 204.748C956.209 205.009 955.696 205.14 955.08 205.14C954.305 205.14 953.689 204.935 953.232 204.524C952.774 204.104 952.546 203.539 952.546 202.83C952.546 202.065 952.798 201.477 953.302 201.066C953.806 200.646 954.52 200.436 955.444 200.436H957.362V199.792C957.362 199.409 957.245 199.115 957.012 198.91C956.778 198.705 956.442 198.602 956.004 198.602C955.612 198.602 955.29 198.686 955.038 198.854C954.795 199.013 954.65 199.241 954.604 199.54H952.896C952.98 198.812 953.302 198.233 953.862 197.804C954.431 197.375 955.154 197.16 956.032 197.16ZM955.668 203.824C956.181 203.824 956.592 203.703 956.9 203.46C957.208 203.217 957.362 202.886 957.362 202.466V201.528H955.472C955.117 201.528 954.832 201.631 954.618 201.836C954.403 202.041 954.296 202.317 954.296 202.662C954.296 203.017 954.417 203.301 954.66 203.516C954.902 203.721 955.238 203.824 955.668 203.824ZM962.522 207.52L963.614 204.58L960.716 197.3H962.62L964.034 201.248C964.165 201.621 964.3 202.111 964.44 202.718C964.58 202.102 964.711 201.612 964.832 201.248L966.148 197.3H967.996L964.37 207.52H962.522ZM975.943 201.57H971.239V202.116C971.239 203.208 971.752 203.754 972.779 203.754C973.171 203.754 973.483 203.689 973.717 203.558C973.95 203.418 974.099 203.217 974.165 202.956H975.901C975.77 203.619 975.42 204.151 974.851 204.552C974.281 204.944 973.586 205.14 972.765 205.14C972.111 205.14 971.542 205.014 971.057 204.762C970.581 204.51 970.212 204.16 969.951 203.712C969.689 203.255 969.559 202.723 969.559 202.116V200.184C969.559 199.577 969.689 199.05 969.951 198.602C970.212 198.145 970.585 197.79 971.071 197.538C971.556 197.286 972.121 197.16 972.765 197.16C973.409 197.16 973.969 197.286 974.445 197.538C974.921 197.79 975.289 198.145 975.551 198.602C975.812 199.05 975.943 199.577 975.943 200.184V201.57ZM971.239 200.478L974.263 200.45V200.17C974.263 199.629 974.137 199.218 973.885 198.938C973.633 198.658 973.259 198.518 972.765 198.518C972.261 198.518 971.878 198.663 971.617 198.952C971.365 199.232 971.239 199.643 971.239 200.184V200.478ZM982.041 197.16C982.872 197.16 983.525 197.417 984.001 197.93C984.477 198.443 984.715 199.153 984.715 200.058V200.618H982.881V200.184C982.881 199.689 982.751 199.307 982.489 199.036C982.237 198.765 981.887 198.63 981.439 198.63C980.991 198.63 980.641 198.77 980.389 199.05C980.137 199.321 980.011 199.699 980.011 200.184V205H978.261V197.3H979.913V198.77H979.927C980.049 198.238 980.287 197.837 980.641 197.566C980.996 197.295 981.463 197.16 982.041 197.16Z" fill="#1A2B58" style="fill:#1A2B58;fill:color(display-p3 0.1020 0.1686 0.3451);fill-opacity:1;"/>
<path d="M818 198.5C817.172 198.5 816.5 199.172 816.5 200C816.5 200.828 817.172 201.5 818 201.5V200V198.5ZM840.061 201.061C840.646 200.475 840.646 199.525 840.061 198.939L830.515 189.393C829.929 188.808 828.979 188.808 828.393 189.393C827.808 189.979 827.808 190.929 828.393 191.515L836.879 200L828.393 208.485C827.808 209.071 827.808 210.021 828.393 210.607C828.979 211.192 829.929 211.192 830.515 210.607L840.061 201.061ZM818 200V201.5H839V200V198.5H818V200Z" fill="#473CFB" style="fill:#473CFB;fill:color(display-p3 0.2784 0.2353 0.9843);fill-opacity:1;"/>
<path d="M516.96 352.382L515.32 352.561C515.273 352.395 515.192 352.24 515.076 352.094C514.963 351.948 514.811 351.83 514.619 351.741C514.426 351.651 514.191 351.607 513.913 351.607C513.538 351.607 513.223 351.688 512.968 351.85C512.716 352.013 512.592 352.223 512.595 352.482C512.592 352.704 512.673 352.884 512.839 353.023C513.008 353.163 513.286 353.277 513.674 353.366L514.977 353.645C515.699 353.801 516.236 354.048 516.587 354.386C516.942 354.724 517.121 355.166 517.124 355.713C517.121 356.194 516.98 356.618 516.702 356.986C516.427 357.35 516.044 357.635 515.553 357.841C515.063 358.046 514.499 358.149 513.863 358.149C512.928 358.149 512.176 357.954 511.606 357.562C511.036 357.168 510.696 356.62 510.587 355.917L512.342 355.748C512.421 356.093 512.59 356.353 512.849 356.528C513.107 356.704 513.444 356.792 513.858 356.792C514.286 356.792 514.629 356.704 514.887 356.528C515.149 356.353 515.28 356.136 515.28 355.877C515.28 355.658 515.195 355.478 515.026 355.335C514.861 355.193 514.602 355.083 514.251 355.007L512.948 354.734C512.216 354.581 511.674 354.324 511.322 353.963C510.971 353.598 510.797 353.138 510.8 352.581C510.797 352.11 510.925 351.703 511.183 351.358C511.445 351.01 511.808 350.741 512.272 350.553C512.739 350.36 513.278 350.264 513.888 350.264C514.783 350.264 515.487 350.455 516.001 350.836C516.518 351.217 516.838 351.732 516.96 352.382ZM519.727 360.864C519.482 360.864 519.255 360.844 519.046 360.804C518.84 360.768 518.676 360.724 518.554 360.675L518.971 359.273C519.233 359.349 519.467 359.385 519.672 359.382C519.878 359.379 520.058 359.314 520.214 359.188C520.373 359.066 520.507 358.86 520.617 358.572L520.771 358.159L518.002 350.364H519.911L521.671 356.131H521.75L523.515 350.364H525.429L522.372 358.925C522.229 359.329 522.04 359.675 521.805 359.964C521.57 360.255 521.281 360.478 520.94 360.63C520.602 360.786 520.198 360.864 519.727 360.864ZM532.71 352.382L531.07 352.561C531.023 352.395 530.942 352.24 530.826 352.094C530.713 351.948 530.561 351.83 530.369 351.741C530.176 351.651 529.941 351.607 529.663 351.607C529.288 351.607 528.973 351.688 528.718 351.85C528.466 352.013 528.342 352.223 528.345 352.482C528.342 352.704 528.423 352.884 528.589 353.023C528.758 353.163 529.036 353.277 529.424 353.366L530.727 353.645C531.449 353.801 531.986 354.048 532.337 354.386C532.692 354.724 532.871 355.166 532.874 355.713C532.871 356.194 532.73 356.618 532.452 356.986C532.177 357.35 531.794 357.635 531.303 357.841C530.813 358.046 530.249 358.149 529.613 358.149C528.678 358.149 527.926 357.954 527.356 357.562C526.786 357.168 526.446 356.62 526.337 355.917L528.092 355.748C528.171 356.093 528.34 356.353 528.599 356.528C528.857 356.704 529.194 356.792 529.608 356.792C530.036 356.792 530.379 356.704 530.637 356.528C530.899 356.353 531.03 356.136 531.03 355.877C531.03 355.658 530.945 355.478 530.776 355.335C530.611 355.193 530.352 355.083 530.001 355.007L528.698 354.734C527.966 354.581 527.424 354.324 527.072 353.963C526.721 353.598 526.547 353.138 526.55 352.581C526.547 352.11 526.675 351.703 526.933 351.358C527.195 351.01 527.558 350.741 528.022 350.553C528.489 350.36 529.028 350.264 529.638 350.264C530.533 350.264 531.237 350.455 531.751 350.836C532.268 351.217 532.588 351.732 532.71 352.382ZM538.172 350.364V351.756H533.782V350.364H538.172ZM534.865 348.534H536.665V355.703C536.665 355.945 536.702 356.131 536.775 356.26C536.851 356.386 536.95 356.472 537.073 356.518C537.195 356.565 537.331 356.588 537.48 356.588C537.593 356.588 537.696 356.58 537.789 356.563C537.885 356.547 537.958 356.532 538.007 356.518L538.311 357.925C538.215 357.959 538.077 357.995 537.898 358.035C537.722 358.075 537.507 358.098 537.252 358.104C536.801 358.118 536.395 358.05 536.034 357.901C535.672 357.748 535.386 357.513 535.174 357.195C534.965 356.876 534.862 356.479 534.865 356.001V348.534ZM542.975 358.149C542.21 358.149 541.548 357.99 540.992 357.672C540.438 357.35 540.012 356.896 539.714 356.31C539.416 355.72 539.267 355.025 539.267 354.227C539.267 353.441 539.416 352.752 539.714 352.158C540.016 351.562 540.436 351.098 540.977 350.766C541.517 350.432 542.152 350.264 542.881 350.264C543.352 350.264 543.796 350.34 544.213 350.493C544.634 350.642 545.005 350.874 545.327 351.189C545.652 351.504 545.907 351.905 546.093 352.392C546.278 352.876 546.371 353.453 546.371 354.122V354.674H540.112V353.461H544.646C544.642 353.116 544.568 352.81 544.422 352.541C544.276 352.269 544.072 352.056 543.811 351.9C543.552 351.744 543.25 351.666 542.906 351.666C542.538 351.666 542.215 351.756 541.936 351.935C541.658 352.11 541.441 352.342 541.285 352.631C541.133 352.916 541.055 353.229 541.051 353.57V354.629C541.051 355.073 541.133 355.455 541.295 355.773C541.457 356.088 541.684 356.33 541.976 356.499C542.268 356.664 542.609 356.747 543 356.747C543.262 356.747 543.499 356.711 543.711 356.638C543.923 356.562 544.107 356.451 544.263 356.305C544.419 356.159 544.536 355.978 544.616 355.763L546.296 355.952C546.19 356.396 545.988 356.784 545.69 357.115C545.395 357.443 545.017 357.698 544.556 357.881C544.096 358.06 543.569 358.149 542.975 358.149ZM547.893 358V350.364H549.614V351.661H549.703C549.862 351.224 550.126 350.882 550.494 350.637C550.862 350.388 551.301 350.264 551.811 350.264C552.328 350.264 552.764 350.39 553.119 350.642C553.477 350.891 553.728 351.23 553.874 351.661H553.954C554.123 351.237 554.408 350.899 554.809 350.647C555.213 350.392 555.692 350.264 556.246 350.264C556.948 350.264 557.522 350.486 557.966 350.93C558.41 351.375 558.632 352.022 558.632 352.874V358H556.827V353.153C556.827 352.679 556.701 352.332 556.45 352.114C556.198 351.892 555.889 351.781 555.525 351.781C555.091 351.781 554.751 351.916 554.506 352.188C554.264 352.457 554.143 352.806 554.143 353.237V358H552.378V353.078C552.378 352.684 552.259 352.369 552.02 352.134C551.785 351.898 551.476 351.781 551.095 351.781C550.837 351.781 550.601 351.847 550.389 351.979C550.177 352.109 550.008 352.293 549.882 352.531C549.756 352.767 549.693 353.042 549.693 353.357V358H547.893Z" fill="#59645F" style="fill:#59645F;fill:color(display-p3 0.3490 0.3922 0.3725);fill-opacity:1;"/>
<path fill-rule="evenodd" clip-rule="evenodd" d="M34.3148 24.0001C28.623 24.0001 24 28.6579 24 34.3714V91.6287C24 97.3422 28.6231 101.996 34.3148 101.996L108.673 102C114.365 102 119 97.3463 119 91.6328V34.3713C119 28.6578 114.365 24 108.673 24L34.3148 24.0001ZM34.3148 27.286H108.673C112.604 27.286 115.72 30.4159 115.72 34.3714V41.9249L27.2764 41.929V34.3755C27.2764 30.42 30.3843 27.2901 34.3153 27.2901L34.3148 27.286ZM27.2804 45.2154H115.72V91.6297C115.72 95.5851 112.604 98.7109 108.673 98.7109L34.3146 98.715C30.3836 98.715 27.2756 95.5851 27.2756 91.6338L27.2804 45.2154ZM71.4964 51.1917C59.3679 51.1917 49.5037 61.0865 49.5037 73.2522C49.5037 85.4178 59.3681 95.3127 71.4964 95.3127C83.6249 95.3127 93.4892 85.4178 93.4892 73.2522C93.4892 61.0865 83.6247 51.1917 71.4964 51.1917ZM71.4964 54.4776C72.1229 54.4776 72.7986 54.761 73.5971 55.5825C74.3956 56.3999 75.2268 57.7267 75.9312 59.4395C76.4307 60.647 76.8689 62.0477 77.2251 63.5879L65.7591 63.592C66.1195 62.0518 66.5576 60.6511 67.0531 59.4436C67.7574 57.7308 68.5846 56.4041 69.3872 55.5867C70.1857 54.7693 70.8655 54.4817 71.4919 54.4817L71.4964 54.4776ZM65.3624 55.5045C64.8751 56.3095 64.437 57.205 64.0357 58.1785C63.3723 59.7844 62.8237 61.604 62.4018 63.5879L55.4366 63.592C57.6764 59.846 61.1817 56.9585 65.3625 55.5086L65.3624 55.5045ZM77.6387 55.5086C81.8154 56.9585 85.3164 59.846 87.5563 63.5879L80.5951 63.592C80.1774 61.6081 79.6287 59.7844 78.9654 58.1826C78.5682 57.2091 78.1259 56.3137 77.6346 55.5127L77.6387 55.5086ZM53.8807 66.8743H61.841C61.579 68.8951 61.4356 71.035 61.4356 73.2531C61.4356 75.4711 61.579 77.6028 61.841 79.6196L53.8766 79.6237C53.1641 77.6357 52.775 75.4957 52.775 73.2572C52.775 71.0145 53.164 68.8704 53.8807 66.8784V66.8743ZM65.1496 66.8743H77.8358C78.1183 68.8663 78.278 71.0186 78.278 73.2531C78.278 75.4875 78.1183 77.6316 77.8358 79.6196L65.1496 79.6237C64.867 77.6357 64.7114 75.4916 64.7114 73.2572C64.7114 71.0187 64.867 68.8704 65.1496 66.8784V66.8743ZM81.1525 66.8743H89.1046C89.8171 68.8663 90.2102 71.0104 90.2102 73.2531C90.2102 75.4875 89.8212 77.6316 89.1087 79.6196H81.1483C81.4104 77.6028 81.5496 75.4711 81.5496 73.2531C81.5496 71.035 81.4104 68.8951 81.1483 66.8743H81.1525ZM55.429 82.9096H62.3983C62.82 84.8935 63.3729 86.7131 64.0321 88.3191C64.4334 89.2925 64.8757 90.1962 65.3629 91.0054C61.178 89.5555 57.6689 86.6597 55.429 82.9096ZM65.7602 82.9096H77.2262C76.8658 84.4499 76.4277 85.8506 75.9322 87.0581C75.2279 88.7709 74.3967 90.0976 73.5981 90.915C72.7995 91.7325 72.124 92.0323 71.4975 92.0323C70.8709 92.0323 70.1912 91.7365 69.3928 90.915C68.5902 90.0977 67.763 88.7709 67.0587 87.0581C66.5591 85.8506 66.1206 84.4499 65.7602 82.9096ZM80.5953 82.9096H87.5606C85.3207 86.6597 81.8155 89.5513 77.6306 91.0013C78.122 90.1921 78.5642 89.2926 78.9696 88.3191C79.6329 86.7131 80.1775 84.8935 80.5993 82.9096H80.5953Z" fill="#9DA3AE" style="fill:#9DA3AE;fill:color(display-p3 0.6157 0.6392 0.6824);fill-opacity:1;"/>
<path d="M101 34.4899C101 31.566 103.333 29.1492 106.222 29H106.361H106.5C109.518 29 112 31.4663 112 34.4899C112 37.5136 109.518 40 106.5 40C103.482 40 101 37.5135 101 34.4899Z" fill="#9DA3AE" style="fill:#9DA3AE;fill:color(display-p3 0.6157 0.6392 0.6824);fill-opacity:1;"/>
<path d="M59.274 123L58.224 112.78H59.736L60.352 119.92C60.3987 120.34 60.436 120.97 60.464 121.81C60.5387 120.97 60.5993 120.34 60.646 119.92L61.486 112.78H62.956L63.74 119.92L63.964 121.81C63.992 120.97 64.0293 120.34 64.076 119.92L64.678 112.78H66.176L65.07 123H63.138L62.382 115.832C62.326 115.356 62.27 114.707 62.214 113.886C62.158 114.707 62.102 115.356 62.046 115.832L61.22 123H59.274ZM67.6265 123V112.78H73.7585V114.292H69.3485V116.966H73.2685V118.478H69.3485V121.488H73.7585V123H67.6265ZM75.8671 123V112.78H79.0031C79.6564 112.78 80.2257 112.887 80.7111 113.102C81.1964 113.317 81.5697 113.625 81.8311 114.026C82.0924 114.418 82.2231 114.88 82.2231 115.412C82.2231 115.86 82.1204 116.257 81.9151 116.602C81.7097 116.947 81.4297 117.213 81.0751 117.4C80.7204 117.577 80.3191 117.666 79.8711 117.666V117.61C80.3657 117.601 80.8091 117.694 81.2011 117.89C81.5931 118.086 81.9011 118.375 82.1251 118.758C82.3491 119.131 82.4611 119.575 82.4611 120.088C82.4611 120.676 82.3257 121.189 82.0551 121.628C81.7844 122.067 81.4017 122.407 80.9071 122.65C80.4124 122.883 79.8291 123 79.1571 123H75.8671ZM79.0451 121.544C79.5584 121.544 79.9597 121.409 80.2491 121.138C80.5477 120.858 80.6971 120.48 80.6971 120.004C80.6971 119.519 80.5477 119.131 80.2491 118.842C79.9597 118.553 79.5584 118.408 79.0451 118.408H77.5751V121.544H79.0451ZM78.9751 116.994C79.4417 116.994 79.8057 116.873 80.0671 116.63C80.3377 116.378 80.4731 116.037 80.4731 115.608C80.4731 115.188 80.3377 114.857 80.0671 114.614C79.8057 114.362 79.4417 114.236 78.9751 114.236H77.5751V116.994H78.9751Z" fill="#9DA3AE" style="fill:#9DA3AE;fill:color(display-p3 0.6157 0.6392 0.6824);fill-opacity:1;"/>
<path fill-rule="evenodd" clip-rule="evenodd" d="M34.4234 146C28.6716 146 24 150.693 24 156.448V214.131C24 219.887 28.6718 224.575 34.4234 224.575L109.564 224.579C115.316 224.579 120 219.891 120 214.135V156.448C120 150.692 115.316 146 109.564 146L34.4234 146ZM34.4234 149.31H109.564C113.537 149.31 116.686 152.464 116.686 156.448V164.058L27.3109 164.062V156.452C27.3109 152.468 30.4515 149.315 34.4239 149.315L34.4234 149.31ZM35.5323 155.037C34.3282 155.099 33.3558 156.105 33.3558 157.321C33.3558 158.579 34.3903 159.614 35.6482 159.614C36.9062 159.614 37.9448 158.579 37.9448 157.321C37.9448 156.063 36.9062 155.037 35.6482 155.037H35.5903H35.5323ZM46.0468 155.037C44.8427 155.099 43.8702 156.105 43.8702 157.321C43.8702 158.579 44.9047 159.614 46.1627 159.614C47.4207 159.614 48.4551 158.579 48.4551 157.321C48.4551 156.063 47.4207 155.037 46.1627 155.037H46.1048H46.0468ZM56.5613 155.037C55.3571 155.099 54.3847 156.105 54.3847 157.321C54.3847 158.579 55.4192 159.614 56.6771 159.614C57.9351 159.614 58.9696 158.579 58.9696 157.321C58.9696 156.063 57.9351 155.037 56.6771 155.037H56.6192H56.5613ZM27.3149 167.373H116.685V214.132C116.685 218.116 113.536 221.265 109.564 221.265L34.4231 221.27C30.4507 221.27 27.3101 218.116 27.3101 214.136L27.3149 167.373Z" fill="#473CFB" style="fill:#473CFB;fill:color(display-p3 0.2784 0.2353 0.9843);fill-opacity:1;"/>
<path d="M56.3434 206.355H73.5646C75.2062 206.355 76.4354 205.126 76.4354 203.494C76.4354 201.962 75.2062 200.633 73.5646 200.633H56.3434C54.8059 200.633 53.4725 201.858 53.4725 203.494C53.4725 205.026 54.7017 206.355 56.3434 206.355Z" fill="#473CFB" style="fill:#473CFB;fill:color(display-p3 0.2784 0.2353 0.9843);fill-opacity:1;"/>
<path d="M40.6597 205.537L51.7308 194.504C53.3725 192.972 52.8598 190.93 51.7306 189.605L40.968 178.677C39.943 177.552 37.893 177.448 36.7639 178.573C35.6347 179.595 35.6347 181.33 36.7639 182.455L46.3973 192.055L37.2764 200.633C36.2514 201.654 35.6347 204.411 36.7639 205.537C37.7889 206.662 39.5306 206.662 40.6597 205.537Z" fill="#473CFB" style="fill:#473CFB;fill:color(display-p3 0.2784 0.2353 0.9843);fill-opacity:1;"/>
<path d="M63.256 247.14C62.2667 247.14 61.478 246.869 60.89 246.328C60.302 245.777 60.008 245.04 60.008 244.116V239.664C60.008 238.74 60.302 238.007 60.89 237.466C61.478 236.915 62.2667 236.64 63.256 236.64C63.9 236.64 64.4647 236.766 64.95 237.018C65.4447 237.261 65.8273 237.611 66.098 238.068C66.3687 238.525 66.504 239.057 66.504 239.664H64.74C64.74 239.188 64.6093 238.819 64.348 238.558C64.096 238.297 63.732 238.166 63.256 238.166C62.78 238.166 62.4113 238.297 62.15 238.558C61.8887 238.81 61.758 239.174 61.758 239.65V244.116C61.758 244.592 61.8887 244.961 62.15 245.222C62.4113 245.483 62.78 245.614 63.256 245.614C63.7227 245.614 64.0867 245.483 64.348 245.222C64.6093 244.961 64.74 244.592 64.74 244.116H66.504C66.504 244.723 66.3687 245.255 66.098 245.712C65.8273 246.169 65.4447 246.524 64.95 246.776C64.4647 247.019 63.9 247.14 63.256 247.14ZM74.9265 247H68.8365V236.78H70.5865V245.376H74.9265V247ZM82.9291 247H77.0491V245.46H79.1071V238.32H77.0491V236.78H82.9291V238.32H80.8711V245.46H82.9291V247Z" fill="#1A2B58" style="fill:#1A2B58;fill:color(display-p3 0.1020 0.1686 0.3451);fill-opacity:1;"/>
<line x1="32" y1="35" x2="86" y2="35" stroke="#9DA3AE" style="stroke:#9DA3AE;stroke:color(display-p3 0.6157 0.6392 0.6824);stroke-opacity:1;" stroke-width="4"/>
<path d="M46.784 371V360.78H48.856L49.85 364.028C49.9527 364.355 50.0367 364.653 50.102 364.924C50.1673 365.195 50.2093 365.391 50.228 365.512C50.2467 365.391 50.2887 365.195 50.354 364.924C50.4193 364.653 50.4987 364.355 50.592 364.028L51.544 360.78H53.616V371H51.978V367.822C51.978 367.355 51.992 366.847 52.02 366.296C52.048 365.745 52.0807 365.195 52.118 364.644C52.1553 364.093 52.1973 363.571 52.244 363.076C52.3 362.581 52.3467 362.147 52.384 361.774L51.012 366.604H49.416L48.002 361.774C48.0487 362.129 48.0953 362.549 48.142 363.034C48.1887 363.51 48.2307 364.023 48.268 364.574C48.3147 365.115 48.352 365.666 48.38 366.226C48.408 366.786 48.422 367.318 48.422 367.822V371H46.784ZM58.5945 371.14C57.9412 371.14 57.3719 371.019 56.8865 370.776C56.4105 370.524 56.0419 370.174 55.7805 369.726C55.5285 369.269 55.4025 368.732 55.4025 368.116V363.664C55.4025 363.048 55.5285 362.516 55.7805 362.068C56.0419 361.611 56.4105 361.261 56.8865 361.018C57.3719 360.766 57.9412 360.64 58.5945 360.64C59.2572 360.64 59.8265 360.766 60.3025 361.018C60.7785 361.261 61.1425 361.611 61.3945 362.068C61.6559 362.516 61.7865 363.043 61.7865 363.65V368.116C61.7865 368.732 61.6559 369.269 61.3945 369.726C61.1425 370.174 60.7785 370.524 60.3025 370.776C59.8265 371.019 59.2572 371.14 58.5945 371.14ZM58.5945 369.6C59.0705 369.6 59.4299 369.474 59.6725 369.222C59.9152 368.961 60.0365 368.592 60.0365 368.116V363.664C60.0365 363.179 59.9152 362.81 59.6725 362.558C59.4299 362.306 59.0705 362.18 58.5945 362.18C58.1185 362.18 57.7592 362.306 57.5165 362.558C57.2739 362.81 57.1525 363.179 57.1525 363.664V368.116C57.1525 368.592 57.2739 368.961 57.5165 369.222C57.7685 369.474 58.1279 369.6 58.5945 369.6ZM63.8671 371V360.78H67.0031C67.9924 360.78 68.7764 361.018 69.3551 361.494C69.9337 361.961 70.2231 362.6 70.2231 363.412C70.2231 363.869 70.1204 364.266 69.9151 364.602C69.7097 364.938 69.4297 365.199 69.0751 365.386C68.7297 365.573 68.3284 365.666 67.8711 365.666V365.61C68.3657 365.601 68.8044 365.694 69.1871 365.89C69.5791 366.077 69.8871 366.357 70.1111 366.73C70.3444 367.103 70.4611 367.556 70.4611 368.088C70.4611 368.676 70.3257 369.189 70.0551 369.628C69.7844 370.067 69.4017 370.407 68.9071 370.65C68.4217 370.883 67.8384 371 67.1571 371H63.8671ZM65.5751 369.544H67.0451C67.5584 369.544 67.9597 369.409 68.2491 369.138C68.5477 368.858 68.6971 368.48 68.6971 368.004C68.6971 367.528 68.5477 367.145 68.2491 366.856C67.9597 366.557 67.5584 366.408 67.0451 366.408H65.5751V369.544ZM65.5751 364.994H66.9751C67.4417 364.994 67.8057 364.873 68.0671 364.63C68.3377 364.378 68.4731 364.037 68.4731 363.608C68.4731 363.179 68.3377 362.843 68.0671 362.6C67.8057 362.357 67.4417 362.236 66.9751 362.236H65.5751V364.994ZM72.4436 371V369.46H74.5016V362.32H72.4436V360.78H78.3236V362.32H76.2656V369.46H78.3236V371H72.4436ZM81.0201 371V360.78H82.7701V369.376H87.1101V371H81.0201ZM89.2047 371V360.78H95.3367V362.306H90.9267V364.966H94.8467V366.478H90.9267V369.474H95.3367V371H89.2047Z" fill="#1A2B58" style="fill:#1A2B58;fill:color(display-p3 0.1020 0.1686 0.3451);fill-opacity:1;"/>
<path fill-rule="evenodd" clip-rule="evenodd" d="M60.2631 273.763C55.0682 273.763 50.8571 277.974 50.8571 283.165L50.8571 335.835C50.8571 341.026 55.0682 345.237 60.2631 345.237L82.8345 345.237C88.0295 345.237 92.2405 341.026 92.2405 335.835L92.2405 282.629C92.2405 277.73 88.2694 273.763 83.3707 273.763L60.2631 273.763ZM47.0976 283.165C47.0976 275.893 52.9909 270 60.2631 270L83.3708 270C90.3469 270 96 275.653 96 282.629L96 335.835C96 343.107 90.1068 349 82.8345 349L60.2631 349C52.9909 349 47.0976 343.107 47.0976 335.835L47.0976 283.165Z" fill="#9DA3AE" style="fill:#9DA3AE;fill:color(display-p3 0.6157 0.6392 0.6824);fill-opacity:1;"/>
<path d="M71.5489 339.593C69.4716 339.593 67.7858 337.911 67.7858 335.833C67.7858 333.756 69.4716 332.07 71.5489 332.07C73.6262 332.07 75.312 333.756 75.312 335.833C75.312 337.911 73.6262 339.593 71.5489 339.593Z" fill="#9DA3AE" style="fill:#9DA3AE;fill:color(display-p3 0.6157 0.6392 0.6824);fill-opacity:1;"/>
<path d="M100 308C99.1716 308 98.5 308.672 98.5 309.5C98.5 310.328 99.1716 311 100 311V309.5V308ZM262.061 201.061C262.646 200.475 262.646 199.525 262.061 198.939L252.515 189.393C251.929 188.808 250.979 188.808 250.393 189.393C249.808 189.979 249.808 190.929 250.393 191.515L258.879 200L250.393 208.485C249.808 209.071 249.808 210.021 250.393 210.607C250.979 211.192 251.929 211.192 252.515 210.607L262.061 201.061ZM100 309.5V311H169V309.5V308H100V309.5ZM193 285.5H194.5V224H193H191.5V285.5H193ZM217 200V201.5H261V200V198.5H217V200ZM193 224H194.5C194.5 211.574 204.574 201.5 217 201.5V200V198.5C202.917 198.5 191.5 209.917 191.5 224H193ZM169 309.5V311C183.083 311 194.5 299.583 194.5 285.5H193H191.5C191.5 297.926 181.426 308 169 308V309.5Z" fill="#E5E7EB" style="fill:#E5E7EB;fill:color(display-p3 0.8980 0.9059 0.9216);fill-opacity:1;"/>
<path d="M123 61.5C122.172 61.5 121.5 62.1716 121.5 63C121.5 63.8284 122.172 64.5 123 64.5V63V61.5ZM262.061 201.061C262.646 200.475 262.646 199.525 262.061 198.939L252.515 189.393C251.929 188.808 250.979 188.808 250.393 189.393C249.808 189.979 249.808 190.929 250.393 191.515L258.879 200L250.393 208.485C249.808 209.071 249.808 210.021 250.393 210.607C250.979 211.192 251.929 211.192 252.515 210.607L262.061 201.061ZM123 63V64.5H168V63V61.5H123V63ZM192 87H190.5V176H192H193.5V87H192ZM216 200V201.5H261V200V198.5H216V200ZM192 176H190.5C190.5 190.083 201.917 201.5 216 201.5V200V198.5C203.574 198.5 193.5 188.426 193.5 176H192ZM168 63V64.5C180.426 64.5 190.5 74.5736 190.5 87H192H193.5C193.5 72.9167 182.083 61.5 168 61.5V63Z" fill="#E5E7EB" style="fill:#E5E7EB;fill:color(display-p3 0.8980 0.9059 0.9216);fill-opacity:1;"/>
<path d="M124.43 198.642C123.601 198.642 122.93 199.314 122.931 200.143C122.931 200.971 123.603 201.642 124.432 201.642L124.431 200.142L124.43 198.642ZM262.062 201.109C262.647 200.523 262.646 199.573 262.06 198.987L252.508 189.448C251.922 188.863 250.972 188.863 250.386 189.449C249.801 190.036 249.802 190.985 250.388 191.571L258.879 200.05L250.399 208.541C249.814 209.127 249.815 210.077 250.401 210.663C250.987 211.248 251.937 211.247 252.522 210.661L262.062 201.109ZM124.431 200.142L124.432 201.642L261.001 201.549L261 200.049L260.999 198.549L124.43 198.642L124.431 200.142Z" fill="#473CFB" style="fill:#473CFB;fill:color(display-p3 0.2784 0.2353 0.9843);fill-opacity:1;"/>
</g>
<defs>
<clipPath id="clip0_24059_57493">
<rect width="1026" height="400" rx="24" fill="white" style="fill:white;fill-opacity:1;"/>
</clipPath>
</defs>
</svg>
