<svg width="1026" height="400" viewBox="0 0 1026 400" fill="none" xmlns="http://www.w3.org/2000/svg">
<g clip-path="url(#clip0_23883_279828)">
<rect width="1026" height="400" rx="24" fill="white" style="fill:white;fill-opacity:1;"/>
<rect width="1440" height="1024" transform="translate(-27)" fill="white" style="fill:white;fill-opacity:1;"/>
<circle cx="4.5" cy="27.5" r="1.5" fill="#EBEBF1" style="fill:#EBEBF1;fill:color(display-p3 0.9222 0.9222 0.9458);fill-opacity:1;"/>
<circle cx="55.5" cy="27.5" r="1.5" fill="#EBEBF1" style="fill:#EBEBF1;fill:color(display-p3 0.9222 0.9222 0.9458);fill-opacity:1;"/>
<circle cx="106.5" cy="27.5" r="1.5" fill="#EBEBF1" style="fill:#EBEBF1;fill:color(display-p3 0.9222 0.9222 0.9458);fill-opacity:1;"/>
<circle cx="157.5" cy="27.5" r="1.5" fill="#EBEBF1" style="fill:#EBEBF1;fill:color(display-p3 0.9222 0.9222 0.9458);fill-opacity:1;"/>
<circle cx="208.5" cy="27.5" r="1.5" fill="#EBEBF1" style="fill:#EBEBF1;fill:color(display-p3 0.9222 0.9222 0.9458);fill-opacity:1;"/>
<circle cx="259.5" cy="27.5" r="1.5" fill="#EBEBF1" style="fill:#EBEBF1;fill:color(display-p3 0.9222 0.9222 0.9458);fill-opacity:1;"/>
<circle cx="310.5" cy="27.5" r="1.5" fill="#EBEBF1" style="fill:#EBEBF1;fill:color(display-p3 0.9222 0.9222 0.9458);fill-opacity:1;"/>
<circle cx="361.5" cy="27.5" r="1.5" fill="#EBEBF1" style="fill:#EBEBF1;fill:color(display-p3 0.9222 0.9222 0.9458);fill-opacity:1;"/>
<circle cx="412.5" cy="27.5" r="1.5" fill="#EBEBF1" style="fill:#EBEBF1;fill:color(display-p3 0.9222 0.9222 0.9458);fill-opacity:1;"/>
<circle cx="463.5" cy="27.5" r="1.5" fill="#EBEBF1" style="fill:#EBEBF1;fill:color(display-p3 0.9222 0.9222 0.9458);fill-opacity:1;"/>
<circle cx="514.5" cy="27.5" r="1.5" fill="#EBEBF1" style="fill:#EBEBF1;fill:color(display-p3 0.9222 0.9222 0.9458);fill-opacity:1;"/>
<circle cx="565.5" cy="27.5" r="1.5" fill="#EBEBF1" style="fill:#EBEBF1;fill:color(display-p3 0.9222 0.9222 0.9458);fill-opacity:1;"/>
<circle cx="616.5" cy="27.5" r="1.5" fill="#EBEBF1" style="fill:#EBEBF1;fill:color(display-p3 0.9222 0.9222 0.9458);fill-opacity:1;"/>
<circle cx="667.5" cy="27.5" r="1.5" fill="#EBEBF1" style="fill:#EBEBF1;fill:color(display-p3 0.9222 0.9222 0.9458);fill-opacity:1;"/>
<circle cx="718.5" cy="27.5" r="1.5" fill="#EBEBF1" style="fill:#EBEBF1;fill:color(display-p3 0.9222 0.9222 0.9458);fill-opacity:1;"/>
<circle cx="769.5" cy="27.5" r="1.5" fill="#EBEBF1" style="fill:#EBEBF1;fill:color(display-p3 0.9222 0.9222 0.9458);fill-opacity:1;"/>
<circle cx="820.5" cy="27.5" r="1.5" fill="#EBEBF1" style="fill:#EBEBF1;fill:color(display-p3 0.9222 0.9222 0.9458);fill-opacity:1;"/>
<circle cx="871.5" cy="27.5" r="1.5" fill="#EBEBF1" style="fill:#EBEBF1;fill:color(display-p3 0.9222 0.9222 0.9458);fill-opacity:1;"/>
<circle cx="922.5" cy="27.5" r="1.5" fill="#EBEBF1" style="fill:#EBEBF1;fill:color(display-p3 0.9222 0.9222 0.9458);fill-opacity:1;"/>
<circle cx="973.5" cy="27.5" r="1.5" fill="#EBEBF1" style="fill:#EBEBF1;fill:color(display-p3 0.9222 0.9222 0.9458);fill-opacity:1;"/>
<circle cx="1024.5" cy="27.5" r="1.5" fill="#EBEBF1" style="fill:#EBEBF1;fill:color(display-p3 0.9222 0.9222 0.9458);fill-opacity:1;"/>
<circle cx="4.5" cy="78.5" r="1.5" fill="#EBEBF1" style="fill:#EBEBF1;fill:color(display-p3 0.9222 0.9222 0.9458);fill-opacity:1;"/>
<circle cx="55.5" cy="78.5" r="1.5" fill="#EBEBF1" style="fill:#EBEBF1;fill:color(display-p3 0.9222 0.9222 0.9458);fill-opacity:1;"/>
<circle cx="106.5" cy="78.5" r="1.5" fill="#EBEBF1" style="fill:#EBEBF1;fill:color(display-p3 0.9222 0.9222 0.9458);fill-opacity:1;"/>
<circle cx="157.5" cy="78.5" r="1.5" fill="#EBEBF1" style="fill:#EBEBF1;fill:color(display-p3 0.9222 0.9222 0.9458);fill-opacity:1;"/>
<circle cx="208.5" cy="78.5" r="1.5" fill="#EBEBF1" style="fill:#EBEBF1;fill:color(display-p3 0.9222 0.9222 0.9458);fill-opacity:1;"/>
<circle cx="259.5" cy="78.5" r="1.5" fill="#EBEBF1" style="fill:#EBEBF1;fill:color(display-p3 0.9222 0.9222 0.9458);fill-opacity:1;"/>
<circle cx="310.5" cy="78.5" r="1.5" fill="#EBEBF1" style="fill:#EBEBF1;fill:color(display-p3 0.9222 0.9222 0.9458);fill-opacity:1;"/>
<circle cx="361.5" cy="78.5" r="1.5" fill="#EBEBF1" style="fill:#EBEBF1;fill:color(display-p3 0.9222 0.9222 0.9458);fill-opacity:1;"/>
<circle cx="412.5" cy="78.5" r="1.5" fill="#EBEBF1" style="fill:#EBEBF1;fill:color(display-p3 0.9222 0.9222 0.9458);fill-opacity:1;"/>
<circle cx="463.5" cy="78.5" r="1.5" fill="#EBEBF1" style="fill:#EBEBF1;fill:color(display-p3 0.9222 0.9222 0.9458);fill-opacity:1;"/>
<circle cx="514.5" cy="78.5" r="1.5" fill="#EBEBF1" style="fill:#EBEBF1;fill:color(display-p3 0.9222 0.9222 0.9458);fill-opacity:1;"/>
<circle cx="565.5" cy="78.5" r="1.5" fill="#EBEBF1" style="fill:#EBEBF1;fill:color(display-p3 0.9222 0.9222 0.9458);fill-opacity:1;"/>
<circle cx="616.5" cy="78.5" r="1.5" fill="#EBEBF1" style="fill:#EBEBF1;fill:color(display-p3 0.9222 0.9222 0.9458);fill-opacity:1;"/>
<circle cx="667.5" cy="78.5" r="1.5" fill="#EBEBF1" style="fill:#EBEBF1;fill:color(display-p3 0.9222 0.9222 0.9458);fill-opacity:1;"/>
<circle cx="718.5" cy="78.5" r="1.5" fill="#EBEBF1" style="fill:#EBEBF1;fill:color(display-p3 0.9222 0.9222 0.9458);fill-opacity:1;"/>
<circle cx="769.5" cy="78.5" r="1.5" fill="#EBEBF1" style="fill:#EBEBF1;fill:color(display-p3 0.9222 0.9222 0.9458);fill-opacity:1;"/>
<circle cx="820.5" cy="78.5" r="1.5" fill="#EBEBF1" style="fill:#EBEBF1;fill:color(display-p3 0.9222 0.9222 0.9458);fill-opacity:1;"/>
<circle cx="871.5" cy="78.5" r="1.5" fill="#EBEBF1" style="fill:#EBEBF1;fill:color(display-p3 0.9222 0.9222 0.9458);fill-opacity:1;"/>
<circle cx="922.5" cy="78.5" r="1.5" fill="#EBEBF1" style="fill:#EBEBF1;fill:color(display-p3 0.9222 0.9222 0.9458);fill-opacity:1;"/>
<circle cx="973.5" cy="78.5" r="1.5" fill="#EBEBF1" style="fill:#EBEBF1;fill:color(display-p3 0.9222 0.9222 0.9458);fill-opacity:1;"/>
<circle cx="1024.5" cy="78.5" r="1.5" fill="#EBEBF1" style="fill:#EBEBF1;fill:color(display-p3 0.9222 0.9222 0.9458);fill-opacity:1;"/>
<circle cx="4.5" cy="129.5" r="1.5" fill="#EBEBF1" style="fill:#EBEBF1;fill:color(display-p3 0.9222 0.9222 0.9458);fill-opacity:1;"/>
<circle cx="55.5" cy="129.5" r="1.5" fill="#EBEBF1" style="fill:#EBEBF1;fill:color(display-p3 0.9222 0.9222 0.9458);fill-opacity:1;"/>
<circle cx="106.5" cy="129.5" r="1.5" fill="#EBEBF1" style="fill:#EBEBF1;fill:color(display-p3 0.9222 0.9222 0.9458);fill-opacity:1;"/>
<circle cx="157.5" cy="129.5" r="1.5" fill="#EBEBF1" style="fill:#EBEBF1;fill:color(display-p3 0.9222 0.9222 0.9458);fill-opacity:1;"/>
<circle cx="208.5" cy="129.5" r="1.5" fill="#EBEBF1" style="fill:#EBEBF1;fill:color(display-p3 0.9222 0.9222 0.9458);fill-opacity:1;"/>
<circle cx="259.5" cy="129.5" r="1.5" fill="#EBEBF1" style="fill:#EBEBF1;fill:color(display-p3 0.9222 0.9222 0.9458);fill-opacity:1;"/>
<circle cx="310.5" cy="129.5" r="1.5" fill="#EBEBF1" style="fill:#EBEBF1;fill:color(display-p3 0.9222 0.9222 0.9458);fill-opacity:1;"/>
<circle cx="361.5" cy="129.5" r="1.5" fill="#EBEBF1" style="fill:#EBEBF1;fill:color(display-p3 0.9222 0.9222 0.9458);fill-opacity:1;"/>
<circle cx="412.5" cy="129.5" r="1.5" fill="#EBEBF1" style="fill:#EBEBF1;fill:color(display-p3 0.9222 0.9222 0.9458);fill-opacity:1;"/>
<circle cx="463.5" cy="129.5" r="1.5" fill="#EBEBF1" style="fill:#EBEBF1;fill:color(display-p3 0.9222 0.9222 0.9458);fill-opacity:1;"/>
<circle cx="514.5" cy="129.5" r="1.5" fill="#EBEBF1" style="fill:#EBEBF1;fill:color(display-p3 0.9222 0.9222 0.9458);fill-opacity:1;"/>
<circle cx="565.5" cy="129.5" r="1.5" fill="#EBEBF1" style="fill:#EBEBF1;fill:color(display-p3 0.9222 0.9222 0.9458);fill-opacity:1;"/>
<circle cx="616.5" cy="129.5" r="1.5" fill="#EBEBF1" style="fill:#EBEBF1;fill:color(display-p3 0.9222 0.9222 0.9458);fill-opacity:1;"/>
<circle cx="667.5" cy="129.5" r="1.5" fill="#EBEBF1" style="fill:#EBEBF1;fill:color(display-p3 0.9222 0.9222 0.9458);fill-opacity:1;"/>
<circle cx="718.5" cy="129.5" r="1.5" fill="#EBEBF1" style="fill:#EBEBF1;fill:color(display-p3 0.9222 0.9222 0.9458);fill-opacity:1;"/>
<circle cx="769.5" cy="129.5" r="1.5" fill="#EBEBF1" style="fill:#EBEBF1;fill:color(display-p3 0.9222 0.9222 0.9458);fill-opacity:1;"/>
<circle cx="820.5" cy="129.5" r="1.5" fill="#EBEBF1" style="fill:#EBEBF1;fill:color(display-p3 0.9222 0.9222 0.9458);fill-opacity:1;"/>
<circle cx="871.5" cy="129.5" r="1.5" fill="#EBEBF1" style="fill:#EBEBF1;fill:color(display-p3 0.9222 0.9222 0.9458);fill-opacity:1;"/>
<circle cx="922.5" cy="129.5" r="1.5" fill="#EBEBF1" style="fill:#EBEBF1;fill:color(display-p3 0.9222 0.9222 0.9458);fill-opacity:1;"/>
<circle cx="973.5" cy="129.5" r="1.5" fill="#EBEBF1" style="fill:#EBEBF1;fill:color(display-p3 0.9222 0.9222 0.9458);fill-opacity:1;"/>
<circle cx="1024.5" cy="129.5" r="1.5" fill="#EBEBF1" style="fill:#EBEBF1;fill:color(display-p3 0.9222 0.9222 0.9458);fill-opacity:1;"/>
<circle cx="4.5" cy="180.5" r="1.5" fill="#EBEBF1" style="fill:#EBEBF1;fill:color(display-p3 0.9222 0.9222 0.9458);fill-opacity:1;"/>
<circle cx="55.5" cy="180.5" r="1.5" fill="#EBEBF1" style="fill:#EBEBF1;fill:color(display-p3 0.9222 0.9222 0.9458);fill-opacity:1;"/>
<circle cx="106.5" cy="180.5" r="1.5" fill="#EBEBF1" style="fill:#EBEBF1;fill:color(display-p3 0.9222 0.9222 0.9458);fill-opacity:1;"/>
<circle cx="157.5" cy="180.5" r="1.5" fill="#EBEBF1" style="fill:#EBEBF1;fill:color(display-p3 0.9222 0.9222 0.9458);fill-opacity:1;"/>
<circle cx="208.5" cy="180.5" r="1.5" fill="#EBEBF1" style="fill:#EBEBF1;fill:color(display-p3 0.9222 0.9222 0.9458);fill-opacity:1;"/>
<circle cx="259.5" cy="180.5" r="1.5" fill="#EBEBF1" style="fill:#EBEBF1;fill:color(display-p3 0.9222 0.9222 0.9458);fill-opacity:1;"/>
<circle cx="310.5" cy="180.5" r="1.5" fill="#EBEBF1" style="fill:#EBEBF1;fill:color(display-p3 0.9222 0.9222 0.9458);fill-opacity:1;"/>
<circle cx="361.5" cy="180.5" r="1.5" fill="#EBEBF1" style="fill:#EBEBF1;fill:color(display-p3 0.9222 0.9222 0.9458);fill-opacity:1;"/>
<circle cx="412.5" cy="180.5" r="1.5" fill="#EBEBF1" style="fill:#EBEBF1;fill:color(display-p3 0.9222 0.9222 0.9458);fill-opacity:1;"/>
<circle cx="463.5" cy="180.5" r="1.5" fill="#EBEBF1" style="fill:#EBEBF1;fill:color(display-p3 0.9222 0.9222 0.9458);fill-opacity:1;"/>
<circle cx="514.5" cy="180.5" r="1.5" fill="#EBEBF1" style="fill:#EBEBF1;fill:color(display-p3 0.9222 0.9222 0.9458);fill-opacity:1;"/>
<circle cx="565.5" cy="180.5" r="1.5" fill="#EBEBF1" style="fill:#EBEBF1;fill:color(display-p3 0.9222 0.9222 0.9458);fill-opacity:1;"/>
<circle cx="616.5" cy="180.5" r="1.5" fill="#EBEBF1" style="fill:#EBEBF1;fill:color(display-p3 0.9222 0.9222 0.9458);fill-opacity:1;"/>
<circle cx="667.5" cy="180.5" r="1.5" fill="#EBEBF1" style="fill:#EBEBF1;fill:color(display-p3 0.9222 0.9222 0.9458);fill-opacity:1;"/>
<circle cx="718.5" cy="180.5" r="1.5" fill="#EBEBF1" style="fill:#EBEBF1;fill:color(display-p3 0.9222 0.9222 0.9458);fill-opacity:1;"/>
<circle cx="769.5" cy="180.5" r="1.5" fill="#EBEBF1" style="fill:#EBEBF1;fill:color(display-p3 0.9222 0.9222 0.9458);fill-opacity:1;"/>
<circle cx="820.5" cy="180.5" r="1.5" fill="#EBEBF1" style="fill:#EBEBF1;fill:color(display-p3 0.9222 0.9222 0.9458);fill-opacity:1;"/>
<circle cx="871.5" cy="180.5" r="1.5" fill="#EBEBF1" style="fill:#EBEBF1;fill:color(display-p3 0.9222 0.9222 0.9458);fill-opacity:1;"/>
<circle cx="922.5" cy="180.5" r="1.5" fill="#EBEBF1" style="fill:#EBEBF1;fill:color(display-p3 0.9222 0.9222 0.9458);fill-opacity:1;"/>
<circle cx="973.5" cy="180.5" r="1.5" fill="#EBEBF1" style="fill:#EBEBF1;fill:color(display-p3 0.9222 0.9222 0.9458);fill-opacity:1;"/>
<circle cx="1024.5" cy="180.5" r="1.5" fill="#EBEBF1" style="fill:#EBEBF1;fill:color(display-p3 0.9222 0.9222 0.9458);fill-opacity:1;"/>
<circle cx="4.5" cy="231.5" r="1.5" fill="#EBEBF1" style="fill:#EBEBF1;fill:color(display-p3 0.9222 0.9222 0.9458);fill-opacity:1;"/>
<circle cx="55.5" cy="231.5" r="1.5" fill="#EBEBF1" style="fill:#EBEBF1;fill:color(display-p3 0.9222 0.9222 0.9458);fill-opacity:1;"/>
<circle cx="106.5" cy="231.5" r="1.5" fill="#EBEBF1" style="fill:#EBEBF1;fill:color(display-p3 0.9222 0.9222 0.9458);fill-opacity:1;"/>
<circle cx="157.5" cy="231.5" r="1.5" fill="#EBEBF1" style="fill:#EBEBF1;fill:color(display-p3 0.9222 0.9222 0.9458);fill-opacity:1;"/>
<circle cx="208.5" cy="231.5" r="1.5" fill="#EBEBF1" style="fill:#EBEBF1;fill:color(display-p3 0.9222 0.9222 0.9458);fill-opacity:1;"/>
<circle cx="259.5" cy="231.5" r="1.5" fill="#EBEBF1" style="fill:#EBEBF1;fill:color(display-p3 0.9222 0.9222 0.9458);fill-opacity:1;"/>
<circle cx="310.5" cy="231.5" r="1.5" fill="#EBEBF1" style="fill:#EBEBF1;fill:color(display-p3 0.9222 0.9222 0.9458);fill-opacity:1;"/>
<circle cx="361.5" cy="231.5" r="1.5" fill="#EBEBF1" style="fill:#EBEBF1;fill:color(display-p3 0.9222 0.9222 0.9458);fill-opacity:1;"/>
<circle cx="412.5" cy="231.5" r="1.5" fill="#EBEBF1" style="fill:#EBEBF1;fill:color(display-p3 0.9222 0.9222 0.9458);fill-opacity:1;"/>
<circle cx="463.5" cy="231.5" r="1.5" fill="#EBEBF1" style="fill:#EBEBF1;fill:color(display-p3 0.9222 0.9222 0.9458);fill-opacity:1;"/>
<circle cx="514.5" cy="231.5" r="1.5" fill="#EBEBF1" style="fill:#EBEBF1;fill:color(display-p3 0.9222 0.9222 0.9458);fill-opacity:1;"/>
<circle cx="565.5" cy="231.5" r="1.5" fill="#EBEBF1" style="fill:#EBEBF1;fill:color(display-p3 0.9222 0.9222 0.9458);fill-opacity:1;"/>
<circle cx="616.5" cy="231.5" r="1.5" fill="#EBEBF1" style="fill:#EBEBF1;fill:color(display-p3 0.9222 0.9222 0.9458);fill-opacity:1;"/>
<circle cx="667.5" cy="231.5" r="1.5" fill="#EBEBF1" style="fill:#EBEBF1;fill:color(display-p3 0.9222 0.9222 0.9458);fill-opacity:1;"/>
<circle cx="718.5" cy="231.5" r="1.5" fill="#EBEBF1" style="fill:#EBEBF1;fill:color(display-p3 0.9222 0.9222 0.9458);fill-opacity:1;"/>
<circle cx="769.5" cy="231.5" r="1.5" fill="#EBEBF1" style="fill:#EBEBF1;fill:color(display-p3 0.9222 0.9222 0.9458);fill-opacity:1;"/>
<circle cx="820.5" cy="231.5" r="1.5" fill="#EBEBF1" style="fill:#EBEBF1;fill:color(display-p3 0.9222 0.9222 0.9458);fill-opacity:1;"/>
<circle cx="871.5" cy="231.5" r="1.5" fill="#EBEBF1" style="fill:#EBEBF1;fill:color(display-p3 0.9222 0.9222 0.9458);fill-opacity:1;"/>
<circle cx="922.5" cy="231.5" r="1.5" fill="#EBEBF1" style="fill:#EBEBF1;fill:color(display-p3 0.9222 0.9222 0.9458);fill-opacity:1;"/>
<circle cx="973.5" cy="231.5" r="1.5" fill="#EBEBF1" style="fill:#EBEBF1;fill:color(display-p3 0.9222 0.9222 0.9458);fill-opacity:1;"/>
<circle cx="1024.5" cy="231.5" r="1.5" fill="#EBEBF1" style="fill:#EBEBF1;fill:color(display-p3 0.9222 0.9222 0.9458);fill-opacity:1;"/>
<circle cx="4.5" cy="282.5" r="1.5" fill="#EBEBF1" style="fill:#EBEBF1;fill:color(display-p3 0.9222 0.9222 0.9458);fill-opacity:1;"/>
<circle cx="55.5" cy="282.5" r="1.5" fill="#EBEBF1" style="fill:#EBEBF1;fill:color(display-p3 0.9222 0.9222 0.9458);fill-opacity:1;"/>
<circle cx="106.5" cy="282.5" r="1.5" fill="#EBEBF1" style="fill:#EBEBF1;fill:color(display-p3 0.9222 0.9222 0.9458);fill-opacity:1;"/>
<circle cx="157.5" cy="282.5" r="1.5" fill="#EBEBF1" style="fill:#EBEBF1;fill:color(display-p3 0.9222 0.9222 0.9458);fill-opacity:1;"/>
<circle cx="208.5" cy="282.5" r="1.5" fill="#EBEBF1" style="fill:#EBEBF1;fill:color(display-p3 0.9222 0.9222 0.9458);fill-opacity:1;"/>
<circle cx="259.5" cy="282.5" r="1.5" fill="#EBEBF1" style="fill:#EBEBF1;fill:color(display-p3 0.9222 0.9222 0.9458);fill-opacity:1;"/>
<circle cx="310.5" cy="282.5" r="1.5" fill="#EBEBF1" style="fill:#EBEBF1;fill:color(display-p3 0.9222 0.9222 0.9458);fill-opacity:1;"/>
<circle cx="361.5" cy="282.5" r="1.5" fill="#EBEBF1" style="fill:#EBEBF1;fill:color(display-p3 0.9222 0.9222 0.9458);fill-opacity:1;"/>
<circle cx="412.5" cy="282.5" r="1.5" fill="#EBEBF1" style="fill:#EBEBF1;fill:color(display-p3 0.9222 0.9222 0.9458);fill-opacity:1;"/>
<circle cx="463.5" cy="282.5" r="1.5" fill="#EBEBF1" style="fill:#EBEBF1;fill:color(display-p3 0.9222 0.9222 0.9458);fill-opacity:1;"/>
<circle cx="514.5" cy="282.5" r="1.5" fill="#EBEBF1" style="fill:#EBEBF1;fill:color(display-p3 0.9222 0.9222 0.9458);fill-opacity:1;"/>
<circle cx="565.5" cy="282.5" r="1.5" fill="#EBEBF1" style="fill:#EBEBF1;fill:color(display-p3 0.9222 0.9222 0.9458);fill-opacity:1;"/>
<circle cx="616.5" cy="282.5" r="1.5" fill="#EBEBF1" style="fill:#EBEBF1;fill:color(display-p3 0.9222 0.9222 0.9458);fill-opacity:1;"/>
<circle cx="667.5" cy="282.5" r="1.5" fill="#EBEBF1" style="fill:#EBEBF1;fill:color(display-p3 0.9222 0.9222 0.9458);fill-opacity:1;"/>
<circle cx="718.5" cy="282.5" r="1.5" fill="#EBEBF1" style="fill:#EBEBF1;fill:color(display-p3 0.9222 0.9222 0.9458);fill-opacity:1;"/>
<circle cx="769.5" cy="282.5" r="1.5" fill="#EBEBF1" style="fill:#EBEBF1;fill:color(display-p3 0.9222 0.9222 0.9458);fill-opacity:1;"/>
<circle cx="820.5" cy="282.5" r="1.5" fill="#EBEBF1" style="fill:#EBEBF1;fill:color(display-p3 0.9222 0.9222 0.9458);fill-opacity:1;"/>
<circle cx="871.5" cy="282.5" r="1.5" fill="#EBEBF1" style="fill:#EBEBF1;fill:color(display-p3 0.9222 0.9222 0.9458);fill-opacity:1;"/>
<circle cx="922.5" cy="282.5" r="1.5" fill="#EBEBF1" style="fill:#EBEBF1;fill:color(display-p3 0.9222 0.9222 0.9458);fill-opacity:1;"/>
<circle cx="973.5" cy="282.5" r="1.5" fill="#EBEBF1" style="fill:#EBEBF1;fill:color(display-p3 0.9222 0.9222 0.9458);fill-opacity:1;"/>
<circle cx="1024.5" cy="282.5" r="1.5" fill="#EBEBF1" style="fill:#EBEBF1;fill:color(display-p3 0.9222 0.9222 0.9458);fill-opacity:1;"/>
<circle cx="4.5" cy="333.5" r="1.5" fill="#EBEBF1" style="fill:#EBEBF1;fill:color(display-p3 0.9222 0.9222 0.9458);fill-opacity:1;"/>
<circle cx="55.5" cy="333.5" r="1.5" fill="#EBEBF1" style="fill:#EBEBF1;fill:color(display-p3 0.9222 0.9222 0.9458);fill-opacity:1;"/>
<circle cx="106.5" cy="333.5" r="1.5" fill="#EBEBF1" style="fill:#EBEBF1;fill:color(display-p3 0.9222 0.9222 0.9458);fill-opacity:1;"/>
<circle cx="157.5" cy="333.5" r="1.5" fill="#EBEBF1" style="fill:#EBEBF1;fill:color(display-p3 0.9222 0.9222 0.9458);fill-opacity:1;"/>
<circle cx="208.5" cy="333.5" r="1.5" fill="#EBEBF1" style="fill:#EBEBF1;fill:color(display-p3 0.9222 0.9222 0.9458);fill-opacity:1;"/>
<circle cx="259.5" cy="333.5" r="1.5" fill="#EBEBF1" style="fill:#EBEBF1;fill:color(display-p3 0.9222 0.9222 0.9458);fill-opacity:1;"/>
<circle cx="310.5" cy="333.5" r="1.5" fill="#EBEBF1" style="fill:#EBEBF1;fill:color(display-p3 0.9222 0.9222 0.9458);fill-opacity:1;"/>
<circle cx="361.5" cy="333.5" r="1.5" fill="#EBEBF1" style="fill:#EBEBF1;fill:color(display-p3 0.9222 0.9222 0.9458);fill-opacity:1;"/>
<circle cx="412.5" cy="333.5" r="1.5" fill="#EBEBF1" style="fill:#EBEBF1;fill:color(display-p3 0.9222 0.9222 0.9458);fill-opacity:1;"/>
<circle cx="463.5" cy="333.5" r="1.5" fill="#EBEBF1" style="fill:#EBEBF1;fill:color(display-p3 0.9222 0.9222 0.9458);fill-opacity:1;"/>
<circle cx="514.5" cy="333.5" r="1.5" fill="#EBEBF1" style="fill:#EBEBF1;fill:color(display-p3 0.9222 0.9222 0.9458);fill-opacity:1;"/>
<circle cx="565.5" cy="333.5" r="1.5" fill="#EBEBF1" style="fill:#EBEBF1;fill:color(display-p3 0.9222 0.9222 0.9458);fill-opacity:1;"/>
<circle cx="616.5" cy="333.5" r="1.5" fill="#EBEBF1" style="fill:#EBEBF1;fill:color(display-p3 0.9222 0.9222 0.9458);fill-opacity:1;"/>
<circle cx="667.5" cy="333.5" r="1.5" fill="#EBEBF1" style="fill:#EBEBF1;fill:color(display-p3 0.9222 0.9222 0.9458);fill-opacity:1;"/>
<circle cx="718.5" cy="333.5" r="1.5" fill="#EBEBF1" style="fill:#EBEBF1;fill:color(display-p3 0.9222 0.9222 0.9458);fill-opacity:1;"/>
<circle cx="769.5" cy="333.5" r="1.5" fill="#EBEBF1" style="fill:#EBEBF1;fill:color(display-p3 0.9222 0.9222 0.9458);fill-opacity:1;"/>
<circle cx="820.5" cy="333.5" r="1.5" fill="#EBEBF1" style="fill:#EBEBF1;fill:color(display-p3 0.9222 0.9222 0.9458);fill-opacity:1;"/>
<circle cx="871.5" cy="333.5" r="1.5" fill="#EBEBF1" style="fill:#EBEBF1;fill:color(display-p3 0.9222 0.9222 0.9458);fill-opacity:1;"/>
<circle cx="922.5" cy="333.5" r="1.5" fill="#EBEBF1" style="fill:#EBEBF1;fill:color(display-p3 0.9222 0.9222 0.9458);fill-opacity:1;"/>
<circle cx="973.5" cy="333.5" r="1.5" fill="#EBEBF1" style="fill:#EBEBF1;fill:color(display-p3 0.9222 0.9222 0.9458);fill-opacity:1;"/>
<circle cx="1024.5" cy="333.5" r="1.5" fill="#EBEBF1" style="fill:#EBEBF1;fill:color(display-p3 0.9222 0.9222 0.9458);fill-opacity:1;"/>
<circle cx="4.5" cy="384.5" r="1.5" fill="#EBEBF1" style="fill:#EBEBF1;fill:color(display-p3 0.9222 0.9222 0.9458);fill-opacity:1;"/>
<circle cx="55.5" cy="384.5" r="1.5" fill="#EBEBF1" style="fill:#EBEBF1;fill:color(display-p3 0.9222 0.9222 0.9458);fill-opacity:1;"/>
<circle cx="106.5" cy="384.5" r="1.5" fill="#EBEBF1" style="fill:#EBEBF1;fill:color(display-p3 0.9222 0.9222 0.9458);fill-opacity:1;"/>
<circle cx="157.5" cy="384.5" r="1.5" fill="#EBEBF1" style="fill:#EBEBF1;fill:color(display-p3 0.9222 0.9222 0.9458);fill-opacity:1;"/>
<circle cx="208.5" cy="384.5" r="1.5" fill="#EBEBF1" style="fill:#EBEBF1;fill:color(display-p3 0.9222 0.9222 0.9458);fill-opacity:1;"/>
<circle cx="259.5" cy="384.5" r="1.5" fill="#EBEBF1" style="fill:#EBEBF1;fill:color(display-p3 0.9222 0.9222 0.9458);fill-opacity:1;"/>
<circle cx="310.5" cy="384.5" r="1.5" fill="#EBEBF1" style="fill:#EBEBF1;fill:color(display-p3 0.9222 0.9222 0.9458);fill-opacity:1;"/>
<circle cx="361.5" cy="384.5" r="1.5" fill="#EBEBF1" style="fill:#EBEBF1;fill:color(display-p3 0.9222 0.9222 0.9458);fill-opacity:1;"/>
<circle cx="412.5" cy="384.5" r="1.5" fill="#EBEBF1" style="fill:#EBEBF1;fill:color(display-p3 0.9222 0.9222 0.9458);fill-opacity:1;"/>
<circle cx="463.5" cy="384.5" r="1.5" fill="#EBEBF1" style="fill:#EBEBF1;fill:color(display-p3 0.9222 0.9222 0.9458);fill-opacity:1;"/>
<circle cx="514.5" cy="384.5" r="1.5" fill="#EBEBF1" style="fill:#EBEBF1;fill:color(display-p3 0.9222 0.9222 0.9458);fill-opacity:1;"/>
<circle cx="565.5" cy="384.5" r="1.5" fill="#EBEBF1" style="fill:#EBEBF1;fill:color(display-p3 0.9222 0.9222 0.9458);fill-opacity:1;"/>
<circle cx="616.5" cy="384.5" r="1.5" fill="#EBEBF1" style="fill:#EBEBF1;fill:color(display-p3 0.9222 0.9222 0.9458);fill-opacity:1;"/>
<circle cx="667.5" cy="384.5" r="1.5" fill="#EBEBF1" style="fill:#EBEBF1;fill:color(display-p3 0.9222 0.9222 0.9458);fill-opacity:1;"/>
<circle cx="718.5" cy="384.5" r="1.5" fill="#EBEBF1" style="fill:#EBEBF1;fill:color(display-p3 0.9222 0.9222 0.9458);fill-opacity:1;"/>
<circle cx="769.5" cy="384.5" r="1.5" fill="#EBEBF1" style="fill:#EBEBF1;fill:color(display-p3 0.9222 0.9222 0.9458);fill-opacity:1;"/>
<circle cx="820.5" cy="384.5" r="1.5" fill="#EBEBF1" style="fill:#EBEBF1;fill:color(display-p3 0.9222 0.9222 0.9458);fill-opacity:1;"/>
<circle cx="871.5" cy="384.5" r="1.5" fill="#EBEBF1" style="fill:#EBEBF1;fill:color(display-p3 0.9222 0.9222 0.9458);fill-opacity:1;"/>
<circle cx="922.5" cy="384.5" r="1.5" fill="#EBEBF1" style="fill:#EBEBF1;fill:color(display-p3 0.9222 0.9222 0.9458);fill-opacity:1;"/>
<circle cx="973.5" cy="384.5" r="1.5" fill="#EBEBF1" style="fill:#EBEBF1;fill:color(display-p3 0.9222 0.9222 0.9458);fill-opacity:1;"/>
<circle cx="1024.5" cy="384.5" r="1.5" fill="#EBEBF1" style="fill:#EBEBF1;fill:color(display-p3 0.9222 0.9222 0.9458);fill-opacity:1;"/>
<g opacity="0.2">
<rect x="179" y="24" width="433" height="352" rx="24" fill="#F9FAFB" style="fill:#F9FAFB;fill:color(display-p3 0.9765 0.9804 0.9843);fill-opacity:1;"/>
<rect x="179.5" y="24.5" width="432" height="351" rx="23.5" stroke="black" stroke-opacity="0.48" style="stroke:black;stroke-opacity:0.48;"/>
</g>
<path d="M228.6 172.5H330.4C334.889 172.5 338.225 172.501 340.868 172.717C343.505 172.932 345.408 173.359 347.037 174.189C349.953 175.675 352.325 178.047 353.811 180.963C354.641 182.592 355.068 184.495 355.283 187.132C355.499 189.775 355.5 193.111 355.5 197.6V202.4C355.5 206.889 355.499 210.225 355.283 212.868C355.068 215.505 354.641 217.408 353.811 219.037C352.325 221.953 349.953 224.325 347.037 225.811C345.408 226.641 343.505 227.068 340.868 227.283C338.225 227.499 334.889 227.5 330.4 227.5H228.6C224.111 227.5 220.775 227.499 218.132 227.283C215.495 227.068 213.592 226.641 211.963 225.811C209.047 224.325 206.675 221.953 205.189 219.037C204.359 217.408 203.932 215.505 203.717 212.868C203.501 210.225 203.5 206.889 203.5 202.4V197.6C203.5 193.111 203.501 189.775 203.717 187.132C203.932 184.495 204.359 182.592 205.189 180.963C206.675 178.047 209.047 175.675 211.963 174.189C213.592 173.359 215.495 172.932 218.132 172.717C220.775 172.501 224.111 172.5 228.6 172.5Z" fill="#F3F4F6" style="fill:#F3F4F6;fill:color(display-p3 0.9529 0.9569 0.9647);fill-opacity:1;"/>
<path d="M228.6 172.5H330.4C334.889 172.5 338.225 172.501 340.868 172.717C343.505 172.932 345.408 173.359 347.037 174.189C349.953 175.675 352.325 178.047 353.811 180.963C354.641 182.592 355.068 184.495 355.283 187.132C355.499 189.775 355.5 193.111 355.5 197.6V202.4C355.5 206.889 355.499 210.225 355.283 212.868C355.068 215.505 354.641 217.408 353.811 219.037C352.325 221.953 349.953 224.325 347.037 225.811C345.408 226.641 343.505 227.068 340.868 227.283C338.225 227.499 334.889 227.5 330.4 227.5H228.6C224.111 227.5 220.775 227.499 218.132 227.283C215.495 227.068 213.592 226.641 211.963 225.811C209.047 224.325 206.675 221.953 205.189 219.037C204.359 217.408 203.932 215.505 203.717 212.868C203.501 210.225 203.5 206.889 203.5 202.4V197.6C203.5 193.111 203.501 189.775 203.717 187.132C203.932 184.495 204.359 182.592 205.189 180.963C206.675 178.047 209.047 175.675 211.963 174.189C213.592 173.359 215.495 172.932 218.132 172.717C220.775 172.501 224.111 172.5 228.6 172.5Z" stroke="#E5E7EB" style="stroke:#E5E7EB;stroke:color(display-p3 0.8980 0.9059 0.9216);stroke-opacity:1;"/>
<path fill-rule="evenodd" clip-rule="evenodd" d="M229.876 188.119C230.62 187.96 231.389 187.96 232.134 188.119C232.978 188.298 233.753 188.746 234.874 189.394C234.923 189.422 234.973 189.451 235.024 189.48L238.106 191.26C238.156 191.289 238.206 191.318 238.256 191.346C239.377 191.993 240.152 192.44 240.73 193.081C241.239 193.647 241.624 194.313 241.859 195.037C242.126 195.858 242.125 196.753 242.125 198.047C242.125 198.104 242.125 198.162 242.125 198.221V201.779C242.125 201.838 242.125 201.896 242.125 201.953C242.125 203.247 242.126 204.142 241.859 204.963C241.624 205.687 241.239 206.353 240.73 206.919C240.152 207.56 239.377 208.007 238.256 208.654C238.206 208.682 238.156 208.711 238.106 208.74L235.024 210.52C234.973 210.549 234.923 210.578 234.874 210.606C233.753 211.254 232.978 211.702 232.134 211.881C231.389 212.04 230.62 212.04 229.876 211.881C229.031 211.702 228.257 211.254 227.136 210.606C227.087 210.578 227.037 210.549 226.986 210.52L223.904 208.74C223.853 208.711 223.803 208.682 223.754 208.654C222.632 208.007 221.857 207.56 221.28 206.919C220.771 206.353 220.386 205.687 220.151 204.963C219.884 204.142 219.884 203.247 219.885 201.953C219.885 201.896 219.885 201.838 219.885 201.779V198.221C219.885 198.162 219.885 198.104 219.885 198.047C219.884 196.753 219.884 195.858 220.151 195.037C220.386 194.313 220.771 193.647 221.28 193.081C221.857 192.44 222.632 191.993 223.754 191.346C223.803 191.318 223.853 191.289 223.904 191.26L226.986 189.48C227.037 189.451 227.086 189.422 227.136 189.394C228.257 188.746 229.031 188.298 229.876 188.119ZM231.682 190.244C231.236 190.149 230.774 190.149 230.327 190.244C229.862 190.342 229.402 190.594 228.072 191.361L224.99 193.141C223.66 193.909 223.212 194.182 222.894 194.535C222.589 194.874 222.358 195.274 222.217 195.709C222.07 196.161 222.057 196.685 222.057 198.221V201.779C222.057 203.315 222.07 203.839 222.217 204.291C222.358 204.726 222.589 205.126 222.894 205.465C223.212 205.818 223.66 206.091 224.99 206.859L228.072 208.639C229.402 209.406 229.862 209.658 230.327 209.756C230.774 209.851 231.236 209.851 231.682 209.756C232.147 209.658 232.608 209.406 233.937 208.639L237.02 206.859C238.349 206.091 238.797 205.818 239.115 205.465C239.421 205.126 239.652 204.726 239.793 204.291C239.94 203.839 239.952 203.315 239.952 201.779V198.221C239.952 196.685 239.94 196.161 239.793 195.709C239.652 195.274 239.421 194.874 239.115 194.535C238.797 194.182 238.349 193.909 237.02 193.141L233.937 191.361C232.608 190.594 232.147 190.342 231.682 190.244Z" fill="#718096" style="fill:#718096;fill:color(display-p3 0.4431 0.5020 0.5882);fill-opacity:1;"/>
<circle cx="231" cy="200" r="4.5" fill="#A0AEC0" style="fill:#A0AEC0;fill:color(display-p3 0.6275 0.6824 0.7529);fill-opacity:1;"/>
<path d="M256.878 205.14C256.299 205.14 255.786 205.047 255.338 204.86C254.899 204.673 254.554 204.412 254.302 204.076C254.059 203.74 253.929 203.348 253.91 202.9H255.66C255.679 203.152 255.795 203.353 256.01 203.502C256.234 203.642 256.523 203.712 256.878 203.712H257.494C257.914 203.712 258.231 203.633 258.446 203.474C258.67 203.306 258.782 203.073 258.782 202.774C258.782 202.503 258.684 202.293 258.488 202.144C258.301 201.995 258.007 201.892 257.606 201.836L256.654 201.696C255.767 201.575 255.119 201.341 254.708 200.996C254.307 200.641 254.106 200.123 254.106 199.442C254.106 198.714 254.349 198.154 254.834 197.762C255.329 197.361 256.043 197.16 256.976 197.16H257.508C258.357 197.16 259.039 197.356 259.552 197.748C260.075 198.131 260.355 198.644 260.392 199.288H258.642C258.614 199.083 258.497 198.915 258.292 198.784C258.096 198.653 257.835 198.588 257.508 198.588H256.976C256.575 198.588 256.281 198.663 256.094 198.812C255.907 198.952 255.814 199.162 255.814 199.442C255.814 199.694 255.893 199.885 256.052 200.016C256.211 200.147 256.472 200.24 256.836 200.296L257.83 200.436C258.754 200.567 259.426 200.814 259.846 201.178C260.275 201.533 260.49 202.06 260.49 202.76C260.49 203.516 260.233 204.104 259.72 204.524C259.216 204.935 258.474 205.14 257.494 205.14H256.878ZM265.609 205.14C264.955 205.14 264.386 205.014 263.901 204.762C263.425 204.51 263.056 204.16 262.795 203.712C262.533 203.255 262.403 202.723 262.403 202.116V200.184C262.403 199.577 262.533 199.05 262.795 198.602C263.056 198.145 263.425 197.79 263.901 197.538C264.386 197.286 264.955 197.16 265.609 197.16C266.243 197.16 266.799 197.286 267.275 197.538C267.76 197.79 268.133 198.145 268.395 198.602C268.656 199.05 268.787 199.577 268.787 200.184V201.57H264.083V202.116C264.083 202.657 264.209 203.068 264.461 203.348C264.722 203.619 265.109 203.754 265.623 203.754C266.015 203.754 266.327 203.689 266.561 203.558C266.794 203.418 266.943 203.217 267.009 202.956H268.745C268.605 203.619 268.25 204.151 267.681 204.552C267.121 204.944 266.43 205.14 265.609 205.14ZM267.107 200.17C267.107 199.629 266.981 199.218 266.729 198.938C266.477 198.658 266.103 198.518 265.609 198.518C265.105 198.518 264.722 198.663 264.461 198.952C264.209 199.232 264.083 199.643 264.083 200.184V200.478L267.233 200.45L267.107 200.59V200.17ZM271.105 205V197.3H272.757V198.77H273.191L272.673 199.666C272.673 198.845 272.86 198.224 273.233 197.804C273.606 197.375 274.157 197.16 274.885 197.16C275.716 197.16 276.369 197.417 276.845 197.93C277.321 198.443 277.559 199.153 277.559 200.058V200.618H275.725V200.184C275.725 199.689 275.599 199.307 275.347 199.036C275.095 198.765 274.74 198.63 274.283 198.63C273.835 198.63 273.485 198.765 273.233 199.036C272.981 199.307 272.855 199.689 272.855 200.184V205H271.105ZM281.264 205L278.758 197.3H280.564L281.992 201.976C282.141 202.461 282.281 202.989 282.412 203.558C282.542 202.998 282.678 202.475 282.818 201.99L284.232 197.3H286.01L283.518 205H281.264ZM287.614 205V203.404H290.302V198.882H287.964V197.3H291.968V203.404H294.362V205H287.614ZM290.904 196.138C290.596 196.138 290.353 196.054 290.176 195.886C289.999 195.718 289.91 195.494 289.91 195.214C289.91 194.934 289.999 194.71 290.176 194.542C290.363 194.374 290.605 194.29 290.904 194.29H291.184C291.483 194.29 291.721 194.374 291.898 194.542C292.085 194.71 292.178 194.934 292.178 195.214C292.178 195.494 292.085 195.718 291.898 195.886C291.721 196.054 291.478 196.138 291.17 196.138H290.904ZM299.215 205.14C298.561 205.14 297.987 205.019 297.493 204.776C297.007 204.533 296.634 204.183 296.373 203.726C296.111 203.269 295.981 202.732 295.981 202.116V200.184C295.981 199.568 296.111 199.031 296.373 198.574C296.634 198.117 297.007 197.767 297.493 197.524C297.987 197.281 298.561 197.16 299.215 197.16C300.185 197.16 300.96 197.412 301.539 197.916C302.117 198.411 302.421 199.087 302.449 199.946H300.699C300.671 199.554 300.526 199.246 300.265 199.022C300.013 198.798 299.663 198.686 299.215 198.686C298.748 198.686 298.384 198.817 298.123 199.078C297.861 199.33 297.731 199.694 297.731 200.17V202.116C297.731 202.601 297.857 202.975 298.109 203.236C298.37 203.488 298.739 203.614 299.215 203.614C299.663 203.614 300.013 203.507 300.265 203.292C300.526 203.068 300.671 202.755 300.699 202.354H302.449C302.421 203.213 302.117 203.894 301.539 204.398C300.96 204.893 300.185 205.14 299.215 205.14ZM307.581 205.14C306.928 205.14 306.359 205.014 305.873 204.762C305.397 204.51 305.029 204.16 304.767 203.712C304.506 203.255 304.375 202.723 304.375 202.116V200.184C304.375 199.577 304.506 199.05 304.767 198.602C305.029 198.145 305.397 197.79 305.873 197.538C306.359 197.286 306.928 197.16 307.581 197.16C308.216 197.16 308.771 197.286 309.247 197.538C309.733 197.79 310.106 198.145 310.367 198.602C310.629 199.05 310.759 199.577 310.759 200.184V201.57H306.055V202.116C306.055 202.657 306.181 203.068 306.433 203.348C306.695 203.619 307.082 203.754 307.595 203.754C307.987 203.754 308.3 203.689 308.533 203.558C308.767 203.418 308.916 203.217 308.981 202.956H310.717C310.577 203.619 310.223 204.151 309.653 204.552C309.093 204.944 308.403 205.14 307.581 205.14ZM309.079 200.17C309.079 199.629 308.953 199.218 308.701 198.938C308.449 198.658 308.076 198.518 307.581 198.518C307.077 198.518 306.695 198.663 306.433 198.952C306.181 199.232 306.055 199.643 306.055 200.184V200.478L309.205 200.45L309.079 200.59V200.17Z" fill="#1A2B58" style="fill:#1A2B58;fill:color(display-p3 0.1020 0.1686 0.3451);fill-opacity:1;"/>
<path d="M228.6 260.5H330.4C334.889 260.5 338.225 260.501 340.868 260.717C343.505 260.932 345.408 261.359 347.037 262.189C349.953 263.675 352.325 266.047 353.811 268.963C354.641 270.592 355.068 272.495 355.283 275.132C355.499 277.775 355.5 281.111 355.5 285.6V290.4C355.5 294.889 355.499 298.225 355.283 300.868C355.068 303.505 354.641 305.408 353.811 307.037C352.325 309.953 349.953 312.325 347.037 313.811C345.408 314.641 343.505 315.068 340.868 315.283C338.225 315.499 334.889 315.5 330.4 315.5H228.6C224.111 315.5 220.775 315.499 218.132 315.283C215.495 315.068 213.592 314.641 211.963 313.811C209.047 312.325 206.675 309.953 205.189 307.037C204.359 305.408 203.932 303.505 203.717 300.868C203.501 298.225 203.5 294.889 203.5 290.4V285.6C203.5 281.111 203.501 277.775 203.717 275.132C203.932 272.495 204.359 270.592 205.189 268.963C206.675 266.047 209.047 263.675 211.963 262.189C213.592 261.359 215.495 260.932 218.132 260.717C220.775 260.501 224.111 260.5 228.6 260.5Z" fill="#F3F4F6" style="fill:#F3F4F6;fill:color(display-p3 0.9529 0.9569 0.9647);fill-opacity:1;"/>
<path d="M228.6 260.5H330.4C334.889 260.5 338.225 260.501 340.868 260.717C343.505 260.932 345.408 261.359 347.037 262.189C349.953 263.675 352.325 266.047 353.811 268.963C354.641 270.592 355.068 272.495 355.283 275.132C355.499 277.775 355.5 281.111 355.5 285.6V290.4C355.5 294.889 355.499 298.225 355.283 300.868C355.068 303.505 354.641 305.408 353.811 307.037C352.325 309.953 349.953 312.325 347.037 313.811C345.408 314.641 343.505 315.068 340.868 315.283C338.225 315.499 334.889 315.5 330.4 315.5H228.6C224.111 315.5 220.775 315.499 218.132 315.283C215.495 315.068 213.592 314.641 211.963 313.811C209.047 312.325 206.675 309.953 205.189 307.037C204.359 305.408 203.932 303.505 203.717 300.868C203.501 298.225 203.5 294.889 203.5 290.4V285.6C203.5 281.111 203.501 277.775 203.717 275.132C203.932 272.495 204.359 270.592 205.189 268.963C206.675 266.047 209.047 263.675 211.963 262.189C213.592 261.359 215.495 260.932 218.132 260.717C220.775 260.501 224.111 260.5 228.6 260.5Z" stroke="#E5E7EB" style="stroke:#E5E7EB;stroke:color(display-p3 0.8980 0.9059 0.9216);stroke-opacity:1;"/>
<path fill-rule="evenodd" clip-rule="evenodd" d="M229.876 276.119C230.62 275.96 231.389 275.96 232.134 276.119C232.978 276.298 233.753 276.746 234.874 277.394C234.923 277.422 234.973 277.451 235.024 277.48L238.106 279.26C238.156 279.289 238.206 279.318 238.256 279.346C239.377 279.993 240.152 280.44 240.73 281.081C241.239 281.647 241.624 282.313 241.859 283.037C242.126 283.858 242.125 284.753 242.125 286.047C242.125 286.104 242.125 286.162 242.125 286.221V289.779C242.125 289.838 242.125 289.896 242.125 289.953C242.125 291.247 242.126 292.142 241.859 292.963C241.624 293.687 241.239 294.353 240.73 294.919C240.152 295.56 239.377 296.007 238.256 296.654C238.206 296.682 238.156 296.711 238.106 296.74L235.024 298.52C234.973 298.549 234.923 298.578 234.874 298.606C233.753 299.254 232.978 299.702 232.134 299.881C231.389 300.04 230.62 300.04 229.876 299.881C229.031 299.702 228.257 299.254 227.136 298.606C227.087 298.578 227.037 298.549 226.986 298.52L223.904 296.74C223.853 296.711 223.803 296.682 223.754 296.654C222.632 296.007 221.857 295.56 221.28 294.919C220.771 294.353 220.386 293.687 220.151 292.963C219.884 292.142 219.884 291.247 219.885 289.953C219.885 289.896 219.885 289.838 219.885 289.779V286.221C219.885 286.162 219.885 286.104 219.885 286.047C219.884 284.753 219.884 283.858 220.151 283.037C220.386 282.313 220.771 281.647 221.28 281.081C221.857 280.44 222.632 279.993 223.754 279.346C223.803 279.318 223.853 279.289 223.904 279.26L226.986 277.48C227.037 277.451 227.086 277.422 227.136 277.394C228.257 276.746 229.031 276.298 229.876 276.119ZM231.682 278.244C231.236 278.149 230.774 278.149 230.327 278.244C229.862 278.342 229.402 278.594 228.072 279.361L224.99 281.141C223.66 281.909 223.212 282.182 222.894 282.535C222.589 282.874 222.358 283.274 222.217 283.709C222.07 284.161 222.057 284.685 222.057 286.221V289.779C222.057 291.315 222.07 291.839 222.217 292.291C222.358 292.726 222.589 293.126 222.894 293.465C223.212 293.818 223.66 294.091 224.99 294.859L228.072 296.639C229.402 297.406 229.862 297.658 230.327 297.756C230.774 297.851 231.236 297.851 231.682 297.756C232.147 297.658 232.608 297.406 233.937 296.639L237.02 294.859C238.349 294.091 238.797 293.818 239.115 293.465C239.421 293.126 239.652 292.726 239.793 292.291C239.94 291.839 239.952 291.315 239.952 289.779V286.221C239.952 284.685 239.94 284.161 239.793 283.709C239.652 283.274 239.421 282.874 239.115 282.535C238.797 282.182 238.349 281.909 237.02 281.141L233.937 279.361C232.608 278.594 232.147 278.342 231.682 278.244Z" fill="#718096" style="fill:#718096;fill:color(display-p3 0.4431 0.5020 0.5882);fill-opacity:1;"/>
<circle cx="231" cy="288" r="4.5" fill="#A0AEC0" style="fill:#A0AEC0;fill:color(display-p3 0.6275 0.6824 0.7529);fill-opacity:1;"/>
<path d="M256.878 293.14C256.299 293.14 255.786 293.047 255.338 292.86C254.899 292.673 254.554 292.412 254.302 292.076C254.059 291.74 253.929 291.348 253.91 290.9H255.66C255.679 291.152 255.795 291.353 256.01 291.502C256.234 291.642 256.523 291.712 256.878 291.712H257.494C257.914 291.712 258.231 291.633 258.446 291.474C258.67 291.306 258.782 291.073 258.782 290.774C258.782 290.503 258.684 290.293 258.488 290.144C258.301 289.995 258.007 289.892 257.606 289.836L256.654 289.696C255.767 289.575 255.119 289.341 254.708 288.996C254.307 288.641 254.106 288.123 254.106 287.442C254.106 286.714 254.349 286.154 254.834 285.762C255.329 285.361 256.043 285.16 256.976 285.16H257.508C258.357 285.16 259.039 285.356 259.552 285.748C260.075 286.131 260.355 286.644 260.392 287.288H258.642C258.614 287.083 258.497 286.915 258.292 286.784C258.096 286.653 257.835 286.588 257.508 286.588H256.976C256.575 286.588 256.281 286.663 256.094 286.812C255.907 286.952 255.814 287.162 255.814 287.442C255.814 287.694 255.893 287.885 256.052 288.016C256.211 288.147 256.472 288.24 256.836 288.296L257.83 288.436C258.754 288.567 259.426 288.814 259.846 289.178C260.275 289.533 260.49 290.06 260.49 290.76C260.49 291.516 260.233 292.104 259.72 292.524C259.216 292.935 258.474 293.14 257.494 293.14H256.878ZM265.609 293.14C264.955 293.14 264.386 293.014 263.901 292.762C263.425 292.51 263.056 292.16 262.795 291.712C262.533 291.255 262.403 290.723 262.403 290.116V288.184C262.403 287.577 262.533 287.05 262.795 286.602C263.056 286.145 263.425 285.79 263.901 285.538C264.386 285.286 264.955 285.16 265.609 285.16C266.243 285.16 266.799 285.286 267.275 285.538C267.76 285.79 268.133 286.145 268.395 286.602C268.656 287.05 268.787 287.577 268.787 288.184V289.57H264.083V290.116C264.083 290.657 264.209 291.068 264.461 291.348C264.722 291.619 265.109 291.754 265.623 291.754C266.015 291.754 266.327 291.689 266.561 291.558C266.794 291.418 266.943 291.217 267.009 290.956H268.745C268.605 291.619 268.25 292.151 267.681 292.552C267.121 292.944 266.43 293.14 265.609 293.14ZM267.107 288.17C267.107 287.629 266.981 287.218 266.729 286.938C266.477 286.658 266.103 286.518 265.609 286.518C265.105 286.518 264.722 286.663 264.461 286.952C264.209 287.232 264.083 287.643 264.083 288.184V288.478L267.233 288.45L267.107 288.59V288.17ZM271.105 293V285.3H272.757V286.77H273.191L272.673 287.666C272.673 286.845 272.86 286.224 273.233 285.804C273.606 285.375 274.157 285.16 274.885 285.16C275.716 285.16 276.369 285.417 276.845 285.93C277.321 286.443 277.559 287.153 277.559 288.058V288.618H275.725V288.184C275.725 287.689 275.599 287.307 275.347 287.036C275.095 286.765 274.74 286.63 274.283 286.63C273.835 286.63 273.485 286.765 273.233 287.036C272.981 287.307 272.855 287.689 272.855 288.184V293H271.105ZM281.264 293L278.758 285.3H280.564L281.992 289.976C282.141 290.461 282.281 290.989 282.412 291.558C282.542 290.998 282.678 290.475 282.818 289.99L284.232 285.3H286.01L283.518 293H281.264ZM287.614 293V291.404H290.302V286.882H287.964V285.3H291.968V291.404H294.362V293H287.614ZM290.904 284.138C290.596 284.138 290.353 284.054 290.176 283.886C289.999 283.718 289.91 283.494 289.91 283.214C289.91 282.934 289.999 282.71 290.176 282.542C290.363 282.374 290.605 282.29 290.904 282.29H291.184C291.483 282.29 291.721 282.374 291.898 282.542C292.085 282.71 292.178 282.934 292.178 283.214C292.178 283.494 292.085 283.718 291.898 283.886C291.721 284.054 291.478 284.138 291.17 284.138H290.904ZM299.215 293.14C298.561 293.14 297.987 293.019 297.493 292.776C297.007 292.533 296.634 292.183 296.373 291.726C296.111 291.269 295.981 290.732 295.981 290.116V288.184C295.981 287.568 296.111 287.031 296.373 286.574C296.634 286.117 297.007 285.767 297.493 285.524C297.987 285.281 298.561 285.16 299.215 285.16C300.185 285.16 300.96 285.412 301.539 285.916C302.117 286.411 302.421 287.087 302.449 287.946H300.699C300.671 287.554 300.526 287.246 300.265 287.022C300.013 286.798 299.663 286.686 299.215 286.686C298.748 286.686 298.384 286.817 298.123 287.078C297.861 287.33 297.731 287.694 297.731 288.17V290.116C297.731 290.601 297.857 290.975 298.109 291.236C298.37 291.488 298.739 291.614 299.215 291.614C299.663 291.614 300.013 291.507 300.265 291.292C300.526 291.068 300.671 290.755 300.699 290.354H302.449C302.421 291.213 302.117 291.894 301.539 292.398C300.96 292.893 300.185 293.14 299.215 293.14ZM307.581 293.14C306.928 293.14 306.359 293.014 305.873 292.762C305.397 292.51 305.029 292.16 304.767 291.712C304.506 291.255 304.375 290.723 304.375 290.116V288.184C304.375 287.577 304.506 287.05 304.767 286.602C305.029 286.145 305.397 285.79 305.873 285.538C306.359 285.286 306.928 285.16 307.581 285.16C308.216 285.16 308.771 285.286 309.247 285.538C309.733 285.79 310.106 286.145 310.367 286.602C310.629 287.05 310.759 287.577 310.759 288.184V289.57H306.055V290.116C306.055 290.657 306.181 291.068 306.433 291.348C306.695 291.619 307.082 291.754 307.595 291.754C307.987 291.754 308.3 291.689 308.533 291.558C308.767 291.418 308.916 291.217 308.981 290.956H310.717C310.577 291.619 310.223 292.151 309.653 292.552C309.093 292.944 308.403 293.14 307.581 293.14ZM309.079 288.17C309.079 287.629 308.953 287.218 308.701 286.938C308.449 286.658 308.076 286.518 307.581 286.518C307.077 286.518 306.695 286.663 306.433 286.952C306.181 287.232 306.055 287.643 306.055 288.184V288.478L309.205 288.45L309.079 288.59V288.17Z" fill="#1A2B58" style="fill:#1A2B58;fill:color(display-p3 0.1020 0.1686 0.3451);fill-opacity:1;"/>
<path d="M228.6 84.5H330.4C334.889 84.5 338.225 84.5009 340.868 84.7168C343.505 84.9323 345.408 85.3594 347.037 86.1895C349.953 87.6755 352.325 90.0466 353.811 92.9629C354.641 94.5919 355.068 96.4948 355.283 99.1318C355.499 101.775 355.5 105.111 355.5 109.6V114.4C355.5 118.889 355.499 122.225 355.283 124.868C355.068 127.505 354.641 129.408 353.811 131.037C352.325 133.953 349.953 136.325 347.037 137.811C345.408 138.641 343.505 139.068 340.868 139.283C338.225 139.499 334.889 139.5 330.4 139.5H228.6C224.111 139.5 220.775 139.499 218.132 139.283C215.495 139.068 213.592 138.641 211.963 137.811C209.047 136.325 206.675 133.953 205.189 131.037C204.359 129.408 203.932 127.505 203.717 124.868C203.501 122.225 203.5 118.889 203.5 114.4V109.6C203.5 105.111 203.501 101.775 203.717 99.1318C203.932 96.4948 204.359 94.5919 205.189 92.9629C206.675 90.0466 209.047 87.6755 211.963 86.1895C213.592 85.3594 215.495 84.9323 218.132 84.7168C220.775 84.5009 224.111 84.5 228.6 84.5Z" fill="#F3F4F6" style="fill:#F3F4F6;fill:color(display-p3 0.9529 0.9569 0.9647);fill-opacity:1;"/>
<path d="M228.6 84.5H330.4C334.889 84.5 338.225 84.5009 340.868 84.7168C343.505 84.9323 345.408 85.3594 347.037 86.1895C349.953 87.6755 352.325 90.0466 353.811 92.9629C354.641 94.5919 355.068 96.4948 355.283 99.1318C355.499 101.775 355.5 105.111 355.5 109.6V114.4C355.5 118.889 355.499 122.225 355.283 124.868C355.068 127.505 354.641 129.408 353.811 131.037C352.325 133.953 349.953 136.325 347.037 137.811C345.408 138.641 343.505 139.068 340.868 139.283C338.225 139.499 334.889 139.5 330.4 139.5H228.6C224.111 139.5 220.775 139.499 218.132 139.283C215.495 139.068 213.592 138.641 211.963 137.811C209.047 136.325 206.675 133.953 205.189 131.037C204.359 129.408 203.932 127.505 203.717 124.868C203.501 122.225 203.5 118.889 203.5 114.4V109.6C203.5 105.111 203.501 101.775 203.717 99.1318C203.932 96.4948 204.359 94.5919 205.189 92.9629C206.675 90.0466 209.047 87.6755 211.963 86.1895C213.592 85.3594 215.495 84.9323 218.132 84.7168C220.775 84.5009 224.111 84.5 228.6 84.5Z" stroke="#E5E7EB" style="stroke:#E5E7EB;stroke:color(display-p3 0.8980 0.9059 0.9216);stroke-opacity:1;"/>
<path fill-rule="evenodd" clip-rule="evenodd" d="M229.876 100.119C230.62 99.9604 231.389 99.9604 232.134 100.119C232.978 100.298 233.753 100.746 234.874 101.394C234.923 101.422 234.973 101.451 235.024 101.48L238.106 103.26C238.156 103.289 238.206 103.318 238.256 103.346C239.377 103.993 240.152 104.44 240.73 105.081C241.239 105.647 241.624 106.313 241.859 107.037C242.126 107.858 242.125 108.753 242.125 110.047C242.125 110.104 242.125 110.162 242.125 110.221V113.779C242.125 113.838 242.125 113.896 242.125 113.953C242.125 115.247 242.126 116.142 241.859 116.963C241.624 117.687 241.239 118.353 240.73 118.919C240.152 119.56 239.377 120.007 238.256 120.654C238.206 120.682 238.156 120.711 238.106 120.74L235.024 122.52C234.973 122.549 234.923 122.578 234.874 122.606C233.753 123.254 232.978 123.702 232.134 123.881C231.389 124.04 230.62 124.04 229.876 123.881C229.031 123.702 228.257 123.254 227.136 122.606C227.087 122.578 227.037 122.549 226.986 122.52L223.904 120.74C223.853 120.711 223.803 120.682 223.754 120.654C222.632 120.007 221.857 119.56 221.28 118.919C220.771 118.353 220.386 117.687 220.151 116.963C219.884 116.142 219.884 115.247 219.885 113.953C219.885 113.896 219.885 113.838 219.885 113.779V110.221C219.885 110.162 219.885 110.104 219.885 110.047C219.884 108.753 219.884 107.858 220.151 107.037C220.386 106.313 220.771 105.647 221.28 105.081C221.857 104.44 222.632 103.993 223.754 103.346C223.803 103.318 223.853 103.289 223.904 103.26L226.986 101.48C227.037 101.451 227.086 101.422 227.136 101.394C228.257 100.746 229.031 100.298 229.876 100.119ZM231.682 102.244C231.236 102.149 230.774 102.149 230.327 102.244C229.862 102.342 229.402 102.594 228.072 103.361L224.99 105.141C223.66 105.909 223.212 106.182 222.894 106.535C222.589 106.874 222.358 107.274 222.217 107.709C222.07 108.161 222.057 108.685 222.057 110.221V113.779C222.057 115.315 222.07 115.839 222.217 116.291C222.358 116.726 222.589 117.126 222.894 117.465C223.212 117.818 223.66 118.091 224.99 118.859L228.072 120.639C229.402 121.406 229.862 121.658 230.327 121.756C230.774 121.851 231.236 121.851 231.682 121.756C232.147 121.658 232.608 121.406 233.937 120.639L237.02 118.859C238.349 118.091 238.797 117.818 239.115 117.465C239.421 117.126 239.652 116.726 239.793 116.291C239.94 115.839 239.952 115.315 239.952 113.779V110.221C239.952 108.685 239.94 108.161 239.793 107.709C239.652 107.274 239.421 106.874 239.115 106.535C238.797 106.182 238.349 105.909 237.02 105.141L233.937 103.361C232.608 102.594 232.147 102.342 231.682 102.244Z" fill="#718096" style="fill:#718096;fill:color(display-p3 0.4431 0.5020 0.5882);fill-opacity:1;"/>
<circle cx="231" cy="112" r="4.5" fill="#A0AEC0" style="fill:#A0AEC0;fill:color(display-p3 0.6275 0.6824 0.7529);fill-opacity:1;"/>
<path d="M256.878 117.14C256.299 117.14 255.786 117.047 255.338 116.86C254.899 116.673 254.554 116.412 254.302 116.076C254.059 115.74 253.929 115.348 253.91 114.9H255.66C255.679 115.152 255.795 115.353 256.01 115.502C256.234 115.642 256.523 115.712 256.878 115.712H257.494C257.914 115.712 258.231 115.633 258.446 115.474C258.67 115.306 258.782 115.073 258.782 114.774C258.782 114.503 258.684 114.293 258.488 114.144C258.301 113.995 258.007 113.892 257.606 113.836L256.654 113.696C255.767 113.575 255.119 113.341 254.708 112.996C254.307 112.641 254.106 112.123 254.106 111.442C254.106 110.714 254.349 110.154 254.834 109.762C255.329 109.361 256.043 109.16 256.976 109.16H257.508C258.357 109.16 259.039 109.356 259.552 109.748C260.075 110.131 260.355 110.644 260.392 111.288H258.642C258.614 111.083 258.497 110.915 258.292 110.784C258.096 110.653 257.835 110.588 257.508 110.588H256.976C256.575 110.588 256.281 110.663 256.094 110.812C255.907 110.952 255.814 111.162 255.814 111.442C255.814 111.694 255.893 111.885 256.052 112.016C256.211 112.147 256.472 112.24 256.836 112.296L257.83 112.436C258.754 112.567 259.426 112.814 259.846 113.178C260.275 113.533 260.49 114.06 260.49 114.76C260.49 115.516 260.233 116.104 259.72 116.524C259.216 116.935 258.474 117.14 257.494 117.14H256.878ZM265.609 117.14C264.955 117.14 264.386 117.014 263.901 116.762C263.425 116.51 263.056 116.16 262.795 115.712C262.533 115.255 262.403 114.723 262.403 114.116V112.184C262.403 111.577 262.533 111.05 262.795 110.602C263.056 110.145 263.425 109.79 263.901 109.538C264.386 109.286 264.955 109.16 265.609 109.16C266.243 109.16 266.799 109.286 267.275 109.538C267.76 109.79 268.133 110.145 268.395 110.602C268.656 111.05 268.787 111.577 268.787 112.184V113.57H264.083V114.116C264.083 114.657 264.209 115.068 264.461 115.348C264.722 115.619 265.109 115.754 265.623 115.754C266.015 115.754 266.327 115.689 266.561 115.558C266.794 115.418 266.943 115.217 267.009 114.956H268.745C268.605 115.619 268.25 116.151 267.681 116.552C267.121 116.944 266.43 117.14 265.609 117.14ZM267.107 112.17C267.107 111.629 266.981 111.218 266.729 110.938C266.477 110.658 266.103 110.518 265.609 110.518C265.105 110.518 264.722 110.663 264.461 110.952C264.209 111.232 264.083 111.643 264.083 112.184V112.478L267.233 112.45L267.107 112.59V112.17ZM271.105 117V109.3H272.757V110.77H273.191L272.673 111.666C272.673 110.845 272.86 110.224 273.233 109.804C273.606 109.375 274.157 109.16 274.885 109.16C275.716 109.16 276.369 109.417 276.845 109.93C277.321 110.443 277.559 111.153 277.559 112.058V112.618H275.725V112.184C275.725 111.689 275.599 111.307 275.347 111.036C275.095 110.765 274.74 110.63 274.283 110.63C273.835 110.63 273.485 110.765 273.233 111.036C272.981 111.307 272.855 111.689 272.855 112.184V117H271.105ZM281.264 117L278.758 109.3H280.564L281.992 113.976C282.141 114.461 282.281 114.989 282.412 115.558C282.542 114.998 282.678 114.475 282.818 113.99L284.232 109.3H286.01L283.518 117H281.264ZM287.614 117V115.404H290.302V110.882H287.964V109.3H291.968V115.404H294.362V117H287.614ZM290.904 108.138C290.596 108.138 290.353 108.054 290.176 107.886C289.999 107.718 289.91 107.494 289.91 107.214C289.91 106.934 289.999 106.71 290.176 106.542C290.363 106.374 290.605 106.29 290.904 106.29H291.184C291.483 106.29 291.721 106.374 291.898 106.542C292.085 106.71 292.178 106.934 292.178 107.214C292.178 107.494 292.085 107.718 291.898 107.886C291.721 108.054 291.478 108.138 291.17 108.138H290.904ZM299.215 117.14C298.561 117.14 297.987 117.019 297.493 116.776C297.007 116.533 296.634 116.183 296.373 115.726C296.111 115.269 295.981 114.732 295.981 114.116V112.184C295.981 111.568 296.111 111.031 296.373 110.574C296.634 110.117 297.007 109.767 297.493 109.524C297.987 109.281 298.561 109.16 299.215 109.16C300.185 109.16 300.96 109.412 301.539 109.916C302.117 110.411 302.421 111.087 302.449 111.946H300.699C300.671 111.554 300.526 111.246 300.265 111.022C300.013 110.798 299.663 110.686 299.215 110.686C298.748 110.686 298.384 110.817 298.123 111.078C297.861 111.33 297.731 111.694 297.731 112.17V114.116C297.731 114.601 297.857 114.975 298.109 115.236C298.37 115.488 298.739 115.614 299.215 115.614C299.663 115.614 300.013 115.507 300.265 115.292C300.526 115.068 300.671 114.755 300.699 114.354H302.449C302.421 115.213 302.117 115.894 301.539 116.398C300.96 116.893 300.185 117.14 299.215 117.14ZM307.581 117.14C306.928 117.14 306.359 117.014 305.873 116.762C305.397 116.51 305.029 116.16 304.767 115.712C304.506 115.255 304.375 114.723 304.375 114.116V112.184C304.375 111.577 304.506 111.05 304.767 110.602C305.029 110.145 305.397 109.79 305.873 109.538C306.359 109.286 306.928 109.16 307.581 109.16C308.216 109.16 308.771 109.286 309.247 109.538C309.733 109.79 310.106 110.145 310.367 110.602C310.629 111.05 310.759 111.577 310.759 112.184V113.57H306.055V114.116C306.055 114.657 306.181 115.068 306.433 115.348C306.695 115.619 307.082 115.754 307.595 115.754C307.987 115.754 308.3 115.689 308.533 115.558C308.767 115.418 308.916 115.217 308.981 114.956H310.717C310.577 115.619 310.223 116.151 309.653 116.552C309.093 116.944 308.403 117.14 307.581 117.14ZM309.079 112.17C309.079 111.629 308.953 111.218 308.701 110.938C308.449 110.658 308.076 110.518 307.581 110.518C307.077 110.518 306.695 110.663 306.433 110.952C306.181 111.232 306.055 111.643 306.055 112.184V112.478L309.205 112.45L309.079 112.59V112.17Z" fill="#1A2B58" style="fill:#1A2B58;fill:color(display-p3 0.1020 0.1686 0.3451);fill-opacity:1;"/>
<path d="M468 173H572C580.284 173 587 179.716 587 188V212C587 220.284 580.284 227 572 227H468C459.716 227 453 220.284 453 212V188C453 179.716 459.716 173 468 173Z" fill="#F1F0FF" style="fill:#F1F0FF;fill:color(display-p3 0.9457 0.9424 1.0000);fill-opacity:1;"/>
<path d="M468 173H572C580.284 173 587 179.716 587 188V212C587 220.284 580.284 227 572 227H468C459.716 227 453 220.284 453 212V188C453 179.716 459.716 173 468 173Z" stroke="#473CFB" style="stroke:#473CFB;stroke:color(display-p3 0.2784 0.2353 0.9843);stroke-opacity:1;" stroke-width="2"/>
<path fill-rule="evenodd" clip-rule="evenodd" d="M478.876 188.119C479.62 187.96 480.389 187.96 481.134 188.119C481.978 188.298 482.753 188.746 483.874 189.394C483.923 189.422 483.973 189.451 484.024 189.48L487.106 191.26C487.156 191.289 487.206 191.318 487.256 191.346C488.377 191.993 489.152 192.44 489.73 193.081C490.239 193.647 490.624 194.313 490.859 195.037C491.126 195.858 491.125 196.753 491.125 198.047C491.125 198.104 491.125 198.162 491.125 198.221V201.779C491.125 201.838 491.125 201.896 491.125 201.953C491.125 203.247 491.126 204.142 490.859 204.963C490.624 205.687 490.239 206.353 489.73 206.919C489.152 207.56 488.377 208.007 487.256 208.654C487.206 208.682 487.156 208.711 487.106 208.74L484.024 210.52C483.973 210.549 483.923 210.578 483.874 210.606C482.753 211.254 481.978 211.702 481.134 211.881C480.389 212.04 479.62 212.04 478.876 211.881C478.031 211.702 477.257 211.254 476.136 210.606C476.087 210.578 476.037 210.549 475.986 210.52L472.904 208.74C472.853 208.711 472.803 208.682 472.754 208.654C471.632 208.007 470.857 207.56 470.28 206.919C469.771 206.353 469.386 205.687 469.151 204.963C468.884 204.142 468.884 203.247 468.885 201.953C468.885 201.896 468.885 201.838 468.885 201.779V198.221C468.885 198.162 468.885 198.104 468.885 198.047C468.884 196.753 468.884 195.858 469.151 195.037C469.386 194.313 469.771 193.647 470.28 193.081C470.857 192.44 471.632 191.993 472.754 191.346C472.803 191.318 472.853 191.289 472.904 191.26L475.986 189.48C476.037 189.451 476.086 189.422 476.136 189.394C477.257 188.746 478.031 188.298 478.876 188.119ZM480.682 190.244C480.236 190.149 479.774 190.149 479.327 190.244C478.862 190.342 478.402 190.594 477.072 191.361L473.99 193.141C472.66 193.909 472.212 194.182 471.894 194.535C471.589 194.874 471.358 195.274 471.217 195.709C471.07 196.161 471.057 196.685 471.057 198.221V201.779C471.057 203.315 471.07 203.839 471.217 204.291C471.358 204.726 471.589 205.126 471.894 205.465C472.212 205.818 472.66 206.091 473.99 206.859L477.072 208.639C478.402 209.406 478.862 209.658 479.327 209.756C479.774 209.851 480.236 209.851 480.682 209.756C481.147 209.658 481.608 209.406 482.937 208.639L486.02 206.859C487.349 206.091 487.797 205.818 488.115 205.465C488.421 205.126 488.652 204.726 488.793 204.291C488.94 203.839 488.952 203.315 488.952 201.779V198.221C488.952 196.685 488.94 196.161 488.793 195.709C488.652 195.274 488.421 194.874 488.115 194.535C487.797 194.182 487.349 193.909 486.02 193.141L482.937 191.361C481.608 190.594 481.147 190.342 480.682 190.244Z" fill="#718096" style="fill:#718096;fill:color(display-p3 0.4431 0.5020 0.5882);fill-opacity:1;"/>
<circle cx="480" cy="200" r="4.5" fill="#A0AEC0" style="fill:#A0AEC0;fill:color(display-p3 0.6275 0.6824 0.7529);fill-opacity:1;"/>
<path d="M506.242 205.14C505.589 205.14 505.015 205.019 504.52 204.776C504.035 204.533 503.661 204.183 503.4 203.726C503.139 203.269 503.008 202.732 503.008 202.116V200.184C503.008 199.568 503.139 199.031 503.4 198.574C503.661 198.117 504.035 197.767 504.52 197.524C505.015 197.281 505.589 197.16 506.242 197.16C507.213 197.16 507.987 197.412 508.566 197.916C509.145 198.411 509.448 199.087 509.476 199.946H507.726C507.698 199.554 507.553 199.246 507.292 199.022C507.04 198.798 506.69 198.686 506.242 198.686C505.775 198.686 505.411 198.817 505.15 199.078C504.889 199.33 504.758 199.694 504.758 200.17V202.116C504.758 202.601 504.884 202.975 505.136 203.236C505.397 203.488 505.766 203.614 506.242 203.614C506.69 203.614 507.04 203.507 507.292 203.292C507.553 203.068 507.698 202.755 507.726 202.354H509.476C509.448 203.213 509.145 203.894 508.566 204.398C507.987 204.893 507.213 205.14 506.242 205.14ZM514.595 205.14C513.941 205.14 513.372 205.019 512.887 204.776C512.411 204.524 512.042 204.174 511.781 203.726C511.529 203.269 511.403 202.732 511.403 202.116V200.184C511.403 199.568 511.529 199.036 511.781 198.588C512.042 198.131 512.411 197.781 512.887 197.538C513.372 197.286 513.941 197.16 514.595 197.16C515.248 197.16 515.813 197.286 516.289 197.538C516.774 197.781 517.143 198.131 517.395 198.588C517.656 199.036 517.787 199.563 517.787 200.17V202.116C517.787 202.732 517.656 203.269 517.395 203.726C517.143 204.174 516.774 204.524 516.289 204.776C515.813 205.019 515.248 205.14 514.595 205.14ZM514.595 203.614C515.061 203.614 515.416 203.483 515.659 203.222C515.911 202.961 516.037 202.592 516.037 202.116V200.184C516.037 199.699 515.911 199.33 515.659 199.078C515.416 198.817 515.061 198.686 514.595 198.686C514.128 198.686 513.769 198.817 513.517 199.078C513.274 199.33 513.153 199.699 513.153 200.184V202.116C513.153 202.592 513.274 202.961 513.517 203.222C513.769 203.483 514.128 203.614 514.595 203.614ZM524.109 205C523.344 205 522.728 204.771 522.261 204.314C521.804 203.857 521.575 203.255 521.575 202.508V196.362H519.223V194.78H523.325V202.508C523.325 202.788 523.404 203.012 523.563 203.18C523.731 203.339 523.95 203.418 524.221 203.418H526.615V205H524.109ZM532.504 205C531.738 205 531.122 204.771 530.656 204.314C530.198 203.857 529.97 203.255 529.97 202.508V196.362H527.618V194.78H531.72V202.508C531.72 202.788 531.799 203.012 531.958 203.18C532.126 203.339 532.345 203.418 532.616 203.418H535.01V205H532.504ZM539.792 205.14C539.139 205.14 538.569 205.014 538.084 204.762C537.608 204.51 537.239 204.16 536.978 203.712C536.717 203.255 536.586 202.723 536.586 202.116V200.184C536.586 199.577 536.717 199.05 536.978 198.602C537.239 198.145 537.608 197.79 538.084 197.538C538.569 197.286 539.139 197.16 539.792 197.16C540.427 197.16 540.982 197.286 541.458 197.538C541.943 197.79 542.317 198.145 542.578 198.602C542.839 199.05 542.97 199.577 542.97 200.184V201.57H538.266V202.116C538.266 202.657 538.392 203.068 538.644 203.348C538.905 203.619 539.293 203.754 539.806 203.754C540.198 203.754 540.511 203.689 540.744 203.558C540.977 203.418 541.127 203.217 541.192 202.956H542.928C542.788 203.619 542.433 204.151 541.864 204.552C541.304 204.944 540.613 205.14 539.792 205.14ZM541.29 200.17C541.29 199.629 541.164 199.218 540.912 198.938C540.66 198.658 540.287 198.518 539.792 198.518C539.288 198.518 538.905 198.663 538.644 198.952C538.392 199.232 538.266 199.643 538.266 200.184V200.478L541.416 200.45L541.29 200.59V200.17ZM548.215 205.14C547.561 205.14 546.987 205.019 546.493 204.776C546.007 204.533 545.634 204.183 545.373 203.726C545.111 203.269 544.981 202.732 544.981 202.116V200.184C544.981 199.568 545.111 199.031 545.373 198.574C545.634 198.117 546.007 197.767 546.493 197.524C546.987 197.281 547.561 197.16 548.215 197.16C549.185 197.16 549.96 197.412 550.539 197.916C551.117 198.411 551.421 199.087 551.449 199.946H549.699C549.671 199.554 549.526 199.246 549.265 199.022C549.013 198.798 548.663 198.686 548.215 198.686C547.748 198.686 547.384 198.817 547.123 199.078C546.861 199.33 546.731 199.694 546.731 200.17V202.116C546.731 202.601 546.857 202.975 547.109 203.236C547.37 203.488 547.739 203.614 548.215 203.614C548.663 203.614 549.013 203.507 549.265 203.292C549.526 203.068 549.671 202.755 549.699 202.354H551.449C551.421 203.213 551.117 203.894 550.539 204.398C549.96 204.893 549.185 205.14 548.215 205.14ZM557.407 205C556.67 205 556.091 204.795 555.671 204.384C555.261 203.973 555.055 203.409 555.055 202.69V198.882H552.969V197.3H555.055V195.2H556.819V197.3H559.773V198.882H556.819V202.69C556.819 202.933 556.875 203.115 556.987 203.236C557.109 203.357 557.291 203.418 557.533 203.418H559.633V205H557.407ZM564.962 205.14C564.308 205.14 563.739 205.019 563.254 204.776C562.778 204.524 562.409 204.174 562.148 203.726C561.896 203.269 561.77 202.732 561.77 202.116V200.184C561.77 199.568 561.896 199.036 562.148 198.588C562.409 198.131 562.778 197.781 563.254 197.538C563.739 197.286 564.308 197.16 564.962 197.16C565.615 197.16 566.18 197.286 566.656 197.538C567.141 197.781 567.51 198.131 567.762 198.588C568.023 199.036 568.154 199.563 568.154 200.17V202.116C568.154 202.732 568.023 203.269 567.762 203.726C567.51 204.174 567.141 204.524 566.656 204.776C566.18 205.019 565.615 205.14 564.962 205.14ZM564.962 203.614C565.428 203.614 565.783 203.483 566.026 203.222C566.278 202.961 566.404 202.592 566.404 202.116V200.184C566.404 199.699 566.278 199.33 566.026 199.078C565.783 198.817 565.428 198.686 564.962 198.686C564.495 198.686 564.136 198.817 563.884 199.078C563.641 199.33 563.52 199.699 563.52 200.184V202.116C563.52 202.592 563.641 202.961 563.884 203.222C564.136 203.483 564.495 203.614 564.962 203.614ZM570.472 205V197.3H572.124V198.77H572.558L572.04 199.666C572.04 198.845 572.227 198.224 572.6 197.804C572.974 197.375 573.524 197.16 574.252 197.16C575.083 197.16 575.736 197.417 576.212 197.93C576.688 198.443 576.926 199.153 576.926 200.058V200.618H575.092V200.184C575.092 199.689 574.966 199.307 574.714 199.036C574.462 198.765 574.108 198.63 573.65 198.63C573.202 198.63 572.852 198.765 572.6 199.036C572.348 199.307 572.222 199.689 572.222 200.184V205H570.472Z" fill="#1A2B58" style="fill:#1A2B58;fill:color(display-p3 0.1020 0.1686 0.3451);fill-opacity:1;"/>
<path d="M360 198.5C359.172 198.5 358.5 199.172 358.5 200C358.5 200.828 359.172 201.5 360 201.5V200V198.5ZM449.061 201.061C449.646 200.475 449.646 199.525 449.061 198.939L439.515 189.393C438.929 188.808 437.979 188.808 437.393 189.393C436.808 189.979 436.808 190.929 437.393 191.515L445.879 200L437.393 208.485C436.808 209.071 436.808 210.021 437.393 210.607C437.979 211.192 438.929 211.192 439.515 210.607L449.061 201.061ZM360 200V201.5H448V200V198.5H360V200Z" fill="#E5E7EB" style="fill:#E5E7EB;fill:color(display-p3 0.8980 0.9059 0.9216);fill-opacity:1;"/>
<path d="M360 110.5C359.172 110.5 358.5 111.172 358.5 112C358.5 112.828 359.172 113.5 360 113.5V112V110.5ZM449.061 201.061C449.646 200.475 449.646 199.525 449.061 198.939L439.515 189.393C438.929 188.808 437.979 188.808 437.393 189.393C436.808 189.979 436.808 190.929 437.393 191.515L445.879 200L437.393 208.485C436.808 209.071 436.808 210.021 437.393 210.607C437.979 211.192 438.929 211.192 439.515 210.607L449.061 201.061ZM360 112V113.5H380V112V110.5H360V112ZM404 136H402.5V176H404H405.5V136H404ZM428 200V201.5H448V200V198.5H428V200ZM404 176H402.5C402.5 190.083 413.917 201.5 428 201.5V200V198.5C415.574 198.5 405.5 188.426 405.5 176H404ZM380 112V113.5C392.426 113.5 402.5 123.574 402.5 136H404H405.5C405.5 121.917 394.083 110.5 380 110.5V112Z" fill="#E5E7EB" style="fill:#E5E7EB;fill:color(display-p3 0.8980 0.9059 0.9216);fill-opacity:1;"/>
<path d="M360 286.5C359.172 286.5 358.5 287.172 358.5 288C358.5 288.828 359.172 289.5 360 289.5V288V286.5ZM449.061 201.061C449.646 200.475 449.646 199.525 449.061 198.939L439.515 189.393C438.929 188.808 437.979 188.808 437.393 189.393C436.808 189.979 436.808 190.929 437.393 191.515L445.879 200L437.393 208.485C436.808 209.071 436.808 210.021 437.393 210.607C437.979 211.192 438.929 211.192 439.515 210.607L449.061 201.061ZM360 288V289.5H380V288V286.5H360V288ZM404 264H405.5V224H404H402.5V264H404ZM428 200V201.5H448V200V198.5H428V200ZM404 224H405.5C405.5 211.574 415.574 201.5 428 201.5V200V198.5C413.917 198.5 402.5 209.917 402.5 224H404ZM380 288V289.5C394.083 289.5 405.5 278.083 405.5 264H404H402.5C402.5 276.426 392.426 286.5 380 286.5V288Z" fill="#E5E7EB" style="fill:#E5E7EB;fill:color(display-p3 0.8980 0.9059 0.9216);fill-opacity:1;"/>
<path d="M712.6 108.5H820.4C824.889 108.5 828.225 108.501 830.868 108.717C833.505 108.932 835.408 109.359 837.037 110.189C839.953 111.675 842.325 114.047 843.811 116.963C844.641 118.592 845.068 120.495 845.283 123.132C845.499 125.775 845.5 129.111 845.5 133.6V138.4C845.5 142.889 845.499 146.225 845.283 148.868C845.068 151.505 844.641 153.408 843.811 155.037C842.325 157.953 839.953 160.325 837.037 161.811C835.408 162.641 833.505 163.068 830.868 163.283C828.225 163.499 824.889 163.5 820.4 163.5H712.6C708.111 163.5 704.775 163.499 702.132 163.283C699.495 163.068 697.592 162.641 695.963 161.811C693.047 160.325 690.675 157.953 689.189 155.037C688.359 153.408 687.932 151.505 687.717 148.868C687.501 146.225 687.5 142.889 687.5 138.4V133.6C687.5 129.111 687.501 125.775 687.717 123.132C687.932 120.495 688.359 118.592 689.189 116.963C690.675 114.047 693.047 111.675 695.963 110.189C697.592 109.359 699.495 108.932 702.132 108.717C704.775 108.501 708.111 108.5 712.6 108.5Z" fill="#F3F4F6" style="fill:#F3F4F6;fill:color(display-p3 0.9529 0.9569 0.9647);fill-opacity:1;"/>
<path d="M712.6 108.5H820.4C824.889 108.5 828.225 108.501 830.868 108.717C833.505 108.932 835.408 109.359 837.037 110.189C839.953 111.675 842.325 114.047 843.811 116.963C844.641 118.592 845.068 120.495 845.283 123.132C845.499 125.775 845.5 129.111 845.5 133.6V138.4C845.5 142.889 845.499 146.225 845.283 148.868C845.068 151.505 844.641 153.408 843.811 155.037C842.325 157.953 839.953 160.325 837.037 161.811C835.408 162.641 833.505 163.068 830.868 163.283C828.225 163.499 824.889 163.5 820.4 163.5H712.6C708.111 163.5 704.775 163.499 702.132 163.283C699.495 163.068 697.592 162.641 695.963 161.811C693.047 160.325 690.675 157.953 689.189 155.037C688.359 153.408 687.932 151.505 687.717 148.868C687.501 146.225 687.5 142.889 687.5 138.4V133.6C687.5 129.111 687.501 125.775 687.717 123.132C687.932 120.495 688.359 118.592 689.189 116.963C690.675 114.047 693.047 111.675 695.963 110.189C697.592 109.359 699.495 108.932 702.132 108.717C704.775 108.501 708.111 108.5 712.6 108.5Z" stroke="#E5E7EB" style="stroke:#E5E7EB;stroke:color(display-p3 0.8980 0.9059 0.9216);stroke-opacity:1;"/>
<path fill-rule="evenodd" clip-rule="evenodd" d="M713.876 124.119C714.62 123.96 715.389 123.96 716.134 124.119C716.978 124.298 717.753 124.746 718.874 125.394C718.923 125.422 718.973 125.451 719.024 125.48L722.106 127.26C722.156 127.289 722.206 127.318 722.256 127.346C723.377 127.993 724.152 128.44 724.73 129.081C725.239 129.647 725.624 130.313 725.859 131.037C726.126 131.858 726.125 132.753 726.125 134.047C726.125 134.104 726.125 134.162 726.125 134.221V137.779C726.125 137.838 726.125 137.896 726.125 137.953C726.125 139.247 726.126 140.142 725.859 140.963C725.624 141.687 725.239 142.353 724.73 142.919C724.152 143.56 723.377 144.007 722.256 144.654C722.206 144.682 722.156 144.711 722.106 144.74L719.024 146.52C718.973 146.549 718.923 146.578 718.874 146.606C717.753 147.254 716.978 147.702 716.134 147.881C715.389 148.04 714.62 148.04 713.876 147.881C713.031 147.702 712.257 147.254 711.136 146.606C711.087 146.578 711.037 146.549 710.986 146.52L707.904 144.74C707.853 144.711 707.803 144.682 707.754 144.654C706.632 144.007 705.857 143.56 705.28 142.919C704.771 142.353 704.386 141.687 704.151 140.963C703.884 140.142 703.884 139.247 703.885 137.953C703.885 137.896 703.885 137.838 703.885 137.779V134.221C703.885 134.162 703.885 134.104 703.885 134.047C703.884 132.753 703.884 131.858 704.151 131.037C704.386 130.313 704.771 129.647 705.28 129.081C705.857 128.44 706.632 127.993 707.754 127.346C707.803 127.318 707.853 127.289 707.904 127.26L710.986 125.48C711.037 125.451 711.086 125.422 711.136 125.394C712.257 124.746 713.031 124.298 713.876 124.119ZM715.682 126.244C715.236 126.149 714.774 126.149 714.327 126.244C713.862 126.342 713.402 126.594 712.072 127.361L708.99 129.141C707.66 129.909 707.212 130.182 706.894 130.535C706.589 130.874 706.358 131.274 706.217 131.709C706.07 132.161 706.057 132.685 706.057 134.221V137.779C706.057 139.315 706.07 139.839 706.217 140.291C706.358 140.726 706.589 141.126 706.894 141.465C707.212 141.818 707.66 142.091 708.99 142.859L712.072 144.639C713.402 145.406 713.862 145.658 714.327 145.756C714.774 145.851 715.236 145.851 715.682 145.756C716.147 145.658 716.608 145.406 717.937 144.639L721.02 142.859C722.349 142.091 722.797 141.818 723.115 141.465C723.421 141.126 723.652 140.726 723.793 140.291C723.94 139.839 723.952 139.315 723.952 137.779V134.221C723.952 132.685 723.94 132.161 723.793 131.709C723.652 131.274 723.421 130.874 723.115 130.535C722.797 130.182 722.349 129.909 721.02 129.141L717.937 127.361C716.608 126.594 716.147 126.342 715.682 126.244Z" fill="#718096" style="fill:#718096;fill:color(display-p3 0.4431 0.5020 0.5882);fill-opacity:1;"/>
<circle cx="715" cy="136" r="4.5" fill="#A0AEC0" style="fill:#A0AEC0;fill:color(display-p3 0.6275 0.6824 0.7529);fill-opacity:1;"/>
<path d="M741.2 141.14C740.547 141.14 739.977 141.019 739.492 140.776C739.016 140.524 738.647 140.174 738.386 139.726C738.134 139.269 738.008 138.732 738.008 138.116V133.664C738.008 133.048 738.134 132.516 738.386 132.068C738.647 131.611 739.016 131.261 739.492 131.018C739.977 130.766 740.547 130.64 741.2 130.64C741.853 130.64 742.418 130.766 742.894 131.018C743.379 131.261 743.748 131.611 744 132.068C744.261 132.516 744.392 133.043 744.392 133.65V138.116C744.392 138.732 744.261 139.269 744 139.726C743.748 140.174 743.379 140.524 742.894 140.776C742.418 141.019 741.853 141.14 741.2 141.14ZM741.2 139.614C741.676 139.614 742.035 139.488 742.278 139.236C742.521 138.975 742.642 138.601 742.642 138.116V133.664C742.642 133.179 742.521 132.81 742.278 132.558C742.035 132.297 741.676 132.166 741.2 132.166C740.724 132.166 740.365 132.297 740.122 132.558C739.879 132.81 739.758 133.179 739.758 133.664V138.116C739.758 138.601 739.879 138.975 740.122 139.236C740.365 139.488 740.724 139.614 741.2 139.614ZM746.571 141V139.46H749.231V132.334L746.557 134.322V132.474L748.909 130.78H750.981V139.46H753.123V141H746.571ZM754.965 141V139.46H757.625V132.334L754.951 134.322V132.474L757.303 130.78H759.375V139.46H761.517V141H754.965ZM765.502 141V137.29L762.506 130.78H764.34L765.936 134.322C766.141 134.798 766.3 135.283 766.412 135.778C766.524 135.283 766.682 134.798 766.888 134.322L768.442 130.78H770.262L767.266 137.29V141H765.502Z" fill="#1A2B58" style="fill:#1A2B58;fill:color(display-p3 0.1020 0.1686 0.3451);fill-opacity:1;"/>
<path d="M712.6 236.5H820.4C824.889 236.5 828.225 236.501 830.868 236.717C833.505 236.932 835.408 237.359 837.037 238.189C839.953 239.675 842.325 242.047 843.811 244.963C844.641 246.592 845.068 248.495 845.283 251.132C845.499 253.775 845.5 257.111 845.5 261.6V266.4C845.5 270.889 845.499 274.225 845.283 276.868C845.068 279.505 844.641 281.408 843.811 283.037C842.325 285.953 839.953 288.325 837.037 289.811C835.408 290.641 833.505 291.068 830.868 291.283C828.225 291.499 824.889 291.5 820.4 291.5H712.6C708.111 291.5 704.775 291.499 702.132 291.283C699.495 291.068 697.592 290.641 695.963 289.811C693.047 288.325 690.675 285.953 689.189 283.037C688.359 281.408 687.932 279.505 687.717 276.868C687.501 274.225 687.5 270.889 687.5 266.4V261.6C687.5 257.111 687.501 253.775 687.717 251.132C687.932 248.495 688.359 246.592 689.189 244.963C690.675 242.047 693.047 239.675 695.963 238.189C697.592 237.359 699.495 236.932 702.132 236.717C704.775 236.501 708.111 236.5 712.6 236.5Z" fill="#F3F4F6" style="fill:#F3F4F6;fill:color(display-p3 0.9529 0.9569 0.9647);fill-opacity:1;"/>
<path d="M712.6 236.5H820.4C824.889 236.5 828.225 236.501 830.868 236.717C833.505 236.932 835.408 237.359 837.037 238.189C839.953 239.675 842.325 242.047 843.811 244.963C844.641 246.592 845.068 248.495 845.283 251.132C845.499 253.775 845.5 257.111 845.5 261.6V266.4C845.5 270.889 845.499 274.225 845.283 276.868C845.068 279.505 844.641 281.408 843.811 283.037C842.325 285.953 839.953 288.325 837.037 289.811C835.408 290.641 833.505 291.068 830.868 291.283C828.225 291.499 824.889 291.5 820.4 291.5H712.6C708.111 291.5 704.775 291.499 702.132 291.283C699.495 291.068 697.592 290.641 695.963 289.811C693.047 288.325 690.675 285.953 689.189 283.037C688.359 281.408 687.932 279.505 687.717 276.868C687.501 274.225 687.5 270.889 687.5 266.4V261.6C687.5 257.111 687.501 253.775 687.717 251.132C687.932 248.495 688.359 246.592 689.189 244.963C690.675 242.047 693.047 239.675 695.963 238.189C697.592 237.359 699.495 236.932 702.132 236.717C704.775 236.501 708.111 236.5 712.6 236.5Z" stroke="#E5E7EB" style="stroke:#E5E7EB;stroke:color(display-p3 0.8980 0.9059 0.9216);stroke-opacity:1;"/>
<path fill-rule="evenodd" clip-rule="evenodd" d="M713.876 252.119C714.62 251.96 715.389 251.96 716.134 252.119C716.978 252.298 717.753 252.746 718.874 253.394C718.923 253.422 718.973 253.451 719.024 253.48L722.106 255.26C722.156 255.289 722.206 255.318 722.256 255.346C723.377 255.993 724.152 256.44 724.73 257.081C725.239 257.647 725.624 258.313 725.859 259.037C726.126 259.858 726.125 260.753 726.125 262.047C726.125 262.104 726.125 262.162 726.125 262.221V265.779C726.125 265.838 726.125 265.896 726.125 265.953C726.125 267.247 726.126 268.142 725.859 268.963C725.624 269.687 725.239 270.353 724.73 270.919C724.152 271.56 723.377 272.007 722.256 272.654C722.206 272.682 722.156 272.711 722.106 272.74L719.024 274.52C718.973 274.549 718.923 274.578 718.874 274.606C717.753 275.254 716.978 275.702 716.134 275.881C715.389 276.04 714.62 276.04 713.876 275.881C713.031 275.702 712.257 275.254 711.136 274.606C711.087 274.578 711.037 274.549 710.986 274.52L707.904 272.74C707.853 272.711 707.803 272.682 707.754 272.654C706.632 272.007 705.857 271.56 705.28 270.919C704.771 270.353 704.386 269.687 704.151 268.963C703.884 268.142 703.884 267.247 703.885 265.953C703.885 265.896 703.885 265.838 703.885 265.779V262.221C703.885 262.162 703.885 262.104 703.885 262.047C703.884 260.753 703.884 259.858 704.151 259.037C704.386 258.313 704.771 257.647 705.28 257.081C705.857 256.44 706.632 255.993 707.754 255.346C707.803 255.318 707.853 255.289 707.904 255.26L710.986 253.48C711.037 253.451 711.086 253.422 711.136 253.394C712.257 252.746 713.031 252.298 713.876 252.119ZM715.682 254.244C715.236 254.149 714.774 254.149 714.327 254.244C713.862 254.342 713.402 254.594 712.072 255.361L708.99 257.141C707.66 257.909 707.212 258.182 706.894 258.535C706.589 258.874 706.358 259.274 706.217 259.709C706.07 260.161 706.057 260.685 706.057 262.221V265.779C706.057 267.315 706.07 267.839 706.217 268.291C706.358 268.726 706.589 269.126 706.894 269.465C707.212 269.818 707.66 270.091 708.99 270.859L712.072 272.639C713.402 273.406 713.862 273.658 714.327 273.756C714.774 273.851 715.236 273.851 715.682 273.756C716.147 273.658 716.608 273.406 717.937 272.639L721.02 270.859C722.349 270.091 722.797 269.818 723.115 269.465C723.421 269.126 723.652 268.726 723.793 268.291C723.94 267.839 723.952 267.315 723.952 265.779V262.221C723.952 260.685 723.94 260.161 723.793 259.709C723.652 259.274 723.421 258.874 723.115 258.535C722.797 258.182 722.349 257.909 721.02 257.141L717.937 255.361C716.608 254.594 716.147 254.342 715.682 254.244Z" fill="#718096" style="fill:#718096;fill:color(display-p3 0.4431 0.5020 0.5882);fill-opacity:1;"/>
<circle cx="715" cy="264" r="4.5" fill="#A0AEC0" style="fill:#A0AEC0;fill:color(display-p3 0.6275 0.6824 0.7529);fill-opacity:1;"/>
<path d="M737.784 269V258.78H739.856L740.85 262.028C741.018 262.597 741.144 263.092 741.228 263.512C741.303 263.092 741.424 262.597 741.592 262.028L742.544 258.78H744.616V269H742.978V265.822C742.978 264.963 743.015 263.993 743.09 262.91C743.174 261.818 743.272 260.773 743.384 259.774L742.012 264.604H740.416L739.002 259.774C739.123 260.735 739.221 261.757 739.296 262.84C739.38 263.923 739.422 264.917 739.422 265.822V269H737.784ZM749.595 269.14C748.615 269.14 747.845 268.869 747.285 268.328C746.725 267.777 746.445 267.031 746.445 266.088V261.3H748.195V266.074C748.195 266.569 748.316 266.951 748.559 267.222C748.801 267.483 749.147 267.614 749.595 267.614C750.033 267.614 750.374 267.483 750.617 267.222C750.869 266.951 750.995 266.569 750.995 266.074V261.3H752.745V266.088C752.745 267.031 752.46 267.777 751.891 268.328C751.331 268.869 750.565 269.14 749.595 269.14ZM759.109 269C758.344 269 757.728 268.771 757.261 268.314C756.804 267.857 756.575 267.255 756.575 266.508V260.362H754.223V258.78H758.325V266.508C758.325 266.788 758.404 267.012 758.563 267.18C758.731 267.339 758.95 267.418 759.221 267.418H761.615V269H759.109ZM767.224 269C766.486 269 765.908 268.795 765.488 268.384C765.077 267.973 764.872 267.409 764.872 266.69V262.882H762.786V261.3H764.872V259.2H766.636V261.3H769.59V262.882H766.636V266.69C766.636 266.933 766.692 267.115 766.804 267.236C766.925 267.357 767.107 267.418 767.35 267.418H769.45V269H767.224ZM771.614 269V267.404H774.302V262.882H771.964V261.3H775.968V267.404H778.362V269H771.614ZM774.904 260.138C774.596 260.138 774.353 260.054 774.176 259.886C773.999 259.718 773.91 259.494 773.91 259.214C773.91 258.934 773.999 258.71 774.176 258.542C774.363 258.374 774.605 258.29 774.904 258.29H775.184C775.483 258.29 775.721 258.374 775.898 258.542C776.085 258.71 776.178 258.934 776.178 259.214C776.178 259.494 776.085 259.718 775.898 259.886C775.721 260.054 775.478 260.138 775.17 260.138H774.904ZM780.051 271.52V261.3H781.759V262.77H782.151L781.759 263.176C781.759 262.551 781.941 262.061 782.305 261.706C782.678 261.342 783.187 261.16 783.831 261.16C784.605 261.16 785.221 261.426 785.679 261.958C786.136 262.49 786.365 263.204 786.365 264.1V266.186C786.365 267.091 786.136 267.81 785.679 268.342C785.221 268.874 784.605 269.14 783.831 269.14C783.187 269.14 782.678 268.963 782.305 268.608C781.941 268.244 781.759 267.749 781.759 267.124L782.151 267.53H781.745L781.801 269.364V271.52H780.051ZM783.215 267.628C783.663 267.628 784.008 267.497 784.251 267.236C784.493 266.975 784.615 266.601 784.615 266.116V264.184C784.615 263.699 784.493 263.325 784.251 263.064C784.008 262.803 783.663 262.672 783.215 262.672C782.776 262.672 782.431 262.807 782.179 263.078C781.927 263.339 781.801 263.708 781.801 264.184V266.116C781.801 266.592 781.927 266.965 782.179 267.236C782.431 267.497 782.776 267.628 783.215 267.628ZM792.687 269C791.922 269 791.306 268.771 790.839 268.314C790.382 267.857 790.153 267.255 790.153 266.508V260.362H787.801V258.78H791.903V266.508C791.903 266.788 791.983 267.012 792.141 267.18C792.309 267.339 792.529 267.418 792.799 267.418H795.193V269H792.687ZM799.08 269.14C798.305 269.14 797.689 268.935 797.232 268.524C796.774 268.104 796.546 267.539 796.546 266.83C796.546 266.065 796.798 265.477 797.302 265.066C797.806 264.646 798.52 264.436 799.444 264.436H801.362V263.792C801.362 263.409 801.245 263.115 801.012 262.91C800.778 262.705 800.442 262.602 800.004 262.602C799.612 262.602 799.29 262.686 799.038 262.854C798.795 263.013 798.65 263.241 798.604 263.54H796.896C796.98 262.812 797.302 262.233 797.862 261.804C798.431 261.375 799.159 261.16 800.046 261.16C801.016 261.16 801.768 261.393 802.3 261.86C802.841 262.317 803.112 262.957 803.112 263.778V269H801.418V267.656H801.096L801.418 267.306C801.418 267.866 801.203 268.314 800.774 268.65C800.344 268.977 799.78 269.14 799.08 269.14ZM799.668 267.824C800.172 267.824 800.578 267.703 800.886 267.46C801.203 267.208 801.362 266.877 801.362 266.466V265.528H799.472C799.108 265.528 798.818 265.631 798.604 265.836C798.398 266.041 798.296 266.317 798.296 266.662C798.296 267.026 798.417 267.311 798.66 267.516C798.902 267.721 799.238 267.824 799.668 267.824ZM806.522 271.52L807.614 268.58L804.716 261.3H806.62L808.034 265.234C808.165 265.617 808.3 266.111 808.44 266.718C808.58 266.111 808.711 265.617 808.832 265.234L810.148 261.3H811.996L808.37 271.52H806.522ZM816.765 269.14C816.111 269.14 815.542 269.014 815.057 268.762C814.581 268.51 814.212 268.16 813.951 267.712C813.689 267.255 813.559 266.723 813.559 266.116V264.184C813.559 263.577 813.689 263.05 813.951 262.602C814.212 262.145 814.581 261.79 815.057 261.538C815.542 261.286 816.111 261.16 816.765 261.16C817.399 261.16 817.955 261.286 818.431 261.538C818.916 261.79 819.289 262.145 819.551 262.602C819.812 263.05 819.943 263.577 819.943 264.184V265.57H815.239V266.116C815.239 266.657 815.365 267.068 815.617 267.348C815.878 267.619 816.265 267.754 816.779 267.754C817.171 267.754 817.483 267.689 817.717 267.558C817.95 267.418 818.099 267.217 818.165 266.956H819.901C819.761 267.619 819.406 268.151 818.837 268.552C818.277 268.944 817.586 269.14 816.765 269.14ZM818.263 264.17C818.263 263.629 818.137 263.218 817.885 262.938C817.633 262.658 817.259 262.518 816.765 262.518C816.261 262.518 815.878 262.663 815.617 262.952C815.365 263.232 815.239 263.643 815.239 264.184V264.478L818.389 264.45L818.263 264.59V264.17ZM822.261 269V261.3H823.913V262.77H824.347L823.829 263.666C823.829 262.845 824.016 262.224 824.389 261.804C824.763 261.375 825.313 261.16 826.041 261.16C826.872 261.16 827.525 261.417 828.001 261.93C828.477 262.443 828.715 263.153 828.715 264.058V264.618H826.881V264.184C826.881 263.689 826.755 263.307 826.503 263.036C826.251 262.765 825.897 262.63 825.439 262.63C824.991 262.63 824.641 262.765 824.389 263.036C824.137 263.307 824.011 263.689 824.011 264.184V269H822.261Z" fill="#1A2B58" style="fill:#1A2B58;fill:color(display-p3 0.1020 0.1686 0.3451);fill-opacity:1;"/>
<path d="M592 198.5C591.172 198.5 590.5 199.172 590.5 200C590.5 200.828 591.172 201.5 592 201.5V200V198.5ZM684.061 137.061C684.646 136.475 684.646 135.525 684.061 134.939L674.515 125.393C673.929 124.808 672.979 124.808 672.393 125.393C671.808 125.979 671.808 126.929 672.393 127.515L680.879 136L672.393 144.485C671.808 145.071 671.808 146.021 672.393 146.607C672.979 147.192 673.929 147.192 674.515 146.607L684.061 137.061ZM592 200V201.5H613.5V200V198.5H592V200ZM637.5 176H639V160H637.5H636V176H637.5ZM661.5 136V137.5H683V136V134.5H661.5V136ZM637.5 160H639C639 147.574 649.074 137.5 661.5 137.5V136V134.5C647.417 134.5 636 145.917 636 160H637.5ZM613.5 200V201.5C627.583 201.5 639 190.083 639 176H637.5H636C636 188.426 625.926 198.5 613.5 198.5V200Z" fill="#E5E7EB" style="fill:#E5E7EB;fill:color(display-p3 0.8980 0.9059 0.9216);fill-opacity:1;"/>
<path d="M592 198.5C591.172 198.5 590.5 199.172 590.5 200C590.5 200.828 591.172 201.5 592 201.5V200V198.5ZM684.061 265.061C684.646 264.475 684.646 263.525 684.061 262.939L674.515 253.393C673.929 252.808 672.979 252.808 672.393 253.393C671.808 253.979 671.808 254.929 672.393 255.515L680.879 264L672.393 272.485C671.808 273.071 671.808 274.021 672.393 274.607C672.979 275.192 673.929 275.192 674.515 274.607L684.061 265.061ZM592 200V201.5H613.5V200V198.5H592V200ZM637.5 224H636V240H637.5H639V224H637.5ZM661.5 264V265.5H683V264V262.5H661.5V264ZM637.5 240H636C636 254.083 647.417 265.5 661.5 265.5V264V262.5C649.074 262.5 639 252.426 639 240H637.5ZM613.5 200V201.5C625.926 201.5 636 211.574 636 224H637.5H639C639 209.917 627.583 198.5 613.5 198.5V200Z" fill="#E5E7EB" style="fill:#E5E7EB;fill:color(display-p3 0.8980 0.9059 0.9216);fill-opacity:1;"/>
<path d="M338.96 352.382L337.32 352.561C337.273 352.395 337.192 352.24 337.076 352.094C336.963 351.948 336.811 351.83 336.619 351.741C336.426 351.651 336.191 351.607 335.913 351.607C335.538 351.607 335.223 351.688 334.968 351.85C334.716 352.013 334.592 352.223 334.595 352.482C334.592 352.704 334.673 352.884 334.839 353.023C335.008 353.163 335.286 353.277 335.674 353.366L336.977 353.645C337.699 353.801 338.236 354.048 338.587 354.386C338.942 354.724 339.121 355.166 339.124 355.713C339.121 356.194 338.98 356.618 338.702 356.986C338.427 357.35 338.044 357.635 337.553 357.841C337.063 358.046 336.499 358.149 335.863 358.149C334.928 358.149 334.176 357.954 333.606 357.562C333.036 357.168 332.696 356.62 332.587 355.917L334.342 355.748C334.421 356.093 334.59 356.353 334.849 356.528C335.107 356.704 335.444 356.792 335.858 356.792C336.286 356.792 336.629 356.704 336.887 356.528C337.149 356.353 337.28 356.136 337.28 355.877C337.28 355.658 337.195 355.478 337.026 355.335C336.861 355.193 336.602 355.083 336.251 355.007L334.948 354.734C334.216 354.581 333.674 354.324 333.322 353.963C332.971 353.598 332.797 353.138 332.8 352.581C332.797 352.11 332.925 351.703 333.183 351.358C333.445 351.01 333.808 350.741 334.272 350.553C334.739 350.36 335.278 350.264 335.888 350.264C336.783 350.264 337.487 350.455 338.001 350.836C338.518 351.217 338.838 351.732 338.96 352.382ZM341.727 360.864C341.482 360.864 341.255 360.844 341.046 360.804C340.84 360.768 340.676 360.724 340.554 360.675L340.971 359.273C341.233 359.349 341.467 359.385 341.672 359.382C341.878 359.379 342.058 359.314 342.214 359.188C342.373 359.066 342.507 358.86 342.617 358.572L342.771 358.159L340.002 350.364H341.911L343.671 356.131H343.75L345.515 350.364H347.429L344.372 358.925C344.229 359.329 344.04 359.675 343.805 359.964C343.57 360.255 343.281 360.478 342.94 360.63C342.602 360.786 342.198 360.864 341.727 360.864ZM354.71 352.382L353.07 352.561C353.023 352.395 352.942 352.24 352.826 352.094C352.713 351.948 352.561 351.83 352.369 351.741C352.176 351.651 351.941 351.607 351.663 351.607C351.288 351.607 350.973 351.688 350.718 351.85C350.466 352.013 350.342 352.223 350.345 352.482C350.342 352.704 350.423 352.884 350.589 353.023C350.758 353.163 351.036 353.277 351.424 353.366L352.727 353.645C353.449 353.801 353.986 354.048 354.337 354.386C354.692 354.724 354.871 355.166 354.874 355.713C354.871 356.194 354.73 356.618 354.452 356.986C354.177 357.35 353.794 357.635 353.303 357.841C352.813 358.046 352.249 358.149 351.613 358.149C350.678 358.149 349.926 357.954 349.356 357.562C348.786 357.168 348.446 356.62 348.337 355.917L350.092 355.748C350.171 356.093 350.34 356.353 350.599 356.528C350.857 356.704 351.194 356.792 351.608 356.792C352.036 356.792 352.379 356.704 352.637 356.528C352.899 356.353 353.03 356.136 353.03 355.877C353.03 355.658 352.945 355.478 352.776 355.335C352.611 355.193 352.352 355.083 352.001 355.007L350.698 354.734C349.966 354.581 349.424 354.324 349.072 353.963C348.721 353.598 348.547 353.138 348.55 352.581C348.547 352.11 348.675 351.703 348.933 351.358C349.195 351.01 349.558 350.741 350.022 350.553C350.489 350.36 351.028 350.264 351.638 350.264C352.533 350.264 353.237 350.455 353.751 350.836C354.268 351.217 354.588 351.732 354.71 352.382ZM360.172 350.364V351.756H355.782V350.364H360.172ZM356.865 348.534H358.665V355.703C358.665 355.945 358.702 356.131 358.775 356.26C358.851 356.386 358.95 356.472 359.073 356.518C359.195 356.565 359.331 356.588 359.48 356.588C359.593 356.588 359.696 356.58 359.789 356.563C359.885 356.547 359.958 356.532 360.007 356.518L360.311 357.925C360.215 357.959 360.077 357.995 359.898 358.035C359.722 358.075 359.507 358.098 359.252 358.104C358.801 358.118 358.395 358.05 358.034 357.901C357.672 357.748 357.386 357.513 357.174 357.195C356.965 356.876 356.862 356.479 356.865 356.001V348.534ZM364.975 358.149C364.21 358.149 363.548 357.99 362.992 357.672C362.438 357.35 362.012 356.896 361.714 356.31C361.416 355.72 361.267 355.025 361.267 354.227C361.267 353.441 361.416 352.752 361.714 352.158C362.016 351.562 362.436 351.098 362.977 350.766C363.517 350.432 364.152 350.264 364.881 350.264C365.352 350.264 365.796 350.34 366.213 350.493C366.634 350.642 367.005 350.874 367.327 351.189C367.652 351.504 367.907 351.905 368.093 352.392C368.278 352.876 368.371 353.453 368.371 354.122V354.674H362.112V353.461H366.646C366.642 353.116 366.568 352.81 366.422 352.541C366.276 352.269 366.072 352.056 365.811 351.9C365.552 351.744 365.25 351.666 364.906 351.666C364.538 351.666 364.215 351.756 363.936 351.935C363.658 352.11 363.441 352.342 363.285 352.631C363.133 352.916 363.055 353.229 363.051 353.57V354.629C363.051 355.073 363.133 355.455 363.295 355.773C363.457 356.088 363.684 356.33 363.976 356.499C364.268 356.664 364.609 356.747 365 356.747C365.262 356.747 365.499 356.711 365.711 356.638C365.923 356.562 366.107 356.451 366.263 356.305C366.419 356.159 366.536 355.978 366.616 355.763L368.296 355.952C368.19 356.396 367.988 356.784 367.69 357.115C367.395 357.443 367.017 357.698 366.556 357.881C366.096 358.06 365.569 358.149 364.975 358.149ZM369.893 358V350.364H371.614V351.661H371.703C371.862 351.224 372.126 350.882 372.494 350.637C372.862 350.388 373.301 350.264 373.811 350.264C374.328 350.264 374.764 350.39 375.119 350.642C375.477 350.891 375.728 351.23 375.874 351.661H375.954C376.123 351.237 376.408 350.899 376.809 350.647C377.213 350.392 377.692 350.264 378.246 350.264C378.948 350.264 379.522 350.486 379.966 350.93C380.41 351.375 380.632 352.022 380.632 352.874V358H378.827V353.153C378.827 352.679 378.701 352.332 378.45 352.114C378.198 351.892 377.889 351.781 377.525 351.781C377.091 351.781 376.751 351.916 376.506 352.188C376.264 352.457 376.143 352.806 376.143 353.237V358H374.378V353.078C374.378 352.684 374.259 352.369 374.02 352.134C373.785 351.898 373.476 351.781 373.095 351.781C372.837 351.781 372.601 351.847 372.389 351.979C372.177 352.109 372.008 352.293 371.882 352.531C371.756 352.767 371.693 353.042 371.693 353.357V358H369.893Z" fill="#59645F" style="fill:#59645F;fill:color(display-p3 0.3490 0.3922 0.3725);fill-opacity:1;"/>
</g>
<defs>
<clipPath id="clip0_23883_279828">
<rect width="1026" height="400" rx="24" fill="white" style="fill:white;fill-opacity:1;"/>
</clipPath>
</defs>
</svg>
