<svg width="1026" height="400" viewBox="0 0 1026 400" fill="none" xmlns="http://www.w3.org/2000/svg">
<g clip-path="url(#clip0_23883_280565)">
<rect width="1026" height="400" rx="24" fill="white" style="fill:white;fill-opacity:1;"/>
<rect width="1440" height="1024" transform="translate(-27)" fill="white" style="fill:white;fill-opacity:1;"/>
<circle cx="4.5" cy="27.5" r="1.5" fill="#EBEBF1" style="fill:#EBEBF1;fill:color(display-p3 0.9222 0.9222 0.9458);fill-opacity:1;"/>
<circle cx="55.5" cy="27.5" r="1.5" fill="#EBEBF1" style="fill:#EBEBF1;fill:color(display-p3 0.9222 0.9222 0.9458);fill-opacity:1;"/>
<circle cx="106.5" cy="27.5" r="1.5" fill="#EBEBF1" style="fill:#EBEBF1;fill:color(display-p3 0.9222 0.9222 0.9458);fill-opacity:1;"/>
<circle cx="157.5" cy="27.5" r="1.5" fill="#EBEBF1" style="fill:#EBEBF1;fill:color(display-p3 0.9222 0.9222 0.9458);fill-opacity:1;"/>
<circle cx="208.5" cy="27.5" r="1.5" fill="#EBEBF1" style="fill:#EBEBF1;fill:color(display-p3 0.9222 0.9222 0.9458);fill-opacity:1;"/>
<circle cx="259.5" cy="27.5" r="1.5" fill="#EBEBF1" style="fill:#EBEBF1;fill:color(display-p3 0.9222 0.9222 0.9458);fill-opacity:1;"/>
<circle cx="310.5" cy="27.5" r="1.5" fill="#EBEBF1" style="fill:#EBEBF1;fill:color(display-p3 0.9222 0.9222 0.9458);fill-opacity:1;"/>
<circle cx="361.5" cy="27.5" r="1.5" fill="#EBEBF1" style="fill:#EBEBF1;fill:color(display-p3 0.9222 0.9222 0.9458);fill-opacity:1;"/>
<circle cx="412.5" cy="27.5" r="1.5" fill="#EBEBF1" style="fill:#EBEBF1;fill:color(display-p3 0.9222 0.9222 0.9458);fill-opacity:1;"/>
<circle cx="463.5" cy="27.5" r="1.5" fill="#EBEBF1" style="fill:#EBEBF1;fill:color(display-p3 0.9222 0.9222 0.9458);fill-opacity:1;"/>
<circle cx="514.5" cy="27.5" r="1.5" fill="#EBEBF1" style="fill:#EBEBF1;fill:color(display-p3 0.9222 0.9222 0.9458);fill-opacity:1;"/>
<circle cx="565.5" cy="27.5" r="1.5" fill="#EBEBF1" style="fill:#EBEBF1;fill:color(display-p3 0.9222 0.9222 0.9458);fill-opacity:1;"/>
<circle cx="616.5" cy="27.5" r="1.5" fill="#EBEBF1" style="fill:#EBEBF1;fill:color(display-p3 0.9222 0.9222 0.9458);fill-opacity:1;"/>
<circle cx="667.5" cy="27.5" r="1.5" fill="#EBEBF1" style="fill:#EBEBF1;fill:color(display-p3 0.9222 0.9222 0.9458);fill-opacity:1;"/>
<circle cx="718.5" cy="27.5" r="1.5" fill="#EBEBF1" style="fill:#EBEBF1;fill:color(display-p3 0.9222 0.9222 0.9458);fill-opacity:1;"/>
<circle cx="769.5" cy="27.5" r="1.5" fill="#EBEBF1" style="fill:#EBEBF1;fill:color(display-p3 0.9222 0.9222 0.9458);fill-opacity:1;"/>
<circle cx="820.5" cy="27.5" r="1.5" fill="#EBEBF1" style="fill:#EBEBF1;fill:color(display-p3 0.9222 0.9222 0.9458);fill-opacity:1;"/>
<circle cx="871.5" cy="27.5" r="1.5" fill="#EBEBF1" style="fill:#EBEBF1;fill:color(display-p3 0.9222 0.9222 0.9458);fill-opacity:1;"/>
<circle cx="922.5" cy="27.5" r="1.5" fill="#EBEBF1" style="fill:#EBEBF1;fill:color(display-p3 0.9222 0.9222 0.9458);fill-opacity:1;"/>
<circle cx="973.5" cy="27.5" r="1.5" fill="#EBEBF1" style="fill:#EBEBF1;fill:color(display-p3 0.9222 0.9222 0.9458);fill-opacity:1;"/>
<circle cx="1024.5" cy="27.5" r="1.5" fill="#EBEBF1" style="fill:#EBEBF1;fill:color(display-p3 0.9222 0.9222 0.9458);fill-opacity:1;"/>
<circle cx="4.5" cy="78.5" r="1.5" fill="#EBEBF1" style="fill:#EBEBF1;fill:color(display-p3 0.9222 0.9222 0.9458);fill-opacity:1;"/>
<circle cx="55.5" cy="78.5" r="1.5" fill="#EBEBF1" style="fill:#EBEBF1;fill:color(display-p3 0.9222 0.9222 0.9458);fill-opacity:1;"/>
<circle cx="106.5" cy="78.5" r="1.5" fill="#EBEBF1" style="fill:#EBEBF1;fill:color(display-p3 0.9222 0.9222 0.9458);fill-opacity:1;"/>
<circle cx="157.5" cy="78.5" r="1.5" fill="#EBEBF1" style="fill:#EBEBF1;fill:color(display-p3 0.9222 0.9222 0.9458);fill-opacity:1;"/>
<circle cx="208.5" cy="78.5" r="1.5" fill="#EBEBF1" style="fill:#EBEBF1;fill:color(display-p3 0.9222 0.9222 0.9458);fill-opacity:1;"/>
<circle cx="259.5" cy="78.5" r="1.5" fill="#EBEBF1" style="fill:#EBEBF1;fill:color(display-p3 0.9222 0.9222 0.9458);fill-opacity:1;"/>
<circle cx="310.5" cy="78.5" r="1.5" fill="#EBEBF1" style="fill:#EBEBF1;fill:color(display-p3 0.9222 0.9222 0.9458);fill-opacity:1;"/>
<circle cx="361.5" cy="78.5" r="1.5" fill="#EBEBF1" style="fill:#EBEBF1;fill:color(display-p3 0.9222 0.9222 0.9458);fill-opacity:1;"/>
<circle cx="412.5" cy="78.5" r="1.5" fill="#EBEBF1" style="fill:#EBEBF1;fill:color(display-p3 0.9222 0.9222 0.9458);fill-opacity:1;"/>
<circle cx="463.5" cy="78.5" r="1.5" fill="#EBEBF1" style="fill:#EBEBF1;fill:color(display-p3 0.9222 0.9222 0.9458);fill-opacity:1;"/>
<circle cx="514.5" cy="78.5" r="1.5" fill="#EBEBF1" style="fill:#EBEBF1;fill:color(display-p3 0.9222 0.9222 0.9458);fill-opacity:1;"/>
<circle cx="565.5" cy="78.5" r="1.5" fill="#EBEBF1" style="fill:#EBEBF1;fill:color(display-p3 0.9222 0.9222 0.9458);fill-opacity:1;"/>
<circle cx="616.5" cy="78.5" r="1.5" fill="#EBEBF1" style="fill:#EBEBF1;fill:color(display-p3 0.9222 0.9222 0.9458);fill-opacity:1;"/>
<circle cx="667.5" cy="78.5" r="1.5" fill="#EBEBF1" style="fill:#EBEBF1;fill:color(display-p3 0.9222 0.9222 0.9458);fill-opacity:1;"/>
<circle cx="718.5" cy="78.5" r="1.5" fill="#EBEBF1" style="fill:#EBEBF1;fill:color(display-p3 0.9222 0.9222 0.9458);fill-opacity:1;"/>
<circle cx="769.5" cy="78.5" r="1.5" fill="#EBEBF1" style="fill:#EBEBF1;fill:color(display-p3 0.9222 0.9222 0.9458);fill-opacity:1;"/>
<circle cx="820.5" cy="78.5" r="1.5" fill="#EBEBF1" style="fill:#EBEBF1;fill:color(display-p3 0.9222 0.9222 0.9458);fill-opacity:1;"/>
<circle cx="871.5" cy="78.5" r="1.5" fill="#EBEBF1" style="fill:#EBEBF1;fill:color(display-p3 0.9222 0.9222 0.9458);fill-opacity:1;"/>
<circle cx="922.5" cy="78.5" r="1.5" fill="#EBEBF1" style="fill:#EBEBF1;fill:color(display-p3 0.9222 0.9222 0.9458);fill-opacity:1;"/>
<circle cx="973.5" cy="78.5" r="1.5" fill="#EBEBF1" style="fill:#EBEBF1;fill:color(display-p3 0.9222 0.9222 0.9458);fill-opacity:1;"/>
<circle cx="1024.5" cy="78.5" r="1.5" fill="#EBEBF1" style="fill:#EBEBF1;fill:color(display-p3 0.9222 0.9222 0.9458);fill-opacity:1;"/>
<circle cx="4.5" cy="129.5" r="1.5" fill="#EBEBF1" style="fill:#EBEBF1;fill:color(display-p3 0.9222 0.9222 0.9458);fill-opacity:1;"/>
<circle cx="55.5" cy="129.5" r="1.5" fill="#EBEBF1" style="fill:#EBEBF1;fill:color(display-p3 0.9222 0.9222 0.9458);fill-opacity:1;"/>
<circle cx="106.5" cy="129.5" r="1.5" fill="#EBEBF1" style="fill:#EBEBF1;fill:color(display-p3 0.9222 0.9222 0.9458);fill-opacity:1;"/>
<circle cx="157.5" cy="129.5" r="1.5" fill="#EBEBF1" style="fill:#EBEBF1;fill:color(display-p3 0.9222 0.9222 0.9458);fill-opacity:1;"/>
<circle cx="208.5" cy="129.5" r="1.5" fill="#EBEBF1" style="fill:#EBEBF1;fill:color(display-p3 0.9222 0.9222 0.9458);fill-opacity:1;"/>
<circle cx="259.5" cy="129.5" r="1.5" fill="#EBEBF1" style="fill:#EBEBF1;fill:color(display-p3 0.9222 0.9222 0.9458);fill-opacity:1;"/>
<circle cx="310.5" cy="129.5" r="1.5" fill="#EBEBF1" style="fill:#EBEBF1;fill:color(display-p3 0.9222 0.9222 0.9458);fill-opacity:1;"/>
<circle cx="361.5" cy="129.5" r="1.5" fill="#EBEBF1" style="fill:#EBEBF1;fill:color(display-p3 0.9222 0.9222 0.9458);fill-opacity:1;"/>
<circle cx="412.5" cy="129.5" r="1.5" fill="#EBEBF1" style="fill:#EBEBF1;fill:color(display-p3 0.9222 0.9222 0.9458);fill-opacity:1;"/>
<circle cx="463.5" cy="129.5" r="1.5" fill="#EBEBF1" style="fill:#EBEBF1;fill:color(display-p3 0.9222 0.9222 0.9458);fill-opacity:1;"/>
<circle cx="514.5" cy="129.5" r="1.5" fill="#EBEBF1" style="fill:#EBEBF1;fill:color(display-p3 0.9222 0.9222 0.9458);fill-opacity:1;"/>
<circle cx="565.5" cy="129.5" r="1.5" fill="#EBEBF1" style="fill:#EBEBF1;fill:color(display-p3 0.9222 0.9222 0.9458);fill-opacity:1;"/>
<circle cx="616.5" cy="129.5" r="1.5" fill="#EBEBF1" style="fill:#EBEBF1;fill:color(display-p3 0.9222 0.9222 0.9458);fill-opacity:1;"/>
<circle cx="667.5" cy="129.5" r="1.5" fill="#EBEBF1" style="fill:#EBEBF1;fill:color(display-p3 0.9222 0.9222 0.9458);fill-opacity:1;"/>
<circle cx="718.5" cy="129.5" r="1.5" fill="#EBEBF1" style="fill:#EBEBF1;fill:color(display-p3 0.9222 0.9222 0.9458);fill-opacity:1;"/>
<circle cx="769.5" cy="129.5" r="1.5" fill="#EBEBF1" style="fill:#EBEBF1;fill:color(display-p3 0.9222 0.9222 0.9458);fill-opacity:1;"/>
<circle cx="820.5" cy="129.5" r="1.5" fill="#EBEBF1" style="fill:#EBEBF1;fill:color(display-p3 0.9222 0.9222 0.9458);fill-opacity:1;"/>
<circle cx="871.5" cy="129.5" r="1.5" fill="#EBEBF1" style="fill:#EBEBF1;fill:color(display-p3 0.9222 0.9222 0.9458);fill-opacity:1;"/>
<circle cx="922.5" cy="129.5" r="1.5" fill="#EBEBF1" style="fill:#EBEBF1;fill:color(display-p3 0.9222 0.9222 0.9458);fill-opacity:1;"/>
<circle cx="973.5" cy="129.5" r="1.5" fill="#EBEBF1" style="fill:#EBEBF1;fill:color(display-p3 0.9222 0.9222 0.9458);fill-opacity:1;"/>
<circle cx="1024.5" cy="129.5" r="1.5" fill="#EBEBF1" style="fill:#EBEBF1;fill:color(display-p3 0.9222 0.9222 0.9458);fill-opacity:1;"/>
<circle cx="4.5" cy="180.5" r="1.5" fill="#EBEBF1" style="fill:#EBEBF1;fill:color(display-p3 0.9222 0.9222 0.9458);fill-opacity:1;"/>
<circle cx="55.5" cy="180.5" r="1.5" fill="#EBEBF1" style="fill:#EBEBF1;fill:color(display-p3 0.9222 0.9222 0.9458);fill-opacity:1;"/>
<circle cx="106.5" cy="180.5" r="1.5" fill="#EBEBF1" style="fill:#EBEBF1;fill:color(display-p3 0.9222 0.9222 0.9458);fill-opacity:1;"/>
<circle cx="157.5" cy="180.5" r="1.5" fill="#EBEBF1" style="fill:#EBEBF1;fill:color(display-p3 0.9222 0.9222 0.9458);fill-opacity:1;"/>
<circle cx="208.5" cy="180.5" r="1.5" fill="#EBEBF1" style="fill:#EBEBF1;fill:color(display-p3 0.9222 0.9222 0.9458);fill-opacity:1;"/>
<circle cx="259.5" cy="180.5" r="1.5" fill="#EBEBF1" style="fill:#EBEBF1;fill:color(display-p3 0.9222 0.9222 0.9458);fill-opacity:1;"/>
<circle cx="310.5" cy="180.5" r="1.5" fill="#EBEBF1" style="fill:#EBEBF1;fill:color(display-p3 0.9222 0.9222 0.9458);fill-opacity:1;"/>
<circle cx="361.5" cy="180.5" r="1.5" fill="#EBEBF1" style="fill:#EBEBF1;fill:color(display-p3 0.9222 0.9222 0.9458);fill-opacity:1;"/>
<circle cx="412.5" cy="180.5" r="1.5" fill="#EBEBF1" style="fill:#EBEBF1;fill:color(display-p3 0.9222 0.9222 0.9458);fill-opacity:1;"/>
<circle cx="463.5" cy="180.5" r="1.5" fill="#EBEBF1" style="fill:#EBEBF1;fill:color(display-p3 0.9222 0.9222 0.9458);fill-opacity:1;"/>
<circle cx="514.5" cy="180.5" r="1.5" fill="#EBEBF1" style="fill:#EBEBF1;fill:color(display-p3 0.9222 0.9222 0.9458);fill-opacity:1;"/>
<circle cx="565.5" cy="180.5" r="1.5" fill="#EBEBF1" style="fill:#EBEBF1;fill:color(display-p3 0.9222 0.9222 0.9458);fill-opacity:1;"/>
<circle cx="616.5" cy="180.5" r="1.5" fill="#EBEBF1" style="fill:#EBEBF1;fill:color(display-p3 0.9222 0.9222 0.9458);fill-opacity:1;"/>
<circle cx="667.5" cy="180.5" r="1.5" fill="#EBEBF1" style="fill:#EBEBF1;fill:color(display-p3 0.9222 0.9222 0.9458);fill-opacity:1;"/>
<circle cx="718.5" cy="180.5" r="1.5" fill="#EBEBF1" style="fill:#EBEBF1;fill:color(display-p3 0.9222 0.9222 0.9458);fill-opacity:1;"/>
<circle cx="769.5" cy="180.5" r="1.5" fill="#EBEBF1" style="fill:#EBEBF1;fill:color(display-p3 0.9222 0.9222 0.9458);fill-opacity:1;"/>
<circle cx="820.5" cy="180.5" r="1.5" fill="#EBEBF1" style="fill:#EBEBF1;fill:color(display-p3 0.9222 0.9222 0.9458);fill-opacity:1;"/>
<circle cx="871.5" cy="180.5" r="1.5" fill="#EBEBF1" style="fill:#EBEBF1;fill:color(display-p3 0.9222 0.9222 0.9458);fill-opacity:1;"/>
<circle cx="922.5" cy="180.5" r="1.5" fill="#EBEBF1" style="fill:#EBEBF1;fill:color(display-p3 0.9222 0.9222 0.9458);fill-opacity:1;"/>
<circle cx="973.5" cy="180.5" r="1.5" fill="#EBEBF1" style="fill:#EBEBF1;fill:color(display-p3 0.9222 0.9222 0.9458);fill-opacity:1;"/>
<circle cx="1024.5" cy="180.5" r="1.5" fill="#EBEBF1" style="fill:#EBEBF1;fill:color(display-p3 0.9222 0.9222 0.9458);fill-opacity:1;"/>
<circle cx="4.5" cy="231.5" r="1.5" fill="#EBEBF1" style="fill:#EBEBF1;fill:color(display-p3 0.9222 0.9222 0.9458);fill-opacity:1;"/>
<circle cx="55.5" cy="231.5" r="1.5" fill="#EBEBF1" style="fill:#EBEBF1;fill:color(display-p3 0.9222 0.9222 0.9458);fill-opacity:1;"/>
<circle cx="106.5" cy="231.5" r="1.5" fill="#EBEBF1" style="fill:#EBEBF1;fill:color(display-p3 0.9222 0.9222 0.9458);fill-opacity:1;"/>
<circle cx="157.5" cy="231.5" r="1.5" fill="#EBEBF1" style="fill:#EBEBF1;fill:color(display-p3 0.9222 0.9222 0.9458);fill-opacity:1;"/>
<circle cx="208.5" cy="231.5" r="1.5" fill="#EBEBF1" style="fill:#EBEBF1;fill:color(display-p3 0.9222 0.9222 0.9458);fill-opacity:1;"/>
<circle cx="259.5" cy="231.5" r="1.5" fill="#EBEBF1" style="fill:#EBEBF1;fill:color(display-p3 0.9222 0.9222 0.9458);fill-opacity:1;"/>
<circle cx="310.5" cy="231.5" r="1.5" fill="#EBEBF1" style="fill:#EBEBF1;fill:color(display-p3 0.9222 0.9222 0.9458);fill-opacity:1;"/>
<circle cx="361.5" cy="231.5" r="1.5" fill="#EBEBF1" style="fill:#EBEBF1;fill:color(display-p3 0.9222 0.9222 0.9458);fill-opacity:1;"/>
<circle cx="412.5" cy="231.5" r="1.5" fill="#EBEBF1" style="fill:#EBEBF1;fill:color(display-p3 0.9222 0.9222 0.9458);fill-opacity:1;"/>
<circle cx="463.5" cy="231.5" r="1.5" fill="#EBEBF1" style="fill:#EBEBF1;fill:color(display-p3 0.9222 0.9222 0.9458);fill-opacity:1;"/>
<circle cx="514.5" cy="231.5" r="1.5" fill="#EBEBF1" style="fill:#EBEBF1;fill:color(display-p3 0.9222 0.9222 0.9458);fill-opacity:1;"/>
<circle cx="565.5" cy="231.5" r="1.5" fill="#EBEBF1" style="fill:#EBEBF1;fill:color(display-p3 0.9222 0.9222 0.9458);fill-opacity:1;"/>
<circle cx="616.5" cy="231.5" r="1.5" fill="#EBEBF1" style="fill:#EBEBF1;fill:color(display-p3 0.9222 0.9222 0.9458);fill-opacity:1;"/>
<circle cx="667.5" cy="231.5" r="1.5" fill="#EBEBF1" style="fill:#EBEBF1;fill:color(display-p3 0.9222 0.9222 0.9458);fill-opacity:1;"/>
<circle cx="718.5" cy="231.5" r="1.5" fill="#EBEBF1" style="fill:#EBEBF1;fill:color(display-p3 0.9222 0.9222 0.9458);fill-opacity:1;"/>
<circle cx="769.5" cy="231.5" r="1.5" fill="#EBEBF1" style="fill:#EBEBF1;fill:color(display-p3 0.9222 0.9222 0.9458);fill-opacity:1;"/>
<circle cx="820.5" cy="231.5" r="1.5" fill="#EBEBF1" style="fill:#EBEBF1;fill:color(display-p3 0.9222 0.9222 0.9458);fill-opacity:1;"/>
<circle cx="871.5" cy="231.5" r="1.5" fill="#EBEBF1" style="fill:#EBEBF1;fill:color(display-p3 0.9222 0.9222 0.9458);fill-opacity:1;"/>
<circle cx="922.5" cy="231.5" r="1.5" fill="#EBEBF1" style="fill:#EBEBF1;fill:color(display-p3 0.9222 0.9222 0.9458);fill-opacity:1;"/>
<circle cx="973.5" cy="231.5" r="1.5" fill="#EBEBF1" style="fill:#EBEBF1;fill:color(display-p3 0.9222 0.9222 0.9458);fill-opacity:1;"/>
<circle cx="1024.5" cy="231.5" r="1.5" fill="#EBEBF1" style="fill:#EBEBF1;fill:color(display-p3 0.9222 0.9222 0.9458);fill-opacity:1;"/>
<circle cx="4.5" cy="282.5" r="1.5" fill="#EBEBF1" style="fill:#EBEBF1;fill:color(display-p3 0.9222 0.9222 0.9458);fill-opacity:1;"/>
<circle cx="55.5" cy="282.5" r="1.5" fill="#EBEBF1" style="fill:#EBEBF1;fill:color(display-p3 0.9222 0.9222 0.9458);fill-opacity:1;"/>
<circle cx="106.5" cy="282.5" r="1.5" fill="#EBEBF1" style="fill:#EBEBF1;fill:color(display-p3 0.9222 0.9222 0.9458);fill-opacity:1;"/>
<circle cx="157.5" cy="282.5" r="1.5" fill="#EBEBF1" style="fill:#EBEBF1;fill:color(display-p3 0.9222 0.9222 0.9458);fill-opacity:1;"/>
<circle cx="208.5" cy="282.5" r="1.5" fill="#EBEBF1" style="fill:#EBEBF1;fill:color(display-p3 0.9222 0.9222 0.9458);fill-opacity:1;"/>
<circle cx="259.5" cy="282.5" r="1.5" fill="#EBEBF1" style="fill:#EBEBF1;fill:color(display-p3 0.9222 0.9222 0.9458);fill-opacity:1;"/>
<circle cx="310.5" cy="282.5" r="1.5" fill="#EBEBF1" style="fill:#EBEBF1;fill:color(display-p3 0.9222 0.9222 0.9458);fill-opacity:1;"/>
<circle cx="361.5" cy="282.5" r="1.5" fill="#EBEBF1" style="fill:#EBEBF1;fill:color(display-p3 0.9222 0.9222 0.9458);fill-opacity:1;"/>
<circle cx="412.5" cy="282.5" r="1.5" fill="#EBEBF1" style="fill:#EBEBF1;fill:color(display-p3 0.9222 0.9222 0.9458);fill-opacity:1;"/>
<circle cx="463.5" cy="282.5" r="1.5" fill="#EBEBF1" style="fill:#EBEBF1;fill:color(display-p3 0.9222 0.9222 0.9458);fill-opacity:1;"/>
<circle cx="514.5" cy="282.5" r="1.5" fill="#EBEBF1" style="fill:#EBEBF1;fill:color(display-p3 0.9222 0.9222 0.9458);fill-opacity:1;"/>
<circle cx="565.5" cy="282.5" r="1.5" fill="#EBEBF1" style="fill:#EBEBF1;fill:color(display-p3 0.9222 0.9222 0.9458);fill-opacity:1;"/>
<circle cx="616.5" cy="282.5" r="1.5" fill="#EBEBF1" style="fill:#EBEBF1;fill:color(display-p3 0.9222 0.9222 0.9458);fill-opacity:1;"/>
<circle cx="667.5" cy="282.5" r="1.5" fill="#EBEBF1" style="fill:#EBEBF1;fill:color(display-p3 0.9222 0.9222 0.9458);fill-opacity:1;"/>
<circle cx="718.5" cy="282.5" r="1.5" fill="#EBEBF1" style="fill:#EBEBF1;fill:color(display-p3 0.9222 0.9222 0.9458);fill-opacity:1;"/>
<circle cx="769.5" cy="282.5" r="1.5" fill="#EBEBF1" style="fill:#EBEBF1;fill:color(display-p3 0.9222 0.9222 0.9458);fill-opacity:1;"/>
<circle cx="820.5" cy="282.5" r="1.5" fill="#EBEBF1" style="fill:#EBEBF1;fill:color(display-p3 0.9222 0.9222 0.9458);fill-opacity:1;"/>
<circle cx="871.5" cy="282.5" r="1.5" fill="#EBEBF1" style="fill:#EBEBF1;fill:color(display-p3 0.9222 0.9222 0.9458);fill-opacity:1;"/>
<circle cx="922.5" cy="282.5" r="1.5" fill="#EBEBF1" style="fill:#EBEBF1;fill:color(display-p3 0.9222 0.9222 0.9458);fill-opacity:1;"/>
<circle cx="973.5" cy="282.5" r="1.5" fill="#EBEBF1" style="fill:#EBEBF1;fill:color(display-p3 0.9222 0.9222 0.9458);fill-opacity:1;"/>
<circle cx="1024.5" cy="282.5" r="1.5" fill="#EBEBF1" style="fill:#EBEBF1;fill:color(display-p3 0.9222 0.9222 0.9458);fill-opacity:1;"/>
<circle cx="4.5" cy="333.5" r="1.5" fill="#EBEBF1" style="fill:#EBEBF1;fill:color(display-p3 0.9222 0.9222 0.9458);fill-opacity:1;"/>
<circle cx="55.5" cy="333.5" r="1.5" fill="#EBEBF1" style="fill:#EBEBF1;fill:color(display-p3 0.9222 0.9222 0.9458);fill-opacity:1;"/>
<circle cx="106.5" cy="333.5" r="1.5" fill="#EBEBF1" style="fill:#EBEBF1;fill:color(display-p3 0.9222 0.9222 0.9458);fill-opacity:1;"/>
<circle cx="157.5" cy="333.5" r="1.5" fill="#EBEBF1" style="fill:#EBEBF1;fill:color(display-p3 0.9222 0.9222 0.9458);fill-opacity:1;"/>
<circle cx="208.5" cy="333.5" r="1.5" fill="#EBEBF1" style="fill:#EBEBF1;fill:color(display-p3 0.9222 0.9222 0.9458);fill-opacity:1;"/>
<circle cx="259.5" cy="333.5" r="1.5" fill="#EBEBF1" style="fill:#EBEBF1;fill:color(display-p3 0.9222 0.9222 0.9458);fill-opacity:1;"/>
<circle cx="310.5" cy="333.5" r="1.5" fill="#EBEBF1" style="fill:#EBEBF1;fill:color(display-p3 0.9222 0.9222 0.9458);fill-opacity:1;"/>
<circle cx="361.5" cy="333.5" r="1.5" fill="#EBEBF1" style="fill:#EBEBF1;fill:color(display-p3 0.9222 0.9222 0.9458);fill-opacity:1;"/>
<circle cx="412.5" cy="333.5" r="1.5" fill="#EBEBF1" style="fill:#EBEBF1;fill:color(display-p3 0.9222 0.9222 0.9458);fill-opacity:1;"/>
<circle cx="463.5" cy="333.5" r="1.5" fill="#EBEBF1" style="fill:#EBEBF1;fill:color(display-p3 0.9222 0.9222 0.9458);fill-opacity:1;"/>
<circle cx="514.5" cy="333.5" r="1.5" fill="#EBEBF1" style="fill:#EBEBF1;fill:color(display-p3 0.9222 0.9222 0.9458);fill-opacity:1;"/>
<circle cx="565.5" cy="333.5" r="1.5" fill="#EBEBF1" style="fill:#EBEBF1;fill:color(display-p3 0.9222 0.9222 0.9458);fill-opacity:1;"/>
<circle cx="616.5" cy="333.5" r="1.5" fill="#EBEBF1" style="fill:#EBEBF1;fill:color(display-p3 0.9222 0.9222 0.9458);fill-opacity:1;"/>
<circle cx="667.5" cy="333.5" r="1.5" fill="#EBEBF1" style="fill:#EBEBF1;fill:color(display-p3 0.9222 0.9222 0.9458);fill-opacity:1;"/>
<circle cx="718.5" cy="333.5" r="1.5" fill="#EBEBF1" style="fill:#EBEBF1;fill:color(display-p3 0.9222 0.9222 0.9458);fill-opacity:1;"/>
<circle cx="769.5" cy="333.5" r="1.5" fill="#EBEBF1" style="fill:#EBEBF1;fill:color(display-p3 0.9222 0.9222 0.9458);fill-opacity:1;"/>
<circle cx="820.5" cy="333.5" r="1.5" fill="#EBEBF1" style="fill:#EBEBF1;fill:color(display-p3 0.9222 0.9222 0.9458);fill-opacity:1;"/>
<circle cx="871.5" cy="333.5" r="1.5" fill="#EBEBF1" style="fill:#EBEBF1;fill:color(display-p3 0.9222 0.9222 0.9458);fill-opacity:1;"/>
<circle cx="922.5" cy="333.5" r="1.5" fill="#EBEBF1" style="fill:#EBEBF1;fill:color(display-p3 0.9222 0.9222 0.9458);fill-opacity:1;"/>
<circle cx="973.5" cy="333.5" r="1.5" fill="#EBEBF1" style="fill:#EBEBF1;fill:color(display-p3 0.9222 0.9222 0.9458);fill-opacity:1;"/>
<circle cx="1024.5" cy="333.5" r="1.5" fill="#EBEBF1" style="fill:#EBEBF1;fill:color(display-p3 0.9222 0.9222 0.9458);fill-opacity:1;"/>
<circle cx="4.5" cy="384.5" r="1.5" fill="#EBEBF1" style="fill:#EBEBF1;fill:color(display-p3 0.9222 0.9222 0.9458);fill-opacity:1;"/>
<circle cx="55.5" cy="384.5" r="1.5" fill="#EBEBF1" style="fill:#EBEBF1;fill:color(display-p3 0.9222 0.9222 0.9458);fill-opacity:1;"/>
<circle cx="106.5" cy="384.5" r="1.5" fill="#EBEBF1" style="fill:#EBEBF1;fill:color(display-p3 0.9222 0.9222 0.9458);fill-opacity:1;"/>
<circle cx="157.5" cy="384.5" r="1.5" fill="#EBEBF1" style="fill:#EBEBF1;fill:color(display-p3 0.9222 0.9222 0.9458);fill-opacity:1;"/>
<circle cx="208.5" cy="384.5" r="1.5" fill="#EBEBF1" style="fill:#EBEBF1;fill:color(display-p3 0.9222 0.9222 0.9458);fill-opacity:1;"/>
<circle cx="259.5" cy="384.5" r="1.5" fill="#EBEBF1" style="fill:#EBEBF1;fill:color(display-p3 0.9222 0.9222 0.9458);fill-opacity:1;"/>
<circle cx="310.5" cy="384.5" r="1.5" fill="#EBEBF1" style="fill:#EBEBF1;fill:color(display-p3 0.9222 0.9222 0.9458);fill-opacity:1;"/>
<circle cx="361.5" cy="384.5" r="1.5" fill="#EBEBF1" style="fill:#EBEBF1;fill:color(display-p3 0.9222 0.9222 0.9458);fill-opacity:1;"/>
<circle cx="412.5" cy="384.5" r="1.5" fill="#EBEBF1" style="fill:#EBEBF1;fill:color(display-p3 0.9222 0.9222 0.9458);fill-opacity:1;"/>
<circle cx="463.5" cy="384.5" r="1.5" fill="#EBEBF1" style="fill:#EBEBF1;fill:color(display-p3 0.9222 0.9222 0.9458);fill-opacity:1;"/>
<circle cx="514.5" cy="384.5" r="1.5" fill="#EBEBF1" style="fill:#EBEBF1;fill:color(display-p3 0.9222 0.9222 0.9458);fill-opacity:1;"/>
<circle cx="565.5" cy="384.5" r="1.5" fill="#EBEBF1" style="fill:#EBEBF1;fill:color(display-p3 0.9222 0.9222 0.9458);fill-opacity:1;"/>
<circle cx="616.5" cy="384.5" r="1.5" fill="#EBEBF1" style="fill:#EBEBF1;fill:color(display-p3 0.9222 0.9222 0.9458);fill-opacity:1;"/>
<circle cx="667.5" cy="384.5" r="1.5" fill="#EBEBF1" style="fill:#EBEBF1;fill:color(display-p3 0.9222 0.9222 0.9458);fill-opacity:1;"/>
<circle cx="718.5" cy="384.5" r="1.5" fill="#EBEBF1" style="fill:#EBEBF1;fill:color(display-p3 0.9222 0.9222 0.9458);fill-opacity:1;"/>
<circle cx="769.5" cy="384.5" r="1.5" fill="#EBEBF1" style="fill:#EBEBF1;fill:color(display-p3 0.9222 0.9222 0.9458);fill-opacity:1;"/>
<circle cx="820.5" cy="384.5" r="1.5" fill="#EBEBF1" style="fill:#EBEBF1;fill:color(display-p3 0.9222 0.9222 0.9458);fill-opacity:1;"/>
<circle cx="871.5" cy="384.5" r="1.5" fill="#EBEBF1" style="fill:#EBEBF1;fill:color(display-p3 0.9222 0.9222 0.9458);fill-opacity:1;"/>
<circle cx="922.5" cy="384.5" r="1.5" fill="#EBEBF1" style="fill:#EBEBF1;fill:color(display-p3 0.9222 0.9222 0.9458);fill-opacity:1;"/>
<circle cx="973.5" cy="384.5" r="1.5" fill="#EBEBF1" style="fill:#EBEBF1;fill:color(display-p3 0.9222 0.9222 0.9458);fill-opacity:1;"/>
<circle cx="1024.5" cy="384.5" r="1.5" fill="#EBEBF1" style="fill:#EBEBF1;fill:color(display-p3 0.9222 0.9222 0.9458);fill-opacity:1;"/>
<g opacity="0.2">
<rect x="584" y="24" width="418" height="352" rx="24" fill="#F9FAFB" style="fill:#F9FAFB;fill:color(display-p3 0.9765 0.9804 0.9843);fill-opacity:1;"/>
<rect x="585" y="25" width="416" height="350" rx="23" stroke="black" stroke-opacity="0.48" style="stroke:black;stroke-opacity:0.48;" stroke-width="2" stroke-dasharray="4 4"/>
</g>
<path d="M40 173H161C169.284 173 176 179.716 176 188V212C176 220.284 169.284 227 161 227H40C31.7157 227 25 220.284 25 212V188C25 179.716 31.7157 173 40 173Z" fill="#F1F0FF" style="fill:#F1F0FF;fill:color(display-p3 0.9457 0.9424 1.0000);fill-opacity:1;"/>
<path d="M40 173H161C169.284 173 176 179.716 176 188V212C176 220.284 169.284 227 161 227H40C31.7157 227 25 220.284 25 212V188C25 179.716 31.7157 173 40 173Z" stroke="#473CFB" style="stroke:#473CFB;stroke:color(display-p3 0.2784 0.2353 0.9843);stroke-opacity:1;" stroke-width="2"/>
<path fill-rule="evenodd" clip-rule="evenodd" d="M50.8756 188.119C51.6201 187.96 52.3895 187.96 53.1339 188.119C53.9781 188.298 54.7529 188.746 55.8737 189.394C55.923 189.422 55.973 189.451 56.0236 189.48L59.1058 191.26C59.1565 191.289 59.2064 191.318 59.2557 191.346C60.3771 191.993 61.1522 192.44 61.7297 193.081C62.239 193.647 62.6237 194.313 62.8589 195.037C63.1256 195.858 63.1252 196.753 63.1247 198.047C63.1247 198.104 63.1247 198.162 63.1247 198.221V201.779C63.1247 201.838 63.1247 201.896 63.1247 201.953C63.1252 203.247 63.1256 204.142 62.8589 204.963C62.6237 205.687 62.239 206.353 61.7297 206.919C61.1522 207.56 60.3771 208.007 59.2557 208.654C59.2064 208.682 59.1565 208.711 59.1058 208.74L56.0236 210.52C55.973 210.549 55.923 210.578 55.8737 210.606C54.7528 211.254 53.9781 211.702 53.1339 211.881C52.3895 212.04 51.6201 212.04 50.8756 211.881C50.0314 211.702 49.2567 211.254 48.1358 210.606C48.0865 210.578 48.0366 210.549 47.9859 210.52L44.9037 208.74C44.8531 208.711 44.8031 208.682 44.7538 208.654C43.6324 208.007 42.8573 207.56 42.2798 206.919C41.7705 206.353 41.3858 205.687 41.1507 204.963C40.884 204.142 40.8843 203.247 40.8848 201.953C40.8848 201.896 40.8849 201.838 40.8849 201.779V198.221C40.8849 198.162 40.8848 198.104 40.8848 198.047C40.8843 196.753 40.884 195.858 41.1507 195.037C41.3858 194.313 41.7705 193.647 42.2798 193.081C42.8573 192.44 43.6324 191.993 44.7538 191.346C44.8031 191.318 44.8531 191.289 44.9037 191.26L47.9859 189.48C48.0365 189.451 48.0865 189.422 48.1358 189.394C49.2567 188.746 50.0314 188.298 50.8756 188.119ZM52.6823 190.244C52.2356 190.149 51.7739 190.149 51.3273 190.244C50.8624 190.342 50.4018 190.594 49.0721 191.361L45.9899 193.141C44.6602 193.909 44.2122 194.182 43.8942 194.535C43.5886 194.874 43.3578 195.274 43.2167 195.709C43.0698 196.161 43.0572 196.685 43.0572 198.221V201.779C43.0572 203.315 43.0698 203.839 43.2167 204.291C43.3578 204.726 43.5886 205.126 43.8942 205.465C44.2122 205.818 44.6602 206.091 45.9899 206.859L49.0721 208.639C50.4018 209.406 50.8624 209.658 51.3273 209.756C51.7739 209.851 52.2356 209.851 52.6823 209.756C53.1471 209.658 53.6078 209.406 54.9375 208.639L58.0196 206.859C59.3493 206.091 59.7973 205.818 60.1153 205.465C60.4209 205.126 60.6517 204.726 60.7928 204.291C60.9397 203.839 60.9523 203.315 60.9523 201.779V198.221C60.9523 196.685 60.9397 196.161 60.7928 195.709C60.6517 195.274 60.4209 194.874 60.1153 194.535C59.7973 194.182 59.3493 193.909 58.0196 193.141L54.9375 191.361C53.6078 190.594 53.1471 190.342 52.6823 190.244Z" fill="#718096" style="fill:#718096;fill:color(display-p3 0.4431 0.5020 0.5882);fill-opacity:1;"/>
<circle cx="52" cy="200" r="4.5" fill="#A0AEC0" style="fill:#A0AEC0;fill:color(display-p3 0.6275 0.6824 0.7529);fill-opacity:1;"/>
<path d="M75.078 207.52V197.3H76.786V198.77H77.178L76.786 199.176C76.786 198.551 76.968 198.061 77.332 197.706C77.7053 197.342 78.214 197.16 78.858 197.16C79.6327 197.16 80.2487 197.426 80.706 197.958C81.1633 198.49 81.392 199.204 81.392 200.1V202.186C81.392 203.091 81.1633 203.81 80.706 204.342C80.2487 204.874 79.6327 205.14 78.858 205.14C78.214 205.14 77.7053 204.963 77.332 204.608C76.968 204.244 76.786 203.749 76.786 203.124L77.178 203.53H76.772L76.828 205.364V207.52H75.078ZM78.242 203.628C78.69 203.628 79.0353 203.497 79.278 203.236C79.5207 202.975 79.642 202.601 79.642 202.116V200.184C79.642 199.699 79.5207 199.325 79.278 199.064C79.0353 198.803 78.69 198.672 78.242 198.672C77.8033 198.672 77.458 198.807 77.206 199.078C76.954 199.339 76.828 199.708 76.828 200.184V202.116C76.828 202.592 76.954 202.965 77.206 203.236C77.458 203.497 77.8033 203.628 78.242 203.628ZM83.7105 205V197.3H85.3625V198.77H85.7965L85.2785 199.666C85.2785 198.845 85.4652 198.224 85.8385 197.804C86.2119 197.375 86.7625 197.16 87.4905 197.16C88.3212 197.16 88.9745 197.417 89.4505 197.93C89.9265 198.443 90.1645 199.153 90.1645 200.058V200.618H88.3305V200.184C88.3305 199.689 88.2045 199.307 87.9525 199.036C87.7005 198.765 87.3459 198.63 86.8885 198.63C86.4405 198.63 86.0905 198.765 85.8385 199.036C85.5865 199.307 85.4605 199.689 85.4605 200.184V205H83.7105ZM94.9891 205.14C94.3357 205.14 93.7664 205.019 93.2811 204.776C92.8051 204.524 92.4364 204.174 92.1751 203.726C91.9231 203.269 91.7971 202.732 91.7971 202.116V200.184C91.7971 199.568 91.9231 199.036 92.1751 198.588C92.4364 198.131 92.8051 197.781 93.2811 197.538C93.7664 197.286 94.3357 197.16 94.9891 197.16C95.6424 197.16 96.2071 197.286 96.6831 197.538C97.1684 197.781 97.5371 198.131 97.7891 198.588C98.0504 199.036 98.1811 199.563 98.1811 200.17V202.116C98.1811 202.732 98.0504 203.269 97.7891 203.726C97.5371 204.174 97.1684 204.524 96.6831 204.776C96.2071 205.019 95.6424 205.14 94.9891 205.14ZM94.9891 203.614C95.4557 203.614 95.8104 203.483 96.0531 203.222C96.3051 202.961 96.4311 202.592 96.4311 202.116V200.184C96.4311 199.699 96.3051 199.33 96.0531 199.078C95.8104 198.817 95.4557 198.686 94.9891 198.686C94.5224 198.686 94.1631 198.817 93.9111 199.078C93.6684 199.33 93.5471 199.699 93.5471 200.184V202.116C93.5471 202.592 93.6684 202.961 93.9111 203.222C94.1631 203.483 94.5224 203.614 94.9891 203.614ZM99.7156 205L102.376 201.024L99.8976 197.3H101.872L103.034 199.19C103.155 199.386 103.272 199.624 103.384 199.904C103.505 199.624 103.622 199.386 103.734 199.19L104.91 197.3H106.884L104.406 201.024L107.052 205H105.064L103.762 202.886C103.64 202.69 103.514 202.447 103.384 202.158C103.262 202.438 103.141 202.681 103.02 202.886L101.69 205H99.7156ZM109.944 207.52L111.036 204.58L108.138 197.3H110.042L111.456 201.234C111.587 201.617 111.722 202.111 111.862 202.718C112.002 202.111 112.133 201.617 112.254 201.234L113.57 197.3H115.418L111.792 207.52H109.944Z" fill="#1A2B58" style="fill:#1A2B58;fill:color(display-p3 0.1020 0.1686 0.3451);fill-opacity:1;"/>
<path d="M844.6 172.5H952.4C956.889 172.5 960.225 172.501 962.868 172.717C965.505 172.932 967.408 173.359 969.037 174.189C971.953 175.675 974.325 178.047 975.811 180.963C976.641 182.592 977.068 184.495 977.283 187.132C977.499 189.775 977.5 193.111 977.5 197.6V202.4C977.5 206.889 977.499 210.225 977.283 212.868C977.068 215.505 976.641 217.408 975.811 219.037C974.325 221.953 971.953 224.325 969.037 225.811C967.408 226.641 965.505 227.068 962.868 227.283C960.225 227.499 956.889 227.5 952.4 227.5H844.6C840.111 227.5 836.775 227.499 834.132 227.283C831.495 227.068 829.592 226.641 827.963 225.811C825.047 224.325 822.675 221.953 821.189 219.037C820.359 217.408 819.932 215.505 819.717 212.868C819.501 210.225 819.5 206.889 819.5 202.4V197.6C819.5 193.111 819.501 189.775 819.717 187.132C819.932 184.495 820.359 182.592 821.189 180.963C822.675 178.047 825.047 175.675 827.963 174.189C829.592 173.359 831.495 172.932 834.132 172.717C836.775 172.501 840.111 172.5 844.6 172.5Z" fill="#F3F4F6" style="fill:#F3F4F6;fill:color(display-p3 0.9529 0.9569 0.9647);fill-opacity:1;"/>
<path d="M844.6 172.5H952.4C956.889 172.5 960.225 172.501 962.868 172.717C965.505 172.932 967.408 173.359 969.037 174.189C971.953 175.675 974.325 178.047 975.811 180.963C976.641 182.592 977.068 184.495 977.283 187.132C977.499 189.775 977.5 193.111 977.5 197.6V202.4C977.5 206.889 977.499 210.225 977.283 212.868C977.068 215.505 976.641 217.408 975.811 219.037C974.325 221.953 971.953 224.325 969.037 225.811C967.408 226.641 965.505 227.068 962.868 227.283C960.225 227.499 956.889 227.5 952.4 227.5H844.6C840.111 227.5 836.775 227.499 834.132 227.283C831.495 227.068 829.592 226.641 827.963 225.811C825.047 224.325 822.675 221.953 821.189 219.037C820.359 217.408 819.932 215.505 819.717 212.868C819.501 210.225 819.5 206.889 819.5 202.4V197.6C819.5 193.111 819.501 189.775 819.717 187.132C819.932 184.495 820.359 182.592 821.189 180.963C822.675 178.047 825.047 175.675 827.963 174.189C829.592 173.359 831.495 172.932 834.132 172.717C836.775 172.501 840.111 172.5 844.6 172.5Z" stroke="#E5E7EB" style="stroke:#E5E7EB;stroke:color(display-p3 0.8980 0.9059 0.9216);stroke-opacity:1;"/>
<path fill-rule="evenodd" clip-rule="evenodd" d="M845.876 188.119C846.62 187.96 847.389 187.96 848.134 188.119C848.978 188.298 849.753 188.746 850.874 189.394C850.923 189.422 850.973 189.451 851.024 189.48L854.106 191.26C854.156 191.289 854.206 191.318 854.256 191.346C855.377 191.993 856.152 192.44 856.73 193.081C857.239 193.647 857.624 194.313 857.859 195.037C858.126 195.858 858.125 196.753 858.125 198.047C858.125 198.104 858.125 198.162 858.125 198.221V201.779C858.125 201.838 858.125 201.896 858.125 201.953C858.125 203.247 858.126 204.142 857.859 204.963C857.624 205.687 857.239 206.353 856.73 206.919C856.152 207.56 855.377 208.007 854.256 208.654C854.206 208.682 854.156 208.711 854.106 208.74L851.024 210.52C850.973 210.549 850.923 210.578 850.874 210.606C849.753 211.254 848.978 211.702 848.134 211.881C847.389 212.04 846.62 212.04 845.876 211.881C845.031 211.702 844.257 211.254 843.136 210.606C843.087 210.578 843.037 210.549 842.986 210.52L839.904 208.74C839.853 208.711 839.803 208.682 839.754 208.654C838.632 208.007 837.857 207.56 837.28 206.919C836.771 206.353 836.386 205.687 836.151 204.963C835.884 204.142 835.884 203.247 835.885 201.953C835.885 201.896 835.885 201.838 835.885 201.779V198.221C835.885 198.162 835.885 198.104 835.885 198.047C835.884 196.753 835.884 195.858 836.151 195.037C836.386 194.313 836.771 193.647 837.28 193.081C837.857 192.44 838.632 191.993 839.754 191.346C839.803 191.318 839.853 191.289 839.904 191.26L842.986 189.48C843.037 189.451 843.086 189.422 843.136 189.394C844.257 188.746 845.031 188.298 845.876 188.119ZM847.682 190.244C847.236 190.149 846.774 190.149 846.327 190.244C845.862 190.342 845.402 190.594 844.072 191.361L840.99 193.141C839.66 193.909 839.212 194.182 838.894 194.535C838.589 194.874 838.358 195.274 838.217 195.709C838.07 196.161 838.057 196.685 838.057 198.221V201.779C838.057 203.315 838.07 203.839 838.217 204.291C838.358 204.726 838.589 205.126 838.894 205.465C839.212 205.818 839.66 206.091 840.99 206.859L844.072 208.639C845.402 209.406 845.862 209.658 846.327 209.756C846.774 209.851 847.236 209.851 847.682 209.756C848.147 209.658 848.608 209.406 849.937 208.639L853.02 206.859C854.349 206.091 854.797 205.818 855.115 205.465C855.421 205.126 855.652 204.726 855.793 204.291C855.94 203.839 855.952 203.315 855.952 201.779V198.221C855.952 196.685 855.94 196.161 855.793 195.709C855.652 195.274 855.421 194.874 855.115 194.535C854.797 194.182 854.349 193.909 853.02 193.141L849.937 191.361C848.608 190.594 848.147 190.342 847.682 190.244Z" fill="#718096" style="fill:#718096;fill:color(display-p3 0.4431 0.5020 0.5882);fill-opacity:1;"/>
<circle cx="847" cy="200" r="4.5" fill="#A0AEC0" style="fill:#A0AEC0;fill:color(display-p3 0.6275 0.6824 0.7529);fill-opacity:1;"/>
<path d="M872.878 205.14C872.299 205.14 871.786 205.047 871.338 204.86C870.899 204.673 870.554 204.412 870.302 204.076C870.059 203.74 869.929 203.348 869.91 202.9H871.66C871.679 203.152 871.795 203.353 872.01 203.502C872.234 203.642 872.523 203.712 872.878 203.712H873.494C873.914 203.712 874.231 203.633 874.446 203.474C874.67 203.306 874.782 203.073 874.782 202.774C874.782 202.503 874.684 202.293 874.488 202.144C874.301 201.995 874.007 201.892 873.606 201.836L872.654 201.696C871.767 201.575 871.119 201.341 870.708 200.996C870.307 200.641 870.106 200.123 870.106 199.442C870.106 198.714 870.349 198.154 870.834 197.762C871.329 197.361 872.043 197.16 872.976 197.16H873.508C874.357 197.16 875.039 197.356 875.552 197.748C876.075 198.131 876.355 198.644 876.392 199.288H874.642C874.614 199.083 874.497 198.915 874.292 198.784C874.096 198.653 873.835 198.588 873.508 198.588H872.976C872.575 198.588 872.281 198.663 872.094 198.812C871.907 198.952 871.814 199.162 871.814 199.442C871.814 199.694 871.893 199.885 872.052 200.016C872.211 200.147 872.472 200.24 872.836 200.296L873.83 200.436C874.754 200.567 875.426 200.814 875.846 201.178C876.275 201.533 876.49 202.06 876.49 202.76C876.49 203.516 876.233 204.104 875.72 204.524C875.216 204.935 874.474 205.14 873.494 205.14H872.878ZM881.609 205.14C880.955 205.14 880.386 205.014 879.901 204.762C879.425 204.51 879.056 204.16 878.795 203.712C878.533 203.255 878.403 202.723 878.403 202.116V200.184C878.403 199.577 878.533 199.05 878.795 198.602C879.056 198.145 879.425 197.79 879.901 197.538C880.386 197.286 880.955 197.16 881.609 197.16C882.243 197.16 882.799 197.286 883.275 197.538C883.76 197.79 884.133 198.145 884.395 198.602C884.656 199.05 884.787 199.577 884.787 200.184V201.57H880.083V202.116C880.083 202.657 880.209 203.068 880.461 203.348C880.722 203.619 881.109 203.754 881.623 203.754C882.015 203.754 882.327 203.689 882.561 203.558C882.794 203.418 882.943 203.217 883.009 202.956H884.745C884.605 203.619 884.25 204.151 883.681 204.552C883.121 204.944 882.43 205.14 881.609 205.14ZM883.107 200.17C883.107 199.629 882.981 199.218 882.729 198.938C882.477 198.658 882.103 198.518 881.609 198.518C881.105 198.518 880.722 198.663 880.461 198.952C880.209 199.232 880.083 199.643 880.083 200.184V200.478L883.233 200.45L883.107 200.59V200.17ZM887.105 205V197.3H888.757V198.77H889.191L888.673 199.666C888.673 198.845 888.86 198.224 889.233 197.804C889.606 197.375 890.157 197.16 890.885 197.16C891.716 197.16 892.369 197.417 892.845 197.93C893.321 198.443 893.559 199.153 893.559 200.058V200.618H891.725V200.184C891.725 199.689 891.599 199.307 891.347 199.036C891.095 198.765 890.74 198.63 890.283 198.63C889.835 198.63 889.485 198.765 889.233 199.036C888.981 199.307 888.855 199.689 888.855 200.184V205H887.105ZM897.264 205L894.758 197.3H896.564L897.992 201.976C898.141 202.461 898.281 202.989 898.412 203.558C898.542 202.998 898.678 202.475 898.818 201.99L900.232 197.3H902.01L899.518 205H897.264ZM903.614 205V203.404H906.302V198.882H903.964V197.3H907.968V203.404H910.362V205H903.614ZM906.904 196.138C906.596 196.138 906.353 196.054 906.176 195.886C905.999 195.718 905.91 195.494 905.91 195.214C905.91 194.934 905.999 194.71 906.176 194.542C906.363 194.374 906.605 194.29 906.904 194.29H907.184C907.483 194.29 907.721 194.374 907.898 194.542C908.085 194.71 908.178 194.934 908.178 195.214C908.178 195.494 908.085 195.718 907.898 195.886C907.721 196.054 907.478 196.138 907.17 196.138H906.904ZM915.215 205.14C914.561 205.14 913.987 205.019 913.493 204.776C913.007 204.533 912.634 204.183 912.373 203.726C912.111 203.269 911.981 202.732 911.981 202.116V200.184C911.981 199.568 912.111 199.031 912.373 198.574C912.634 198.117 913.007 197.767 913.493 197.524C913.987 197.281 914.561 197.16 915.215 197.16C916.185 197.16 916.96 197.412 917.539 197.916C918.117 198.411 918.421 199.087 918.449 199.946H916.699C916.671 199.554 916.526 199.246 916.265 199.022C916.013 198.798 915.663 198.686 915.215 198.686C914.748 198.686 914.384 198.817 914.123 199.078C913.861 199.33 913.731 199.694 913.731 200.17V202.116C913.731 202.601 913.857 202.975 914.109 203.236C914.37 203.488 914.739 203.614 915.215 203.614C915.663 203.614 916.013 203.507 916.265 203.292C916.526 203.068 916.671 202.755 916.699 202.354H918.449C918.421 203.213 918.117 203.894 917.539 204.398C916.96 204.893 916.185 205.14 915.215 205.14ZM923.581 205.14C922.928 205.14 922.359 205.014 921.873 204.762C921.397 204.51 921.029 204.16 920.767 203.712C920.506 203.255 920.375 202.723 920.375 202.116V200.184C920.375 199.577 920.506 199.05 920.767 198.602C921.029 198.145 921.397 197.79 921.873 197.538C922.359 197.286 922.928 197.16 923.581 197.16C924.216 197.16 924.771 197.286 925.247 197.538C925.733 197.79 926.106 198.145 926.367 198.602C926.629 199.05 926.759 199.577 926.759 200.184V201.57H922.055V202.116C922.055 202.657 922.181 203.068 922.433 203.348C922.695 203.619 923.082 203.754 923.595 203.754C923.987 203.754 924.3 203.689 924.533 203.558C924.767 203.418 924.916 203.217 924.981 202.956H926.717C926.577 203.619 926.223 204.151 925.653 204.552C925.093 204.944 924.403 205.14 923.581 205.14ZM925.079 200.17C925.079 199.629 924.953 199.218 924.701 198.938C924.449 198.658 924.076 198.518 923.581 198.518C923.077 198.518 922.695 198.663 922.433 198.952C922.181 199.232 922.055 199.643 922.055 200.184V200.478L925.205 200.45L925.079 200.59V200.17Z" fill="#1A2B58" style="fill:#1A2B58;fill:color(display-p3 0.1020 0.1686 0.3451);fill-opacity:1;"/>
<path d="M513.102 199.909C513.102 201.006 512.897 201.946 512.486 202.728C512.078 203.507 511.521 204.103 510.815 204.518C510.113 204.932 509.316 205.139 508.424 205.139C507.532 205.139 506.734 204.932 506.028 204.518C505.325 204.1 504.768 203.502 504.357 202.723C503.95 201.941 503.746 201.003 503.746 199.909C503.746 198.812 503.95 197.874 504.357 197.095C504.768 196.313 505.325 195.715 506.028 195.3C506.734 194.886 507.532 194.679 508.424 194.679C509.316 194.679 510.113 194.886 510.815 195.3C511.521 195.715 512.078 196.313 512.486 197.095C512.897 197.874 513.102 198.812 513.102 199.909ZM511.248 199.909C511.248 199.137 511.127 198.486 510.885 197.955C510.646 197.422 510.315 197.019 509.891 196.747C509.466 196.472 508.978 196.335 508.424 196.335C507.871 196.335 507.382 196.472 506.957 196.747C506.533 197.019 506.2 197.422 505.958 197.955C505.719 198.486 505.6 199.137 505.6 199.909C505.6 200.681 505.719 201.334 505.958 201.868C506.2 202.398 506.533 202.801 506.957 203.076C507.382 203.348 507.871 203.484 508.424 203.484C508.978 203.484 509.466 203.348 509.891 203.076C510.315 202.801 510.646 202.398 510.885 201.868C511.127 201.334 511.248 200.681 511.248 199.909ZM514.846 205V194.818H518.664C519.446 194.818 520.103 194.954 520.633 195.226C521.167 195.498 521.569 195.879 521.841 196.369C522.116 196.857 522.254 197.425 522.254 198.075C522.254 198.728 522.115 199.294 521.836 199.775C521.561 200.252 521.155 200.622 520.618 200.884C520.081 201.142 519.422 201.271 518.639 201.271H515.92V199.74H518.391C518.848 199.74 519.223 199.677 519.514 199.551C519.806 199.422 520.021 199.235 520.161 198.989C520.303 198.741 520.374 198.436 520.374 198.075C520.374 197.713 520.303 197.405 520.161 197.15C520.018 196.891 519.801 196.696 519.509 196.563C519.218 196.427 518.842 196.359 518.381 196.359H516.691V205H514.846ZM520.106 200.386L522.627 205H520.568L518.093 200.386H520.106Z" fill="#59645F" style="fill:#59645F;fill:color(display-p3 0.3490 0.3922 0.3725);fill-opacity:1;"/>
<path d="M195.004 359V348.818H201.527V350.364H196.849V353.129H201.08V354.675H196.849V359H195.004ZM203.207 359V348.818H207.026C207.808 348.818 208.464 348.954 208.994 349.226C209.528 349.498 209.931 349.879 210.202 350.369C210.478 350.857 210.615 351.425 210.615 352.075C210.615 352.728 210.476 353.294 210.197 353.775C209.922 354.252 209.516 354.622 208.979 354.884C208.442 355.142 207.783 355.271 207.001 355.271H204.281V353.74H206.752C207.21 353.74 207.584 353.677 207.876 353.551C208.167 353.422 208.383 353.235 208.522 352.989C208.665 352.741 208.736 352.436 208.736 352.075C208.736 351.713 208.665 351.405 208.522 351.15C208.379 350.891 208.162 350.696 207.871 350.563C207.579 350.427 207.203 350.359 206.742 350.359H205.052V359H203.207ZM208.467 354.386L210.988 359H208.93L206.454 354.386H208.467ZM221.411 353.909C221.411 355.006 221.205 355.946 220.794 356.728C220.387 357.507 219.83 358.103 219.124 358.518C218.421 358.932 217.624 359.139 216.733 359.139C215.841 359.139 215.042 358.932 214.336 358.518C213.634 358.1 213.077 357.502 212.666 356.723C212.258 355.941 212.054 355.003 212.054 353.909C212.054 352.812 212.258 351.874 212.666 351.095C213.077 350.313 213.634 349.715 214.336 349.3C215.042 348.886 215.841 348.679 216.733 348.679C217.624 348.679 218.421 348.886 219.124 349.3C219.83 349.715 220.387 350.313 220.794 351.095C221.205 351.874 221.411 352.812 221.411 353.909ZM219.556 353.909C219.556 353.137 219.435 352.486 219.194 351.955C218.955 351.422 218.623 351.019 218.199 350.747C217.775 350.472 217.286 350.335 216.733 350.335C216.179 350.335 215.69 350.472 215.266 350.747C214.842 351.019 214.509 351.422 214.267 351.955C214.028 352.486 213.909 353.137 213.909 353.909C213.909 354.681 214.028 355.334 214.267 355.868C214.509 356.398 214.842 356.801 215.266 357.076C215.69 357.348 216.179 357.484 216.733 357.484C217.286 357.484 217.775 357.348 218.199 357.076C218.623 356.801 218.955 356.398 219.194 355.868C219.435 355.334 219.556 354.681 219.556 353.909ZM231.522 348.818V359H229.881L225.084 352.065H224.999V359H223.155V348.818H224.805L229.598 355.759H229.687V348.818H231.522ZM233.084 350.364V348.818H241.208V350.364H238.061V359H236.231V350.364H233.084ZM246.694 353.168V354.65H242.11V353.168H246.694ZM248.666 359V348.818H255.289V350.364H250.511V353.129H254.945V354.675H250.511V357.454H255.328V359H248.666ZM265.537 348.818V359H263.897L259.099 352.065H259.015V359H257.17V348.818H258.821L263.613 355.759H263.703V348.818H265.537ZM270.998 359H267.547V348.818H271.067C272.078 348.818 272.946 349.022 273.672 349.43C274.401 349.834 274.962 350.416 275.353 351.175C275.744 351.934 275.939 352.842 275.939 353.899C275.939 354.96 275.742 355.871 275.348 356.634C274.957 357.396 274.391 357.981 273.652 358.388C272.917 358.796 272.032 359 270.998 359ZM269.392 357.404H270.908C271.617 357.404 272.209 357.275 272.683 357.016C273.157 356.754 273.513 356.365 273.752 355.848C273.99 355.328 274.11 354.678 274.11 353.899C274.11 353.12 273.99 352.474 273.752 351.96C273.513 351.443 273.16 351.057 272.693 350.802C272.229 350.543 271.652 350.414 270.963 350.414H269.392V357.404Z" fill="#59645F" style="fill:#59645F;fill:color(display-p3 0.3490 0.3922 0.3725);fill-opacity:1;"/>
<path d="M723.538 351.617C723.491 351.183 723.296 350.845 722.951 350.603C722.61 350.361 722.165 350.24 721.619 350.24C721.234 350.24 720.904 350.298 720.629 350.414C720.354 350.53 720.144 350.687 719.998 350.886C719.852 351.085 719.777 351.312 719.774 351.567C719.774 351.78 719.822 351.964 719.918 352.119C720.018 352.275 720.152 352.408 720.321 352.517C720.49 352.623 720.677 352.713 720.883 352.786C721.088 352.858 721.295 352.92 721.504 352.969L722.459 353.208C722.843 353.298 723.213 353.419 723.567 353.571C723.925 353.723 724.245 353.916 724.527 354.148C724.812 354.38 725.037 354.66 725.203 354.988C725.369 355.316 725.452 355.701 725.452 356.141C725.452 356.738 725.299 357.263 724.994 357.717C724.689 358.168 724.249 358.521 723.672 358.776C723.098 359.028 722.404 359.154 721.589 359.154C720.797 359.154 720.109 359.031 719.526 358.786C718.946 358.541 718.491 358.183 718.163 357.712C717.839 357.242 717.663 356.668 717.636 355.992H719.451C719.478 356.347 719.587 356.642 719.779 356.877C719.971 357.112 720.222 357.288 720.53 357.404C720.841 357.52 721.189 357.578 721.574 357.578C721.975 357.578 722.326 357.518 722.628 357.399C722.933 357.277 723.171 357.107 723.344 356.892C723.516 356.673 723.604 356.418 723.607 356.126C723.604 355.861 723.526 355.643 723.374 355.47C723.221 355.295 723.007 355.149 722.732 355.033C722.46 354.913 722.142 354.807 721.778 354.714L720.619 354.416C719.781 354.201 719.118 353.874 718.631 353.437C718.147 352.996 717.905 352.411 717.905 351.682C717.905 351.082 718.067 350.557 718.392 350.106C718.72 349.655 719.166 349.305 719.729 349.057C720.293 348.805 720.931 348.679 721.643 348.679C722.366 348.679 722.999 348.805 723.543 349.057C724.089 349.305 724.519 349.652 724.83 350.096C725.142 350.537 725.303 351.044 725.312 351.617H723.538ZM728.941 348.818V359H727.096V348.818H728.941ZM734.388 359H730.938V348.818H734.458C735.469 348.818 736.337 349.022 737.063 349.43C737.792 349.834 738.352 350.416 738.743 351.175C739.134 351.934 739.33 352.842 739.33 353.899C739.33 354.96 739.133 355.871 738.738 356.634C738.347 357.396 737.782 357.981 737.043 358.388C736.307 358.796 735.422 359 734.388 359ZM732.782 357.404H734.299C735.008 357.404 735.6 357.275 736.074 357.016C736.547 356.754 736.904 356.365 737.142 355.848C737.381 355.328 737.5 354.678 737.5 353.899C737.5 353.12 737.381 352.474 737.142 351.96C736.904 351.443 736.551 351.057 736.083 350.802C735.619 350.543 735.043 350.414 734.353 350.414H732.782V357.404ZM741.082 359V348.818H747.705V350.364H742.927V353.129H747.362V354.675H742.927V357.454H747.744V359H741.082ZM758.301 352.254H756.442C756.389 351.949 756.291 351.679 756.149 351.443C756.006 351.205 755.829 351.002 755.617 350.837C755.405 350.671 755.163 350.547 754.891 350.464C754.623 350.378 754.333 350.335 754.021 350.335C753.467 350.335 752.977 350.474 752.549 350.752C752.122 351.027 751.787 351.432 751.545 351.965C751.303 352.496 751.182 353.143 751.182 353.909C751.182 354.688 751.303 355.344 751.545 355.878C751.79 356.408 752.125 356.809 752.549 357.081C752.977 357.349 753.466 357.484 754.016 357.484C754.321 357.484 754.606 357.444 754.871 357.364C755.14 357.281 755.38 357.161 755.592 357.001C755.807 356.842 755.988 356.647 756.134 356.415C756.283 356.183 756.386 355.918 756.442 355.619L758.301 355.629C758.232 356.113 758.081 356.567 757.849 356.991C757.62 357.416 757.32 357.79 756.949 358.115C756.578 358.437 756.144 358.688 755.647 358.871C755.15 359.05 754.598 359.139 753.991 359.139C753.096 359.139 752.297 358.932 751.595 358.518C750.892 358.103 750.339 357.505 749.934 356.723C749.53 355.941 749.328 355.003 749.328 353.909C749.328 352.812 749.532 351.874 749.939 351.095C750.347 350.313 750.902 349.715 751.605 349.3C752.307 348.886 753.103 348.679 753.991 348.679C754.558 348.679 755.085 348.759 755.572 348.918C756.059 349.077 756.493 349.31 756.875 349.619C757.256 349.924 757.569 350.298 757.814 350.742C758.063 351.183 758.225 351.687 758.301 352.254ZM761.175 359H759.206L762.791 348.818H765.068L768.657 359H766.689L763.969 350.906H763.89L761.175 359ZM761.24 355.008H766.609V356.489H761.24V355.008ZM769.998 359V348.818H773.817C774.599 348.818 775.255 348.954 775.785 349.226C776.319 349.498 776.722 349.879 776.993 350.369C777.269 350.857 777.406 351.425 777.406 352.075C777.406 352.728 777.267 353.294 776.988 353.775C776.713 354.252 776.307 354.622 775.77 354.884C775.233 355.142 774.574 355.271 773.792 355.271H771.072V353.74H773.543C774.001 353.74 774.375 353.677 774.667 353.551C774.958 353.422 775.174 353.235 775.313 352.989C775.456 352.741 775.527 352.436 775.527 352.075C775.527 351.713 775.456 351.405 775.313 351.15C775.171 350.891 774.953 350.696 774.662 350.563C774.37 350.427 773.994 350.359 773.533 350.359H771.843V359H769.998ZM775.258 354.386L777.779 359H775.721L773.245 354.386H775.258ZM786.653 348.341L783.372 360.531H781.796L785.077 348.341H786.653ZM791.354 359V348.818H797.976V350.364H793.198V353.129H797.633V354.675H793.198V357.454H798.016V359H791.354ZM799.858 348.818H802.115L805.138 356.196H805.257L808.28 348.818H810.537V359H808.767V352.005H808.672L805.858 358.97H804.536L801.722 351.99H801.628V359H799.858V348.818ZM812.545 359V348.818H816.443C817.179 348.818 817.79 348.934 818.278 349.166C818.768 349.395 819.134 349.708 819.376 350.106C819.622 350.504 819.744 350.954 819.744 351.458C819.744 351.872 819.665 352.227 819.506 352.522C819.346 352.814 819.133 353.051 818.864 353.233C818.596 353.415 818.296 353.546 817.964 353.626V353.725C818.326 353.745 818.672 353.856 819.003 354.058C819.338 354.257 819.612 354.539 819.824 354.903C820.036 355.268 820.142 355.709 820.142 356.226C820.142 356.753 820.014 357.227 819.759 357.648C819.504 358.065 819.119 358.395 818.606 358.637C818.092 358.879 817.446 359 816.667 359H812.545ZM814.39 357.459H816.373C817.043 357.459 817.525 357.331 817.82 357.076C818.118 356.817 818.268 356.486 818.268 356.082C818.268 355.78 818.193 355.508 818.044 355.266C817.895 355.021 817.683 354.829 817.407 354.69C817.132 354.547 816.804 354.476 816.423 354.476H814.39V357.459ZM814.39 353.148H816.214C816.532 353.148 816.819 353.09 817.074 352.974C817.33 352.855 817.53 352.688 817.676 352.472C817.825 352.254 817.9 351.995 817.9 351.697C817.9 351.302 817.76 350.978 817.482 350.722C817.207 350.467 816.798 350.339 816.254 350.339H814.39V353.148ZM821.746 359V348.818H828.369V350.364H823.591V353.129H828.026V354.675H823.591V357.454H828.408V359H821.746ZM833.701 359H830.25V348.818H833.77C834.781 348.818 835.65 349.022 836.375 349.43C837.105 349.834 837.665 350.416 838.056 351.175C838.447 351.934 838.642 352.842 838.642 353.899C838.642 354.96 838.445 355.871 838.051 356.634C837.66 357.396 837.095 357.981 836.355 358.388C835.62 358.796 834.735 359 833.701 359ZM832.095 357.404H833.611C834.32 357.404 834.912 357.275 835.386 357.016C835.86 356.754 836.216 356.365 836.455 355.848C836.694 355.328 836.813 354.678 836.813 353.899C836.813 353.12 836.694 352.474 836.455 351.96C836.216 351.443 835.863 351.057 835.396 350.802C834.932 350.543 834.355 350.414 833.666 350.414H832.095V357.404ZM843.845 359H840.395V348.818H843.915C844.926 348.818 845.794 349.022 846.52 349.43C847.249 349.834 847.809 350.416 848.2 351.175C848.591 351.934 848.787 352.842 848.787 353.899C848.787 354.96 848.59 355.871 848.195 356.634C847.804 357.396 847.239 357.981 846.5 358.388C845.764 358.796 844.879 359 843.845 359ZM842.239 357.404H843.756C844.465 357.404 845.057 357.275 845.531 357.016C846.004 356.754 846.361 356.365 846.599 355.848C846.838 355.328 846.957 354.678 846.957 353.899C846.957 353.12 846.838 352.474 846.599 351.96C846.361 351.443 846.008 351.057 845.54 350.802C845.076 350.543 844.5 350.414 843.81 350.414H842.239V357.404ZM850.539 359V348.818H857.162V350.364H852.384V353.129H856.819V354.675H852.384V357.454H857.201V359H850.539ZM862.494 359H859.043V348.818H862.563C863.574 348.818 864.442 349.022 865.168 349.43C865.897 349.834 866.458 350.416 866.849 351.175C867.24 351.934 867.435 352.842 867.435 353.899C867.435 354.96 867.238 355.871 866.844 356.634C866.453 357.396 865.888 357.981 865.148 358.388C864.413 358.796 863.528 359 862.494 359ZM860.888 357.404H862.404C863.113 357.404 863.705 357.275 864.179 357.016C864.653 356.754 865.009 356.365 865.248 355.848C865.487 355.328 865.606 354.678 865.606 353.899C865.606 353.12 865.487 352.474 865.248 351.96C865.009 351.443 864.656 351.057 864.189 350.802C863.725 350.543 863.148 350.414 862.459 350.414H860.888V357.404Z" fill="#59645F" style="fill:#59645F;fill:color(display-p3 0.3490 0.3922 0.3725);fill-opacity:1;"/>
<path d="M306.6 260.5H408.4C412.889 260.5 416.225 260.501 418.868 260.717C421.505 260.932 423.408 261.359 425.037 262.189C427.953 263.675 430.325 266.047 431.811 268.963C432.641 270.592 433.068 272.495 433.283 275.132C433.499 277.775 433.5 281.111 433.5 285.6V290.4C433.5 294.889 433.499 298.225 433.283 300.868C433.068 303.505 432.641 305.408 431.811 307.037C430.325 309.953 427.953 312.325 425.037 313.811C423.408 314.641 421.505 315.068 418.868 315.283C416.225 315.499 412.889 315.5 408.4 315.5H306.6C302.111 315.5 298.775 315.499 296.132 315.283C293.495 315.068 291.592 314.641 289.963 313.811C287.047 312.325 284.675 309.953 283.189 307.037C282.359 305.408 281.932 303.505 281.717 300.868C281.501 298.225 281.5 294.889 281.5 290.4V285.6C281.5 281.111 281.501 277.775 281.717 275.132C281.932 272.495 282.359 270.592 283.189 268.963C284.675 266.047 287.047 263.675 289.963 262.189C291.592 261.359 293.495 260.932 296.132 260.717C298.775 260.501 302.111 260.5 306.6 260.5Z" fill="#F3F4F6" style="fill:#F3F4F6;fill:color(display-p3 0.9529 0.9569 0.9647);fill-opacity:1;"/>
<path d="M306.6 260.5H408.4C412.889 260.5 416.225 260.501 418.868 260.717C421.505 260.932 423.408 261.359 425.037 262.189C427.953 263.675 430.325 266.047 431.811 268.963C432.641 270.592 433.068 272.495 433.283 275.132C433.499 277.775 433.5 281.111 433.5 285.6V290.4C433.5 294.889 433.499 298.225 433.283 300.868C433.068 303.505 432.641 305.408 431.811 307.037C430.325 309.953 427.953 312.325 425.037 313.811C423.408 314.641 421.505 315.068 418.868 315.283C416.225 315.499 412.889 315.5 408.4 315.5H306.6C302.111 315.5 298.775 315.499 296.132 315.283C293.495 315.068 291.592 314.641 289.963 313.811C287.047 312.325 284.675 309.953 283.189 307.037C282.359 305.408 281.932 303.505 281.717 300.868C281.501 298.225 281.5 294.889 281.5 290.4V285.6C281.5 281.111 281.501 277.775 281.717 275.132C281.932 272.495 282.359 270.592 283.189 268.963C284.675 266.047 287.047 263.675 289.963 262.189C291.592 261.359 293.495 260.932 296.132 260.717C298.775 260.501 302.111 260.5 306.6 260.5Z" stroke="#E5E7EB" style="stroke:#E5E7EB;stroke:color(display-p3 0.8980 0.9059 0.9216);stroke-opacity:1;"/>
<path fill-rule="evenodd" clip-rule="evenodd" d="M307.876 276.119C308.62 275.96 309.389 275.96 310.134 276.119C310.978 276.298 311.753 276.746 312.874 277.394C312.923 277.422 312.973 277.451 313.024 277.48L316.106 279.26C316.156 279.289 316.206 279.318 316.256 279.346C317.377 279.993 318.152 280.44 318.73 281.081C319.239 281.647 319.624 282.313 319.859 283.037C320.126 283.858 320.125 284.753 320.125 286.047C320.125 286.104 320.125 286.162 320.125 286.221V289.779C320.125 289.838 320.125 289.896 320.125 289.953C320.125 291.247 320.126 292.142 319.859 292.963C319.624 293.687 319.239 294.353 318.73 294.919C318.152 295.56 317.377 296.007 316.256 296.654C316.206 296.682 316.156 296.711 316.106 296.74L313.024 298.52C312.973 298.549 312.923 298.578 312.874 298.606C311.753 299.254 310.978 299.702 310.134 299.881C309.389 300.04 308.62 300.04 307.876 299.881C307.031 299.702 306.257 299.254 305.136 298.606C305.087 298.578 305.037 298.549 304.986 298.52L301.904 296.74C301.853 296.711 301.803 296.682 301.754 296.654C300.632 296.007 299.857 295.56 299.28 294.919C298.771 294.353 298.386 293.687 298.151 292.963C297.884 292.142 297.884 291.247 297.885 289.953C297.885 289.896 297.885 289.838 297.885 289.779V286.221C297.885 286.162 297.885 286.104 297.885 286.047C297.884 284.753 297.884 283.858 298.151 283.037C298.386 282.313 298.771 281.647 299.28 281.081C299.857 280.44 300.632 279.993 301.754 279.346C301.803 279.318 301.853 279.289 301.904 279.26L304.986 277.48C305.037 277.451 305.086 277.422 305.136 277.394C306.257 276.746 307.031 276.298 307.876 276.119ZM309.682 278.244C309.236 278.149 308.774 278.149 308.327 278.244C307.862 278.342 307.402 278.594 306.072 279.361L302.99 281.141C301.66 281.909 301.212 282.182 300.894 282.535C300.589 282.874 300.358 283.274 300.217 283.709C300.07 284.161 300.057 284.685 300.057 286.221V289.779C300.057 291.315 300.07 291.839 300.217 292.291C300.358 292.726 300.589 293.126 300.894 293.465C301.212 293.818 301.66 294.091 302.99 294.859L306.072 296.639C307.402 297.406 307.862 297.658 308.327 297.756C308.774 297.851 309.236 297.851 309.682 297.756C310.147 297.658 310.608 297.406 311.937 296.639L315.02 294.859C316.349 294.091 316.797 293.818 317.115 293.465C317.421 293.126 317.652 292.726 317.793 292.291C317.94 291.839 317.952 291.315 317.952 289.779V286.221C317.952 284.685 317.94 284.161 317.793 283.709C317.652 283.274 317.421 282.874 317.115 282.535C316.797 282.182 316.349 281.909 315.02 281.141L311.937 279.361C310.608 278.594 310.147 278.342 309.682 278.244Z" fill="#718096" style="fill:#718096;fill:color(display-p3 0.4431 0.5020 0.5882);fill-opacity:1;"/>
<circle cx="309" cy="288" r="4.5" fill="#A0AEC0" style="fill:#A0AEC0;fill:color(display-p3 0.6275 0.6824 0.7529);fill-opacity:1;"/>
<path d="M334.878 293.14C334.299 293.14 333.786 293.047 333.338 292.86C332.899 292.673 332.554 292.412 332.302 292.076C332.059 291.74 331.929 291.348 331.91 290.9H333.66C333.679 291.152 333.795 291.353 334.01 291.502C334.234 291.642 334.523 291.712 334.878 291.712H335.494C335.914 291.712 336.231 291.633 336.446 291.474C336.67 291.306 336.782 291.073 336.782 290.774C336.782 290.503 336.684 290.293 336.488 290.144C336.301 289.995 336.007 289.892 335.606 289.836L334.654 289.696C333.767 289.575 333.119 289.341 332.708 288.996C332.307 288.641 332.106 288.123 332.106 287.442C332.106 286.714 332.349 286.154 332.834 285.762C333.329 285.361 334.043 285.16 334.976 285.16H335.508C336.357 285.16 337.039 285.356 337.552 285.748C338.075 286.131 338.355 286.644 338.392 287.288H336.642C336.614 287.083 336.497 286.915 336.292 286.784C336.096 286.653 335.835 286.588 335.508 286.588H334.976C334.575 286.588 334.281 286.663 334.094 286.812C333.907 286.952 333.814 287.162 333.814 287.442C333.814 287.694 333.893 287.885 334.052 288.016C334.211 288.147 334.472 288.24 334.836 288.296L335.83 288.436C336.754 288.567 337.426 288.814 337.846 289.178C338.275 289.533 338.49 290.06 338.49 290.76C338.49 291.516 338.233 292.104 337.72 292.524C337.216 292.935 336.474 293.14 335.494 293.14H334.878ZM343.609 293.14C342.955 293.14 342.386 293.014 341.901 292.762C341.425 292.51 341.056 292.16 340.795 291.712C340.533 291.255 340.403 290.723 340.403 290.116V288.184C340.403 287.577 340.533 287.05 340.795 286.602C341.056 286.145 341.425 285.79 341.901 285.538C342.386 285.286 342.955 285.16 343.609 285.16C344.243 285.16 344.799 285.286 345.275 285.538C345.76 285.79 346.133 286.145 346.395 286.602C346.656 287.05 346.787 287.577 346.787 288.184V289.57H342.083V290.116C342.083 290.657 342.209 291.068 342.461 291.348C342.722 291.619 343.109 291.754 343.623 291.754C344.015 291.754 344.327 291.689 344.561 291.558C344.794 291.418 344.943 291.217 345.009 290.956H346.745C346.605 291.619 346.25 292.151 345.681 292.552C345.121 292.944 344.43 293.14 343.609 293.14ZM345.107 288.17C345.107 287.629 344.981 287.218 344.729 286.938C344.477 286.658 344.103 286.518 343.609 286.518C343.105 286.518 342.722 286.663 342.461 286.952C342.209 287.232 342.083 287.643 342.083 288.184V288.478L345.233 288.45L345.107 288.59V288.17ZM349.105 293V285.3H350.757V286.77H351.191L350.673 287.666C350.673 286.845 350.86 286.224 351.233 285.804C351.606 285.375 352.157 285.16 352.885 285.16C353.716 285.16 354.369 285.417 354.845 285.93C355.321 286.443 355.559 287.153 355.559 288.058V288.618H353.725V288.184C353.725 287.689 353.599 287.307 353.347 287.036C353.095 286.765 352.74 286.63 352.283 286.63C351.835 286.63 351.485 286.765 351.233 287.036C350.981 287.307 350.855 287.689 350.855 288.184V293H349.105ZM359.264 293L356.758 285.3H358.564L359.992 289.976C360.141 290.461 360.281 290.989 360.412 291.558C360.542 290.998 360.678 290.475 360.818 289.99L362.232 285.3H364.01L361.518 293H359.264ZM365.614 293V291.404H368.302V286.882H365.964V285.3H369.968V291.404H372.362V293H365.614ZM368.904 284.138C368.596 284.138 368.353 284.054 368.176 283.886C367.999 283.718 367.91 283.494 367.91 283.214C367.91 282.934 367.999 282.71 368.176 282.542C368.363 282.374 368.605 282.29 368.904 282.29H369.184C369.483 282.29 369.721 282.374 369.898 282.542C370.085 282.71 370.178 282.934 370.178 283.214C370.178 283.494 370.085 283.718 369.898 283.886C369.721 284.054 369.478 284.138 369.17 284.138H368.904ZM377.215 293.14C376.561 293.14 375.987 293.019 375.493 292.776C375.007 292.533 374.634 292.183 374.373 291.726C374.111 291.269 373.981 290.732 373.981 290.116V288.184C373.981 287.568 374.111 287.031 374.373 286.574C374.634 286.117 375.007 285.767 375.493 285.524C375.987 285.281 376.561 285.16 377.215 285.16C378.185 285.16 378.96 285.412 379.539 285.916C380.117 286.411 380.421 287.087 380.449 287.946H378.699C378.671 287.554 378.526 287.246 378.265 287.022C378.013 286.798 377.663 286.686 377.215 286.686C376.748 286.686 376.384 286.817 376.123 287.078C375.861 287.33 375.731 287.694 375.731 288.17V290.116C375.731 290.601 375.857 290.975 376.109 291.236C376.37 291.488 376.739 291.614 377.215 291.614C377.663 291.614 378.013 291.507 378.265 291.292C378.526 291.068 378.671 290.755 378.699 290.354H380.449C380.421 291.213 380.117 291.894 379.539 292.398C378.96 292.893 378.185 293.14 377.215 293.14ZM385.581 293.14C384.928 293.14 384.359 293.014 383.873 292.762C383.397 292.51 383.029 292.16 382.767 291.712C382.506 291.255 382.375 290.723 382.375 290.116V288.184C382.375 287.577 382.506 287.05 382.767 286.602C383.029 286.145 383.397 285.79 383.873 285.538C384.359 285.286 384.928 285.16 385.581 285.16C386.216 285.16 386.771 285.286 387.247 285.538C387.733 285.79 388.106 286.145 388.367 286.602C388.629 287.05 388.759 287.577 388.759 288.184V289.57H384.055V290.116C384.055 290.657 384.181 291.068 384.433 291.348C384.695 291.619 385.082 291.754 385.595 291.754C385.987 291.754 386.3 291.689 386.533 291.558C386.767 291.418 386.916 291.217 386.981 290.956H388.717C388.577 291.619 388.223 292.151 387.653 292.552C387.093 292.944 386.403 293.14 385.581 293.14ZM387.079 288.17C387.079 287.629 386.953 287.218 386.701 286.938C386.449 286.658 386.076 286.518 385.581 286.518C385.077 286.518 384.695 286.663 384.433 286.952C384.181 287.232 384.055 287.643 384.055 288.184V288.478L387.205 288.45L387.079 288.59V288.17Z" fill="#1A2B58" style="fill:#1A2B58;fill:color(display-p3 0.1020 0.1686 0.3451);fill-opacity:1;"/>
<path d="M306.6 84.5H408.4C412.889 84.5 416.225 84.5009 418.868 84.7168C421.505 84.9323 423.408 85.3594 425.037 86.1895C427.953 87.6755 430.325 90.0466 431.811 92.9629C432.641 94.5919 433.068 96.4948 433.283 99.1318C433.499 101.775 433.5 105.111 433.5 109.6V114.4C433.5 118.889 433.499 122.225 433.283 124.868C433.068 127.505 432.641 129.408 431.811 131.037C430.325 133.953 427.953 136.325 425.037 137.811C423.408 138.641 421.505 139.068 418.868 139.283C416.225 139.499 412.889 139.5 408.4 139.5H306.6C302.111 139.5 298.775 139.499 296.132 139.283C293.495 139.068 291.592 138.641 289.963 137.811C287.047 136.325 284.675 133.953 283.189 131.037C282.359 129.408 281.932 127.505 281.717 124.868C281.501 122.225 281.5 118.889 281.5 114.4V109.6C281.5 105.111 281.501 101.775 281.717 99.1318C281.932 96.4948 282.359 94.5919 283.189 92.9629C284.675 90.0466 287.047 87.6755 289.963 86.1895C291.592 85.3594 293.495 84.9323 296.132 84.7168C298.775 84.5009 302.111 84.5 306.6 84.5Z" fill="#F3F4F6" style="fill:#F3F4F6;fill:color(display-p3 0.9529 0.9569 0.9647);fill-opacity:1;"/>
<path d="M306.6 84.5H408.4C412.889 84.5 416.225 84.5009 418.868 84.7168C421.505 84.9323 423.408 85.3594 425.037 86.1895C427.953 87.6755 430.325 90.0466 431.811 92.9629C432.641 94.5919 433.068 96.4948 433.283 99.1318C433.499 101.775 433.5 105.111 433.5 109.6V114.4C433.5 118.889 433.499 122.225 433.283 124.868C433.068 127.505 432.641 129.408 431.811 131.037C430.325 133.953 427.953 136.325 425.037 137.811C423.408 138.641 421.505 139.068 418.868 139.283C416.225 139.499 412.889 139.5 408.4 139.5H306.6C302.111 139.5 298.775 139.499 296.132 139.283C293.495 139.068 291.592 138.641 289.963 137.811C287.047 136.325 284.675 133.953 283.189 131.037C282.359 129.408 281.932 127.505 281.717 124.868C281.501 122.225 281.5 118.889 281.5 114.4V109.6C281.5 105.111 281.501 101.775 281.717 99.1318C281.932 96.4948 282.359 94.5919 283.189 92.9629C284.675 90.0466 287.047 87.6755 289.963 86.1895C291.592 85.3594 293.495 84.9323 296.132 84.7168C298.775 84.5009 302.111 84.5 306.6 84.5Z" stroke="#E5E7EB" style="stroke:#E5E7EB;stroke:color(display-p3 0.8980 0.9059 0.9216);stroke-opacity:1;"/>
<path fill-rule="evenodd" clip-rule="evenodd" d="M307.876 100.119C308.62 99.9604 309.389 99.9604 310.134 100.119C310.978 100.298 311.753 100.746 312.874 101.394C312.923 101.422 312.973 101.451 313.024 101.48L316.106 103.26C316.156 103.289 316.206 103.318 316.256 103.346C317.377 103.993 318.152 104.44 318.73 105.081C319.239 105.647 319.624 106.313 319.859 107.037C320.126 107.858 320.125 108.753 320.125 110.047C320.125 110.104 320.125 110.162 320.125 110.221V113.779C320.125 113.838 320.125 113.896 320.125 113.953C320.125 115.247 320.126 116.142 319.859 116.963C319.624 117.687 319.239 118.353 318.73 118.919C318.152 119.56 317.377 120.007 316.256 120.654C316.206 120.682 316.156 120.711 316.106 120.74L313.024 122.52C312.973 122.549 312.923 122.578 312.874 122.606C311.753 123.254 310.978 123.702 310.134 123.881C309.389 124.04 308.62 124.04 307.876 123.881C307.031 123.702 306.257 123.254 305.136 122.606C305.087 122.578 305.037 122.549 304.986 122.52L301.904 120.74C301.853 120.711 301.803 120.682 301.754 120.654C300.632 120.007 299.857 119.56 299.28 118.919C298.771 118.353 298.386 117.687 298.151 116.963C297.884 116.142 297.884 115.247 297.885 113.953C297.885 113.896 297.885 113.838 297.885 113.779V110.221C297.885 110.162 297.885 110.104 297.885 110.047C297.884 108.753 297.884 107.858 298.151 107.037C298.386 106.313 298.771 105.647 299.28 105.081C299.857 104.44 300.632 103.993 301.754 103.346C301.803 103.318 301.853 103.289 301.904 103.26L304.986 101.48C305.037 101.451 305.086 101.422 305.136 101.394C306.257 100.746 307.031 100.298 307.876 100.119ZM309.682 102.244C309.236 102.149 308.774 102.149 308.327 102.244C307.862 102.342 307.402 102.594 306.072 103.361L302.99 105.141C301.66 105.909 301.212 106.182 300.894 106.535C300.589 106.874 300.358 107.274 300.217 107.709C300.07 108.161 300.057 108.685 300.057 110.221V113.779C300.057 115.315 300.07 115.839 300.217 116.291C300.358 116.726 300.589 117.126 300.894 117.465C301.212 117.818 301.66 118.091 302.99 118.859L306.072 120.639C307.402 121.406 307.862 121.658 308.327 121.756C308.774 121.851 309.236 121.851 309.682 121.756C310.147 121.658 310.608 121.406 311.937 120.639L315.02 118.859C316.349 118.091 316.797 117.818 317.115 117.465C317.421 117.126 317.652 116.726 317.793 116.291C317.94 115.839 317.952 115.315 317.952 113.779V110.221C317.952 108.685 317.94 108.161 317.793 107.709C317.652 107.274 317.421 106.874 317.115 106.535C316.797 106.182 316.349 105.909 315.02 105.141L311.937 103.361C310.608 102.594 310.147 102.342 309.682 102.244Z" fill="#718096" style="fill:#718096;fill:color(display-p3 0.4431 0.5020 0.5882);fill-opacity:1;"/>
<circle cx="309" cy="112" r="4.5" fill="#A0AEC0" style="fill:#A0AEC0;fill:color(display-p3 0.6275 0.6824 0.7529);fill-opacity:1;"/>
<path d="M334.878 117.14C334.299 117.14 333.786 117.047 333.338 116.86C332.899 116.673 332.554 116.412 332.302 116.076C332.059 115.74 331.929 115.348 331.91 114.9H333.66C333.679 115.152 333.795 115.353 334.01 115.502C334.234 115.642 334.523 115.712 334.878 115.712H335.494C335.914 115.712 336.231 115.633 336.446 115.474C336.67 115.306 336.782 115.073 336.782 114.774C336.782 114.503 336.684 114.293 336.488 114.144C336.301 113.995 336.007 113.892 335.606 113.836L334.654 113.696C333.767 113.575 333.119 113.341 332.708 112.996C332.307 112.641 332.106 112.123 332.106 111.442C332.106 110.714 332.349 110.154 332.834 109.762C333.329 109.361 334.043 109.16 334.976 109.16H335.508C336.357 109.16 337.039 109.356 337.552 109.748C338.075 110.131 338.355 110.644 338.392 111.288H336.642C336.614 111.083 336.497 110.915 336.292 110.784C336.096 110.653 335.835 110.588 335.508 110.588H334.976C334.575 110.588 334.281 110.663 334.094 110.812C333.907 110.952 333.814 111.162 333.814 111.442C333.814 111.694 333.893 111.885 334.052 112.016C334.211 112.147 334.472 112.24 334.836 112.296L335.83 112.436C336.754 112.567 337.426 112.814 337.846 113.178C338.275 113.533 338.49 114.06 338.49 114.76C338.49 115.516 338.233 116.104 337.72 116.524C337.216 116.935 336.474 117.14 335.494 117.14H334.878ZM343.609 117.14C342.955 117.14 342.386 117.014 341.901 116.762C341.425 116.51 341.056 116.16 340.795 115.712C340.533 115.255 340.403 114.723 340.403 114.116V112.184C340.403 111.577 340.533 111.05 340.795 110.602C341.056 110.145 341.425 109.79 341.901 109.538C342.386 109.286 342.955 109.16 343.609 109.16C344.243 109.16 344.799 109.286 345.275 109.538C345.76 109.79 346.133 110.145 346.395 110.602C346.656 111.05 346.787 111.577 346.787 112.184V113.57H342.083V114.116C342.083 114.657 342.209 115.068 342.461 115.348C342.722 115.619 343.109 115.754 343.623 115.754C344.015 115.754 344.327 115.689 344.561 115.558C344.794 115.418 344.943 115.217 345.009 114.956H346.745C346.605 115.619 346.25 116.151 345.681 116.552C345.121 116.944 344.43 117.14 343.609 117.14ZM345.107 112.17C345.107 111.629 344.981 111.218 344.729 110.938C344.477 110.658 344.103 110.518 343.609 110.518C343.105 110.518 342.722 110.663 342.461 110.952C342.209 111.232 342.083 111.643 342.083 112.184V112.478L345.233 112.45L345.107 112.59V112.17ZM349.105 117V109.3H350.757V110.77H351.191L350.673 111.666C350.673 110.845 350.86 110.224 351.233 109.804C351.606 109.375 352.157 109.16 352.885 109.16C353.716 109.16 354.369 109.417 354.845 109.93C355.321 110.443 355.559 111.153 355.559 112.058V112.618H353.725V112.184C353.725 111.689 353.599 111.307 353.347 111.036C353.095 110.765 352.74 110.63 352.283 110.63C351.835 110.63 351.485 110.765 351.233 111.036C350.981 111.307 350.855 111.689 350.855 112.184V117H349.105ZM359.264 117L356.758 109.3H358.564L359.992 113.976C360.141 114.461 360.281 114.989 360.412 115.558C360.542 114.998 360.678 114.475 360.818 113.99L362.232 109.3H364.01L361.518 117H359.264ZM365.614 117V115.404H368.302V110.882H365.964V109.3H369.968V115.404H372.362V117H365.614ZM368.904 108.138C368.596 108.138 368.353 108.054 368.176 107.886C367.999 107.718 367.91 107.494 367.91 107.214C367.91 106.934 367.999 106.71 368.176 106.542C368.363 106.374 368.605 106.29 368.904 106.29H369.184C369.483 106.29 369.721 106.374 369.898 106.542C370.085 106.71 370.178 106.934 370.178 107.214C370.178 107.494 370.085 107.718 369.898 107.886C369.721 108.054 369.478 108.138 369.17 108.138H368.904ZM377.215 117.14C376.561 117.14 375.987 117.019 375.493 116.776C375.007 116.533 374.634 116.183 374.373 115.726C374.111 115.269 373.981 114.732 373.981 114.116V112.184C373.981 111.568 374.111 111.031 374.373 110.574C374.634 110.117 375.007 109.767 375.493 109.524C375.987 109.281 376.561 109.16 377.215 109.16C378.185 109.16 378.96 109.412 379.539 109.916C380.117 110.411 380.421 111.087 380.449 111.946H378.699C378.671 111.554 378.526 111.246 378.265 111.022C378.013 110.798 377.663 110.686 377.215 110.686C376.748 110.686 376.384 110.817 376.123 111.078C375.861 111.33 375.731 111.694 375.731 112.17V114.116C375.731 114.601 375.857 114.975 376.109 115.236C376.37 115.488 376.739 115.614 377.215 115.614C377.663 115.614 378.013 115.507 378.265 115.292C378.526 115.068 378.671 114.755 378.699 114.354H380.449C380.421 115.213 380.117 115.894 379.539 116.398C378.96 116.893 378.185 117.14 377.215 117.14ZM385.581 117.14C384.928 117.14 384.359 117.014 383.873 116.762C383.397 116.51 383.029 116.16 382.767 115.712C382.506 115.255 382.375 114.723 382.375 114.116V112.184C382.375 111.577 382.506 111.05 382.767 110.602C383.029 110.145 383.397 109.79 383.873 109.538C384.359 109.286 384.928 109.16 385.581 109.16C386.216 109.16 386.771 109.286 387.247 109.538C387.733 109.79 388.106 110.145 388.367 110.602C388.629 111.05 388.759 111.577 388.759 112.184V113.57H384.055V114.116C384.055 114.657 384.181 115.068 384.433 115.348C384.695 115.619 385.082 115.754 385.595 115.754C385.987 115.754 386.3 115.689 386.533 115.558C386.767 115.418 386.916 115.217 386.981 114.956H388.717C388.577 115.619 388.223 116.151 387.653 116.552C387.093 116.944 386.403 117.14 385.581 117.14ZM387.079 112.17C387.079 111.629 386.953 111.218 386.701 110.938C386.449 110.658 386.076 110.518 385.581 110.518C385.077 110.518 384.695 110.663 384.433 110.952C384.181 111.232 384.055 111.643 384.055 112.184V112.478L387.205 112.45L387.079 112.59V112.17Z" fill="#1A2B58" style="fill:#1A2B58;fill:color(display-p3 0.1020 0.1686 0.3451);fill-opacity:1;"/>
<path d="M624 173H728C736.284 173 743 179.716 743 188V212C743 220.284 736.284 227 728 227H624C615.716 227 609 220.284 609 212V188C609 179.716 615.716 173 624 173Z" fill="#F1F0FF" style="fill:#F1F0FF;fill:color(display-p3 0.9457 0.9424 1.0000);fill-opacity:1;"/>
<path d="M624 173H728C736.284 173 743 179.716 743 188V212C743 220.284 736.284 227 728 227H624C615.716 227 609 220.284 609 212V188C609 179.716 615.716 173 624 173Z" stroke="#473CFB" style="stroke:#473CFB;stroke:color(display-p3 0.2784 0.2353 0.9843);stroke-opacity:1;" stroke-width="2"/>
<path fill-rule="evenodd" clip-rule="evenodd" d="M634.876 188.119C635.62 187.96 636.389 187.96 637.134 188.119C637.978 188.298 638.753 188.746 639.874 189.394C639.923 189.422 639.973 189.451 640.024 189.48L643.106 191.26C643.156 191.289 643.206 191.318 643.256 191.346C644.377 191.993 645.152 192.44 645.73 193.081C646.239 193.647 646.624 194.313 646.859 195.037C647.126 195.858 647.125 196.753 647.125 198.047C647.125 198.104 647.125 198.162 647.125 198.221V201.779C647.125 201.838 647.125 201.896 647.125 201.953C647.125 203.247 647.126 204.142 646.859 204.963C646.624 205.687 646.239 206.353 645.73 206.919C645.152 207.56 644.377 208.007 643.256 208.654C643.206 208.682 643.156 208.711 643.106 208.74L640.024 210.52C639.973 210.549 639.923 210.578 639.874 210.606C638.753 211.254 637.978 211.702 637.134 211.881C636.389 212.04 635.62 212.04 634.876 211.881C634.031 211.702 633.257 211.254 632.136 210.606C632.087 210.578 632.037 210.549 631.986 210.52L628.904 208.74C628.853 208.711 628.803 208.682 628.754 208.654C627.632 208.007 626.857 207.56 626.28 206.919C625.771 206.353 625.386 205.687 625.151 204.963C624.884 204.142 624.884 203.247 624.885 201.953C624.885 201.896 624.885 201.838 624.885 201.779V198.221C624.885 198.162 624.885 198.104 624.885 198.047C624.884 196.753 624.884 195.858 625.151 195.037C625.386 194.313 625.771 193.647 626.28 193.081C626.857 192.44 627.632 191.993 628.754 191.346C628.803 191.318 628.853 191.289 628.904 191.26L631.986 189.48C632.037 189.451 632.086 189.422 632.136 189.394C633.257 188.746 634.031 188.298 634.876 188.119ZM636.682 190.244C636.236 190.149 635.774 190.149 635.327 190.244C634.862 190.342 634.402 190.594 633.072 191.361L629.99 193.141C628.66 193.909 628.212 194.182 627.894 194.535C627.589 194.874 627.358 195.274 627.217 195.709C627.07 196.161 627.057 196.685 627.057 198.221V201.779C627.057 203.315 627.07 203.839 627.217 204.291C627.358 204.726 627.589 205.126 627.894 205.465C628.212 205.818 628.66 206.091 629.99 206.859L633.072 208.639C634.402 209.406 634.862 209.658 635.327 209.756C635.774 209.851 636.236 209.851 636.682 209.756C637.147 209.658 637.608 209.406 638.937 208.639L642.02 206.859C643.349 206.091 643.797 205.818 644.115 205.465C644.421 205.126 644.652 204.726 644.793 204.291C644.94 203.839 644.952 203.315 644.952 201.779V198.221C644.952 196.685 644.94 196.161 644.793 195.709C644.652 195.274 644.421 194.874 644.115 194.535C643.797 194.182 643.349 193.909 642.02 193.141L638.937 191.361C637.608 190.594 637.147 190.342 636.682 190.244Z" fill="#718096" style="fill:#718096;fill:color(display-p3 0.4431 0.5020 0.5882);fill-opacity:1;"/>
<circle cx="636" cy="200" r="4.5" fill="#A0AEC0" style="fill:#A0AEC0;fill:color(display-p3 0.6275 0.6824 0.7529);fill-opacity:1;"/>
<path d="M659.078 207.52V197.3H660.786V198.77H661.178L660.786 199.176C660.786 198.551 660.968 198.061 661.332 197.706C661.705 197.342 662.214 197.16 662.858 197.16C663.633 197.16 664.249 197.426 664.706 197.958C665.163 198.49 665.392 199.204 665.392 200.1V202.186C665.392 203.091 665.163 203.81 664.706 204.342C664.249 204.874 663.633 205.14 662.858 205.14C662.214 205.14 661.705 204.963 661.332 204.608C660.968 204.244 660.786 203.749 660.786 203.124L661.178 203.53H660.772L660.828 205.364V207.52H659.078ZM662.242 203.628C662.69 203.628 663.035 203.497 663.278 203.236C663.521 202.975 663.642 202.601 663.642 202.116V200.184C663.642 199.699 663.521 199.325 663.278 199.064C663.035 198.803 662.69 198.672 662.242 198.672C661.803 198.672 661.458 198.807 661.206 199.078C660.954 199.339 660.828 199.708 660.828 200.184V202.116C660.828 202.592 660.954 202.965 661.206 203.236C661.458 203.497 661.803 203.628 662.242 203.628ZM667.711 205V197.3H669.363V198.77H669.797L669.279 199.666C669.279 198.845 669.465 198.224 669.839 197.804C670.212 197.375 670.763 197.16 671.491 197.16C672.321 197.16 672.975 197.417 673.451 197.93C673.927 198.443 674.165 199.153 674.165 200.058V200.618H672.331V200.184C672.331 199.689 672.205 199.307 671.953 199.036C671.701 198.765 671.346 198.63 670.889 198.63C670.441 198.63 670.091 198.765 669.839 199.036C669.587 199.307 669.461 199.689 669.461 200.184V205H667.711ZM678.989 205.14C678.336 205.14 677.766 205.019 677.281 204.776C676.805 204.524 676.436 204.174 676.175 203.726C675.923 203.269 675.797 202.732 675.797 202.116V200.184C675.797 199.568 675.923 199.036 676.175 198.588C676.436 198.131 676.805 197.781 677.281 197.538C677.766 197.286 678.336 197.16 678.989 197.16C679.642 197.16 680.207 197.286 680.683 197.538C681.168 197.781 681.537 198.131 681.789 198.588C682.05 199.036 682.181 199.563 682.181 200.17V202.116C682.181 202.732 682.05 203.269 681.789 203.726C681.537 204.174 681.168 204.524 680.683 204.776C680.207 205.019 679.642 205.14 678.989 205.14ZM678.989 203.614C679.456 203.614 679.81 203.483 680.053 203.222C680.305 202.961 680.431 202.592 680.431 202.116V200.184C680.431 199.699 680.305 199.33 680.053 199.078C679.81 198.817 679.456 198.686 678.989 198.686C678.522 198.686 678.163 198.817 677.911 199.078C677.668 199.33 677.547 199.699 677.547 200.184V202.116C677.547 202.592 677.668 202.961 677.911 203.222C678.163 203.483 678.522 203.614 678.989 203.614ZM683.716 205L686.376 201.024L683.898 197.3H685.872L687.034 199.19C687.155 199.386 687.272 199.624 687.384 199.904C687.505 199.624 687.622 199.386 687.734 199.19L688.91 197.3H690.884L688.406 201.024L691.052 205H689.064L687.762 202.886C687.64 202.69 687.514 202.447 687.384 202.158C687.262 202.438 687.141 202.681 687.02 202.886L685.69 205H683.716ZM693.944 207.52L695.036 204.58L692.138 197.3H694.042L695.456 201.234C695.587 201.617 695.722 202.111 695.862 202.718C696.002 202.111 696.133 201.617 696.254 201.234L697.57 197.3H699.418L695.792 207.52H693.944Z" fill="#1A2B58" style="fill:#1A2B58;fill:color(display-p3 0.1020 0.1686 0.3451);fill-opacity:1;"/>
<path d="M306.6 172.5H408.4C412.889 172.5 416.225 172.501 418.868 172.717C421.505 172.932 423.408 173.359 425.037 174.189C427.953 175.675 430.325 178.047 431.811 180.963C432.641 182.592 433.068 184.495 433.283 187.132C433.499 189.775 433.5 193.111 433.5 197.6V202.4C433.5 206.889 433.499 210.225 433.283 212.868C433.068 215.505 432.641 217.408 431.811 219.037C430.325 221.953 427.953 224.325 425.037 225.811C423.408 226.641 421.505 227.068 418.868 227.283C416.225 227.499 412.889 227.5 408.4 227.5H306.6C302.111 227.5 298.775 227.499 296.132 227.283C293.495 227.068 291.592 226.641 289.963 225.811C287.047 224.325 284.675 221.953 283.189 219.037C282.359 217.408 281.932 215.505 281.717 212.868C281.501 210.225 281.5 206.889 281.5 202.4V197.6C281.5 193.111 281.501 189.775 281.717 187.132C281.932 184.495 282.359 182.592 283.189 180.963C284.675 178.047 287.047 175.675 289.963 174.189C291.592 173.359 293.495 172.932 296.132 172.717C298.775 172.501 302.111 172.5 306.6 172.5Z" fill="#F3F4F6" style="fill:#F3F4F6;fill:color(display-p3 0.9529 0.9569 0.9647);fill-opacity:1;"/>
<path d="M306.6 172.5H408.4C412.889 172.5 416.225 172.501 418.868 172.717C421.505 172.932 423.408 173.359 425.037 174.189C427.953 175.675 430.325 178.047 431.811 180.963C432.641 182.592 433.068 184.495 433.283 187.132C433.499 189.775 433.5 193.111 433.5 197.6V202.4C433.5 206.889 433.499 210.225 433.283 212.868C433.068 215.505 432.641 217.408 431.811 219.037C430.325 221.953 427.953 224.325 425.037 225.811C423.408 226.641 421.505 227.068 418.868 227.283C416.225 227.499 412.889 227.5 408.4 227.5H306.6C302.111 227.5 298.775 227.499 296.132 227.283C293.495 227.068 291.592 226.641 289.963 225.811C287.047 224.325 284.675 221.953 283.189 219.037C282.359 217.408 281.932 215.505 281.717 212.868C281.501 210.225 281.5 206.889 281.5 202.4V197.6C281.5 193.111 281.501 189.775 281.717 187.132C281.932 184.495 282.359 182.592 283.189 180.963C284.675 178.047 287.047 175.675 289.963 174.189C291.592 173.359 293.495 172.932 296.132 172.717C298.775 172.501 302.111 172.5 306.6 172.5Z" stroke="#E5E7EB" style="stroke:#E5E7EB;stroke:color(display-p3 0.8980 0.9059 0.9216);stroke-opacity:1;"/>
<path fill-rule="evenodd" clip-rule="evenodd" d="M307.876 188.119C308.62 187.96 309.389 187.96 310.134 188.119C310.978 188.298 311.753 188.746 312.874 189.394C312.923 189.422 312.973 189.451 313.024 189.48L316.106 191.26C316.156 191.289 316.206 191.318 316.256 191.346C317.377 191.993 318.152 192.44 318.73 193.081C319.239 193.647 319.624 194.313 319.859 195.037C320.126 195.858 320.125 196.753 320.125 198.047C320.125 198.104 320.125 198.162 320.125 198.221V201.779C320.125 201.838 320.125 201.896 320.125 201.953C320.125 203.247 320.126 204.142 319.859 204.963C319.624 205.687 319.239 206.353 318.73 206.919C318.152 207.56 317.377 208.007 316.256 208.654C316.206 208.682 316.156 208.711 316.106 208.74L313.024 210.52C312.973 210.549 312.923 210.578 312.874 210.606C311.753 211.254 310.978 211.702 310.134 211.881C309.389 212.04 308.62 212.04 307.876 211.881C307.031 211.702 306.257 211.254 305.136 210.606C305.087 210.578 305.037 210.549 304.986 210.52L301.904 208.74C301.853 208.711 301.803 208.682 301.754 208.654C300.632 208.007 299.857 207.56 299.28 206.919C298.771 206.353 298.386 205.687 298.151 204.963C297.884 204.142 297.884 203.247 297.885 201.953C297.885 201.896 297.885 201.838 297.885 201.779V198.221C297.885 198.162 297.885 198.104 297.885 198.047C297.884 196.753 297.884 195.858 298.151 195.037C298.386 194.313 298.771 193.647 299.28 193.081C299.857 192.44 300.632 191.993 301.754 191.346C301.803 191.318 301.853 191.289 301.904 191.26L304.986 189.48C305.037 189.451 305.086 189.422 305.136 189.394C306.257 188.746 307.031 188.298 307.876 188.119ZM309.682 190.244C309.236 190.149 308.774 190.149 308.327 190.244C307.862 190.342 307.402 190.594 306.072 191.361L302.99 193.141C301.66 193.909 301.212 194.182 300.894 194.535C300.589 194.874 300.358 195.274 300.217 195.709C300.07 196.161 300.057 196.685 300.057 198.221V201.779C300.057 203.315 300.07 203.839 300.217 204.291C300.358 204.726 300.589 205.126 300.894 205.465C301.212 205.818 301.66 206.091 302.99 206.859L306.072 208.639C307.402 209.406 307.862 209.658 308.327 209.756C308.774 209.851 309.236 209.851 309.682 209.756C310.147 209.658 310.608 209.406 311.937 208.639L315.02 206.859C316.349 206.091 316.797 205.818 317.115 205.465C317.421 205.126 317.652 204.726 317.793 204.291C317.94 203.839 317.952 203.315 317.952 201.779V198.221C317.952 196.685 317.94 196.161 317.793 195.709C317.652 195.274 317.421 194.874 317.115 194.535C316.797 194.182 316.349 193.909 315.02 193.141L311.937 191.361C310.608 190.594 310.147 190.342 309.682 190.244Z" fill="#718096" style="fill:#718096;fill:color(display-p3 0.4431 0.5020 0.5882);fill-opacity:1;"/>
<circle cx="309" cy="200" r="4.5" fill="#A0AEC0" style="fill:#A0AEC0;fill:color(display-p3 0.6275 0.6824 0.7529);fill-opacity:1;"/>
<path d="M334.878 205.14C334.299 205.14 333.786 205.047 333.338 204.86C332.899 204.673 332.554 204.412 332.302 204.076C332.059 203.74 331.929 203.348 331.91 202.9H333.66C333.679 203.152 333.795 203.353 334.01 203.502C334.234 203.642 334.523 203.712 334.878 203.712H335.494C335.914 203.712 336.231 203.633 336.446 203.474C336.67 203.306 336.782 203.073 336.782 202.774C336.782 202.503 336.684 202.293 336.488 202.144C336.301 201.995 336.007 201.892 335.606 201.836L334.654 201.696C333.767 201.575 333.119 201.341 332.708 200.996C332.307 200.641 332.106 200.123 332.106 199.442C332.106 198.714 332.349 198.154 332.834 197.762C333.329 197.361 334.043 197.16 334.976 197.16H335.508C336.357 197.16 337.039 197.356 337.552 197.748C338.075 198.131 338.355 198.644 338.392 199.288H336.642C336.614 199.083 336.497 198.915 336.292 198.784C336.096 198.653 335.835 198.588 335.508 198.588H334.976C334.575 198.588 334.281 198.663 334.094 198.812C333.907 198.952 333.814 199.162 333.814 199.442C333.814 199.694 333.893 199.885 334.052 200.016C334.211 200.147 334.472 200.24 334.836 200.296L335.83 200.436C336.754 200.567 337.426 200.814 337.846 201.178C338.275 201.533 338.49 202.06 338.49 202.76C338.49 203.516 338.233 204.104 337.72 204.524C337.216 204.935 336.474 205.14 335.494 205.14H334.878ZM343.609 205.14C342.955 205.14 342.386 205.014 341.901 204.762C341.425 204.51 341.056 204.16 340.795 203.712C340.533 203.255 340.403 202.723 340.403 202.116V200.184C340.403 199.577 340.533 199.05 340.795 198.602C341.056 198.145 341.425 197.79 341.901 197.538C342.386 197.286 342.955 197.16 343.609 197.16C344.243 197.16 344.799 197.286 345.275 197.538C345.76 197.79 346.133 198.145 346.395 198.602C346.656 199.05 346.787 199.577 346.787 200.184V201.57H342.083V202.116C342.083 202.657 342.209 203.068 342.461 203.348C342.722 203.619 343.109 203.754 343.623 203.754C344.015 203.754 344.327 203.689 344.561 203.558C344.794 203.418 344.943 203.217 345.009 202.956H346.745C346.605 203.619 346.25 204.151 345.681 204.552C345.121 204.944 344.43 205.14 343.609 205.14ZM345.107 200.17C345.107 199.629 344.981 199.218 344.729 198.938C344.477 198.658 344.103 198.518 343.609 198.518C343.105 198.518 342.722 198.663 342.461 198.952C342.209 199.232 342.083 199.643 342.083 200.184V200.478L345.233 200.45L345.107 200.59V200.17ZM349.105 205V197.3H350.757V198.77H351.191L350.673 199.666C350.673 198.845 350.86 198.224 351.233 197.804C351.606 197.375 352.157 197.16 352.885 197.16C353.716 197.16 354.369 197.417 354.845 197.93C355.321 198.443 355.559 199.153 355.559 200.058V200.618H353.725V200.184C353.725 199.689 353.599 199.307 353.347 199.036C353.095 198.765 352.74 198.63 352.283 198.63C351.835 198.63 351.485 198.765 351.233 199.036C350.981 199.307 350.855 199.689 350.855 200.184V205H349.105ZM359.264 205L356.758 197.3H358.564L359.992 201.976C360.141 202.461 360.281 202.989 360.412 203.558C360.542 202.998 360.678 202.475 360.818 201.99L362.232 197.3H364.01L361.518 205H359.264ZM365.614 205V203.404H368.302V198.882H365.964V197.3H369.968V203.404H372.362V205H365.614ZM368.904 196.138C368.596 196.138 368.353 196.054 368.176 195.886C367.999 195.718 367.91 195.494 367.91 195.214C367.91 194.934 367.999 194.71 368.176 194.542C368.363 194.374 368.605 194.29 368.904 194.29H369.184C369.483 194.29 369.721 194.374 369.898 194.542C370.085 194.71 370.178 194.934 370.178 195.214C370.178 195.494 370.085 195.718 369.898 195.886C369.721 196.054 369.478 196.138 369.17 196.138H368.904ZM377.215 205.14C376.561 205.14 375.987 205.019 375.493 204.776C375.007 204.533 374.634 204.183 374.373 203.726C374.111 203.269 373.981 202.732 373.981 202.116V200.184C373.981 199.568 374.111 199.031 374.373 198.574C374.634 198.117 375.007 197.767 375.493 197.524C375.987 197.281 376.561 197.16 377.215 197.16C378.185 197.16 378.96 197.412 379.539 197.916C380.117 198.411 380.421 199.087 380.449 199.946H378.699C378.671 199.554 378.526 199.246 378.265 199.022C378.013 198.798 377.663 198.686 377.215 198.686C376.748 198.686 376.384 198.817 376.123 199.078C375.861 199.33 375.731 199.694 375.731 200.17V202.116C375.731 202.601 375.857 202.975 376.109 203.236C376.37 203.488 376.739 203.614 377.215 203.614C377.663 203.614 378.013 203.507 378.265 203.292C378.526 203.068 378.671 202.755 378.699 202.354H380.449C380.421 203.213 380.117 203.894 379.539 204.398C378.96 204.893 378.185 205.14 377.215 205.14ZM385.581 205.14C384.928 205.14 384.359 205.014 383.873 204.762C383.397 204.51 383.029 204.16 382.767 203.712C382.506 203.255 382.375 202.723 382.375 202.116V200.184C382.375 199.577 382.506 199.05 382.767 198.602C383.029 198.145 383.397 197.79 383.873 197.538C384.359 197.286 384.928 197.16 385.581 197.16C386.216 197.16 386.771 197.286 387.247 197.538C387.733 197.79 388.106 198.145 388.367 198.602C388.629 199.05 388.759 199.577 388.759 200.184V201.57H384.055V202.116C384.055 202.657 384.181 203.068 384.433 203.348C384.695 203.619 385.082 203.754 385.595 203.754C385.987 203.754 386.3 203.689 386.533 203.558C386.767 203.418 386.916 203.217 386.981 202.956H388.717C388.577 203.619 388.223 204.151 387.653 204.552C387.093 204.944 386.403 205.14 385.581 205.14ZM387.079 200.17C387.079 199.629 386.953 199.218 386.701 198.938C386.449 198.658 386.076 198.518 385.581 198.518C385.077 198.518 384.695 198.663 384.433 198.952C384.181 199.232 384.055 199.643 384.055 200.184V200.478L387.205 200.45L387.079 200.59V200.17Z" fill="#1A2B58" style="fill:#1A2B58;fill:color(display-p3 0.1020 0.1686 0.3451);fill-opacity:1;"/>
<path d="M181 198.5C180.172 198.5 179.5 199.172 179.5 200C179.5 200.828 180.172 201.5 181 201.5V200V198.5ZM278.061 201.061C278.646 200.475 278.646 199.525 278.061 198.939L268.515 189.393C267.929 188.808 266.979 188.808 266.393 189.393C265.808 189.979 265.808 190.929 266.393 191.515L274.879 200L266.393 208.485C265.808 209.071 265.808 210.021 266.393 210.607C266.979 211.192 267.929 211.192 268.515 210.607L278.061 201.061ZM181 200V201.5H277V200V198.5H181V200Z" fill="#E5E7EB" style="fill:#E5E7EB;fill:color(display-p3 0.8980 0.9059 0.9216);fill-opacity:1;"/>
<path d="M181 198.5C180.172 198.5 179.5 199.172 179.5 200C179.5 200.828 180.172 201.5 181 201.5V200V198.5ZM278.061 289.061C278.646 288.475 278.646 287.525 278.061 286.939L268.515 277.393C267.929 276.808 266.979 276.808 266.393 277.393C265.808 277.979 265.808 278.929 266.393 279.515L274.879 288L266.393 296.485C265.808 297.071 265.808 298.021 266.393 298.607C266.979 299.192 267.929 299.192 268.515 298.607L278.061 289.061ZM181 200V201.5H205V200V198.5H181V200ZM229 224H227.5V264H229H230.5V224H229ZM253 288V289.5H277V288V286.5H253V288ZM229 264H227.5C227.5 278.083 238.917 289.5 253 289.5V288V286.5C240.574 286.5 230.5 276.426 230.5 264H229ZM205 200V201.5C217.426 201.5 227.5 211.574 227.5 224H229H230.5C230.5 209.917 219.083 198.5 205 198.5V200Z" fill="#E5E7EB" style="fill:#E5E7EB;fill:color(display-p3 0.8980 0.9059 0.9216);fill-opacity:1;"/>
<path d="M748 198.5C747.172 198.5 746.5 199.172 746.5 200C746.5 200.828 747.172 201.5 748 201.5V200V198.5ZM816.061 201.061C816.646 200.475 816.646 199.525 816.061 198.939L806.515 189.393C805.929 188.808 804.979 188.808 804.393 189.393C803.808 189.979 803.808 190.929 804.393 191.515L812.879 200L804.393 208.485C803.808 209.071 803.808 210.021 804.393 210.607C804.979 211.192 805.929 211.192 806.515 210.607L816.061 201.061ZM748 200V201.5H815V200V198.5H748V200Z" fill="#E5E7EB" style="fill:#E5E7EB;fill:color(display-p3 0.8980 0.9059 0.9216);fill-opacity:1;"/>
<path d="M181 198.5C180.172 198.5 179.5 199.172 179.5 200C179.5 200.828 180.172 201.5 181 201.5V200V198.5ZM278.061 113.061C278.646 112.475 278.646 111.525 278.061 110.939L268.515 101.393C267.929 100.808 266.979 100.808 266.393 101.393C265.808 101.979 265.808 102.929 266.393 103.515L274.879 112L266.393 120.485C265.808 121.071 265.808 122.021 266.393 122.607C266.979 123.192 267.929 123.192 268.515 122.607L278.061 113.061ZM181 200V201.5H205V200V198.5H181V200ZM229 176H230.5V136H229H227.5V176H229ZM253 112V113.5H277V112V110.5H253V112ZM229 136H230.5C230.5 123.574 240.574 113.5 253 113.5V112V110.5C238.917 110.5 227.5 121.917 227.5 136H229ZM205 200V201.5C219.083 201.5 230.5 190.083 230.5 176H229H227.5C227.5 188.426 217.426 198.5 205 198.5V200Z" fill="#E5E7EB" style="fill:#E5E7EB;fill:color(display-p3 0.8980 0.9059 0.9216);fill-opacity:1;"/>
</g>
<defs>
<clipPath id="clip0_23883_280565">
<rect width="1026" height="400" rx="24" fill="white" style="fill:white;fill-opacity:1;"/>
</clipPath>
</defs>
</svg>
