<svg width="32" height="32" viewBox="0 0 32 32" fill="none" xmlns="http://www.w3.org/2000/svg">
<g clip-path="url(#clip0_2426_227)">
<path d="M0 32H32V12L20 0H0V32Z" fill="url(#paint0_linear_2426_227)"/>
<g filter="url(#filter0_d_2426_227)">
<path d="M20 10V0L32 12H22C20.8954 12 20 11.1046 20 10Z" fill="white"/>
</g>
<g opacity="0.5">
<path fill-rule="evenodd" clip-rule="evenodd" d="M11.75 19.536L5.02155 16.4776L5.22845 16.0224L12 19.1004L18.7715 16.0224L18.9784 16.4776L12.25 19.536L12.25 27.5H11.75L11.75 19.536Z" fill="white"/>
<path d="M11.75 19.536L12.25 19.536L12.25 19.214L11.9569 19.0808L11.75 19.536ZM5.02155 16.4776L4.56636 16.2707L4.35946 16.7259L4.81464 16.9328L5.02155 16.4776ZM5.22845 16.0224L5.43535 15.5672L4.98016 15.3603L4.77326 15.8155L5.22845 16.0224ZM12 19.1004L11.7931 19.5556L12 19.6496L12.2069 19.5556L12 19.1004ZM18.7715 16.0224L19.2267 15.8155L19.0198 15.3603L18.5646 15.5672L18.7715 16.0224ZM18.9784 16.4776L19.1853 16.9328L19.6405 16.7259L19.4336 16.2707L18.9784 16.4776ZM12.25 19.536L12.0431 19.0808L11.75 19.214L11.75 19.536L12.25 19.536ZM12.25 27.5V28H12.75L12.75 27.5L12.25 27.5ZM11.75 27.5L11.25 27.5L11.25 28H11.75V27.5ZM11.9569 19.0808L5.22845 16.0224L4.81464 16.9328L11.5431 19.9912L11.9569 19.0808ZM5.47673 16.6845L5.68363 16.2293L4.77326 15.8155L4.56636 16.2707L5.47673 16.6845ZM5.02155 16.4776L11.7931 19.5556L12.2069 18.6452L5.43535 15.5672L5.02155 16.4776ZM12.2069 19.5556L18.9784 16.4776L18.5646 15.5672L11.7931 18.6452L12.2069 19.5556ZM18.3164 16.2293L18.5233 16.6845L19.4336 16.2707L19.2267 15.8155L18.3164 16.2293ZM18.7715 16.0224L12.0431 19.0808L12.4569 19.9912L19.1853 16.9328L18.7715 16.0224ZM11.75 19.536L11.75 27.5L12.75 27.5L12.75 19.536L11.75 19.536ZM12.25 27H11.75V28H12.25V27ZM12.25 27.5L12.25 19.536L11.25 19.536L11.25 27.5L12.25 27.5Z" fill="white"/>
</g>
<path fill-rule="evenodd" clip-rule="evenodd" d="M11 11.8274C11.6188 11.4701 12.3812 11.4701 13 11.8274L18.5777 15.0476C19.1965 15.4049 19.5777 16.0652 19.5777 16.7797V23.2203C19.5777 23.9348 19.1965 24.5951 18.5777 24.9524L13 28.1726C12.3812 28.5299 11.6188 28.5299 11 28.1726L5.42228 24.9524C4.80348 24.5951 4.42228 23.9348 4.42228 23.2203V16.7797C4.42228 16.0652 4.80348 15.4049 5.42228 15.0476L11 11.8274Z" stroke="white" stroke-width="1.5"/>
</g>
<defs>
<filter id="filter0_d_2426_227" x="18" y="-1" width="16" height="16" filterUnits="userSpaceOnUse" color-interpolation-filters="sRGB">
<feFlood flood-opacity="0" result="BackgroundImageFix"/>
<feColorMatrix in="SourceAlpha" type="matrix" values="0 0 0 0 0 0 0 0 0 0 0 0 0 0 0 0 0 0 127 0" result="hardAlpha"/>
<feOffset dy="1"/>
<feGaussianBlur stdDeviation="1"/>
<feColorMatrix type="matrix" values="0 0 0 0 0 0 0 0 0 0 0 0 0 0 0 0 0 0 0.25 0"/>
<feBlend mode="normal" in2="BackgroundImageFix" result="effect1_dropShadow_2426_227"/>
<feBlend mode="normal" in="SourceGraphic" in2="effect1_dropShadow_2426_227" result="shape"/>
</filter>
<linearGradient id="paint0_linear_2426_227" x1="2" y1="2" x2="29" y2="30" gradientUnits="userSpaceOnUse">
<stop stop-color="#EBF765"/>
<stop offset="1" stop-color="#4CC39D"/>
</linearGradient>
<clipPath id="clip0_2426_227">
<rect width="32" height="32" rx="3" fill="white"/>
</clipPath>
</defs>
</svg>
