<svg width="12" height="12" viewBox="0 0 12 12" fill="none" xmlns="http://www.w3.org/2000/svg">
<path fill-rule="evenodd" clip-rule="evenodd" d="M5.17538 3.1488L5.08749 3.38669C4.51327 4.93869 3.28979 6.16209 1.73789 6.73629L1.5 6.82457L1.73789 6.91246C3.28989 7.48668 4.51329 8.71016 5.08749 10.2621L5.17538 10.5L5.26366 10.2621C5.83788 8.71006 7.06136 7.48666 8.61326 6.91246L8.85115 6.82457L8.61326 6.73629C7.06126 6.16207 5.83786 4.93859 5.26366 3.38669L5.17538 3.1488ZM8.85118 1.5L8.81173 1.60664C8.55431 2.30273 8.00548 2.85154 7.30943 3.10934L7.20279 3.14879L7.30943 3.18825C8.00552 3.44567 8.55433 3.9945 8.81173 4.69055L8.85118 4.79719L8.89064 4.69055C9.14806 3.99446 9.69689 3.44565 10.3933 3.18825L10.5 3.14879L10.3933 3.10934C9.69725 2.85192 9.14844 2.30309 8.89064 1.60664L8.85118 1.5Z" fill="#A0AEC0"/>
</svg>
