<svg width="24" height="24" viewBox="0 0 24 24" fill="none" xmlns="http://www.w3.org/2000/svg">
<path d="M12 2.90002C17.0257 2.90002 21.1004 6.97402 21.1006 11.9996C21.1006 17.0254 17.0258 21.1002 12 21.1002C6.97439 21.1 2.90039 17.0253 2.90039 11.9996C2.9006 6.97415 6.97452 2.90024 12 2.90002ZM15.6025 8.39807C14.9801 7.77568 13.9949 7.7363 13.3271 8.28088L13.1982 8.39807L12 9.59534L10.8027 8.39807C10.1804 7.77571 9.19506 7.7364 8.52734 8.28088L8.39844 8.39807C7.73455 9.06196 7.73455 10.1385 8.39844 10.8024L9.5957 11.9996L8.39844 13.1979C7.77604 13.8203 7.73666 14.8056 8.28125 15.4733L8.39844 15.6022C9.02099 16.2246 10.0061 16.2634 10.6738 15.7184L10.8027 15.6022L12 14.4039L13.1982 15.6022C13.8208 16.2247 14.8059 16.2633 15.4736 15.7184L15.6025 15.6022C16.2251 14.9797 16.2637 13.9945 15.7188 13.3268L15.6025 13.1979L14.4043 11.9996L15.6025 10.8024C16.225 10.1799 16.2636 9.1947 15.7188 8.52698L15.6025 8.39807Z" fill="#CA3A31" stroke="#CA3A31"/>
</svg>
