<svg width="24" height="24" viewBox="0 0 24 24" fill="none" xmlns="http://www.w3.org/2000/svg">
<path d="M12 2.89999C17.0257 2.89999 21.1004 6.97399 21.1006 11.9996C21.1006 17.0254 17.0258 21.1002 12 21.1002C6.97439 21.1 2.90039 17.0253 2.90039 11.9996C2.9006 6.97412 6.97452 2.90021 12 2.89999ZM13.2021 7.19785C12.5797 6.57563 11.5954 6.53708 10.9277 7.08163L10.7979 7.19785L7.19824 10.7975C6.5758 11.4199 6.53732 12.4051 7.08203 13.0728L7.19824 13.2018C7.82067 13.8242 8.80592 13.8636 9.47363 13.3189L9.60254 13.2018L10.3008 12.5035V15.6002L10.3096 15.774C10.3967 16.631 11.1201 17.3002 12 17.3004C12.9388 17.3004 13.7001 16.539 13.7002 15.6002V12.5035L14.3984 13.2018C15.0209 13.8242 16.0061 13.8637 16.6738 13.3189L16.8027 13.2018C17.4248 12.5794 17.4634 11.5949 16.9189 10.9273L16.8027 10.7975L13.2021 7.19785Z" fill="#473CFB" stroke="#473CFB"/>
</svg>
