<svg width="21" height="20" viewBox="0 0 21 20" fill="none" xmlns="http://www.w3.org/2000/svg">
<path d="M3.33301 5C3.33301 4.17157 4.00458 3.5 4.83301 3.5H16.833C17.6614 3.5 18.333 4.17157 18.333 5V15C18.333 15.8284 17.6614 16.5 16.833 16.5H4.83301C4.00458 16.5 3.33301 15.8284 3.33301 15V5ZM7.89367 5.93934C7.30788 5.35355 6.35813 5.35355 5.77235 5.93934C5.18656 6.52513 5.18656 7.47487 5.77235 8.06066L7.71169 10L5.77235 11.9393C5.18656 12.5251 5.18656 13.4749 5.77235 14.0607C6.35813 14.6464 7.30788 14.6464 7.89367 14.0607L10.8937 11.0607C11.4795 10.4749 11.4795 9.52513 10.8937 8.93934L7.89367 5.93934ZM11.833 11.5C11.0046 11.5 10.333 12.1716 10.333 13C10.333 13.8284 11.0046 14.5 11.833 14.5H14.833C15.6614 14.5 16.333 13.8284 16.333 13C16.333 12.1716 15.6614 11.5 14.833 11.5H11.833Z" fill="#473CFB" stroke="#473CFB"/>
</svg>
