<svg width="20" height="18" viewBox="0 0 20 18" fill="none" xmlns="http://www.w3.org/2000/svg">
<g id="Side-by-Side">
<path id="Side-by-Side_2" fill-rule="evenodd" clip-rule="evenodd" d="M4.50608 0.252034L15.1927 0.25C16.8643 0.25 17.4705 0.424048 18.0816 0.750874C18.6927 1.0777 19.1723 1.5573 19.4991 2.16841L19.6145 2.39944C19.8667 2.94771 20 3.59464 20 5.05728V12.9427C20 14.6143 19.826 15.2205 19.4991 15.8316C19.1723 16.4427 18.6927 16.9223 18.0816 17.2491L17.8506 17.3645C17.3023 17.6167 16.6554 17.75 15.1927 17.75H4.80728C3.13569 17.75 2.52953 17.576 1.91841 17.2491C1.3073 16.9223 0.8277 16.4427 0.500874 15.8316L0.385517 15.6006C0.151274 15.0914 0.0196437 14.4973 0.00203443 13.2439L0 5.05728C0 3.38569 0.174048 2.77953 0.500874 2.16841C0.8277 1.5573 1.3073 1.0777 1.91841 0.750874L2.14944 0.635517C2.65855 0.401274 3.25272 0.269644 4.50608 0.252034ZM15.1927 2.75H4.80728L4.36638 2.75344C3.58049 2.76745 3.33983 2.82576 3.09741 2.95541C2.92197 3.04923 2.79923 3.17197 2.70541 3.34741C2.55415 3.63023 2.5 3.91067 2.5 5.05728L2.50009 5.875H17.5L17.5 5.05728C17.5 3.91067 17.4458 3.63023 17.2946 3.34741C17.2008 3.17197 17.078 3.04923 16.9026 2.95541C16.6602 2.82576 16.4195 2.76745 15.6336 2.75344L15.1927 2.75ZM17.5 7.125H7.5V10.875H17.5V7.125ZM17.5 12.125H7.5V15.25H15.1927C16.3393 15.25 16.6198 15.1958 16.9026 15.0446C17.078 14.9508 17.2008 14.828 17.2946 14.6526C17.4242 14.4102 17.4825 14.1695 17.4966 13.3836L17.5 12.9427L17.5 12.125ZM6.25 10.875V7.125H2.50022L2.50061 10.875H6.25ZM2.50074 12.125H6.25V15.25H4.80728L4.36638 15.2466C3.58049 15.2325 3.33983 15.1742 3.09741 15.0446C2.92197 14.9508 2.79923 14.828 2.70541 14.6526C2.58657 14.4304 2.52767 14.2096 2.50788 13.5691L2.50084 13.1755L2.50074 12.125Z" fill="#473CFB"/>
</g>
</svg>
