<svg width="20" height="20" viewBox="0 0 20 20" fill="none" xmlns="http://www.w3.org/2000/svg">
<path d="M15.005 10C15.0052 8.84735 14.6072 7.73001 13.8783 6.8371C13.1494 5.94418 12.1344 5.33053 11.005 5.1V2H9.00501V5.1C7.87472 5.32951 6.85854 5.94273 6.12863 6.83574C5.39873 7.72875 5 8.84664 5 10C5 11.1534 5.39873 12.2712 6.12863 13.1643C6.85854 14.0573 7.87472 14.6705 9.00501 14.9V18H11.005V14.9C12.1344 14.6695 13.1494 14.0558 13.8783 13.1629C14.6072 12.27 15.0052 11.1527 15.005 10V10ZM10.005 13C9.41167 13 8.83165 12.8241 8.3383 12.4944C7.84495 12.1648 7.46044 11.6962 7.23337 11.1481C7.00631 10.5999 6.9469 9.99667 7.06266 9.41473C7.17841 8.83279 7.46413 8.29824 7.88369 7.87868C8.30325 7.45912 8.8378 7.1734 9.41974 7.05764C10.0017 6.94189 10.6049 7.0013 11.1531 7.22836C11.7012 7.45542 12.1698 7.83994 12.4994 8.33329C12.8291 8.82664 13.005 9.40666 13.005 10C13.005 10.7956 12.6889 11.5587 12.1263 12.1213C11.5637 12.6839 10.8007 13 10.005 13Z" fill="currentColor"/>
</svg>
