<svg width="12" height="8" viewBox="0 0 12 8" fill="none" xmlns="http://www.w3.org/2000/svg">
<g id="np_check_1807540_000000">
<path id="Path" d="M10.4088 0.000474079C10.1081 0.00827616 9.82323 0.126725 9.61297 0.329578C7.78081 2.05737 6.10844 3.75117 4.34943 5.442L2.28133 3.88158C2.04166 3.70071 1.73568 3.61702 1.43044 3.64895C1.12446 3.68086 0.845605 3.82556 0.65342 4.05182C0.461989 4.27738 0.373062 4.56533 0.406981 4.8526C0.440895 5.14056 0.594643 5.40299 0.834299 5.58386L3.72836 7.76276C4.19111 8.10887 4.85585 8.0727 5.27187 7.67764C7.35347 5.71446 9.21879 3.78577 11.2529 1.86725C11.5928 1.55304 11.6938 1.07499 11.5077 0.662904C11.3208 0.250112 10.8851 -0.012336 10.4088 0.000446843V0.000474079Z" fill="currentColor"/>
</g>
</svg>
