<svg width="16" height="16" viewBox="0 0 16 16" fill="none" xmlns="http://www.w3.org/2000/svg">
<path fill-rule="evenodd" clip-rule="evenodd" d="M8 3.19995C8.21218 3.19995 8.41566 3.28424 8.56569 3.43427L10.9657 5.83427C11.2781 6.14669 11.2781 6.65322 10.9657 6.96564C10.6533 7.27806 9.6 7.19995 9.6 7.19995H8H6.4C6 7.19995 5.34674 7.27806 5.03432 6.96564C4.7219 6.65322 4.7219 6.14668 5.03432 5.83427L7.43432 3.43427C7.58435 3.28424 7.78783 3.19995 8 3.19995ZM5.03432 9.03427C5.34674 8.72185 6.16569 8.79995 6.16569 8.79995H8H10C10 8.79995 10.6533 8.72185 10.9657 9.03427C11.2781 9.34669 11.2781 9.85322 10.9657 10.1656L8.56569 12.5656C8.25327 12.8781 7.74674 12.8781 7.43432 12.5656L5.03432 10.1656C4.7219 9.85322 4.7219 9.34669 5.03432 9.03427Z" fill="#718096" style="fill:#718096;fill:color(display-p3 0.4431 0.5020 0.5882);fill-opacity:1;"/>
</svg>
