<svg width="14" height="14" viewBox="0 0 14 14" fill="none" xmlns="http://www.w3.org/2000/svg">
<path fill-rule="evenodd" clip-rule="evenodd" d="M6.99987 12.4856C10.0296 12.4856 12.4856 10.0296 12.4856 6.99987C12.4856 3.9702 10.0296 1.51416 6.99987 1.51416C3.9702 1.51416 1.51416 3.9702 1.51416 6.99987C1.51416 10.0296 3.9702 12.4856 6.99987 12.4856ZM6.11332 5.14357C5.84553 4.87578 5.41136 4.87578 5.14357 5.14357C4.87578 5.41136 4.87578 5.84553 5.14357 6.11332L6.03013 6.99987L5.14357 7.88643C4.87578 8.15422 4.87578 8.58839 5.14357 8.85618C5.41136 9.12396 5.84553 9.12396 6.11332 8.85618L6.99987 7.96962L7.88643 8.85618C8.15422 9.12396 8.58839 9.12396 8.85618 8.85618C9.12396 8.58839 9.12396 8.15422 8.85618 7.88643L7.96962 6.99987L8.85618 6.11332C9.12396 5.84553 9.12396 5.41136 8.85618 5.14357C8.58839 4.87578 8.15422 4.87578 7.88643 5.14357L6.99987 6.03013L6.11332 5.14357Z" fill="currentColor"/>
</svg>
