<svg width="22" height="24" viewBox="0 0 22 24" fill="none" xmlns="http://www.w3.org/2000/svg">
<path d="M5.03289 17.9016C4.82571 18.0047 4.3607 18.1153 3.75509 18.1153C2.03477 18.1153 1.14893 17.0447 1.14893 15.6272C1.14893 13.9285 2.36018 12.9834 3.86669 12.9834C4.44981 12.9834 4.89324 13.1015 5.09201 13.2047L4.86326 14.0981C4.63451 14.0025 4.31671 13.9134 3.91826 13.9134C3.02481 13.9134 2.33107 14.4525 2.33107 15.5597C2.33107 16.5562 2.92168 17.1843 3.92575 17.1843C4.26513 17.1843 4.642 17.1103 4.86323 17.0222L5.03289 17.9016Z" fill="#A0AEC0"/>
<path d="M5.80807 16.8825C6.11087 17.0381 6.57587 17.1928 7.05587 17.1928C7.57243 17.1928 7.84619 16.9791 7.84619 16.6538C7.84619 16.3434 7.60994 16.1663 7.01181 15.9525C6.18494 15.6647 5.64587 15.2062 5.64587 14.4834C5.64587 13.635 6.35462 12.9844 7.52839 12.9844C8.08994 12.9844 8.50339 13.1025 8.79871 13.2356L8.54745 14.1441C8.34776 14.0485 7.99339 13.9078 7.5059 13.9078C7.01841 13.9078 6.78215 14.1291 6.78215 14.3878C6.78215 14.7056 7.06247 14.8453 7.7056 15.0891C8.58405 15.4144 8.99747 15.8719 8.99747 16.5731C8.99747 17.4075 8.35528 18.1163 6.98935 18.1163C6.42028 18.1163 5.85967 17.9682 5.57935 17.8135L5.80807 16.8825Z" fill="#A0AEC0"/>
<path d="M10.9326 18.0421L9.33789 13.0649H10.5707L11.1763 15.1696C11.346 15.7602 11.5016 16.3293 11.6198 16.949H11.6423C11.7679 16.3509 11.9226 15.7603 12.0923 15.1921L12.7269 13.0659H13.9232L12.2469 18.043L10.9326 18.0421Z" fill="#A0AEC0"/>
<path d="M14.5952 5.47096H18.182C17.1057 3.95971 15.0001 1.56616 13.8085 0.519043V4.56808C13.8085 5.06589 14.1621 5.47096 14.5952 5.47096Z" fill="#A0AEC0"/>
<path d="M18.8562 9.83769V6.75321H14.5952C13.5452 6.75321 12.6902 5.77259 12.6902 4.56695V-0.000488281H2.25763C1.51418 -0.000488281 0.911377 0.690448 0.911377 1.54358V6.29774H0.914189V10.8222H20.5294V20.0884H0.914189V22.4134C0.944189 23.2365 1.53293 23.8937 2.25764 23.8937H17.5108C18.2543 23.8937 18.8562 23.2018 18.8562 22.3496V21.0746H21.5149V9.83783L18.8562 9.83769Z" fill="#A0AEC0"/>
</svg>
