<svg width="76" height="76" viewBox="0 0 76 76" fill="none" xmlns="http://www.w3.org/2000/svg">
<g id="Multiplayer Icons / Entity">
<path id="Rectangle 7 (Stroke)" fill-rule="evenodd" clip-rule="evenodd" d="M30.9756 7.22376e-07H45.0244C49.6945 -3.11334e-05 53.4236 -5.65514e-05 56.4355 0.246023C59.5246 0.498412 62.1816 1.02788 64.6219 2.27128C68.5429 4.26916 71.7308 7.45708 73.7287 11.3781C74.9721 13.8185 75.5016 16.4754 75.754 19.5645C76.0001 22.5764 76 26.3055 76 30.9755V45.0245C76 49.6945 76.0001 53.4236 75.754 56.4355C75.5016 59.5246 74.9721 62.1816 73.7287 64.6219C71.7308 68.5429 68.5429 71.7308 64.6219 73.7287C62.1816 74.9721 59.5246 75.5016 56.4355 75.754C53.4236 76.0001 49.6945 76 45.0245 76H30.9755C26.3055 76 22.5764 76.0001 19.5645 75.754C16.4754 75.5016 13.8185 74.9721 11.3781 73.7287C7.45708 71.7308 4.26916 68.5429 2.27128 64.6219C1.02788 62.1816 0.498412 59.5246 0.246023 56.4355C-5.65514e-05 53.4236 -3.11334e-05 49.6945 7.22376e-07 45.0244V30.9756C-3.11334e-05 26.3055 -5.65514e-05 22.5764 0.246023 19.5645C0.498412 16.4754 1.02788 13.8185 2.27128 11.3781C4.26916 7.45708 7.45708 4.26916 11.3781 2.27128C13.8185 1.02788 16.4754 0.498412 19.5645 0.246023C22.5764 -5.65514e-05 26.3055 -3.11334e-05 30.9756 7.22376e-07ZM20.1634 7.57644C17.5292 7.79166 15.9478 8.19743 14.7172 8.82449C12.18 10.1172 10.1172 12.18 8.82449 14.7172C8.19743 15.9478 7.79166 17.5292 7.57644 20.1634C7.3577 22.8406 7.35484 26.2692 7.35484 31.1355V44.8645C7.35484 49.7308 7.3577 53.1594 7.57644 55.8366C7.79166 58.4708 8.19743 60.0522 8.82449 61.2828C10.1172 63.82 12.18 65.8828 14.7172 67.1755C15.9478 67.8026 17.5292 68.2083 20.1634 68.4236C22.8406 68.6423 26.2692 68.6452 31.1355 68.6452H44.8645C49.7308 68.6452 53.1594 68.6423 55.8366 68.4236C58.4708 68.2083 60.0522 67.8026 61.2828 67.1755C63.82 65.8828 65.8828 63.82 67.1755 61.2828C67.8026 60.0522 68.2083 58.4708 68.4236 55.8366C68.6423 53.1594 68.6452 49.7308 68.6452 44.8645V31.1355C68.6452 26.2692 68.6423 22.8406 68.4236 20.1634C68.2083 17.5292 67.8026 15.9478 67.1755 14.7172C65.8828 12.18 63.82 10.1172 61.2828 8.82449C60.0522 8.19743 58.4708 7.79166 55.8366 7.57644C53.1594 7.3577 49.7308 7.35484 44.8645 7.35484H31.1355C26.2692 7.35484 22.8406 7.3577 20.1634 7.57644Z" fill="#718096"/>
<path id="Vector" d="M55.2679 34.947L28.9454 19.4774C26.6359 18.1207 23.75 19.817 23.75 22.5305V53.4695C23.75 56.183 26.636 57.8792 28.9454 56.5226L55.2679 41.0531C57.5774 39.6964 57.5774 36.3038 55.2679 34.947Z" fill="url(#paint0_linear_17076_7322)"/>
</g>
<defs>
<linearGradient id="paint0_linear_17076_7322" x1="40.375" y1="19" x2="25.7763" y2="55.0735" gradientUnits="userSpaceOnUse">
<stop stop-color="#3428FD"/>
<stop offset="1" stop-color="#837CFF"/>
</linearGradient>
</defs>
</svg>
