<svg width="25" height="24" viewBox="0 0 25 24" fill="none" xmlns="http://www.w3.org/2000/svg">
<path fill-rule="evenodd" clip-rule="evenodd" d="M18.7313 1.5L5.9073 1.50244C4.40327 1.52357 3.69026 1.68153 3.07933 1.96262L2.8021 2.10105C2.06876 2.49324 1.49324 3.06876 1.10105 3.8021C0.708858 4.53543 0.5 5.26282 0.5 7.26874L0.502441 17.0927C0.523572 18.5967 0.681529 19.3097 0.962621 19.9207L1.10105 20.1979C1.49324 20.9312 2.06876 21.5068 2.8021 21.899C3.53543 22.2911 4.26282 22.5 6.26874 22.5H18.7313C20.4864 22.5 21.2627 22.3401 21.9207 22.0374L22.1979 21.899C22.9312 21.5068 23.5068 20.9312 23.899 20.1979C24.2911 19.4646 24.5 18.7372 24.5 16.7313V7.26874C24.5 5.51356 24.3401 4.73726 24.0374 4.07933L23.899 3.8021C23.5068 3.06876 22.9312 2.49324 22.1979 2.10105C21.4646 1.70886 20.7372 1.5 18.7313 1.5ZM6.26874 4.5H18.7313L19.2603 4.50413C20.2034 4.52095 20.4922 4.59091 20.7831 4.74649C20.9936 4.85908 21.1409 5.00637 21.2535 5.21689C21.435 5.55627 21.5 5.8928 21.5 7.26874V16.7313L21.4959 17.2603C21.4791 18.2034 21.4091 18.4922 21.2535 18.7831C21.1409 18.9936 20.9936 19.1409 20.7831 19.2535C20.4437 19.435 20.1072 19.5 18.7313 19.5H6.26874L5.73965 19.4959C4.79659 19.4791 4.50779 19.4091 4.21689 19.2535C4.00637 19.1409 3.85908 18.9936 3.74649 18.7831C3.60388 18.5165 3.5332 18.2516 3.50946 17.4829L3.50101 17.0106L3.5 7.26874C3.5 5.8928 3.56499 5.55627 3.74649 5.21689C3.85908 5.00637 4.00637 4.85908 4.21689 4.74649C4.50779 4.59091 4.79659 4.52095 5.73965 4.50413L6.26874 4.5Z" fill="#0091FF"/>
<path d="M6.5 15C6.5 15 8 12 10.7427 12C11.6658 12 18.5 12 18.5 12M18.5 12L15.4231 9.14284M18.5 12L15.4231 14.8571" stroke="#0091FF" stroke-width="2" stroke-linecap="round" stroke-linejoin="round"/>
<path opacity="0.5" d="M6.50001 8.25C6.50001 8.25 8.25727 12 11 12C11.9231 12 14 12 14 12" stroke="#0091FF" stroke-width="2" stroke-linecap="round" stroke-linejoin="round"/>
</svg>
