<svg width="24" height="24" viewBox="0 0 24 24" fill="none" xmlns="http://www.w3.org/2000/svg">
<g id="Icons / Outline / Document Changes">
<path id="Icon" d="M15 3H7C5.89543 3 5 3.89543 5 5V19C5 20.1046 5.89543 21 7 21H17C18.1046 21 19 20.1046 19 19V15" stroke="currentColor" stroke-width="2" stroke-linecap="round" stroke-linejoin="round"/>
<path id="Vector" d="M14.9484 15.7476C14.6158 16.0925 14.0767 16.0925 13.7435 15.7476L10.5983 12.4861C10.5717 12.4585 10.5468 12.4292 10.5242 12.3981C10.2385 12.011 10.3098 11.4568 10.6831 11.16L17.4543 6.18191C17.7932 5.91271 18.2723 5.94556 18.5738 6.25875L19.7504 7.47806C20.0525 7.79124 20.0842 8.28742 19.8245 8.63932L15.0225 15.6597C14.9999 15.6907 14.975 15.72 14.9484 15.7476ZM13.0082 16.2285L11.8112 16.849C11.6472 16.9341 11.4492 16.9007 11.3191 16.7663L9.61577 15.0004C9.48566 14.8655 9.45398 14.6602 9.53601 14.4901L10.1345 13.2491L13.0082 16.2285ZM9.13774 15.7541L10.5921 17.2619L10.0049 17.8707C9.89066 17.9886 9.72209 18.0302 9.56879 17.9775L8.29149 17.5358C7.99112 17.432 7.90117 17.0367 8.12462 16.8045L9.13774 15.7541Z" fill="currentColor"/>
</g>
</svg>
