<svg width="17" height="16" viewBox="0 0 17 16" fill="none" xmlns="http://www.w3.org/2000/svg">
<g id="book-closed 1">
<path id="Vector" fill-rule="evenodd" clip-rule="evenodd" d="M2.17257 12.8344C2.20319 13.2091 2.2689 13.5536 2.43376 13.8772C2.68942 14.3789 3.09737 14.7868 3.59913 15.0425C3.92269 15.2074 4.26716 15.2731 4.64189 15.3037C5.00268 15.3332 5.44558 15.3332 5.98222 15.3332H11.3688C11.7203 15.3332 12.0234 15.3332 12.2731 15.3128C12.5367 15.2912 12.7989 15.2437 13.0511 15.1152C13.4274 14.9234 13.7334 14.6175 13.9251 14.2412C14.0537 13.9889 14.1012 13.7268 14.1227 13.4632C14.141 13.2394 14.1431 12.9727 14.1431 12.6665C14.1431 9.59124 14.1431 6.51603 14.1431 3.4408C14.1431 3.08937 14.1431 2.7862 14.1227 2.53648C14.1012 2.27292 14.0537 2.01078 13.9251 1.75852C13.7334 1.3822 13.4274 1.07624 13.0511 0.884491C12.7989 0.755964 12.5367 0.708418 12.2731 0.686884C12.0234 0.666484 11.7203 0.666494 11.3689 0.666504H5.98224C5.44561 0.666497 5.00268 0.666491 4.64189 0.695971C4.26716 0.726584 3.92269 0.792298 3.59913 0.957158C3.09737 1.21282 2.68942 1.62076 2.43376 2.12253C2.2689 2.44609 2.20319 2.79056 2.17257 3.16529C2.14309 3.52608 2.1431 3.96898 2.14311 4.50563V11.494C2.1431 11.9414 2.13616 12.3888 2.17257 12.8344ZM12.7938 13.3546C12.779 13.5357 12.7539 13.6028 12.7371 13.6358C12.6732 13.7613 12.5712 13.8632 12.4458 13.9272C12.4128 13.944 12.3457 13.9691 12.1645 13.9839C11.9757 13.9993 11.7275 13.9998 11.3431 13.9998H6.00978C5.43872 13.9998 5.05052 13.9993 4.75046 13.9748C4.45819 13.9509 4.30872 13.9076 4.20446 13.8545C3.95357 13.7267 3.7496 13.5227 3.62176 13.2718C3.50232 13.0374 3.44325 12.8344 3.48764 12.493C3.5727 11.8386 4.13222 11.3332 4.80978 11.3332H12.8098C12.8098 12.0032 12.8485 12.6862 12.7938 13.3546Z" fill="#4D5562"/>
</g>
</svg>
