<svg width="24" height="24" viewBox="0 0 24 24" fill="none" xmlns="http://www.w3.org/2000/svg">
<path d="M18.2221 5.78944C17.6196 5.19078 16.9554 4.65789 16.2396 4.19995C15.713 3.87272 15.0297 3.9535 14.5955 4.39562L4.39094 14.5912C4.13595 14.8485 3.99512 15.1974 4.00013 15.5596V18.7036C4.0193 19.4255 4.61094 20 5.33341 20H8.44411C8.79827 20 9.13658 19.8593 9.38658 19.6095L19.617 9.42222C20.0553 8.9726 20.1253 8.28068 19.7862 7.7528C19.3353 7.04506 18.8112 6.38644 18.2221 5.78946L18.2221 5.78944ZM9.55574 17.5221C9.48241 17.5804 9.39158 17.612 9.29743 17.6112C9.15243 17.6128 9.01578 17.5429 8.93328 17.4247C8.60412 16.9767 8.24164 16.5554 7.84917 16.1632C7.43252 15.7494 6.98337 15.3689 6.50672 15.0267C6.33172 14.8768 6.30006 14.6179 6.43422 14.4305C6.56838 14.2432 6.8242 14.1899 7.02253 14.3073C7.53 14.6845 8.00583 15.1033 8.44414 15.5596C8.87163 15.9859 9.26412 16.4463 9.61743 16.9359C9.74826 17.1191 9.72159 17.3705 9.55577 17.5221L9.55574 17.5221ZM17.4129 9.67951C17.3338 9.7328 17.2413 9.76027 17.1463 9.75944C17.0071 9.75861 16.8754 9.69283 16.7904 9.58209C16.1196 8.65453 15.2997 7.84439 14.3639 7.1841C14.1664 7.04006 14.1189 6.76445 14.2572 6.56212C14.3255 6.46554 14.4297 6.39976 14.5464 6.37977C14.663 6.35979 14.783 6.38727 14.8797 6.45554C15.3955 6.82773 15.883 7.23739 16.3371 7.68118C16.7596 8.11248 17.1521 8.57293 17.5104 9.05835C17.6512 9.25818 17.6079 9.53296 17.4129 9.6795L17.4129 9.67951Z" fill="#4A5568"/>
</svg>
