<svg width="112" height="112" viewBox="0 0 112 112" fill="none" xmlns="http://www.w3.org/2000/svg">
<g filter="url(#filter0_d_17535_59637)">
<rect x="2" y="1" width="108" height="108" rx="54" fill="white"/>
<path fill-rule="evenodd" clip-rule="evenodd" d="M48.9756 17H63.0244C67.6945 17 71.4236 16.9999 74.4355 17.246C77.5246 17.4984 80.1816 18.0279 82.6219 19.2713C86.5429 21.2692 89.7308 24.4571 91.7287 28.3781C92.9721 30.8185 93.5016 33.4754 93.754 36.5645C94.0001 39.5764 94 43.3055 94 47.9755V62.0245C94 66.6945 94.0001 70.4236 93.754 73.4355C93.5016 76.5246 92.9721 79.1816 91.7287 81.6219C89.7308 85.5429 86.5429 88.7308 82.6219 90.7287C80.1816 91.9721 77.5246 92.5016 74.4355 92.754C71.4236 93.0001 67.6945 93 63.0245 93H48.9755C44.3055 93 40.5764 93.0001 37.5645 92.754C34.4754 92.5016 31.8185 91.9721 29.3781 90.7287C25.4571 88.7308 22.2692 85.5429 20.2713 81.6219C19.0279 79.1816 18.4984 76.5246 18.246 73.4355C17.9999 70.4236 18 66.6945 18 62.0244V47.9756C18 43.3055 17.9999 39.5764 18.246 36.5645C18.4984 33.4754 19.0279 30.8185 20.2713 28.3781C22.2692 24.4571 25.4571 21.2692 29.3781 19.2713C31.8185 18.0279 34.4754 17.4984 37.5645 17.246C40.5764 16.9999 44.3055 17 48.9756 17ZM38.1634 24.5764C35.5292 24.7917 33.9478 25.1974 32.7172 25.8245C30.18 27.1172 28.1172 29.18 26.8245 31.7172C26.1974 32.9478 25.7917 34.5292 25.5764 37.1634C25.3577 39.8406 25.3548 43.2692 25.3548 48.1355V61.8645C25.3548 66.7308 25.3577 70.1594 25.5764 72.8366C25.7917 75.4708 26.1974 77.0522 26.8245 78.2828C28.1172 80.82 30.18 82.8828 32.7172 84.1755C33.9478 84.8026 35.5292 85.2083 38.1634 85.4236C40.8406 85.6423 44.2692 85.6452 49.1355 85.6452H62.8645C67.7308 85.6452 71.1594 85.6423 73.8366 85.4236C76.4708 85.2083 78.0522 84.8026 79.2828 84.1755C81.82 82.8828 83.8828 80.82 85.1755 78.2828C85.8026 77.0522 86.2083 75.4708 86.4236 72.8366C86.6423 70.1594 86.6452 66.7308 86.6452 61.8645V48.1355C86.6452 43.2692 86.6423 39.8406 86.4236 37.1634C86.2083 34.5292 85.8026 32.9478 85.1755 31.7172C83.8828 29.18 81.82 27.1172 79.2828 25.8245C78.0522 25.1974 76.4708 24.7917 73.8366 24.5764C71.1594 24.3577 67.7308 24.3548 62.8645 24.3548H49.1355C44.2692 24.3548 40.8406 24.3577 38.1634 24.5764Z" fill="#718096"/>
<path d="M77.375 49.9378L69.297 40.75M77.375 49.9378L69.297 59.123M77.375 49.9378C77.375 49.9378 72.625 49.9378 60.1273 49.9378C46.5 49.9378 56 69.25 34.625 69.25" stroke="#473CFB" stroke-width="8" stroke-linecap="round" stroke-linejoin="round"/>
</g>
<defs>
<filter id="filter0_d_17535_59637" x="0" y="0" width="112" height="112" filterUnits="userSpaceOnUse" color-interpolation-filters="sRGB">
<feFlood flood-opacity="0" result="BackgroundImageFix"/>
<feColorMatrix in="SourceAlpha" type="matrix" values="0 0 0 0 0 0 0 0 0 0 0 0 0 0 0 0 0 0 127 0" result="hardAlpha"/>
<feOffset dy="1"/>
<feGaussianBlur stdDeviation="1"/>
<feColorMatrix type="matrix" values="0 0 0 0 0 0 0 0 0 0 0 0 0 0 0 0 0 0 0.05 0"/>
<feBlend mode="normal" in2="BackgroundImageFix" result="effect1_dropShadow_17535_59637"/>
<feBlend mode="normal" in="SourceGraphic" in2="effect1_dropShadow_17535_59637" result="shape"/>
</filter>
</defs>
</svg>
