<svg width="24" height="24" viewBox="0 0 24 24" fill="none" xmlns="http://www.w3.org/2000/svg">
<path fill-rule="evenodd" clip-rule="evenodd" d="M9.78176 2.28119e-07H14.2182C15.693 -9.83161e-06 16.8706 -1.78583e-05 17.8217 0.0776915C18.7972 0.157393 19.6363 0.324594 20.4069 0.717248C21.6451 1.34816 22.6518 2.35487 23.2828 3.5931C23.6754 4.36372 23.8426 5.20277 23.9223 6.17827C24 7.12938 24 8.30699 24 9.78173V14.2183C24 15.693 24 16.8706 23.9223 17.8217C23.8426 18.7972 23.6754 19.6363 23.2828 20.4069C22.6518 21.6451 21.6451 22.6518 20.4069 23.2828C19.6363 23.6754 18.7972 23.8426 17.8217 23.9223C16.8706 24 15.693 24 14.2183 24H9.78173C8.307 24 7.12938 24 6.17827 23.9223C5.20277 23.8426 4.36372 23.6754 3.5931 23.2828C2.35487 22.6518 1.34816 21.6451 0.717248 20.4069C0.324594 19.6363 0.157393 18.7972 0.0776915 17.8217C-1.78583e-05 16.8706 -9.83161e-06 15.693 2.28119e-07 14.2182V9.78176C-9.83161e-06 8.30701 -1.78583e-05 7.12939 0.0776915 6.17827C0.157393 5.20277 0.324594 4.36372 0.717248 3.5931C1.34816 2.35487 2.35487 1.34816 3.5931 0.717248C4.36372 0.324594 5.20277 0.157393 6.17827 0.0776915C7.12939 -1.78583e-05 8.30701 -9.83161e-06 9.78176 2.28119e-07ZM6.3674 2.39256C5.53553 2.46053 5.03616 2.58866 4.64752 2.78668C3.84632 3.19492 3.19492 3.84632 2.78668 4.64752C2.58866 5.03616 2.46053 5.53553 2.39256 6.3674C2.32348 7.21283 2.32258 8.29554 2.32258 9.83226V14.1677C2.32258 15.7045 2.32348 16.7872 2.39256 17.6326C2.46053 18.4645 2.58866 18.9638 2.78668 19.3525C3.19492 20.1537 3.84632 20.8051 4.64752 21.2133C5.03616 21.4113 5.53553 21.5395 6.3674 21.6074C7.21283 21.6765 8.29554 21.6774 9.83226 21.6774H14.1677C15.7045 21.6774 16.7872 21.6765 17.6326 21.6074C18.4645 21.5395 18.9638 21.4113 19.3525 21.2133C20.1537 20.8051 20.8051 20.1537 21.2133 19.3525C21.4113 18.9638 21.5395 18.4645 21.6074 17.6326C21.6765 16.7872 21.6774 15.7045 21.6774 14.1677V9.83226C21.6774 8.29554 21.6765 7.21283 21.6074 6.3674C21.5395 5.53553 21.4113 5.03616 21.2133 4.64752C20.8051 3.84632 20.1537 3.19492 19.3525 2.78668C18.9638 2.58866 18.4645 2.46053 17.6326 2.39256C16.7872 2.32348 15.7045 2.32258 14.1677 2.32258H9.83226C8.29554 2.32258 7.21283 2.32348 6.3674 2.39256Z" fill="#718096"/>
<path opacity="0.6" d="M18.75 10.4014L16.1991 7.5M18.75 10.4014L16.1991 13.302M18.75 10.4014C18.75 10.4014 17.25 10.4014 13.3034 10.4014C9 10.4014 12 16.5 5.25 16.5" stroke="#718096" stroke-width="1.5" stroke-linecap="round" stroke-linejoin="round"/>
</svg>
