<svg width="49" height="48" viewBox="0 0 49 48" fill="none" xmlns="http://www.w3.org/2000/svg">
<path d="M18.5 26H30.5H18.5ZM24.5 20V32V20ZM6.5 34V14C6.5 12.9391 6.92143 11.9217 7.67157 11.1716C8.42172 10.4214 9.43913 10 10.5 10H22.5L26.5 14H38.5C39.5609 14 40.5783 14.4214 41.3284 15.1716C42.0786 15.9217 42.5 16.9391 42.5 18V34C42.5 35.0609 42.0786 36.0783 41.3284 36.8284C40.5783 37.5786 39.5609 38 38.5 38H10.5C9.43913 38 8.42172 37.5786 7.67157 36.8284C6.92143 36.0783 6.5 35.0609 6.5 34Z" stroke="#9CA3AF" stroke-width="2" stroke-linecap="round" stroke-linejoin="round"/>
</svg>
