<svg width="24" height="24" viewBox="0 0 24 24" fill="none" xmlns="http://www.w3.org/2000/svg">
<path d="M15.6208 10.912H13.0608L12.9248 12.784H12.9888C13.0528 12.6667 13.1221 12.56 13.1968 12.464C13.2714 12.3627 13.3568 12.2773 13.4528 12.208C13.5541 12.1387 13.6661 12.0853 13.7888 12.048C13.9168 12.0107 14.0634 11.992 14.2288 11.992C14.4634 11.992 14.6848 12.032 14.8928 12.112C15.1008 12.192 15.2821 12.3067 15.4368 12.456C15.5914 12.6053 15.7114 12.7893 15.7968 13.008C15.8874 13.2267 15.9328 13.4747 15.9328 13.752C15.9328 14.0293 15.8848 14.2853 15.7888 14.52C15.6981 14.7547 15.5621 14.96 15.3808 15.136C15.2048 15.3067 14.9861 15.44 14.7248 15.536C14.4688 15.632 14.1728 15.68 13.8368 15.68C13.5754 15.68 13.3408 15.6507 13.1328 15.592C12.9301 15.5387 12.7514 15.464 12.5968 15.368C12.4421 15.272 12.3061 15.1627 12.1888 15.04C12.0714 14.912 11.9701 14.7813 11.8848 14.648L12.6448 14.048C12.7088 14.1547 12.7781 14.256 12.8528 14.352C12.9328 14.4427 13.0208 14.5227 13.1168 14.592C13.2128 14.6613 13.3194 14.7173 13.4368 14.76C13.5594 14.7973 13.6981 14.816 13.8528 14.816C14.1728 14.816 14.4154 14.7307 14.5808 14.56C14.7514 14.384 14.8368 14.144 14.8368 13.84V13.776C14.8368 13.4827 14.7514 13.2533 14.5808 13.088C14.4101 12.9227 14.1701 12.84 13.8608 12.84C13.6261 12.84 13.4341 12.8853 13.2848 12.976C13.1408 13.0613 13.0234 13.1547 12.9328 13.256L12.0768 13.136L12.2848 10H15.6208V10.912Z" fill="currentColor"/>
<path d="M7.408 15.584V14.728H8.944V10.76H8.872L7.656 12.2L7 11.648L8.384 10H9.992V14.728H11.256V15.584H7.408Z" fill="currentColor"/>
<path d="M19.796 16.5C18.2398 19.1901 15.3313 21 12 21C7.02944 21 3 16.9706 3 12C3 7.02944 7.02944 3 12 3C15.1305 3 17.8876 4.59826 19.5 7.02331L20 8" stroke="currentColor" stroke-width="2" stroke-linecap="round" stroke-linejoin="round"/>
<path d="M21 5V9H17" stroke="currentColor" stroke-width="2" stroke-linecap="round" stroke-linejoin="round"/>
</svg>
