<svg width="14" height="16" viewBox="0 0 14 16" fill="none" xmlns="http://www.w3.org/2000/svg">
<path d="M11.6667 6.85733C10.799 6.85733 10.0509 7.32734 9.64975 8.01593C9.54475 8.00879 9.44266 8.00022 9.3333 8.00022C6.94379 8.00022 4.67691 6.2173 3.84998 4.01014C4.34728 3.59155 4.66665 2.97725 4.66665 2.28579C4.66665 1.02433 3.62102 0 2.33332 0C1.04563 0 0 1.02433 0 2.28579C0 3.1294 0.471033 3.85871 1.16666 4.25523V11.7455C0.471033 12.1412 0 12.8705 0 13.7142C0 14.9757 1.04563 16 2.33332 16C3.62102 16 4.66665 14.9757 4.66665 13.7142C4.66665 12.8699 4.19562 12.1413 3.49999 11.7455V7.63327C5.03416 9.22332 7.15304 10.2863 9.3333 10.2863C9.44923 10.2863 9.54475 10.2784 9.64975 10.2748C10.053 10.9613 10.8004 11.4291 11.6667 11.4291C12.9544 11.4291 14 10.4048 14 9.14335C14 7.88189 12.9544 6.85756 11.6667 6.85756V6.85733ZM2.33338 14.8576C1.69026 14.8576 1.16672 14.3462 1.16672 13.7147C1.16672 13.084 1.69026 12.5718 2.33338 12.5718C2.97868 12.5718 3.50004 13.084 3.50004 13.7147C3.50004 14.3462 2.97868 14.8576 2.33338 14.8576ZM2.33338 3.42864C1.69026 3.42864 1.16672 2.9179 1.16672 2.28574C1.16672 1.65359 1.69026 1.14285 2.33338 1.14285C2.97868 1.14285 3.50004 1.65359 3.50004 2.28574C3.50004 2.9179 2.97868 3.42864 2.33338 3.42864ZM11.6667 10.286C11.0228 10.286 10.5 9.77457 10.5 9.14312C10.5 8.51168 11.0228 8.00023 11.6667 8.00023C12.3113 8.00023 12.8333 8.51096 12.8333 9.14312C12.8333 9.77528 12.3113 10.286 11.6667 10.286Z" fill="currentColor"/>
</svg>
