<svg width="21" height="20" viewBox="0 0 21 20" fill="none" xmlns="http://www.w3.org/2000/svg">
<g clip-path="url(#clip0_4132_264)">
<path fill-rule="evenodd" clip-rule="evenodd" d="M0.5 10.2537C0.5 14.7832 3.36504 18.6266 7.33876 19.9824C7.83908 20.0768 8.02141 19.7602 8.02141 19.4883C8.02141 19.2447 8.01281 18.6002 8.0079 17.7447C5.22636 18.3641 4.63948 16.37 4.63948 16.37C4.18458 15.1854 3.52894 14.8701 3.52894 14.8701C2.621 14.2337 3.5977 14.2469 3.5977 14.2469C4.60142 14.3193 5.12936 15.3038 5.12936 15.3038C6.02196 16.8704 7.47013 16.4179 8.03983 16.1554C8.13068 15.4926 8.38913 15.0413 8.67459 14.7845C6.45414 14.5258 4.11951 13.6464 4.11951 9.71741C4.11951 8.59762 4.50933 7.6824 5.14901 6.96546C5.04649 6.70613 4.70332 5.66377 5.24723 4.25255C5.24723 4.25255 6.08703 3.97622 7.99685 5.30309C8.79491 5.07586 9.65007 4.96193 10.5003 4.95816C11.3499 4.96193 12.2051 5.07586 13.0044 5.30309C14.913 3.97622 15.7515 4.25255 15.7515 4.25255C16.2967 5.66377 15.9535 6.70613 15.851 6.96546C16.4919 7.6824 16.8786 8.59762 16.8786 9.71741C16.8786 13.6559 14.5409 14.5226 12.3131 14.7769C12.6723 15.0935 12.9915 15.7192 12.9915 16.6753C12.9915 18.0463 12.9798 19.1522 12.9798 19.4883C12.9798 19.7628 13.1597 20.0813 13.6674 19.9812C17.6374 18.6228 20.5 14.7826 20.5 10.2537C20.5 4.59056 16.0223 0 10.4991 0C4.97773 0 0.5 4.59056 0.5 10.2537Z" fill="currentColor"/>
</g>
<defs>
<clipPath id="clip0_4132_264">
<rect width="20" height="20" fill="white" transform="translate(0.5)"/>
</clipPath>
</defs>
</svg>
