<svg width="20" height="20" viewBox="0 0 20 20" fill="none" xmlns="http://www.w3.org/2000/svg">
<g clip-path="url(#clip0_4132_145)">
<path d="M19.6654 8.00926L19.6379 7.93816L16.915 0.840793C16.8605 0.701092 16.7625 0.582614 16.6354 0.502882C16.5085 0.421727 16.359 0.382875 16.2086 0.391908C16.058 0.399208 15.9137 0.454105 15.7964 0.548678C15.6791 0.643252 15.5949 0.772614 15.5559 0.918102L13.7215 6.53541H6.28397L4.44204 0.918102C4.40267 0.773487 4.31833 0.645113 4.20119 0.551512C4.08327 0.458172 3.93926 0.403722 3.78904 0.395681C3.63882 0.38764 3.48981 0.426405 3.36259 0.506623C3.23587 0.586753 3.13797 0.705103 3.08306 0.844535L0.361357 7.93816L0.333903 8.00926C-0.0579741 9.03244 -0.106291 10.1552 0.196235 11.2083C0.498763 12.2613 1.13573 13.1875 2.0111 13.8473L2.01984 13.8535L2.04479 13.8722L6.19164 16.9745L8.24319 18.5257L9.49111 19.4683C9.6374 19.5793 9.81599 19.6393 9.99963 19.6393C10.1833 19.6393 10.3619 19.5793 10.5082 19.4683L11.7561 18.5257L13.8076 16.9745L17.9782 13.8572L17.9894 13.8498C18.8649 13.1896 19.5019 12.2629 19.8041 11.2093C20.1065 10.1558 20.0577 9.03268 19.6654 8.00926Z" fill="#E24329"/>
<path d="M19.6654 8.00921L19.6379 7.93811C18.3115 8.21024 17.0617 8.77182 15.9778 9.58279L9.99902 14.0991L13.8077 16.9745L17.9782 13.8572L17.9894 13.8497C18.8649 13.1895 19.5019 12.2628 19.8042 11.2093C20.1065 10.1558 20.0578 9.03264 19.6654 8.00921Z" fill="#FC6D26"/>
<path d="M6.19165 16.9745L8.2432 18.5257L9.49112 19.4683C9.63741 19.5793 9.816 19.6393 9.99964 19.6393C10.1833 19.6393 10.3619 19.5793 10.5082 19.4683L11.7561 18.5257L13.8077 16.9745L9.99904 14.0991L6.19165 16.9745Z" fill="#FCA326"/>
<path d="M4.02024 9.58279C2.93694 8.77164 1.68746 8.21 0.361357 7.93811L0.333903 8.00921C-0.0579741 9.0324 -0.106291 10.1552 0.196235 11.2082C0.498763 12.2612 1.13573 13.1875 2.0111 13.8472L2.01984 13.8535L2.04479 13.8721L6.19164 16.9745L9.99897 14.0991L4.02024 9.58279Z" fill="#FC6D26"/>
</g>
<defs>
<clipPath id="clip0_4132_145">
<rect width="20" height="20" fill="white"/>
</clipPath>
</defs>
</svg>
