<svg width="16" height="16" viewBox="0 0 16 16" fill="none" xmlns="http://www.w3.org/2000/svg">
  <path
    d="M7.20002 2.40001C7.20002 1.95818 7.5582 1.60001 8.00002 1.60001C8.44185 1.60001 8.80002 1.95818 8.80002 2.40001V6.80001C8.80002 7.02092 8.97911 7.20001 9.20003 7.20001C9.42094 7.20001 9.60003 7.02092 9.60003 6.80001V3.20001C9.60003 2.75818 9.9582 2.40001 10.4 2.40001C10.8419 2.40001 11.2 2.75818 11.2 3.20001V6.80001C11.2 7.02092 11.3791 7.20001 11.6 7.20001C11.8209 7.20001 12 7.02092 12 6.80001V4.80001C12 4.35818 12.3582 4.00001 12.8 4.00001C13.2419 4.00001 13.6 4.35818 13.6 4.80001V8.80001C13.6 11.8928 11.0928 14.4 8.00002 14.4C4.90723 14.4 2.40002 11.8928 2.40002 8.80001V7.20001C2.40002 6.75818 2.7582 6.40001 3.20002 6.40001C3.64185 6.40001 4.00002 6.75818 4.00002 7.20001V9.20001C4.00002 9.42092 4.17911 9.60001 4.40002 9.60001C4.62094 9.60001 4.80002 9.42092 4.80002 9.20001V3.20001C4.80002 2.75818 5.1582 2.40001 5.60002 2.40001C6.04185 2.40001 6.40002 2.75818 6.40002 3.20001V6.80001C6.40002 7.02092 6.57911 7.20001 6.80002 7.20001C7.02094 7.20001 7.20002 7.02092 7.20002 6.80001V2.40001Z"
    fill="currentColor" />
</svg>