<svg width="24" height="24" viewBox="0 0 24 24" fill="none" xmlns="http://www.w3.org/2000/svg">
<path d="M15.384 10.0214V7.05258C15.384 6.61014 15.1951 6.16855 14.8797 5.85276L11.4737 2.48437C11.1583 2.16859 10.7377 2 10.2959 2H5.1659C3.96758 2 3 2.96875 3 4.16861V15.1792C3 16.379 3.96754 17.3478 5.1659 17.3478H8.04627C8.69842 20 11.0951 22 13.955 22C17.2978 22 20.0312 19.2632 20.0312 15.9163C20.0312 13.0742 18.0337 10.6736 15.384 10.0214ZM4.51367 15.1792V4.16861C4.51367 3.81089 4.8077 3.51565 5.16582 3.51565H9.81301V6.3792C9.81301 7.0527 10.36 7.6004 11.0327 7.6004H13.8927V9.8528C10.6115 9.87336 7.94122 12.5477 7.87815 15.8313H5.14475C4.80881 15.8313 4.51397 15.5369 4.51397 15.1791L4.51367 15.1792ZM13.9548 20.5049C11.4317 20.5049 9.39236 18.4416 9.39236 15.9367C9.39236 13.4319 11.4531 11.3685 13.9548 11.3685C16.4565 11.3685 18.5173 13.4318 18.5173 15.9367C18.5173 18.4424 16.4779 20.5049 13.9548 20.5049Z" fill="currentColor"/>
<path d="M16.3301 15.1792H13.3865L13.8908 14.6743C14.1848 14.3799 14.1848 13.8955 13.8908 13.6217C13.5967 13.3273 13.113 13.3273 12.8395 13.6217L11.0522 15.4111C10.9052 15.5583 10.842 15.7483 10.842 15.9374C10.842 16.1266 10.9258 16.3371 11.0522 16.4638L12.8395 18.2532C12.9865 18.4004 13.1762 18.4637 13.3651 18.4637C13.554 18.4637 13.7438 18.4004 13.8908 18.2532C14.1848 17.9588 14.1848 17.4744 13.8908 17.2006L13.3651 16.6957H16.3302C16.7507 16.6957 17.0875 16.3585 17.0875 15.9374C17.0875 15.5156 16.7507 15.1792 16.3301 15.1792Z" fill="currentColor"/>
</svg>
