<svg width="20" height="20" viewBox="0 0 20 20" fill="none" xmlns="http://www.w3.org/2000/svg">
<path fill-rule="evenodd" clip-rule="evenodd" d="M9.99385 5.5052C11.3745 4.16493 13.5382 4.16493 14.9188 5.5052C15.5992 6.16359 15.9832 7.04827 15.9994 7.99735C16.0162 8.94524 15.6628 9.84316 15.0052 10.5262L13.648 11.8876C13.5388 12.0001 13.4116 12.1114 13.2633 12.2216C12.6459 12.6874 11.9097 12.9317 11.1495 12.9317C10.9809 12.9317 10.8111 12.9197 10.6413 12.895C9.70224 12.7608 8.87242 12.2661 8.30422 11.5042C8.10562 11.2376 8.15962 10.8608 8.42483 10.6616C8.69064 10.4618 9.06622 10.5172 9.26483 10.7838C9.64104 11.2875 10.1901 11.6143 10.8111 11.704C11.4309 11.7907 12.0447 11.6342 12.5445 11.258C12.6333 11.1912 12.7167 11.1214 12.7935 11.042L14.1496 9.68247C14.5774 9.23833 14.8108 8.64431 14.8 8.01781C14.7892 7.39131 14.5348 6.80634 14.0848 6.37062C13.1721 5.48534 11.7417 5.48413 10.8279 6.37002C10.5897 6.60112 10.2105 6.5957 9.97945 6.35618C9.74904 6.11725 9.75564 5.7363 9.99385 5.5052ZM5.91519 13.6295C6.82842 14.5154 8.25886 14.5166 9.17207 13.6301C9.41027 13.399 9.79009 13.4044 10.0205 13.644C10.2509 13.8835 10.2449 14.2645 10.0067 14.495C9.31607 15.1654 8.42986 15.5 7.54364 15.5C6.65741 15.5 5.77178 15.1654 5.08176 14.495C4.40014 13.836 4.01613 12.9489 4.00053 11.998C3.98433 11.0489 4.33834 10.1528 4.99596 9.47333L6.3514 8.10716C6.47201 7.99041 6.59261 7.8881 6.71981 7.78519C8.29786 6.602 10.5227 6.92338 11.6957 8.48932C11.8943 8.75473 11.8409 9.13209 11.5757 9.3319C11.3099 9.5311 10.9349 9.47875 10.7357 9.21214C9.95989 8.17637 8.48807 7.96333 7.45423 8.73727C7.37263 8.8029 7.27963 8.88113 7.19383 8.96479L5.85159 10.3171C5.42317 10.7594 5.18977 11.3516 5.19997 11.9781C5.21017 12.607 5.46458 13.1932 5.91519 13.6295Z" fill="currentColor"/>
</svg>
