<svg width="12" height="13" viewBox="0 0 12 13" fill="none" xmlns="http://www.w3.org/2000/svg">
<path fill-rule="evenodd" clip-rule="evenodd" d="M6 0.0716858C5.17157 0.0716858 4.5 0.743259 4.5 1.57169V4.57169H1.5C0.671573 4.57169 0 5.24326 0 6.07169C0 6.90011 0.671573 7.57169 1.5 7.57169H4.5V10.5717C4.5 11.4001 5.17157 12.0717 6 12.0717C6.82843 12.0717 7.5 11.4001 7.5 10.5717V7.57169H10.5C11.3284 7.57169 12 6.90011 12 6.07169C12 5.24326 11.3284 4.57169 10.5 4.57169H7.5V1.57169C7.5 0.743259 6.82843 0.0716858 6 0.0716858Z" fill="white"/>
</svg>
