<svg width="24" height="24" viewBox="0 0 24 24" fill="none" xmlns="http://www.w3.org/2000/svg">
<path fill-rule="evenodd" clip-rule="evenodd" d="M4 12C4 10.9203 4.87968 10 6 10C7.12032 10 8 10.9203 8 12C8 13.0797 7.07968 14 6 14C4.92032 14 4 13.0797 4 12ZM14 12C14 13.1203 13.0797 14 12 14C10.9203 14 10 13.0797 10 12C10 10.9203 10.9203 10 12 10C13.0797 10 14 10.9203 14 12ZM18 10C16.8797 10 16 10.9203 16 12C16 13.0797 16.8797 14 18 14C19.1203 14 20 13.0797 20 12C20 10.9203 19.1203 10 18 10Z" fill="#4A5568"/>
</svg>
