<svg width="18" height="18" viewBox="0 0 18 18" fill="none" xmlns="http://www.w3.org/2000/svg">
<path d="M16.5 9C16.5 13.1421 13.1422 16.5 9.00002 16.5M16.5 9C16.5 4.85786 13.1422 1.5 9.00002 1.5M16.5 9H1.5M9.00002 16.5C4.85787 16.5 1.5 13.1421 1.5 9M9.00002 16.5C10.3807 16.5 11.5 13.1421 11.5 9C11.5 4.85786 10.3807 1.5 9.00002 1.5M9.00002 16.5C7.61931 16.5 6.50002 13.1421 6.50002 9C6.50002 4.85786 7.61931 1.5 9.00002 1.5M1.5 9C1.5 4.85786 4.85787 1.5 9.00002 1.5" stroke="#718096" stroke-width="2" stroke-linecap="round" stroke-linejoin="round"/>
</svg>
