<svg width="20" height="20" viewBox="0 0 20 20" fill="none" xmlns="http://www.w3.org/2000/svg">
<path fill-rule="evenodd" clip-rule="evenodd" d="M18.0001 10C18.0001 14.4183 14.4184 18 10.0001 18C5.58184 18 2.00012 14.4183 2.00012 10C2.00012 5.58172 5.58184 2 10.0001 2C14.4184 2 18.0001 5.58172 18.0001 10ZM7.00012 8C7.00012 7.44772 7.44784 7 8.00012 7C8.55241 7 9.00012 7.44772 9.00012 8V12C9.00012 12.5523 8.55241 13 8.00012 13C7.44784 13 7.00012 12.5523 7.00012 12V8ZM12.0001 7C11.4478 7 11.0001 7.44772 11.0001 8V12C11.0001 12.5523 11.4478 13 12.0001 13C12.5524 13 13.0001 12.5523 13.0001 12V8C13.0001 7.44772 12.5524 7 12.0001 7Z" fill="currentColor"/>
</svg>
