<svg width="20" height="20" viewBox="0 0 20 20" fill="none" xmlns="http://www.w3.org/2000/svg">
<path fill-rule="evenodd" clip-rule="evenodd" d="M9.06325 0.0988987C9.68363 -0.0329662 10.3248 -0.0329662 10.9452 0.0988987C11.6487 0.248433 12.2943 0.621512 13.2284 1.16128C13.2694 1.18502 13.3111 1.20907 13.3533 1.23344L15.9217 2.71635C15.964 2.74072 16.0056 2.76474 16.0467 2.78844C16.9812 3.32749 17.6271 3.70007 18.1083 4.23456C18.5327 4.70588 18.8533 5.26115 19.0493 5.86434C19.2716 6.54836 19.2713 7.29402 19.2708 8.37283C19.2708 8.42027 19.2708 8.46835 19.2708 8.5171V11.4829C19.2708 11.5316 19.2708 11.5797 19.2708 11.6272C19.2713 12.706 19.2716 13.4516 19.0493 14.1357C18.8533 14.7388 18.5327 15.2941 18.1083 15.7654C17.6271 16.2999 16.9812 16.6725 16.0467 17.2116C16.0056 17.2353 15.964 17.2593 15.9217 17.2837L13.3533 18.7666C13.3111 18.7909 13.2694 18.815 13.2283 18.8387C12.2943 19.3785 11.6487 19.7516 10.9452 19.9011C10.3248 20.033 9.68363 20.033 9.06325 19.9011C8.35975 19.7516 7.71414 19.3785 6.78008 18.8387C6.73901 18.815 6.69737 18.7909 6.65515 18.7666L4.08669 17.2837C4.04447 17.2593 4.00282 17.2353 3.96174 17.2116C3.02724 16.6725 2.38134 16.2999 1.90009 15.7654C1.4757 15.2941 1.15512 14.7388 0.959128 14.1357C0.736876 13.4516 0.737166 12.706 0.737584 11.6272C0.737603 11.5797 0.737622 11.5316 0.737622 11.4829V8.5171C0.737622 8.46835 0.737603 8.42027 0.737584 8.37284C0.737166 7.29402 0.736876 6.54836 0.959128 5.86434C1.15512 5.26115 1.4757 4.70588 1.90009 4.23456C2.38134 3.70007 3.02724 3.32749 3.96174 2.78844C4.00282 2.76474 4.04447 2.74072 4.08669 2.71635L6.65515 1.23344C6.69736 1.20907 6.73899 1.18502 6.78006 1.16128C7.71414 0.621513 8.35975 0.248433 9.06325 0.0988987ZM10.5688 1.86964C10.1966 1.79052 9.81186 1.79052 9.43964 1.86964C9.05224 1.95199 8.66838 2.16146 7.5603 2.80121L4.99184 4.28412C3.88376 4.92387 3.51042 5.15156 3.24541 5.44589C2.99077 5.72868 2.79842 6.06184 2.68083 6.42376C2.55844 6.80043 2.54793 7.2376 2.54793 8.5171V11.4829C2.54793 12.7624 2.55844 13.1996 2.68083 13.5762C2.79842 13.9382 2.99077 14.2713 3.24541 14.5541C3.51042 14.8484 3.88376 15.0761 4.99184 15.7159L7.5603 17.1988C8.66838 17.8385 9.05224 18.048 9.43964 18.1304C9.81186 18.2095 10.1966 18.2095 10.5688 18.1304C10.9562 18.048 11.34 17.8385 12.4481 17.1988L15.0166 15.7159C16.1247 15.0761 16.498 14.8484 16.763 14.5541C17.0177 14.2713 17.21 13.9382 17.3276 13.5762C17.45 13.1996 17.4605 12.7624 17.4605 11.4829V8.5171C17.4605 7.2376 17.45 6.80043 17.3276 6.42376C17.21 6.06184 17.0177 5.72868 16.763 5.44589C16.498 5.15156 16.1247 4.92387 15.0166 4.28412L12.4481 2.80121C11.34 2.16146 10.9562 1.95199 10.5688 1.86964Z" fill="#473CFB"/>
<path fill-rule="evenodd" clip-rule="evenodd" d="M10 5.625C10.3452 5.625 10.625 5.90482 10.625 6.25V9.375H13.75C14.0952 9.375 14.375 9.65482 14.375 10C14.375 10.3452 14.0952 10.625 13.75 10.625H10.625V13.75C10.625 14.0952 10.3452 14.375 10 14.375C9.65482 14.375 9.375 14.0952 9.375 13.75V10.625H6.25C5.90482 10.625 5.625 10.3452 5.625 10C5.625 9.65482 5.90482 9.375 6.25 9.375L9.375 9.375V6.25C9.375 5.90482 9.65482 5.625 10 5.625Z" fill="#473CFB"/>
</svg>
