<svg width="24" height="20" viewBox="0 0 24 20" fill="none" xmlns="http://www.w3.org/2000/svg">
<path fill-rule="evenodd" clip-rule="evenodd" d="M5.4073 0.00232507L18.2313 0C20.2372 0 20.9646 0.198912 21.6979 0.572427C22.4312 0.945942 23.0068 1.49406 23.399 2.19247L23.5374 2.4565C23.8401 3.0831 24 3.82244 24 5.49404V14.506C24 16.4164 23.7911 17.1091 23.399 17.8075C23.0068 18.5059 22.4312 19.0541 21.6979 19.4276L21.4207 19.5594C20.7627 19.8477 19.9864 20 18.2313 20H5.76874C3.76282 20 3.03543 19.8011 2.3021 19.4276C1.56876 19.0541 0.99324 18.5059 0.601049 17.8075L0.462621 17.5435C0.181529 16.9617 0.0235724 16.2826 0.00244132 14.8502L0 5.49404C0 3.58364 0.208858 2.89089 0.601049 2.19247C0.99324 1.49406 1.56876 0.945942 2.3021 0.572427L2.57933 0.440591C3.19026 0.172885 3.90327 0.0224499 5.4073 0.00232507ZM18.2313 2.85712H10.5V17.1428H18.2313C19.6072 17.1428 19.9437 17.0809 20.2831 16.9081C20.4936 16.8008 20.6409 16.6606 20.7535 16.4601C20.9091 16.183 20.9791 15.908 20.9959 15.0098L21 14.5059V5.49401C21 4.18359 20.935 3.86309 20.7535 3.53987C20.6409 3.33937 20.4936 3.1991 20.2831 3.09187C19.9922 2.9437 19.7034 2.87706 18.7603 2.86105L18.2313 2.85712Z" fill="#4D5562"/>
</svg>
