<svg width="24" height="24" viewBox="0 0 24 24" fill="none" xmlns="http://www.w3.org/2000/svg">
<path fill-rule="evenodd" clip-rule="evenodd" d="M21.5999 12C21.5999 17.3019 17.3018 21.6 11.9999 21.6C6.69797 21.6 2.3999 17.3019 2.3999 12C2.3999 6.69806 6.69797 2.39999 11.9999 2.39999C17.3018 2.39999 21.5999 6.69806 21.5999 12ZM11.9999 8.39999C11.5573 8.39999 11.169 8.63905 10.9597 9.00086C10.6279 9.57454 9.8938 9.77057 9.32013 9.43872C8.74645 9.10687 8.55042 8.3728 8.88227 7.79912C9.50291 6.72621 10.6659 5.99999 11.9999 5.99999C13.9881 5.99999 15.5999 7.61177 15.5999 9.59999C15.5999 11.1675 14.5982 12.5009 13.1999 12.9951V13.2C13.1999 13.8627 12.6627 14.4 11.9999 14.4C11.3372 14.4 10.7999 13.8627 10.7999 13.2V12C10.7999 11.3373 11.3372 10.8 11.9999 10.8C12.6627 10.8 13.1999 10.2627 13.1999 9.59999C13.1999 8.93725 12.6627 8.39999 11.9999 8.39999ZM11.9999 18C12.6626 18 13.1999 17.4627 13.1999 16.8C13.1999 16.1373 12.6626 15.6 11.9999 15.6C11.3372 15.6 10.7999 16.1373 10.7999 16.8C10.7999 17.4627 11.3372 18 11.9999 18Z" fill="#718096"/>
</svg>
