<svg width="24" height="24" viewBox="0 0 24 24" fill="none" xmlns="http://www.w3.org/2000/svg">
<path d="M17.2442 7.30613H9.84317C6.61584 7.30613 4 9.92342 4 13.1526C4 16.3817 6.61584 19 9.84317 19H13.5657C14.1524 19 14.6276 18.5236 14.6276 17.9365C14.6276 17.3495 14.1524 16.8741 13.5657 16.8741H9.84317C7.78919 16.8741 6.1247 15.2077 6.1247 13.1525C6.1247 11.0974 7.78919 9.43198 9.84317 9.43198H17.2442L14.8455 11.8319C14.4093 12.2675 14.4093 12.9751 14.8455 13.4107C15.2808 13.8462 15.9871 13.8462 16.4234 13.4107L20.6728 9.15788C21.1091 8.72234 21.1091 8.01569 20.6728 7.57916L16.4234 3.3274C15.9871 2.89087 15.2808 2.89087 14.8455 3.3274C14.4093 3.76293 14.4093 4.46959 14.8455 4.90612L17.2442 7.30613Z" fill="#4A5568"/>
</svg>
