<svg width="24" height="24" viewBox="0 0 24 24" fill="none" xmlns="http://www.w3.org/2000/svg">
<g id="Icons / Filled / Reply">
<path id="Icon" fill-rule="evenodd" clip-rule="evenodd" d="M9.24843 3.95157C9.71706 4.4202 9.71706 5.18 9.24843 5.64863L6.49696 8.4001H13.1999C17.8391 8.4001 21.5999 12.1609 21.5999 16.8001V19.2001C21.5999 19.8628 21.0626 20.4001 20.3999 20.4001C19.7372 20.4001 19.1999 19.8628 19.1999 19.2001V16.8001C19.1999 13.4864 16.5136 10.8001 13.1999 10.8001H6.49696L9.24843 13.5516C9.71706 14.0202 9.71706 14.78 9.24843 15.2486C8.7798 15.7173 8.02 15.7173 7.55137 15.2486L2.75137 10.4486C2.28275 9.98 2.28275 9.2202 2.75137 8.75157L7.55137 3.95157C8.02 3.48294 8.7798 3.48294 9.24843 3.95157Z" fill="#4A5568"/>
</g>
</svg>
