<svg width="18" height="18" viewBox="0 0 18 18" fill="none" xmlns="http://www.w3.org/2000/svg">
  <path d="M1 3C1 1.89543 1.5 1 3.5 1H14.5C16.5 1 17 1.89543 17 3V5C17 6.10457 16.5 7 14.5 7H3.5C1.5 7 1 6.10457 1 5V3Z"
    stroke="currentColor" stroke-width="2" stroke-linecap="round" stroke-linejoin="round" />
  <path
    d="M1 13C1 11.8954 1.5 11 3.5 11H14.5C16.5 11 17 11.8954 17 13V15C17 16.1046 16.5 17 14.5 17H3.5C1.5 17 1 16.1046 1 15V13Z"
    stroke="currentColor" stroke-width="2" stroke-linecap="round" stroke-linejoin="round" />
</svg>