<svg width="17" height="16" viewBox="0 0 17 16" fill="none" xmlns="http://www.w3.org/2000/svg">
<path d="M13.0795 1.73185C13.2901 1.90041 13.4764 2.15595 13.4764 2.49999C13.4764 3.02292 13.1436 3.36369 12.7646 3.56241C12.4012 3.75293 11.9255 3.85742 11.4245 3.92075C10.4572 4.04301 9.19467 4.03259 7.96787 4.02247L7.80573 4.02114C6.50201 4.01065 5.25312 4.00705 4.33078 4.14343C3.86597 4.21215 3.53756 4.30971 3.33777 4.42549C3.15885 4.52918 3.14324 4.60547 3.14307 4.66601L3.14371 4.66728C3.14689 4.67333 3.15897 4.69288 3.19347 4.72292C3.26758 4.78747 3.40332 4.86457 3.61763 4.94061C4.04331 5.09165 4.64027 5.1913 5.27483 5.2527C5.34204 5.25921 5.40929 5.26525 5.4764 5.27085V6.27414C5.37756 6.26635 5.27808 6.25769 5.17851 6.24805C4.52127 6.18445 3.82643 6.07577 3.28325 5.88305C3.01314 5.78721 2.74519 5.65859 2.53672 5.47703C2.31963 5.28797 2.14307 5.01719 2.14307 4.66703C2.14307 4.14441 2.45121 3.78347 2.83638 3.56027C3.2017 3.34857 3.68058 3.22869 4.18452 3.15418C5.19968 3.00409 6.53413 3.01088 7.81373 3.02117L7.93507 3.02216C9.1974 3.03244 10.4004 3.04224 11.2991 2.92864C11.7669 2.86952 12.0985 2.78254 12.3002 2.67677C12.4297 2.60889 12.4643 2.55903 12.4733 2.52862C12.4687 2.52428 12.4626 2.51897 12.4547 2.5127C12.3897 2.46067 12.2638 2.39432 12.0565 2.32835C11.6465 2.19783 11.0625 2.11269 10.416 2.06139C9.35327 1.97707 8.22467 1.99047 7.61793 1.99767C7.49027 1.99918 7.38573 2.00043 7.30973 2.00043C7.0336 2.00042 6.80973 1.77656 6.80973 1.50042C6.80973 1.22427 7.0336 1.00042 7.30973 1.00043C7.37547 1.00043 7.4702 0.999268 7.5886 0.997821C8.18407 0.990534 9.37853 0.975928 10.4951 1.06453C11.1611 1.11737 11.8376 1.20925 12.3598 1.37545C12.6187 1.45786 12.8769 1.5698 13.0795 1.73185ZM9.47307 6.21966C9.42853 5.31311 8.87507 4.66703 7.976 4.66703C7.0378 4.66703 6.47599 5.37051 6.47599 6.33935V9.11787L6.30319 9.06487C5.50908 8.833 4.88695 8.8198 4.41905 9.05373C3.78343 9.37153 3.45669 9.9418 3.47308 10.6809C3.4772 10.8665 3.58394 11.0347 3.75026 11.1174L5.32553 11.9011L5.39047 11.9359L5.45306 11.9749L6.70888 12.8121L6.8378 12.9046C7.13053 13.1303 7.36553 13.4234 7.52207 13.7599L7.54147 13.8016L7.59433 13.9048C7.89573 14.4407 8.49813 14.7422 9.11453 14.6537L10.7267 14.4224L10.8369 14.4024C11.3809 14.2825 11.8175 13.8689 11.9628 13.3248L12.6616 10.7094L12.69 10.5897C12.9225 9.47247 12.2438 8.35507 11.1276 8.05687C11.0707 8.04167 11.0133 8.0288 10.9555 8.01833L9.476 7.74967V6.33935L9.47307 6.21966Z" fill="#2B6CB0"/>
</svg>
