<svg width="17" height="16" viewBox="0 0 17 16" fill="none" xmlns="http://www.w3.org/2000/svg">
<path d="M9.131 11.8225L8.6142 11.3058L10.2691 9.65098C11.1803 8.73971 11.1803 7.26237 10.2691 6.35113L8.6142 4.69631L9.131 4.17956C9.78187 3.52869 10.8371 3.52869 11.488 4.17956L14.131 6.82251C14.7819 7.47344 14.7819 8.52871 14.131 9.17957L11.488 11.8225C10.8371 12.4734 9.78187 12.4734 9.131 11.8225ZM9.79767 9.17957C10.4485 8.52871 10.4485 7.47344 9.79767 6.82251L7.15467 4.17956C6.50379 3.52869 5.44851 3.52869 4.79763 4.17956L2.15466 6.82251C1.50379 7.47344 1.50379 8.52871 2.15466 9.17957L4.79763 11.8225C5.44851 12.4734 6.50379 12.4734 7.15467 11.8225L9.79767 9.17957Z" fill="currentColor"/>
</svg>
