<svg width="24" height="24" viewBox="0 0 24 24" fill="none"><path d="M18.0707 8.16379C17.6744 8.33433 17.2578 8.45309 16.8312 8.51712C17.0306 8.48293 17.3241 8.1239 17.441 7.97857C17.6184 7.75937 17.7537 7.50913 17.8399 7.24056C17.8399 7.22061 17.8598 7.19212 17.8399 7.17787C17.8298 7.17239 17.8186 7.16951 17.8071 7.16951C17.7957 7.16951 17.7844 7.17239 17.7743 7.17787C17.3111 7.42875 16.818 7.62022 16.3069 7.74777C16.2891 7.75321 16.2701 7.7537 16.252 7.74918C16.2339 7.74466 16.2174 7.73531 16.2043 7.72212C16.1645 7.67474 16.1217 7.63001 16.0761 7.5882C15.8676 7.4014 15.631 7.24851 15.3751 7.13513C15.0296 6.99339 14.6564 6.93201 14.2837 6.95561C13.9221 6.97845 13.5691 7.07544 13.2465 7.24056C12.9289 7.41464 12.6498 7.65114 12.4259 7.93583C12.1904 8.22886 12.0203 8.56892 11.9272 8.93315C11.8504 9.2796 11.8417 9.63767 11.9016 9.98745C11.9016 10.0473 11.9016 10.0558 11.8503 10.0473C9.81862 9.7481 8.15168 9.02718 6.78963 7.47992C6.72979 7.41153 6.69845 7.41153 6.65001 7.47992C6.05732 8.38035 6.34512 9.80509 7.08598 10.5089C7.18571 10.6029 7.28829 10.6941 7.39657 10.7796C7.05689 10.7555 6.7255 10.6634 6.42205 10.5089C6.36506 10.4719 6.33372 10.4918 6.33087 10.5602C6.32279 10.655 6.32279 10.7503 6.33087 10.8451C6.39032 11.2995 6.56939 11.73 6.84976 12.0924C7.13012 12.4549 7.50173 12.7364 7.92657 12.9082C8.03014 12.9525 8.13805 12.9859 8.24856 13.0079C7.9341 13.0698 7.61158 13.0794 7.29399 13.0364C7.2256 13.0221 7.19996 13.0592 7.2256 13.1247C7.64447 14.2645 8.55346 14.6121 9.22023 14.8059C9.31141 14.8202 9.4026 14.8202 9.50518 14.843C9.50518 14.843 9.50518 14.843 9.48808 14.86C9.29147 15.2191 8.49647 15.4613 8.13173 15.5867C7.466 15.8258 6.75621 15.9172 6.05162 15.8545C5.94049 15.8374 5.91485 15.8403 5.88635 15.8545C5.85786 15.8688 5.88635 15.9001 5.9177 15.9286C6.06017 16.0226 6.20264 16.1053 6.35081 16.1851C6.79193 16.4256 7.25827 16.6168 7.74136 16.7549C10.2432 17.4445 13.0585 16.9373 14.9363 15.0709C16.4123 13.6063 16.9309 11.586 16.9309 9.56288C16.9309 9.48594 17.0249 9.44035 17.0791 9.40046C17.4525 9.1095 17.7817 8.76588 18.0564 8.38035C18.104 8.32288 18.1284 8.24971 18.1248 8.17519C18.1248 8.13245 18.1248 8.14099 18.0707 8.16379Z" fill="currentColor"></path></svg>