<svg width="24" height="24" viewBox="0 0 24 24" fill="none"><path d="M17.1446 7.22534C16.209 6.79288 15.2057 6.47427 14.1567 6.29178C14.1376 6.28826 14.1185 6.29706 14.1087 6.31466C13.9797 6.54585 13.8368 6.84745 13.7367 7.08451C12.6084 6.91435 11.486 6.91435 10.3808 7.08451C10.2807 6.84218 10.1326 6.54585 10.003 6.31466C9.99318 6.29765 9.97409 6.28885 9.95499 6.29178C8.90659 6.47368 7.90331 6.7923 6.96715 7.22534C6.95905 7.22886 6.9521 7.23474 6.94749 7.24236C5.0445 10.1064 4.52319 12.9001 4.77892 15.6591C4.78008 15.6726 4.7876 15.6855 4.79802 15.6937C6.05356 16.6226 7.26976 17.1865 8.46339 17.5603C8.48249 17.5661 8.50273 17.5591 8.51489 17.5432C8.79724 17.1548 9.04893 16.7452 9.26473 16.3145C9.27747 16.2893 9.26531 16.2594 9.23928 16.2494C8.84006 16.0968 8.45991 15.9108 8.09424 15.6996C8.06532 15.6826 8.063 15.6409 8.08961 15.621C8.16656 15.5629 8.24353 15.5024 8.31701 15.4414C8.3303 15.4303 8.34883 15.4279 8.36446 15.4349C10.7668 16.5399 13.3675 16.5399 15.7415 15.4349C15.7571 15.4273 15.7756 15.4297 15.7895 15.4408C15.863 15.5018 15.9399 15.5629 16.0175 15.621C16.0441 15.6409 16.0424 15.6826 16.0134 15.6996C15.6478 15.9149 15.2676 16.0968 14.8678 16.2488C14.8418 16.2588 14.8302 16.2893 14.8429 16.3145C15.0634 16.7446 15.3151 17.1542 15.5922 17.5427C15.6038 17.5591 15.6246 17.5661 15.6437 17.5603C16.8431 17.1865 18.0593 16.6226 19.3149 15.6937C19.3259 15.6855 19.3328 15.6732 19.334 15.6597C19.64 12.47 18.8213 9.6992 17.1637 7.24294C17.1596 7.23474 17.1527 7.22886 17.1446 7.22534ZM9.62347 13.9792C8.90022 13.9792 8.30428 13.3102 8.30428 12.4887C8.30428 11.6672 8.88866 10.9983 9.62347 10.9983C10.3641 10.9983 10.9542 11.6731 10.9427 12.4887C10.9427 13.3102 10.3583 13.9792 9.62347 13.9792ZM14.501 13.9792C13.7777 13.9792 13.1818 13.3102 13.1818 12.4887C13.1818 11.6672 13.7662 10.9983 14.501 10.9983C15.2416 10.9983 15.8317 11.6731 15.8202 12.4887C15.8202 13.3102 15.2416 13.9792 14.501 13.9792Z" fill="currentColor"></path></svg>