<svg width="24" height="24" viewBox="0 0 24 24" fill="none"><path d="M5.50448 6.44389C5.50448 5.92539 5.93856 5.50452 6.47367 5.50452H17.6491C18.1844 5.50452 18.6182 5.92539 18.6182 6.44389V17.6791C18.6182 18.1977 18.1844 18.6183 17.6491 18.6183H6.47367C5.93862 18.6183 5.50448 18.1978 5.50448 17.6792V6.44374V6.44389Z" fill="currentColor"></path><path d="M9.48951 16.4791V10.5752H7.52716V16.4791H9.48972H9.48951ZM8.50874 9.76931C9.19291 9.76931 9.61886 9.31596 9.61886 8.74941C9.60605 8.16994 9.19291 7.72925 8.52176 7.72925C7.85014 7.72925 7.41149 8.16994 7.41149 8.74936C7.41149 9.31591 7.83728 9.76926 8.49589 9.76926H8.50859L8.50874 9.76931ZM10.5757 16.4791H12.5379V13.1825C12.5379 13.0063 12.5507 12.8296 12.6025 12.7037C12.7443 12.351 13.0672 11.9859 13.6094 11.9859C14.3193 11.9859 14.6035 12.5273 14.6035 13.321V16.4791H16.5656V13.094C16.5656 11.2807 15.5977 10.4368 14.3066 10.4368C13.2481 10.4368 12.7833 11.0284 12.525 11.4314H12.5381V10.5754H10.5758C10.6014 11.1293 10.5756 16.4793 10.5756 16.4793L10.5757 16.4791Z" fill="white"></path></svg>