<svg width="16" height="15" viewBox="0 0 16 15" fill="none" xmlns="http://www.w3.org/2000/svg">
<path d="M7.52448 1.08116C7.67416 0.620534 8.32583 0.620532 8.47552 1.08116L9.54529 4.37316C9.74612 4.99115 10.322 5.40956 10.9718 5.40958L14.4333 5.40971C14.9176 5.40973 15.119 6.0295 14.7271 6.31421L11.9268 8.34891C11.4012 8.73087 11.1812 9.40787 11.382 10.0259L12.4515 13.318C12.6011 13.7786 12.0739 14.1616 11.6821 13.877L8.88163 11.8425C8.35592 11.4606 7.64408 11.4606 7.11837 11.8425L4.31792 13.877C3.92606 14.1616 3.39885 13.7786 3.5485 13.318L4.61803 10.0259C4.8188 9.40787 4.59883 8.73087 4.07315 8.34891L1.27285 6.31421C0.881022 6.02951 1.0824 5.40973 1.56674 5.40971L5.02819 5.40958C5.67799 5.40956 6.25388 4.99115 6.45471 4.37316L7.52448 1.08116Z" stroke="currentColor" />
</svg>
