<svg width="20" height="20" viewBox="0 0 20 20" fill="none" xmlns="http://www.w3.org/2000/svg">
  <path fill-rule="evenodd" clip-rule="evenodd"
    d="M15.1927 1.25L4.50608 1.25203C3.25272 1.26964 2.65855 1.40127 2.14944 1.63552L1.91841 1.75087C1.3073 2.0777 0.8277 2.5573 0.500874 3.16841C0.174048 3.77953 0 4.38569 0 6.05728L0.00203443 14.2439C0.0196437 15.4973 0.151274 16.0914 0.385517 16.6006L0.500874 16.8316C0.8277 17.4427 1.3073 17.9223 1.91841 18.2491C2.52953 18.576 3.13569 18.75 4.80728 18.75H15.1927C16.6554 18.75 17.3023 18.6167 17.8506 18.3645L18.0816 18.2491C18.6927 17.9223 19.1723 17.4427 19.4991 16.8316C19.826 16.2205 20 15.6143 20 13.9427V6.05728C20 4.59464 19.8667 3.94771 19.6145 3.39944L19.4991 3.16841C19.1723 2.5573 18.6927 2.0777 18.0816 1.75087C17.4705 1.42405 16.8643 1.25 15.1927 1.25ZM4.80728 3.75H15.1927L15.6336 3.75344C16.4195 3.76745 16.6602 3.82576 16.9026 3.95541C17.078 4.04923 17.2008 4.17197 17.2946 4.34741C17.4458 4.63023 17.5 4.91067 17.5 6.05728V13.9427L17.4966 14.3836C17.4825 15.1695 17.4242 15.4102 17.2946 15.6526C17.2008 15.828 17.078 15.9508 16.9026 16.0446C16.6198 16.1958 16.3393 16.25 15.1927 16.25H4.80728L4.36638 16.2466C3.58049 16.2325 3.33983 16.1742 3.09741 16.0446C2.92197 15.9508 2.79923 15.828 2.70541 15.6526C2.58657 15.4304 2.52767 15.2096 2.50788 14.5691L2.50084 14.1755L2.5 6.05728C2.5 4.91067 2.55415 4.63023 2.70541 4.34741C2.79923 4.17197 2.92197 4.04923 3.09741 3.95541C3.33983 3.82576 3.58049 3.76745 4.36638 3.75344L4.80728 3.75Z"
    fill="currentColor" />
  <path
    d="M5 12.5001C5 12.5001 6.25 10.0001 8.53561 10.0001C9.30484 10.0001 15 10.0001 15 10.0001M15 10.0001L12.4359 7.61913M15 10.0001L12.4359 12.381"
    stroke="currentColor" stroke-linecap="round" stroke-linejoin="round" />
  <path opacity="0.5" d="M5.00001 6.875C5.00001 6.875 6.46439 10 8.75 10C9.51923 10 11.25 10 11.25 10" stroke="currentColor"
    stroke-linecap="round" stroke-linejoin="round" />
</svg>