<svg width="24" height="24" viewBox="0 0 24 24" fill="none" xmlns="http://www.w3.org/2000/svg">
<path fill-rule="evenodd" clip-rule="evenodd" d="M5.4073 1.50244L18.2313 1.5C20.2372 1.5 20.9646 1.70886 21.6979 2.10105C22.4312 2.49324 23.0068 3.06876 23.399 3.8021L23.5374 4.07933C23.8401 4.73726 24 5.51356 24 7.26874V16.7313C24 18.7372 23.7911 19.4646 23.399 20.1979C23.0068 20.9312 22.4312 21.5068 21.6979 21.899L21.4207 22.0374C20.7627 22.3401 19.9864 22.5 18.2313 22.5H5.76874C3.76282 22.5 3.03543 22.2911 2.3021 21.899C1.56876 21.5068 0.99324 20.9312 0.601049 20.1979L0.462621 19.9207C0.181529 19.3097 0.0235724 18.5967 0.00244132 17.0927L0 7.26874C0 5.26282 0.208858 4.53543 0.601049 3.8021C0.99324 3.06876 1.56876 2.49324 2.3021 2.10105L2.57933 1.96262C3.19026 1.68153 3.90327 1.52357 5.4073 1.50244ZM18.2313 4.5H5.76874L5.23965 4.50413C4.29659 4.52095 4.00779 4.59091 3.71689 4.74649C3.50637 4.85908 3.35908 5.00637 3.24649 5.21689C3.06499 5.55627 3 5.8928 3 7.26874L3.0001 8.25H21L21 7.26874C21 5.8928 20.935 5.55627 20.7535 5.21689C20.6409 5.00637 20.4936 4.85908 20.2831 4.74649C19.9922 4.59091 19.7034 4.52095 18.7603 4.50413L18.2313 4.5ZM21 9.75H9V14.25H21V9.75ZM21 15.75H9V19.5H18.2313C19.6072 19.5 19.9437 19.435 20.2831 19.2535C20.4936 19.1409 20.6409 18.9936 20.7535 18.7831C20.9091 18.4922 20.9791 18.2034 20.9959 17.2603L21 16.7313L21 15.75ZM7.5 14.25V9.75H3.00026L3.00073 14.25H7.5ZM3.00088 15.75H7.5V19.5H5.76874L5.23965 19.4959C4.29659 19.4791 4.00779 19.4091 3.71689 19.2535C3.50637 19.1409 3.35908 18.9936 3.24649 18.7831C3.10388 18.5165 3.0332 18.2516 3.00946 17.4829L3.00101 17.0106L3.00088 15.75Z" fill="#718096"/>
</svg>
