<svg width="16" height="16" viewBox="0 0 16 16" fill="none" xmlns="http://www.w3.org/2000/svg">
<path fill-rule="evenodd" clip-rule="evenodd" d="M7.2 1.59998C6.89698 1.59998 6.61997 1.77118 6.48445 2.0422L5.90557 3.19998H3.19999C2.75817 3.19998 2.39999 3.55815 2.39999 3.99998C2.39999 4.4418 2.75817 4.79998 3.19999 4.79998L3.19999 12.8C3.19999 13.6836 3.91634 14.4 4.79999 14.4H11.2C12.0837 14.4 12.8 13.6836 12.8 12.8V4.79998C13.2418 4.79998 13.6 4.4418 13.6 3.99998C13.6 3.55815 13.2418 3.19998 12.8 3.19998H10.0944L9.51554 2.0422C9.38002 1.77118 9.10301 1.59998 8.8 1.59998H7.2ZM5.59999 6.39998C5.59999 5.95815 5.95817 5.59998 6.39999 5.59998C6.84182 5.59998 7.19999 5.95815 7.19999 6.39998V11.2C7.19999 11.6418 6.84182 12 6.39999 12C5.95817 12 5.59999 11.6418 5.59999 11.2V6.39998ZM9.59999 5.59998C9.15817 5.59998 8.79999 5.95815 8.79999 6.39998V11.2C8.79999 11.6418 9.15817 12 9.59999 12C10.0418 12 10.4 11.6418 10.4 11.2V6.39998C10.4 5.95815 10.0418 5.59998 9.59999 5.59998Z" fill="currentColor"/>
</svg>
