<svg width="24" height="24" viewBox="0 0 24 24" fill="none" xmlns="http://www.w3.org/2000/svg">
<path d="M7.75583 7.30613H15.1568C18.3842 7.30613 21 9.92342 21 13.1526C21 16.3817 18.3842 19 15.1568 19H11.4343C10.8476 19 10.3724 18.5236 10.3724 17.9365C10.3724 17.3495 10.8476 16.8741 11.4343 16.8741H15.1568C17.2108 16.8741 18.8753 15.2077 18.8753 13.1525C18.8753 11.0974 17.2108 9.43198 15.1568 9.43198H7.75583L10.1545 11.8319C10.5907 12.2675 10.5907 12.9751 10.1545 13.4107C9.71916 13.8462 9.0129 13.8462 8.57661 13.4107L4.32722 9.15788C3.89093 8.72234 3.89093 8.01569 4.32722 7.57916L8.57661 3.3274C9.0129 2.89087 9.71916 2.89087 10.1545 3.3274C10.5907 3.76293 10.5907 4.46959 10.1545 4.90612L7.75583 7.30613Z" fill="#4A5568"/>
</svg>
