<svg width="23" height="30" viewBox="0 0 23 30" fill="none" xmlns="http://www.w3.org/2000/svg">
<path d="M1.87498 6.98093V17.0554C2.89098 15.7465 4.21871 14.6894 5.62494 13.799V6.98093C6.74057 6.33054 7.49993 5.13409 7.49993 3.74996C7.49993 1.68046 5.8218 0 3.74996 0C1.67812 0 0 1.68046 0 3.74996C0 5.13394 0.759352 6.33042 1.87498 6.98093ZM3.74996 1.87498C4.78354 1.87498 5.62494 2.71638 5.62494 3.74996C5.62494 4.78354 4.78354 5.62494 3.74996 5.62494C2.71638 5.62494 1.87498 4.78354 1.87498 3.74996C1.87498 2.71638 2.71638 1.87498 3.74996 1.87498Z" fill="#4D5562"/>
<path d="M18.7498 0C16.678 0 14.9999 1.68046 14.9999 3.74996C14.9999 5.13394 15.7569 6.33042 16.8748 6.98093V7.50007C16.8748 9.91646 14.4315 11.3121 10.412 13.3218C6.41004 15.3222 1.87498 17.5908 1.87498 22.4999V23.0191C0.759352 23.6695 0 24.8659 0 26.25C0 28.3195 1.67812 30 3.74996 30C5.8218 30 7.49993 28.3195 7.49993 26.25C7.49993 24.8661 6.74057 23.6696 5.62494 23.0191V22.4999C5.62494 20.0835 8.06593 18.6879 12.0878 16.6782C16.0897 14.6778 20.6248 12.4092 20.6248 7.50007V6.98093C21.7428 6.33054 22.4998 5.13409 22.4998 3.74996C22.4998 1.68046 20.8217 0 18.7498 0V0ZM3.74996 28.1247C2.71638 28.1247 1.87498 27.2833 1.87498 26.2497C1.87498 25.2162 2.71638 24.3748 3.74996 24.3748C4.78354 24.3748 5.62494 25.2162 5.62494 26.2497C5.62494 27.2833 4.78354 28.1247 3.74996 28.1247ZM18.7498 5.62494C17.7162 5.62494 16.8748 4.78354 16.8748 3.74996C16.8748 2.71638 17.7162 1.87498 18.7498 1.87498C19.7834 1.87498 20.6248 2.71638 20.6248 3.74996C20.6248 4.78354 19.7834 5.62494 18.7498 5.62494Z" fill="#4D5562"/>
</svg>
