<svg width="16" height="14" viewBox="0 0 16 14" fill="none" xmlns="http://www.w3.org/2000/svg">
<g id="Side-by-Side">
<path id="Side-by-Side_2" fill-rule="evenodd" clip-rule="evenodd" d="M3.60487 0.00162755L12.1542 0C13.4915 0 13.9764 0.139238 14.4653 0.400699C14.9542 0.66216 15.3378 1.04584 15.5993 1.53473L15.6916 1.71955C15.8934 2.15817 16 2.67571 16 3.84583V10.1542C16 11.4915 15.8608 11.9764 15.5993 12.4653C15.3378 12.9542 14.9542 13.3378 14.4653 13.5993L14.2804 13.6916C13.8418 13.8934 13.3243 14 12.1542 14H3.84583C2.50855 14 2.02362 13.8608 1.53473 13.5993C1.04584 13.3378 0.66216 12.9542 0.400699 12.4653L0.308414 12.2804C0.121019 11.8732 0.0157149 11.3978 0.00162755 10.3951L0 3.84583C0 2.50855 0.139238 2.02362 0.400699 1.53473C0.66216 1.04584 1.04584 0.66216 1.53473 0.400699L1.71955 0.308414C2.12684 0.121019 2.60218 0.0157149 3.60487 0.00162755ZM12.1542 2H7V12H12.1542C13.0715 12 13.2958 11.9567 13.5221 11.8357C13.6624 11.7606 13.7606 11.6624 13.8357 11.5221C13.9394 11.3281 13.986 11.1356 13.9972 10.5069L14 10.1542V3.84583C14 2.92853 13.9567 2.70418 13.8357 2.47793C13.7606 2.33758 13.6624 2.23939 13.5221 2.16433C13.3281 2.06061 13.1356 2.01396 12.5069 2.00275L12.1542 2Z" fill="currentColor"/>
</g>
</svg>
