<svg width="24" height="24" viewBox="0 0 24 24" fill="none" xmlns="http://www.w3.org/2000/svg">
<path d="M13.7319 17.7323L12.7067 16.7072L13.7674 15.6466L14.7925 16.6717C15.183 17.0622 15.8162 17.0622 16.2067 16.6717L20.1712 12.7072C20.5617 12.3167 20.5617 11.6835 20.1712 11.293L16.2067 7.32854C15.8162 6.93801 15.183 6.93801 14.7925 7.32854L13.7674 8.35366L12.7067 7.293L13.7319 6.26788C14.7082 5.29157 16.2911 5.29157 17.2674 6.26788L21.2319 10.2323C22.2082 11.2087 22.2082 12.7916 21.2319 13.7679L17.2674 17.7323C16.2911 18.7087 14.7082 18.7087 13.7319 17.7323ZM6.73185 6.26788L2.76739 10.2323C1.79108 11.2087 1.79108 12.7916 2.76739 13.7679L6.73185 17.7323C7.70817 18.7087 9.29108 18.7087 10.2674 17.7323L14.2319 13.7679C15.2082 12.7916 15.2082 11.2087 14.2319 10.2323L10.2674 6.26788C9.29108 5.29157 7.70816 5.29157 6.73185 6.26788ZM3.82805 11.293L7.79251 7.32854C8.18304 6.93801 8.8162 6.93801 9.20673 7.32854L13.1712 11.293C13.5617 11.6835 13.5617 12.3167 13.1712 12.7072L9.20673 16.6717C8.8162 17.0622 8.18304 17.0622 7.79251 16.6717L3.82805 12.7072C3.43752 12.3167 3.43753 11.6835 3.82805 11.293Z" fill="#473CFB"/>
</svg>
