<svg width="1376" height="200" viewBox="0 0 1376 200" fill="none" xmlns="http://www.w3.org/2000/svg">
<g clip-path="url(#clip0_15600_4740)">
<g opacity="0.703161">
<path fill-rule="evenodd" clip-rule="evenodd" d="M24 8H8V24H24V8ZM22 10H10V22H22V10Z" fill="#E5E7EB"/>
</g>
<g opacity="0.270578">
<path fill-rule="evenodd" clip-rule="evenodd" d="M48.0007 10.8282L42.8287 16.0002L48.0007 21.1723L53.1728 16.0002L48.0007 10.8282ZM40.0002 16.0002L48.0007 24.0007L56.0012 16.0002L48.0007 7.99977L40.0002 16.0002Z" fill="#F3F4F6"/>
</g>
<g opacity="0.283665">
<path fill-rule="evenodd" clip-rule="evenodd" d="M88 8H72V24H88V8ZM86 10H74V22H86V10Z" fill="#E5E7EB"/>
</g>
<g opacity="0.470629">
<path fill-rule="evenodd" clip-rule="evenodd" d="M120 8H104V24H120V8ZM118 10H106V22H118V10Z" fill="#E5E7EB"/>
</g>
<g opacity="0.501142">
<path fill-rule="evenodd" clip-rule="evenodd" d="M152 8H136V24H152V8ZM150 10H138V22H150V10Z" fill="#E5E7EB"/>
</g>
<g opacity="0.613452">
<path fill-rule="evenodd" clip-rule="evenodd" d="M176.001 10.8282L170.829 16.0002L176.001 21.1723L181.173 16.0002L176.001 10.8282ZM168 16.0002L176.001 24.0007L184.001 16.0002L176.001 7.99977L168 16.0002Z" fill="#F3F4F6"/>
</g>
<g opacity="0.206702">
<path fill-rule="evenodd" clip-rule="evenodd" d="M216 8H200V24H216V8ZM214 10H202V22H214V10Z" fill="#E5E7EB"/>
</g>
<g opacity="0.478587">
<path fill-rule="evenodd" clip-rule="evenodd" d="M240.001 10.8282L234.829 16.0002L240.001 21.1723L245.173 16.0002L240.001 10.8282ZM232 16.0002L240.001 24.0007L248.001 16.0002L240.001 7.99977L232 16.0002Z" fill="#F3F4F6"/>
</g>
<g opacity="0.342222">
<path fill-rule="evenodd" clip-rule="evenodd" d="M280 8H264V24H280V8ZM278 10H266V22H278V10Z" fill="#E5E7EB"/>
</g>
<g opacity="0.385356">
<path fill-rule="evenodd" clip-rule="evenodd" d="M312 8H296V24H312V8ZM310 10H298V22H310V10Z" fill="#E5E7EB"/>
</g>
<g opacity="0.521581">
<path fill-rule="evenodd" clip-rule="evenodd" d="M336 22C339.314 22 342 19.3137 342 16C342 12.6863 339.314 10 336 10C332.686 10 330 12.6863 330 16C330 19.3137 332.686 22 336 22ZM336 24C340.418 24 344 20.4183 344 16C344 11.5817 340.418 8 336 8C331.582 8 328 11.5817 328 16C328 20.4183 331.582 24 336 24Z" fill="#F3F4F6"/>
</g>
<g opacity="0.345053">
<path fill-rule="evenodd" clip-rule="evenodd" d="M376 8H360V24H376V8ZM374 10H362V22H374V10Z" fill="#E5E7EB"/>
</g>
<g opacity="0.501607">
<path fill-rule="evenodd" clip-rule="evenodd" d="M400.001 10.8282L394.829 16.0002L400.001 21.1723L405.173 16.0002L400.001 10.8282ZM392 16.0002L400.001 24.0007L408.001 16.0002L400.001 7.99977L392 16.0002Z" fill="#F3F4F6"/>
</g>
<g opacity="0.441576">
<path fill-rule="evenodd" clip-rule="evenodd" d="M440 8H424V24H440V8ZM438 10H426V22H438V10Z" fill="#E5E7EB"/>
</g>
<g opacity="0.536017">
<path fill-rule="evenodd" clip-rule="evenodd" d="M464.001 10.8282L458.829 16.0002L464.001 21.1723L469.173 16.0002L464.001 10.8282ZM456 16.0002L464.001 24.0007L472.001 16.0002L464.001 7.99977L456 16.0002Z" fill="#F3F4F6"/>
</g>
<g opacity="0.260721">
<path fill-rule="evenodd" clip-rule="evenodd" d="M496 22C499.314 22 502 19.3137 502 16C502 12.6863 499.314 10 496 10C492.686 10 490 12.6863 490 16C490 19.3137 492.686 22 496 22ZM496 24C500.418 24 504 20.4183 504 16C504 11.5817 500.418 8 496 8C491.582 8 488 11.5817 488 16C488 20.4183 491.582 24 496 24Z" fill="#F3F4F6"/>
</g>
<g opacity="0.753161">
<path fill-rule="evenodd" clip-rule="evenodd" d="M528.001 10.8282L522.829 16.0002L528.001 21.1723L533.173 16.0002L528.001 10.8282ZM520 16.0002L528.001 24.0007L536.001 16.0002L528.001 7.99977L520 16.0002Z" fill="#F3F4F6"/>
</g>
<g opacity="0.300477">
<path fill-rule="evenodd" clip-rule="evenodd" d="M560.001 10.8282L554.829 16.0002L560.001 21.1723L565.173 16.0002L560.001 10.8282ZM552 16.0002L560.001 24.0007L568.001 16.0002L560.001 7.99977L552 16.0002Z" fill="#F3F4F6"/>
</g>
<g opacity="0.412501">
<path fill-rule="evenodd" clip-rule="evenodd" d="M592 22C595.314 22 598 19.3137 598 16C598 12.6863 595.314 10 592 10C588.686 10 586 12.6863 586 16C586 19.3137 588.686 22 592 22ZM592 24C596.418 24 600 20.4183 600 16C600 11.5817 596.418 8 592 8C587.582 8 584 11.5817 584 16C584 20.4183 587.582 24 592 24Z" fill="#F3F4F6"/>
</g>
<g opacity="0.375715">
<path fill-rule="evenodd" clip-rule="evenodd" d="M624.001 10.8282L618.829 16.0002L624.001 21.1723L629.173 16.0002L624.001 10.8282ZM616 16.0002L624.001 24.0007L632.001 16.0002L624.001 7.99977L616 16.0002Z" fill="#F3F4F6"/>
</g>
<g opacity="0.192725">
<path fill-rule="evenodd" clip-rule="evenodd" d="M656 22C659.314 22 662 19.3137 662 16C662 12.6863 659.314 10 656 10C652.686 10 650 12.6863 650 16C650 19.3137 652.686 22 656 22ZM656 24C660.418 24 664 20.4183 664 16C664 11.5817 660.418 8 656 8C651.582 8 648 11.5817 648 16C648 20.4183 651.582 24 656 24Z" fill="#F3F4F6"/>
</g>
<g opacity="0.543136">
<path fill-rule="evenodd" clip-rule="evenodd" d="M688 22C691.314 22 694 19.3137 694 16C694 12.6863 691.314 10 688 10C684.686 10 682 12.6863 682 16C682 19.3137 684.686 22 688 22ZM688 24C692.418 24 696 20.4183 696 16C696 11.5817 692.418 8 688 8C683.582 8 680 11.5817 680 16C680 20.4183 683.582 24 688 24Z" fill="#F3F4F6"/>
</g>
<g opacity="0.194589">
<path fill-rule="evenodd" clip-rule="evenodd" d="M720.001 10.8282L714.829 16.0002L720.001 21.1723L725.173 16.0002L720.001 10.8282ZM712 16.0002L720.001 24.0007L728.001 16.0002L720.001 7.99977L712 16.0002Z" fill="#F3F4F6"/>
</g>
<g opacity="0.574507">
<path fill-rule="evenodd" clip-rule="evenodd" d="M752.001 10.8282L746.829 16.0002L752.001 21.1723L757.173 16.0002L752.001 10.8282ZM744 16.0002L752.001 24.0007L760.001 16.0002L752.001 7.99977L744 16.0002Z" fill="#F3F4F6"/>
</g>
<g opacity="0.131824">
<path fill-rule="evenodd" clip-rule="evenodd" d="M784 22C787.314 22 790 19.3137 790 16C790 12.6863 787.314 10 784 10C780.686 10 778 12.6863 778 16C778 19.3137 780.686 22 784 22ZM784 24C788.418 24 792 20.4183 792 16C792 11.5817 788.418 8 784 8C779.582 8 776 11.5817 776 16C776 20.4183 779.582 24 784 24Z" fill="#F3F4F6"/>
</g>
<g opacity="0.685691">
<path fill-rule="evenodd" clip-rule="evenodd" d="M816 22C819.314 22 822 19.3137 822 16C822 12.6863 819.314 10 816 10C812.686 10 810 12.6863 810 16C810 19.3137 812.686 22 816 22ZM816 24C820.418 24 824 20.4183 824 16C824 11.5817 820.418 8 816 8C811.582 8 808 11.5817 808 16C808 20.4183 811.582 24 816 24Z" fill="#F3F4F6"/>
</g>
<g opacity="0.733199">
<path fill-rule="evenodd" clip-rule="evenodd" d="M848 22C851.314 22 854 19.3137 854 16C854 12.6863 851.314 10 848 10C844.686 10 842 12.6863 842 16C842 19.3137 844.686 22 848 22ZM848 24C852.418 24 856 20.4183 856 16C856 11.5817 852.418 8 848 8C843.582 8 840 11.5817 840 16C840 20.4183 843.582 24 848 24Z" fill="#F3F4F6"/>
</g>
<g opacity="0.144745">
<path fill-rule="evenodd" clip-rule="evenodd" d="M880.001 10.8282L874.829 16.0002L880.001 21.1723L885.173 16.0002L880.001 10.8282ZM872 16.0002L880.001 24.0007L888.001 16.0002L880.001 7.99977L872 16.0002Z" fill="#F3F4F6"/>
</g>
<g opacity="0.288104">
<path fill-rule="evenodd" clip-rule="evenodd" d="M912.001 10.8282L906.829 16.0002L912.001 21.1723L917.173 16.0002L912.001 10.8282ZM904 16.0002L912.001 24.0007L920.001 16.0002L912.001 7.99977L904 16.0002Z" fill="#F3F4F6"/>
</g>
<g opacity="0.147856">
<path fill-rule="evenodd" clip-rule="evenodd" d="M952 8H936V24H952V8ZM950 10H938V22H950V10Z" fill="#E5E7EB"/>
</g>
<g opacity="0.236452">
<path fill-rule="evenodd" clip-rule="evenodd" d="M976 22C979.314 22 982 19.3137 982 16C982 12.6863 979.314 10 976 10C972.686 10 970 12.6863 970 16C970 19.3137 972.686 22 976 22ZM976 24C980.418 24 984 20.4183 984 16C984 11.5817 980.418 8 976 8C971.582 8 968 11.5817 968 16C968 20.4183 971.582 24 976 24Z" fill="#F3F4F6"/>
</g>
<g opacity="0.526578">
<path fill-rule="evenodd" clip-rule="evenodd" d="M1016 8H1000V24H1016V8ZM1014 10H1002V22H1014V10Z" fill="#E5E7EB"/>
</g>
<g opacity="0.111896">
<path fill-rule="evenodd" clip-rule="evenodd" d="M1048 8H1032V24H1048V8ZM1046 10H1034V22H1046V10Z" fill="#E5E7EB"/>
</g>
<g opacity="0.581681">
<path fill-rule="evenodd" clip-rule="evenodd" d="M1072 10.8282L1066.83 16.0002L1072 21.1723L1077.17 16.0002L1072 10.8282ZM1064 16.0002L1072 24.0007L1080 16.0002L1072 7.99977L1064 16.0002Z" fill="#F3F4F6"/>
</g>
<g opacity="0.325269">
<path fill-rule="evenodd" clip-rule="evenodd" d="M1104 22C1107.31 22 1110 19.3137 1110 16C1110 12.6863 1107.31 10 1104 10C1100.69 10 1098 12.6863 1098 16C1098 19.3137 1100.69 22 1104 22ZM1104 24C1108.42 24 1112 20.4183 1112 16C1112 11.5817 1108.42 8 1104 8C1099.58 8 1096 11.5817 1096 16C1096 20.4183 1099.58 24 1104 24Z" fill="#F3F4F6"/>
</g>
<g opacity="0.71066">
<path fill-rule="evenodd" clip-rule="evenodd" d="M1136 10.8282L1130.83 16.0002L1136 21.1723L1141.17 16.0002L1136 10.8282ZM1128 16.0002L1136 24.0007L1144 16.0002L1136 7.99977L1128 16.0002Z" fill="#F3F4F6"/>
</g>
<g opacity="0.283845">
<path fill-rule="evenodd" clip-rule="evenodd" d="M1168 10.8282L1162.83 16.0002L1168 21.1723L1173.17 16.0002L1168 10.8282ZM1160 16.0002L1168 24.0007L1176 16.0002L1168 7.99977L1160 16.0002Z" fill="#F3F4F6"/>
</g>
<g opacity="0.364952">
<path fill-rule="evenodd" clip-rule="evenodd" d="M1200 22C1203.31 22 1206 19.3137 1206 16C1206 12.6863 1203.31 10 1200 10C1196.69 10 1194 12.6863 1194 16C1194 19.3137 1196.69 22 1200 22ZM1200 24C1204.42 24 1208 20.4183 1208 16C1208 11.5817 1204.42 8 1200 8C1195.58 8 1192 11.5817 1192 16C1192 20.4183 1195.58 24 1200 24Z" fill="#F3F4F6"/>
</g>
<g opacity="0.492992">
<path fill-rule="evenodd" clip-rule="evenodd" d="M1232 10.8282L1226.83 16.0002L1232 21.1723L1237.17 16.0002L1232 10.8282ZM1224 16.0002L1232 24.0007L1240 16.0002L1232 7.99977L1224 16.0002Z" fill="#F3F4F6"/>
</g>
<g opacity="0.542056">
<path fill-rule="evenodd" clip-rule="evenodd" d="M1264 22C1267.31 22 1270 19.3137 1270 16C1270 12.6863 1267.31 10 1264 10C1260.69 10 1258 12.6863 1258 16C1258 19.3137 1260.69 22 1264 22ZM1264 24C1268.42 24 1272 20.4183 1272 16C1272 11.5817 1268.42 8 1264 8C1259.58 8 1256 11.5817 1256 16C1256 20.4183 1259.58 24 1264 24Z" fill="#F3F4F6"/>
</g>
<g opacity="0.473132">
<path fill-rule="evenodd" clip-rule="evenodd" d="M1304 8H1288V24H1304V8ZM1302 10H1290V22H1302V10Z" fill="#E5E7EB"/>
</g>
<g opacity="0.159845">
<path fill-rule="evenodd" clip-rule="evenodd" d="M1328 22C1331.31 22 1334 19.3137 1334 16C1334 12.6863 1331.31 10 1328 10C1324.69 10 1322 12.6863 1322 16C1322 19.3137 1324.69 22 1328 22ZM1328 24C1332.42 24 1336 20.4183 1336 16C1336 11.5817 1332.42 8 1328 8C1323.58 8 1320 11.5817 1320 16C1320 20.4183 1323.58 24 1328 24Z" fill="#F3F4F6"/>
</g>
<g opacity="0.313075">
<path fill-rule="evenodd" clip-rule="evenodd" d="M1360 10.8282L1354.83 16.0002L1360 21.1723L1365.17 16.0002L1360 10.8282ZM1352 16.0002L1360 24.0007L1368 16.0002L1360 7.99977L1352 16.0002Z" fill="#F3F4F6"/>
</g>
<g opacity="0.362616">
<path fill-rule="evenodd" clip-rule="evenodd" d="M16 54C19.3137 54 22 51.3137 22 48C22 44.6863 19.3137 42 16 42C12.6863 42 10 44.6863 10 48C10 51.3137 12.6863 54 16 54ZM16 56C20.4183 56 24 52.4183 24 48C24 43.5817 20.4183 40 16 40C11.5817 40 8 43.5817 8 48C8 52.4183 11.5817 56 16 56Z" fill="#F3F4F6"/>
</g>
<g opacity="0.269249">
<path fill-rule="evenodd" clip-rule="evenodd" d="M48.0007 42.8282L42.8287 48.0002L48.0007 53.1723L53.1728 48.0002L48.0007 42.8282ZM40.0002 48.0002L48.0007 56.0007L56.0012 48.0002L48.0007 39.9998L40.0002 48.0002Z" fill="#F3F4F6"/>
</g>
<g opacity="0.654836">
<path fill-rule="evenodd" clip-rule="evenodd" d="M80.0007 42.8282L74.8287 48.0002L80.0007 53.1723L85.1728 48.0002L80.0007 42.8282ZM72.0002 48.0002L80.0007 56.0007L88.0012 48.0002L80.0007 39.9998L72.0002 48.0002Z" fill="#F3F4F6"/>
</g>
<g opacity="0.509127">
<path fill-rule="evenodd" clip-rule="evenodd" d="M112 54C115.314 54 118 51.3137 118 48C118 44.6863 115.314 42 112 42C108.686 42 106 44.6863 106 48C106 51.3137 108.686 54 112 54ZM112 56C116.418 56 120 52.4183 120 48C120 43.5817 116.418 40 112 40C107.582 40 104 43.5817 104 48C104 52.4183 107.582 56 112 56Z" fill="#F3F4F6"/>
</g>
<g opacity="0.785758">
<path fill-rule="evenodd" clip-rule="evenodd" d="M144.001 42.8282L138.829 48.0002L144.001 53.1723L149.173 48.0002L144.001 42.8282ZM136 48.0002L144.001 56.0007L152.001 48.0002L144.001 39.9998L136 48.0002Z" fill="#F3F4F6"/>
</g>
<g opacity="0.338942">
<path fill-rule="evenodd" clip-rule="evenodd" d="M184 40H168V56H184V40ZM182 42H170V54H182V42Z" fill="#E5E7EB"/>
</g>
<g opacity="0.160156">
<path fill-rule="evenodd" clip-rule="evenodd" d="M208 54C211.314 54 214 51.3137 214 48C214 44.6863 211.314 42 208 42C204.686 42 202 44.6863 202 48C202 51.3137 204.686 54 208 54ZM208 56C212.418 56 216 52.4183 216 48C216 43.5817 212.418 40 208 40C203.582 40 200 43.5817 200 48C200 52.4183 203.582 56 208 56Z" fill="#F3F4F6"/>
</g>
<g opacity="0.458394">
<path fill-rule="evenodd" clip-rule="evenodd" d="M248 40H232V56H248V40ZM246 42H234V54H246V42Z" fill="#E5E7EB"/>
</g>
<g opacity="0.116566">
<path fill-rule="evenodd" clip-rule="evenodd" d="M272 54C275.314 54 278 51.3137 278 48C278 44.6863 275.314 42 272 42C268.686 42 266 44.6863 266 48C266 51.3137 268.686 54 272 54ZM272 56C276.418 56 280 52.4183 280 48C280 43.5817 276.418 40 272 40C267.582 40 264 43.5817 264 48C264 52.4183 267.582 56 272 56Z" fill="#F3F4F6"/>
</g>
<g opacity="0.519855">
<path fill-rule="evenodd" clip-rule="evenodd" d="M304 54C307.314 54 310 51.3137 310 48C310 44.6863 307.314 42 304 42C300.686 42 298 44.6863 298 48C298 51.3137 300.686 54 304 54ZM304 56C308.418 56 312 52.4183 312 48C312 43.5817 308.418 40 304 40C299.582 40 296 43.5817 296 48C296 52.4183 299.582 56 304 56Z" fill="#F3F4F6"/>
</g>
<g opacity="0.317179">
<path fill-rule="evenodd" clip-rule="evenodd" d="M336.001 42.8282L330.829 48.0002L336.001 53.1723L341.173 48.0002L336.001 42.8282ZM328 48.0002L336.001 56.0007L344.001 48.0002L336.001 39.9998L328 48.0002Z" fill="#F3F4F6"/>
</g>
<g opacity="0.784538">
<path fill-rule="evenodd" clip-rule="evenodd" d="M368.001 42.8282L362.829 48.0002L368.001 53.1723L373.173 48.0002L368.001 42.8282ZM360 48.0002L368.001 56.0007L376.001 48.0002L368.001 39.9998L360 48.0002Z" fill="#F3F4F6"/>
</g>
<g opacity="0.2131">
<path fill-rule="evenodd" clip-rule="evenodd" d="M408 40H392V56H408V40ZM406 42H394V54H406V42Z" fill="#E5E7EB"/>
</g>
<g opacity="0.597589">
<path fill-rule="evenodd" clip-rule="evenodd" d="M432 54C435.314 54 438 51.3137 438 48C438 44.6863 435.314 42 432 42C428.686 42 426 44.6863 426 48C426 51.3137 428.686 54 432 54ZM432 56C436.418 56 440 52.4183 440 48C440 43.5817 436.418 40 432 40C427.582 40 424 43.5817 424 48C424 52.4183 427.582 56 432 56Z" fill="#F3F4F6"/>
</g>
<g opacity="0.278915">
<path fill-rule="evenodd" clip-rule="evenodd" d="M464 54C467.314 54 470 51.3137 470 48C470 44.6863 467.314 42 464 42C460.686 42 458 44.6863 458 48C458 51.3137 460.686 54 464 54ZM464 56C468.418 56 472 52.4183 472 48C472 43.5817 468.418 40 464 40C459.582 40 456 43.5817 456 48C456 52.4183 459.582 56 464 56Z" fill="#F3F4F6"/>
</g>
<g opacity="0.596449">
<path fill-rule="evenodd" clip-rule="evenodd" d="M504 40H488V56H504V40ZM502 42H490V54H502V42Z" fill="#E5E7EB"/>
</g>
<g opacity="0.574335">
<path fill-rule="evenodd" clip-rule="evenodd" d="M528.001 42.8282L522.829 48.0002L528.001 53.1723L533.173 48.0002L528.001 42.8282ZM520 48.0002L528.001 56.0007L536.001 48.0002L528.001 39.9998L520 48.0002Z" fill="#F3F4F6"/>
</g>
<g opacity="0.356316">
<path fill-rule="evenodd" clip-rule="evenodd" d="M560.001 42.8282L554.829 48.0002L560.001 53.1723L565.173 48.0002L560.001 42.8282ZM552 48.0002L560.001 56.0007L568.001 48.0002L560.001 39.9998L552 48.0002Z" fill="#F3F4F6"/>
</g>
<g opacity="0.391579">
<path fill-rule="evenodd" clip-rule="evenodd" d="M600 40H584V56H600V40ZM598 42H586V54H598V42Z" fill="#E5E7EB"/>
</g>
<g opacity="0.667607">
<path fill-rule="evenodd" clip-rule="evenodd" d="M624 54C627.314 54 630 51.3137 630 48C630 44.6863 627.314 42 624 42C620.686 42 618 44.6863 618 48C618 51.3137 620.686 54 624 54ZM624 56C628.418 56 632 52.4183 632 48C632 43.5817 628.418 40 624 40C619.582 40 616 43.5817 616 48C616 52.4183 619.582 56 624 56Z" fill="#F3F4F6"/>
</g>
<g opacity="0.782268">
<path fill-rule="evenodd" clip-rule="evenodd" d="M656 54C659.314 54 662 51.3137 662 48C662 44.6863 659.314 42 656 42C652.686 42 650 44.6863 650 48C650 51.3137 652.686 54 656 54ZM656 56C660.418 56 664 52.4183 664 48C664 43.5817 660.418 40 656 40C651.582 40 648 43.5817 648 48C648 52.4183 651.582 56 656 56Z" fill="#F3F4F6"/>
</g>
<g opacity="0.217243">
<path fill-rule="evenodd" clip-rule="evenodd" d="M696 40H680V56H696V40ZM694 42H682V54H694V42Z" fill="#E5E7EB"/>
</g>
<g opacity="0.254675">
<path fill-rule="evenodd" clip-rule="evenodd" d="M720.001 42.8282L714.829 48.0002L720.001 53.1723L725.173 48.0002L720.001 42.8282ZM712 48.0002L720.001 56.0007L728.001 48.0002L720.001 39.9998L712 48.0002Z" fill="#F3F4F6"/>
</g>
<g opacity="0.694624">
<path fill-rule="evenodd" clip-rule="evenodd" d="M752.001 42.8282L746.829 48.0002L752.001 53.1723L757.173 48.0002L752.001 42.8282ZM744 48.0002L752.001 56.0007L760.001 48.0002L752.001 39.9998L744 48.0002Z" fill="#F3F4F6"/>
</g>
<g opacity="0.555573">
<path fill-rule="evenodd" clip-rule="evenodd" d="M784 54C787.314 54 790 51.3137 790 48C790 44.6863 787.314 42 784 42C780.686 42 778 44.6863 778 48C778 51.3137 780.686 54 784 54ZM784 56C788.418 56 792 52.4183 792 48C792 43.5817 788.418 40 784 40C779.582 40 776 43.5817 776 48C776 52.4183 779.582 56 784 56Z" fill="#F3F4F6"/>
</g>
<g opacity="0.351282">
<path fill-rule="evenodd" clip-rule="evenodd" d="M824 40H808V56H824V40ZM822 42H810V54H822V42Z" fill="#E5E7EB"/>
</g>
<g opacity="0.300518">
<path fill-rule="evenodd" clip-rule="evenodd" d="M856 40H840V56H856V40ZM854 42H842V54H854V42Z" fill="#E5E7EB"/>
</g>
<g opacity="0.333422">
<path fill-rule="evenodd" clip-rule="evenodd" d="M880 54C883.314 54 886 51.3137 886 48C886 44.6863 883.314 42 880 42C876.686 42 874 44.6863 874 48C874 51.3137 876.686 54 880 54ZM880 56C884.418 56 888 52.4183 888 48C888 43.5817 884.418 40 880 40C875.582 40 872 43.5817 872 48C872 52.4183 875.582 56 880 56Z" fill="#F3F4F6"/>
</g>
<g opacity="0.294363">
<path fill-rule="evenodd" clip-rule="evenodd" d="M920 40H904V56H920V40ZM918 42H906V54H918V42Z" fill="#E5E7EB"/>
</g>
<g opacity="0.174383">
<path fill-rule="evenodd" clip-rule="evenodd" d="M944.001 42.8282L938.829 48.0002L944.001 53.1723L949.173 48.0002L944.001 42.8282ZM936 48.0002L944.001 56.0007L952.001 48.0002L944.001 39.9998L936 48.0002Z" fill="#F3F4F6"/>
</g>
<g opacity="0.758863">
<path fill-rule="evenodd" clip-rule="evenodd" d="M976.001 42.8282L970.829 48.0002L976.001 53.1723L981.173 48.0002L976.001 42.8282ZM968 48.0002L976.001 56.0007L984.001 48.0002L976.001 39.9998L968 48.0002Z" fill="#F3F4F6"/>
</g>
<g opacity="0.765422">
<path fill-rule="evenodd" clip-rule="evenodd" d="M1008 54C1011.31 54 1014 51.3137 1014 48C1014 44.6863 1011.31 42 1008 42C1004.69 42 1002 44.6863 1002 48C1002 51.3137 1004.69 54 1008 54ZM1008 56C1012.42 56 1016 52.4183 1016 48C1016 43.5817 1012.42 40 1008 40C1003.58 40 1000 43.5817 1000 48C1000 52.4183 1003.58 56 1008 56Z" fill="#F3F4F6"/>
</g>
<g opacity="0.112135">
<path fill-rule="evenodd" clip-rule="evenodd" d="M1048 40H1032V56H1048V40ZM1046 42H1034V54H1046V42Z" fill="#E5E7EB"/>
</g>
<g opacity="0.310643">
<path fill-rule="evenodd" clip-rule="evenodd" d="M1080 40H1064V56H1080V40ZM1078 42H1066V54H1078V42Z" fill="#E5E7EB"/>
</g>
<g opacity="0.542929">
<path fill-rule="evenodd" clip-rule="evenodd" d="M1104 54C1107.31 54 1110 51.3137 1110 48C1110 44.6863 1107.31 42 1104 42C1100.69 42 1098 44.6863 1098 48C1098 51.3137 1100.69 54 1104 54ZM1104 56C1108.42 56 1112 52.4183 1112 48C1112 43.5817 1108.42 40 1104 40C1099.58 40 1096 43.5817 1096 48C1096 52.4183 1099.58 56 1104 56Z" fill="#F3F4F6"/>
</g>
<g opacity="0.702594">
<path fill-rule="evenodd" clip-rule="evenodd" d="M1144 40H1128V56H1144V40ZM1142 42H1130V54H1142V42Z" fill="#E5E7EB"/>
</g>
<g opacity="0.677917">
<path fill-rule="evenodd" clip-rule="evenodd" d="M1176 40H1160V56H1176V40ZM1174 42H1162V54H1174V42Z" fill="#E5E7EB"/>
</g>
<g opacity="0.165345">
<path fill-rule="evenodd" clip-rule="evenodd" d="M1208 40H1192V56H1208V40ZM1206 42H1194V54H1206V42Z" fill="#E5E7EB"/>
</g>
<g opacity="0.474421">
<path fill-rule="evenodd" clip-rule="evenodd" d="M1232 54C1235.31 54 1238 51.3137 1238 48C1238 44.6863 1235.31 42 1232 42C1228.69 42 1226 44.6863 1226 48C1226 51.3137 1228.69 54 1232 54ZM1232 56C1236.42 56 1240 52.4183 1240 48C1240 43.5817 1236.42 40 1232 40C1227.58 40 1224 43.5817 1224 48C1224 52.4183 1227.58 56 1232 56Z" fill="#F3F4F6"/>
</g>
<g opacity="0.466993">
<path fill-rule="evenodd" clip-rule="evenodd" d="M1264 42.8282L1258.83 48.0002L1264 53.1723L1269.17 48.0002L1264 42.8282ZM1256 48.0002L1264 56.0007L1272 48.0002L1264 39.9998L1256 48.0002Z" fill="#F3F4F6"/>
</g>
<g opacity="0.688506">
<path fill-rule="evenodd" clip-rule="evenodd" d="M1296 54C1299.31 54 1302 51.3137 1302 48C1302 44.6863 1299.31 42 1296 42C1292.69 42 1290 44.6863 1290 48C1290 51.3137 1292.69 54 1296 54ZM1296 56C1300.42 56 1304 52.4183 1304 48C1304 43.5817 1300.42 40 1296 40C1291.58 40 1288 43.5817 1288 48C1288 52.4183 1291.58 56 1296 56Z" fill="#F3F4F6"/>
</g>
<g opacity="0.38662">
<path fill-rule="evenodd" clip-rule="evenodd" d="M1328 42.8282L1322.83 48.0002L1328 53.1723L1333.17 48.0002L1328 42.8282ZM1320 48.0002L1328 56.0007L1336 48.0002L1328 39.9998L1320 48.0002Z" fill="#F3F4F6"/>
</g>
<g opacity="0.612459">
<path fill-rule="evenodd" clip-rule="evenodd" d="M1368 40H1352V56H1368V40ZM1366 42H1354V54H1366V42Z" fill="#E5E7EB"/>
</g>
<g opacity="0.297472">
<path fill-rule="evenodd" clip-rule="evenodd" d="M16.0007 74.8282L10.8287 80.0002L16.0007 85.1723L21.1728 80.0002L16.0007 74.8282ZM8.00024 80.0002L16.0007 88.0007L24.0012 80.0002L16.0007 71.9998L8.00024 80.0002Z" fill="#F3F4F6"/>
</g>
<g opacity="0.143446">
<path fill-rule="evenodd" clip-rule="evenodd" d="M48 86C51.3137 86 54 83.3137 54 80C54 76.6863 51.3137 74 48 74C44.6863 74 42 76.6863 42 80C42 83.3137 44.6863 86 48 86ZM48 88C52.4183 88 56 84.4183 56 80C56 75.5817 52.4183 72 48 72C43.5817 72 40 75.5817 40 80C40 84.4183 43.5817 88 48 88Z" fill="#F3F4F6"/>
</g>
<g opacity="0.49402">
<path fill-rule="evenodd" clip-rule="evenodd" d="M80 86C83.3137 86 86 83.3137 86 80C86 76.6863 83.3137 74 80 74C76.6863 74 74 76.6863 74 80C74 83.3137 76.6863 86 80 86ZM80 88C84.4183 88 88 84.4183 88 80C88 75.5817 84.4183 72 80 72C75.5817 72 72 75.5817 72 80C72 84.4183 75.5817 88 80 88Z" fill="#F3F4F6"/>
</g>
<g opacity="0.360175">
<path fill-rule="evenodd" clip-rule="evenodd" d="M112.001 74.8282L106.829 80.0002L112.001 85.1723L117.173 80.0002L112.001 74.8282ZM104 80.0002L112.001 88.0007L120.001 80.0002L112.001 71.9998L104 80.0002Z" fill="#F3F4F6"/>
</g>
<g opacity="0.530036">
<path fill-rule="evenodd" clip-rule="evenodd" d="M144.001 74.8282L138.829 80.0002L144.001 85.1723L149.173 80.0002L144.001 74.8282ZM136 80.0002L144.001 88.0007L152.001 80.0002L144.001 71.9998L136 80.0002Z" fill="#F3F4F6"/>
</g>
<g opacity="0.186938">
<path fill-rule="evenodd" clip-rule="evenodd" d="M184 72H168V88H184V72ZM182 74H170V86H182V74Z" fill="#E5E7EB"/>
</g>
<g opacity="0.615779">
<path fill-rule="evenodd" clip-rule="evenodd" d="M216 72H200V88H216V72ZM214 74H202V86H214V74Z" fill="#E5E7EB"/>
</g>
<g opacity="0.609128">
<path fill-rule="evenodd" clip-rule="evenodd" d="M240 86C243.314 86 246 83.3137 246 80C246 76.6863 243.314 74 240 74C236.686 74 234 76.6863 234 80C234 83.3137 236.686 86 240 86ZM240 88C244.418 88 248 84.4183 248 80C248 75.5817 244.418 72 240 72C235.582 72 232 75.5817 232 80C232 84.4183 235.582 88 240 88Z" fill="#F3F4F6"/>
</g>
<g opacity="0.571589">
<path fill-rule="evenodd" clip-rule="evenodd" d="M272 86C275.314 86 278 83.3137 278 80C278 76.6863 275.314 74 272 74C268.686 74 266 76.6863 266 80C266 83.3137 268.686 86 272 86ZM272 88C276.418 88 280 84.4183 280 80C280 75.5817 276.418 72 272 72C267.582 72 264 75.5817 264 80C264 84.4183 267.582 88 272 88Z" fill="#F3F4F6"/>
</g>
<g opacity="0.312777">
<path fill-rule="evenodd" clip-rule="evenodd" d="M304 86C307.314 86 310 83.3137 310 80C310 76.6863 307.314 74 304 74C300.686 74 298 76.6863 298 80C298 83.3137 300.686 86 304 86ZM304 88C308.418 88 312 84.4183 312 80C312 75.5817 308.418 72 304 72C299.582 72 296 75.5817 296 80C296 84.4183 299.582 88 304 88Z" fill="#F3F4F6"/>
</g>
<g opacity="0.182894">
<path fill-rule="evenodd" clip-rule="evenodd" d="M344 72H328V88H344V72ZM342 74H330V86H342V74Z" fill="#E5E7EB"/>
</g>
<g opacity="0.330308">
<path fill-rule="evenodd" clip-rule="evenodd" d="M376 72H360V88H376V72ZM374 74H362V86H374V74Z" fill="#E5E7EB"/>
</g>
<g opacity="0.137234">
<path fill-rule="evenodd" clip-rule="evenodd" d="M400 86C403.314 86 406 83.3137 406 80C406 76.6863 403.314 74 400 74C396.686 74 394 76.6863 394 80C394 83.3137 396.686 86 400 86ZM400 88C404.418 88 408 84.4183 408 80C408 75.5817 404.418 72 400 72C395.582 72 392 75.5817 392 80C392 84.4183 395.582 88 400 88Z" fill="#F3F4F6"/>
</g>
<g opacity="0.726353">
<path fill-rule="evenodd" clip-rule="evenodd" d="M440 72H424V88H440V72ZM438 74H426V86H438V74Z" fill="#E5E7EB"/>
</g>
<g opacity="0.132211">
<path fill-rule="evenodd" clip-rule="evenodd" d="M472 72H456V88H472V72ZM470 74H458V86H470V74Z" fill="#E5E7EB"/>
</g>
<g opacity="0.314642">
<path fill-rule="evenodd" clip-rule="evenodd" d="M504 72H488V88H504V72ZM502 74H490V86H502V74Z" fill="#E5E7EB"/>
</g>
<g opacity="0.195836">
<path fill-rule="evenodd" clip-rule="evenodd" d="M528 86C531.314 86 534 83.3137 534 80C534 76.6863 531.314 74 528 74C524.686 74 522 76.6863 522 80C522 83.3137 524.686 86 528 86ZM528 88C532.418 88 536 84.4183 536 80C536 75.5817 532.418 72 528 72C523.582 72 520 75.5817 520 80C520 84.4183 523.582 88 528 88Z" fill="#F3F4F6"/>
</g>
<g opacity="0.477965">
<path fill-rule="evenodd" clip-rule="evenodd" d="M560.001 74.8282L554.829 80.0002L560.001 85.1723L565.173 80.0002L560.001 74.8282ZM552 80.0002L560.001 88.0007L568.001 80.0002L560.001 71.9998L552 80.0002Z" fill="#F3F4F6"/>
</g>
<g opacity="0.525113">
<path fill-rule="evenodd" clip-rule="evenodd" d="M600 72H584V88H600V72ZM598 74H586V86H598V74Z" fill="#E5E7EB"/>
</g>
<g opacity="0.707822">
<path fill-rule="evenodd" clip-rule="evenodd" d="M624 86C627.314 86 630 83.3137 630 80C630 76.6863 627.314 74 624 74C620.686 74 618 76.6863 618 80C618 83.3137 620.686 86 624 86ZM624 88C628.418 88 632 84.4183 632 80C632 75.5817 628.418 72 624 72C619.582 72 616 75.5817 616 80C616 84.4183 619.582 88 624 88Z" fill="#F3F4F6"/>
</g>
<g opacity="0.587505">
<path fill-rule="evenodd" clip-rule="evenodd" d="M664 72H648V88H664V72ZM662 74H650V86H662V74Z" fill="#E5E7EB"/>
</g>
<g opacity="0.267284">
<path fill-rule="evenodd" clip-rule="evenodd" d="M696 72H680V88H696V72ZM694 74H682V86H694V74Z" fill="#E5E7EB"/>
</g>
<g opacity="0.139723">
<path fill-rule="evenodd" clip-rule="evenodd" d="M720 86C723.314 86 726 83.3137 726 80C726 76.6863 723.314 74 720 74C716.686 74 714 76.6863 714 80C714 83.3137 716.686 86 720 86ZM720 88C724.418 88 728 84.4183 728 80C728 75.5817 724.418 72 720 72C715.582 72 712 75.5817 712 80C712 84.4183 715.582 88 720 88Z" fill="#F3F4F6"/>
</g>
<g opacity="0.496622">
<path fill-rule="evenodd" clip-rule="evenodd" d="M760 72H744V88H760V72ZM758 74H746V86H758V74Z" fill="#E5E7EB"/>
</g>
<g opacity="0.524771">
<path fill-rule="evenodd" clip-rule="evenodd" d="M784.001 74.8282L778.829 80.0002L784.001 85.1723L789.173 80.0002L784.001 74.8282ZM776 80.0002L784.001 88.0007L792.001 80.0002L784.001 71.9998L776 80.0002Z" fill="#F3F4F6"/>
</g>
<g opacity="0.375728">
<path fill-rule="evenodd" clip-rule="evenodd" d="M824 72H808V88H824V72ZM822 74H810V86H822V74Z" fill="#E5E7EB"/>
</g>
<g opacity="0.616699">
<path fill-rule="evenodd" clip-rule="evenodd" d="M848.001 74.8282L842.829 80.0002L848.001 85.1723L853.173 80.0002L848.001 74.8282ZM840 80.0002L848.001 88.0007L856.001 80.0002L848.001 71.9998L840 80.0002Z" fill="#F3F4F6"/>
</g>
<g opacity="0.151205">
<path fill-rule="evenodd" clip-rule="evenodd" d="M888 72H872V88H888V72ZM886 74H874V86H886V74Z" fill="#E5E7EB"/>
</g>
<g opacity="0.371717">
<path fill-rule="evenodd" clip-rule="evenodd" d="M920 72H904V88H920V72ZM918 74H906V86H918V74Z" fill="#E5E7EB"/>
</g>
<g opacity="0.547654">
<path fill-rule="evenodd" clip-rule="evenodd" d="M944 86C947.314 86 950 83.3137 950 80C950 76.6863 947.314 74 944 74C940.686 74 938 76.6863 938 80C938 83.3137 940.686 86 944 86ZM944 88C948.418 88 952 84.4183 952 80C952 75.5817 948.418 72 944 72C939.582 72 936 75.5817 936 80C936 84.4183 939.582 88 944 88Z" fill="#F3F4F6"/>
</g>
<g opacity="0.569034">
<path fill-rule="evenodd" clip-rule="evenodd" d="M976 86C979.314 86 982 83.3137 982 80C982 76.6863 979.314 74 976 74C972.686 74 970 76.6863 970 80C970 83.3137 972.686 86 976 86ZM976 88C980.418 88 984 84.4183 984 80C984 75.5817 980.418 72 976 72C971.582 72 968 75.5817 968 80C968 84.4183 971.582 88 976 88Z" fill="#F3F4F6"/>
</g>
<g opacity="0.136669">
<path fill-rule="evenodd" clip-rule="evenodd" d="M1008 86C1011.31 86 1014 83.3137 1014 80C1014 76.6863 1011.31 74 1008 74C1004.69 74 1002 76.6863 1002 80C1002 83.3137 1004.69 86 1008 86ZM1008 88C1012.42 88 1016 84.4183 1016 80C1016 75.5817 1012.42 72 1008 72C1003.58 72 1000 75.5817 1000 80C1000 84.4183 1003.58 88 1008 88Z" fill="#F3F4F6"/>
</g>
<g opacity="0.691128">
<path fill-rule="evenodd" clip-rule="evenodd" d="M1048 72H1032V88H1048V72ZM1046 74H1034V86H1046V74Z" fill="#E5E7EB"/>
</g>
<g opacity="0.464329">
<path fill-rule="evenodd" clip-rule="evenodd" d="M1072 74.8282L1066.83 80.0002L1072 85.1723L1077.17 80.0002L1072 74.8282ZM1064 80.0002L1072 88.0007L1080 80.0002L1072 71.9998L1064 80.0002Z" fill="#F3F4F6"/>
</g>
<g opacity="0.40203">
<path fill-rule="evenodd" clip-rule="evenodd" d="M1112 72H1096V88H1112V72ZM1110 74H1098V86H1110V74Z" fill="#E5E7EB"/>
</g>
<g opacity="0.555476">
<path fill-rule="evenodd" clip-rule="evenodd" d="M1136 86C1139.31 86 1142 83.3137 1142 80C1142 76.6863 1139.31 74 1136 74C1132.69 74 1130 76.6863 1130 80C1130 83.3137 1132.69 86 1136 86ZM1136 88C1140.42 88 1144 84.4183 1144 80C1144 75.5817 1140.42 72 1136 72C1131.58 72 1128 75.5817 1128 80C1128 84.4183 1131.58 88 1136 88Z" fill="#F3F4F6"/>
</g>
<g opacity="0.337946">
<path fill-rule="evenodd" clip-rule="evenodd" d="M1176 72H1160V88H1176V72ZM1174 74H1162V86H1174V74Z" fill="#E5E7EB"/>
</g>
<g opacity="0.23427">
<path fill-rule="evenodd" clip-rule="evenodd" d="M1200 74.8282L1194.83 80.0002L1200 85.1723L1205.17 80.0002L1200 74.8282ZM1192 80.0002L1200 88.0007L1208 80.0002L1200 71.9998L1192 80.0002Z" fill="#F3F4F6"/>
</g>
<g opacity="0.102986">
<path fill-rule="evenodd" clip-rule="evenodd" d="M1232 86C1235.31 86 1238 83.3137 1238 80C1238 76.6863 1235.31 74 1232 74C1228.69 74 1226 76.6863 1226 80C1226 83.3137 1228.69 86 1232 86ZM1232 88C1236.42 88 1240 84.4183 1240 80C1240 75.5817 1236.42 72 1232 72C1227.58 72 1224 75.5817 1224 80C1224 84.4183 1227.58 88 1232 88Z" fill="#F3F4F6"/>
</g>
<g opacity="0.296419">
<path fill-rule="evenodd" clip-rule="evenodd" d="M1264 74.8282L1258.83 80.0002L1264 85.1723L1269.17 80.0002L1264 74.8282ZM1256 80.0002L1264 88.0007L1272 80.0002L1264 71.9998L1256 80.0002Z" fill="#F3F4F6"/>
</g>
<g opacity="0.63747">
<path fill-rule="evenodd" clip-rule="evenodd" d="M1304 72H1288V88H1304V72ZM1302 74H1290V86H1302V74Z" fill="#E5E7EB"/>
</g>
<g opacity="0.470196">
<path fill-rule="evenodd" clip-rule="evenodd" d="M1328 86C1331.31 86 1334 83.3137 1334 80C1334 76.6863 1331.31 74 1328 74C1324.69 74 1322 76.6863 1322 80C1322 83.3137 1324.69 86 1328 86ZM1328 88C1332.42 88 1336 84.4183 1336 80C1336 75.5817 1332.42 72 1328 72C1323.58 72 1320 75.5817 1320 80C1320 84.4183 1323.58 88 1328 88Z" fill="#F3F4F6"/>
</g>
<g opacity="0.212154">
<path fill-rule="evenodd" clip-rule="evenodd" d="M1360 86C1363.31 86 1366 83.3137 1366 80C1366 76.6863 1363.31 74 1360 74C1356.69 74 1354 76.6863 1354 80C1354 83.3137 1356.69 86 1360 86ZM1360 88C1364.42 88 1368 84.4183 1368 80C1368 75.5817 1364.42 72 1360 72C1355.58 72 1352 75.5817 1352 80C1352 84.4183 1355.58 88 1360 88Z" fill="#F3F4F6"/>
</g>
<g opacity="0.412974">
<path fill-rule="evenodd" clip-rule="evenodd" d="M16.0007 106.828L10.8287 112L16.0007 117.172L21.1728 112L16.0007 106.828ZM8.00024 112L16.0007 120.001L24.0012 112L16.0007 104L8.00024 112Z" fill="#F3F4F6"/>
</g>
<g opacity="0.592811">
<path fill-rule="evenodd" clip-rule="evenodd" d="M56 104H40V120H56V104ZM54 106H42V118H54V106Z" fill="#E5E7EB"/>
</g>
<g opacity="0.195687">
<path fill-rule="evenodd" clip-rule="evenodd" d="M80 118C83.3137 118 86 115.314 86 112C86 108.686 83.3137 106 80 106C76.6863 106 74 108.686 74 112C74 115.314 76.6863 118 80 118ZM80 120C84.4183 120 88 116.418 88 112C88 107.582 84.4183 104 80 104C75.5817 104 72 107.582 72 112C72 116.418 75.5817 120 80 120Z" fill="#F3F4F6"/>
</g>
<g opacity="0.609111">
<path fill-rule="evenodd" clip-rule="evenodd" d="M120 104H104V120H120V104ZM118 106H106V118H118V106Z" fill="#E5E7EB"/>
</g>
<g opacity="0.574609">
<path fill-rule="evenodd" clip-rule="evenodd" d="M144.001 106.828L138.829 112L144.001 117.172L149.173 112L144.001 106.828ZM136 112L144.001 120.001L152.001 112L144.001 104L136 112Z" fill="#F3F4F6"/>
</g>
<g opacity="0.588992">
<path fill-rule="evenodd" clip-rule="evenodd" d="M176 118C179.314 118 182 115.314 182 112C182 108.686 179.314 106 176 106C172.686 106 170 108.686 170 112C170 115.314 172.686 118 176 118ZM176 120C180.418 120 184 116.418 184 112C184 107.582 180.418 104 176 104C171.582 104 168 107.582 168 112C168 116.418 171.582 120 176 120Z" fill="#F3F4F6"/>
</g>
<g opacity="0.642245">
<path fill-rule="evenodd" clip-rule="evenodd" d="M216 104H200V120H216V104ZM214 106H202V118H214V106Z" fill="#E5E7EB"/>
</g>
<g opacity="0.151566">
<path fill-rule="evenodd" clip-rule="evenodd" d="M248 104H232V120H248V104ZM246 106H234V118H246V106Z" fill="#E5E7EB"/>
</g>
<g opacity="0.230758">
<path fill-rule="evenodd" clip-rule="evenodd" d="M272 118C275.314 118 278 115.314 278 112C278 108.686 275.314 106 272 106C268.686 106 266 108.686 266 112C266 115.314 268.686 118 272 118ZM272 120C276.418 120 280 116.418 280 112C280 107.582 276.418 104 272 104C267.582 104 264 107.582 264 112C264 116.418 267.582 120 272 120Z" fill="#F3F4F6"/>
</g>
<g opacity="0.174968">
<path fill-rule="evenodd" clip-rule="evenodd" d="M304.001 106.828L298.829 112L304.001 117.172L309.173 112L304.001 106.828ZM296 112L304.001 120.001L312.001 112L304.001 104L296 112Z" fill="#F3F4F6"/>
</g>
<g opacity="0.104318">
<path fill-rule="evenodd" clip-rule="evenodd" d="M336 118C339.314 118 342 115.314 342 112C342 108.686 339.314 106 336 106C332.686 106 330 108.686 330 112C330 115.314 332.686 118 336 118ZM336 120C340.418 120 344 116.418 344 112C344 107.582 340.418 104 336 104C331.582 104 328 107.582 328 112C328 116.418 331.582 120 336 120Z" fill="#F3F4F6"/>
</g>
<g opacity="0.501403">
<path fill-rule="evenodd" clip-rule="evenodd" d="M368 118C371.314 118 374 115.314 374 112C374 108.686 371.314 106 368 106C364.686 106 362 108.686 362 112C362 115.314 364.686 118 368 118ZM368 120C372.418 120 376 116.418 376 112C376 107.582 372.418 104 368 104C363.582 104 360 107.582 360 112C360 116.418 363.582 120 368 120Z" fill="#F3F4F6"/>
</g>
<g opacity="0.673181">
<path fill-rule="evenodd" clip-rule="evenodd" d="M400.001 106.828L394.829 112L400.001 117.172L405.173 112L400.001 106.828ZM392 112L400.001 120.001L408.001 112L400.001 104L392 112Z" fill="#F3F4F6"/>
</g>
<g opacity="0.473087">
<path fill-rule="evenodd" clip-rule="evenodd" d="M432.001 106.828L426.829 112L432.001 117.172L437.173 112L432.001 106.828ZM424 112L432.001 120.001L440.001 112L432.001 104L424 112Z" fill="#F3F4F6"/>
</g>
<g opacity="0.665539">
<path fill-rule="evenodd" clip-rule="evenodd" d="M464.001 106.828L458.829 112L464.001 117.172L469.173 112L464.001 106.828ZM456 112L464.001 120.001L472.001 112L464.001 104L456 112Z" fill="#F3F4F6"/>
</g>
<g opacity="0.793818">
<path fill-rule="evenodd" clip-rule="evenodd" d="M496.001 106.828L490.829 112L496.001 117.172L501.173 112L496.001 106.828ZM488 112L496.001 120.001L504.001 112L496.001 104L488 112Z" fill="#F3F4F6"/>
</g>
<g opacity="0.589021">
<path fill-rule="evenodd" clip-rule="evenodd" d="M528.001 106.828L522.829 112L528.001 117.172L533.173 112L528.001 106.828ZM520 112L528.001 120.001L536.001 112L528.001 104L520 112Z" fill="#F3F4F6"/>
</g>
<g opacity="0.546082">
<path fill-rule="evenodd" clip-rule="evenodd" d="M560.001 106.828L554.829 112L560.001 117.172L565.173 112L560.001 106.828ZM552 112L560.001 120.001L568.001 112L560.001 104L552 112Z" fill="#F3F4F6"/>
</g>
<g opacity="0.502136">
<path fill-rule="evenodd" clip-rule="evenodd" d="M592 118C595.314 118 598 115.314 598 112C598 108.686 595.314 106 592 106C588.686 106 586 108.686 586 112C586 115.314 588.686 118 592 118ZM592 120C596.418 120 600 116.418 600 112C600 107.582 596.418 104 592 104C587.582 104 584 107.582 584 112C584 116.418 587.582 120 592 120Z" fill="#F3F4F6"/>
</g>
<g opacity="0.350626">
<path fill-rule="evenodd" clip-rule="evenodd" d="M632 104H616V120H632V104ZM630 106H618V118H630V106Z" fill="#E5E7EB"/>
</g>
<g opacity="0.713861">
<path fill-rule="evenodd" clip-rule="evenodd" d="M656 118C659.314 118 662 115.314 662 112C662 108.686 659.314 106 656 106C652.686 106 650 108.686 650 112C650 115.314 652.686 118 656 118ZM656 120C660.418 120 664 116.418 664 112C664 107.582 660.418 104 656 104C651.582 104 648 107.582 648 112C648 116.418 651.582 120 656 120Z" fill="#F3F4F6"/>
</g>
<g opacity="0.686836">
<path fill-rule="evenodd" clip-rule="evenodd" d="M688.001 106.828L682.829 112L688.001 117.172L693.173 112L688.001 106.828ZM680 112L688.001 120.001L696.001 112L688.001 104L680 112Z" fill="#F3F4F6"/>
</g>
<g opacity="0.465836">
<path fill-rule="evenodd" clip-rule="evenodd" d="M720.001 106.828L714.829 112L720.001 117.172L725.173 112L720.001 106.828ZM712 112L720.001 120.001L728.001 112L720.001 104L712 112Z" fill="#F3F4F6"/>
</g>
<g opacity="0.261471">
<path fill-rule="evenodd" clip-rule="evenodd" d="M752.001 106.828L746.829 112L752.001 117.172L757.173 112L752.001 106.828ZM744 112L752.001 120.001L760.001 112L752.001 104L744 112Z" fill="#F3F4F6"/>
</g>
<g opacity="0.427638">
<path fill-rule="evenodd" clip-rule="evenodd" d="M784.001 106.828L778.829 112L784.001 117.172L789.173 112L784.001 106.828ZM776 112L784.001 120.001L792.001 112L784.001 104L776 112Z" fill="#F3F4F6"/>
</g>
<g opacity="0.710088">
<path fill-rule="evenodd" clip-rule="evenodd" d="M816 118C819.314 118 822 115.314 822 112C822 108.686 819.314 106 816 106C812.686 106 810 108.686 810 112C810 115.314 812.686 118 816 118ZM816 120C820.418 120 824 116.418 824 112C824 107.582 820.418 104 816 104C811.582 104 808 107.582 808 112C808 116.418 811.582 120 816 120Z" fill="#F3F4F6"/>
</g>
<g opacity="0.25404">
<path fill-rule="evenodd" clip-rule="evenodd" d="M856 104H840V120H856V104ZM854 106H842V118H854V106Z" fill="#E5E7EB"/>
</g>
<g opacity="0.151716">
<path fill-rule="evenodd" clip-rule="evenodd" d="M880.001 106.828L874.829 112L880.001 117.172L885.173 112L880.001 106.828ZM872 112L880.001 120.001L888.001 112L880.001 104L872 112Z" fill="#F3F4F6"/>
</g>
<g opacity="0.709505">
<path fill-rule="evenodd" clip-rule="evenodd" d="M912 118C915.314 118 918 115.314 918 112C918 108.686 915.314 106 912 106C908.686 106 906 108.686 906 112C906 115.314 908.686 118 912 118ZM912 120C916.418 120 920 116.418 920 112C920 107.582 916.418 104 912 104C907.582 104 904 107.582 904 112C904 116.418 907.582 120 912 120Z" fill="#F3F4F6"/>
</g>
<g opacity="0.152753">
<path fill-rule="evenodd" clip-rule="evenodd" d="M944.001 106.828L938.829 112L944.001 117.172L949.173 112L944.001 106.828ZM936 112L944.001 120.001L952.001 112L944.001 104L936 112Z" fill="#F3F4F6"/>
</g>
<g opacity="0.791628">
<path fill-rule="evenodd" clip-rule="evenodd" d="M976.001 106.828L970.829 112L976.001 117.172L981.173 112L976.001 106.828ZM968 112L976.001 120.001L984.001 112L976.001 104L968 112Z" fill="#F3F4F6"/>
</g>
<g opacity="0.340553">
<path fill-rule="evenodd" clip-rule="evenodd" d="M1008 106.828L1002.83 112L1008 117.172L1013.17 112L1008 106.828ZM1000 112L1008 120.001L1016 112L1008 104L1000 112Z" fill="#F3F4F6"/>
</g>
<g opacity="0.218102">
<path fill-rule="evenodd" clip-rule="evenodd" d="M1040 118C1043.31 118 1046 115.314 1046 112C1046 108.686 1043.31 106 1040 106C1036.69 106 1034 108.686 1034 112C1034 115.314 1036.69 118 1040 118ZM1040 120C1044.42 120 1048 116.418 1048 112C1048 107.582 1044.42 104 1040 104C1035.58 104 1032 107.582 1032 112C1032 116.418 1035.58 120 1040 120Z" fill="#F3F4F6"/>
</g>
<g opacity="0.436599">
<path fill-rule="evenodd" clip-rule="evenodd" d="M1072 118C1075.31 118 1078 115.314 1078 112C1078 108.686 1075.31 106 1072 106C1068.69 106 1066 108.686 1066 112C1066 115.314 1068.69 118 1072 118ZM1072 120C1076.42 120 1080 116.418 1080 112C1080 107.582 1076.42 104 1072 104C1067.58 104 1064 107.582 1064 112C1064 116.418 1067.58 120 1072 120Z" fill="#F3F4F6"/>
</g>
<g opacity="0.516588">
<path fill-rule="evenodd" clip-rule="evenodd" d="M1104 106.828L1098.83 112L1104 117.172L1109.17 112L1104 106.828ZM1096 112L1104 120.001L1112 112L1104 104L1096 112Z" fill="#F3F4F6"/>
</g>
<g opacity="0.74934">
<path fill-rule="evenodd" clip-rule="evenodd" d="M1136 106.828L1130.83 112L1136 117.172L1141.17 112L1136 106.828ZM1128 112L1136 120.001L1144 112L1136 104L1128 112Z" fill="#F3F4F6"/>
</g>
<g opacity="0.638787">
<path fill-rule="evenodd" clip-rule="evenodd" d="M1168 106.828L1162.83 112L1168 117.172L1173.17 112L1168 106.828ZM1160 112L1168 120.001L1176 112L1168 104L1160 112Z" fill="#F3F4F6"/>
</g>
<g opacity="0.508947">
<path fill-rule="evenodd" clip-rule="evenodd" d="M1208 104H1192V120H1208V104ZM1206 106H1194V118H1206V106Z" fill="#E5E7EB"/>
</g>
<g opacity="0.432132">
<path fill-rule="evenodd" clip-rule="evenodd" d="M1240 104H1224V120H1240V104ZM1238 106H1226V118H1238V106Z" fill="#E5E7EB"/>
</g>
<g opacity="0.184129">
<path fill-rule="evenodd" clip-rule="evenodd" d="M1264 118C1267.31 118 1270 115.314 1270 112C1270 108.686 1267.31 106 1264 106C1260.69 106 1258 108.686 1258 112C1258 115.314 1260.69 118 1264 118ZM1264 120C1268.42 120 1272 116.418 1272 112C1272 107.582 1268.42 104 1264 104C1259.58 104 1256 107.582 1256 112C1256 116.418 1259.58 120 1264 120Z" fill="#F3F4F6"/>
</g>
<g opacity="0.775528">
<path fill-rule="evenodd" clip-rule="evenodd" d="M1304 104H1288V120H1304V104ZM1302 106H1290V118H1302V106Z" fill="#E5E7EB"/>
</g>
<g opacity="0.11299">
<path fill-rule="evenodd" clip-rule="evenodd" d="M1328 118C1331.31 118 1334 115.314 1334 112C1334 108.686 1331.31 106 1328 106C1324.69 106 1322 108.686 1322 112C1322 115.314 1324.69 118 1328 118ZM1328 120C1332.42 120 1336 116.418 1336 112C1336 107.582 1332.42 104 1328 104C1323.58 104 1320 107.582 1320 112C1320 116.418 1323.58 120 1328 120Z" fill="#F3F4F6"/>
</g>
<g opacity="0.426555">
<path fill-rule="evenodd" clip-rule="evenodd" d="M1360 118C1363.31 118 1366 115.314 1366 112C1366 108.686 1363.31 106 1360 106C1356.69 106 1354 108.686 1354 112C1354 115.314 1356.69 118 1360 118ZM1360 120C1364.42 120 1368 116.418 1368 112C1368 107.582 1364.42 104 1360 104C1355.58 104 1352 107.582 1352 112C1352 116.418 1355.58 120 1360 120Z" fill="#F3F4F6"/>
</g>
<g opacity="0.698292">
<path fill-rule="evenodd" clip-rule="evenodd" d="M24 136H8V152H24V136ZM22 138H10V150H22V138Z" fill="#E5E7EB"/>
</g>
<g opacity="0.642556">
<path fill-rule="evenodd" clip-rule="evenodd" d="M48.0007 138.828L42.8287 144L48.0007 149.172L53.1728 144L48.0007 138.828ZM40.0002 144L48.0007 152.001L56.0012 144L48.0007 136L40.0002 144Z" fill="#F3F4F6"/>
</g>
<g opacity="0.196532">
<path fill-rule="evenodd" clip-rule="evenodd" d="M88 136H72V152H88V136ZM86 138H74V150H86V138Z" fill="#E5E7EB"/>
</g>
<g opacity="0.693995">
<path fill-rule="evenodd" clip-rule="evenodd" d="M112 150C115.314 150 118 147.314 118 144C118 140.686 115.314 138 112 138C108.686 138 106 140.686 106 144C106 147.314 108.686 150 112 150ZM112 152C116.418 152 120 148.418 120 144C120 139.582 116.418 136 112 136C107.582 136 104 139.582 104 144C104 148.418 107.582 152 112 152Z" fill="#F3F4F6"/>
</g>
<g opacity="0.714956">
<path fill-rule="evenodd" clip-rule="evenodd" d="M144.001 138.828L138.829 144L144.001 149.172L149.173 144L144.001 138.828ZM136 144L144.001 152.001L152.001 144L144.001 136L136 144Z" fill="#F3F4F6"/>
</g>
<g opacity="0.786308">
<path fill-rule="evenodd" clip-rule="evenodd" d="M176 150C179.314 150 182 147.314 182 144C182 140.686 179.314 138 176 138C172.686 138 170 140.686 170 144C170 147.314 172.686 150 176 150ZM176 152C180.418 152 184 148.418 184 144C184 139.582 180.418 136 176 136C171.582 136 168 139.582 168 144C168 148.418 171.582 152 176 152Z" fill="#F3F4F6"/>
</g>
<g opacity="0.239529">
<path fill-rule="evenodd" clip-rule="evenodd" d="M208.001 138.828L202.829 144L208.001 149.172L213.173 144L208.001 138.828ZM200 144L208.001 152.001L216.001 144L208.001 136L200 144Z" fill="#F3F4F6"/>
</g>
<g opacity="0.441085">
<path fill-rule="evenodd" clip-rule="evenodd" d="M240 150C243.314 150 246 147.314 246 144C246 140.686 243.314 138 240 138C236.686 138 234 140.686 234 144C234 147.314 236.686 150 240 150ZM240 152C244.418 152 248 148.418 248 144C248 139.582 244.418 136 240 136C235.582 136 232 139.582 232 144C232 148.418 235.582 152 240 152Z" fill="#F3F4F6"/>
</g>
<g opacity="0.665358">
<path fill-rule="evenodd" clip-rule="evenodd" d="M280 136H264V152H280V136ZM278 138H266V150H278V138Z" fill="#E5E7EB"/>
</g>
<g opacity="0.144065">
<path fill-rule="evenodd" clip-rule="evenodd" d="M304.001 138.828L298.829 144L304.001 149.172L309.173 144L304.001 138.828ZM296 144L304.001 152.001L312.001 144L304.001 136L296 144Z" fill="#F3F4F6"/>
</g>
<g opacity="0.556715">
<path fill-rule="evenodd" clip-rule="evenodd" d="M336.001 138.828L330.829 144L336.001 149.172L341.173 144L336.001 138.828ZM328 144L336.001 152.001L344.001 144L336.001 136L328 144Z" fill="#F3F4F6"/>
</g>
<g opacity="0.119193">
<path fill-rule="evenodd" clip-rule="evenodd" d="M376 136H360V152H376V136ZM374 138H362V150H374V138Z" fill="#E5E7EB"/>
</g>
<g opacity="0.500258">
<path fill-rule="evenodd" clip-rule="evenodd" d="M400.001 138.828L394.829 144L400.001 149.172L405.173 144L400.001 138.828ZM392 144L400.001 152.001L408.001 144L400.001 136L392 144Z" fill="#F3F4F6"/>
</g>
<g opacity="0.788182">
<path fill-rule="evenodd" clip-rule="evenodd" d="M432 150C435.314 150 438 147.314 438 144C438 140.686 435.314 138 432 138C428.686 138 426 140.686 426 144C426 147.314 428.686 150 432 150ZM432 152C436.418 152 440 148.418 440 144C440 139.582 436.418 136 432 136C427.582 136 424 139.582 424 144C424 148.418 427.582 152 432 152Z" fill="#F3F4F6"/>
</g>
<g opacity="0.66076">
<path fill-rule="evenodd" clip-rule="evenodd" d="M472 136H456V152H472V136ZM470 138H458V150H470V138Z" fill="#E5E7EB"/>
</g>
<g opacity="0.17349">
<path fill-rule="evenodd" clip-rule="evenodd" d="M504 136H488V152H504V136ZM502 138H490V150H502V138Z" fill="#E5E7EB"/>
</g>
<g opacity="0.120737">
<path fill-rule="evenodd" clip-rule="evenodd" d="M536 136H520V152H536V136ZM534 138H522V150H534V138Z" fill="#E5E7EB"/>
</g>
<g opacity="0.746209">
<path fill-rule="evenodd" clip-rule="evenodd" d="M560.001 138.828L554.829 144L560.001 149.172L565.173 144L560.001 138.828ZM552 144L560.001 152.001L568.001 144L560.001 136L552 144Z" fill="#F3F4F6"/>
</g>
<g opacity="0.200632">
<path fill-rule="evenodd" clip-rule="evenodd" d="M592.001 138.828L586.829 144L592.001 149.172L597.173 144L592.001 138.828ZM584 144L592.001 152.001L600.001 144L592.001 136L584 144Z" fill="#F3F4F6"/>
</g>
<g opacity="0.205857">
<path fill-rule="evenodd" clip-rule="evenodd" d="M624 150C627.314 150 630 147.314 630 144C630 140.686 627.314 138 624 138C620.686 138 618 140.686 618 144C618 147.314 620.686 150 624 150ZM624 152C628.418 152 632 148.418 632 144C632 139.582 628.418 136 624 136C619.582 136 616 139.582 616 144C616 148.418 619.582 152 624 152Z" fill="#F3F4F6"/>
</g>
<g opacity="0.427426">
<path fill-rule="evenodd" clip-rule="evenodd" d="M664 136H648V152H664V136ZM662 138H650V150H662V138Z" fill="#E5E7EB"/>
</g>
<g opacity="0.349673">
<path fill-rule="evenodd" clip-rule="evenodd" d="M696 136H680V152H696V136ZM694 138H682V150H694V138Z" fill="#E5E7EB"/>
</g>
<g opacity="0.463162">
<path fill-rule="evenodd" clip-rule="evenodd" d="M720 150C723.314 150 726 147.314 726 144C726 140.686 723.314 138 720 138C716.686 138 714 140.686 714 144C714 147.314 716.686 150 720 150ZM720 152C724.418 152 728 148.418 728 144C728 139.582 724.418 136 720 136C715.582 136 712 139.582 712 144C712 148.418 715.582 152 720 152Z" fill="#F3F4F6"/>
</g>
<g opacity="0.776131">
<path fill-rule="evenodd" clip-rule="evenodd" d="M752.001 138.828L746.829 144L752.001 149.172L757.173 144L752.001 138.828ZM744 144L752.001 152.001L760.001 144L752.001 136L744 144Z" fill="#F3F4F6"/>
</g>
<g opacity="0.571606">
<path fill-rule="evenodd" clip-rule="evenodd" d="M792 136H776V152H792V136ZM790 138H778V150H790V138Z" fill="#E5E7EB"/>
</g>
<g opacity="0.339591">
<path fill-rule="evenodd" clip-rule="evenodd" d="M824 136H808V152H824V136ZM822 138H810V150H822V138Z" fill="#E5E7EB"/>
</g>
<g opacity="0.710431">
<path fill-rule="evenodd" clip-rule="evenodd" d="M856 136H840V152H856V136ZM854 138H842V150H854V138Z" fill="#E5E7EB"/>
</g>
<g opacity="0.398276">
<path fill-rule="evenodd" clip-rule="evenodd" d="M880 150C883.314 150 886 147.314 886 144C886 140.686 883.314 138 880 138C876.686 138 874 140.686 874 144C874 147.314 876.686 150 880 150ZM880 152C884.418 152 888 148.418 888 144C888 139.582 884.418 136 880 136C875.582 136 872 139.582 872 144C872 148.418 875.582 152 880 152Z" fill="#F3F4F6"/>
</g>
<g opacity="0.36775">
<path fill-rule="evenodd" clip-rule="evenodd" d="M912.001 138.828L906.829 144L912.001 149.172L917.173 144L912.001 138.828ZM904 144L912.001 152.001L920.001 144L912.001 136L904 144Z" fill="#F3F4F6"/>
</g>
<g opacity="0.158496">
<path fill-rule="evenodd" clip-rule="evenodd" d="M944.001 138.828L938.829 144L944.001 149.172L949.173 144L944.001 138.828ZM936 144L944.001 152.001L952.001 144L944.001 136L936 144Z" fill="#F3F4F6"/>
</g>
<g opacity="0.594766">
<path fill-rule="evenodd" clip-rule="evenodd" d="M984 136H968V152H984V136ZM982 138H970V150H982V138Z" fill="#E5E7EB"/>
</g>
<g opacity="0.367754">
<path fill-rule="evenodd" clip-rule="evenodd" d="M1016 136H1000V152H1016V136ZM1014 138H1002V150H1014V138Z" fill="#E5E7EB"/>
</g>
<g opacity="0.548091">
<path fill-rule="evenodd" clip-rule="evenodd" d="M1040 150C1043.31 150 1046 147.314 1046 144C1046 140.686 1043.31 138 1040 138C1036.69 138 1034 140.686 1034 144C1034 147.314 1036.69 150 1040 150ZM1040 152C1044.42 152 1048 148.418 1048 144C1048 139.582 1044.42 136 1040 136C1035.58 136 1032 139.582 1032 144C1032 148.418 1035.58 152 1040 152Z" fill="#F3F4F6"/>
</g>
<g opacity="0.670078">
<path fill-rule="evenodd" clip-rule="evenodd" d="M1072 138.828L1066.83 144L1072 149.172L1077.17 144L1072 138.828ZM1064 144L1072 152.001L1080 144L1072 136L1064 144Z" fill="#F3F4F6"/>
</g>
<g opacity="0.386917">
<path fill-rule="evenodd" clip-rule="evenodd" d="M1112 136H1096V152H1112V136ZM1110 138H1098V150H1110V138Z" fill="#E5E7EB"/>
</g>
<g opacity="0.779982">
<path fill-rule="evenodd" clip-rule="evenodd" d="M1144 136H1128V152H1144V136ZM1142 138H1130V150H1142V138Z" fill="#E5E7EB"/>
</g>
<g opacity="0.622224">
<path fill-rule="evenodd" clip-rule="evenodd" d="M1176 136H1160V152H1176V136ZM1174 138H1162V150H1174V138Z" fill="#E5E7EB"/>
</g>
<g opacity="0.702621">
<path fill-rule="evenodd" clip-rule="evenodd" d="M1208 136H1192V152H1208V136ZM1206 138H1194V150H1206V138Z" fill="#E5E7EB"/>
</g>
<g opacity="0.310162">
<path fill-rule="evenodd" clip-rule="evenodd" d="M1232 150C1235.31 150 1238 147.314 1238 144C1238 140.686 1235.31 138 1232 138C1228.69 138 1226 140.686 1226 144C1226 147.314 1228.69 150 1232 150ZM1232 152C1236.42 152 1240 148.418 1240 144C1240 139.582 1236.42 136 1232 136C1227.58 136 1224 139.582 1224 144C1224 148.418 1227.58 152 1232 152Z" fill="#F3F4F6"/>
</g>
<g opacity="0.194628">
<path fill-rule="evenodd" clip-rule="evenodd" d="M1264 138.828L1258.83 144L1264 149.172L1269.17 144L1264 138.828ZM1256 144L1264 152.001L1272 144L1264 136L1256 144Z" fill="#F3F4F6"/>
</g>
<g opacity="0.290633">
<path fill-rule="evenodd" clip-rule="evenodd" d="M1304 136H1288V152H1304V136ZM1302 138H1290V150H1302V138Z" fill="#E5E7EB"/>
</g>
<g opacity="0.479141">
<path fill-rule="evenodd" clip-rule="evenodd" d="M1328 150C1331.31 150 1334 147.314 1334 144C1334 140.686 1331.31 138 1328 138C1324.69 138 1322 140.686 1322 144C1322 147.314 1324.69 150 1328 150ZM1328 152C1332.42 152 1336 148.418 1336 144C1336 139.582 1332.42 136 1328 136C1323.58 136 1320 139.582 1320 144C1320 148.418 1323.58 152 1328 152Z" fill="#F3F4F6"/>
</g>
<g opacity="0.295634">
<path fill-rule="evenodd" clip-rule="evenodd" d="M1368 136H1352V152H1368V136ZM1366 138H1354V150H1366V138Z" fill="#E5E7EB"/>
</g>
<g opacity="0.333001">
<path fill-rule="evenodd" clip-rule="evenodd" d="M16 182C19.3137 182 22 179.314 22 176C22 172.686 19.3137 170 16 170C12.6863 170 10 172.686 10 176C10 179.314 12.6863 182 16 182ZM16 184C20.4183 184 24 180.418 24 176C24 171.582 20.4183 168 16 168C11.5817 168 8 171.582 8 176C8 180.418 11.5817 184 16 184Z" fill="#F3F4F6"/>
</g>
<g opacity="0.736149">
<path fill-rule="evenodd" clip-rule="evenodd" d="M48 182C51.3137 182 54 179.314 54 176C54 172.686 51.3137 170 48 170C44.6863 170 42 172.686 42 176C42 179.314 44.6863 182 48 182ZM48 184C52.4183 184 56 180.418 56 176C56 171.582 52.4183 168 48 168C43.5817 168 40 171.582 40 176C40 180.418 43.5817 184 48 184Z" fill="#F3F4F6"/>
</g>
<g opacity="0.194489">
<path fill-rule="evenodd" clip-rule="evenodd" d="M88 168H72V184H88V168ZM86 170H74V182H86V170Z" fill="#E5E7EB"/>
</g>
<g opacity="0.60043">
<path fill-rule="evenodd" clip-rule="evenodd" d="M112.001 170.828L106.829 176L112.001 181.172L117.173 176L112.001 170.828ZM104 176L112.001 184.001L120.001 176L112.001 168L104 176Z" fill="#F3F4F6"/>
</g>
<g opacity="0.447166">
<path fill-rule="evenodd" clip-rule="evenodd" d="M152 168H136V184H152V168ZM150 170H138V182H150V170Z" fill="#E5E7EB"/>
</g>
<g opacity="0.535358">
<path fill-rule="evenodd" clip-rule="evenodd" d="M176.001 170.828L170.829 176L176.001 181.172L181.173 176L176.001 170.828ZM168 176L176.001 184.001L184.001 176L176.001 168L168 176Z" fill="#F3F4F6"/>
</g>
<g opacity="0.578355">
<path fill-rule="evenodd" clip-rule="evenodd" d="M208.001 170.828L202.829 176L208.001 181.172L213.173 176L208.001 170.828ZM200 176L208.001 184.001L216.001 176L208.001 168L200 176Z" fill="#F3F4F6"/>
</g>
<g opacity="0.292287">
<path fill-rule="evenodd" clip-rule="evenodd" d="M240.001 170.828L234.829 176L240.001 181.172L245.173 176L240.001 170.828ZM232 176L240.001 184.001L248.001 176L240.001 168L232 176Z" fill="#F3F4F6"/>
</g>
<g opacity="0.595">
<path fill-rule="evenodd" clip-rule="evenodd" d="M272.001 170.828L266.829 176L272.001 181.172L277.173 176L272.001 170.828ZM264 176L272.001 184.001L280.001 176L272.001 168L264 176Z" fill="#F3F4F6"/>
</g>
<g opacity="0.141427">
<path fill-rule="evenodd" clip-rule="evenodd" d="M304.001 170.828L298.829 176L304.001 181.172L309.173 176L304.001 170.828ZM296 176L304.001 184.001L312.001 176L304.001 168L296 176Z" fill="#F3F4F6"/>
</g>
<g opacity="0.200353">
<path fill-rule="evenodd" clip-rule="evenodd" d="M344 168H328V184H344V168ZM342 170H330V182H342V170Z" fill="#E5E7EB"/>
</g>
<g opacity="0.358263">
<path fill-rule="evenodd" clip-rule="evenodd" d="M368 182C371.314 182 374 179.314 374 176C374 172.686 371.314 170 368 170C364.686 170 362 172.686 362 176C362 179.314 364.686 182 368 182ZM368 184C372.418 184 376 180.418 376 176C376 171.582 372.418 168 368 168C363.582 168 360 171.582 360 176C360 180.418 363.582 184 368 184Z" fill="#F3F4F6"/>
</g>
<g opacity="0.668201">
<path fill-rule="evenodd" clip-rule="evenodd" d="M400.001 170.828L394.829 176L400.001 181.172L405.173 176L400.001 170.828ZM392 176L400.001 184.001L408.001 176L400.001 168L392 176Z" fill="#F3F4F6"/>
</g>
<g opacity="0.202896">
<path fill-rule="evenodd" clip-rule="evenodd" d="M432 182C435.314 182 438 179.314 438 176C438 172.686 435.314 170 432 170C428.686 170 426 172.686 426 176C426 179.314 428.686 182 432 182ZM432 184C436.418 184 440 180.418 440 176C440 171.582 436.418 168 432 168C427.582 168 424 171.582 424 176C424 180.418 427.582 184 432 184Z" fill="#F3F4F6"/>
</g>
<g opacity="0.412324">
<path fill-rule="evenodd" clip-rule="evenodd" d="M464.001 170.828L458.829 176L464.001 181.172L469.173 176L464.001 170.828ZM456 176L464.001 184.001L472.001 176L464.001 168L456 176Z" fill="#F3F4F6"/>
</g>
<g opacity="0.206425">
<path fill-rule="evenodd" clip-rule="evenodd" d="M496 182C499.314 182 502 179.314 502 176C502 172.686 499.314 170 496 170C492.686 170 490 172.686 490 176C490 179.314 492.686 182 496 182ZM496 184C500.418 184 504 180.418 504 176C504 171.582 500.418 168 496 168C491.582 168 488 171.582 488 176C488 180.418 491.582 184 496 184Z" fill="#F3F4F6"/>
</g>
<g opacity="0.156706">
<path fill-rule="evenodd" clip-rule="evenodd" d="M528 182C531.314 182 534 179.314 534 176C534 172.686 531.314 170 528 170C524.686 170 522 172.686 522 176C522 179.314 524.686 182 528 182ZM528 184C532.418 184 536 180.418 536 176C536 171.582 532.418 168 528 168C523.582 168 520 171.582 520 176C520 180.418 523.582 184 528 184Z" fill="#F3F4F6"/>
</g>
<g opacity="0.456795">
<path fill-rule="evenodd" clip-rule="evenodd" d="M560 182C563.314 182 566 179.314 566 176C566 172.686 563.314 170 560 170C556.686 170 554 172.686 554 176C554 179.314 556.686 182 560 182ZM560 184C564.418 184 568 180.418 568 176C568 171.582 564.418 168 560 168C555.582 168 552 171.582 552 176C552 180.418 555.582 184 560 184Z" fill="#F3F4F6"/>
</g>
<g opacity="0.314587">
<path fill-rule="evenodd" clip-rule="evenodd" d="M600 168H584V184H600V168ZM598 170H586V182H598V170Z" fill="#E5E7EB"/>
</g>
<g opacity="0.600545">
<path fill-rule="evenodd" clip-rule="evenodd" d="M624 182C627.314 182 630 179.314 630 176C630 172.686 627.314 170 624 170C620.686 170 618 172.686 618 176C618 179.314 620.686 182 624 182ZM624 184C628.418 184 632 180.418 632 176C632 171.582 628.418 168 624 168C619.582 168 616 171.582 616 176C616 180.418 619.582 184 624 184Z" fill="#F3F4F6"/>
</g>
<g opacity="0.71706">
<path fill-rule="evenodd" clip-rule="evenodd" d="M664 168H648V184H664V168ZM662 170H650V182H662V170Z" fill="#E5E7EB"/>
</g>
<g opacity="0.111803">
<path fill-rule="evenodd" clip-rule="evenodd" d="M688 182C691.314 182 694 179.314 694 176C694 172.686 691.314 170 688 170C684.686 170 682 172.686 682 176C682 179.314 684.686 182 688 182ZM688 184C692.418 184 696 180.418 696 176C696 171.582 692.418 168 688 168C683.582 168 680 171.582 680 176C680 180.418 683.582 184 688 184Z" fill="#F3F4F6"/>
</g>
<g opacity="0.495204">
<path fill-rule="evenodd" clip-rule="evenodd" d="M728 168H712V184H728V168ZM726 170H714V182H726V170Z" fill="#E5E7EB"/>
</g>
<g opacity="0.553108">
<path fill-rule="evenodd" clip-rule="evenodd" d="M760 168H744V184H760V168ZM758 170H746V182H758V170Z" fill="#E5E7EB"/>
</g>
<g opacity="0.750167">
<path fill-rule="evenodd" clip-rule="evenodd" d="M784 182C787.314 182 790 179.314 790 176C790 172.686 787.314 170 784 170C780.686 170 778 172.686 778 176C778 179.314 780.686 182 784 182ZM784 184C788.418 184 792 180.418 792 176C792 171.582 788.418 168 784 168C779.582 168 776 171.582 776 176C776 180.418 779.582 184 784 184Z" fill="#F3F4F6"/>
</g>
<g opacity="0.303933">
<path fill-rule="evenodd" clip-rule="evenodd" d="M816 182C819.314 182 822 179.314 822 176C822 172.686 819.314 170 816 170C812.686 170 810 172.686 810 176C810 179.314 812.686 182 816 182ZM816 184C820.418 184 824 180.418 824 176C824 171.582 820.418 168 816 168C811.582 168 808 171.582 808 176C808 180.418 811.582 184 816 184Z" fill="#F3F4F6"/>
</g>
<g opacity="0.786079">
<path fill-rule="evenodd" clip-rule="evenodd" d="M848 182C851.314 182 854 179.314 854 176C854 172.686 851.314 170 848 170C844.686 170 842 172.686 842 176C842 179.314 844.686 182 848 182ZM848 184C852.418 184 856 180.418 856 176C856 171.582 852.418 168 848 168C843.582 168 840 171.582 840 176C840 180.418 843.582 184 848 184Z" fill="#F3F4F6"/>
</g>
<g opacity="0.561682">
<path fill-rule="evenodd" clip-rule="evenodd" d="M880 182C883.314 182 886 179.314 886 176C886 172.686 883.314 170 880 170C876.686 170 874 172.686 874 176C874 179.314 876.686 182 880 182ZM880 184C884.418 184 888 180.418 888 176C888 171.582 884.418 168 880 168C875.582 168 872 171.582 872 176C872 180.418 875.582 184 880 184Z" fill="#F3F4F6"/>
</g>
<g opacity="0.495145">
<path fill-rule="evenodd" clip-rule="evenodd" d="M912.001 170.828L906.829 176L912.001 181.172L917.173 176L912.001 170.828ZM904 176L912.001 184.001L920.001 176L912.001 168L904 176Z" fill="#F3F4F6"/>
</g>
<g opacity="0.693798">
<path fill-rule="evenodd" clip-rule="evenodd" d="M944 182C947.314 182 950 179.314 950 176C950 172.686 947.314 170 944 170C940.686 170 938 172.686 938 176C938 179.314 940.686 182 944 182ZM944 184C948.418 184 952 180.418 952 176C952 171.582 948.418 168 944 168C939.582 168 936 171.582 936 176C936 180.418 939.582 184 944 184Z" fill="#F3F4F6"/>
</g>
<g opacity="0.178187">
<path fill-rule="evenodd" clip-rule="evenodd" d="M976 182C979.314 182 982 179.314 982 176C982 172.686 979.314 170 976 170C972.686 170 970 172.686 970 176C970 179.314 972.686 182 976 182ZM976 184C980.418 184 984 180.418 984 176C984 171.582 980.418 168 976 168C971.582 168 968 171.582 968 176C968 180.418 971.582 184 976 184Z" fill="#F3F4F6"/>
</g>
<g opacity="0.303446">
<path fill-rule="evenodd" clip-rule="evenodd" d="M1016 168H1000V184H1016V168ZM1014 170H1002V182H1014V170Z" fill="#E5E7EB"/>
</g>
<g opacity="0.119446">
<path fill-rule="evenodd" clip-rule="evenodd" d="M1040 170.828L1034.83 176L1040 181.172L1045.17 176L1040 170.828ZM1032 176L1040 184.001L1048 176L1040 168L1032 176Z" fill="#F3F4F6"/>
</g>
<g opacity="0.107894">
<path fill-rule="evenodd" clip-rule="evenodd" d="M1072 182C1075.31 182 1078 179.314 1078 176C1078 172.686 1075.31 170 1072 170C1068.69 170 1066 172.686 1066 176C1066 179.314 1068.69 182 1072 182ZM1072 184C1076.42 184 1080 180.418 1080 176C1080 171.582 1076.42 168 1072 168C1067.58 168 1064 171.582 1064 176C1064 180.418 1067.58 184 1072 184Z" fill="#F3F4F6"/>
</g>
<g opacity="0.153995">
<path fill-rule="evenodd" clip-rule="evenodd" d="M1112 168H1096V184H1112V168ZM1110 170H1098V182H1110V170Z" fill="#E5E7EB"/>
</g>
<g opacity="0.199895">
<path fill-rule="evenodd" clip-rule="evenodd" d="M1144 168H1128V184H1144V168ZM1142 170H1130V182H1142V170Z" fill="#E5E7EB"/>
</g>
<g opacity="0.466565">
<path fill-rule="evenodd" clip-rule="evenodd" d="M1168 182C1171.31 182 1174 179.314 1174 176C1174 172.686 1171.31 170 1168 170C1164.69 170 1162 172.686 1162 176C1162 179.314 1164.69 182 1168 182ZM1168 184C1172.42 184 1176 180.418 1176 176C1176 171.582 1172.42 168 1168 168C1163.58 168 1160 171.582 1160 176C1160 180.418 1163.58 184 1168 184Z" fill="#F3F4F6"/>
</g>
<g opacity="0.544485">
<path fill-rule="evenodd" clip-rule="evenodd" d="M1208 168H1192V184H1208V168ZM1206 170H1194V182H1206V170Z" fill="#E5E7EB"/>
</g>
<g opacity="0.787878">
<path fill-rule="evenodd" clip-rule="evenodd" d="M1240 168H1224V184H1240V168ZM1238 170H1226V182H1238V170Z" fill="#E5E7EB"/>
</g>
<g opacity="0.438591">
<path fill-rule="evenodd" clip-rule="evenodd" d="M1264 170.828L1258.83 176L1264 181.172L1269.17 176L1264 170.828ZM1256 176L1264 184.001L1272 176L1264 168L1256 176Z" fill="#F3F4F6"/>
</g>
<g opacity="0.511232">
<path fill-rule="evenodd" clip-rule="evenodd" d="M1296 182C1299.31 182 1302 179.314 1302 176C1302 172.686 1299.31 170 1296 170C1292.69 170 1290 172.686 1290 176C1290 179.314 1292.69 182 1296 182ZM1296 184C1300.42 184 1304 180.418 1304 176C1304 171.582 1300.42 168 1296 168C1291.58 168 1288 171.582 1288 176C1288 180.418 1291.58 184 1296 184Z" fill="#F3F4F6"/>
</g>
<g opacity="0.655747">
<path fill-rule="evenodd" clip-rule="evenodd" d="M1336 168H1320V184H1336V168ZM1334 170H1322V182H1334V170Z" fill="#E5E7EB"/>
</g>
<g opacity="0.38858">
<path fill-rule="evenodd" clip-rule="evenodd" d="M1368 168H1352V184H1368V168ZM1366 170H1354V182H1366V170Z" fill="#E5E7EB"/>
</g>
<g filter="url(#filter0_f_15600_4740)">
<rect y="88" width="536" height="100" fill="white"/>
</g>
<mask id="mask0_15600_4740" style="mask-type:alpha" maskUnits="userSpaceOnUse" x="496" y="-458" width="1121" height="666">
<rect x="1616.37" y="208" width="1120.37" height="666" transform="rotate(-180 1616.37 208)" fill="url(#paint0_radial_15600_4740)" fill-opacity="0.8"/>
</mask>
<g mask="url(#mask0_15600_4740)">
<circle opacity="0.2" cx="1056.19" cy="-195.024" r="230.299" transform="rotate(-180 1056.19 -195.024)" fill="#4F46E5" fill-opacity="0.2" stroke="#4F46E5" stroke-width="0.778037" stroke-linecap="round" stroke-linejoin="round"/>
<circle opacity="0.2" cx="1056.19" cy="-195.024" r="267.645" transform="rotate(-180 1056.19 -195.024)" fill="#4F46E5" fill-opacity="0.2" stroke="#4F46E5" stroke-width="0.778037" stroke-linecap="round" stroke-linejoin="round"/>
<circle opacity="0.2" cx="1056.19" cy="-195.024" r="304.991" transform="rotate(-180 1056.19 -195.024)" fill="#4F46E5" fill-opacity="0.4" stroke="#4F46E5" stroke-width="0.778037" stroke-linecap="round" stroke-linejoin="round"/>
<circle opacity="0.2" cx="1056.19" cy="-195.024" r="342.336" transform="rotate(-180 1056.19 -195.024)" fill="#4F46E5" fill-opacity="0.2" stroke="#4F46E5" stroke-width="0.778037" stroke-linecap="round" stroke-linejoin="round"/>
<circle opacity="0.2" cx="1056.19" cy="-195.024" r="379.682" transform="rotate(-180 1056.19 -195.024)" fill="#4F46E5" fill-opacity="0.2" stroke="#4F46E5" stroke-width="0.778037" stroke-linecap="round" stroke-linejoin="round"/>
<circle opacity="0.2" cx="1056.19" cy="-195.024" r="417.028" transform="rotate(-180 1056.19 -195.024)" stroke="#4F46E5" stroke-width="0.778037" stroke-linecap="round" stroke-linejoin="round"/>
<path opacity="0.2" d="M601.813 -195.024C601.813 -445.967 805.243 -649.397 1056.19 -649.397C1307.13 -649.397 1510.56 -445.967 1510.56 -195.024C1510.56 55.9202 1307.13 259.35 1056.19 259.35C805.243 259.35 601.813 55.9201 601.813 -195.024Z" fill="#4F46E5" fill-opacity="0.2" stroke="#4F46E5" stroke-width="0.778037" stroke-linecap="round" stroke-linejoin="round"/>
<circle opacity="0.2" cx="1056.19" cy="-195.024" r="491.72" transform="rotate(-180 1056.19 -195.024)" stroke="#4F46E5" stroke-width="0.778037" stroke-linecap="round" stroke-linejoin="round"/>
<circle opacity="0.2" cx="1056.19" cy="-195.024" r="529.065" transform="rotate(-180 1056.19 -195.024)" stroke="#4F46E5" stroke-width="0.778037" stroke-linecap="round" stroke-linejoin="round"/>
<circle opacity="0.2" cx="1056.19" cy="-195.024" r="566.411" transform="rotate(-180 1056.19 -195.024)" stroke="#4F46E5" stroke-width="0.778037" stroke-linecap="round" stroke-linejoin="round"/>
<circle opacity="0.2" cx="1056.19" cy="-195.024" r="603.757" transform="rotate(-180 1056.19 -195.024)" stroke="#4F46E5" stroke-width="0.778037" stroke-linecap="round" stroke-linejoin="round"/>
<circle opacity="0.2" cx="1056.19" cy="-195.023" r="641.103" transform="rotate(-180 1056.19 -195.023)" stroke="#4F46E5" stroke-width="0.778037" stroke-linecap="round" stroke-linejoin="round"/>
<g opacity="0.5">
<mask id="mask1_15600_4740" style="mask-type:alpha" maskUnits="userSpaceOnUse" x="424" y="-550" width="911" height="911">
<ellipse cx="879.582" cy="-94.057" rx="454.95" ry="454.95" transform="rotate(-120 879.582 -94.057)" fill="url(#paint1_radial_15600_4740)"/>
</mask>
<g mask="url(#mask1_15600_4740)">
<g filter="url(#filter1_f_15600_4740)">
<path d="M770.087 401.328L1055.4 -195.011L545.714 242.465L770.087 401.328Z" fill="url(#paint2_linear_15600_4740)" fill-opacity="0.7"/>
<path d="M770.087 401.328L1055.4 -195.011L545.714 242.465L770.087 401.328Z" fill="url(#paint3_linear_15600_4740)"/>
<path d="M770.087 401.328L1055.4 -195.011L545.714 242.465L770.087 401.328Z" stroke="url(#paint4_radial_15600_4740)" stroke-opacity="0.3" stroke-width="1.14309"/>
</g>
</g>
</g>
</g>
</g>
<defs>
<filter id="filter0_f_15600_4740" x="-52" y="36" width="640" height="204" filterUnits="userSpaceOnUse" color-interpolation-filters="sRGB">
<feFlood flood-opacity="0" result="BackgroundImageFix"/>
<feBlend mode="normal" in="SourceGraphic" in2="BackgroundImageFix" result="shape"/>
<feGaussianBlur stdDeviation="26" result="effect1_foregroundBlur_15600_4740"/>
</filter>
<filter id="filter1_f_15600_4740" x="544.215" y="-196.017" width="512.268" height="598.774" filterUnits="userSpaceOnUse" color-interpolation-filters="sRGB">
<feFlood flood-opacity="0" result="BackgroundImageFix"/>
<feBlend mode="normal" in="SourceGraphic" in2="BackgroundImageFix" result="shape"/>
<feGaussianBlur stdDeviation="0.285773" result="effect1_foregroundBlur_15600_4740"/>
</filter>
<radialGradient id="paint0_radial_15600_4740" cx="0" cy="0" r="1" gradientUnits="userSpaceOnUse" gradientTransform="translate(2176.56 213.853) rotate(90) scale(660.146 1219.43)">
<stop stop-color="#D9D9D9"/>
<stop offset="0.757212" stop-color="#D9D9D9" stop-opacity="0"/>
</radialGradient>
<radialGradient id="paint1_radial_15600_4740" cx="0" cy="0" r="1" gradientUnits="userSpaceOnUse" gradientTransform="translate(879.581 -24.3285) rotate(90) scale(385.222 1122.74)">
<stop offset="0.189266" stop-color="#D9D9D9"/>
<stop offset="1" stop-color="#D9D9D9" stop-opacity="0"/>
</radialGradient>
<linearGradient id="paint2_linear_15600_4740" x1="981.657" y1="-54.1039" x2="935.567" y2="-88.2104" gradientUnits="userSpaceOnUse">
<stop stop-color="#0E00F8"/>
<stop offset="1" stop-color="#B9BAC0" stop-opacity="0"/>
</linearGradient>
<linearGradient id="paint3_linear_15600_4740" x1="738.289" y1="345.11" x2="1105.44" y2="-244.362" gradientUnits="userSpaceOnUse">
<stop offset="0.00362577" stop-color="white"/>
<stop offset="0.667221" stop-color="white" stop-opacity="0"/>
<stop offset="1" stop-color="white"/>
</linearGradient>
<radialGradient id="paint4_radial_15600_4740" cx="0" cy="0" r="1" gradientUnits="userSpaceOnUse" gradientTransform="translate(978.627 -2.19728) rotate(-136.767) scale(186.24 696.064)">
<stop offset="0.217599"/>
<stop offset="0.462799" stop-opacity="0"/>
</radialGradient>
<clipPath id="clip0_15600_4740">
<rect width="1376" height="200" fill="white"/>
</clipPath>
</defs>
</svg>
