<svg width="1376" height="148" viewBox="0 0 1376 148" fill="none" xmlns="http://www.w3.org/2000/svg">
<g clip-path="url(#clip0_15420_10677)">
<g opacity="0.703161">
<path fill-rule="evenodd" clip-rule="evenodd" d="M16 0H0V16H16V0ZM14 2H2V14H14V2Z" fill="#E5E7EB"/>
</g>
<g opacity="0.270578">
<path fill-rule="evenodd" clip-rule="evenodd" d="M40.0005 2.82819L34.8284 8.00024L40.0005 13.1723L45.1725 8.00024L40.0005 2.82819ZM32 8.00024L40.0005 16.0007L48.001 8.00024L40.0005 -0.000232351L32 8.00024Z" fill="#F3F4F6"/>
</g>
<g opacity="0.283665">
<path fill-rule="evenodd" clip-rule="evenodd" d="M80 0H64V16H80V0ZM78 2H66V14H78V2Z" fill="#E5E7EB"/>
</g>
<g opacity="0.470629">
<path fill-rule="evenodd" clip-rule="evenodd" d="M112 0H96V16H112V0ZM110 2H98V14H110V2Z" fill="#E5E7EB"/>
</g>
<g opacity="0.501142">
<path fill-rule="evenodd" clip-rule="evenodd" d="M144 0H128V16H144V0ZM142 2H130V14H142V2Z" fill="#E5E7EB"/>
</g>
<g opacity="0.613452">
<path fill-rule="evenodd" clip-rule="evenodd" d="M168 2.82819L162.828 8.00024L168 13.1723L173.173 8.00024L168 2.82819ZM160 8.00024L168 16.0007L176.001 8.00024L168 -0.000232351L160 8.00024Z" fill="#F3F4F6"/>
</g>
<g opacity="0.206702">
<path fill-rule="evenodd" clip-rule="evenodd" d="M208 0H192V16H208V0ZM206 2H194V14H206V2Z" fill="#E5E7EB"/>
</g>
<g opacity="0.478587">
<path fill-rule="evenodd" clip-rule="evenodd" d="M232 2.82819L226.828 8.00024L232 13.1723L237.173 8.00024L232 2.82819ZM224 8.00024L232 16.0007L240.001 8.00024L232 -0.000232351L224 8.00024Z" fill="#F3F4F6"/>
</g>
<g opacity="0.342222">
<path fill-rule="evenodd" clip-rule="evenodd" d="M272 0H256V16H272V0ZM270 2H258V14H270V2Z" fill="#E5E7EB"/>
</g>
<g opacity="0.385356">
<path fill-rule="evenodd" clip-rule="evenodd" d="M304 0H288V16H304V0ZM302 2H290V14H302V2Z" fill="#E5E7EB"/>
</g>
<g opacity="0.521581">
<path fill-rule="evenodd" clip-rule="evenodd" d="M328 14C331.314 14 334 11.3137 334 8C334 4.68629 331.314 2 328 2C324.686 2 322 4.68629 322 8C322 11.3137 324.686 14 328 14ZM328 16C332.418 16 336 12.4183 336 8C336 3.58172 332.418 0 328 0C323.582 0 320 3.58172 320 8C320 12.4183 323.582 16 328 16Z" fill="#F3F4F6"/>
</g>
<g opacity="0.345053">
<path fill-rule="evenodd" clip-rule="evenodd" d="M368 0H352V16H368V0ZM366 2H354V14H366V2Z" fill="#E5E7EB"/>
</g>
<g opacity="0.501607">
<path fill-rule="evenodd" clip-rule="evenodd" d="M392 2.82819L386.828 8.00024L392 13.1723L397.173 8.00024L392 2.82819ZM384 8.00024L392 16.0007L400.001 8.00024L392 -0.000232351L384 8.00024Z" fill="#F3F4F6"/>
</g>
<g opacity="0.441576">
<path fill-rule="evenodd" clip-rule="evenodd" d="M432 0H416V16H432V0ZM430 2H418V14H430V2Z" fill="#E5E7EB"/>
</g>
<g opacity="0.536017">
<path fill-rule="evenodd" clip-rule="evenodd" d="M456 2.82819L450.828 8.00024L456 13.1723L461.173 8.00024L456 2.82819ZM448 8.00024L456 16.0007L464.001 8.00024L456 -0.000232351L448 8.00024Z" fill="#F3F4F6"/>
</g>
<g opacity="0.260721">
<path fill-rule="evenodd" clip-rule="evenodd" d="M488 14C491.314 14 494 11.3137 494 8C494 4.68629 491.314 2 488 2C484.686 2 482 4.68629 482 8C482 11.3137 484.686 14 488 14ZM488 16C492.418 16 496 12.4183 496 8C496 3.58172 492.418 0 488 0C483.582 0 480 3.58172 480 8C480 12.4183 483.582 16 488 16Z" fill="#F3F4F6"/>
</g>
<g opacity="0.753161">
<path fill-rule="evenodd" clip-rule="evenodd" d="M520 2.82819L514.828 8.00024L520 13.1723L525.173 8.00024L520 2.82819ZM512 8.00024L520 16.0007L528.001 8.00024L520 -0.000232351L512 8.00024Z" fill="#F3F4F6"/>
</g>
<g opacity="0.300477">
<path fill-rule="evenodd" clip-rule="evenodd" d="M552 2.82819L546.828 8.00024L552 13.1723L557.173 8.00024L552 2.82819ZM544 8.00024L552 16.0007L560.001 8.00024L552 -0.000232351L544 8.00024Z" fill="#F3F4F6"/>
</g>
<g opacity="0.412501">
<path fill-rule="evenodd" clip-rule="evenodd" d="M584 14C587.314 14 590 11.3137 590 8C590 4.68629 587.314 2 584 2C580.686 2 578 4.68629 578 8C578 11.3137 580.686 14 584 14ZM584 16C588.418 16 592 12.4183 592 8C592 3.58172 588.418 0 584 0C579.582 0 576 3.58172 576 8C576 12.4183 579.582 16 584 16Z" fill="#F3F4F6"/>
</g>
<g opacity="0.375715">
<path fill-rule="evenodd" clip-rule="evenodd" d="M616 2.82819L610.828 8.00024L616 13.1723L621.173 8.00024L616 2.82819ZM608 8.00024L616 16.0007L624.001 8.00024L616 -0.000232351L608 8.00024Z" fill="#F3F4F6"/>
</g>
<g opacity="0.192725">
<path fill-rule="evenodd" clip-rule="evenodd" d="M648 14C651.314 14 654 11.3137 654 8C654 4.68629 651.314 2 648 2C644.686 2 642 4.68629 642 8C642 11.3137 644.686 14 648 14ZM648 16C652.418 16 656 12.4183 656 8C656 3.58172 652.418 0 648 0C643.582 0 640 3.58172 640 8C640 12.4183 643.582 16 648 16Z" fill="#F3F4F6"/>
</g>
<g opacity="0.543136">
<path fill-rule="evenodd" clip-rule="evenodd" d="M680 14C683.314 14 686 11.3137 686 8C686 4.68629 683.314 2 680 2C676.686 2 674 4.68629 674 8C674 11.3137 676.686 14 680 14ZM680 16C684.418 16 688 12.4183 688 8C688 3.58172 684.418 0 680 0C675.582 0 672 3.58172 672 8C672 12.4183 675.582 16 680 16Z" fill="#F3F4F6"/>
</g>
<g opacity="0.194589">
<path fill-rule="evenodd" clip-rule="evenodd" d="M712 2.82819L706.828 8.00024L712 13.1723L717.173 8.00024L712 2.82819ZM704 8.00024L712 16.0007L720.001 8.00024L712 -0.000232351L704 8.00024Z" fill="#F3F4F6"/>
</g>
<g opacity="0.574507">
<path fill-rule="evenodd" clip-rule="evenodd" d="M744 2.82819L738.828 8.00024L744 13.1723L749.173 8.00024L744 2.82819ZM736 8.00024L744 16.0007L752.001 8.00024L744 -0.000232351L736 8.00024Z" fill="#F3F4F6"/>
</g>
<g opacity="0.131824">
<path fill-rule="evenodd" clip-rule="evenodd" d="M776 14C779.314 14 782 11.3137 782 8C782 4.68629 779.314 2 776 2C772.686 2 770 4.68629 770 8C770 11.3137 772.686 14 776 14ZM776 16C780.418 16 784 12.4183 784 8C784 3.58172 780.418 0 776 0C771.582 0 768 3.58172 768 8C768 12.4183 771.582 16 776 16Z" fill="#F3F4F6"/>
</g>
<g opacity="0.685691">
<path fill-rule="evenodd" clip-rule="evenodd" d="M808 14C811.314 14 814 11.3137 814 8C814 4.68629 811.314 2 808 2C804.686 2 802 4.68629 802 8C802 11.3137 804.686 14 808 14ZM808 16C812.418 16 816 12.4183 816 8C816 3.58172 812.418 0 808 0C803.582 0 800 3.58172 800 8C800 12.4183 803.582 16 808 16Z" fill="#F3F4F6"/>
</g>
<g opacity="0.733199">
<path fill-rule="evenodd" clip-rule="evenodd" d="M840 14C843.314 14 846 11.3137 846 8C846 4.68629 843.314 2 840 2C836.686 2 834 4.68629 834 8C834 11.3137 836.686 14 840 14ZM840 16C844.418 16 848 12.4183 848 8C848 3.58172 844.418 0 840 0C835.582 0 832 3.58172 832 8C832 12.4183 835.582 16 840 16Z" fill="#F3F4F6"/>
</g>
<g opacity="0.144745">
<path fill-rule="evenodd" clip-rule="evenodd" d="M872 2.82819L866.828 8.00024L872 13.1723L877.173 8.00024L872 2.82819ZM864 8.00024L872 16.0007L880.001 8.00024L872 -0.000232351L864 8.00024Z" fill="#F3F4F6"/>
</g>
<g opacity="0.288104">
<path fill-rule="evenodd" clip-rule="evenodd" d="M904 2.82819L898.828 8.00024L904 13.1723L909.173 8.00024L904 2.82819ZM896 8.00024L904 16.0007L912.001 8.00024L904 -0.000232351L896 8.00024Z" fill="#F3F4F6"/>
</g>
<g opacity="0.147856">
<path fill-rule="evenodd" clip-rule="evenodd" d="M944 0H928V16H944V0ZM942 2H930V14H942V2Z" fill="#E5E7EB"/>
</g>
<g opacity="0.236452">
<path fill-rule="evenodd" clip-rule="evenodd" d="M968 14C971.314 14 974 11.3137 974 8C974 4.68629 971.314 2 968 2C964.686 2 962 4.68629 962 8C962 11.3137 964.686 14 968 14ZM968 16C972.418 16 976 12.4183 976 8C976 3.58172 972.418 0 968 0C963.582 0 960 3.58172 960 8C960 12.4183 963.582 16 968 16Z" fill="#F3F4F6"/>
</g>
<g opacity="0.526578">
<path fill-rule="evenodd" clip-rule="evenodd" d="M1008 0H992V16H1008V0ZM1006 2H994V14H1006V2Z" fill="#E5E7EB"/>
</g>
<g opacity="0.111896">
<path fill-rule="evenodd" clip-rule="evenodd" d="M1040 0H1024V16H1040V0ZM1038 2H1026V14H1038V2Z" fill="#E5E7EB"/>
</g>
<g opacity="0.581681">
<path fill-rule="evenodd" clip-rule="evenodd" d="M1064 2.82819L1058.83 8.00024L1064 13.1723L1069.17 8.00024L1064 2.82819ZM1056 8.00024L1064 16.0007L1072 8.00024L1064 -0.000232351L1056 8.00024Z" fill="#F3F4F6"/>
</g>
<g opacity="0.325269">
<path fill-rule="evenodd" clip-rule="evenodd" d="M1096 14C1099.31 14 1102 11.3137 1102 8C1102 4.68629 1099.31 2 1096 2C1092.69 2 1090 4.68629 1090 8C1090 11.3137 1092.69 14 1096 14ZM1096 16C1100.42 16 1104 12.4183 1104 8C1104 3.58172 1100.42 0 1096 0C1091.58 0 1088 3.58172 1088 8C1088 12.4183 1091.58 16 1096 16Z" fill="#F3F4F6"/>
</g>
<g opacity="0.71066">
<path fill-rule="evenodd" clip-rule="evenodd" d="M1128 2.82819L1122.83 8.00024L1128 13.1723L1133.17 8.00024L1128 2.82819ZM1120 8.00024L1128 16.0007L1136 8.00024L1128 -0.000232351L1120 8.00024Z" fill="#F3F4F6"/>
</g>
<g opacity="0.283845">
<path fill-rule="evenodd" clip-rule="evenodd" d="M1160 2.82819L1154.83 8.00024L1160 13.1723L1165.17 8.00024L1160 2.82819ZM1152 8.00024L1160 16.0007L1168 8.00024L1160 -0.000232351L1152 8.00024Z" fill="#F3F4F6"/>
</g>
<g opacity="0.364952">
<path fill-rule="evenodd" clip-rule="evenodd" d="M1192 14C1195.31 14 1198 11.3137 1198 8C1198 4.68629 1195.31 2 1192 2C1188.69 2 1186 4.68629 1186 8C1186 11.3137 1188.69 14 1192 14ZM1192 16C1196.42 16 1200 12.4183 1200 8C1200 3.58172 1196.42 0 1192 0C1187.58 0 1184 3.58172 1184 8C1184 12.4183 1187.58 16 1192 16Z" fill="#F3F4F6"/>
</g>
<g opacity="0.492992">
<path fill-rule="evenodd" clip-rule="evenodd" d="M1224 2.82819L1218.83 8.00024L1224 13.1723L1229.17 8.00024L1224 2.82819ZM1216 8.00024L1224 16.0007L1232 8.00024L1224 -0.000232351L1216 8.00024Z" fill="#F3F4F6"/>
</g>
<g opacity="0.542056">
<path fill-rule="evenodd" clip-rule="evenodd" d="M1256 14C1259.31 14 1262 11.3137 1262 8C1262 4.68629 1259.31 2 1256 2C1252.69 2 1250 4.68629 1250 8C1250 11.3137 1252.69 14 1256 14ZM1256 16C1260.42 16 1264 12.4183 1264 8C1264 3.58172 1260.42 0 1256 0C1251.58 0 1248 3.58172 1248 8C1248 12.4183 1251.58 16 1256 16Z" fill="#F3F4F6"/>
</g>
<g opacity="0.473132">
<path fill-rule="evenodd" clip-rule="evenodd" d="M1296 0H1280V16H1296V0ZM1294 2H1282V14H1294V2Z" fill="#E5E7EB"/>
</g>
<g opacity="0.159845">
<path fill-rule="evenodd" clip-rule="evenodd" d="M1320 14C1323.31 14 1326 11.3137 1326 8C1326 4.68629 1323.31 2 1320 2C1316.69 2 1314 4.68629 1314 8C1314 11.3137 1316.69 14 1320 14ZM1320 16C1324.42 16 1328 12.4183 1328 8C1328 3.58172 1324.42 0 1320 0C1315.58 0 1312 3.58172 1312 8C1312 12.4183 1315.58 16 1320 16Z" fill="#F3F4F6"/>
</g>
<g opacity="0.313075">
<path fill-rule="evenodd" clip-rule="evenodd" d="M1352 2.82819L1346.83 8.00024L1352 13.1723L1357.17 8.00024L1352 2.82819ZM1344 8.00024L1352 16.0007L1360 8.00024L1352 -0.000232351L1344 8.00024Z" fill="#F3F4F6"/>
</g>
<g opacity="0.362616">
<path fill-rule="evenodd" clip-rule="evenodd" d="M8 46C11.3137 46 14 43.3137 14 40C14 36.6863 11.3137 34 8 34C4.68629 34 2 36.6863 2 40C2 43.3137 4.68629 46 8 46ZM8 48C12.4183 48 16 44.4183 16 40C16 35.5817 12.4183 32 8 32C3.58172 32 0 35.5817 0 40C0 44.4183 3.58172 48 8 48Z" fill="#F3F4F6"/>
</g>
<g opacity="0.269249">
<path fill-rule="evenodd" clip-rule="evenodd" d="M40.0005 34.8282L34.8284 40.0002L40.0005 45.1723L45.1725 40.0002L40.0005 34.8282ZM32 40.0002L40.0005 48.0007L48.001 40.0002L40.0005 31.9998L32 40.0002Z" fill="#F3F4F6"/>
</g>
<g opacity="0.654836">
<path fill-rule="evenodd" clip-rule="evenodd" d="M72.0005 34.8282L66.8284 40.0002L72.0005 45.1723L77.1725 40.0002L72.0005 34.8282ZM64 40.0002L72.0005 48.0007L80.001 40.0002L72.0005 31.9998L64 40.0002Z" fill="#F3F4F6"/>
</g>
<g opacity="0.509127">
<path fill-rule="evenodd" clip-rule="evenodd" d="M104 46C107.314 46 110 43.3137 110 40C110 36.6863 107.314 34 104 34C100.686 34 98 36.6863 98 40C98 43.3137 100.686 46 104 46ZM104 48C108.418 48 112 44.4183 112 40C112 35.5817 108.418 32 104 32C99.5817 32 96 35.5817 96 40C96 44.4183 99.5817 48 104 48Z" fill="#F3F4F6"/>
</g>
<g opacity="0.785758">
<path fill-rule="evenodd" clip-rule="evenodd" d="M136 34.8282L130.828 40.0002L136 45.1723L141.173 40.0002L136 34.8282ZM128 40.0002L136 48.0007L144.001 40.0002L136 31.9998L128 40.0002Z" fill="#F3F4F6"/>
</g>
<g opacity="0.338942">
<path fill-rule="evenodd" clip-rule="evenodd" d="M176 32H160V48H176V32ZM174 34H162V46H174V34Z" fill="#E5E7EB"/>
</g>
<g opacity="0.160156">
<path fill-rule="evenodd" clip-rule="evenodd" d="M200 46C203.314 46 206 43.3137 206 40C206 36.6863 203.314 34 200 34C196.686 34 194 36.6863 194 40C194 43.3137 196.686 46 200 46ZM200 48C204.418 48 208 44.4183 208 40C208 35.5817 204.418 32 200 32C195.582 32 192 35.5817 192 40C192 44.4183 195.582 48 200 48Z" fill="#F3F4F6"/>
</g>
<g opacity="0.458394">
<path fill-rule="evenodd" clip-rule="evenodd" d="M240 32H224V48H240V32ZM238 34H226V46H238V34Z" fill="#E5E7EB"/>
</g>
<g opacity="0.116566">
<path fill-rule="evenodd" clip-rule="evenodd" d="M264 46C267.314 46 270 43.3137 270 40C270 36.6863 267.314 34 264 34C260.686 34 258 36.6863 258 40C258 43.3137 260.686 46 264 46ZM264 48C268.418 48 272 44.4183 272 40C272 35.5817 268.418 32 264 32C259.582 32 256 35.5817 256 40C256 44.4183 259.582 48 264 48Z" fill="#F3F4F6"/>
</g>
<g opacity="0.519855">
<path fill-rule="evenodd" clip-rule="evenodd" d="M296 46C299.314 46 302 43.3137 302 40C302 36.6863 299.314 34 296 34C292.686 34 290 36.6863 290 40C290 43.3137 292.686 46 296 46ZM296 48C300.418 48 304 44.4183 304 40C304 35.5817 300.418 32 296 32C291.582 32 288 35.5817 288 40C288 44.4183 291.582 48 296 48Z" fill="#F3F4F6"/>
</g>
<g opacity="0.317179">
<path fill-rule="evenodd" clip-rule="evenodd" d="M328 34.8282L322.828 40.0002L328 45.1723L333.173 40.0002L328 34.8282ZM320 40.0002L328 48.0007L336.001 40.0002L328 31.9998L320 40.0002Z" fill="#F3F4F6"/>
</g>
<g opacity="0.784538">
<path fill-rule="evenodd" clip-rule="evenodd" d="M360 34.8282L354.828 40.0002L360 45.1723L365.173 40.0002L360 34.8282ZM352 40.0002L360 48.0007L368.001 40.0002L360 31.9998L352 40.0002Z" fill="#F3F4F6"/>
</g>
<g opacity="0.2131">
<path fill-rule="evenodd" clip-rule="evenodd" d="M400 32H384V48H400V32ZM398 34H386V46H398V34Z" fill="#E5E7EB"/>
</g>
<g opacity="0.597589">
<path fill-rule="evenodd" clip-rule="evenodd" d="M424 46C427.314 46 430 43.3137 430 40C430 36.6863 427.314 34 424 34C420.686 34 418 36.6863 418 40C418 43.3137 420.686 46 424 46ZM424 48C428.418 48 432 44.4183 432 40C432 35.5817 428.418 32 424 32C419.582 32 416 35.5817 416 40C416 44.4183 419.582 48 424 48Z" fill="#F3F4F6"/>
</g>
<g opacity="0.278915">
<path fill-rule="evenodd" clip-rule="evenodd" d="M456 46C459.314 46 462 43.3137 462 40C462 36.6863 459.314 34 456 34C452.686 34 450 36.6863 450 40C450 43.3137 452.686 46 456 46ZM456 48C460.418 48 464 44.4183 464 40C464 35.5817 460.418 32 456 32C451.582 32 448 35.5817 448 40C448 44.4183 451.582 48 456 48Z" fill="#F3F4F6"/>
</g>
<g opacity="0.596449">
<path fill-rule="evenodd" clip-rule="evenodd" d="M496 32H480V48H496V32ZM494 34H482V46H494V34Z" fill="#E5E7EB"/>
</g>
<g opacity="0.574335">
<path fill-rule="evenodd" clip-rule="evenodd" d="M520 34.8282L514.828 40.0002L520 45.1723L525.173 40.0002L520 34.8282ZM512 40.0002L520 48.0007L528.001 40.0002L520 31.9998L512 40.0002Z" fill="#F3F4F6"/>
</g>
<g opacity="0.356316">
<path fill-rule="evenodd" clip-rule="evenodd" d="M552 34.8282L546.828 40.0002L552 45.1723L557.173 40.0002L552 34.8282ZM544 40.0002L552 48.0007L560.001 40.0002L552 31.9998L544 40.0002Z" fill="#F3F4F6"/>
</g>
<g opacity="0.391579">
<path fill-rule="evenodd" clip-rule="evenodd" d="M592 32H576V48H592V32ZM590 34H578V46H590V34Z" fill="#E5E7EB"/>
</g>
<g opacity="0.667607">
<path fill-rule="evenodd" clip-rule="evenodd" d="M616 46C619.314 46 622 43.3137 622 40C622 36.6863 619.314 34 616 34C612.686 34 610 36.6863 610 40C610 43.3137 612.686 46 616 46ZM616 48C620.418 48 624 44.4183 624 40C624 35.5817 620.418 32 616 32C611.582 32 608 35.5817 608 40C608 44.4183 611.582 48 616 48Z" fill="#F3F4F6"/>
</g>
<g opacity="0.782268">
<path fill-rule="evenodd" clip-rule="evenodd" d="M648 46C651.314 46 654 43.3137 654 40C654 36.6863 651.314 34 648 34C644.686 34 642 36.6863 642 40C642 43.3137 644.686 46 648 46ZM648 48C652.418 48 656 44.4183 656 40C656 35.5817 652.418 32 648 32C643.582 32 640 35.5817 640 40C640 44.4183 643.582 48 648 48Z" fill="#F3F4F6"/>
</g>
<g opacity="0.217243">
<path fill-rule="evenodd" clip-rule="evenodd" d="M688 32H672V48H688V32ZM686 34H674V46H686V34Z" fill="#E5E7EB"/>
</g>
<g opacity="0.254675">
<path fill-rule="evenodd" clip-rule="evenodd" d="M712 34.8282L706.828 40.0002L712 45.1723L717.173 40.0002L712 34.8282ZM704 40.0002L712 48.0007L720.001 40.0002L712 31.9998L704 40.0002Z" fill="#F3F4F6"/>
</g>
<g opacity="0.694624">
<path fill-rule="evenodd" clip-rule="evenodd" d="M744 34.8282L738.828 40.0002L744 45.1723L749.173 40.0002L744 34.8282ZM736 40.0002L744 48.0007L752.001 40.0002L744 31.9998L736 40.0002Z" fill="#F3F4F6"/>
</g>
<g opacity="0.555573">
<path fill-rule="evenodd" clip-rule="evenodd" d="M776 46C779.314 46 782 43.3137 782 40C782 36.6863 779.314 34 776 34C772.686 34 770 36.6863 770 40C770 43.3137 772.686 46 776 46ZM776 48C780.418 48 784 44.4183 784 40C784 35.5817 780.418 32 776 32C771.582 32 768 35.5817 768 40C768 44.4183 771.582 48 776 48Z" fill="#F3F4F6"/>
</g>
<g opacity="0.351282">
<path fill-rule="evenodd" clip-rule="evenodd" d="M816 32H800V48H816V32ZM814 34H802V46H814V34Z" fill="#E5E7EB"/>
</g>
<g opacity="0.300518">
<path fill-rule="evenodd" clip-rule="evenodd" d="M848 32H832V48H848V32ZM846 34H834V46H846V34Z" fill="#E5E7EB"/>
</g>
<g opacity="0.333422">
<path fill-rule="evenodd" clip-rule="evenodd" d="M872 46C875.314 46 878 43.3137 878 40C878 36.6863 875.314 34 872 34C868.686 34 866 36.6863 866 40C866 43.3137 868.686 46 872 46ZM872 48C876.418 48 880 44.4183 880 40C880 35.5817 876.418 32 872 32C867.582 32 864 35.5817 864 40C864 44.4183 867.582 48 872 48Z" fill="#F3F4F6"/>
</g>
<g opacity="0.294363">
<path fill-rule="evenodd" clip-rule="evenodd" d="M912 32H896V48H912V32ZM910 34H898V46H910V34Z" fill="#E5E7EB"/>
</g>
<g opacity="0.174383">
<path fill-rule="evenodd" clip-rule="evenodd" d="M936 34.8282L930.828 40.0002L936 45.1723L941.173 40.0002L936 34.8282ZM928 40.0002L936 48.0007L944.001 40.0002L936 31.9998L928 40.0002Z" fill="#F3F4F6"/>
</g>
<g opacity="0.758863">
<path fill-rule="evenodd" clip-rule="evenodd" d="M968 34.8282L962.828 40.0002L968 45.1723L973.173 40.0002L968 34.8282ZM960 40.0002L968 48.0007L976.001 40.0002L968 31.9998L960 40.0002Z" fill="#F3F4F6"/>
</g>
<g opacity="0.765422">
<path fill-rule="evenodd" clip-rule="evenodd" d="M1000 46C1003.31 46 1006 43.3137 1006 40C1006 36.6863 1003.31 34 1000 34C996.686 34 994 36.6863 994 40C994 43.3137 996.686 46 1000 46ZM1000 48C1004.42 48 1008 44.4183 1008 40C1008 35.5817 1004.42 32 1000 32C995.582 32 992 35.5817 992 40C992 44.4183 995.582 48 1000 48Z" fill="#F3F4F6"/>
</g>
<g opacity="0.112135">
<path fill-rule="evenodd" clip-rule="evenodd" d="M1040 32H1024V48H1040V32ZM1038 34H1026V46H1038V34Z" fill="#E5E7EB"/>
</g>
<g opacity="0.310643">
<path fill-rule="evenodd" clip-rule="evenodd" d="M1072 32H1056V48H1072V32ZM1070 34H1058V46H1070V34Z" fill="#E5E7EB"/>
</g>
<g opacity="0.542929">
<path fill-rule="evenodd" clip-rule="evenodd" d="M1096 46C1099.31 46 1102 43.3137 1102 40C1102 36.6863 1099.31 34 1096 34C1092.69 34 1090 36.6863 1090 40C1090 43.3137 1092.69 46 1096 46ZM1096 48C1100.42 48 1104 44.4183 1104 40C1104 35.5817 1100.42 32 1096 32C1091.58 32 1088 35.5817 1088 40C1088 44.4183 1091.58 48 1096 48Z" fill="#F3F4F6"/>
</g>
<g opacity="0.702594">
<path fill-rule="evenodd" clip-rule="evenodd" d="M1136 32H1120V48H1136V32ZM1134 34H1122V46H1134V34Z" fill="#E5E7EB"/>
</g>
<g opacity="0.677917">
<path fill-rule="evenodd" clip-rule="evenodd" d="M1168 32H1152V48H1168V32ZM1166 34H1154V46H1166V34Z" fill="#E5E7EB"/>
</g>
<g opacity="0.165345">
<path fill-rule="evenodd" clip-rule="evenodd" d="M1200 32H1184V48H1200V32ZM1198 34H1186V46H1198V34Z" fill="#E5E7EB"/>
</g>
<g opacity="0.474421">
<path fill-rule="evenodd" clip-rule="evenodd" d="M1224 46C1227.31 46 1230 43.3137 1230 40C1230 36.6863 1227.31 34 1224 34C1220.69 34 1218 36.6863 1218 40C1218 43.3137 1220.69 46 1224 46ZM1224 48C1228.42 48 1232 44.4183 1232 40C1232 35.5817 1228.42 32 1224 32C1219.58 32 1216 35.5817 1216 40C1216 44.4183 1219.58 48 1224 48Z" fill="#F3F4F6"/>
</g>
<g opacity="0.466993">
<path fill-rule="evenodd" clip-rule="evenodd" d="M1256 34.8282L1250.83 40.0002L1256 45.1723L1261.17 40.0002L1256 34.8282ZM1248 40.0002L1256 48.0007L1264 40.0002L1256 31.9998L1248 40.0002Z" fill="#F3F4F6"/>
</g>
<g opacity="0.688506">
<path fill-rule="evenodd" clip-rule="evenodd" d="M1288 46C1291.31 46 1294 43.3137 1294 40C1294 36.6863 1291.31 34 1288 34C1284.69 34 1282 36.6863 1282 40C1282 43.3137 1284.69 46 1288 46ZM1288 48C1292.42 48 1296 44.4183 1296 40C1296 35.5817 1292.42 32 1288 32C1283.58 32 1280 35.5817 1280 40C1280 44.4183 1283.58 48 1288 48Z" fill="#F3F4F6"/>
</g>
<g opacity="0.38662">
<path fill-rule="evenodd" clip-rule="evenodd" d="M1320 34.8282L1314.83 40.0002L1320 45.1723L1325.17 40.0002L1320 34.8282ZM1312 40.0002L1320 48.0007L1328 40.0002L1320 31.9998L1312 40.0002Z" fill="#F3F4F6"/>
</g>
<g opacity="0.612459">
<path fill-rule="evenodd" clip-rule="evenodd" d="M1360 32H1344V48H1360V32ZM1358 34H1346V46H1358V34Z" fill="#E5E7EB"/>
</g>
<g opacity="0.297472">
<path fill-rule="evenodd" clip-rule="evenodd" d="M8.00048 66.8282L2.82843 72.0002L8.00048 77.1723L13.1725 72.0002L8.00048 66.8282ZM0 72.0002L8.00048 80.0007L16.001 72.0002L8.00048 63.9998L0 72.0002Z" fill="#F3F4F6"/>
</g>
<g opacity="0.143446">
<path fill-rule="evenodd" clip-rule="evenodd" d="M40 78C43.3137 78 46 75.3137 46 72C46 68.6863 43.3137 66 40 66C36.6863 66 34 68.6863 34 72C34 75.3137 36.6863 78 40 78ZM40 80C44.4183 80 48 76.4183 48 72C48 67.5817 44.4183 64 40 64C35.5817 64 32 67.5817 32 72C32 76.4183 35.5817 80 40 80Z" fill="#F3F4F6"/>
</g>
<g opacity="0.49402">
<path fill-rule="evenodd" clip-rule="evenodd" d="M72 78C75.3137 78 78 75.3137 78 72C78 68.6863 75.3137 66 72 66C68.6863 66 66 68.6863 66 72C66 75.3137 68.6863 78 72 78ZM72 80C76.4183 80 80 76.4183 80 72C80 67.5817 76.4183 64 72 64C67.5817 64 64 67.5817 64 72C64 76.4183 67.5817 80 72 80Z" fill="#F3F4F6"/>
</g>
<g opacity="0.360175">
<path fill-rule="evenodd" clip-rule="evenodd" d="M104 66.8282L98.8284 72.0002L104 77.1723L109.173 72.0002L104 66.8282ZM96 72.0002L104 80.0007L112.001 72.0002L104 63.9998L96 72.0002Z" fill="#F3F4F6"/>
</g>
<g opacity="0.530036">
<path fill-rule="evenodd" clip-rule="evenodd" d="M136 66.8282L130.828 72.0002L136 77.1723L141.173 72.0002L136 66.8282ZM128 72.0002L136 80.0007L144.001 72.0002L136 63.9998L128 72.0002Z" fill="#F3F4F6"/>
</g>
<g opacity="0.186938">
<path fill-rule="evenodd" clip-rule="evenodd" d="M176 64H160V80H176V64ZM174 66H162V78H174V66Z" fill="#E5E7EB"/>
</g>
<g opacity="0.615779">
<path fill-rule="evenodd" clip-rule="evenodd" d="M208 64H192V80H208V64ZM206 66H194V78H206V66Z" fill="#E5E7EB"/>
</g>
<g opacity="0.609128">
<path fill-rule="evenodd" clip-rule="evenodd" d="M232 78C235.314 78 238 75.3137 238 72C238 68.6863 235.314 66 232 66C228.686 66 226 68.6863 226 72C226 75.3137 228.686 78 232 78ZM232 80C236.418 80 240 76.4183 240 72C240 67.5817 236.418 64 232 64C227.582 64 224 67.5817 224 72C224 76.4183 227.582 80 232 80Z" fill="#F3F4F6"/>
</g>
<g opacity="0.571589">
<path fill-rule="evenodd" clip-rule="evenodd" d="M264 78C267.314 78 270 75.3137 270 72C270 68.6863 267.314 66 264 66C260.686 66 258 68.6863 258 72C258 75.3137 260.686 78 264 78ZM264 80C268.418 80 272 76.4183 272 72C272 67.5817 268.418 64 264 64C259.582 64 256 67.5817 256 72C256 76.4183 259.582 80 264 80Z" fill="#F3F4F6"/>
</g>
<g opacity="0.312777">
<path fill-rule="evenodd" clip-rule="evenodd" d="M296 78C299.314 78 302 75.3137 302 72C302 68.6863 299.314 66 296 66C292.686 66 290 68.6863 290 72C290 75.3137 292.686 78 296 78ZM296 80C300.418 80 304 76.4183 304 72C304 67.5817 300.418 64 296 64C291.582 64 288 67.5817 288 72C288 76.4183 291.582 80 296 80Z" fill="#F3F4F6"/>
</g>
<g opacity="0.182894">
<path fill-rule="evenodd" clip-rule="evenodd" d="M336 64H320V80H336V64ZM334 66H322V78H334V66Z" fill="#E5E7EB"/>
</g>
<g opacity="0.330308">
<path fill-rule="evenodd" clip-rule="evenodd" d="M368 64H352V80H368V64ZM366 66H354V78H366V66Z" fill="#E5E7EB"/>
</g>
<g opacity="0.137234">
<path fill-rule="evenodd" clip-rule="evenodd" d="M392 78C395.314 78 398 75.3137 398 72C398 68.6863 395.314 66 392 66C388.686 66 386 68.6863 386 72C386 75.3137 388.686 78 392 78ZM392 80C396.418 80 400 76.4183 400 72C400 67.5817 396.418 64 392 64C387.582 64 384 67.5817 384 72C384 76.4183 387.582 80 392 80Z" fill="#F3F4F6"/>
</g>
<g opacity="0.726353">
<path fill-rule="evenodd" clip-rule="evenodd" d="M432 64H416V80H432V64ZM430 66H418V78H430V66Z" fill="#E5E7EB"/>
</g>
<g opacity="0.132211">
<path fill-rule="evenodd" clip-rule="evenodd" d="M464 64H448V80H464V64ZM462 66H450V78H462V66Z" fill="#E5E7EB"/>
</g>
<g opacity="0.314642">
<path fill-rule="evenodd" clip-rule="evenodd" d="M496 64H480V80H496V64ZM494 66H482V78H494V66Z" fill="#E5E7EB"/>
</g>
<g opacity="0.195836">
<path fill-rule="evenodd" clip-rule="evenodd" d="M520 78C523.314 78 526 75.3137 526 72C526 68.6863 523.314 66 520 66C516.686 66 514 68.6863 514 72C514 75.3137 516.686 78 520 78ZM520 80C524.418 80 528 76.4183 528 72C528 67.5817 524.418 64 520 64C515.582 64 512 67.5817 512 72C512 76.4183 515.582 80 520 80Z" fill="#F3F4F6"/>
</g>
<g opacity="0.477965">
<path fill-rule="evenodd" clip-rule="evenodd" d="M552 66.8282L546.828 72.0002L552 77.1723L557.173 72.0002L552 66.8282ZM544 72.0002L552 80.0007L560.001 72.0002L552 63.9998L544 72.0002Z" fill="#F3F4F6"/>
</g>
<g opacity="0.525113">
<path fill-rule="evenodd" clip-rule="evenodd" d="M592 64H576V80H592V64ZM590 66H578V78H590V66Z" fill="#E5E7EB"/>
</g>
<g opacity="0.707822">
<path fill-rule="evenodd" clip-rule="evenodd" d="M616 78C619.314 78 622 75.3137 622 72C622 68.6863 619.314 66 616 66C612.686 66 610 68.6863 610 72C610 75.3137 612.686 78 616 78ZM616 80C620.418 80 624 76.4183 624 72C624 67.5817 620.418 64 616 64C611.582 64 608 67.5817 608 72C608 76.4183 611.582 80 616 80Z" fill="#F3F4F6"/>
</g>
<g opacity="0.587505">
<path fill-rule="evenodd" clip-rule="evenodd" d="M656 64H640V80H656V64ZM654 66H642V78H654V66Z" fill="#E5E7EB"/>
</g>
<g opacity="0.267284">
<path fill-rule="evenodd" clip-rule="evenodd" d="M688 64H672V80H688V64ZM686 66H674V78H686V66Z" fill="#E5E7EB"/>
</g>
<g opacity="0.139723">
<path fill-rule="evenodd" clip-rule="evenodd" d="M712 78C715.314 78 718 75.3137 718 72C718 68.6863 715.314 66 712 66C708.686 66 706 68.6863 706 72C706 75.3137 708.686 78 712 78ZM712 80C716.418 80 720 76.4183 720 72C720 67.5817 716.418 64 712 64C707.582 64 704 67.5817 704 72C704 76.4183 707.582 80 712 80Z" fill="#F3F4F6"/>
</g>
<g opacity="0.496622">
<path fill-rule="evenodd" clip-rule="evenodd" d="M752 64H736V80H752V64ZM750 66H738V78H750V66Z" fill="#E5E7EB"/>
</g>
<g opacity="0.524771">
<path fill-rule="evenodd" clip-rule="evenodd" d="M776 66.8282L770.828 72.0002L776 77.1723L781.173 72.0002L776 66.8282ZM768 72.0002L776 80.0007L784.001 72.0002L776 63.9998L768 72.0002Z" fill="#F3F4F6"/>
</g>
<g opacity="0.375728">
<path fill-rule="evenodd" clip-rule="evenodd" d="M816 64H800V80H816V64ZM814 66H802V78H814V66Z" fill="#E5E7EB"/>
</g>
<g opacity="0.616699">
<path fill-rule="evenodd" clip-rule="evenodd" d="M840 66.8282L834.828 72.0002L840 77.1723L845.173 72.0002L840 66.8282ZM832 72.0002L840 80.0007L848.001 72.0002L840 63.9998L832 72.0002Z" fill="#F3F4F6"/>
</g>
<g opacity="0.151205">
<path fill-rule="evenodd" clip-rule="evenodd" d="M880 64H864V80H880V64ZM878 66H866V78H878V66Z" fill="#E5E7EB"/>
</g>
<g opacity="0.371717">
<path fill-rule="evenodd" clip-rule="evenodd" d="M912 64H896V80H912V64ZM910 66H898V78H910V66Z" fill="#E5E7EB"/>
</g>
<g opacity="0.547654">
<path fill-rule="evenodd" clip-rule="evenodd" d="M936 78C939.314 78 942 75.3137 942 72C942 68.6863 939.314 66 936 66C932.686 66 930 68.6863 930 72C930 75.3137 932.686 78 936 78ZM936 80C940.418 80 944 76.4183 944 72C944 67.5817 940.418 64 936 64C931.582 64 928 67.5817 928 72C928 76.4183 931.582 80 936 80Z" fill="#F3F4F6"/>
</g>
<g opacity="0.569034">
<path fill-rule="evenodd" clip-rule="evenodd" d="M968 78C971.314 78 974 75.3137 974 72C974 68.6863 971.314 66 968 66C964.686 66 962 68.6863 962 72C962 75.3137 964.686 78 968 78ZM968 80C972.418 80 976 76.4183 976 72C976 67.5817 972.418 64 968 64C963.582 64 960 67.5817 960 72C960 76.4183 963.582 80 968 80Z" fill="#F3F4F6"/>
</g>
<g opacity="0.136669">
<path fill-rule="evenodd" clip-rule="evenodd" d="M1000 78C1003.31 78 1006 75.3137 1006 72C1006 68.6863 1003.31 66 1000 66C996.686 66 994 68.6863 994 72C994 75.3137 996.686 78 1000 78ZM1000 80C1004.42 80 1008 76.4183 1008 72C1008 67.5817 1004.42 64 1000 64C995.582 64 992 67.5817 992 72C992 76.4183 995.582 80 1000 80Z" fill="#F3F4F6"/>
</g>
<g opacity="0.691128">
<path fill-rule="evenodd" clip-rule="evenodd" d="M1040 64H1024V80H1040V64ZM1038 66H1026V78H1038V66Z" fill="#E5E7EB"/>
</g>
<g opacity="0.464329">
<path fill-rule="evenodd" clip-rule="evenodd" d="M1064 66.8282L1058.83 72.0002L1064 77.1723L1069.17 72.0002L1064 66.8282ZM1056 72.0002L1064 80.0007L1072 72.0002L1064 63.9998L1056 72.0002Z" fill="#F3F4F6"/>
</g>
<g opacity="0.40203">
<path fill-rule="evenodd" clip-rule="evenodd" d="M1104 64H1088V80H1104V64ZM1102 66H1090V78H1102V66Z" fill="#E5E7EB"/>
</g>
<g opacity="0.555476">
<path fill-rule="evenodd" clip-rule="evenodd" d="M1128 78C1131.31 78 1134 75.3137 1134 72C1134 68.6863 1131.31 66 1128 66C1124.69 66 1122 68.6863 1122 72C1122 75.3137 1124.69 78 1128 78ZM1128 80C1132.42 80 1136 76.4183 1136 72C1136 67.5817 1132.42 64 1128 64C1123.58 64 1120 67.5817 1120 72C1120 76.4183 1123.58 80 1128 80Z" fill="#F3F4F6"/>
</g>
<g opacity="0.337946">
<path fill-rule="evenodd" clip-rule="evenodd" d="M1168 64H1152V80H1168V64ZM1166 66H1154V78H1166V66Z" fill="#E5E7EB"/>
</g>
<g opacity="0.23427">
<path fill-rule="evenodd" clip-rule="evenodd" d="M1192 66.8282L1186.83 72.0002L1192 77.1723L1197.17 72.0002L1192 66.8282ZM1184 72.0002L1192 80.0007L1200 72.0002L1192 63.9998L1184 72.0002Z" fill="#F3F4F6"/>
</g>
<g opacity="0.102986">
<path fill-rule="evenodd" clip-rule="evenodd" d="M1224 78C1227.31 78 1230 75.3137 1230 72C1230 68.6863 1227.31 66 1224 66C1220.69 66 1218 68.6863 1218 72C1218 75.3137 1220.69 78 1224 78ZM1224 80C1228.42 80 1232 76.4183 1232 72C1232 67.5817 1228.42 64 1224 64C1219.58 64 1216 67.5817 1216 72C1216 76.4183 1219.58 80 1224 80Z" fill="#F3F4F6"/>
</g>
<g opacity="0.296419">
<path fill-rule="evenodd" clip-rule="evenodd" d="M1256 66.8282L1250.83 72.0002L1256 77.1723L1261.17 72.0002L1256 66.8282ZM1248 72.0002L1256 80.0007L1264 72.0002L1256 63.9998L1248 72.0002Z" fill="#F3F4F6"/>
</g>
<g opacity="0.63747">
<path fill-rule="evenodd" clip-rule="evenodd" d="M1296 64H1280V80H1296V64ZM1294 66H1282V78H1294V66Z" fill="#E5E7EB"/>
</g>
<g opacity="0.470196">
<path fill-rule="evenodd" clip-rule="evenodd" d="M1320 78C1323.31 78 1326 75.3137 1326 72C1326 68.6863 1323.31 66 1320 66C1316.69 66 1314 68.6863 1314 72C1314 75.3137 1316.69 78 1320 78ZM1320 80C1324.42 80 1328 76.4183 1328 72C1328 67.5817 1324.42 64 1320 64C1315.58 64 1312 67.5817 1312 72C1312 76.4183 1315.58 80 1320 80Z" fill="#F3F4F6"/>
</g>
<g opacity="0.212154">
<path fill-rule="evenodd" clip-rule="evenodd" d="M1352 78C1355.31 78 1358 75.3137 1358 72C1358 68.6863 1355.31 66 1352 66C1348.69 66 1346 68.6863 1346 72C1346 75.3137 1348.69 78 1352 78ZM1352 80C1356.42 80 1360 76.4183 1360 72C1360 67.5817 1356.42 64 1352 64C1347.58 64 1344 67.5817 1344 72C1344 76.4183 1347.58 80 1352 80Z" fill="#F3F4F6"/>
</g>
<g opacity="0.412974">
<path fill-rule="evenodd" clip-rule="evenodd" d="M8.00048 98.8282L2.82843 104L8.00048 109.172L13.1725 104L8.00048 98.8282ZM0 104L8.00048 112.001L16.001 104L8.00048 95.9998L0 104Z" fill="#F3F4F6"/>
</g>
<g opacity="0.592811">
<path fill-rule="evenodd" clip-rule="evenodd" d="M48 96H32V112H48V96ZM46 98H34V110H46V98Z" fill="#E5E7EB"/>
</g>
<g opacity="0.195687">
<path fill-rule="evenodd" clip-rule="evenodd" d="M72 110C75.3137 110 78 107.314 78 104C78 100.686 75.3137 98 72 98C68.6863 98 66 100.686 66 104C66 107.314 68.6863 110 72 110ZM72 112C76.4183 112 80 108.418 80 104C80 99.5817 76.4183 96 72 96C67.5817 96 64 99.5817 64 104C64 108.418 67.5817 112 72 112Z" fill="#F3F4F6"/>
</g>
<g opacity="0.609111">
<path fill-rule="evenodd" clip-rule="evenodd" d="M112 96H96V112H112V96ZM110 98H98V110H110V98Z" fill="#E5E7EB"/>
</g>
<g opacity="0.574609">
<path fill-rule="evenodd" clip-rule="evenodd" d="M136 98.8282L130.828 104L136 109.172L141.173 104L136 98.8282ZM128 104L136 112.001L144.001 104L136 95.9998L128 104Z" fill="#F3F4F6"/>
</g>
<g opacity="0.588992">
<path fill-rule="evenodd" clip-rule="evenodd" d="M168 110C171.314 110 174 107.314 174 104C174 100.686 171.314 98 168 98C164.686 98 162 100.686 162 104C162 107.314 164.686 110 168 110ZM168 112C172.418 112 176 108.418 176 104C176 99.5817 172.418 96 168 96C163.582 96 160 99.5817 160 104C160 108.418 163.582 112 168 112Z" fill="#F3F4F6"/>
</g>
<g opacity="0.642245">
<path fill-rule="evenodd" clip-rule="evenodd" d="M208 96H192V112H208V96ZM206 98H194V110H206V98Z" fill="#E5E7EB"/>
</g>
<g opacity="0.151566">
<path fill-rule="evenodd" clip-rule="evenodd" d="M240 96H224V112H240V96ZM238 98H226V110H238V98Z" fill="#E5E7EB"/>
</g>
<g opacity="0.230758">
<path fill-rule="evenodd" clip-rule="evenodd" d="M264 110C267.314 110 270 107.314 270 104C270 100.686 267.314 98 264 98C260.686 98 258 100.686 258 104C258 107.314 260.686 110 264 110ZM264 112C268.418 112 272 108.418 272 104C272 99.5817 268.418 96 264 96C259.582 96 256 99.5817 256 104C256 108.418 259.582 112 264 112Z" fill="#F3F4F6"/>
</g>
<g opacity="0.174968">
<path fill-rule="evenodd" clip-rule="evenodd" d="M296 98.8282L290.828 104L296 109.172L301.173 104L296 98.8282ZM288 104L296 112.001L304.001 104L296 95.9998L288 104Z" fill="#F3F4F6"/>
</g>
<g opacity="0.104318">
<path fill-rule="evenodd" clip-rule="evenodd" d="M328 110C331.314 110 334 107.314 334 104C334 100.686 331.314 98 328 98C324.686 98 322 100.686 322 104C322 107.314 324.686 110 328 110ZM328 112C332.418 112 336 108.418 336 104C336 99.5817 332.418 96 328 96C323.582 96 320 99.5817 320 104C320 108.418 323.582 112 328 112Z" fill="#F3F4F6"/>
</g>
<g opacity="0.501403">
<path fill-rule="evenodd" clip-rule="evenodd" d="M360 110C363.314 110 366 107.314 366 104C366 100.686 363.314 98 360 98C356.686 98 354 100.686 354 104C354 107.314 356.686 110 360 110ZM360 112C364.418 112 368 108.418 368 104C368 99.5817 364.418 96 360 96C355.582 96 352 99.5817 352 104C352 108.418 355.582 112 360 112Z" fill="#F3F4F6"/>
</g>
<g opacity="0.673181">
<path fill-rule="evenodd" clip-rule="evenodd" d="M392 98.8282L386.828 104L392 109.172L397.173 104L392 98.8282ZM384 104L392 112.001L400.001 104L392 95.9998L384 104Z" fill="#F3F4F6"/>
</g>
<g opacity="0.473087">
<path fill-rule="evenodd" clip-rule="evenodd" d="M424 98.8282L418.828 104L424 109.172L429.173 104L424 98.8282ZM416 104L424 112.001L432.001 104L424 95.9998L416 104Z" fill="#F3F4F6"/>
</g>
<g opacity="0.665539">
<path fill-rule="evenodd" clip-rule="evenodd" d="M456 98.8282L450.828 104L456 109.172L461.173 104L456 98.8282ZM448 104L456 112.001L464.001 104L456 95.9998L448 104Z" fill="#F3F4F6"/>
</g>
<g opacity="0.793818">
<path fill-rule="evenodd" clip-rule="evenodd" d="M488 98.8282L482.828 104L488 109.172L493.173 104L488 98.8282ZM480 104L488 112.001L496.001 104L488 95.9998L480 104Z" fill="#F3F4F6"/>
</g>
<g opacity="0.589021">
<path fill-rule="evenodd" clip-rule="evenodd" d="M520 98.8282L514.828 104L520 109.172L525.173 104L520 98.8282ZM512 104L520 112.001L528.001 104L520 95.9998L512 104Z" fill="#F3F4F6"/>
</g>
<g opacity="0.546082">
<path fill-rule="evenodd" clip-rule="evenodd" d="M552 98.8282L546.828 104L552 109.172L557.173 104L552 98.8282ZM544 104L552 112.001L560.001 104L552 95.9998L544 104Z" fill="#F3F4F6"/>
</g>
<g opacity="0.502136">
<path fill-rule="evenodd" clip-rule="evenodd" d="M584 110C587.314 110 590 107.314 590 104C590 100.686 587.314 98 584 98C580.686 98 578 100.686 578 104C578 107.314 580.686 110 584 110ZM584 112C588.418 112 592 108.418 592 104C592 99.5817 588.418 96 584 96C579.582 96 576 99.5817 576 104C576 108.418 579.582 112 584 112Z" fill="#F3F4F6"/>
</g>
<g opacity="0.350626">
<path fill-rule="evenodd" clip-rule="evenodd" d="M624 96H608V112H624V96ZM622 98H610V110H622V98Z" fill="#E5E7EB"/>
</g>
<g opacity="0.713861">
<path fill-rule="evenodd" clip-rule="evenodd" d="M648 110C651.314 110 654 107.314 654 104C654 100.686 651.314 98 648 98C644.686 98 642 100.686 642 104C642 107.314 644.686 110 648 110ZM648 112C652.418 112 656 108.418 656 104C656 99.5817 652.418 96 648 96C643.582 96 640 99.5817 640 104C640 108.418 643.582 112 648 112Z" fill="#F3F4F6"/>
</g>
<g opacity="0.686836">
<path fill-rule="evenodd" clip-rule="evenodd" d="M680 98.8282L674.828 104L680 109.172L685.173 104L680 98.8282ZM672 104L680 112.001L688.001 104L680 95.9998L672 104Z" fill="#F3F4F6"/>
</g>
<g opacity="0.465836">
<path fill-rule="evenodd" clip-rule="evenodd" d="M712 98.8282L706.828 104L712 109.172L717.173 104L712 98.8282ZM704 104L712 112.001L720.001 104L712 95.9998L704 104Z" fill="#F3F4F6"/>
</g>
<g opacity="0.261471">
<path fill-rule="evenodd" clip-rule="evenodd" d="M744 98.8282L738.828 104L744 109.172L749.173 104L744 98.8282ZM736 104L744 112.001L752.001 104L744 95.9998L736 104Z" fill="#F3F4F6"/>
</g>
<g opacity="0.427638">
<path fill-rule="evenodd" clip-rule="evenodd" d="M776 98.8282L770.828 104L776 109.172L781.173 104L776 98.8282ZM768 104L776 112.001L784.001 104L776 95.9998L768 104Z" fill="#F3F4F6"/>
</g>
<g opacity="0.710088">
<path fill-rule="evenodd" clip-rule="evenodd" d="M808 110C811.314 110 814 107.314 814 104C814 100.686 811.314 98 808 98C804.686 98 802 100.686 802 104C802 107.314 804.686 110 808 110ZM808 112C812.418 112 816 108.418 816 104C816 99.5817 812.418 96 808 96C803.582 96 800 99.5817 800 104C800 108.418 803.582 112 808 112Z" fill="#F3F4F6"/>
</g>
<g opacity="0.25404">
<path fill-rule="evenodd" clip-rule="evenodd" d="M848 96H832V112H848V96ZM846 98H834V110H846V98Z" fill="#E5E7EB"/>
</g>
<g opacity="0.151716">
<path fill-rule="evenodd" clip-rule="evenodd" d="M872 98.8282L866.828 104L872 109.172L877.173 104L872 98.8282ZM864 104L872 112.001L880.001 104L872 95.9998L864 104Z" fill="#F3F4F6"/>
</g>
<g opacity="0.709505">
<path fill-rule="evenodd" clip-rule="evenodd" d="M904 110C907.314 110 910 107.314 910 104C910 100.686 907.314 98 904 98C900.686 98 898 100.686 898 104C898 107.314 900.686 110 904 110ZM904 112C908.418 112 912 108.418 912 104C912 99.5817 908.418 96 904 96C899.582 96 896 99.5817 896 104C896 108.418 899.582 112 904 112Z" fill="#F3F4F6"/>
</g>
<g opacity="0.152753">
<path fill-rule="evenodd" clip-rule="evenodd" d="M936 98.8282L930.828 104L936 109.172L941.173 104L936 98.8282ZM928 104L936 112.001L944.001 104L936 95.9998L928 104Z" fill="#F3F4F6"/>
</g>
<g opacity="0.791628">
<path fill-rule="evenodd" clip-rule="evenodd" d="M968 98.8282L962.828 104L968 109.172L973.173 104L968 98.8282ZM960 104L968 112.001L976.001 104L968 95.9998L960 104Z" fill="#F3F4F6"/>
</g>
<g opacity="0.340553">
<path fill-rule="evenodd" clip-rule="evenodd" d="M1000 98.8282L994.828 104L1000 109.172L1005.17 104L1000 98.8282ZM992 104L1000 112.001L1008 104L1000 95.9998L992 104Z" fill="#F3F4F6"/>
</g>
<g opacity="0.218102">
<path fill-rule="evenodd" clip-rule="evenodd" d="M1032 110C1035.31 110 1038 107.314 1038 104C1038 100.686 1035.31 98 1032 98C1028.69 98 1026 100.686 1026 104C1026 107.314 1028.69 110 1032 110ZM1032 112C1036.42 112 1040 108.418 1040 104C1040 99.5817 1036.42 96 1032 96C1027.58 96 1024 99.5817 1024 104C1024 108.418 1027.58 112 1032 112Z" fill="#F3F4F6"/>
</g>
<g opacity="0.436599">
<path fill-rule="evenodd" clip-rule="evenodd" d="M1064 110C1067.31 110 1070 107.314 1070 104C1070 100.686 1067.31 98 1064 98C1060.69 98 1058 100.686 1058 104C1058 107.314 1060.69 110 1064 110ZM1064 112C1068.42 112 1072 108.418 1072 104C1072 99.5817 1068.42 96 1064 96C1059.58 96 1056 99.5817 1056 104C1056 108.418 1059.58 112 1064 112Z" fill="#F3F4F6"/>
</g>
<g opacity="0.516588">
<path fill-rule="evenodd" clip-rule="evenodd" d="M1096 98.8282L1090.83 104L1096 109.172L1101.17 104L1096 98.8282ZM1088 104L1096 112.001L1104 104L1096 95.9998L1088 104Z" fill="#F3F4F6"/>
</g>
<g opacity="0.74934">
<path fill-rule="evenodd" clip-rule="evenodd" d="M1128 98.8282L1122.83 104L1128 109.172L1133.17 104L1128 98.8282ZM1120 104L1128 112.001L1136 104L1128 95.9998L1120 104Z" fill="#F3F4F6"/>
</g>
<g opacity="0.638787">
<path fill-rule="evenodd" clip-rule="evenodd" d="M1160 98.8282L1154.83 104L1160 109.172L1165.17 104L1160 98.8282ZM1152 104L1160 112.001L1168 104L1160 95.9998L1152 104Z" fill="#F3F4F6"/>
</g>
<g opacity="0.508947">
<path fill-rule="evenodd" clip-rule="evenodd" d="M1200 96H1184V112H1200V96ZM1198 98H1186V110H1198V98Z" fill="#E5E7EB"/>
</g>
<g opacity="0.432132">
<path fill-rule="evenodd" clip-rule="evenodd" d="M1232 96H1216V112H1232V96ZM1230 98H1218V110H1230V98Z" fill="#E5E7EB"/>
</g>
<g opacity="0.184129">
<path fill-rule="evenodd" clip-rule="evenodd" d="M1256 110C1259.31 110 1262 107.314 1262 104C1262 100.686 1259.31 98 1256 98C1252.69 98 1250 100.686 1250 104C1250 107.314 1252.69 110 1256 110ZM1256 112C1260.42 112 1264 108.418 1264 104C1264 99.5817 1260.42 96 1256 96C1251.58 96 1248 99.5817 1248 104C1248 108.418 1251.58 112 1256 112Z" fill="#F3F4F6"/>
</g>
<g opacity="0.775528">
<path fill-rule="evenodd" clip-rule="evenodd" d="M1296 96H1280V112H1296V96ZM1294 98H1282V110H1294V98Z" fill="#E5E7EB"/>
</g>
<g opacity="0.11299">
<path fill-rule="evenodd" clip-rule="evenodd" d="M1320 110C1323.31 110 1326 107.314 1326 104C1326 100.686 1323.31 98 1320 98C1316.69 98 1314 100.686 1314 104C1314 107.314 1316.69 110 1320 110ZM1320 112C1324.42 112 1328 108.418 1328 104C1328 99.5817 1324.42 96 1320 96C1315.58 96 1312 99.5817 1312 104C1312 108.418 1315.58 112 1320 112Z" fill="#F3F4F6"/>
</g>
<g opacity="0.426555">
<path fill-rule="evenodd" clip-rule="evenodd" d="M1352 110C1355.31 110 1358 107.314 1358 104C1358 100.686 1355.31 98 1352 98C1348.69 98 1346 100.686 1346 104C1346 107.314 1348.69 110 1352 110ZM1352 112C1356.42 112 1360 108.418 1360 104C1360 99.5817 1356.42 96 1352 96C1347.58 96 1344 99.5817 1344 104C1344 108.418 1347.58 112 1352 112Z" fill="#F3F4F6"/>
</g>
<g opacity="0.698292">
<path fill-rule="evenodd" clip-rule="evenodd" d="M16 128H0V144H16V128ZM14 130H2V142H14V130Z" fill="#E5E7EB"/>
</g>
<g opacity="0.642556">
<path fill-rule="evenodd" clip-rule="evenodd" d="M40.0005 130.828L34.8284 136L40.0005 141.172L45.1725 136L40.0005 130.828ZM32 136L40.0005 144.001L48.001 136L40.0005 128L32 136Z" fill="#F3F4F6"/>
</g>
<g opacity="0.196532">
<path fill-rule="evenodd" clip-rule="evenodd" d="M80 128H64V144H80V128ZM78 130H66V142H78V130Z" fill="#E5E7EB"/>
</g>
<g opacity="0.693995">
<path fill-rule="evenodd" clip-rule="evenodd" d="M104 142C107.314 142 110 139.314 110 136C110 132.686 107.314 130 104 130C100.686 130 98 132.686 98 136C98 139.314 100.686 142 104 142ZM104 144C108.418 144 112 140.418 112 136C112 131.582 108.418 128 104 128C99.5817 128 96 131.582 96 136C96 140.418 99.5817 144 104 144Z" fill="#F3F4F6"/>
</g>
<g opacity="0.714956">
<path fill-rule="evenodd" clip-rule="evenodd" d="M136 130.828L130.828 136L136 141.172L141.173 136L136 130.828ZM128 136L136 144.001L144.001 136L136 128L128 136Z" fill="#F3F4F6"/>
</g>
<g opacity="0.786308">
<path fill-rule="evenodd" clip-rule="evenodd" d="M168 142C171.314 142 174 139.314 174 136C174 132.686 171.314 130 168 130C164.686 130 162 132.686 162 136C162 139.314 164.686 142 168 142ZM168 144C172.418 144 176 140.418 176 136C176 131.582 172.418 128 168 128C163.582 128 160 131.582 160 136C160 140.418 163.582 144 168 144Z" fill="#F3F4F6"/>
</g>
<g opacity="0.239529">
<path fill-rule="evenodd" clip-rule="evenodd" d="M200 130.828L194.828 136L200 141.172L205.173 136L200 130.828ZM192 136L200 144.001L208.001 136L200 128L192 136Z" fill="#F3F4F6"/>
</g>
<g opacity="0.441085">
<path fill-rule="evenodd" clip-rule="evenodd" d="M232 142C235.314 142 238 139.314 238 136C238 132.686 235.314 130 232 130C228.686 130 226 132.686 226 136C226 139.314 228.686 142 232 142ZM232 144C236.418 144 240 140.418 240 136C240 131.582 236.418 128 232 128C227.582 128 224 131.582 224 136C224 140.418 227.582 144 232 144Z" fill="#F3F4F6"/>
</g>
<g opacity="0.665358">
<path fill-rule="evenodd" clip-rule="evenodd" d="M272 128H256V144H272V128ZM270 130H258V142H270V130Z" fill="#E5E7EB"/>
</g>
<g opacity="0.144065">
<path fill-rule="evenodd" clip-rule="evenodd" d="M296 130.828L290.828 136L296 141.172L301.173 136L296 130.828ZM288 136L296 144.001L304.001 136L296 128L288 136Z" fill="#F3F4F6"/>
</g>
<g opacity="0.556715">
<path fill-rule="evenodd" clip-rule="evenodd" d="M328 130.828L322.828 136L328 141.172L333.173 136L328 130.828ZM320 136L328 144.001L336.001 136L328 128L320 136Z" fill="#F3F4F6"/>
</g>
<g opacity="0.119193">
<path fill-rule="evenodd" clip-rule="evenodd" d="M368 128H352V144H368V128ZM366 130H354V142H366V130Z" fill="#E5E7EB"/>
</g>
<g opacity="0.500258">
<path fill-rule="evenodd" clip-rule="evenodd" d="M392 130.828L386.828 136L392 141.172L397.173 136L392 130.828ZM384 136L392 144.001L400.001 136L392 128L384 136Z" fill="#F3F4F6"/>
</g>
<g opacity="0.788182">
<path fill-rule="evenodd" clip-rule="evenodd" d="M424 142C427.314 142 430 139.314 430 136C430 132.686 427.314 130 424 130C420.686 130 418 132.686 418 136C418 139.314 420.686 142 424 142ZM424 144C428.418 144 432 140.418 432 136C432 131.582 428.418 128 424 128C419.582 128 416 131.582 416 136C416 140.418 419.582 144 424 144Z" fill="#F3F4F6"/>
</g>
<g opacity="0.66076">
<path fill-rule="evenodd" clip-rule="evenodd" d="M464 128H448V144H464V128ZM462 130H450V142H462V130Z" fill="#E5E7EB"/>
</g>
<g opacity="0.17349">
<path fill-rule="evenodd" clip-rule="evenodd" d="M496 128H480V144H496V128ZM494 130H482V142H494V130Z" fill="#E5E7EB"/>
</g>
<g opacity="0.120737">
<path fill-rule="evenodd" clip-rule="evenodd" d="M528 128H512V144H528V128ZM526 130H514V142H526V130Z" fill="#E5E7EB"/>
</g>
<g opacity="0.746209">
<path fill-rule="evenodd" clip-rule="evenodd" d="M552 130.828L546.828 136L552 141.172L557.173 136L552 130.828ZM544 136L552 144.001L560.001 136L552 128L544 136Z" fill="#F3F4F6"/>
</g>
<g opacity="0.200632">
<path fill-rule="evenodd" clip-rule="evenodd" d="M584 130.828L578.828 136L584 141.172L589.173 136L584 130.828ZM576 136L584 144.001L592.001 136L584 128L576 136Z" fill="#F3F4F6"/>
</g>
<g opacity="0.205857">
<path fill-rule="evenodd" clip-rule="evenodd" d="M616 142C619.314 142 622 139.314 622 136C622 132.686 619.314 130 616 130C612.686 130 610 132.686 610 136C610 139.314 612.686 142 616 142ZM616 144C620.418 144 624 140.418 624 136C624 131.582 620.418 128 616 128C611.582 128 608 131.582 608 136C608 140.418 611.582 144 616 144Z" fill="#F3F4F6"/>
</g>
<g opacity="0.427426">
<path fill-rule="evenodd" clip-rule="evenodd" d="M656 128H640V144H656V128ZM654 130H642V142H654V130Z" fill="#E5E7EB"/>
</g>
<g opacity="0.349673">
<path fill-rule="evenodd" clip-rule="evenodd" d="M688 128H672V144H688V128ZM686 130H674V142H686V130Z" fill="#E5E7EB"/>
</g>
<g opacity="0.463162">
<path fill-rule="evenodd" clip-rule="evenodd" d="M712 142C715.314 142 718 139.314 718 136C718 132.686 715.314 130 712 130C708.686 130 706 132.686 706 136C706 139.314 708.686 142 712 142ZM712 144C716.418 144 720 140.418 720 136C720 131.582 716.418 128 712 128C707.582 128 704 131.582 704 136C704 140.418 707.582 144 712 144Z" fill="#F3F4F6"/>
</g>
<g opacity="0.776131">
<path fill-rule="evenodd" clip-rule="evenodd" d="M744 130.828L738.828 136L744 141.172L749.173 136L744 130.828ZM736 136L744 144.001L752.001 136L744 128L736 136Z" fill="#F3F4F6"/>
</g>
<g opacity="0.571606">
<path fill-rule="evenodd" clip-rule="evenodd" d="M784 128H768V144H784V128ZM782 130H770V142H782V130Z" fill="#E5E7EB"/>
</g>
<g opacity="0.339591">
<path fill-rule="evenodd" clip-rule="evenodd" d="M816 128H800V144H816V128ZM814 130H802V142H814V130Z" fill="#E5E7EB"/>
</g>
<g opacity="0.710431">
<path fill-rule="evenodd" clip-rule="evenodd" d="M848 128H832V144H848V128ZM846 130H834V142H846V130Z" fill="#E5E7EB"/>
</g>
<g opacity="0.398276">
<path fill-rule="evenodd" clip-rule="evenodd" d="M872 142C875.314 142 878 139.314 878 136C878 132.686 875.314 130 872 130C868.686 130 866 132.686 866 136C866 139.314 868.686 142 872 142ZM872 144C876.418 144 880 140.418 880 136C880 131.582 876.418 128 872 128C867.582 128 864 131.582 864 136C864 140.418 867.582 144 872 144Z" fill="#F3F4F6"/>
</g>
<g opacity="0.36775">
<path fill-rule="evenodd" clip-rule="evenodd" d="M904 130.828L898.828 136L904 141.172L909.173 136L904 130.828ZM896 136L904 144.001L912.001 136L904 128L896 136Z" fill="#F3F4F6"/>
</g>
<g opacity="0.158496">
<path fill-rule="evenodd" clip-rule="evenodd" d="M936 130.828L930.828 136L936 141.172L941.173 136L936 130.828ZM928 136L936 144.001L944.001 136L936 128L928 136Z" fill="#F3F4F6"/>
</g>
<g opacity="0.594766">
<path fill-rule="evenodd" clip-rule="evenodd" d="M976 128H960V144H976V128ZM974 130H962V142H974V130Z" fill="#E5E7EB"/>
</g>
<g opacity="0.367754">
<path fill-rule="evenodd" clip-rule="evenodd" d="M1008 128H992V144H1008V128ZM1006 130H994V142H1006V130Z" fill="#E5E7EB"/>
</g>
<g opacity="0.548091">
<path fill-rule="evenodd" clip-rule="evenodd" d="M1032 142C1035.31 142 1038 139.314 1038 136C1038 132.686 1035.31 130 1032 130C1028.69 130 1026 132.686 1026 136C1026 139.314 1028.69 142 1032 142ZM1032 144C1036.42 144 1040 140.418 1040 136C1040 131.582 1036.42 128 1032 128C1027.58 128 1024 131.582 1024 136C1024 140.418 1027.58 144 1032 144Z" fill="#F3F4F6"/>
</g>
<g opacity="0.670078">
<path fill-rule="evenodd" clip-rule="evenodd" d="M1064 130.828L1058.83 136L1064 141.172L1069.17 136L1064 130.828ZM1056 136L1064 144.001L1072 136L1064 128L1056 136Z" fill="#F3F4F6"/>
</g>
<g opacity="0.386917">
<path fill-rule="evenodd" clip-rule="evenodd" d="M1104 128H1088V144H1104V128ZM1102 130H1090V142H1102V130Z" fill="#E5E7EB"/>
</g>
<g opacity="0.779982">
<path fill-rule="evenodd" clip-rule="evenodd" d="M1136 128H1120V144H1136V128ZM1134 130H1122V142H1134V130Z" fill="#E5E7EB"/>
</g>
<g opacity="0.622224">
<path fill-rule="evenodd" clip-rule="evenodd" d="M1168 128H1152V144H1168V128ZM1166 130H1154V142H1166V130Z" fill="#E5E7EB"/>
</g>
<g opacity="0.702621">
<path fill-rule="evenodd" clip-rule="evenodd" d="M1200 128H1184V144H1200V128ZM1198 130H1186V142H1198V130Z" fill="#E5E7EB"/>
</g>
<g opacity="0.310162">
<path fill-rule="evenodd" clip-rule="evenodd" d="M1224 142C1227.31 142 1230 139.314 1230 136C1230 132.686 1227.31 130 1224 130C1220.69 130 1218 132.686 1218 136C1218 139.314 1220.69 142 1224 142ZM1224 144C1228.42 144 1232 140.418 1232 136C1232 131.582 1228.42 128 1224 128C1219.58 128 1216 131.582 1216 136C1216 140.418 1219.58 144 1224 144Z" fill="#F3F4F6"/>
</g>
<g opacity="0.194628">
<path fill-rule="evenodd" clip-rule="evenodd" d="M1256 130.828L1250.83 136L1256 141.172L1261.17 136L1256 130.828ZM1248 136L1256 144.001L1264 136L1256 128L1248 136Z" fill="#F3F4F6"/>
</g>
<g opacity="0.290633">
<path fill-rule="evenodd" clip-rule="evenodd" d="M1296 128H1280V144H1296V128ZM1294 130H1282V142H1294V130Z" fill="#E5E7EB"/>
</g>
<g opacity="0.479141">
<path fill-rule="evenodd" clip-rule="evenodd" d="M1320 142C1323.31 142 1326 139.314 1326 136C1326 132.686 1323.31 130 1320 130C1316.69 130 1314 132.686 1314 136C1314 139.314 1316.69 142 1320 142ZM1320 144C1324.42 144 1328 140.418 1328 136C1328 131.582 1324.42 128 1320 128C1315.58 128 1312 131.582 1312 136C1312 140.418 1315.58 144 1320 144Z" fill="#F3F4F6"/>
</g>
<g opacity="0.295634">
<path fill-rule="evenodd" clip-rule="evenodd" d="M1360 128H1344V144H1360V128ZM1358 130H1346V142H1358V130Z" fill="#E5E7EB"/>
</g>
</g>
<defs>
<clipPath id="clip0_15420_10677">
<rect width="1376" height="148" fill="white"/>
</clipPath>
</defs>
</svg>
