<svg width="24" height="24" viewBox="0 0 24 24" fill="none" xmlns="http://www.w3.org/2000/svg">
<path fill-rule="evenodd" clip-rule="evenodd" d="M9.78176 2.28119e-07H14.2182C15.693 -9.83161e-06 16.8706 -1.78583e-05 17.8217 0.0776915C18.7972 0.157393 19.6363 0.324594 20.4069 0.717248C21.6451 1.34816 22.6518 2.35487 23.2828 3.5931C23.6754 4.36372 23.8426 5.20277 23.9223 6.17827C24 7.12938 24 8.30699 24 9.78173V14.2183C24 15.693 24 16.8706 23.9223 17.8217C23.8426 18.7972 23.6754 19.6363 23.2828 20.4069C22.6518 21.6451 21.6451 22.6518 20.4069 23.2828C19.6363 23.6754 18.7972 23.8426 17.8217 23.9223C16.8706 24 15.693 24 14.2183 24H9.78173C8.307 24 7.12938 24 6.17827 23.9223C5.20277 23.8426 4.36372 23.6754 3.5931 23.2828C2.35487 22.6518 1.34816 21.6451 0.717248 20.4069C0.324594 19.6363 0.157393 18.7972 0.0776915 17.8217C-1.78583e-05 16.8706 -9.83161e-06 15.693 2.28119e-07 14.2182V9.78176C-9.83161e-06 8.30701 -1.78583e-05 7.12939 0.0776915 6.17827C0.157393 5.20277 0.324594 4.36372 0.717248 3.5931C1.34816 2.35487 2.35487 1.34816 3.5931 0.717248C4.36372 0.324594 5.20277 0.157393 6.17827 0.0776915C7.12939 -1.78583e-05 8.30701 -9.83161e-06 9.78176 2.28119e-07ZM6.3674 2.39256C5.53553 2.46053 5.03616 2.58866 4.64752 2.78668C3.84632 3.19492 3.19492 3.84632 2.78668 4.64752C2.58866 5.03616 2.46053 5.53553 2.39256 6.3674C2.32348 7.21283 2.32258 8.29554 2.32258 9.83226V14.1677C2.32258 15.7045 2.32348 16.7872 2.39256 17.6326C2.46053 18.4645 2.58866 18.9638 2.78668 19.3525C3.19492 20.1537 3.84632 20.8051 4.64752 21.2133C5.03616 21.4113 5.53553 21.5395 6.3674 21.6074C7.21283 21.6765 8.29554 21.6774 9.83226 21.6774H14.1677C15.7045 21.6774 16.7872 21.6765 17.6326 21.6074C18.4645 21.5395 18.9638 21.4113 19.3525 21.2133C20.1537 20.8051 20.8051 20.1537 21.2133 19.3525C21.4113 18.9638 21.5395 18.4645 21.6074 17.6326C21.6765 16.7872 21.6774 15.7045 21.6774 14.1677V9.83226C21.6774 8.29554 21.6765 7.21283 21.6074 6.3674C21.5395 5.53553 21.4113 5.03616 21.2133 4.64752C20.8051 3.84632 20.1537 3.19492 19.3525 2.78668C18.9638 2.58866 18.4645 2.46053 17.6326 2.39256C16.7872 2.32348 15.7045 2.32258 14.1677 2.32258H9.83226C8.29554 2.32258 7.21283 2.32348 6.3674 2.39256Z" fill="#718096"/>
<g clip-path="url(#clip0_13042_20371)">
<path d="M14.9676 12.0984C14.9585 12.024 14.9731 11.9662 14.9901 11.9341C14.9937 11.9287 14.9977 11.9227 15.0022 11.9158C15.0167 11.8934 15.0357 11.8629 15.0593 11.8224C15.1064 11.7417 15.1725 11.6204 15.2587 11.4439C15.7981 10.3428 16.1 9.10609 16.1 7.80001C16.1 3.21636 12.3836 -0.5 7.8 -0.5C3.21636 -0.5 -0.5 3.21636 -0.5 7.80001C-0.5 12.3837 3.21636 16.1 7.8 16.1C9.10204 16.1 10.3346 15.8001 11.4333 15.2649L11.435 15.2641C11.6128 15.1767 11.7354 15.1095 11.8169 15.0616C11.8578 15.0376 11.8886 15.0182 11.9112 15.0035C11.9167 14.9999 11.9218 14.9965 11.9263 14.9935C12.0267 14.941 12.192 14.9671 12.2586 15.0338L16.6499 19.4251C17.4165 20.1916 18.6585 20.1916 19.4251 19.4251C20.1916 18.6585 20.1916 17.4165 19.4251 16.6499L15.0338 12.2586C15.0338 12.2586 15.0338 12.2586 15.0338 12.2586C15.0095 12.2343 14.9774 12.179 14.9676 12.0984ZM12.1749 7.79998C12.1749 10.2165 10.2164 12.175 7.7999 12.175C5.38338 12.175 3.4249 10.2165 3.4249 7.79998C3.4249 5.38346 5.38338 3.42498 7.7999 3.42498C10.2164 3.42498 12.1749 5.38346 12.1749 7.79998Z" fill="#A0AEC0" stroke="#EDF2F7"/>
</g>
<defs>
<clipPath id="clip0_13042_20371">
<rect width="21" height="21" fill="white"/>
</clipPath>
</defs>
</svg>
