<svg width="16" height="16" viewBox="0 0 16 16" fill="none" xmlns="http://www.w3.org/2000/svg">
<g clip-path="url(#clip0_307_218)">
<path d="M3 16H13C14.6569 16 16 14.6574 16 13.0005V6L10 0H3.00007C1.34322 0 0 1.34315 0 3V13C0 14.6569 1.34315 16 3 16Z" fill="url(#paint0_linear_307_218)"/>
<path d="M13 15.75H3C1.48122 15.75 0.25 14.5188 0.25 13V3C0.25 1.48123 1.48128 0.25 3.00007 0.25H9.89645L15.75 6.10355V13.0005C15.75 14.5192 14.5188 15.75 13 15.75Z" stroke="black" stroke-opacity="0.06" stroke-width="0.5"/>
<g filter="url(#filter0_d_307_218)">
<path d="M10 4V0L16 6H12C10.8954 6 10 5.10457 10 4Z" fill="url(#paint1_linear_307_218)"/>
</g>
<path fill-rule="evenodd" clip-rule="evenodd" d="M9.6 6.4C9.79526 6.59526 9.79526 6.91185 9.6 7.10711L7.35356 9.35356C7.15829 9.54882 6.84171 9.54882 6.64645 9.35356C6.45119 9.1583 6.45119 8.84171 6.64645 8.64645L8.8929 6.4C9.08816 6.20474 9.40474 6.20474 9.6 6.4ZM5.35355 10.6465C5.54882 10.8417 5.54882 11.1583 5.35355 11.3536L3.10711 13.6C2.91185 13.7953 2.59526 13.7953 2.4 13.6C2.20474 13.4047 2.20474 13.0882 2.4 12.8929L4.64645 10.6465C4.84171 10.4512 5.15829 10.4512 5.35355 10.6465Z" fill="white"/>
<path fill-rule="evenodd" clip-rule="evenodd" d="M6.83333 6.25C7.06345 6.25 7.25 6.43655 7.25 6.66667V8.75H9.33333C9.56345 8.75 9.75 8.93655 9.75 9.16667C9.75 9.39679 9.56345 9.58333 9.33333 9.58333H6.83333C6.60321 9.58333 6.41667 9.39679 6.41667 9.16667V6.66667C6.41667 6.43655 6.60321 6.25 6.83333 6.25ZM2.25 10.8333C2.25 10.6032 2.43655 10.4167 2.66667 10.4167H5.16667C5.39679 10.4167 5.58333 10.6032 5.58333 10.8333V13.3333C5.58333 13.5635 5.39679 13.75 5.16667 13.75C4.93655 13.75 4.75 13.5635 4.75 13.3333V11.25H2.66667C2.43655 11.25 2.25 11.0635 2.25 10.8333Z" fill="white"/>
</g>
<defs>
<filter id="filter0_d_307_218" x="8" y="-1" width="10" height="10" filterUnits="userSpaceOnUse" color-interpolation-filters="sRGB">
<feFlood flood-opacity="0" result="BackgroundImageFix"/>
<feColorMatrix in="SourceAlpha" type="matrix" values="0 0 0 0 0 0 0 0 0 0 0 0 0 0 0 0 0 0 127 0" result="hardAlpha"/>
<feOffset dy="1"/>
<feGaussianBlur stdDeviation="1"/>
<feColorMatrix type="matrix" values="0 0 0 0 0 0 0 0 0 0 0 0 0 0 0 0 0 0 0.25 0"/>
<feBlend mode="normal" in2="BackgroundImageFix" result="effect1_dropShadow_307_218"/>
<feBlend mode="normal" in="SourceGraphic" in2="effect1_dropShadow_307_218" result="shape"/>
</filter>
<linearGradient id="paint0_linear_307_218" x1="1" y1="1" x2="16" y2="16" gradientUnits="userSpaceOnUse">
<stop stop-color="#FFFF00"/>
<stop offset="0.0806874" stop-color="#FFFE01"/>
<stop offset="0.155366" stop-color="#FFFA03"/>
<stop offset="0.22496" stop-color="#FFF507"/>
<stop offset="0.290394" stop-color="#FFED0C"/>
<stop offset="0.352593" stop-color="#FFE413"/>
<stop offset="0.41248" stop-color="#FFD81B"/>
<stop offset="0.470981" stop-color="#FFCB24"/>
<stop offset="0.529019" stop-color="#FFBC2E"/>
<stop offset="0.58752" stop-color="#FFAC3A"/>
<stop offset="0.647407" stop-color="#FF9A46"/>
<stop offset="0.709606" stop-color="#FE8654"/>
<stop offset="0.77504" stop-color="#FE7262"/>
<stop offset="0.844634" stop-color="#FE5C71"/>
<stop offset="0.919313" stop-color="#FE4581"/>
<stop offset="1" stop-color="#FE2D91"/>
</linearGradient>
<linearGradient id="paint1_linear_307_218" x1="13" y1="3" x2="10" y2="6" gradientUnits="userSpaceOnUse">
<stop offset="0.514828" stop-color="white"/>
<stop offset="1" stop-color="white" stop-opacity="0"/>
</linearGradient>
<clipPath id="clip0_307_218">
<rect width="16" height="16" rx="3" fill="white"/>
</clipPath>
</defs>
</svg>
