<svg width="16" height="16" viewBox="0 0 16 16" fill="none" xmlns="http://www.w3.org/2000/svg">
<g clip-path="url(#clip0_307_241)">
<path d="M3 16H13C14.6569 16 16 14.6574 16 13.0005V6L10 0H3.00007C1.34322 0 0 1.34315 0 3V13C0 14.6569 1.34315 16 3 16Z" fill="url(#paint0_linear_307_241)"/>
<path d="M13 15.75H3C1.48122 15.75 0.25 14.5188 0.25 13V3C0.25 1.48123 1.48128 0.25 3.00007 0.25H9.89645L15.75 6.10355V13.0005C15.75 14.5192 14.5188 15.75 13 15.75Z" stroke="black" stroke-opacity="0.06" stroke-width="0.5"/>
<path opacity="0.75" fill-rule="evenodd" clip-rule="evenodd" d="M2 8.6C2 8.26863 2.26208 8 2.58537 8L8.02439 8C8.34768 8 8.60976 8.26863 8.60976 8.6C8.60976 8.93137 8.34768 9.2 8.02439 9.2H2.58537C2.26208 9.2 2 8.93137 2 8.6ZM2 11C2 10.6686 2.26208 10.4 2.58537 10.4H9.41463C9.73792 10.4 10 10.6686 10 11C10 11.3314 9.73792 11.6 9.41463 11.6H2.58537C2.26208 11.6 2 11.3314 2 11ZM2 13.4C2 13.0686 2.26208 12.8 2.58537 12.8H7.09756C7.42085 12.8 7.68293 13.0686 7.68293 13.4C7.68293 13.7314 7.42085 14 7.09756 14H2.58537C2.26208 14 2 13.7314 2 13.4Z" fill="#2D3748"/>
<g filter="url(#filter0_d_307_241)">
<path d="M10 4V0L16 6H12C10.8954 6 10 5.10457 10 4Z" fill="url(#paint1_linear_307_241)"/>
</g>
</g>
<defs>
<filter id="filter0_d_307_241" x="8" y="-1" width="10" height="10" filterUnits="userSpaceOnUse" color-interpolation-filters="sRGB">
<feFlood flood-opacity="0" result="BackgroundImageFix"/>
<feColorMatrix in="SourceAlpha" type="matrix" values="0 0 0 0 0 0 0 0 0 0 0 0 0 0 0 0 0 0 127 0" result="hardAlpha"/>
<feOffset dy="1"/>
<feGaussianBlur stdDeviation="1"/>
<feColorMatrix type="matrix" values="0 0 0 0 0 0 0 0 0 0 0 0 0 0 0 0 0 0 0.25 0"/>
<feBlend mode="normal" in2="BackgroundImageFix" result="effect1_dropShadow_307_241"/>
<feBlend mode="normal" in="SourceGraphic" in2="effect1_dropShadow_307_241" result="shape"/>
</filter>
<linearGradient id="paint0_linear_307_241" x1="1" y1="1" x2="16" y2="16" gradientUnits="userSpaceOnUse">
<stop stop-color="#FDFDFD"/>
<stop offset="0.117896" stop-color="#FDFDFD"/>
<stop offset="0.213837" stop-color="#FDFDFC"/>
<stop offset="0.2912" stop-color="#FCFCFB"/>
<stop offset="0.353363" stop-color="#FCFCFA"/>
<stop offset="0.403704" stop-color="#FBFBF8"/>
<stop offset="0.4456" stop-color="#FAFAF7"/>
<stop offset="0.48243" stop-color="#F9F9F5"/>
<stop offset="0.51757" stop-color="#F9F8F3"/>
<stop offset="0.5544" stop-color="#F8F7F1"/>
<stop offset="0.596296" stop-color="#F7F6EE"/>
<stop offset="0.646637" stop-color="#F6F5EC"/>
<stop offset="0.7088" stop-color="#F5F4EA"/>
<stop offset="0.786163" stop-color="#F4F3E8"/>
<stop offset="0.882104" stop-color="#F3F3E6"/>
<stop offset="1" stop-color="#F2F2E4"/>
</linearGradient>
<linearGradient id="paint1_linear_307_241" x1="13" y1="3" x2="10" y2="6" gradientUnits="userSpaceOnUse">
<stop offset="0.514828" stop-color="white"/>
<stop offset="1" stop-color="white" stop-opacity="0"/>
</linearGradient>
<clipPath id="clip0_307_241">
<rect width="16" height="16" rx="3" fill="white"/>
</clipPath>
</defs>
</svg>
