<svg width="16" height="16" viewBox="0 0 16 16" fill="none" xmlns="http://www.w3.org/2000/svg">
<path fill-rule="evenodd" clip-rule="evenodd" d="M6.52118 1.52079e-07H9.47882C10.462 -6.5544e-06 11.2471 -1.19055e-05 11.8812 0.0517943C12.5315 0.104929 13.0909 0.216396 13.6046 0.478165C14.4301 0.898771 15.1012 1.56991 15.5218 2.3954C15.7836 2.90915 15.8951 3.46851 15.9482 4.11885C16 4.75292 16 5.538 16 6.52116V9.47884C16 10.462 16 11.2471 15.9482 11.8812C15.8951 12.5315 15.7836 13.0909 15.5218 13.6046C15.1012 14.4301 14.4301 15.1012 13.6046 15.5218C13.0909 15.7836 12.5315 15.8951 11.8812 15.9482C11.2471 16 10.462 16 9.47884 16H6.52116C5.538 16 4.75292 16 4.11885 15.9482C3.46851 15.8951 2.90915 15.7836 2.3954 15.5218C1.56991 15.1012 0.898771 14.4301 0.478165 13.6046C0.216396 13.0909 0.104929 12.5315 0.0517943 11.8812C-1.19055e-05 11.2471 -6.5544e-06 10.462 1.52079e-07 9.47882V6.52118C-6.5544e-06 5.53801 -1.19055e-05 4.75292 0.0517943 4.11885C0.104929 3.46851 0.216396 2.90915 0.478165 2.3954C0.898771 1.56991 1.56991 0.898771 2.3954 0.478165C2.90915 0.216396 3.46851 0.104929 4.11885 0.0517943C4.75292 -1.19055e-05 5.53801 -6.5544e-06 6.52118 1.52079e-07ZM4.24494 1.59504C3.69035 1.64035 3.35744 1.72577 3.09835 1.85779C2.56421 2.12994 2.12994 2.56421 1.85779 3.09835C1.72577 3.35744 1.64035 3.69035 1.59504 4.24494C1.54899 4.80856 1.54839 5.53036 1.54839 6.55484V9.44516C1.54839 10.4696 1.54899 11.1914 1.59504 11.7551C1.64035 12.3096 1.72577 12.6426 1.85779 12.9017C2.12994 13.4358 2.56421 13.8701 3.09835 14.1422C3.35744 14.2742 3.69035 14.3596 4.24494 14.405C4.80856 14.451 5.53036 14.4516 6.55484 14.4516H9.44516C10.4696 14.4516 11.1914 14.451 11.7551 14.405C12.3096 14.3596 12.6426 14.2742 12.9017 14.1422C13.4358 13.8701 13.8701 13.4358 14.1422 12.9017C14.2742 12.6426 14.3596 12.3096 14.405 11.7551C14.451 11.1914 14.4516 10.4696 14.4516 9.44516V6.55484C14.4516 5.53036 14.451 4.80856 14.405 4.24494C14.3596 3.69035 14.2742 3.35744 14.1422 3.09835C13.8701 2.56421 13.4358 2.12994 12.9017 1.85779C12.6426 1.72577 12.3096 1.64035 11.7551 1.59504C11.1914 1.54899 10.4696 1.54839 9.44516 1.54839H6.55484C5.53036 1.54839 4.80856 1.54899 4.24494 1.59504Z" fill="#718096"/>
<path fill-rule="evenodd" clip-rule="evenodd" d="M12.2621 8.82297C12.2621 7.80868 11.5911 7.35389 11.0489 7.19455C10.5066 7.03521 9.92135 7.1294 9.45646 7.45084C9.17513 5.95359 7.77744 4.93366 6.26573 5.12249C4.75402 5.31131 3.65016 6.64372 3.74577 8.16417C3.84138 9.68462 5.10346 10.8682 6.62691 10.8662C6.62691 10.8662 9.24059 10.8662 10.4189 10.8662C11.5972 10.8662 12.2621 9.83726 12.2621 8.82297Z" stroke="#A0AEC0" stroke-linecap="round" stroke-linejoin="round"/>
</svg>
