<svg width="16" height="16" viewBox="0 0 16 16" fill="none" xmlns="http://www.w3.org/2000/svg">
<g clip-path="url(#clip0_320_174)">
<path d="M3 16H13C14.6569 16 16 14.6574 16 13.0005V6L10 0H3.00007C1.34322 0 0 1.34315 0 3V13C0 14.6569 1.34315 16 3 16Z" fill="url(#paint0_linear_320_174)"/>
<path d="M13 15.75H3C1.48122 15.75 0.25 14.5188 0.25 13V3C0.25 1.48123 1.48128 0.25 3.00007 0.25H9.89645L15.75 6.10355V13.0005C15.75 14.5192 14.5188 15.75 13 15.75Z" stroke="black" stroke-opacity="0.06" stroke-width="0.5"/>
<g filter="url(#filter0_d_320_174)">
<path d="M10 4V0L16 6H12C10.8954 6 10 5.10457 10 4Z" fill="url(#paint1_linear_320_174)"/>
</g>
<path fill-rule="evenodd" clip-rule="evenodd" d="M10.5221 11.723C10.5221 10.7087 9.85112 10.2539 9.30885 10.0946C8.76658 9.93521 8.18135 10.0294 7.71646 10.3508C7.43512 8.85359 6.03743 7.83366 4.52572 8.02249C3.01402 8.21131 1.91016 9.54372 2.00577 11.0642C2.10138 12.5846 3.36346 13.7682 4.88691 13.7662C4.88691 13.7662 7.50059 13.7662 8.6789 13.7662C9.85721 13.7662 10.5221 12.7373 10.5221 11.723Z" stroke="white" stroke-linecap="round" stroke-linejoin="round"/>
</g>
<defs>
<filter id="filter0_d_320_174" x="8" y="-1" width="10" height="10" filterUnits="userSpaceOnUse" color-interpolation-filters="sRGB">
<feFlood flood-opacity="0" result="BackgroundImageFix"/>
<feColorMatrix in="SourceAlpha" type="matrix" values="0 0 0 0 0 0 0 0 0 0 0 0 0 0 0 0 0 0 127 0" result="hardAlpha"/>
<feOffset dy="1"/>
<feGaussianBlur stdDeviation="1"/>
<feColorMatrix type="matrix" values="0 0 0 0 0 0 0 0 0 0 0 0 0 0 0 0 0 0 0.25 0"/>
<feBlend mode="normal" in2="BackgroundImageFix" result="effect1_dropShadow_320_174"/>
<feBlend mode="normal" in="SourceGraphic" in2="effect1_dropShadow_320_174" result="shape"/>
</filter>
<linearGradient id="paint0_linear_320_174" x1="12.5" y1="3" x2="1.5" y2="15" gradientUnits="userSpaceOnUse">
<stop stop-color="#01ED6A"/>
<stop offset="0.117896" stop-color="#01EC6B"/>
<stop offset="0.213837" stop-color="#01E96C"/>
<stop offset="0.2912" stop-color="#01E56F"/>
<stop offset="0.353363" stop-color="#01E072"/>
<stop offset="0.403704" stop-color="#01D977"/>
<stop offset="0.4456" stop-color="#01D17C"/>
<stop offset="0.48243" stop-color="#01C981"/>
<stop offset="0.51757" stop-color="#01BF87"/>
<stop offset="0.5544" stop-color="#01B68D"/>
<stop offset="0.596296" stop-color="#00AC93"/>
<stop offset="0.646637" stop-color="#00A299"/>
<stop offset="0.7088" stop-color="#00989F"/>
<stop offset="0.786163" stop-color="#008FA5"/>
<stop offset="0.882104" stop-color="#0086AB"/>
<stop offset="1" stop-color="#007EB0"/>
</linearGradient>
<linearGradient id="paint1_linear_320_174" x1="13" y1="3" x2="10" y2="6" gradientUnits="userSpaceOnUse">
<stop offset="0.514828" stop-color="white"/>
<stop offset="1" stop-color="white" stop-opacity="0"/>
</linearGradient>
<clipPath id="clip0_320_174">
<rect width="16" height="16" rx="3" fill="white"/>
</clipPath>
</defs>
</svg>
