<svg width="24" height="24" viewBox="0 0 24 24" fill="none" xmlns="http://www.w3.org/2000/svg">
  <path fill-rule="evenodd" clip-rule="evenodd"
    d="M9.78176 2.28119e-07H14.2182C15.693 -9.83161e-06 16.8706 -1.78583e-05 17.8217 0.0776915C18.7972 0.157393 19.6363 0.324594 20.4069 0.717248C21.6451 1.34816 22.6518 2.35487 23.2828 3.5931C23.6754 4.36372 23.8426 5.20277 23.9223 6.17827C24 7.12938 24 8.30699 24 9.78173V14.2183C24 15.693 24 16.8706 23.9223 17.8217C23.8426 18.7972 23.6754 19.6363 23.2828 20.4069C22.6518 21.6451 21.6451 22.6518 20.4069 23.2828C19.6363 23.6754 18.7972 23.8426 17.8217 23.9223C16.8706 24 15.693 24 14.2183 24H9.78173C8.307 24 7.12938 24 6.17827 23.9223C5.20277 23.8426 4.36372 23.6754 3.5931 23.2828C2.35487 22.6518 1.34816 21.6451 0.717248 20.4069C0.324594 19.6363 0.157393 18.7972 0.0776915 17.8217C-1.78583e-05 16.8706 -9.83161e-06 15.693 2.28119e-07 14.2182V9.78176C-9.83161e-06 8.30701 -1.78583e-05 7.12939 0.0776915 6.17827C0.157393 5.20277 0.324594 4.36372 0.717248 3.5931C1.34816 2.35487 2.35487 1.34816 3.5931 0.717248C4.36372 0.324594 5.20277 0.157393 6.17827 0.0776915C7.12939 -1.78583e-05 8.30701 -9.83161e-06 9.78176 2.28119e-07ZM6.3674 2.39256C5.53553 2.46053 5.03616 2.58866 4.64752 2.78668C3.84632 3.19492 3.19492 3.84632 2.78668 4.64752C2.58866 5.03616 2.46053 5.53553 2.39256 6.3674C2.32348 7.21283 2.32258 8.29554 2.32258 9.83226V14.1677C2.32258 15.7045 2.32348 16.7872 2.39256 17.6326C2.46053 18.4645 2.58866 18.9638 2.78668 19.3525C3.19492 20.1537 3.84632 20.8051 4.64752 21.2133C5.03616 21.4113 5.53553 21.5395 6.3674 21.6074C7.21283 21.6765 8.29554 21.6774 9.83226 21.6774H14.1677C15.7045 21.6774 16.7872 21.6765 17.6326 21.6074C18.4645 21.5395 18.9638 21.4113 19.3525 21.2133C20.1537 20.8051 20.8051 20.1537 21.2133 19.3525C21.4113 18.9638 21.5395 18.4645 21.6074 17.6326C21.6765 16.7872 21.6774 15.7045 21.6774 14.1677V9.83226C21.6774 8.29554 21.6765 7.21283 21.6074 6.3674C21.5395 5.53553 21.4113 5.03616 21.2133 4.64752C20.8051 3.84632 20.1537 3.19492 19.3525 2.78668C18.9638 2.58866 18.4645 2.46053 17.6326 2.39256C16.7872 2.32348 15.7045 2.32258 14.1677 2.32258H9.83226C8.29554 2.32258 7.21283 2.32348 6.3674 2.39256Z"
    fill="#718096" style="fill:#718096;fill:color(display-p3 0.4431 0.5020 0.5882);fill-opacity:1;" />
  <path
    d="M12 4.50098C16.1421 4.50103 19.5 7.85895 19.5 12.001C19.4998 16.1429 16.1419 19.5009 12 19.501C7.85805 19.501 4.5002 16.1429 4.5 12.001C4.5 7.85891 7.85792 4.50098 12 4.50098ZM12 6.20508C8.79931 6.20508 6.2041 8.8003 6.2041 12.001C6.2043 15.2016 8.79943 17.7959 12 17.7959C15.2006 17.7958 17.7947 15.2015 17.7949 12.001C17.7949 8.80033 15.2007 6.20513 12 6.20508ZM11.999 11.4043C12.8274 11.4043 13.4989 11.8326 13.499 12.3613V14.9463C13.499 15.4751 12.8274 15.9043 11.999 15.9043C11.1708 15.9042 10.499 15.475 10.499 14.9463V12.3613C10.4991 11.8327 11.1709 11.4044 11.999 11.4043ZM12.0039 7.53809C12.8325 7.53812 13.5038 8.20996 13.5039 9.03809C13.5039 9.86647 12.8324 10.5381 12.0039 10.5381C11.1691 10.5381 10.5039 9.86014 10.5039 9.03809C10.504 8.21626 11.169 7.53809 12.0039 7.53809Z"
    fill="#A0AEC0" style="fill:#A0AEC0;fill:color(display-p3 0.6275 0.6824 0.7529);fill-opacity:1;" />
</svg>