<svg width="16" height="16" viewBox="0 0 16 16" fill="none" xmlns="http://www.w3.org/2000/svg">
<path opacity="0.5" fill-rule="evenodd" clip-rule="evenodd" d="M13.6086 4.3506C14.0171 4.15845 14.5037 4.34084 14.6853 4.7542C14.8604 5.15279 14.6859 5.61829 14.292 5.80358L11.2336 7.24205C9.73633 7.94627 8.78057 9.452 8.78057 11.1066L8.78056 15.2194C8.78056 15.6505 8.43109 16 8 16C7.5689 16 7.21943 15.6505 7.21943 15.2194L7.21944 11.1066C7.21945 9.45201 6.26368 7.94627 4.7664 7.24205L1.70804 5.80358C1.31409 5.6183 1.1396 5.15279 1.31469 4.7542C1.49627 4.34084 1.98288 4.15845 2.39143 4.3506L6.00288 6.0492C7.26784 6.64416 8.73219 6.64415 9.99714 6.0492L13.6086 4.3506Z" fill="#A0AEC0"/>
<path fill-rule="evenodd" clip-rule="evenodd" d="M7.25056 0.079119C7.74686 -0.026373 8.25979 -0.026373 8.75609 0.079119C9.3189 0.198746 9.83539 0.497209 10.5826 0.929025C10.6155 0.948012 10.6488 0.967257 10.6826 0.986756L12.7374 2.17308C12.7711 2.19258 12.8044 2.21179 12.8373 2.23076C13.5849 2.66199 14.1016 2.96006 14.4866 3.38764C14.8261 3.76471 15.0826 4.20892 15.2394 4.69147C15.4172 5.23869 15.417 5.83522 15.4166 6.69827C15.4166 6.73622 15.4166 6.77468 15.4166 6.81368V9.18632C15.4166 9.22532 15.4166 9.26378 15.4166 9.30173C15.417 10.1648 15.4172 10.7613 15.2394 11.3085C15.0826 11.7911 14.8261 12.2353 14.4866 12.6124C14.1016 13.0399 13.5849 13.338 12.8373 13.7692C12.8044 13.7882 12.7711 13.8074 12.7374 13.8269L10.6826 15.0132C10.6488 15.0327 10.6155 15.052 10.5826 15.071C9.83538 15.5028 9.31889 15.8013 8.75609 15.9209C8.25979 16.0264 7.74686 16.0264 7.25056 15.9209C6.68776 15.8013 6.17127 15.5028 5.42402 15.071C5.39116 15.052 5.35785 15.0327 5.32408 15.0132L3.26931 13.8269C3.23553 13.8074 3.20222 13.7882 3.16935 13.7692C2.42175 13.338 1.90503 13.0399 1.52003 12.6124C1.18052 12.2353 0.924051 11.7911 0.76726 11.3085C0.589458 10.7613 0.58969 10.1648 0.590025 9.30173C0.59004 9.26378 0.590054 9.22532 0.590054 9.18632V6.81368C0.590054 6.77468 0.59004 6.73622 0.590025 6.69827C0.58969 5.83522 0.589458 5.23869 0.76726 4.69147C0.924051 4.20892 1.18052 3.76471 1.52003 3.38764C1.90503 2.96006 2.42175 2.66199 3.16935 2.23076C3.20222 2.2118 3.23553 2.19258 3.26931 2.17308L5.32408 0.986756C5.35785 0.967258 5.39115 0.948013 5.42401 0.929027C6.17127 0.49721 6.68776 0.198747 7.25056 0.079119ZM8.45499 1.49572C8.15721 1.43242 7.84945 1.43242 7.55167 1.49572C7.24175 1.56159 6.93466 1.72917 6.0482 2.24097L3.99343 3.42729C3.10696 3.9391 2.80829 4.12125 2.59628 4.35671C2.39258 4.58295 2.2387 4.84947 2.14462 5.13901C2.04671 5.44034 2.0383 5.79008 2.0383 6.81368V9.18632C2.0383 10.2099 2.04671 10.5597 2.14462 10.861C2.2387 11.1505 2.39258 11.4171 2.59628 11.6433C2.80829 11.8788 3.10696 12.0609 3.99343 12.5727L6.0482 13.759C6.93466 14.2708 7.24175 14.4384 7.55167 14.5043C7.84945 14.5676 8.15721 14.5676 8.45499 14.5043C8.76491 14.4384 9.07199 14.2708 9.95846 13.759L12.0132 12.5727C12.8997 12.0609 13.1984 11.8788 13.4104 11.6433C13.6141 11.4171 13.768 11.1505 13.862 10.861C13.9599 10.5597 13.9684 10.2099 13.9684 9.18632V6.81368C13.9684 5.79008 13.9599 5.44034 13.862 5.13901C13.768 4.84947 13.6141 4.58295 13.4104 4.35671C13.1984 4.12125 12.8997 3.9391 12.0132 3.42729L9.95846 2.24097C9.07199 1.72917 8.76491 1.56159 8.45499 1.49572Z" fill="#718096"/>
</svg>
