<svg width="24" height="24" viewBox="0 0 24 24" fill="none" xmlns="http://www.w3.org/2000/svg">
<g id="Multiplayer Icons / Entity">
<path id="Vector" d="M9.83512 11.9639C9.83412 12.5766 10.0916 13.1613 10.5434 13.5748C10.9952 13.9883 11.6003 14.1935 12.2104 14.1405C12.8205 14.0864 13.3805 13.7801 13.7532 13.2935C14.1268 12.8079 14.2781 12.1882 14.1719 11.5845L23.0167 10.0267C23.3323 9.97261 23.6108 9.7874 23.7831 9.51608C23.9544 9.24576 24.0045 8.91537 23.9194 8.60702C22.7503 4.47421 19.5164 1.2464 15.379 0.0851089C15.0724 1.03079e-05 14.7428 0.0480661 14.4733 0.216262C14.2028 0.385459 14.0155 0.660785 13.9584 0.974135L12.3996 9.81334C11.7625 9.69821 11.1073 9.87141 10.6114 10.2869C10.1155 10.7024 9.83109 11.3172 9.83512 11.9639Z" fill="#718096"/>
<path id="Vector_2" d="M12.0199 23.9969C14.9982 24.0009 17.8733 22.8996 20.0853 20.9062C22.2973 18.9129 23.6909 16.1688 23.9933 13.2073C24.0283 12.8889 23.9252 12.5715 23.7088 12.3353C23.4954 12.098 23.1898 11.9618 22.8703 11.9618C22.8031 11.9618 22.736 11.9678 22.6699 11.9799C22.164 12.072 21.7833 12.4925 21.7422 13.005C21.4828 15.4669 20.2996 17.7396 18.4293 19.3643C16.5599 20.9882 14.1425 21.8432 11.6672 21.7571C9.19071 21.67 6.83953 20.6488 5.08841 18.8978C3.33627 17.1468 2.31453 14.7971 2.22836 12.3222C2.1422 9.84738 2.99874 7.43259 4.62468 5.56444C6.25059 3.69625 8.52468 2.51398 10.989 2.25563C11.5871 2.19856 12.0369 1.68395 12.0119 1.08327C11.9868 0.482584 11.4949 0.00702257 10.8938 0H10.7756C6.6502 0.435502 3.03871 2.96332 1.21938 6.68989C-0.599909 10.4162 -0.371479 14.8163 1.82447 18.3345C4.01942 21.8527 7.87336 23.9941 12.0219 24L12.0199 23.9969Z" fill="#718096"  fillOpacity="0.8"/>
<path id="Vector_3" d="M10.383 7.28446C10.7607 7.1483 11.0352 6.81892 11.1013 6.42345C11.1584 6.09106 11.0643 5.75067 10.8449 5.49537C10.6345 5.24007 10.3219 5.0919 9.99134 5.0899C9.86711 5.0899 9.74389 5.11093 9.62668 5.15198C7.27947 5.97193 5.51919 7.94024 4.96626 10.363C4.41328 12.7858 5.14559 15.3229 6.90375 17.0788C8.66292 18.8349 11.2026 19.5647 13.6259 19.0101C16.0492 18.4554 18.0178 16.6944 18.8361 14.3477C18.9553 14.0114 18.9012 13.6379 18.6929 13.3486C18.4805 13.0482 18.1349 12.868 17.7672 12.866C17.7001 12.867 17.6329 12.873 17.5668 12.8841C17.1711 12.9501 16.8415 13.2244 16.7053 13.6019C16.1423 15.2128 14.7898 16.4212 13.1258 16.8005C11.4619 17.1809 9.71876 16.6794 8.5116 15.4729C7.30444 14.2666 6.80251 12.5245 7.18221 10.8616C7.5629 9.1977 8.77225 7.84703 10.383 7.28446Z" fill="#718096"  fillOpacity="0.8"/>
</g>
</svg>
