<svg width="16" height="16" viewBox="0 0 16 16" fill="none" xmlns="http://www.w3.org/2000/svg">
<path fill-rule="evenodd" clip-rule="evenodd" d="M6.52118 1.52079e-07H9.47882C10.462 -6.5544e-06 11.2471 -1.19055e-05 11.8812 0.0517943C12.5315 0.104929 13.0909 0.216396 13.6046 0.478165C14.4301 0.898771 15.1012 1.56991 15.5218 2.3954C15.7836 2.90915 15.8951 3.46851 15.9482 4.11885C16 4.75292 16 5.538 16 6.52116V9.47884C16 10.462 16 11.2471 15.9482 11.8812C15.8951 12.5315 15.7836 13.0909 15.5218 13.6046C15.1012 14.4301 14.4301 15.1012 13.6046 15.5218C13.0909 15.7836 12.5315 15.8951 11.8812 15.9482C11.2471 16 10.462 16 9.47884 16H6.52116C5.538 16 4.75292 16 4.11885 15.9482C3.46851 15.8951 2.90915 15.7836 2.3954 15.5218C1.56991 15.1012 0.898771 14.4301 0.478165 13.6046C0.216396 13.0909 0.104929 12.5315 0.0517943 11.8812C-1.19055e-05 11.2471 -6.5544e-06 10.462 1.52079e-07 9.47882V6.52118C-6.5544e-06 5.53801 -1.19055e-05 4.75292 0.0517943 4.11885C0.104929 3.46851 0.216396 2.90915 0.478165 2.3954C0.898771 1.56991 1.56991 0.898771 2.3954 0.478165C2.90915 0.216396 3.46851 0.104929 4.11885 0.0517943C4.75292 -1.19055e-05 5.53801 -6.5544e-06 6.52118 1.52079e-07ZM4.24494 1.59504C3.69035 1.64035 3.35744 1.72577 3.09835 1.85779C2.56421 2.12994 2.12994 2.56421 1.85779 3.09835C1.72577 3.35744 1.64035 3.69035 1.59504 4.24494C1.54899 4.80856 1.54839 5.53036 1.54839 6.55484V9.44516C1.54839 10.4696 1.54899 11.1914 1.59504 11.7551C1.64035 12.3096 1.72577 12.6426 1.85779 12.9017C2.12994 13.4358 2.56421 13.8701 3.09835 14.1422C3.35744 14.2742 3.69035 14.3596 4.24494 14.405C4.80856 14.451 5.53036 14.4516 6.55484 14.4516H9.44516C10.4696 14.4516 11.1914 14.451 11.7551 14.405C12.3096 14.3596 12.6426 14.2742 12.9017 14.1422C13.4358 13.8701 13.8701 13.4358 14.1422 12.9017C14.2742 12.6426 14.3596 12.3096 14.405 11.7551C14.451 11.1914 14.4516 10.4696 14.4516 9.44516V6.55484C14.4516 5.53036 14.451 4.80856 14.405 4.24494C14.3596 3.69035 14.2742 3.35744 14.1422 3.09835C13.8701 2.56421 13.4358 2.12994 12.9017 1.85779C12.6426 1.72577 12.3096 1.64035 11.7551 1.59504C11.1914 1.54899 10.4696 1.54839 9.44516 1.54839H6.55484C5.53036 1.54839 4.80856 1.54899 4.24494 1.59504Z" fill="#718096"/>
<path fill-rule="evenodd" clip-rule="evenodd" d="M7.74353 9.97174C8.00849 9.97174 8.22353 9.7567 8.22353 9.49174C8.22353 9.22678 8.00849 9.01174 7.74353 9.01174C6.45664 9.01174 5.40928 7.96438 5.40928 6.67752C5.40928 5.39064 6.45664 4.34328 7.74353 4.34328C8.70209 4.34328 9.55265 4.91736 9.91025 5.80632C10.0091 6.0516 10.288 6.1716 10.5347 6.07224C10.7805 5.97288 10.8995 5.69352 10.8007 5.44776C10.2957 4.19352 9.09569 3.38328 7.74353 3.38328C5.9272 3.38328 4.44928 4.8612 4.44928 6.67752C4.44928 8.49382 5.9272 9.97174 7.74353 9.97174Z" fill="#A0AEC0"/>
<path fill-rule="evenodd" clip-rule="evenodd" d="M9.3534 6.19763C8.46108 6.19763 7.6254 6.54851 7.00044 7.18597C6.81468 7.37509 6.81756 7.67893 7.00716 7.86469C7.19628 8.04997 7.50013 8.04757 7.68589 7.85797C8.12893 7.40629 8.72076 7.15765 9.3534 7.15765C10.6408 7.15765 11.6876 8.20501 11.6876 9.49189C11.6876 10.7792 10.6408 11.8266 9.3534 11.8266C9.08844 11.8266 8.8734 12.0416 8.8734 12.3066C8.8734 12.5716 9.08844 12.7866 9.3534 12.7866C11.1697 12.7866 12.6476 11.3087 12.6476 9.49189C12.6476 7.67557 11.1697 6.19763 9.3534 6.19763Z" fill="#A0AEC0"/>
<path fill-rule="evenodd" clip-rule="evenodd" d="M9.40707 8.28142C9.30963 8.0347 9.03123 7.91374 8.78451 8.01166C8.53779 8.1091 8.41683 8.38798 8.51475 8.63422C8.62227 8.90734 8.67699 9.19582 8.67699 9.4915C8.67699 10.7793 7.63011 11.8267 6.34277 11.8267C5.05589 11.8267 4.00853 10.7793 4.00853 9.4915C4.00853 9.07726 4.11845 8.67022 4.32629 8.31502C4.45973 8.08606 4.38293 7.7923 4.15397 7.65838C3.92549 7.52446 3.63077 7.60126 3.49733 7.8307C3.20405 8.33278 3.04853 8.90734 3.04853 9.4915C3.04853 11.3088 4.52645 12.7867 6.34277 12.7867C8.15955 12.7867 9.63699 11.3088 9.63699 9.4915C9.63699 9.07438 9.55971 8.66734 9.40707 8.28142Z" fill="#A0AEC0"/>
</svg>
