<svg width="16" height="16" viewBox="0 0 16 16" fill="none" xmlns="http://www.w3.org/2000/svg">
<path fill-rule="evenodd" clip-rule="evenodd" d="M6.52118 1.52079e-07H9.47882C10.462 -6.5544e-06 11.2471 -1.19055e-05 11.8812 0.0517943C12.5315 0.104929 13.0909 0.216396 13.6046 0.478165C14.4301 0.898771 15.1012 1.56991 15.5218 2.3954C15.7836 2.90915 15.8951 3.46851 15.9482 4.11885C16 4.75292 16 5.538 16 6.52116V9.47884C16 10.462 16 11.2471 15.9482 11.8812C15.8951 12.5315 15.7836 13.0909 15.5218 13.6046C15.1012 14.4301 14.4301 15.1012 13.6046 15.5218C13.0909 15.7836 12.5315 15.8951 11.8812 15.9482C11.2471 16 10.462 16 9.47884 16H6.52116C5.538 16 4.75292 16 4.11885 15.9482C3.46851 15.8951 2.90915 15.7836 2.3954 15.5218C1.56991 15.1012 0.898771 14.4301 0.478165 13.6046C0.216396 13.0909 0.104929 12.5315 0.0517943 11.8812C-1.19055e-05 11.2471 -6.5544e-06 10.462 1.52079e-07 9.47882V6.52118C-6.5544e-06 5.53801 -1.19055e-05 4.75292 0.0517943 4.11885C0.104929 3.46851 0.216396 2.90915 0.478165 2.3954C0.898771 1.56991 1.56991 0.898771 2.3954 0.478165C2.90915 0.216396 3.46851 0.104929 4.11885 0.0517943C4.75292 -1.19055e-05 5.53801 -6.5544e-06 6.52118 1.52079e-07ZM4.24494 1.59504C3.69035 1.64035 3.35744 1.72577 3.09835 1.85779C2.56421 2.12994 2.12994 2.56421 1.85779 3.09835C1.72577 3.35744 1.64035 3.69035 1.59504 4.24494C1.54899 4.80856 1.54839 5.53036 1.54839 6.55484V9.44516C1.54839 10.4696 1.54899 11.1914 1.59504 11.7551C1.64035 12.3096 1.72577 12.6426 1.85779 12.9017C2.12994 13.4358 2.56421 13.8701 3.09835 14.1422C3.35744 14.2742 3.69035 14.3596 4.24494 14.405C4.80856 14.451 5.53036 14.4516 6.55484 14.4516H9.44516C10.4696 14.4516 11.1914 14.451 11.7551 14.405C12.3096 14.3596 12.6426 14.2742 12.9017 14.1422C13.4358 13.8701 13.8701 13.4358 14.1422 12.9017C14.2742 12.6426 14.3596 12.3096 14.405 11.7551C14.451 11.1914 14.4516 10.4696 14.4516 9.44516V6.55484C14.4516 5.53036 14.451 4.80856 14.405 4.24494C14.3596 3.69035 14.2742 3.35744 14.1422 3.09835C13.8701 2.56421 13.4358 2.12994 12.9017 1.85779C12.6426 1.72577 12.3096 1.64035 11.7551 1.59504C11.1914 1.54899 10.4696 1.54839 9.44516 1.54839H6.55484C5.53036 1.54839 4.80856 1.54899 4.24494 1.59504Z" fill="#718096"/>
<path d="M9.60185 8.82433C10.0475 8.65302 10.6248 8.60372 11.1494 8.59177H11.1756C11.32 8.59177 11.4512 8.48171 11.464 8.33432C11.4773 8.18741 11.359 8.05246 11.2017 8.02806C10.5854 7.97925 10.0081 7.97925 9.35234 8.15056C9.19508 8.19937 9.02449 8.26063 8.86723 8.37117C8.70997 8.48123 8.5527 8.62862 8.46048 8.83677C8.42104 8.93487 8.39492 9.04493 8.3816 9.15548C8.3816 9.27798 8.39492 9.41293 8.44717 9.52298C8.56499 9.76799 8.76169 9.90294 8.91948 9.98859C9.24733 10.1723 9.54906 10.2336 9.83746 10.3192C10.1259 10.3929 10.4015 10.4542 10.6504 10.5154C10.7683 10.5523 10.8866 10.5891 10.965 10.6255C10.9388 10.638 10.9127 10.6499 10.8733 10.6624C10.4404 10.8217 9.86358 10.9074 9.32567 10.9811C8.77499 11.0547 8.21098 11.116 7.64695 11.1648C7.08294 11.2136 6.51893 11.2629 5.94212 11.2998L4.2373 11.4347C4.10616 11.4471 4.00114 11.5328 4.00114 11.6553C3.98782 11.7903 4.09283 11.9128 4.2373 11.9247C5.39144 12.0104 6.54563 12.0104 7.69914 11.986C8.27595 11.9616 8.85328 11.9247 9.44344 11.8635C10.0336 11.7898 10.6104 11.7285 11.2399 11.496C11.3972 11.4347 11.5678 11.361 11.7645 11.1773C11.8167 11.1284 11.8695 11.0672 11.909 10.9935C11.9351 10.9567 11.9484 10.9078 11.9612 10.8586L11.9873 10.7605C12.0135 10.638 12.0007 10.4666 11.9351 10.3193C11.7906 10.0254 11.5678 9.90294 11.3972 9.82924C11.2266 9.75555 11.0693 9.70674 10.9121 9.65794C10.6104 9.58424 10.3219 9.52299 10.0597 9.47418C9.79739 9.42538 9.53511 9.36412 9.35172 9.27798C9.26002 9.24114 9.22058 9.19233 9.22058 9.19233C9.20726 9.19233 9.22058 9.19233 9.20726 9.16792C9.20726 9.14352 9.20726 9.11911 9.22058 9.09423C9.2216 9.0325 9.37902 8.90998 9.60185 8.82433Z" fill="#718096"/>
<path d="M4.03249 11.1603C4.05668 11.1854 4.08955 11.1997 4.12428 11.2C4.13793 11.2 4.15126 11.1975 4.16398 11.1926L4.35998 11.118L6.10658 10.4177C6.12209 10.4125 6.13573 10.4031 6.14628 10.3904L10.9221 5.60739C11.1008 5.432 11.2009 5.19204 11.2 4.94184C11.1991 4.59386 11.0077 4.27444 10.7013 4.10989C10.4235 3.96337 10.091 3.96337 9.8131 4.10989C9.79542 4.11796 9.77899 4.1279 9.76348 4.13969C9.75107 4.14714 9.7213 4.16453 9.69401 4.18439C9.65773 4.21202 9.62361 4.24275 9.5923 4.27627L4.8139 9.05676C4.80119 9.06731 4.79189 9.08097 4.78661 9.09649L4.01007 11.0285C3.99084 11.0729 3.99962 11.1249 4.03249 11.1603Z" fill="#718096"/>
</svg>
