<svg width="32" height="32" viewBox="0 0 32 32" fill="none" xmlns="http://www.w3.org/2000/svg">
<path fill-rule="evenodd" clip-rule="evenodd" d="M13.0424 3.04158e-07H18.9576C20.924 -1.31088e-05 22.4941 -2.38111e-05 23.7623 0.103589C25.063 0.209858 26.1817 0.432792 27.2092 0.95633C28.8602 1.79754 30.2025 3.13982 31.0437 4.79079C31.5672 5.8183 31.7901 6.93702 31.8964 8.23769C32 9.50584 32 11.076 32 13.0423V18.9577C32 20.924 32 22.4942 31.8964 23.7623C31.7901 25.063 31.5672 26.1817 31.0437 27.2092C30.2025 28.8602 28.8602 30.2025 27.2092 31.0437C26.1817 31.5672 25.063 31.7901 23.7623 31.8964C22.4942 32 20.924 32 18.9577 32H13.0423C11.076 32 9.50584 32 8.23769 31.8964C6.93702 31.7901 5.8183 31.5672 4.79079 31.0437C3.13982 30.2025 1.79754 28.8602 0.95633 27.2092C0.432792 26.1817 0.209858 25.063 0.103589 23.7623C-2.38111e-05 22.4941 -1.31088e-05 20.924 3.04158e-07 18.9576V13.0424C-1.31088e-05 11.076 -2.38111e-05 9.50585 0.103589 8.23769C0.209858 6.93702 0.432792 5.8183 0.95633 4.79079C1.79754 3.13982 3.13982 1.79754 4.79079 0.95633C5.8183 0.432792 6.93702 0.209858 8.23769 0.103589C9.50585 -2.38111e-05 11.076 -1.31088e-05 13.0424 3.04158e-07ZM8.48987 3.19008C7.38071 3.2807 6.71488 3.45155 6.1967 3.71558C5.12842 4.25989 4.25989 5.12842 3.71558 6.1967C3.45155 6.71488 3.2807 7.38071 3.19008 8.48987C3.09798 9.61711 3.09677 11.0607 3.09677 13.1097V18.8903C3.09677 20.9393 3.09798 22.3829 3.19008 23.5101C3.2807 24.6193 3.45155 25.2851 3.71558 25.8033C4.25989 26.8716 5.12842 27.7401 6.1967 28.2844C6.71488 28.5485 7.38071 28.7193 8.48987 28.8099C9.61711 28.902 11.0607 28.9032 13.1097 28.9032H18.8903C20.9393 28.9032 22.3829 28.902 23.5101 28.8099C24.6193 28.7193 25.2851 28.5485 25.8033 28.2844C26.8716 27.7401 27.7401 26.8716 28.2844 25.8033C28.5485 25.2851 28.7193 24.6193 28.8099 23.5101C28.902 22.3829 28.9032 20.9393 28.9032 18.8903V13.1097C28.9032 11.0607 28.902 9.61711 28.8099 8.48987C28.7193 7.38071 28.5485 6.71488 28.2844 6.1967C27.7401 5.12842 26.8716 4.25989 25.8033 3.71558C25.2851 3.45155 24.6193 3.2807 23.5101 3.19008C22.3829 3.09798 20.9393 3.09677 18.8903 3.09677H13.1097C11.0607 3.09677 9.61711 3.09798 8.48987 3.19008Z" fill="#718096" style="fill:#718096;fill:color(display-p3 0.4431 0.5020 0.5882);fill-opacity:1;"/>
<path d="M16 16.5714C18.3669 16.5714 20.2857 14.6527 20.2857 12.2857C20.2857 9.91878 18.3669 8 16 8C13.6331 8 11.7143 9.91878 11.7143 12.2857C11.7143 14.6527 13.6331 16.5714 16 16.5714Z" fill="#718096" style="fill:#718096;fill:color(display-p3 0.4431 0.5020 0.5882);fill-opacity:1;"/>
<path d="M6 29.4286C6 23.9057 10.4772 19.4286 16 19.4286C21.5228 19.4286 26 23.9057 26 29.4286H6Z" fill="#718096" style="fill:#718096;fill:color(display-p3 0.4431 0.5020 0.5882);fill-opacity:1;"/>
</svg>
