<svg width="24" height="24" viewBox="0 0 24 24" fill="none" xmlns="http://www.w3.org/2000/svg">
<path fill-rule="evenodd" clip-rule="evenodd" d="M9.78176 2.28119e-07H14.2182C15.693 -9.83161e-06 16.8706 -1.78583e-05 17.8217 0.0776915C18.7972 0.157393 19.6363 0.324594 20.4069 0.717248C21.6451 1.34816 22.6518 2.35487 23.2828 3.5931C23.6754 4.36372 23.8426 5.20277 23.9223 6.17827C24 7.12938 24 8.30699 24 9.78173V14.2183C24 15.693 24 16.8706 23.9223 17.8217C23.8426 18.7972 23.6754 19.6363 23.2828 20.4069C22.6518 21.6451 21.6451 22.6518 20.4069 23.2828C19.6363 23.6754 18.7972 23.8426 17.8217 23.9223C16.8706 24 15.693 24 14.2183 24H9.78173C8.307 24 7.12938 24 6.17827 23.9223C5.20277 23.8426 4.36372 23.6754 3.5931 23.2828C2.35487 22.6518 1.34816 21.6451 0.717248 20.4069C0.324594 19.6363 0.157393 18.7972 0.0776915 17.8217C-1.78583e-05 16.8706 -9.83161e-06 15.693 2.28119e-07 14.2182V9.78176C-9.83161e-06 8.30701 -1.78583e-05 7.12939 0.0776915 6.17827C0.157393 5.20277 0.324594 4.36372 0.717248 3.5931C1.34816 2.35487 2.35487 1.34816 3.5931 0.717248C4.36372 0.324594 5.20277 0.157393 6.17827 0.0776915C7.12939 -1.78583e-05 8.30701 -9.83161e-06 9.78176 2.28119e-07ZM6.3674 2.39256C5.53553 2.46053 5.03616 2.58866 4.64752 2.78668C3.84632 3.19492 3.19492 3.84632 2.78668 4.64752C2.58866 5.03616 2.46053 5.53553 2.39256 6.3674C2.32348 7.21283 2.32258 8.29554 2.32258 9.83226V14.1677C2.32258 15.7045 2.32348 16.7872 2.39256 17.6326C2.46053 18.4645 2.58866 18.9638 2.78668 19.3525C3.19492 20.1537 3.84632 20.8051 4.64752 21.2133C5.03616 21.4113 5.53553 21.5395 6.3674 21.6074C7.21283 21.6765 8.29554 21.6774 9.83226 21.6774H14.1677C15.7045 21.6774 16.7872 21.6765 17.6326 21.6074C18.4645 21.5395 18.9638 21.4113 19.3525 21.2133C20.1537 20.8051 20.8051 20.1537 21.2133 19.3525C21.4113 18.9638 21.5395 18.4645 21.6074 17.6326C21.6765 16.7872 21.6774 15.7045 21.6774 14.1677V9.83226C21.6774 8.29554 21.6765 7.21283 21.6074 6.3674C21.5395 5.53553 21.4113 5.03616 21.2133 4.64752C20.8051 3.84632 20.1537 3.19492 19.3525 2.78668C18.9638 2.58866 18.4645 2.46053 17.6326 2.39256C16.7872 2.32348 15.7045 2.32258 14.1677 2.32258H9.83226C8.29554 2.32258 7.21283 2.32348 6.3674 2.39256Z" fill="currentColor"/>
<path d="M7.98638 6.81293C8.36594 6.97876 8.5392 7.4209 8.37336 7.80047C7.81187 9.0856 7.5 10.5055 7.5 12.0002C7.5 13.4949 7.81187 14.9148 8.37336 16.1999C8.5392 16.5795 8.36594 17.0216 7.98638 17.1875C7.60681 17.3533 7.16467 17.18 6.99883 16.8005C6.35615 15.3295 6 13.7055 6 12.0002C6 10.2949 6.35615 8.67086 6.99883 7.19991C7.16467 6.82035 7.60681 6.64709 7.98638 6.81293Z" fill="currentColor"/>
<path d="M14.2209 9.75018C13.5374 9.75018 12.891 10.0609 12.464 10.5946L12.2184 10.9016L12.1349 10.6931C11.9071 10.1236 11.3556 9.75018 10.7422 9.75018H10.5C10.0858 9.75018 9.75 10.086 9.75 10.5002C9.75 10.9144 10.0858 11.2502 10.5 11.2502H10.7422L11.1413 12.2479L10.3647 13.2187C10.2224 13.3966 10.0069 13.5002 9.77906 13.5002H9.75C9.33579 13.5002 9 13.836 9 14.2502C9 14.6644 9.33579 15.0002 9.75 15.0002H9.77906C10.4626 15.0002 11.109 14.6895 11.536 14.1557L11.7816 13.8487L11.8651 14.0573C12.0929 14.6268 12.6444 15.0002 13.2578 15.0002H13.5C13.9142 15.0002 14.25 14.6644 14.25 14.2502C14.25 13.836 13.9142 13.5002 13.5 13.5002H13.2578L12.8587 12.5024L13.6353 11.5317C13.7776 11.3538 13.9931 11.2502 14.2209 11.2502H14.25C14.6642 11.2502 15 10.9144 15 10.5002C15 10.086 14.6642 9.75018 14.25 9.75018H14.2209Z" fill="currentColor"/>
<path d="M15.6266 7.80047C15.4608 7.4209 15.6341 6.97876 16.0136 6.81293C16.3932 6.64709 16.8353 6.82035 17.0012 7.19991C17.6439 8.67086 18 10.2949 18 12.0002C18 13.7055 17.6439 15.3295 17.0012 16.8005C16.8353 17.18 16.3932 17.3533 16.0136 17.1875C15.6341 17.0216 15.4608 16.5795 15.6266 16.1999C16.1881 14.9148 16.5 13.4949 16.5 12.0002C16.5 10.5055 16.1881 9.0856 15.6266 7.80047Z" fill="currentColor"/>
</svg>
